0
SECTION
2
HEADER
9
$ANGDIR
70
1
9
$AUNITS
70
0
9
$PROJECTNAME
1
bateria EPS
9
$TDCREATE
40
2458946.67777368
9
$INSUNITS
70
4
0
ENDSEC
0
SECTION
2
ENTITIES
0
POLYLINE
66
1
8
outline
10
0.0
20
0.0
30
0.0
70
1
0
VERTEX
8
0
10
0
20
0
30
0
0
VERTEX
8
0
10
40.445
20
0
30
0
0
VERTEX
8
0
10
40.445
20
5
30
0
0
VERTEX
8
0
10
55.445
20
5
30
0
0
VERTEX
8
0
10
55.445
20
0
30
0
0
VERTEX
8
0
10
95.89
20
0
30
0
0
VERTEX
8
0
10
95.89
20
7.4
30
0
0
VERTEX
8
0
10
94.29
20
7.4
30
0
0
VERTEX
8
0
10
94.29
20
13.89
30
0
0
VERTEX
8
0
10
88.39
20
13.89
30
0
0
VERTEX
8
0
10
88.39
20
76.28
30
0
0
VERTEX
8
0
10
94.29
20
76.28
30
0
0
VERTEX
8
0
10
94.29
20
82.77000000000001
30
0
0
VERTEX
8
0
10
95.89
20
82.77000000000001
30
0
0
VERTEX
8
0
10
95.89
20
90.17
30
0
0
VERTEX
8
0
10
55.445
20
90.17
30
0
0
VERTEX
8
0
10
55.445
20
85.17
30
0
0
VERTEX
8
0
10
40.445
20
85.17
30
0
0
VERTEX
8
0
10
40.445
20
90.17
30
0
0
VERTEX
8
0
10
0
20
90.17
30
0
0
VERTEX
8
0
10
0
20
82.77000000000001
30
0
0
VERTEX
8
0
10
1.6
20
82.77000000000001
30
0
0
VERTEX
8
0
10
1.6
20
76.28
30
0
0
VERTEX
8
0
10
7.5
20
76.28
30
0
0
VERTEX
8
0
10
7.5
20
13.89
30
0
0
VERTEX
8
0
10
1.6
20
13.89
30
0
0
VERTEX
8
0
10
1.6
20
7.4
30
0
0
VERTEX
8
0
10
0
20
7.4
30
0
0
VERTEX
8
0
10
0
20
0
30
0
0
SEQEND
0
POLYLINE
66
1
8
holes
10
0.0
20
0.0
30
0.0
70
1
0
VERTEX
8
0
10
44.945
20
45.031428125000005
30
0
0
VERTEX
8
0
10
44.945
20
45.138571875000004
30
0
0
VERTEX
8
0
10
44.93735625
20
45.24544375
30
0
0
VERTEX
8
0
10
44.922109375000005
20
45.3515
30
0
0
VERTEX
8
0
10
44.89933125
20
45.456196875
30
0
0
VERTEX
8
0
10
44.869146875000006
20
45.559000000000005
30
0
0
VERTEX
8
0
10
44.831703125000004
20
45.659390625
30
0
0
VERTEX
8
0
10
44.78719375
20
45.756853125
30
0
0
VERTEX
8
0
10
44.73584375
20
45.850893750000004
30
0
0
VERTEX
8
0
10
44.677915625000004
20
45.941028125
30
0
0
VERTEX
8
0
10
44.61370625
20
46.026803125
30
0
0
VERTEX
8
0
10
44.543540625000006
20
46.107778125
30
0
0
VERTEX
8
0
10
44.467778125
20
46.183540625
30
0
0
VERTEX
8
0
10
44.386803125
20
46.25370625
30
0
0
VERTEX
8
0
10
44.301028125
20
46.317915625000005
30
0
0
VERTEX
8
0
10
44.210893750000004
20
46.37584375
30
0
0
VERTEX
8
0
10
44.116853125
20
46.42719375
30
0
0
VERTEX
8
0
10
44.019390625
20
46.471703125000005
30
0
0
VERTEX
8
0
10
43.919000000000004
20
46.509146875
30
0
0
VERTEX
8
0
10
43.816196875
20
46.539331250000004
30
0
0
VERTEX
8
0
10
43.7115
20
46.562109375000006
30
0
0
VERTEX
8
0
10
43.60544375
20
46.57735625
30
0
0
VERTEX
8
0
10
43.498571875
20
46.585
30
0
0
VERTEX
8
0
10
43.391428125000004
20
46.585
30
0
0
VERTEX
8
0
10
43.28455625
20
46.57735625
30
0
0
VERTEX
8
0
10
43.1785
20
46.562109375000006
30
0
0
VERTEX
8
0
10
43.073803125000005
20
46.539331250000004
30
0
0
VERTEX
8
0
10
42.971000000000004
20
46.509146875
30
0
0
VERTEX
8
0
10
42.870609375
20
46.471703125000005
30
0
0
VERTEX
8
0
10
42.773146875
20
46.42719375
30
0
0
VERTEX
8
0
10
42.679106250000004
20
46.37584375
30
0
0
VERTEX
8
0
10
42.588971875
20
46.317915625000005
30
0
0
VERTEX
8
0
10
42.503196875
20
46.25370625
30
0
0
VERTEX
8
0
10
42.422221875000005
20
46.183540625
30
0
0
VERTEX
8
0
10
42.346459375
20
46.107778125
30
0
0
VERTEX
8
0
10
42.27629375
20
46.026803125
30
0
0
VERTEX
8
0
10
42.212084375
20
45.941028125
30
0
0
VERTEX
8
0
10
42.15415625
20
45.850893750000004
30
0
0
VERTEX
8
0
10
42.10280625
20
45.756853125
30
0
0
VERTEX
8
0
10
42.058296875
20
45.659390625
30
0
0
VERTEX
8
0
10
42.020853125
20
45.559000000000005
30
0
0
VERTEX
8
0
10
41.990668750000005
20
45.456196875
30
0
0
VERTEX
8
0
10
41.967890625
20
45.3515
30
0
0
VERTEX
8
0
10
41.95264375
20
45.24544375
30
0
0
VERTEX
8
0
10
41.945
20
45.138571875000004
30
0
0
VERTEX
8
0
10
41.945
20
45.031428125000005
30
0
0
VERTEX
8
0
10
41.95264375
20
44.92455625
30
0
0
VERTEX
8
0
10
41.967890625
20
44.8185
30
0
0
VERTEX
8
0
10
41.990668750000005
20
44.713803125000005
30
0
0
VERTEX
8
0
10
42.020853125
20
44.611000000000004
30
0
0
VERTEX
8
0
10
42.058296875
20
44.510609375
30
0
0
VERTEX
8
0
10
42.10280625
20
44.413146875
30
0
0
VERTEX
8
0
10
42.15415625
20
44.319106250000004
30
0
0
VERTEX
8
0
10
42.212084375
20
44.228971875
30
0
0
VERTEX
8
0
10
42.27629375
20
44.143196875
30
0
0
VERTEX
8
0
10
42.346459375
20
44.062221875
30
0
0
VERTEX
8
0
10
42.422221875000005
20
43.986459375
30
0
0
VERTEX
8
0
10
42.503196875
20
43.91629375
30
0
0
VERTEX
8
0
10
42.588971875
20
43.852084375000004
30
0
0
VERTEX
8
0
10
42.679106250000004
20
43.79415625
30
0
0
VERTEX
8
0
10
42.773146875
20
43.74280625
30
0
0
VERTEX
8
0
10
42.870609375
20
43.698296875000004
30
0
0
VERTEX
8
0
10
42.971000000000004
20
43.660853125
30
0
0
VERTEX
8
0
10
43.073803125000005
20
43.630668750000005
30
0
0
VERTEX
8
0
10
43.1785
20
43.607890625
30
0
0
VERTEX
8
0
10
43.28455625
20
43.59264375
30
0
0
VERTEX
8
0
10
43.391428125000004
20
43.585
30
0
0
VERTEX
8
0
10
43.498571875
20
43.585
30
0
0
VERTEX
8
0
10
43.60544375
20
43.59264375
30
0
0
VERTEX
8
0
10
43.7115
20
43.607890625
30
0
0
VERTEX
8
0
10
43.816196875
20
43.630668750000005
30
0
0
VERTEX
8
0
10
43.919000000000004
20
43.660853125
30
0
0
VERTEX
8
0
10
44.019390625
20
43.698296875000004
30
0
0
VERTEX
8
0
10
44.116853125
20
43.74280625
30
0
0
VERTEX
8
0
10
44.210893750000004
20
43.79415625
30
0
0
VERTEX
8
0
10
44.301028125
20
43.852084375000004
30
0
0
VERTEX
8
0
10
44.386803125
20
43.91629375
30
0
0
VERTEX
8
0
10
44.467778125
20
43.986459375
30
0
0
VERTEX
8
0
10
44.543540625000006
20
44.062221875
30
0
0
VERTEX
8
0
10
44.61370625
20
44.143196875
30
0
0
VERTEX
8
0
10
44.677915625000004
20
44.228971875
30
0
0
VERTEX
8
0
10
44.73584375
20
44.319106250000004
30
0
0
VERTEX
8
0
10
44.78719375
20
44.413146875
30
0
0
VERTEX
8
0
10
44.831703125000004
20
44.510609375
30
0
0
VERTEX
8
0
10
44.869146875000006
20
44.611000000000004
30
0
0
VERTEX
8
0
10
44.89933125
20
44.713803125000005
30
0
0
VERTEX
8
0
10
44.922109375000005
20
44.8185
30
0
0
VERTEX
8
0
10
44.93735625
20
44.92455625
30
0
0
VERTEX
8
0
10
44.945
20
45.031428125000005
30
0
0
SEQEND
0
POLYLINE
66
1
8
holes
10
0.0
20
0.0
30
0.0
70
1
0
VERTEX
8
0
10
6.58
20
85.036428125
30
0
0
VERTEX
8
0
10
6.58
20
85.143571875
30
0
0
VERTEX
8
0
10
6.57235625
20
85.25044375
30
0
0
VERTEX
8
0
10
6.5571093750000005
20
85.35650000000001
30
0
0
VERTEX
8
0
10
6.53433125
20
85.461196875
30
0
0
VERTEX
8
0
10
6.504146875
20
85.56400000000001
30
0
0
VERTEX
8
0
10
6.466703125
20
85.66439062500001
30
0
0
VERTEX
8
0
10
6.42219375
20
85.761853125
30
0
0
VERTEX
8
0
10
6.370843750000001
20
85.85589375
30
0
0
VERTEX
8
0
10
6.3129156250000005
20
85.946028125
30
0
0
VERTEX
8
0
10
6.248706250000001
20
86.03180312500001
30
0
0
VERTEX
8
0
10
6.178540625
20
86.112778125
30
0
0
VERTEX
8
0
10
6.102778125
20
86.188540625
30
0
0
VERTEX
8
0
10
6.021803125
20
86.25870625
30
0
0
VERTEX
8
0
10
5.936028125
20
86.32291562500001
30
0
0
VERTEX
8
0
10
5.84589375
20
86.38084375000001
30
0
0
VERTEX
8
0
10
5.751853125
20
86.43219375000001
30
0
0
VERTEX
8
0
10
5.6543906250000004
20
86.476703125
30
0
0
VERTEX
8
0
10
5.554
20
86.51414687500001
30
0
0
VERTEX
8
0
10
5.451196875
20
86.54433125
30
0
0
VERTEX
8
0
10
5.346500000000001
20
86.567109375
30
0
0
VERTEX
8
0
10
5.24044375
20
86.58235625
30
0
0
VERTEX
8
0
10
5.133571875
20
86.59
30
0
0
VERTEX
8
0
10
5.026428125
20
86.59
30
0
0
VERTEX
8
0
10
4.91955625
20
86.58235625
30
0
0
VERTEX
8
0
10
4.8135
20
86.567109375
30
0
0
VERTEX
8
0
10
4.708803125
20
86.54433125
30
0
0
VERTEX
8
0
10
4.606
20
86.51414687500001
30
0
0
VERTEX
8
0
10
4.505609375000001
20
86.476703125
30
0
0
VERTEX
8
0
10
4.408146875
20
86.43219375000001
30
0
0
VERTEX
8
0
10
4.31410625
20
86.38084375000001
30
0
0
VERTEX
8
0
10
4.223971875
20
86.32291562500001
30
0
0
VERTEX
8
0
10
4.138196875
20
86.25870625
30
0
0
VERTEX
8
0
10
4.057221875
20
86.188540625
30
0
0
VERTEX
8
0
10
3.981459375
20
86.112778125
30
0
0
VERTEX
8
0
10
3.91129375
20
86.03180312500001
30
0
0
VERTEX
8
0
10
3.847084375
20
85.946028125
30
0
0
VERTEX
8
0
10
3.78915625
20
85.85589375
30
0
0
VERTEX
8
0
10
3.73780625
20
85.761853125
30
0
0
VERTEX
8
0
10
3.693296875
20
85.66439062500001
30
0
0
VERTEX
8
0
10
3.655853125
20
85.56400000000001
30
0
0
VERTEX
8
0
10
3.62566875
20
85.461196875
30
0
0
VERTEX
8
0
10
3.602890625
20
85.35650000000001
30
0
0
VERTEX
8
0
10
3.5876437500000002
20
85.25044375
30
0
0
VERTEX
8
0
10
3.58
20
85.143571875
30
0
0
VERTEX
8
0
10
3.58
20
85.036428125
30
0
0
VERTEX
8
0
10
3.5876437500000002
20
84.92955625
30
0
0
VERTEX
8
0
10
3.602890625
20
84.82350000000001
30
0
0
VERTEX
8
0
10
3.62566875
20
84.71880312500001
30
0
0
VERTEX
8
0
10
3.655853125
20
84.616
30
0
0
VERTEX
8
0
10
3.693296875
20
84.51560937500001
30
0
0
VERTEX
8
0
10
3.73780625
20
84.418146875
30
0
0
VERTEX
8
0
10
3.78915625
20
84.32410625
30
0
0
VERTEX
8
0
10
3.847084375
20
84.23397187500001
30
0
0
VERTEX
8
0
10
3.91129375
20
84.14819687500001
30
0
0
VERTEX
8
0
10
3.981459375
20
84.067221875
30
0
0
VERTEX
8
0
10
4.057221875
20
83.991459375
30
0
0
VERTEX
8
0
10
4.138196875
20
83.92129375
30
0
0
VERTEX
8
0
10
4.223971875
20
83.857084375
30
0
0
VERTEX
8
0
10
4.31410625
20
83.79915625000001
30
0
0
VERTEX
8
0
10
4.408146875
20
83.74780625000001
30
0
0
VERTEX
8
0
10
4.505609375000001
20
83.703296875
30
0
0
VERTEX
8
0
10
4.606
20
83.665853125
30
0
0
VERTEX
8
0
10
4.708803125
20
83.63566875000001
30
0
0
VERTEX
8
0
10
4.8135
20
83.612890625
30
0
0
VERTEX
8
0
10
4.91955625
20
83.59764375
30
0
0
VERTEX
8
0
10
5.026428125
20
83.59
30
0
0
VERTEX
8
0
10
5.133571875
20
83.59
30
0
0
VERTEX
8
0
10
5.24044375
20
83.59764375
30
0
0
VERTEX
8
0
10
5.346500000000001
20
83.612890625
30
0
0
VERTEX
8
0
10
5.451196875
20
83.63566875000001
30
0
0
VERTEX
8
0
10
5.554
20
83.665853125
30
0
0
VERTEX
8
0
10
5.6543906250000004
20
83.703296875
30
0
0
VERTEX
8
0
10
5.751853125
20
83.74780625000001
30
0
0
VERTEX
8
0
10
5.84589375
20
83.79915625000001
30
0
0
VERTEX
8
0
10
5.936028125
20
83.857084375
30
0
0
VERTEX
8
0
10
6.021803125
20
83.92129375
30
0
0
VERTEX
8
0
10
6.102778125
20
83.991459375
30
0
0
VERTEX
8
0
10
6.178540625
20
84.067221875
30
0
0
VERTEX
8
0
10
6.248706250000001
20
84.14819687500001
30
0
0
VERTEX
8
0
10
6.3129156250000005
20
84.23397187500001
30
0
0
VERTEX
8
0
10
6.370843750000001
20
84.32410625
30
0
0
VERTEX
8
0
10
6.42219375
20
84.418146875
30
0
0
VERTEX
8
0
10
6.466703125
20
84.51560937500001
30
0
0
VERTEX
8
0
10
6.504146875
20
84.616
30
0
0
VERTEX
8
0
10
6.53433125
20
84.71880312500001
30
0
0
VERTEX
8
0
10
6.5571093750000005
20
84.82350000000001
30
0
0
VERTEX
8
0
10
6.57235625
20
84.92955625
30
0
0
VERTEX
8
0
10
6.58
20
85.036428125
30
0
0
SEQEND
0
POLYLINE
66
1
8
holes
10
0.0
20
0.0
30
0.0
70
1
0
VERTEX
8
0
10
92.31
20
8.836428125000001
30
0
0
VERTEX
8
0
10
92.31
20
8.943571875
30
0
0
VERTEX
8
0
10
92.30235625
20
9.050443750000001
30
0
0
VERTEX
8
0
10
92.287109375
20
9.156500000000001
30
0
0
VERTEX
8
0
10
92.26433125
20
9.261196875000001
30
0
0
VERTEX
8
0
10
92.23414687500001
20
9.364
30
0
0
VERTEX
8
0
10
92.196703125
20
9.464390625
30
0
0
VERTEX
8
0
10
92.15219375000001
20
9.561853125
30
0
0
VERTEX
8
0
10
92.10084375000001
20
9.65589375
30
0
0
VERTEX
8
0
10
92.042915625
20
9.746028125
30
0
0
VERTEX
8
0
10
91.97870625
20
9.831803125
30
0
0
VERTEX
8
0
10
91.908540625
20
9.912778125
30
0
0
VERTEX
8
0
10
91.832778125
20
9.988540625
30
0
0
VERTEX
8
0
10
91.75180312500001
20
10.05870625
30
0
0
VERTEX
8
0
10
91.66602812500001
20
10.122915625000001
30
0
0
VERTEX
8
0
10
91.57589375
20
10.180843750000001
30
0
0
VERTEX
8
0
10
91.481853125
20
10.23219375
30
0
0
VERTEX
8
0
10
91.38439062500001
20
10.276703125000001
30
0
0
VERTEX
8
0
10
91.284
20
10.314146875
30
0
0
VERTEX
8
0
10
91.181196875
20
10.34433125
30
0
0
VERTEX
8
0
10
91.07650000000001
20
10.367109375
30
0
0
VERTEX
8
0
10
90.97044375
20
10.38235625
30
0
0
VERTEX
8
0
10
90.863571875
20
10.39
30
0
0
VERTEX
8
0
10
90.756428125
20
10.39
30
0
0
VERTEX
8
0
10
90.64955625
20
10.38235625
30
0
0
VERTEX
8
0
10
90.54350000000001
20
10.367109375
30
0
0
VERTEX
8
0
10
90.438803125
20
10.34433125
30
0
0
VERTEX
8
0
10
90.336
20
10.314146875
30
0
0
VERTEX
8
0
10
90.23560937500001
20
10.276703125000001
30
0
0
VERTEX
8
0
10
90.138146875
20
10.23219375
30
0
0
VERTEX
8
0
10
90.04410625
20
10.180843750000001
30
0
0
VERTEX
8
0
10
89.95397187500001
20
10.122915625000001
30
0
0
VERTEX
8
0
10
89.86819687500001
20
10.05870625
30
0
0
VERTEX
8
0
10
89.787221875
20
9.988540625
30
0
0
VERTEX
8
0
10
89.711459375
20
9.912778125
30
0
0
VERTEX
8
0
10
89.64129375
20
9.831803125
30
0
0
VERTEX
8
0
10
89.577084375
20
9.746028125
30
0
0
VERTEX
8
0
10
89.51915625000001
20
9.65589375
30
0
0
VERTEX
8
0
10
89.46780625000001
20
9.561853125
30
0
0
VERTEX
8
0
10
89.423296875
20
9.464390625
30
0
0
VERTEX
8
0
10
89.38585312500001
20
9.364
30
0
0
VERTEX
8
0
10
89.35566875
20
9.261196875000001
30
0
0
VERTEX
8
0
10
89.332890625
20
9.156500000000001
30
0
0
VERTEX
8
0
10
89.31764375
20
9.050443750000001
30
0
0
VERTEX
8
0
10
89.31
20
8.943571875
30
0
0
VERTEX
8
0
10
89.31
20
8.836428125000001
30
0
0
VERTEX
8
0
10
89.31764375
20
8.72955625
30
0
0
VERTEX
8
0
10
89.332890625
20
8.6235
30
0
0
VERTEX
8
0
10
89.35566875
20
8.518803125
30
0
0
VERTEX
8
0
10
89.38585312500001
20
8.416
30
0
0
VERTEX
8
0
10
89.423296875
20
8.315609375000001
30
0
0
VERTEX
8
0
10
89.46780625000001
20
8.218146875
30
0
0
VERTEX
8
0
10
89.51915625000001
20
8.12410625
30
0
0
VERTEX
8
0
10
89.577084375
20
8.033971875
30
0
0
VERTEX
8
0
10
89.64129375
20
7.948196875000001
30
0
0
VERTEX
8
0
10
89.711459375
20
7.867221875
30
0
0
VERTEX
8
0
10
89.787221875
20
7.7914593750000005
30
0
0
VERTEX
8
0
10
89.86819687500001
20
7.72129375
30
0
0
VERTEX
8
0
10
89.95397187500001
20
7.657084375
30
0
0
VERTEX
8
0
10
90.04410625
20
7.59915625
30
0
0
VERTEX
8
0
10
90.138146875
20
7.547806250000001
30
0
0
VERTEX
8
0
10
90.23560937500001
20
7.503296875
30
0
0
VERTEX
8
0
10
90.336
20
7.465853125000001
30
0
0
VERTEX
8
0
10
90.438803125
20
7.4356687500000005
30
0
0
VERTEX
8
0
10
90.54350000000001
20
7.412890625
30
0
0
VERTEX
8
0
10
90.64955625
20
7.39764375
30
0
0
VERTEX
8
0
10
90.756428125
20
7.390000000000001
30
0
0
VERTEX
8
0
10
90.863571875
20
7.390000000000001
30
0
0
VERTEX
8
0
10
90.97044375
20
7.39764375
30
0
0
VERTEX
8
0
10
91.07650000000001
20
7.412890625
30
0
0
VERTEX
8
0
10
91.181196875
20
7.4356687500000005
30
0
0
VERTEX
8
0
10
91.284
20
7.465853125000001
30
0
0
VERTEX
8
0
10
91.38439062500001
20
7.503296875
30
0
0
VERTEX
8
0
10
91.481853125
20
7.547806250000001
30
0
0
VERTEX
8
0
10
91.57589375
20
7.59915625
30
0
0
VERTEX
8
0
10
91.66602812500001
20
7.657084375
30
0
0
VERTEX
8
0
10
91.75180312500001
20
7.72129375
30
0
0
VERTEX
8
0
10
91.832778125
20
7.7914593750000005
30
0
0
VERTEX
8
0
10
91.908540625
20
7.867221875
30
0
0
VERTEX
8
0
10
91.97870625
20
7.948196875000001
30
0
0
VERTEX
8
0
10
92.042915625
20
8.033971875
30
0
0
VERTEX
8
0
10
92.10084375000001
20
8.12410625
30
0
0
VERTEX
8
0
10
92.15219375000001
20
8.218146875
30
0
0
VERTEX
8
0
10
92.196703125
20
8.315609375000001
30
0
0
VERTEX
8
0
10
92.23414687500001
20
8.416
30
0
0
VERTEX
8
0
10
92.26433125
20
8.518803125
30
0
0
VERTEX
8
0
10
92.287109375
20
8.6235
30
0
0
VERTEX
8
0
10
92.30235625
20
8.72955625
30
0
0
VERTEX
8
0
10
92.31
20
8.836428125000001
30
0
0
SEQEND
0
POLYLINE
66
1
8
holes
10
0.0
20
0.0
30
0.0
70
1
0
VERTEX
8
0
10
13.945
20
45.031428125000005
30
0
0
VERTEX
8
0
10
13.945
20
45.138571875000004
30
0
0
VERTEX
8
0
10
13.93735625
20
45.24544375
30
0
0
VERTEX
8
0
10
13.922109375
20
45.3515
30
0
0
VERTEX
8
0
10
13.899331250000001
20
45.456196875
30
0
0
VERTEX
8
0
10
13.869146875
20
45.559000000000005
30
0
0
VERTEX
8
0
10
13.831703125
20
45.659390625
30
0
0
VERTEX
8
0
10
13.78719375
20
45.756853125
30
0
0
VERTEX
8
0
10
13.73584375
20
45.850893750000004
30
0
0
VERTEX
8
0
10
13.677915625
20
45.941028125
30
0
0
VERTEX
8
0
10
13.61370625
20
46.026803125
30
0
0
VERTEX
8
0
10
13.543540625
20
46.107778125
30
0
0
VERTEX
8
0
10
13.467778125
20
46.183540625
30
0
0
VERTEX
8
0
10
13.386803125
20
46.25370625
30
0
0
VERTEX
8
0
10
13.301028125
20
46.317915625000005
30
0
0
VERTEX
8
0
10
13.21089375
20
46.37584375
30
0
0
VERTEX
8
0
10
13.116853125
20
46.42719375
30
0
0
VERTEX
8
0
10
13.019390625
20
46.471703125000005
30
0
0
VERTEX
8
0
10
12.919
20
46.509146875
30
0
0
VERTEX
8
0
10
12.816196875000001
20
46.539331250000004
30
0
0
VERTEX
8
0
10
12.711500000000001
20
46.562109375000006
30
0
0
VERTEX
8
0
10
12.605443750000001
20
46.57735625
30
0
0
VERTEX
8
0
10
12.498571875000001
20
46.585
30
0
0
VERTEX
8
0
10
12.391428125000001
20
46.585
30
0
0
VERTEX
8
0
10
12.284556250000001
20
46.57735625
30
0
0
VERTEX
8
0
10
12.178500000000001
20
46.562109375000006
30
0
0
VERTEX
8
0
10
12.073803125000001
20
46.539331250000004
30
0
0
VERTEX
8
0
10
11.971
20
46.509146875
30
0
0
VERTEX
8
0
10
11.870609375
20
46.471703125000005
30
0
0
VERTEX
8
0
10
11.773146875
20
46.42719375
30
0
0
VERTEX
8
0
10
11.67910625
20
46.37584375
30
0
0
VERTEX
8
0
10
11.588971875
20
46.317915625000005
30
0
0
VERTEX
8
0
10
11.503196875
20
46.25370625
30
0
0
VERTEX
8
0
10
11.422221875
20
46.183540625
30
0
0
VERTEX
8
0
10
11.346459375
20
46.107778125
30
0
0
VERTEX
8
0
10
11.27629375
20
46.026803125
30
0
0
VERTEX
8
0
10
11.212084375
20
45.941028125
30
0
0
VERTEX
8
0
10
11.15415625
20
45.850893750000004
30
0
0
VERTEX
8
0
10
11.10280625
20
45.756853125
30
0
0
VERTEX
8
0
10
11.058296875
20
45.659390625
30
0
0
VERTEX
8
0
10
11.020853125
20
45.559000000000005
30
0
0
VERTEX
8
0
10
10.990668750000001
20
45.456196875
30
0
0
VERTEX
8
0
10
10.967890625
20
45.3515
30
0
0
VERTEX
8
0
10
10.95264375
20
45.24544375
30
0
0
VERTEX
8
0
10
10.945
20
45.138571875000004
30
0
0
VERTEX
8
0
10
10.945
20
45.031428125000005
30
0
0
VERTEX
8
0
10
10.95264375
20
44.92455625
30
0
0
VERTEX
8
0
10
10.967890625
20
44.8185
30
0
0
VERTEX
8
0
10
10.990668750000001
20
44.713803125000005
30
0
0
VERTEX
8
0
10
11.020853125
20
44.611000000000004
30
0
0
VERTEX
8
0
10
11.058296875
20
44.510609375
30
0
0
VERTEX
8
0
10
11.10280625
20
44.413146875
30
0
0
VERTEX
8
0
10
11.15415625
20
44.319106250000004
30
0
0
VERTEX
8
0
10
11.212084375
20
44.228971875
30
0
0
VERTEX
8
0
10
11.27629375
20
44.143196875
30
0
0
VERTEX
8
0
10
11.346459375
20
44.062221875
30
0
0
VERTEX
8
0
10
11.422221875
20
43.986459375
30
0
0
VERTEX
8
0
10
11.503196875
20
43.91629375
30
0
0
VERTEX
8
0
10
11.588971875
20
43.852084375000004
30
0
0
VERTEX
8
0
10
11.67910625
20
43.79415625
30
0
0
VERTEX
8
0
10
11.773146875
20
43.74280625
30
0
0
VERTEX
8
0
10
11.870609375
20
43.698296875000004
30
0
0
VERTEX
8
0
10
11.971
20
43.660853125
30
0
0
VERTEX
8
0
10
12.073803125000001
20
43.630668750000005
30
0
0
VERTEX
8
0
10
12.178500000000001
20
43.607890625
30
0
0
VERTEX
8
0
10
12.284556250000001
20
43.59264375
30
0
0
VERTEX
8
0
10
12.391428125000001
20
43.585
30
0
0
VERTEX
8
0
10
12.498571875000001
20
43.585
30
0
0
VERTEX
8
0
10
12.605443750000001
20
43.59264375
30
0
0
VERTEX
8
0
10
12.711500000000001
20
43.607890625
30
0
0
VERTEX
8
0
10
12.816196875000001
20
43.630668750000005
30
0
0
VERTEX
8
0
10
12.919
20
43.660853125
30
0
0
VERTEX
8
0
10
13.019390625
20
43.698296875000004
30
0
0
VERTEX
8
0
10
13.116853125
20
43.74280625
30
0
0
VERTEX
8
0
10
13.21089375
20
43.79415625
30
0
0
VERTEX
8
0
10
13.301028125
20
43.852084375000004
30
0
0
VERTEX
8
0
10
13.386803125
20
43.91629375
30
0
0
VERTEX
8
0
10
13.467778125
20
43.986459375
30
0
0
VERTEX
8
0
10
13.543540625
20
44.062221875
30
0
0
VERTEX
8
0
10
13.61370625
20
44.143196875
30
0
0
VERTEX
8
0
10
13.677915625
20
44.228971875
30
0
0
VERTEX
8
0
10
13.73584375
20
44.319106250000004
30
0
0
VERTEX
8
0
10
13.78719375
20
44.413146875
30
0
0
VERTEX
8
0
10
13.831703125
20
44.510609375
30
0
0
VERTEX
8
0
10
13.869146875
20
44.611000000000004
30
0
0
VERTEX
8
0
10
13.899331250000001
20
44.713803125000005
30
0
0
VERTEX
8
0
10
13.922109375
20
44.8185
30
0
0
VERTEX
8
0
10
13.93735625
20
44.92455625
30
0
0
VERTEX
8
0
10
13.945
20
45.031428125000005
30
0
0
SEQEND
0
POLYLINE
66
1
8
holes
10
0.0
20
0.0
30
0.0
70
1
0
VERTEX
8
0
10
6.58
20
5.026428125
30
0
0
VERTEX
8
0
10
6.58
20
5.133571875
30
0
0
VERTEX
8
0
10
6.57235625
20
5.24044375
30
0
0
VERTEX
8
0
10
6.5571093750000005
20
5.346500000000001
30
0
0
VERTEX
8
0
10
6.53433125
20
5.451196875
30
0
0
VERTEX
8
0
10
6.504146875
20
5.554
30
0
0
VERTEX
8
0
10
6.466703125
20
5.6543906250000004
30
0
0
VERTEX
8
0
10
6.42219375
20
5.751853125
30
0
0
VERTEX
8
0
10
6.370843750000001
20
5.84589375
30
0
0
VERTEX
8
0
10
6.3129156250000005
20
5.936028125
30
0
0
VERTEX
8
0
10
6.248706250000001
20
6.021803125
30
0
0
VERTEX
8
0
10
6.178540625
20
6.102778125
30
0
0
VERTEX
8
0
10
6.102778125
20
6.178540625
30
0
0
VERTEX
8
0
10
6.021803125
20
6.248706250000001
30
0
0
VERTEX
8
0
10
5.936028125
20
6.3129156250000005
30
0
0
VERTEX
8
0
10
5.84589375
20
6.370843750000001
30
0
0
VERTEX
8
0
10
5.751853125
20
6.42219375
30
0
0
VERTEX
8
0
10
5.6543906250000004
20
6.466703125
30
0
0
VERTEX
8
0
10
5.554
20
6.504146875
30
0
0
VERTEX
8
0
10
5.451196875
20
6.53433125
30
0
0
VERTEX
8
0
10
5.346500000000001
20
6.5571093750000005
30
0
0
VERTEX
8
0
10
5.24044375
20
6.57235625
30
0
0
VERTEX
8
0
10
5.133571875
20
6.58
30
0
0
VERTEX
8
0
10
5.026428125
20
6.58
30
0
0
VERTEX
8
0
10
4.91955625
20
6.57235625
30
0
0
VERTEX
8
0
10
4.8135
20
6.5571093750000005
30
0
0
VERTEX
8
0
10
4.708803125
20
6.53433125
30
0
0
VERTEX
8
0
10
4.606
20
6.504146875
30
0
0
VERTEX
8
0
10
4.505609375000001
20
6.466703125
30
0
0
VERTEX
8
0
10
4.408146875
20
6.42219375
30
0
0
VERTEX
8
0
10
4.31410625
20
6.370843750000001
30
0
0
VERTEX
8
0
10
4.223971875
20
6.3129156250000005
30
0
0
VERTEX
8
0
10
4.138196875
20
6.248706250000001
30
0
0
VERTEX
8
0
10
4.057221875
20
6.178540625
30
0
0
VERTEX
8
0
10
3.981459375
20
6.102778125
30
0
0
VERTEX
8
0
10
3.91129375
20
6.021803125
30
0
0
VERTEX
8
0
10
3.847084375
20
5.936028125
30
0
0
VERTEX
8
0
10
3.78915625
20
5.84589375
30
0
0
VERTEX
8
0
10
3.73780625
20
5.751853125
30
0
0
VERTEX
8
0
10
3.693296875
20
5.6543906250000004
30
0
0
VERTEX
8
0
10
3.655853125
20
5.554
30
0
0
VERTEX
8
0
10
3.62566875
20
5.451196875
30
0
0
VERTEX
8
0
10
3.602890625
20
5.346500000000001
30
0
0
VERTEX
8
0
10
3.5876437500000002
20
5.24044375
30
0
0
VERTEX
8
0
10
3.58
20
5.133571875
30
0
0
VERTEX
8
0
10
3.58
20
5.026428125
30
0
0
VERTEX
8
0
10
3.5876437500000002
20
4.91955625
30
0
0
VERTEX
8
0
10
3.602890625
20
4.8135
30
0
0
VERTEX
8
0
10
3.62566875
20
4.708803125
30
0
0
VERTEX
8
0
10
3.655853125
20
4.606
30
0
0
VERTEX
8
0
10
3.693296875
20
4.505609375000001
30
0
0
VERTEX
8
0
10
3.73780625
20
4.408146875
30
0
0
VERTEX
8
0
10
3.78915625
20
4.31410625
30
0
0
VERTEX
8
0
10
3.847084375
20
4.223971875
30
0
0
VERTEX
8
0
10
3.91129375
20
4.138196875
30
0
0
VERTEX
8
0
10
3.981459375
20
4.057221875
30
0
0
VERTEX
8
0
10
4.057221875
20
3.981459375
30
0
0
VERTEX
8
0
10
4.138196875
20
3.91129375
30
0
0
VERTEX
8
0
10
4.223971875
20
3.847084375
30
0
0
VERTEX
8
0
10
4.31410625
20
3.78915625
30
0
0
VERTEX
8
0
10
4.408146875
20
3.73780625
30
0
0
VERTEX
8
0
10
4.505609375000001
20
3.693296875
30
0
0
VERTEX
8
0
10
4.606
20
3.655853125
30
0
0
VERTEX
8
0
10
4.708803125
20
3.62566875
30
0
0
VERTEX
8
0
10
4.8135
20
3.602890625
30
0
0
VERTEX
8
0
10
4.91955625
20
3.5876437500000002
30
0
0
VERTEX
8
0
10
5.026428125
20
3.58
30
0
0
VERTEX
8
0
10
5.133571875
20
3.58
30
0
0
VERTEX
8
0
10
5.24044375
20
3.5876437500000002
30
0
0
VERTEX
8
0
10
5.346500000000001
20
3.602890625
30
0
0
VERTEX
8
0
10
5.451196875
20
3.62566875
30
0
0
VERTEX
8
0
10
5.554
20
3.655853125
30
0
0
VERTEX
8
0
10
5.6543906250000004
20
3.693296875
30
0
0
VERTEX
8
0
10
5.751853125
20
3.73780625
30
0
0
VERTEX
8
0
10
5.84589375
20
3.78915625
30
0
0
VERTEX
8
0
10
5.936028125
20
3.847084375
30
0
0
VERTEX
8
0
10
6.021803125
20
3.91129375
30
0
0
VERTEX
8
0
10
6.102778125
20
3.981459375
30
0
0
VERTEX
8
0
10
6.178540625
20
4.057221875
30
0
0
VERTEX
8
0
10
6.248706250000001
20
4.138196875
30
0
0
VERTEX
8
0
10
6.3129156250000005
20
4.223971875
30
0
0
VERTEX
8
0
10
6.370843750000001
20
4.31410625
30
0
0
VERTEX
8
0
10
6.42219375
20
4.408146875
30
0
0
VERTEX
8
0
10
6.466703125
20
4.505609375000001
30
0
0
VERTEX
8
0
10
6.504146875
20
4.606
30
0
0
VERTEX
8
0
10
6.53433125
20
4.708803125
30
0
0
VERTEX
8
0
10
6.5571093750000005
20
4.8135
30
0
0
VERTEX
8
0
10
6.57235625
20
4.91955625
30
0
0
VERTEX
8
0
10
6.58
20
5.026428125
30
0
0
SEQEND
0
POLYLINE
66
1
8
holes
10
0.0
20
0.0
30
0.0
70
1
0
VERTEX
8
0
10
92.31
20
81.226428125
30
0
0
VERTEX
8
0
10
92.31
20
81.333571875
30
0
0
VERTEX
8
0
10
92.30235625
20
81.44044375
30
0
0
VERTEX
8
0
10
92.287109375
20
81.54650000000001
30
0
0
VERTEX
8
0
10
92.26433125
20
81.65119687500001
30
0
0
VERTEX
8
0
10
92.23414687500001
20
81.754
30
0
0
VERTEX
8
0
10
92.196703125
20
81.85439062500001
30
0
0
VERTEX
8
0
10
92.15219375000001
20
81.951853125
30
0
0
VERTEX
8
0
10
92.10084375000001
20
82.04589375
30
0
0
VERTEX
8
0
10
92.042915625
20
82.13602812500001
30
0
0
VERTEX
8
0
10
91.97870625
20
82.22180312500001
30
0
0
VERTEX
8
0
10
91.908540625
20
82.302778125
30
0
0
VERTEX
8
0
10
91.832778125
20
82.378540625
30
0
0
VERTEX
8
0
10
91.75180312500001
20
82.44870625
30
0
0
VERTEX
8
0
10
91.66602812500001
20
82.512915625
30
0
0
VERTEX
8
0
10
91.57589375
20
82.57084375000001
30
0
0
VERTEX
8
0
10
91.481853125
20
82.62219375000001
30
0
0
VERTEX
8
0
10
91.38439062500001
20
82.666703125
30
0
0
VERTEX
8
0
10
91.284
20
82.704146875
30
0
0
VERTEX
8
0
10
91.181196875
20
82.73433125000001
30
0
0
VERTEX
8
0
10
91.07650000000001
20
82.757109375
30
0
0
VERTEX
8
0
10
90.97044375
20
82.77235625
30
0
0
VERTEX
8
0
10
90.863571875
20
82.78
30
0
0
VERTEX
8
0
10
90.756428125
20
82.78
30
0
0
VERTEX
8
0
10
90.64955625
20
82.77235625
30
0
0
VERTEX
8
0
10
90.54350000000001
20
82.757109375
30
0
0
VERTEX
8
0
10
90.438803125
20
82.73433125000001
30
0
0
VERTEX
8
0
10
90.336
20
82.704146875
30
0
0
VERTEX
8
0
10
90.23560937500001
20
82.666703125
30
0
0
VERTEX
8
0
10
90.138146875
20
82.62219375000001
30
0
0
VERTEX
8
0
10
90.04410625
20
82.57084375000001
30
0
0
VERTEX
8
0
10
89.95397187500001
20
82.512915625
30
0
0
VERTEX
8
0
10
89.86819687500001
20
82.44870625
30
0
0
VERTEX
8
0
10
89.787221875
20
82.378540625
30
0
0
VERTEX
8
0
10
89.711459375
20
82.302778125
30
0
0
VERTEX
8
0
10
89.64129375
20
82.22180312500001
30
0
0
VERTEX
8
0
10
89.577084375
20
82.13602812500001
30
0
0
VERTEX
8
0
10
89.51915625000001
20
82.04589375
30
0
0
VERTEX
8
0
10
89.46780625000001
20
81.951853125
30
0
0
VERTEX
8
0
10
89.423296875
20
81.85439062500001
30
0
0
VERTEX
8
0
10
89.38585312500001
20
81.754
30
0
0
VERTEX
8
0
10
89.35566875
20
81.65119687500001
30
0
0
VERTEX
8
0
10
89.332890625
20
81.54650000000001
30
0
0
VERTEX
8
0
10
89.31764375
20
81.44044375
30
0
0
VERTEX
8
0
10
89.31
20
81.333571875
30
0
0
VERTEX
8
0
10
89.31
20
81.226428125
30
0
0
VERTEX
8
0
10
89.31764375
20
81.11955625
30
0
0
VERTEX
8
0
10
89.332890625
20
81.01350000000001
30
0
0
VERTEX
8
0
10
89.35566875
20
80.908803125
30
0
0
VERTEX
8
0
10
89.38585312500001
20
80.806
30
0
0
VERTEX
8
0
10
89.423296875
20
80.70560937500001
30
0
0
VERTEX
8
0
10
89.46780625000001
20
80.608146875
30
0
0
VERTEX
8
0
10
89.51915625000001
20
80.51410625
30
0
0
VERTEX
8
0
10
89.577084375
20
80.423971875
30
0
0
VERTEX
8
0
10
89.64129375
20
80.33819687500001
30
0
0
VERTEX
8
0
10
89.711459375
20
80.257221875
30
0
0
VERTEX
8
0
10
89.787221875
20
80.181459375
30
0
0
VERTEX
8
0
10
89.86819687500001
20
80.11129375
30
0
0
VERTEX
8
0
10
89.95397187500001
20
80.047084375
30
0
0
VERTEX
8
0
10
90.04410625
20
79.98915625000001
30
0
0
VERTEX
8
0
10
90.138146875
20
79.93780625000001
30
0
0
VERTEX
8
0
10
90.23560937500001
20
79.893296875
30
0
0
VERTEX
8
0
10
90.336
20
79.85585312500001
30
0
0
VERTEX
8
0
10
90.438803125
20
79.82566875
30
0
0
VERTEX
8
0
10
90.54350000000001
20
79.802890625
30
0
0
VERTEX
8
0
10
90.64955625
20
79.78764375
30
0
0
VERTEX
8
0
10
90.756428125
20
79.78
30
0
0
VERTEX
8
0
10
90.863571875
20
79.78
30
0
0
VERTEX
8
0
10
90.97044375
20
79.78764375
30
0
0
VERTEX
8
0
10
91.07650000000001
20
79.802890625
30
0
0
VERTEX
8
0
10
91.181196875
20
79.82566875
30
0
0
VERTEX
8
0
10
91.284
20
79.85585312500001
30
0
0
VERTEX
8
0
10
91.38439062500001
20
79.893296875
30
0
0
VERTEX
8
0
10
91.481853125
20
79.93780625000001
30
0
0
VERTEX
8
0
10
91.57589375
20
79.98915625000001
30
0
0
VERTEX
8
0
10
91.66602812500001
20
80.047084375
30
0
0
VERTEX
8
0
10
91.75180312500001
20
80.11129375
30
0
0
VERTEX
8
0
10
91.832778125
20
80.181459375
30
0
0
VERTEX
8
0
10
91.908540625
20
80.257221875
30
0
0
VERTEX
8
0
10
91.97870625
20
80.33819687500001
30
0
0
VERTEX
8
0
10
92.042915625
20
80.423971875
30
0
0
VERTEX
8
0
10
92.10084375000001
20
80.51410625
30
0
0
VERTEX
8
0
10
92.15219375000001
20
80.608146875
30
0
0
VERTEX
8
0
10
92.196703125
20
80.70560937500001
30
0
0
VERTEX
8
0
10
92.23414687500001
20
80.806
30
0
0
VERTEX
8
0
10
92.26433125
20
80.908803125
30
0
0
VERTEX
8
0
10
92.287109375
20
81.01350000000001
30
0
0
VERTEX
8
0
10
92.30235625
20
81.11955625
30
0
0
VERTEX
8
0
10
92.31
20
81.226428125
30
0
0
SEQEND
0
POLYLINE
66
1
8
16_copper
10
0.0
20
0.0
30
0.0
70
1
0
VERTEX
8
0
10
46.574925
20
9.858528125000001
30
0
42
0.37152032616189906
0
VERTEX
8
0
10
46.8348
20
10.16
30
0
0
VERTEX
8
0
10
46.8348
20
40.40375
30
0
0
VERTEX
8
0
10
49.745525
20
43.314475
30
0
42
0.19891236737965798
0
VERTEX
8
0
10
49.8348
20
43.53
30
0
0
VERTEX
8
0
10
49.8348
20
79.47
30
0
42
0.9999999999999999
0
VERTEX
8
0
10
49.2252
20
79.47
30
0
0
VERTEX
8
0
10
49.2252
20
43.65625
30
0
0
VERTEX
8
0
10
46.314475
20
40.745525
30
0
42
0.19891236737965798
0
VERTEX
8
0
10
46.2252
20
40.53
30
0
0
VERTEX
8
0
10
46.2252
20
10.16
30
0
0
VERTEX
8
0
10
46.228321875
20
10.11649375
30
0
0
VERTEX
8
0
10
46.23761875
20
10.073878125
30
0
0
VERTEX
8
0
10
46.25290625
20
10.033025
30
0
0
VERTEX
8
0
10
46.273868750000005
20
9.994775
30
0
0
VERTEX
8
0
10
46.300075
20
9.959906250000001
30
0
0
VERTEX
8
0
10
46.330990625000005
20
9.929137500000001
30
0
0
VERTEX
8
0
10
46.365981250000004
20
9.90309375
30
0
0
VERTEX
8
0
10
46.404331250000006
20
9.882312500000001
30
0
0
VERTEX
8
0
10
46.445253125
20
9.867218750000001
30
0
0
VERTEX
8
0
10
46.4879125
20
9.858118750000001
30
0
0
VERTEX
8
0
10
46.531434375
20
9.855203125000001
30
0
0
SEQEND
0
POLYLINE
66
1
8
16_copper
10
0.0
20
0.0
30
0.0
70
1
0
VERTEX
8
0
10
84.179415625
20
9.907525
30
0
42
0.1790390709365824
0
VERTEX
8
0
10
84.33960625
20
9.980393750000001
30
0
0
VERTEX
8
0
10
87.17960625
20
12.820393750000001
30
0
42
0.19891236737965798
0
VERTEX
8
0
10
87.254
20
13
30
0
0
VERTEX
8
0
10
87.254
20
53
30
0
42
0.19891236737965798
0
VERTEX
8
0
10
87.17960625
20
53.17960625
30
0
0
VERTEX
8
0
10
84.85960625
20
55.49960625
30
0
42
0.19891236737965798
0
VERTEX
8
0
10
84.68
20
55.574000000000005
30
0
0
VERTEX
8
0
10
82
20
55.574000000000005
30
0
42
0.9228431308911045
0
VERTEX
8
0
10
81.959428125
20
55.0692625
30
0
0
VERTEX
8
0
10
82
20
55.066
30
0
0
VERTEX
8
0
10
84.5747875
20
55.066
30
0
0
VERTEX
8
0
10
86.74600000000001
20
52.8947875
30
0
0
VERTEX
8
0
10
86.74600000000001
20
13.1052125
30
0
0
VERTEX
8
0
10
84.0547875
20
10.414
30
0
0
VERTEX
8
0
10
64.31
20
10.414
30
0
42
0.9228431308911045
0
VERTEX
8
0
10
64.269428125
20
9.9092625
30
0
0
VERTEX
8
0
10
64.31
20
9.906
30
0
0
VERTEX
8
0
10
84.16000000000001
20
9.906
30
0
0
SEQEND
0
POLYLINE
66
1
8
16_copper
10
0.0
20
0.0
30
0.0
70
1
0
VERTEX
8
0
10
78.254
20
54.1052125
30
0
0
VERTEX
8
0
10
78.254
20
77
30
0
42
0.19891236737965798
0
VERTEX
8
0
10
78.17960625
20
77.17960625
30
0
0
VERTEX
8
0
10
77.17960625
20
78.17960625
30
0
42
0.19891236737965798
0
VERTEX
8
0
10
77
20
78.254
30
0
0
VERTEX
8
0
10
66.3452125
20
78.254
30
0
0
VERTEX
8
0
10
62.41960625
20
82.17960625
30
0
42
0.19891236737965798
0
VERTEX
8
0
10
62.24
20
82.254
30
0
0
VERTEX
8
0
10
49.52
20
82.254
30
0
42
0.19891236737965798
0
VERTEX
8
0
10
49.340393750000004
20
82.17960625
30
0
0
VERTEX
8
0
10
46.81039375
20
79.64960625
30
0
42
0.9999999999999999
0
VERTEX
8
0
10
47.16960625
20
79.29039375
30
0
0
VERTEX
8
0
10
49.6252125
20
81.74600000000001
30
0
0
VERTEX
8
0
10
62.1347875
20
81.74600000000001
30
0
0
VERTEX
8
0
10
66.06039375
20
77.82039375000001
30
0
42
0.19891236737965798
0
VERTEX
8
0
10
66.24000000000001
20
77.74600000000001
30
0
0
VERTEX
8
0
10
76.8947875
20
77.74600000000001
30
0
0
VERTEX
8
0
10
77.74600000000001
20
76.8947875
30
0
0
VERTEX
8
0
10
77.74600000000001
20
54
30
0
42
0.19891236737965798
0
VERTEX
8
0
10
77.82039375000001
20
53.82039375
30
0
0
VERTEX
8
0
10
79.04039375
20
52.60039375
30
0
42
0.19891236737965798
0
VERTEX
8
0
10
79.22
20
52.526
30
0
0
VERTEX
8
0
10
84.6147875
20
52.526
30
0
0
VERTEX
8
0
10
85.24600000000001
20
51.8947875
30
0
0
VERTEX
8
0
10
85.24600000000001
20
30.6052125
30
0
0
VERTEX
8
0
10
83.8947875
20
29.254
30
0
0
VERTEX
8
0
10
64.60521250000001
20
29.254
30
0
0
VERTEX
8
0
10
64.254
20
29.6052125
30
0
0
VERTEX
8
0
10
64.254
20
45.8947875
30
0
0
VERTEX
8
0
10
64.8752125
20
46.516000000000005
30
0
0
VERTEX
8
0
10
66.58
20
46.516000000000005
30
0
42
0.9999999999999999
0
VERTEX
8
0
10
66.58
20
47.024
30
0
0
VERTEX
8
0
10
64.77
20
47.024
30
0
42
0.19891236737965798
0
VERTEX
8
0
10
64.59039375
20
46.94960625
30
0
0
VERTEX
8
0
10
63.82039375
20
46.17960625
30
0
42
0.19891236737965798
0
VERTEX
8
0
10
63.746
20
46
30
0
0
VERTEX
8
0
10
63.746
20
29.5
30
0
42
0.19891236737965798
0
VERTEX
8
0
10
63.82039375
20
29.32039375
30
0
0
VERTEX
8
0
10
64.32039375000001
20
28.82039375
30
0
42
0.19891236737965798
0
VERTEX
8
0
10
64.5
20
28.746000000000002
30
0
0
VERTEX
8
0
10
84
20
28.746000000000002
30
0
42
0.19891236737965798
0
VERTEX
8
0
10
84.17960625
20
28.82039375
30
0
0
VERTEX
8
0
10
85.67960625
20
30.32039375
30
0
42
0.19891236737965798
0
VERTEX
8
0
10
85.754
20
30.5
30
0
0
VERTEX
8
0
10
85.754
20
52
30
0
42
0.19891236737965798
0
VERTEX
8
0
10
85.67960625
20
52.17960625
30
0
0
VERTEX
8
0
10
84.89960625
20
52.95960625
30
0
42
0.19891236737965798
0
VERTEX
8
0
10
84.72
20
53.034000000000006
30
0
0
VERTEX
8
0
10
79.3252125
20
53.034000000000006
30
0
0
SEQEND
0
POLYLINE
66
1
8
1_copper
10
0.0
20
0.0
30
0.0
70
1
0
VERTEX
8
0
10
63.1052125
20
41.746
30
0
0
VERTEX
8
0
10
66.333025
20
41.746
30
0
42
0.48113549442117837
0
VERTEX
8
0
10
66.58
20
41.436
30
0
0
VERTEX
8
0
10
71.69
20
41.436
30
0
42
0.19891236737965798
0
VERTEX
8
0
10
71.86960625
20
41.51039375
30
0
0
VERTEX
8
0
10
73.17960625
20
42.82039375
30
0
42
0.19891236737965798
0
VERTEX
8
0
10
73.254
20
43
30
0
0
VERTEX
8
0
10
73.254
20
50.45863125
30
0
0
VERTEX
8
0
10
73.616315625
20
50.096315625
30
0
42
0.19891236737965798
0
VERTEX
8
0
10
73.76
20
50.0368
30
0
0
VERTEX
8
0
10
82
20
50.0368
30
0
42
0.9999999999999999
0
VERTEX
8
0
10
82
20
50.443200000000004
30
0
0
VERTEX
8
0
10
73.84416875000001
20
50.443200000000004
30
0
0
VERTEX
8
0
10
73.251203125
20
51.036165625
30
0
42
0.16199797522258055
0
VERTEX
8
0
10
73.17960625
20
51.17960625
30
0
0
VERTEX
8
0
10
72.17960625
20
52.17960625
30
0
42
0.19891236737965798
0
VERTEX
8
0
10
72
20
52.254000000000005
30
0
0
VERTEX
8
0
10
64.10521250000001
20
52.254000000000005
30
0
0
VERTEX
8
0
10
62.484
20
53.8752125
30
0
0
VERTEX
8
0
10
62.484
20
79.47
30
0
42
0.9999999999999999
0
VERTEX
8
0
10
61.976000000000006
20
79.47
30
0
0
VERTEX
8
0
10
61.976000000000006
20
53.77
30
0
42
0.19891236737965798
0
VERTEX
8
0
10
62.050393750000005
20
53.590393750000004
30
0
0
VERTEX
8
0
10
63.82039375
20
51.82039375
30
0
42
0.19891236737965798
0
VERTEX
8
0
10
64
20
51.746
30
0
0
VERTEX
8
0
10
71.8947875
20
51.746
30
0
0
VERTEX
8
0
10
72.74600000000001
20
50.8947875
30
0
0
VERTEX
8
0
10
72.74600000000001
20
43.1052125
30
0
0
VERTEX
8
0
10
71.5847875
20
41.944
30
0
0
VERTEX
8
0
10
67.10521250000001
20
41.944
30
0
0
VERTEX
8
0
10
66.86960625
20
42.17960625
30
0
42
0.19891236737965798
0
VERTEX
8
0
10
66.69
20
42.254000000000005
30
0
0
VERTEX
8
0
10
63
20
42.254000000000005
30
0
42
0.19891236737965798
0
VERTEX
8
0
10
62.82039375
20
42.17960625
30
0
0
VERTEX
8
0
10
61.590393750000004
20
40.94960625
30
0
42
0.19891236737965798
0
VERTEX
8
0
10
61.516000000000005
20
40.77
30
0
0
VERTEX
8
0
10
61.516000000000005
20
8.8752125
30
0
0
VERTEX
8
0
10
60.8947875
20
8.254
30
0
0
VERTEX
8
0
10
55.53336875
20
8.254
30
0
0
VERTEX
8
0
10
54.3532
20
9.434168750000001
30
0
0
VERTEX
8
0
10
54.3532
20
10.16
30
0
42
0.9999999999999999
0
VERTEX
8
0
10
53.9468
20
10.16
30
0
0
VERTEX
8
0
10
53.9468
20
9.35
30
0
42
0.19891236737965798
0
VERTEX
8
0
10
54.006315625
20
9.206315625
30
0
0
VERTEX
8
0
10
54.95863125
20
8.254
30
0
0
VERTEX
8
0
10
51.335212500000004
20
8.254
30
0
0
VERTEX
8
0
10
49.24960625
20
10.339606250000001
30
0
42
0.9999999999999999
0
VERTEX
8
0
10
48.89039375
20
9.980393750000001
30
0
0
VERTEX
8
0
10
51.050393750000005
20
7.82039375
30
0
42
0.19891236737965798
0
VERTEX
8
0
10
51.230000000000004
20
7.746
30
0
0
VERTEX
8
0
10
61
20
7.746
30
0
42
0.19891236737965798
0
VERTEX
8
0
10
61.179606250000006
20
7.82039375
30
0
0
VERTEX
8
0
10
61.94960625
20
8.59039375
30
0
42
0.19891236737965798
0
VERTEX
8
0
10
62.024
20
8.77
30
0
0
VERTEX
8
0
10
62.024
20
40.6647875
30
0
0
SEQEND
0
POLYLINE
66
1
8
16_copper
10
0.0
20
0.0
30
0.0
70
1
0
VERTEX
8
0
10
87.51941562500001
20
6.747525
30
0
42
0.1790390709365824
0
VERTEX
8
0
10
87.67960625
20
6.82039375
30
0
0
VERTEX
8
0
10
88.17960625
20
7.32039375
30
0
42
0.19891236737965798
0
VERTEX
8
0
10
88.254
20
7.5
30
0
0
VERTEX
8
0
10
88.254
20
12.67690625
30
0
42
0.30334835632732
0
VERTEX
8
0
10
88.0972
20
12.911571875
30
0
0
VERTEX
8
0
10
87.78689375
20
13.040106250000001
30
0
42
0.41473561513235524
0
VERTEX
8
0
10
87.454609375
20
12.902812500000001
30
0
0
VERTEX
8
0
10
87.387596875
20
12.741021875000001
30
0
0
VERTEX
8
0
10
84.418975
20
9.772400000000001
30
0
0
VERTEX
8
0
10
84.25094375
20
9.7028
30
0
0
VERTEX
8
0
10
65.472525
20
9.7028
30
0
42
0.19868401960579754
0
VERTEX
8
0
10
65.29307812500001
20
9.628562500000001
30
0
0
VERTEX
8
0
10
65.286784375
20
9.621209375000001
30
0
42
0.0871984495358291
0
VERTEX
8
0
10
65.235921875
20
9.541321875000001
30
0
0
VERTEX
8
0
10
64.928678125
20
9.234078125
30
0
0
VERTEX
8
0
10
64.52725000000001
20
9.0678
30
0
0
VERTEX
8
0
10
64.092746875
20
9.0678
30
0
0
VERTEX
8
0
10
63.69131875
20
9.234078125
30
0
0
VERTEX
8
0
10
63.384078125
20
9.54131875
30
0
0
VERTEX
8
0
10
63.330593750000006
20
9.670440625000001
30
0
42
0.6923818780643116
0
VERTEX
8
0
10
62.85280625
20
9.655565625000001
30
0
0
VERTEX
8
0
10
62.791018750000006
20
9.5343
30
0
0
VERTEX
8
0
10
62.71925625
20
9.435525
30
0
42
0.0618666023416049
0
VERTEX
8
0
10
62.680584375
20
9.3823
30
0
0
VERTEX
8
0
10
62.547696875
20
9.2494125
30
0
0
VERTEX
8
0
10
62.395684375
20
9.13896875
30
0
0
VERTEX
8
0
10
62.228265625000006
20
9.053665625
30
0
0
VERTEX
8
0
10
62.123425000000005
20
9.0196
30
0
42
0.09745227153223855
0
VERTEX
8
0
10
62.024012500000005
20
8.99155
30
0
0
VERTEX
8
0
10
62.024012500000005
20
10.159965625
30
0
42
6.459153408567002e-5
0
VERTEX
8
0
10
62.024012500000005
20
10.160031250000001
30
0
0
VERTEX
8
0
10
62.024012500000005
20
11.328446875000001
30
0
0
VERTEX
8
0
10
62.049540625000006
20
11.324403125
30
0
0
VERTEX
8
0
10
62.228265625000006
20
11.26633125
30
0
0
VERTEX
8
0
10
62.395684375
20
11.181028125000001
30
0
0
VERTEX
8
0
10
62.547696875
20
11.070584375000001
30
0
0
VERTEX
8
0
10
62.680584375
20
10.937696875
30
0
0
VERTEX
8
0
10
62.791021875000006
20
10.78569375
30
0
0
VERTEX
8
0
10
62.869609375
20
10.631450000000001
30
0
42
0.6401469510655671
0
VERTEX
8
0
10
63.330593750000006
20
10.64955625
30
0
0
VERTEX
8
0
10
63.384078125
20
10.778678125
30
0
0
VERTEX
8
0
10
63.69131875
20
11.085918750000001
30
0
0
VERTEX
8
0
10
64.092746875
20
11.252196875000001
30
0
0
VERTEX
8
0
10
64.52725000000001
20
11.252196875000001
30
0
0
VERTEX
8
0
10
64.928678125
20
11.085918750000001
30
0
0
VERTEX
8
0
10
65.235921875
20
10.778675
30
0
42
0.308798269205644
0
VERTEX
8
0
10
65.472525
20
10.617196875000001
30
0
0
VERTEX
8
0
10
83.865409375
20
10.617196875000001
30
0
42
0.19891236737965798
0
VERTEX
8
0
10
84.045015625
20
10.691590625
30
0
0
VERTEX
8
0
10
86.46840625
20
13.114981250000001
30
0
42
0.19891236737965798
0
VERTEX
8
0
10
86.5428
20
13.2945875
30
0
0
VERTEX
8
0
10
86.5428
20
52.705409375
30
0
42
0.19891236737965798
0
VERTEX
8
0
10
86.46840625
20
52.885015625
30
0
0
VERTEX
8
0
10
84.565015625
20
54.78840625
30
0
42
0.19891236737965798
0
VERTEX
8
0
10
84.38540937500001
20
54.8628
30
0
0
VERTEX
8
0
10
83.162525
20
54.8628
30
0
42
0.19868401960579754
0
VERTEX
8
0
10
82.983078125
20
54.788562500000005
30
0
0
VERTEX
8
0
10
82.97678437500001
20
54.781209375
30
0
42
0.0871984495358291
0
VERTEX
8
0
10
82.925921875
20
54.701321875000005
30
0
0
VERTEX
8
0
10
82.618678125
20
54.394078125
30
0
0
VERTEX
8
0
10
82.354528125
20
54.2846625
30
0
42
0.6681789588590761
0
VERTEX
8
0
10
82.35453125000001
20
53.81533125
30
0
0
VERTEX
8
0
10
82.61867500000001
20
53.705921875
30
0
0
VERTEX
8
0
10
82.925921875
20
53.398675000000004
30
0
42
0.308798269205644
0
VERTEX
8
0
10
83.162525
20
53.237196875
30
0
0
VERTEX
8
0
10
84.81094375
20
53.237196875
30
0
0
VERTEX
8
0
10
84.978975
20
53.167596875
30
0
0
VERTEX
8
0
10
85.887596875
20
52.258975
30
0
0
VERTEX
8
0
10
85.95719687500001
20
52.09094375
30
0
0
VERTEX
8
0
10
85.95719687500001
20
30.409053125
30
0
0
VERTEX
8
0
10
85.887596875
20
30.241021875
30
0
0
VERTEX
8
0
10
85.72327187500001
20
30.076696875000003
30
0
0
VERTEX
8
0
10
85.72325000000001
20
30.076678125
30
0
0
VERTEX
8
0
10
84.42331875
20
28.776746875
30
0
0
VERTEX
8
0
10
84.4233
20
28.776725000000003
30
0
0
VERTEX
8
0
10
84.258975
20
28.6124
30
0
0
VERTEX
8
0
10
84.09094375000001
20
28.5428
30
0
0
VERTEX
8
0
10
64.409053125
20
28.5428
30
0
0
VERTEX
8
0
10
64.241021875
20
28.6124
30
0
0
VERTEX
8
0
10
64.07667500000001
20
28.776746875
30
0
0
VERTEX
8
0
10
63.776762500000004
20
29.076656250000003
30
0
0
VERTEX
8
0
10
63.77674375
20
29.076678125
30
0
0
VERTEX
8
0
10
63.6124
20
29.241021875
30
0
0
VERTEX
8
0
10
63.5428
20
29.409053125
30
0
0
VERTEX
8
0
10
63.5428
20
46.09094375
30
0
0
VERTEX
8
0
10
63.6124
20
46.258975
30
0
0
VERTEX
8
0
10
64.511021875
20
47.157596875
30
0
0
VERTEX
8
0
10
64.67905312500001
20
47.227196875000004
30
0
0
VERTEX
8
0
10
65.417471875
20
47.227196875000004
30
0
42
0.19868401960579754
0
VERTEX
8
0
10
65.59691875
20
47.301434375
30
0
0
VERTEX
8
0
10
65.6032125
20
47.3087875
30
0
42
0.0871984495358291
0
VERTEX
8
0
10
65.654075
20
47.388675
30
0
0
VERTEX
8
0
10
65.96131875
20
47.695918750000004
30
0
0
VERTEX
8
0
10
66.22546875
20
47.805334375
30
0
42
0.6681789588590761
0
VERTEX
8
0
10
66.225465625
20
48.274665625000004
30
0
0
VERTEX
8
0
10
65.96132187500001
20
48.384075
30
0
0
VERTEX
8
0
10
65.654078125
20
48.69131875
30
0
0
VERTEX
8
0
10
65.48780000000001
20
49.092746875
30
0
0
VERTEX
8
0
10
65.48780000000001
20
49.52725
30
0
0
VERTEX
8
0
10
65.654078125
20
49.928678125000005
30
0
0
VERTEX
8
0
10
65.96131875
20
50.23591875
30
0
0
VERTEX
8
0
10
66.362746875
20
50.402196875
30
0
0
VERTEX
8
0
10
66.79725
20
50.402196875
30
0
0
VERTEX
8
0
10
67.198678125
20
50.23591875
30
0
0
VERTEX
8
0
10
67.50591875
20
49.928678125000005
30
0
0
VERTEX
8
0
10
67.672196875
20
49.52725
30
0
0
VERTEX
8
0
10
67.672196875
20
49.092746875
30
0
0
VERTEX
8
0
10
67.50591875
20
48.69131875
30
0
0
VERTEX
8
0
10
67.19867500000001
20
48.384075
30
0
0
VERTEX
8
0
10
66.93453125
20
48.274665625000004
30
0
42
0.6681789588590761
0
VERTEX
8
0
10
66.934528125
20
47.805334375
30
0
0
VERTEX
8
0
10
67.198678125
20
47.695918750000004
30
0
0
VERTEX
8
0
10
67.50591875
20
47.388678125000006
30
0
0
VERTEX
8
0
10
67.672196875
20
46.98725
30
0
0
VERTEX
8
0
10
67.672196875
20
46.552746875000004
30
0
0
VERTEX
8
0
10
67.50591875
20
46.15131875
30
0
0
VERTEX
8
0
10
67.19867500000001
20
45.844075000000004
30
0
0
VERTEX
8
0
10
66.93453125
20
45.734665625000005
30
0
42
0.6681789588590761
0
VERTEX
8
0
10
66.934528125
20
45.265334375
30
0
0
VERTEX
8
0
10
67.198678125
20
45.155918750000005
30
0
0
VERTEX
8
0
10
67.505921875
20
44.848675
30
0
42
0.3679362044664905
0
VERTEX
8
0
10
67.763565625
20
44.636396875
30
0
0
VERTEX
8
0
10
70.850834375
20
44.636396875
30
0
0
VERTEX
8
0
10
71.000203125
20
44.574525
30
0
0
VERTEX
8
0
10
72.344525
20
43.230203125
30
0
0
VERTEX
8
0
10
72.406396875
20
43.080834375
30
0
0
VERTEX
8
0
10
72.406396875
20
32.27354375
30
0
42
0.19891236737965798
0
VERTEX
8
0
10
72.480790625
20
32.0939375
30
0
0
VERTEX
8
0
10
73.09393750000001
20
31.480790625
30
0
42
0.19891236737965798
0
VERTEX
8
0
10
73.27354375
20
31.406396875000002
30
0
0
VERTEX
8
0
10
82.6546125
20
31.406396875000002
30
0
42
0.19891462834901694
0
VERTEX
8
0
10
82.83421875
20
31.48079375
30
0
0
VERTEX
8
0
10
83.319646875
20
31.966225
30
0
0
VERTEX
8
0
10
83.3196625
20
31.966237500000002
30
0
0
VERTEX
8
0
10
83.31967812500001
20
31.966253125
30
0
0
VERTEX
8
0
10
83.46840625
20
32.114984375
30
0
42
0.19891010641225534
0
VERTEX
8
0
10
83.5428
20
32.2945875
30
0
0
VERTEX
8
0
10
83.5428
20
34.5936625
30
0
42
0.8206813542652309
0
VERTEX
8
0
10
83.054134375
20
34.6908625
30
0
0
VERTEX
8
0
10
82.925921875
20
34.381321875000005
30
0
0
VERTEX
8
0
10
82.618678125
20
34.074078125
30
0
0
VERTEX
8
0
10
82.21725
20
33.9078
30
0
0
VERTEX
8
0
10
81.782746875
20
33.9078
30
0
0
VERTEX
8
0
10
81.38131875
20
34.074078125
30
0
0
VERTEX
8
0
10
81.074078125
20
34.38131875
30
0
0
VERTEX
8
0
10
80.90780000000001
20
34.782746875
30
0
0
VERTEX
8
0
10
80.90780000000001
20
35.21725
30
0
0
VERTEX
8
0
10
81.074078125
20
35.618678125
30
0
0
VERTEX
8
0
10
81.381321875
20
35.925921875
30
0
0
VERTEX
8
0
10
81.64546875
20
36.03533125
30
0
42
0.6681830692165643
0
VERTEX
8
0
10
81.64546875
20
36.5046625
30
0
0
VERTEX
8
0
10
81.381321875
20
36.614075
30
0
0
VERTEX
8
0
10
81.074078125
20
36.921318750000005
30
0
0
VERTEX
8
0
10
80.90780000000001
20
37.322746875
30
0
0
VERTEX
8
0
10
80.90780000000001
20
37.75725
30
0
0
VERTEX
8
0
10
81.074078125
20
38.158678125
30
0
0
VERTEX
8
0
10
81.381321875
20
38.465921875
30
0
0
VERTEX
8
0
10
81.64546875
20
38.575331250000005
30
0
42
0.6681830692165643
0
VERTEX
8
0
10
81.64546875
20
39.0446625
30
0
0
VERTEX
8
0
10
81.381321875
20
39.154075
30
0
0
VERTEX
8
0
10
81.074078125
20
39.461318750000004
30
0
0
VERTEX
8
0
10
80.90780000000001
20
39.862746875
30
0
0
VERTEX
8
0
10
80.90780000000001
20
40.297250000000005
30
0
0
VERTEX
8
0
10
81.074078125
20
40.698678125
30
0
0
VERTEX
8
0
10
81.381321875
20
41.005921875
30
0
0
VERTEX
8
0
10
81.64546875
20
41.115331250000004
30
0
42
0.8350104360112313
0
VERTEX
8
0
10
81.538809375
20
41.62803125
30
0
0
VERTEX
8
0
10
81.52998125
20
41.631718750000005
30
0
42
0.0794966186955911
0
VERTEX
8
0
10
81.450728125
20
41.644400000000005
30
0
0
VERTEX
8
0
10
76.929265625
20
41.644400000000005
30
0
0
VERTEX
8
0
10
76.79856875
20
41.6985375
30
0
0
VERTEX
8
0
10
75.6985375
20
42.79856875
30
0
0
VERTEX
8
0
10
75.6444
20
42.929265625
30
0
0
VERTEX
8
0
10
75.6444
20
74.74749375
30
0
42
0.19891236737965798
0
VERTEX
8
0
10
75.57000625
20
74.92710000000001
30
0
0
VERTEX
8
0
10
74.92710000000001
20
75.57000625
30
0
42
0.19891236737965798
0
VERTEX
8
0
10
74.74749375
20
75.6444
30
0
0
VERTEX
8
0
10
60.929265625000006
20
75.6444
30
0
0
VERTEX
8
0
10
60.79856875
20
75.6985375
30
0
0
VERTEX
8
0
10
60.66283125
20
75.834275
30
0
0
VERTEX
8
0
10
60.6628125
20
75.834296875
30
0
0
VERTEX
8
0
10
59.524296875000005
20
76.9728125
30
0
0
VERTEX
8
0
10
59.524275
20
76.97283125
30
0
0
VERTEX
8
0
10
59.388537500000005
20
77.10856875
30
0
0
VERTEX
8
0
10
59.3344
20
77.239265625
30
0
0
VERTEX
8
0
10
59.3344
20
78.26539062500001
30
0
42
0.3033514595043437
0
VERTEX
8
0
10
59.177596875000006
20
78.50005625
30
0
0
VERTEX
8
0
10
59.071321875
20
78.544075
30
0
0
VERTEX
8
0
10
58.764075000000005
20
78.85132187500001
30
0
0
VERTEX
8
0
10
58.6546625
20
79.11546875
30
0
42
0.6681830692165643
0
VERTEX
8
0
10
58.185331250000004
20
79.11546875
30
0
0
VERTEX
8
0
10
58.075921875000006
20
78.85132187500001
30
0
0
VERTEX
8
0
10
57.768678125
20
78.544078125
30
0
0
VERTEX
8
0
10
57.367250000000006
20
78.37780000000001
30
0
0
VERTEX
8
0
10
56.932746875
20
78.37780000000001
30
0
0
VERTEX
8
0
10
56.531318750000004
20
78.544078125
30
0
0
VERTEX
8
0
10
56.224075000000006
20
78.85132187500001
30
0
0
VERTEX
8
0
10
56.1146625
20
79.11546875
30
0
42
0.6681830692165643
0
VERTEX
8
0
10
55.645331250000005
20
79.11546875
30
0
0
VERTEX
8
0
10
55.535921875
20
78.85132187500001
30
0
0
VERTEX
8
0
10
55.228678125
20
78.544078125
30
0
0
VERTEX
8
0
10
54.82725
20
78.37780000000001
30
0
0
VERTEX
8
0
10
54.392746875
20
78.37780000000001
30
0
0
VERTEX
8
0
10
53.991318750000005
20
78.544078125
30
0
0
VERTEX
8
0
10
53.684075
20
78.85132187500001
30
0
0
VERTEX
8
0
10
53.574665625
20
79.115465625
30
0
42
0.6681789588590761
0
VERTEX
8
0
10
53.105334375000005
20
79.11546875
30
0
0
VERTEX
8
0
10
52.99591875
20
78.85131875
30
0
0
VERTEX
8
0
10
52.688678125
20
78.544078125
30
0
0
VERTEX
8
0
10
52.28725
20
78.37780000000001
30
0
0
VERTEX
8
0
10
51.852746875
20
78.37780000000001
30
0
0
VERTEX
8
0
10
51.451318750000006
20
78.544078125
30
0
0
VERTEX
8
0
10
51.144078125
20
78.85131875
30
0
0
VERTEX
8
0
10
51.0346625
20
79.11546875
30
0
42
0.6681789588590761
0
VERTEX
8
0
10
50.56533125
20
79.115465625
30
0
0
VERTEX
8
0
10
50.455921875
20
78.85132187500001
30
0
0
VERTEX
8
0
10
50.115050000000004
20
78.51045
30
0
42
0.20252645170697137
0
VERTEX
8
0
10
50.037996875000005
20
78.32851562500001
30
0
0
VERTEX
8
0
10
50.037996875000005
20
43.428946875
30
0
0
VERTEX
8
0
10
49.960662500000005
20
43.24224375
30
0
0
VERTEX
8
0
10
47.112390625
20
40.393971875000005
30
0
42
0.19891236737965798
0
VERTEX
8
0
10
47.037996875000005
20
40.214365625
30
0
0
VERTEX
8
0
10
47.037996875000005
20
11.30148125
30
0
42
0.20140149657766573
0
VERTEX
8
0
10
47.114509375000004
20
11.1200875
30
0
0
VERTEX
8
0
10
47.45591875
20
10.778678125
30
0
0
VERTEX
8
0
10
47.509403125000006
20
10.64955625
30
0
42
0.6401469510655671
0
VERTEX
8
0
10
47.9703875
20
10.631450000000001
30
0
0
VERTEX
8
0
10
48.048975000000006
20
10.78569375
30
0
0
VERTEX
8
0
10
48.142531250000005
20
10.9144625
30
0
42
0.027739562712372774
0
VERTEX
8
0
10
48.1594125
20
10.937696875
30
0
0
VERTEX
8
0
10
48.292300000000004
20
11.070584375000001
30
0
0
VERTEX
8
0
10
48.4443125
20
11.181028125000001
30
0
0
VERTEX
8
0
10
48.611731250000005
20
11.26633125
30
0
0
VERTEX
8
0
10
48.790456250000005
20
11.324403125
30
0
0
VERTEX
8
0
10
48.81598125
20
11.328446875000001
30
0
0
VERTEX
8
0
10
48.81598125
20
10.160031250000001
30
0
42
6.458358827051549e-5
0
VERTEX
8
0
10
48.81598125
20
10.159965625
30
0
0
VERTEX
8
0
10
48.81598125
20
8.99155
30
0
0
VERTEX
8
0
10
48.790456250000005
20
8.995593750000001
30
0
0
VERTEX
8
0
10
48.611731250000005
20
9.053665625
30
0
0
VERTEX
8
0
10
48.4443125
20
9.13896875
30
0
0
VERTEX
8
0
10
48.292300000000004
20
9.2494125
30
0
0
VERTEX
8
0
10
48.1594125
20
9.3823
30
0
0
VERTEX
8
0
10
48.048978125000005
20
9.5343
30
0
0
VERTEX
8
0
10
47.9703875
20
9.688546875
30
0
42
0.6401469510655671
0
VERTEX
8
0
10
47.509403125000006
20
9.670440625000001
30
0
0
VERTEX
8
0
10
47.45591875
20
9.54131875
30
0
0
VERTEX
8
0
10
47.148678125
20
9.234078125
30
0
0
VERTEX
8
0
10
46.74725
20
9.0678
30
0
0
VERTEX
8
0
10
46.312746875
20
9.0678
30
0
0
VERTEX
8
0
10
45.91131875
20
9.234078125
30
0
0
VERTEX
8
0
10
45.604078125
20
9.54131875
30
0
0
VERTEX
8
0
10
45.4378
20
9.942746875000001
30
0
0
VERTEX
8
0
10
45.4378
20
10.37725
30
0
0
VERTEX
8
0
10
45.604078125
20
10.778678125
30
0
0
VERTEX
8
0
10
45.944946875
20
11.119546875000001
30
0
42
0.20252645170697137
0
VERTEX
8
0
10
46.022000000000006
20
11.30148125
30
0
0
VERTEX
8
0
10
46.022000000000006
20
40.63105
30
0
0
VERTEX
8
0
10
46.099334375000005
20
40.817753125
30
0
0
VERTEX
8
0
10
48.94760625
20
43.666025000000005
30
0
42
0.19891236737965798
0
VERTEX
8
0
10
49.022000000000006
20
43.845631250000004
30
0
0
VERTEX
8
0
10
49.022000000000006
20
78.32851562500001
30
0
42
0.20140149657766573
0
VERTEX
8
0
10
48.945487500000006
20
78.509909375
30
0
0
VERTEX
8
0
10
48.604078125
20
78.85131875
30
0
0
VERTEX
8
0
10
48.494662500000004
20
79.11546875
30
0
42
0.6681789588590761
0
VERTEX
8
0
10
48.02533125
20
79.115465625
30
0
0
VERTEX
8
0
10
47.915921875
20
78.85132187500001
30
0
0
VERTEX
8
0
10
47.608678125000004
20
78.544078125
30
0
0
VERTEX
8
0
10
47.20725
20
78.37780000000001
30
0
0
VERTEX
8
0
10
46.772746875
20
78.37780000000001
30
0
0
VERTEX
8
0
10
46.37131875
20
78.544078125
30
0
0
VERTEX
8
0
10
46.064078125
20
78.85131875
30
0
0
VERTEX
8
0
10
45.897800000000004
20
79.252746875
30
0
0
VERTEX
8
0
10
45.897800000000004
20
79.68725
30
0
0
VERTEX
8
0
10
46.064078125
20
80.088678125
30
0
0
VERTEX
8
0
10
46.37131875
20
80.39591875
30
0
0
VERTEX
8
0
10
46.772746875
20
80.562196875
30
0
0
VERTEX
8
0
10
47.20725
20
80.562196875
30
0
42
0.3088024274602889
0
VERTEX
8
0
10
47.488740625000005
20
80.61531562500001
30
0
0
VERTEX
8
0
10
49.261021875000004
20
82.387596875
30
0
0
VERTEX
8
0
10
49.429053125
20
82.45719687500001
30
0
0
VERTEX
8
0
10
62.33094375
20
82.45719687500001
30
0
0
VERTEX
8
0
10
62.498975
20
82.387596875
30
0
0
VERTEX
8
0
10
64.27125625000001
20
80.61531562500001
30
0
42
0.19868535590207795
0
VERTEX
8
0
10
64.450640625
20
80.54092187500001
30
0
0
VERTEX
8
0
10
64.4603125
20
80.541671875
30
0
42
0.08718139616818016
0
VERTEX
8
0
10
64.552746875
20
80.562196875
30
0
0
VERTEX
8
0
10
64.98725
20
80.562196875
30
0
0
VERTEX
8
0
10
65.388678125
20
80.39591875
30
0
0
VERTEX
8
0
10
65.69591875
20
80.088678125
30
0
0
VERTEX
8
0
10
65.86219687500001
20
79.68725
30
0
0
VERTEX
8
0
10
65.86219687500001
20
79.252746875
30
0
42
0.3088024274602889
0
VERTEX
8
0
10
65.915315625
20
78.97125625000001
30
0
0
VERTEX
8
0
10
66.35498125000001
20
78.531590625
30
0
42
0.19891236737965798
0
VERTEX
8
0
10
66.5345875
20
78.45719687500001
30
0
0
VERTEX
8
0
10
77.09094375000001
20
78.45719687500001
30
0
0
VERTEX
8
0
10
77.258975
20
78.387596875
30
0
0
VERTEX
8
0
10
78.22325000000001
20
77.42331875
30
0
0
VERTEX
8
0
10
78.22327187500001
20
77.4233
30
0
0
VERTEX
8
0
10
78.387596875
20
77.258975
30
0
0
VERTEX
8
0
10
78.45719687500001
20
77.09094375000001
30
0
0
VERTEX
8
0
10
78.45719687500001
20
54.294587500000006
30
0
42
0.19891236737965798
0
VERTEX
8
0
10
78.531590625
20
54.11498125
30
0
0
VERTEX
8
0
10
79.33498125
20
53.311590625
30
0
42
0.19891236737965798
0
VERTEX
8
0
10
79.5145875
20
53.237196875
30
0
0
VERTEX
8
0
10
80.837471875
20
53.237196875
30
0
42
0.19868401960579754
0
VERTEX
8
0
10
81.01691875
20
53.311434375000005
30
0
0
VERTEX
8
0
10
81.0232125
20
53.3187875
30
0
42
0.0871984495358291
0
VERTEX
8
0
10
81.07407500000001
20
53.398675000000004
30
0
0
VERTEX
8
0
10
81.381321875
20
53.705921875
30
0
0
VERTEX
8
0
10
81.645465625
20
53.81533125
30
0
42
0.6681789588590761
0
VERTEX
8
0
10
81.64546875
20
54.2846625
30
0
0
VERTEX
8
0
10
81.38131875
20
54.394078125
30
0
0
VERTEX
8
0
10
81.074078125
20
54.701318750000006
30
0
0
VERTEX
8
0
10
80.90780000000001
20
55.102746875
30
0
0
VERTEX
8
0
10
80.90780000000001
20
55.53725
30
0
0
VERTEX
8
0
10
81.074078125
20
55.938678125
30
0
0
VERTEX
8
0
10
81.381321875
20
56.245921875
30
0
0
VERTEX
8
0
10
81.645465625
20
56.355331250000006
30
0
42
0.6681789588590761
0
VERTEX
8
0
10
81.64546875
20
56.8246625
30
0
0
VERTEX
8
0
10
81.38131875
20
56.934078125
30
0
0
VERTEX
8
0
10
81.074078125
20
57.241318750000005
30
0
0
VERTEX
8
0
10
80.90780000000001
20
57.642746875
30
0
0
VERTEX
8
0
10
80.90780000000001
20
58.07725
30
0
0
VERTEX
8
0
10
81.074078125
20
58.478678125
30
0
0
VERTEX
8
0
10
81.38131875
20
58.78591875
30
0
0
VERTEX
8
0
10
81.782746875
20
58.952196875000006
30
0
0
VERTEX
8
0
10
82.21725
20
58.952196875000006
30
0
0
VERTEX
8
0
10
82.618678125
20
58.78591875
30
0
0
VERTEX
8
0
10
82.92591875000001
20
58.478678125
30
0
0
VERTEX
8
0
10
83.092196875
20
58.07725
30
0
0
VERTEX
8
0
10
83.092196875
20
57.642746875
30
0
0
VERTEX
8
0
10
82.92591875000001
20
57.241318750000005
30
0
0
VERTEX
8
0
10
82.618678125
20
56.934078125
30
0
0
VERTEX
8
0
10
82.354528125
20
56.8246625
30
0
42
0.6681789588590761
0
VERTEX
8
0
10
82.35453125000001
20
56.355331250000006
30
0
0
VERTEX
8
0
10
82.61867500000001
20
56.245921875
30
0
0
VERTEX
8
0
10
82.925921875
20
55.938675
30
0
42
0.308798269205644
0
VERTEX
8
0
10
83.162525
20
55.777196875
30
0
0
VERTEX
8
0
10
84.77094375
20
55.777196875
30
0
0
VERTEX
8
0
10
84.938975
20
55.707596875
30
0
0
VERTEX
8
0
10
86.94039375
20
53.706175
30
0
42
0.6681786379192989
0
VERTEX
8
0
10
87.37400000000001
20
53.88578125
30
0
0
VERTEX
8
0
10
87.37400000000001
20
76.48209375
30
0
0
VERTEX
8
0
10
87.528678125
20
76.85551562500001
30
0
0
VERTEX
8
0
10
87.814484375
20
77.141321875
30
0
0
VERTEX
8
0
10
88.0972
20
77.258425
30
0
42
0.30334835632732
0
VERTEX
8
0
10
88.254
20
77.49309062500001
30
0
0
VERTEX
8
0
10
88.254
20
84
30
0
42
0.4142135623730951
0
VERTEX
8
0
10
88
20
84.254
30
0
0
VERTEX
8
0
10
55.93903125
20
84.254
30
0
42
0.09849272595214832
0
VERTEX
8
0
10
55.841828125
20
84.234665625
30
0
0
VERTEX
8
0
10
55.647090625000004
20
84.15400000000001
30
0
0
VERTEX
8
0
10
41.9
20
84.15400000000001
30
0
42
0.19891236737965798
0
VERTEX
8
0
10
41.72039375
20
84.07960625
30
0
0
VERTEX
8
0
10
41.32039375
20
83.67960625
30
0
42
0.19891236737965798
0
VERTEX
8
0
10
41.246
20
83.5
30
0
0
VERTEX
8
0
10
41.246
20
47.05736875
30
0
42
0.6681817838578493
0
VERTEX
8
0
10
41.67960625
20
46.877765625
30
0
0
VERTEX
8
0
10
41.90013125
20
47.09829375
30
0
0
VERTEX
8
0
10
42.47386875
20
47.4295375
30
0
0
VERTEX
8
0
10
43.113753125
20
47.600996875
30
0
0
VERTEX
8
0
10
43.77624375
20
47.600996875
30
0
0
VERTEX
8
0
10
44.416128125
20
47.4295375
30
0
0
VERTEX
8
0
10
44.98985625
20
47.0983
30
0
0
VERTEX
8
0
10
45.4583
20
46.62985625
30
0
0
VERTEX
8
0
10
45.7895375
20
46.056128125
30
0
0
VERTEX
8
0
10
45.960996875
20
45.41624375
30
0
0
VERTEX
8
0
10
45.960996875
20
44.753753125
30
0
0
VERTEX
8
0
10
45.7895375
20
44.11386875
30
0
0
VERTEX
8
0
10
45.4583
20
43.540140625
30
0
0
VERTEX
8
0
10
44.98985625
20
43.071696875
30
0
0
VERTEX
8
0
10
44.416128125
20
42.740459375
30
0
0
VERTEX
8
0
10
43.77624375
20
42.569
30
0
0
VERTEX
8
0
10
43.113753125
20
42.569
30
0
0
VERTEX
8
0
10
42.47386875
20
42.740459375
30
0
0
VERTEX
8
0
10
41.90013125
20
43.071703125
30
0
0
VERTEX
8
0
10
41.67960625
20
43.29223125
30
0
42
0.6681817838578493
0
VERTEX
8
0
10
41.246
20
43.112628125
30
0
0
VERTEX
8
0
10
41.246
20
7
30
0
42
0.4142135623730951
0
VERTEX
8
0
10
41.5
20
6.746
30
0
0
VERTEX
8
0
10
87.5
20
6.746
30
0
0
SEQEND
0
POLYLINE
66
1
8
16_copper
10
0.0
20
0.0
30
0.0
70
1
0
VERTEX
8
0
10
65.64438125000001
20
77.35715
30
0
42
0.6402867697627391
0
VERTEX
8
0
10
65.80421875
20
77.789203125
30
0
0
VERTEX
8
0
10
65.2687375
20
78.32468125
30
0
42
0.19868309513098031
0
VERTEX
8
0
10
65.08935625000001
20
78.39907500000001
30
0
0
VERTEX
8
0
10
65.079684375
20
78.398325
30
0
42
0.08718139616818016
0
VERTEX
8
0
10
64.98725
20
78.37780000000001
30
0
0
VERTEX
8
0
10
64.552746875
20
78.37780000000001
30
0
0
VERTEX
8
0
10
64.15131875
20
78.544078125
30
0
0
VERTEX
8
0
10
63.844078125
20
78.85131875
30
0
0
VERTEX
8
0
10
63.790593750000006
20
78.980440625
30
0
42
0.6401469510655671
0
VERTEX
8
0
10
63.329609375000004
20
78.998546875
30
0
0
VERTEX
8
0
10
63.251021875000006
20
78.84430312500001
30
0
0
VERTEX
8
0
10
63.140584375
20
78.6923
30
0
0
VERTEX
8
0
10
63.007696875
20
78.55941250000001
30
0
0
VERTEX
8
0
10
62.855684375
20
78.44896875
30
0
0
VERTEX
8
0
10
62.688265625
20
78.36366562500001
30
0
42
0.006549032187852411
0
VERTEX
8
0
10
62.681884375
20
78.361590625
30
0
0
VERTEX
8
0
10
62.509540625
20
78.30559375
30
0
0
VERTEX
8
0
10
62.484012500000006
20
78.30155
30
0
0
VERTEX
8
0
10
62.484012500000006
20
79.469965625
30
0
42
6.458358827051549e-5
0
VERTEX
8
0
10
62.484012500000006
20
79.47003125
30
0
0
VERTEX
8
0
10
62.484012500000006
20
80.727921875
30
0
42
0.432560808080903
0
VERTEX
8
0
10
62.496021875000004
20
81.09740000000001
30
0
0
VERTEX
8
0
10
62.125015625
20
81.46840625
30
0
42
0.19891236737965798
0
VERTEX
8
0
10
61.945409375000004
20
81.5428
30
0
0
VERTEX
8
0
10
61.073296875000004
20
81.5428
30
0
42
0.6681817838578493
0
VERTEX
8
0
10
60.893693750000004
20
81.10919375
30
0
0
VERTEX
8
0
10
61.301459375
20
80.70143125
30
0
42
0.49801724993064606
0
VERTEX
8
0
10
61.671031250000006
20
80.52502187500001
30
0
0
VERTEX
8
0
10
61.771725
20
80.576328125
30
0
0
VERTEX
8
0
10
61.95045625
20
80.634403125
30
0
0
VERTEX
8
0
10
61.975981250000004
20
80.638446875
30
0
0
VERTEX
8
0
10
61.975981250000004
20
79.47003125
30
0
42
6.459153408567002e-5
0
VERTEX
8
0
10
61.975981250000004
20
79.469965625
30
0
0
VERTEX
8
0
10
61.975981250000004
20
78.30155
30
0
0
VERTEX
8
0
10
61.95045625
20
78.30559375
30
0
0
VERTEX
8
0
10
61.771725
20
78.36366875
30
0
42
0.08090116808536471
0
VERTEX
8
0
10
61.69335625
20
78.4019875
30
0
0
VERTEX
8
0
10
61.673825
20
78.41010625
30
0
42
0.5099655881070437
0
VERTEX
8
0
10
61.340996875
20
78.16864687500001
30
0
0
VERTEX
8
0
10
61.340996875
20
77.767103125
30
0
42
0.19891236737965798
0
VERTEX
8
0
10
61.415390625
20
77.587496875
30
0
0
VERTEX
8
0
10
61.572896875000005
20
77.429990625
30
0
42
0.19891236737965798
0
VERTEX
8
0
10
61.752503125000004
20
77.355596875
30
0
0
VERTEX
8
0
10
65.624615625
20
77.355596875
30
0
0
SEQEND
0
POLYLINE
66
1
8
16_copper
10
0.0
20
0.0
30
0.0
70
1
0
VERTEX
8
0
10
83.724828125
20
29.458721875000002
30
0
42
0.1790390709365824
0
VERTEX
8
0
10
83.88501875
20
29.531590625
30
0
0
VERTEX
8
0
10
84.96840625
20
30.614978125
30
0
42
0.19891236737965798
0
VERTEX
8
0
10
85.0428
20
30.794584375000003
30
0
0
VERTEX
8
0
10
85.0428
20
51.705409375
30
0
42
0.19891236737965798
0
VERTEX
8
0
10
84.96840625
20
51.885015625
30
0
0
VERTEX
8
0
10
84.60501562500001
20
52.24840625
30
0
42
0.19891236737965798
0
VERTEX
8
0
10
84.425409375
20
52.3228
30
0
0
VERTEX
8
0
10
83.162525
20
52.3228
30
0
42
0.19868401960579754
0
VERTEX
8
0
10
82.983078125
20
52.248562500000006
30
0
0
VERTEX
8
0
10
82.97678437500001
20
52.241209375000004
30
0
42
0.0871984495358291
0
VERTEX
8
0
10
82.925921875
20
52.161321875000006
30
0
0
VERTEX
8
0
10
82.618678125
20
51.854078125
30
0
0
VERTEX
8
0
10
82.48955625
20
51.800593750000004
30
0
42
0.6401469510655671
0
VERTEX
8
0
10
82.47145
20
51.339609375
30
0
0
VERTEX
8
0
10
82.62569375000001
20
51.261021875000004
30
0
0
VERTEX
8
0
10
82.777696875
20
51.150584375
30
0
0
VERTEX
8
0
10
82.910584375
20
51.017696875000006
30
0
0
VERTEX
8
0
10
83.021028125
20
50.865684375
30
0
0
VERTEX
8
0
10
83.10633125000001
20
50.698265625000005
30
0
0
VERTEX
8
0
10
83.164403125
20
50.519540625000005
30
0
0
VERTEX
8
0
10
83.168446875
20
50.494012500000004
30
0
0
VERTEX
8
0
10
82.00003125
20
50.494012500000004
30
0
42
6.458835660031687e-5
0
VERTEX
8
0
10
81.999965625
20
50.494012500000004
30
0
0
VERTEX
8
0
10
80.83155000000001
20
50.494012500000004
30
0
0
VERTEX
8
0
10
80.83559375
20
50.519540625000005
30
0
0
VERTEX
8
0
10
80.864709375
20
50.609146875
30
0
42
0.08579318897054158
0
VERTEX
8
0
10
80.893665625
20
50.698265625000005
30
0
0
VERTEX
8
0
10
80.95895
20
50.82639375
30
0
42
0.04217772920662313
0
VERTEX
8
0
10
80.97896875
20
50.865684375
30
0
0
VERTEX
8
0
10
81.08941250000001
20
51.017696875000006
30
0
0
VERTEX
8
0
10
81.2223
20
51.150584375
30
0
0
VERTEX
8
0
10
81.374303125
20
51.261021875000004
30
0
0
VERTEX
8
0
10
81.528546875
20
51.339609375
30
0
42
0.6401469510655671
0
VERTEX
8
0
10
81.510440625
20
51.800593750000004
30
0
0
VERTEX
8
0
10
81.38131875
20
51.854078125
30
0
0
VERTEX
8
0
10
81.07407500000001
20
52.161321875000006
30
0
42
0.308798269205644
0
VERTEX
8
0
10
80.837471875
20
52.3228
30
0
0
VERTEX
8
0
10
79.129053125
20
52.3228
30
0
0
VERTEX
8
0
10
78.961021875
20
52.3924
30
0
0
VERTEX
8
0
10
78.796678125
20
52.55674375
30
0
0
VERTEX
8
0
10
77.789203125
20
53.564221875
30
0
42
0.6681786379192989
0
VERTEX
8
0
10
77.355596875
20
53.384615625
30
0
0
VERTEX
8
0
10
77.355596875
20
46.252503125000004
30
0
42
0.19891236737965798
0
VERTEX
8
0
10
77.429990625
20
46.072896875000005
30
0
0
VERTEX
8
0
10
78.082896875
20
45.419990625000004
30
0
42
0.19891236737965798
0
VERTEX
8
0
10
78.26250312500001
20
45.345596875000005
30
0
0
VERTEX
8
0
10
80.72497187500001
20
45.345596875000005
30
0
42
0.30334835632732
0
VERTEX
8
0
10
80.9596375
20
45.502396875
30
0
0
VERTEX
8
0
10
81.07407500000001
20
45.778675
30
0
0
VERTEX
8
0
10
81.381321875
20
46.085921875000004
30
0
0
VERTEX
8
0
10
81.645465625
20
46.19533125
30
0
42
0.6681789588590761
0
VERTEX
8
0
10
81.64546875
20
46.664662500000006
30
0
0
VERTEX
8
0
10
81.38131875
20
46.774078125
30
0
0
VERTEX
8
0
10
81.074078125
20
47.08131875
30
0
0
VERTEX
8
0
10
80.90780000000001
20
47.482746875000004
30
0
0
VERTEX
8
0
10
80.90780000000001
20
47.91725
30
0
0
VERTEX
8
0
10
81.074078125
20
48.318678125000005
30
0
0
VERTEX
8
0
10
81.38131875
20
48.625918750000004
30
0
0
VERTEX
8
0
10
81.510440625
20
48.679403125
30
0
42
0.6401469510655671
0
VERTEX
8
0
10
81.528546875
20
49.1403875
30
0
0
VERTEX
8
0
10
81.374303125
20
49.218975
30
0
0
VERTEX
8
0
10
81.2223
20
49.329412500000004
30
0
0
VERTEX
8
0
10
81.08941250000001
20
49.4623
30
0
0
VERTEX
8
0
10
80.97896875
20
49.614312500000004
30
0
0
VERTEX
8
0
10
80.893665625
20
49.78173125
30
0
0
VERTEX
8
0
10
80.83559375
20
49.96045625
30
0
0
VERTEX
8
0
10
80.83155000000001
20
49.98598125
30
0
0
VERTEX
8
0
10
81.79346562500001
20
49.98598125
30
0
42
0.9464732248684207
0
VERTEX
8
0
10
82.302890625
20
49.98598125
30
0
0
VERTEX
8
0
10
83.168446875
20
49.98598125
30
0
42
0.025001727879173957
0
VERTEX
8
0
10
83.164403125
20
49.96045625
30
0
0
VERTEX
8
0
10
83.10633125000001
20
49.78173125
30
0
0
VERTEX
8
0
10
83.021028125
20
49.614312500000004
30
0
0
VERTEX
8
0
10
82.910584375
20
49.4623
30
0
0
VERTEX
8
0
10
82.777696875
20
49.329412500000004
30
0
0
VERTEX
8
0
10
82.62569375000001
20
49.218975
30
0
0
VERTEX
8
0
10
82.47145
20
49.1403875
30
0
42
0.6401469510655671
0
VERTEX
8
0
10
82.48955625
20
48.679403125
30
0
0
VERTEX
8
0
10
82.618678125
20
48.625918750000004
30
0
0
VERTEX
8
0
10
82.925921875
20
48.318675
30
0
42
0.308798269205644
0
VERTEX
8
0
10
83.162525
20
48.157196875000004
30
0
0
VERTEX
8
0
10
83.39094375
20
48.157196875000004
30
0
0
VERTEX
8
0
10
83.558975
20
48.087596875
30
0
0
VERTEX
8
0
10
84.387596875
20
47.258975
30
0
0
VERTEX
8
0
10
84.45719687500001
20
47.09094375
30
0
0
VERTEX
8
0
10
84.45719687500001
20
31.909053125
30
0
0
VERTEX
8
0
10
84.387596875
20
31.741021875
30
0
0
VERTEX
8
0
10
84.22327187500001
20
31.576696875000003
30
0
0
VERTEX
8
0
10
84.22325000000001
20
31.576678125
30
0
0
VERTEX
8
0
10
83.258975
20
30.6124
30
0
0
VERTEX
8
0
10
83.09094375000001
20
30.5428
30
0
0
VERTEX
8
0
10
82.90905625
20
30.5428
30
0
42
0.1782955236161532
0
VERTEX
8
0
10
82.73589062500001
20
30.593600000000002
30
0
0
VERTEX
8
0
10
72.9191625
20
30.593600000000002
30
0
0
VERTEX
8
0
10
72.76979375
20
30.655471875
30
0
0
VERTEX
8
0
10
71.655471875
20
31.76979375
30
0
0
VERTEX
8
0
10
71.59360000000001
20
31.919162500000002
30
0
0
VERTEX
8
0
10
71.59360000000001
20
42.726453125
30
0
42
0.19891236737965798
0
VERTEX
8
0
10
71.51920625000001
20
42.906059375000005
30
0
0
VERTEX
8
0
10
70.67605937500001
20
43.74920625
30
0
42
0.19891236737965798
0
VERTEX
8
0
10
70.496453125
20
43.8236
30
0
0
VERTEX
8
0
10
67.763565625
20
43.8236
30
0
42
0.292745803764171
0
VERTEX
8
0
10
67.533409375
20
43.6756125
30
0
0
VERTEX
8
0
10
67.52890000000001
20
43.6668
30
0
0
VERTEX
8
0
10
67.505921875
20
43.611321875
30
0
0
VERTEX
8
0
10
67.198678125
20
43.304078125000004
30
0
0
VERTEX
8
0
10
67.06955625
20
43.25059375
30
0
42
0.6401469510655671
0
VERTEX
8
0
10
67.05145
20
42.789609375000005
30
0
0
VERTEX
8
0
10
67.20569375000001
20
42.711021875
30
0
0
VERTEX
8
0
10
67.357696875
20
42.600584375000004
30
0
0
VERTEX
8
0
10
67.490584375
20
42.467696875
30
0
0
VERTEX
8
0
10
67.601028125
20
42.315684375000004
30
0
0
VERTEX
8
0
10
67.68633125000001
20
42.148265625
30
0
0
VERTEX
8
0
10
67.744403125
20
41.969540625
30
0
0
VERTEX
8
0
10
67.748446875
20
41.9440125
30
0
0
VERTEX
8
0
10
66.58003125
20
41.9440125
30
0
42
6.459153408567002e-5
0
VERTEX
8
0
10
66.579965625
20
41.9440125
30
0
0
VERTEX
8
0
10
65.41155
20
41.9440125
30
0
42
0.02876006539600604
0
VERTEX
8
0
10
65.41678125
20
41.97319375
30
0
0
VERTEX
8
0
10
65.47366562500001
20
42.148265625
30
0
42
0.045163199767986655
0
VERTEX
8
0
10
65.49515000000001
20
42.190434375
30
0
0
VERTEX
8
0
10
65.55896875
20
42.315684375000004
30
0
0
VERTEX
8
0
10
65.627834375
20
42.41046875
30
0
42
0.06622816605189712
0
VERTEX
8
0
10
65.6694125
20
42.467696875
30
0
0
VERTEX
8
0
10
65.8023
20
42.600584375000004
30
0
0
VERTEX
8
0
10
65.95430312500001
20
42.711021875
30
0
0
VERTEX
8
0
10
66.108546875
20
42.789609375000005
30
0
42
0.6401469510655671
0
VERTEX
8
0
10
66.090440625
20
43.25059375
30
0
0
VERTEX
8
0
10
65.96131875
20
43.304078125000004
30
0
0
VERTEX
8
0
10
65.654078125
20
43.61131875
30
0
0
VERTEX
8
0
10
65.48780000000001
20
44.012746875000005
30
0
0
VERTEX
8
0
10
65.48780000000001
20
44.447250000000004
30
0
0
VERTEX
8
0
10
65.654078125
20
44.848678125
30
0
0
VERTEX
8
0
10
65.96131875
20
45.155918750000005
30
0
0
VERTEX
8
0
10
66.22546875
20
45.265334375
30
0
42
0.6681789588590761
0
VERTEX
8
0
10
66.225465625
20
45.734665625000005
30
0
0
VERTEX
8
0
10
65.96132187500001
20
45.844075000000004
30
0
0
VERTEX
8
0
10
65.654075
20
46.151321875
30
0
42
0.308798269205644
0
VERTEX
8
0
10
65.417471875
20
46.3128
30
0
0
VERTEX
8
0
10
65.0645875
20
46.3128
30
0
42
0.19891236737965798
0
VERTEX
8
0
10
64.88498125000001
20
46.238406250000004
30
0
0
VERTEX
8
0
10
64.531590625
20
45.885015625
30
0
42
0.19891236737965798
0
VERTEX
8
0
10
64.45719687500001
20
45.705409375
30
0
0
VERTEX
8
0
10
64.45719687500001
20
29.794587500000002
30
0
42
0.19891236737965798
0
VERTEX
8
0
10
64.531590625
20
29.614981250000003
30
0
0
VERTEX
8
0
10
64.61498125
20
29.531590625
30
0
42
0.19891236737965798
0
VERTEX
8
0
10
64.7945875
20
29.457196875
30
0
0
VERTEX
8
0
10
83.70541250000001
20
29.457196875
30
0
0
SEQEND
0
POLYLINE
66
1
8
16_copper
10
0.0
20
0.0
30
0.0
70
1
0
VERTEX
8
0
10
66.30045625
20
40.52559375
30
0
0
VERTEX
8
0
10
66.12173125
20
40.583665625
30
0
0
VERTEX
8
0
10
65.9543125
20
40.668968750000005
30
0
0
VERTEX
8
0
10
65.8023
20
40.7794125
30
0
0
VERTEX
8
0
10
65.6694125
20
40.9123
30
0
0
VERTEX
8
0
10
65.55896875
20
41.0643125
30
0
0
VERTEX
8
0
10
65.47366562500001
20
41.23173125
30
0
0
VERTEX
8
0
10
65.41559375
20
41.41045625
30
0
0
VERTEX
8
0
10
65.41155
20
41.435981250000005
30
0
0
VERTEX
8
0
10
66.32598125
20
41.435981250000005
30
0
0
VERTEX
8
0
10
66.32598125
20
40.521550000000005
30
0
0
SEQEND
0
POLYLINE
66
1
8
16_copper
10
0.0
20
0.0
30
0.0
70
1
0
VERTEX
8
0
10
66.8340125
20
41.435981250000005
30
0
0
VERTEX
8
0
10
67.748446875
20
41.435981250000005
30
0
42
0.06697815320147486
0
VERTEX
8
0
10
67.73086875
20
41.368796875
30
0
0
VERTEX
8
0
10
67.68633125000001
20
41.23173125
30
0
0
VERTEX
8
0
10
67.601028125
20
41.0643125
30
0
0
VERTEX
8
0
10
67.50455625000001
20
40.93153125
30
0
42
0.023022040816714502
0
VERTEX
8
0
10
67.490584375
20
40.9123
30
0
0
VERTEX
8
0
10
67.357696875
20
40.7794125
30
0
0
VERTEX
8
0
10
67.205684375
20
40.668968750000005
30
0
0
VERTEX
8
0
10
67.03826562500001
20
40.583665625
30
0
0
VERTEX
8
0
10
66.85954062500001
20
40.52559375
30
0
0
VERTEX
8
0
10
66.8550625
20
40.524884375
30
0
0
VERTEX
8
0
10
66.855028125
20
40.52488125
30
0
0
VERTEX
8
0
10
66.85499375
20
40.524871875
30
0
0
VERTEX
8
0
10
66.8340125
20
40.521550000000005
30
0
0
SEQEND
0
POLYLINE
66
1
8
16_copper
10
0.0
20
0.0
30
0.0
70
1
0
VERTEX
8
0
10
61.49045625
20
8.995593750000001
30
0
0
VERTEX
8
0
10
61.31173125
20
9.053665625
30
0
0
VERTEX
8
0
10
61.144312500000005
20
9.13896875
30
0
0
VERTEX
8
0
10
60.9923
20
9.2494125
30
0
0
VERTEX
8
0
10
60.859412500000005
20
9.3823
30
0
0
VERTEX
8
0
10
60.748978125
20
9.5343
30
0
0
VERTEX
8
0
10
60.670387500000004
20
9.688546875
30
0
42
0.6401469510655671
0
VERTEX
8
0
10
60.209403125
20
9.670440625000001
30
0
0
VERTEX
8
0
10
60.155918750000005
20
9.54131875
30
0
0
VERTEX
8
0
10
59.848678125000006
20
9.234078125
30
0
0
VERTEX
8
0
10
59.447250000000004
20
9.0678
30
0
0
VERTEX
8
0
10
59.012746875000005
20
9.0678
30
0
0
VERTEX
8
0
10
58.61131875
20
9.234078125
30
0
0
VERTEX
8
0
10
58.304075000000005
20
9.541321875000001
30
0
0
VERTEX
8
0
10
58.1946625
20
9.805468750000001
30
0
42
0.6681830692165643
0
VERTEX
8
0
10
57.72533125
20
9.805468750000001
30
0
0
VERTEX
8
0
10
57.615921875000005
20
9.541321875000001
30
0
0
VERTEX
8
0
10
57.308678125
20
9.234078125
30
0
0
VERTEX
8
0
10
56.907250000000005
20
9.0678
30
0
0
VERTEX
8
0
10
56.472746875000006
20
9.0678
30
0
0
VERTEX
8
0
10
56.07131875
20
9.234078125
30
0
0
VERTEX
8
0
10
55.764078125000005
20
9.54131875
30
0
0
VERTEX
8
0
10
55.71059375
20
9.670440625000001
30
0
42
0.6923818780643116
0
VERTEX
8
0
10
55.23280625
20
9.655565625000001
30
0
0
VERTEX
8
0
10
55.17101875
20
9.5343
30
0
0
VERTEX
8
0
10
55.09925625
20
9.435525
30
0
42
0.0618666023416049
0
VERTEX
8
0
10
55.060584375000005
20
9.3823
30
0
0
VERTEX
8
0
10
54.927696875
20
9.2494125
30
0
0
VERTEX
8
0
10
54.775684375000004
20
9.13896875
30
0
0
VERTEX
8
0
10
54.608265625
20
9.053665625
30
0
0
VERTEX
8
0
10
54.503425
20
9.0196
30
0
42
0.09745227153223855
0
VERTEX
8
0
10
54.4040125
20
8.99155
30
0
0
VERTEX
8
0
10
54.4040125
20
10.159965625
30
0
42
6.459153408567002e-5
0
VERTEX
8
0
10
54.4040125
20
10.160031250000001
30
0
0
VERTEX
8
0
10
54.4040125
20
11.328446875000001
30
0
0
VERTEX
8
0
10
54.429540625
20
11.324403125
30
0
0
VERTEX
8
0
10
54.608265625
20
11.26633125
30
0
0
VERTEX
8
0
10
54.775684375000004
20
11.181028125000001
30
0
0
VERTEX
8
0
10
54.927696875
20
11.070584375000001
30
0
0
VERTEX
8
0
10
55.060584375000005
20
10.937696875
30
0
0
VERTEX
8
0
10
55.171021875
20
10.78569375
30
0
0
VERTEX
8
0
10
55.249609375000006
20
10.631450000000001
30
0
42
0.6401469510655671
0
VERTEX
8
0
10
55.71059375
20
10.64955625
30
0
0
VERTEX
8
0
10
55.764078125000005
20
10.778678125
30
0
0
VERTEX
8
0
10
56.07131875
20
11.085918750000001
30
0
0
VERTEX
8
0
10
56.472746875000006
20
11.252196875000001
30
0
0
VERTEX
8
0
10
56.907250000000005
20
11.252196875000001
30
0
0
VERTEX
8
0
10
57.308678125
20
11.085918750000001
30
0
0
VERTEX
8
0
10
57.615921875000005
20
10.778675
30
0
0
VERTEX
8
0
10
57.72533125
20
10.514528125
30
0
42
0.6681830692165643
0
VERTEX
8
0
10
58.1946625
20
10.514528125
30
0
0
VERTEX
8
0
10
58.304075000000005
20
10.778675
30
0
0
VERTEX
8
0
10
58.61131875
20
11.085918750000001
30
0
0
VERTEX
8
0
10
59.012746875000005
20
11.252196875000001
30
0
0
VERTEX
8
0
10
59.447250000000004
20
11.252196875000001
30
0
0
VERTEX
8
0
10
59.848678125000006
20
11.085918750000001
30
0
0
VERTEX
8
0
10
60.155918750000005
20
10.778678125
30
0
0
VERTEX
8
0
10
60.209403125
20
10.64955625
30
0
42
0.6401469510655671
0
VERTEX
8
0
10
60.670387500000004
20
10.631450000000001
30
0
0
VERTEX
8
0
10
60.748975
20
10.78569375
30
0
0
VERTEX
8
0
10
60.84253125
20
10.9144625
30
0
42
0.027739562712372774
0
VERTEX
8
0
10
60.859412500000005
20
10.937696875
30
0
0
VERTEX
8
0
10
60.9923
20
11.070584375000001
30
0
0
VERTEX
8
0
10
61.144312500000005
20
11.181028125000001
30
0
0
VERTEX
8
0
10
61.31173125
20
11.26633125
30
0
0
VERTEX
8
0
10
61.49045625
20
11.324403125
30
0
0
VERTEX
8
0
10
61.51598125
20
11.328446875000001
30
0
0
VERTEX
8
0
10
61.51598125
20
10.160031250000001
30
0
42
6.458358827051549e-5
0
VERTEX
8
0
10
61.51598125
20
10.159965625
30
0
0
VERTEX
8
0
10
61.51598125
20
8.99155
30
0
0
SEQEND
0
POLYLINE
66
1
8
16_copper
10
0.0
20
0.0
30
0.0
70
1
0
VERTEX
8
0
10
53.870456250000004
20
8.995593750000001
30
0
0
VERTEX
8
0
10
53.691731250000004
20
9.053665625
30
0
0
VERTEX
8
0
10
53.5243125
20
9.13896875
30
0
0
VERTEX
8
0
10
53.3723
20
9.2494125
30
0
0
VERTEX
8
0
10
53.2394125
20
9.3823
30
0
0
VERTEX
8
0
10
53.128978125
20
9.5343
30
0
0
VERTEX
8
0
10
53.0503875
20
9.688546875
30
0
42
0.6401469510655671
0
VERTEX
8
0
10
52.589403125000004
20
9.670440625000001
30
0
0
VERTEX
8
0
10
52.53591875
20
9.54131875
30
0
0
VERTEX
8
0
10
52.228678125
20
9.234078125
30
0
0
VERTEX
8
0
10
51.82725
20
9.0678
30
0
0
VERTEX
8
0
10
51.392746875
20
9.0678
30
0
0
VERTEX
8
0
10
50.991318750000005
20
9.234078125
30
0
0
VERTEX
8
0
10
50.684075
20
9.541321875000001
30
0
0
VERTEX
8
0
10
50.630596875
20
9.670434375000001
30
0
42
0.6924059689827746
0
VERTEX
8
0
10
50.152803125000005
20
9.65555625
30
0
0
VERTEX
8
0
10
50.091028125
20
9.5343125
30
0
0
VERTEX
8
0
10
50.019256250000005
20
9.435525
30
0
42
0.0618666023416049
0
VERTEX
8
0
10
49.980584375
20
9.3823
30
0
0
VERTEX
8
0
10
49.847696875000004
20
9.2494125
30
0
0
VERTEX
8
0
10
49.695684375
20
9.13896875
30
0
0
VERTEX
8
0
10
49.528265625
20
9.053665625
30
0
0
VERTEX
8
0
10
49.423425
20
9.0196
30
0
42
0.09745227153223855
0
VERTEX
8
0
10
49.3240125
20
8.99155
30
0
0
VERTEX
8
0
10
49.3240125
20
10.159965625
30
0
42
6.459153408567002e-5
0
VERTEX
8
0
10
49.3240125
20
10.160031250000001
30
0
0
VERTEX
8
0
10
49.3240125
20
11.328446875000001
30
0
0
VERTEX
8
0
10
49.349540625
20
11.324403125
30
0
0
VERTEX
8
0
10
49.528265625
20
11.26633125
30
0
0
VERTEX
8
0
10
49.695684375
20
11.181028125000001
30
0
0
VERTEX
8
0
10
49.847696875000004
20
11.070584375000001
30
0
0
VERTEX
8
0
10
49.980584375
20
10.937696875
30
0
0
VERTEX
8
0
10
50.091028125
20
10.785684375
30
0
0
VERTEX
8
0
10
50.169615625000006
20
10.631446875
30
0
42
0.6401491312082953
0
VERTEX
8
0
10
50.630596875
20
10.6495625
30
0
0
VERTEX
8
0
10
50.684075
20
10.778675
30
0
0
VERTEX
8
0
10
50.991318750000005
20
11.085918750000001
30
0
0
VERTEX
8
0
10
51.392746875
20
11.252196875000001
30
0
0
VERTEX
8
0
10
51.82725
20
11.252196875000001
30
0
0
VERTEX
8
0
10
52.228678125
20
11.085918750000001
30
0
0
VERTEX
8
0
10
52.53591875
20
10.778678125
30
0
0
VERTEX
8
0
10
52.589403125000004
20
10.64955625
30
0
42
0.6401469510655671
0
VERTEX
8
0
10
53.0503875
20
10.631450000000001
30
0
0
VERTEX
8
0
10
53.128975000000004
20
10.78569375
30
0
0
VERTEX
8
0
10
53.22253125
20
10.9144625
30
0
42
0.027739562712372774
0
VERTEX
8
0
10
53.2394125
20
10.937696875
30
0
0
VERTEX
8
0
10
53.3723
20
11.070584375000001
30
0
0
VERTEX
8
0
10
53.5243125
20
11.181028125000001
30
0
0
VERTEX
8
0
10
53.691731250000004
20
11.26633125
30
0
0
VERTEX
8
0
10
53.870456250000004
20
11.324403125
30
0
0
VERTEX
8
0
10
53.895981250000006
20
11.328446875000001
30
0
0
VERTEX
8
0
10
53.895981250000006
20
10.160031250000001
30
0
42
6.458358827051549e-5
0
VERTEX
8
0
10
53.895981250000006
20
10.159965625
30
0
0
VERTEX
8
0
10
53.895981250000006
20
8.99155
30
0
0
SEQEND
0
POLYLINE
66
1
8
16_copper
10
0.0
20
0.0
30
0.0
70
1
0
VERTEX
8
0
10
83.03903125000001
20
30.749015625000002
30
0
42
0.15910277984731022
0
VERTEX
8
0
10
83.17960625
20
30.82039375
30
0
0
VERTEX
8
0
10
84.17960625
20
31.82039375
30
0
42
0.19891236737965798
0
VERTEX
8
0
10
84.254
20
32
30
0
0
VERTEX
8
0
10
84.254
20
47
30
0
42
0.19891236737965798
0
VERTEX
8
0
10
84.17960625
20
47.17960625
30
0
0
VERTEX
8
0
10
83.47960625
20
47.87960625
30
0
42
0.19891236737965798
0
VERTEX
8
0
10
83.3
20
47.954
30
0
0
VERTEX
8
0
10
82
20
47.954
30
0
42
0.9228431308911045
0
VERTEX
8
0
10
81.959428125
20
47.4492625
30
0
0
VERTEX
8
0
10
82
20
47.446000000000005
30
0
0
VERTEX
8
0
10
83.1947875
20
47.446000000000005
30
0
0
VERTEX
8
0
10
83.74600000000001
20
46.8947875
30
0
0
VERTEX
8
0
10
83.74600000000001
20
32.1052125
30
0
0
VERTEX
8
0
10
82.8439875
20
31.203200000000002
30
0
0
VERTEX
8
0
10
73.08416875
20
31.203200000000002
30
0
0
VERTEX
8
0
10
72.20320000000001
20
32.08416875
30
0
0
VERTEX
8
0
10
72.20320000000001
20
43
30
0
42
0.19891236737965798
0
VERTEX
8
0
10
72.143684375
20
43.143684375
30
0
0
VERTEX
8
0
10
70.913684375
20
44.373684375
30
0
42
0.19891236737965798
0
VERTEX
8
0
10
70.77000000000001
20
44.4332
30
0
0
VERTEX
8
0
10
66.58
20
44.4332
30
0
42
0.9234163001787705
0
VERTEX
8
0
10
66.547790625
20
44.02936875
30
0
0
VERTEX
8
0
10
66.58
20
44.0268
30
0
0
VERTEX
8
0
10
70.68583125
20
44.0268
30
0
0
VERTEX
8
0
10
71.7968
20
42.915831250000004
30
0
0
VERTEX
8
0
10
71.7968
20
32
30
0
42
0.19891236737965798
0
VERTEX
8
0
10
71.85631562500001
20
31.856315625
30
0
0
VERTEX
8
0
10
72.85631562500001
20
30.856315625
30
0
42
0.19891236737965798
0
VERTEX
8
0
10
73
20
30.7968
30
0
0
VERTEX
8
0
10
82.84796875
20
30.7968
30
0
0
VERTEX
8
0
10
82.85030625
20
30.794796875000003
30
0
0
VERTEX
8
0
10
82.884209375
20
30.773928125
30
0
0
VERTEX
8
0
10
82.92095937500001
20
30.7586125
30
0
0
VERTEX
8
0
10
82.95965000000001
20
30.749225000000003
30
0
0
VERTEX
8
0
10
82.99933125
20
30.746000000000002
30
0
0
SEQEND
0
POLYLINE
66
1
8
16_copper
10
0.0
20
0.0
30
0.0
70
1
0
VERTEX
8
0
10
81.83569687500001
20
44.838178125
30
0
42
0.18918278447443876
0
VERTEX
8
0
10
81.9377625
20
44.8822375
30
0
0
VERTEX
8
0
10
82.1077625
20
45.052237500000004
30
0
42
0.9999999999999999
0
VERTEX
8
0
10
81.89223750000001
20
45.2677625
30
0
0
VERTEX
8
0
10
81.766875
20
45.1424
30
0
0
VERTEX
8
0
10
78.073125
20
45.1424
30
0
0
VERTEX
8
0
10
77.1524
20
46.063125
30
0
0
VERTEX
8
0
10
77.1524
20
76
30
0
42
0.19891236737965798
0
VERTEX
8
0
10
77.1077625
20
76.1077625
30
0
0
VERTEX
8
0
10
76.1077625
20
77.1077625
30
0
42
0.19891236737965798
0
VERTEX
8
0
10
76
20
77.1524
30
0
0
VERTEX
8
0
10
61.563125
20
77.1524
30
0
0
VERTEX
8
0
10
61.137800000000006
20
77.577725
30
0
0
VERTEX
8
0
10
61.137800000000006
20
79.9364625
30
0
42
0.10000526611534438
0
VERTEX
8
0
10
61.1524
20
80.00013125000001
30
0
0
VERTEX
8
0
10
61.1524
20
80.5
30
0
42
0.19891236737965798
0
VERTEX
8
0
10
61.1077625
20
80.6077625
30
0
0
VERTEX
8
0
10
60.6077625
20
81.1077625
30
0
42
0.19891236737965798
0
VERTEX
8
0
10
60.5
20
81.1524
30
0
0
VERTEX
8
0
10
58.68
20
81.1524
30
0
42
0.19891236737965798
0
VERTEX
8
0
10
58.5722375
20
81.1077625
30
0
0
VERTEX
8
0
10
57.042237500000006
20
79.5777625
30
0
42
0.9999999999999999
0
VERTEX
8
0
10
57.257762500000005
20
79.3622375
30
0
0
VERTEX
8
0
10
58.743125000000006
20
80.8476
30
0
0
VERTEX
8
0
10
60.436875
20
80.8476
30
0
0
VERTEX
8
0
10
60.8476
20
80.436875
30
0
0
VERTEX
8
0
10
60.8476
20
80.0492
30
0
42
0.10862903269076118
0
VERTEX
8
0
10
60.833000000000006
20
79.98553125000001
30
0
0
VERTEX
8
0
10
60.833000000000006
20
77.5146
30
0
42
0.19891236737965798
0
VERTEX
8
0
10
60.877637500000006
20
77.40683750000001
30
0
0
VERTEX
8
0
10
61.3922375
20
76.89223750000001
30
0
42
0.19891236737965798
0
VERTEX
8
0
10
61.5
20
76.8476
30
0
0
VERTEX
8
0
10
75.936875
20
76.8476
30
0
0
VERTEX
8
0
10
76.8476
20
75.936875
30
0
0
VERTEX
8
0
10
76.8476
20
46
30
0
42
0.19891236737965798
0
VERTEX
8
0
10
76.89223750000001
20
45.8922375
30
0
0
VERTEX
8
0
10
77.9022375
20
44.8822375
30
0
42
0.19891236737965798
0
VERTEX
8
0
10
78.01
20
44.8376
30
0
0
VERTEX
8
0
10
81.83
20
44.8376
30
0
0
SEQEND
0
POLYLINE
66
1
8
16_copper
10
0.0
20
0.0
30
0.0
70
1
0
VERTEX
8
0
10
81.38569687500001
20
41.848178125000004
30
0
42
0.18918278447443876
0
VERTEX
8
0
10
81.4877625
20
41.8922375
30
0
0
VERTEX
8
0
10
82.1077625
20
42.512237500000005
30
0
42
0.9999999999999999
0
VERTEX
8
0
10
81.89223750000001
20
42.727762500000004
30
0
0
VERTEX
8
0
10
81.31687500000001
20
42.1524
30
0
0
VERTEX
8
0
10
77.063125
20
42.1524
30
0
0
VERTEX
8
0
10
76.1524
20
43.063125
30
0
0
VERTEX
8
0
10
76.1524
20
75
30
0
42
0.19891236737965798
0
VERTEX
8
0
10
76.1077625
20
75.1077625
30
0
0
VERTEX
8
0
10
75.1077625
20
76.1077625
30
0
42
0.19891236737965798
0
VERTEX
8
0
10
75
20
76.1524
30
0
0
VERTEX
8
0
10
61.063125
20
76.1524
30
0
0
VERTEX
8
0
10
59.842400000000005
20
77.373125
30
0
0
VERTEX
8
0
10
59.842400000000005
20
79.47
30
0
42
0.9999999999999999
0
VERTEX
8
0
10
59.537600000000005
20
79.47
30
0
0
VERTEX
8
0
10
59.537600000000005
20
77.31
30
0
42
0.19891236737965798
0
VERTEX
8
0
10
59.582237500000005
20
77.20223750000001
30
0
0
VERTEX
8
0
10
60.8922375
20
75.89223750000001
30
0
42
0.19891236737965798
0
VERTEX
8
0
10
61
20
75.8476
30
0
0
VERTEX
8
0
10
74.936875
20
75.8476
30
0
0
VERTEX
8
0
10
75.8476
20
74.936875
30
0
0
VERTEX
8
0
10
75.8476
20
43
30
0
42
0.19891236737965798
0
VERTEX
8
0
10
75.89223750000001
20
42.8922375
30
0
0
VERTEX
8
0
10
76.89223750000001
20
41.8922375
30
0
42
0.19891236737965798
0
VERTEX
8
0
10
77
20
41.8476
30
0
0
VERTEX
8
0
10
81.38000000000001
20
41.8476
30
0
0
SEQEND
0
CIRCLE
8
drills_PTH
10
46.99
20
79.47
30
0
40
0.508
0
CIRCLE
8
drills_PTH
10
49.53
20
79.47
30
0
40
0.508
0
CIRCLE
8
drills_PTH
10
52.07
20
79.47
30
0
40
0.508
0
CIRCLE
8
drills_PTH
10
54.61
20
79.47
30
0
40
0.508
0
CIRCLE
8
drills_PTH
10
57.150000000000006
20
79.47
30
0
40
0.508
0
CIRCLE
8
drills_PTH
10
59.690000000000005
20
79.47
30
0
40
0.508
0
CIRCLE
8
drills_PTH
10
62.230000000000004
20
79.47
30
0
40
0.508
0
CIRCLE
8
drills_PTH
10
64.77
20
79.47
30
0
40
0.508
0
CIRCLE
8
drills_PTH
10
82
20
35
30
0
40
0.508
0
CIRCLE
8
drills_PTH
10
82
20
37.54
30
0
40
0.508
0
CIRCLE
8
drills_PTH
10
82
20
40.080000000000005
30
0
40
0.508
0
CIRCLE
8
drills_PTH
10
82
20
42.620000000000005
30
0
40
0.508
0
CIRCLE
8
drills_PTH
10
82
20
45.160000000000004
30
0
40
0.508
0
CIRCLE
8
drills_PTH
10
82
20
47.7
30
0
40
0.508
0
CIRCLE
8
drills_PTH
10
82
20
50.24
30
0
40
0.508
0
CIRCLE
8
drills_PTH
10
82
20
52.78
30
0
40
0.508
0
CIRCLE
8
drills_PTH
10
82
20
55.32
30
0
40
0.508
0
CIRCLE
8
drills_PTH
10
82
20
57.86
30
0
40
0.508
0
CIRCLE
8
drills_PTH
10
66.58
20
49.31
30
0
40
0.508
0
CIRCLE
8
drills_PTH
10
66.58
20
46.77
30
0
40
0.508
0
CIRCLE
8
drills_PTH
10
66.58
20
44.230000000000004
30
0
40
0.508
0
CIRCLE
8
drills_PTH
10
66.58
20
41.690000000000005
30
0
40
0.508
0
CIRCLE
8
drills_PTH
10
46.53
20
10.16
30
0
40
0.508
0
CIRCLE
8
drills_PTH
10
49.07
20
10.16
30
0
40
0.508
0
CIRCLE
8
drills_PTH
10
51.61
20
10.16
30
0
40
0.508
0
CIRCLE
8
drills_PTH
10
54.150000000000006
20
10.16
30
0
40
0.508
0
CIRCLE
8
drills_PTH
10
56.690000000000005
20
10.16
30
0
40
0.508
0
CIRCLE
8
drills_PTH
10
59.230000000000004
20
10.16
30
0
40
0.508
0
CIRCLE
8
drills_PTH
10
61.77
20
10.16
30
0
40
0.508
0
CIRCLE
8
drills_PTH
10
64.31
20
10.16
30
0
40
0.508
0
ENDSEC
0
EOF