M48
;GenerationSoftware,Autodesk,EAGLE,9.6.1*%
;CreationDate,2020-04-08T19:12:13Z*%
FMAT,2
ICI,OFF
METRIC,TZ,000.000
T1C1.016
%
G90
M71
T1
X55140Y10240
X57680Y10240
X60220Y10240
X62760Y10240
X16680Y83050
X16680Y80510
X16680Y77970
X15520Y11430
X18060Y11430
X20600Y11430
X23140Y11430
X25680Y11430
X28220Y11430
X30760Y11430
X15980Y45460
X18520Y45460
X21060Y45460
X23600Y45460
X26140Y45460
X28680Y45460
X82000Y35000
X82000Y37540
X82000Y40080
X82000Y42620
X82000Y45160
X82000Y47700
X82000Y50240
X82000Y52780
X82000Y55320
X82000Y57860
M30