M48
;GenerationSoftware,Autodesk,EAGLE,9.6.1*%
;CreationDate,2020-04-08T19:26:47Z*%
FMAT,2
ICI,OFF
METRIC,TZ,000.000
T2C0.813
T1C1.016
%
G90
M71
T1
X82000Y57860
X82000Y55320
X82000Y52780
X82000Y50240
X82000Y47700
X82000Y45160
X82000Y42620
X82000Y40080
X35320Y54930
X37860Y54930
X40400Y54930
X42940Y54930
X45480Y54930
X48020Y54930
X50560Y54930
X53100Y54930
X82000Y37540
X82000Y35000
X14901Y48131
X14901Y41629
X10379Y48131
X10379Y41629
T2
X73450Y59120
X73450Y66740
X13700Y25850
X21320Y25850
X21480Y20850
X13860Y20850
X24700Y41020
X27240Y41020
X29780Y41020
X32320Y41020
X34860Y41020
X37400Y41020
X39940Y41020
X42480Y41020
X24370Y29960
X47560Y41020
X50100Y41020
X52640Y41020
X55180Y41020
X57720Y41020
X57720Y48640
X55180Y48640
X52640Y48640
X50100Y48640
X47560Y48640
X45020Y48640
X42480Y48640
X39940Y48640
X37400Y48640
X34860Y48640
X32320Y48640
X29780Y48640
X27240Y48640
X24700Y48640
X42163Y29990
X37337Y29990
X36000Y11000
X38000Y11000
X40000Y11000
X42000Y11000
X21640Y34850
X14020Y34850
X72180Y73120
X74720Y73120
X31670Y32500
X31670Y29960
X32730Y25000
X35270Y25000
X24370Y32500
X45020Y41020
M30