G04 EAGLE Gerber RS-274X export*
G75*
%MOMM*%
%FSLAX34Y34*%
%LPD*%
%INSoldermask Top*%
%IPPOS*%
%AMOC8*
5,1,8,0,0,1.08239X$1,22.5*%
G01*
%ADD10P,1.649562X8X112.500000*%
%ADD11P,1.649562X8X202.500000*%
%ADD12C,1.524000*%
%ADD13C,2.082800*%
%ADD14P,1.649562X8X22.500000*%
%ADD15C,1.828800*%
%ADD16C,2.003200*%
%ADD17P,2.034460X8X22.500000*%


D10*
X243700Y299600D03*
X243700Y325000D03*
D11*
X352700Y250000D03*
X327300Y250000D03*
D10*
X316700Y299600D03*
X316700Y325000D03*
D12*
X747200Y731200D03*
X721800Y731200D03*
D13*
X353200Y549300D03*
X378600Y549300D03*
X404000Y549300D03*
X429400Y549300D03*
X454800Y549300D03*
X480200Y549300D03*
X505600Y549300D03*
X531000Y549300D03*
D14*
X140200Y348500D03*
X216400Y348500D03*
X138600Y208500D03*
X214800Y208500D03*
D11*
X213200Y258500D03*
X137000Y258500D03*
D10*
X734500Y591200D03*
X734500Y667400D03*
D13*
X103794Y416288D03*
X103794Y481312D03*
X149006Y416288D03*
X149006Y481312D03*
D15*
X247000Y410200D03*
X272400Y410200D03*
X297800Y410200D03*
X323200Y410200D03*
X348600Y410200D03*
X374000Y410200D03*
X399400Y410200D03*
X424800Y410200D03*
X450200Y410200D03*
X475600Y410200D03*
X501000Y410200D03*
X526400Y410200D03*
X551800Y410200D03*
X577200Y410200D03*
X577200Y486400D03*
X551800Y486400D03*
X526400Y486400D03*
X501000Y486400D03*
X475600Y486400D03*
X450200Y486400D03*
X424800Y486400D03*
X399400Y486400D03*
X374000Y486400D03*
X348600Y486400D03*
X323200Y486400D03*
X297800Y486400D03*
X272400Y486400D03*
X247000Y486400D03*
D16*
X421630Y299900D03*
X373370Y299900D03*
D17*
X360000Y110000D03*
X380000Y110000D03*
X400000Y110000D03*
X420000Y110000D03*
D13*
X820000Y350000D03*
X820000Y375400D03*
X820000Y400800D03*
X820000Y426200D03*
X820000Y451600D03*
X820000Y477000D03*
X820000Y502400D03*
X820000Y527800D03*
X820000Y553200D03*
X820000Y578600D03*
M02*
