G04 EAGLE Gerber RS-274X export*
G75*
%MOMM*%
%FSLAX34Y34*%
%LPD*%
%INTop Copper*%
%IPPOS*%
%AMOC8*
5,1,8,0,0,1.08239X$1,22.5*%
G01*
%ADD10C,1.651000*%
%ADD11R,1.651000X1.651000*%
%ADD12C,1.879600*%
%ADD13P,1.429621X8X22.500000*%
%ADD14C,1.625600*%
%ADD15C,1.308000*%
%ADD16C,0.508000*%
%ADD17C,0.304800*%


D10*
X431800Y479900D03*
X431800Y505300D03*
X640400Y479900D03*
X640400Y505300D03*
D11*
X253800Y469900D03*
D10*
X228800Y469900D03*
D12*
X711200Y762000D03*
X736600Y762000D03*
X304800Y546100D03*
X381000Y546100D03*
D13*
X533400Y774700D03*
X609600Y774700D03*
D12*
X167894Y627888D03*
X167894Y692912D03*
X213106Y627888D03*
X213106Y692912D03*
D14*
X304800Y622300D03*
X330200Y622300D03*
X355600Y622300D03*
X381000Y622300D03*
X406400Y622300D03*
X431800Y622300D03*
X457200Y622300D03*
X482600Y622300D03*
X508000Y622300D03*
X533400Y622300D03*
X558800Y622300D03*
X584200Y622300D03*
X609600Y622300D03*
X635000Y622300D03*
X635000Y698500D03*
X609600Y698500D03*
X584200Y698500D03*
X558800Y698500D03*
X533400Y698500D03*
X508000Y698500D03*
X482600Y698500D03*
X457200Y698500D03*
X431800Y698500D03*
X406400Y698500D03*
X381000Y698500D03*
X355600Y698500D03*
X330200Y698500D03*
X304800Y698500D03*
D15*
X359900Y131300D03*
X379900Y131300D03*
X399900Y131300D03*
X419900Y131300D03*
X439900Y131300D03*
X459900Y131300D03*
X479900Y131300D03*
X499900Y131300D03*
X519900Y131300D03*
X539900Y131300D03*
X539900Y351300D03*
X519900Y351300D03*
X499900Y351300D03*
X479900Y351300D03*
X459900Y351300D03*
X439900Y351300D03*
X419900Y351300D03*
X399900Y351300D03*
X379900Y351300D03*
X359900Y351300D03*
D10*
X510700Y479900D03*
X561500Y479900D03*
D12*
X820000Y350000D03*
X820000Y375400D03*
X820000Y400800D03*
X820000Y426200D03*
X820000Y451600D03*
X820000Y477000D03*
X820000Y502400D03*
X820000Y527800D03*
X820000Y553200D03*
X820000Y578600D03*
D16*
X369900Y469900D02*
X253800Y469900D01*
X590000Y540000D02*
X590000Y570000D01*
X381000Y481000D02*
X369900Y469900D01*
X381000Y481000D02*
X381000Y546100D01*
X590000Y540000D02*
X602200Y527800D01*
X820000Y527800D01*
X577500Y582500D02*
X467500Y582500D01*
X457200Y592800D01*
X457200Y622300D01*
X577500Y582500D02*
X590000Y570000D01*
X640400Y505300D02*
X659700Y505300D01*
X667500Y497500D01*
X667500Y145000D01*
X653800Y131300D02*
X539900Y131300D01*
X653800Y131300D02*
X667500Y145000D01*
X482600Y622300D02*
X482600Y654900D01*
X457200Y680300D02*
X457200Y698500D01*
X457200Y680300D02*
X482600Y654900D01*
D17*
X689200Y400800D02*
X820000Y400800D01*
X680000Y410000D02*
X680000Y505000D01*
X665000Y520000D01*
X422500Y520000D01*
X406400Y536100D01*
X406400Y622300D01*
X680000Y410000D02*
X689200Y400800D01*
M02*
