G04 EAGLE Gerber RS-274X export*
G75*
%MOMM*%
%FSLAX34Y34*%
%LPD*%
%INBottom Copper*%
%IPPOS*%
%AMOC8*
5,1,8,0,0,1.08239X$1,22.5*%
G01*
%ADD10C,1.651000*%
%ADD11R,1.651000X1.651000*%
%ADD12C,1.879600*%
%ADD13P,1.429621X8X22.500000*%
%ADD14C,1.625600*%
%ADD15C,1.308000*%
%ADD16C,0.304800*%
%ADD17C,0.508000*%

G36*
X870098Y81243D02*
X870098Y81243D01*
X870197Y81246D01*
X870255Y81263D01*
X870316Y81271D01*
X870408Y81307D01*
X870503Y81335D01*
X870555Y81365D01*
X870611Y81388D01*
X870691Y81446D01*
X870777Y81496D01*
X870852Y81562D01*
X870869Y81574D01*
X870876Y81584D01*
X870898Y81603D01*
X873398Y84103D01*
X873458Y84181D01*
X873526Y84253D01*
X873555Y84306D01*
X873592Y84354D01*
X873632Y84445D01*
X873680Y84531D01*
X873695Y84590D01*
X873719Y84646D01*
X873734Y84744D01*
X873759Y84839D01*
X873765Y84939D01*
X873769Y84960D01*
X873767Y84972D01*
X873769Y85000D01*
X873769Y136554D01*
X873768Y136564D01*
X873769Y136573D01*
X873748Y136721D01*
X873739Y136792D01*
X873739Y764904D01*
X873757Y764966D01*
X873757Y764976D01*
X873759Y764985D01*
X873769Y765146D01*
X873769Y827500D01*
X873754Y827618D01*
X873747Y827737D01*
X873734Y827775D01*
X873729Y827816D01*
X873686Y827926D01*
X873649Y828039D01*
X873627Y828074D01*
X873612Y828111D01*
X873543Y828207D01*
X873479Y828308D01*
X873449Y828336D01*
X873426Y828369D01*
X873334Y828445D01*
X873247Y828526D01*
X873212Y828546D01*
X873181Y828571D01*
X873073Y828622D01*
X872969Y828680D01*
X872929Y828690D01*
X872893Y828707D01*
X872776Y828729D01*
X872661Y828759D01*
X872601Y828763D01*
X872581Y828767D01*
X872560Y828765D01*
X872500Y828769D01*
X137500Y828769D01*
X137402Y828757D01*
X137303Y828754D01*
X137245Y828737D01*
X137184Y828729D01*
X137092Y828693D01*
X136997Y828665D01*
X136945Y828635D01*
X136889Y828612D01*
X136809Y828554D01*
X136723Y828504D01*
X136648Y828438D01*
X136631Y828426D01*
X136624Y828416D01*
X136603Y828398D01*
X129474Y821269D01*
X127500Y821269D01*
X127382Y821254D01*
X127263Y821247D01*
X127225Y821234D01*
X127184Y821229D01*
X127074Y821186D01*
X126961Y821149D01*
X126926Y821127D01*
X126889Y821112D01*
X126793Y821043D01*
X126692Y820979D01*
X126664Y820949D01*
X126631Y820926D01*
X126556Y820834D01*
X126474Y820747D01*
X126454Y820712D01*
X126429Y820681D01*
X126378Y820573D01*
X126320Y820469D01*
X126310Y820429D01*
X126293Y820393D01*
X126271Y820276D01*
X126241Y820161D01*
X126237Y820101D01*
X126233Y820081D01*
X126235Y820060D01*
X126231Y820000D01*
X126231Y82500D01*
X126246Y82382D01*
X126253Y82263D01*
X126266Y82225D01*
X126271Y82184D01*
X126314Y82074D01*
X126351Y81961D01*
X126373Y81926D01*
X126388Y81889D01*
X126458Y81793D01*
X126521Y81692D01*
X126551Y81664D01*
X126574Y81631D01*
X126666Y81556D01*
X126753Y81474D01*
X126788Y81454D01*
X126819Y81429D01*
X126927Y81378D01*
X127031Y81320D01*
X127071Y81310D01*
X127107Y81293D01*
X127224Y81271D01*
X127339Y81241D01*
X127400Y81237D01*
X127420Y81233D01*
X127440Y81235D01*
X127500Y81231D01*
X870000Y81231D01*
X870098Y81243D01*
G37*
%LPC*%
G36*
X389482Y91363D02*
X389482Y91363D01*
X386308Y92678D01*
X360694Y118292D01*
X360616Y118352D01*
X360544Y118420D01*
X360491Y118449D01*
X360443Y118486D01*
X360352Y118526D01*
X360265Y118574D01*
X360207Y118589D01*
X360151Y118613D01*
X360053Y118628D01*
X359957Y118653D01*
X359857Y118659D01*
X359837Y118663D01*
X359825Y118661D01*
X359797Y118663D01*
X357386Y118663D01*
X352742Y120587D01*
X349187Y124142D01*
X347263Y128786D01*
X347263Y133814D01*
X349187Y138458D01*
X352742Y142013D01*
X354995Y142946D01*
X355038Y142971D01*
X355085Y142987D01*
X355176Y143049D01*
X355271Y143104D01*
X355307Y143138D01*
X355348Y143166D01*
X355421Y143249D01*
X355499Y143325D01*
X355525Y143367D01*
X355558Y143405D01*
X355608Y143502D01*
X355666Y143596D01*
X355680Y143643D01*
X355703Y143688D01*
X355727Y143795D01*
X355759Y143900D01*
X355762Y143950D01*
X355772Y143998D01*
X355769Y144108D01*
X355774Y144218D01*
X355764Y144266D01*
X355763Y144316D01*
X355732Y144421D01*
X355710Y144529D01*
X355688Y144574D01*
X355674Y144621D01*
X355619Y144716D01*
X355570Y144815D01*
X355538Y144853D01*
X355513Y144895D01*
X355406Y145016D01*
X323739Y176683D01*
X322579Y179484D01*
X322579Y542152D01*
X322571Y542222D01*
X322572Y542291D01*
X322551Y542379D01*
X322539Y542468D01*
X322514Y542533D01*
X322497Y542601D01*
X322455Y542680D01*
X322422Y542764D01*
X322381Y542820D01*
X322349Y542882D01*
X322288Y542948D01*
X322236Y543021D01*
X322182Y543065D01*
X322135Y543117D01*
X322060Y543166D01*
X321991Y543224D01*
X321927Y543253D01*
X321869Y543292D01*
X321784Y543321D01*
X321703Y543359D01*
X321634Y543372D01*
X321568Y543395D01*
X321479Y543402D01*
X321391Y543419D01*
X321321Y543415D01*
X321251Y543420D01*
X321163Y543405D01*
X321073Y543399D01*
X321007Y543378D01*
X320938Y543366D01*
X320856Y543329D01*
X320771Y543301D01*
X320712Y543264D01*
X320648Y543235D01*
X320578Y543179D01*
X320502Y543131D01*
X320454Y543080D01*
X320400Y543037D01*
X320345Y542965D01*
X320284Y542899D01*
X320250Y542838D01*
X320208Y542783D01*
X320137Y542638D01*
X317936Y537323D01*
X313577Y532964D01*
X307882Y530605D01*
X301718Y530605D01*
X296023Y532964D01*
X291664Y537323D01*
X289305Y543018D01*
X289305Y549182D01*
X291664Y554877D01*
X296023Y559236D01*
X296396Y559390D01*
X296421Y559405D01*
X296449Y559414D01*
X296559Y559483D01*
X296672Y559548D01*
X296693Y559568D01*
X296718Y559584D01*
X296807Y559679D01*
X296900Y559769D01*
X296916Y559794D01*
X296936Y559816D01*
X296999Y559930D01*
X297067Y560040D01*
X297075Y560068D01*
X297090Y560094D01*
X297122Y560220D01*
X297160Y560344D01*
X297162Y560374D01*
X297169Y560402D01*
X297179Y560563D01*
X297179Y609278D01*
X297167Y609376D01*
X297164Y609475D01*
X297147Y609534D01*
X297139Y609594D01*
X297103Y609686D01*
X297075Y609781D01*
X297045Y609833D01*
X297022Y609889D01*
X296964Y609969D01*
X296914Y610055D01*
X296848Y610130D01*
X296836Y610147D01*
X296826Y610155D01*
X296808Y610176D01*
X292676Y614308D01*
X292597Y614368D01*
X292525Y614436D01*
X292472Y614465D01*
X292424Y614502D01*
X292333Y614542D01*
X292247Y614590D01*
X292188Y614605D01*
X292133Y614629D01*
X292035Y614644D01*
X291939Y614669D01*
X291839Y614675D01*
X291818Y614679D01*
X291806Y614677D01*
X291778Y614679D01*
X221959Y614679D01*
X221950Y614678D01*
X221941Y614679D01*
X221792Y614658D01*
X221644Y614639D01*
X221635Y614636D01*
X221626Y614635D01*
X221474Y614583D01*
X216188Y612393D01*
X210024Y612393D01*
X204329Y614752D01*
X199970Y619111D01*
X197611Y624806D01*
X197611Y630970D01*
X199970Y636665D01*
X204329Y641024D01*
X210024Y643383D01*
X216188Y643383D01*
X221883Y641024D01*
X226242Y636665D01*
X228645Y630863D01*
X228684Y630764D01*
X228721Y630651D01*
X228743Y630616D01*
X228758Y630579D01*
X228827Y630483D01*
X228891Y630382D01*
X228921Y630354D01*
X228944Y630321D01*
X229036Y630245D01*
X229123Y630164D01*
X229158Y630144D01*
X229189Y630119D01*
X229297Y630068D01*
X229401Y630010D01*
X229441Y630000D01*
X229477Y629983D01*
X229594Y629961D01*
X229709Y629931D01*
X229769Y629927D01*
X229789Y629923D01*
X229810Y629925D01*
X229870Y629921D01*
X288738Y629921D01*
X288875Y629938D01*
X289014Y629951D01*
X289033Y629958D01*
X289053Y629961D01*
X289182Y630012D01*
X289313Y630059D01*
X289330Y630070D01*
X289349Y630078D01*
X289461Y630159D01*
X289576Y630237D01*
X289590Y630253D01*
X289606Y630264D01*
X289695Y630372D01*
X289787Y630476D01*
X289796Y630494D01*
X289809Y630509D01*
X289868Y630635D01*
X289932Y630759D01*
X289936Y630779D01*
X289945Y630797D01*
X289971Y630933D01*
X290001Y631069D01*
X290001Y631090D01*
X290004Y631109D01*
X289996Y631248D01*
X289992Y631387D01*
X289986Y631407D01*
X289985Y631427D01*
X289942Y631559D01*
X289903Y631693D01*
X289893Y631710D01*
X289887Y631729D01*
X289812Y631847D01*
X289742Y631967D01*
X289723Y631988D01*
X289716Y631998D01*
X289701Y632012D01*
X289635Y632087D01*
X283539Y638183D01*
X282379Y640984D01*
X282379Y711516D01*
X283539Y714317D01*
X290683Y721461D01*
X293484Y722621D01*
X339016Y722621D01*
X341817Y721461D01*
X348961Y714317D01*
X349596Y712783D01*
X349655Y712680D01*
X349707Y712573D01*
X349733Y712542D01*
X349753Y712507D01*
X349836Y712422D01*
X349913Y712331D01*
X349946Y712308D01*
X349974Y712279D01*
X350076Y712217D01*
X350173Y712148D01*
X350211Y712134D01*
X350246Y712113D01*
X350359Y712078D01*
X350471Y712035D01*
X350511Y712031D01*
X350550Y712019D01*
X350668Y712013D01*
X350787Y712000D01*
X350827Y712006D01*
X350867Y712004D01*
X350984Y712028D01*
X351102Y712045D01*
X351159Y712064D01*
X351179Y712068D01*
X351197Y712077D01*
X351254Y712097D01*
X352770Y712725D01*
X358430Y712725D01*
X363658Y710559D01*
X367403Y706814D01*
X367497Y706741D01*
X367586Y706663D01*
X367622Y706644D01*
X367654Y706619D01*
X367763Y706572D01*
X367869Y706518D01*
X367908Y706509D01*
X367946Y706493D01*
X368063Y706474D01*
X368179Y706448D01*
X368220Y706450D01*
X368260Y706443D01*
X368378Y706454D01*
X368497Y706458D01*
X368536Y706469D01*
X368576Y706473D01*
X368689Y706513D01*
X368803Y706546D01*
X368838Y706567D01*
X368876Y706581D01*
X368974Y706648D01*
X369077Y706708D01*
X369122Y706748D01*
X369139Y706759D01*
X369152Y706774D01*
X369198Y706814D01*
X372942Y710559D01*
X378170Y712725D01*
X383830Y712725D01*
X389058Y710559D01*
X392803Y706814D01*
X392897Y706741D01*
X392986Y706663D01*
X393022Y706644D01*
X393054Y706619D01*
X393163Y706572D01*
X393269Y706518D01*
X393308Y706509D01*
X393346Y706493D01*
X393463Y706474D01*
X393579Y706448D01*
X393620Y706450D01*
X393660Y706443D01*
X393778Y706454D01*
X393897Y706458D01*
X393936Y706469D01*
X393976Y706473D01*
X394089Y706513D01*
X394203Y706546D01*
X394238Y706567D01*
X394276Y706581D01*
X394374Y706648D01*
X394477Y706708D01*
X394522Y706748D01*
X394539Y706759D01*
X394552Y706774D01*
X394598Y706814D01*
X398342Y710559D01*
X403570Y712725D01*
X409230Y712725D01*
X414458Y710559D01*
X418203Y706814D01*
X418297Y706741D01*
X418386Y706663D01*
X418422Y706644D01*
X418454Y706619D01*
X418563Y706572D01*
X418669Y706518D01*
X418708Y706509D01*
X418746Y706493D01*
X418863Y706474D01*
X418979Y706448D01*
X419020Y706450D01*
X419060Y706443D01*
X419178Y706454D01*
X419297Y706458D01*
X419336Y706469D01*
X419376Y706473D01*
X419489Y706513D01*
X419603Y706546D01*
X419638Y706567D01*
X419676Y706581D01*
X419774Y706648D01*
X419877Y706708D01*
X419922Y706748D01*
X419939Y706759D01*
X419952Y706774D01*
X419998Y706814D01*
X423742Y710559D01*
X428970Y712725D01*
X434630Y712725D01*
X439858Y710559D01*
X443859Y706558D01*
X445260Y703177D01*
X445304Y703099D01*
X445339Y703017D01*
X445382Y702962D01*
X445417Y702901D01*
X445479Y702836D01*
X445534Y702766D01*
X445590Y702723D01*
X445638Y702672D01*
X445715Y702625D01*
X445785Y702570D01*
X445850Y702543D01*
X445909Y702506D01*
X445995Y702480D01*
X446077Y702444D01*
X446146Y702433D01*
X446213Y702412D01*
X446303Y702408D01*
X446391Y702394D01*
X446461Y702401D01*
X446531Y702397D01*
X446619Y702415D01*
X446708Y702424D01*
X446774Y702447D01*
X446843Y702461D01*
X446923Y702501D01*
X447007Y702531D01*
X447065Y702570D01*
X447128Y702601D01*
X447196Y702659D01*
X447270Y702710D01*
X447317Y702762D01*
X447370Y702808D01*
X447422Y702881D01*
X447481Y702948D01*
X447545Y703055D01*
X447553Y703068D01*
X447556Y703074D01*
X447563Y703086D01*
X448075Y704092D01*
X449062Y705450D01*
X450250Y706638D01*
X451608Y707625D01*
X453105Y708387D01*
X454702Y708906D01*
X455169Y708980D01*
X455169Y699262D01*
X455184Y699144D01*
X455191Y699025D01*
X455203Y698987D01*
X455209Y698947D01*
X455252Y698836D01*
X455289Y698723D01*
X455311Y698689D01*
X455326Y698651D01*
X455395Y698555D01*
X455428Y698503D01*
X455412Y698485D01*
X455392Y698450D01*
X455367Y698418D01*
X455316Y698311D01*
X455258Y698206D01*
X455248Y698167D01*
X455231Y698131D01*
X455209Y698014D01*
X455179Y697898D01*
X455175Y697838D01*
X455171Y697818D01*
X455173Y697798D01*
X455169Y697738D01*
X455169Y688020D01*
X454702Y688094D01*
X453105Y688613D01*
X451608Y689375D01*
X450250Y690362D01*
X449062Y691550D01*
X448075Y692908D01*
X447563Y693914D01*
X447513Y693988D01*
X447471Y694067D01*
X447424Y694119D01*
X447384Y694177D01*
X447317Y694236D01*
X447257Y694302D01*
X447198Y694341D01*
X447146Y694387D01*
X447066Y694428D01*
X446991Y694477D01*
X446925Y694500D01*
X446862Y694531D01*
X446775Y694551D01*
X446690Y694580D01*
X446620Y694586D01*
X446552Y694601D01*
X446463Y694598D01*
X446373Y694605D01*
X446304Y694593D01*
X446234Y694591D01*
X446148Y694566D01*
X446060Y694551D01*
X445996Y694522D01*
X445929Y694503D01*
X445852Y694457D01*
X445770Y694420D01*
X445715Y694377D01*
X445655Y694341D01*
X445592Y694278D01*
X445522Y694222D01*
X445479Y694166D01*
X445430Y694116D01*
X445384Y694039D01*
X445330Y693968D01*
X445275Y693855D01*
X445268Y693843D01*
X445266Y693836D01*
X445260Y693823D01*
X443859Y690442D01*
X439858Y686441D01*
X434630Y684275D01*
X428878Y684275D01*
X428780Y684263D01*
X428681Y684260D01*
X428623Y684243D01*
X428563Y684235D01*
X428471Y684199D01*
X428376Y684171D01*
X428323Y684141D01*
X428267Y684118D01*
X428187Y684060D01*
X428102Y684010D01*
X428026Y683944D01*
X428010Y683932D01*
X428002Y683922D01*
X427981Y683904D01*
X422439Y678362D01*
X420117Y676039D01*
X417316Y674879D01*
X345984Y674879D01*
X343183Y676039D01*
X340861Y678362D01*
X339987Y679235D01*
X339878Y679320D01*
X339771Y679409D01*
X339752Y679418D01*
X339736Y679430D01*
X339608Y679486D01*
X339483Y679545D01*
X339463Y679548D01*
X339444Y679556D01*
X339306Y679578D01*
X339170Y679604D01*
X339150Y679603D01*
X339130Y679606D01*
X338991Y679593D01*
X338853Y679585D01*
X338834Y679578D01*
X338814Y679577D01*
X338682Y679529D01*
X338551Y679487D01*
X338533Y679476D01*
X338514Y679469D01*
X338399Y679391D01*
X338282Y679316D01*
X338268Y679302D01*
X338251Y679290D01*
X338159Y679186D01*
X338064Y679085D01*
X338054Y679067D01*
X338041Y679052D01*
X337977Y678928D01*
X337910Y678806D01*
X337905Y678787D01*
X337896Y678769D01*
X337866Y678633D01*
X337831Y678498D01*
X337829Y678470D01*
X337826Y678458D01*
X337827Y678438D01*
X337821Y678338D01*
X337821Y663482D01*
X337833Y663384D01*
X337836Y663285D01*
X337853Y663227D01*
X337861Y663167D01*
X337897Y663075D01*
X337925Y662980D01*
X337955Y662927D01*
X337978Y662871D01*
X338036Y662791D01*
X338086Y662706D01*
X338152Y662630D01*
X338164Y662614D01*
X338174Y662606D01*
X338192Y662585D01*
X342785Y657992D01*
X342863Y657932D01*
X342935Y657864D01*
X342988Y657835D01*
X343036Y657798D01*
X343127Y657758D01*
X343214Y657710D01*
X343272Y657695D01*
X343328Y657671D01*
X343426Y657656D01*
X343522Y657631D01*
X343622Y657625D01*
X343642Y657621D01*
X343654Y657623D01*
X343682Y657621D01*
X498538Y657621D01*
X498675Y657638D01*
X498814Y657651D01*
X498833Y657658D01*
X498853Y657661D01*
X498982Y657712D01*
X499113Y657759D01*
X499130Y657770D01*
X499149Y657778D01*
X499261Y657859D01*
X499376Y657937D01*
X499390Y657953D01*
X499406Y657964D01*
X499495Y658072D01*
X499587Y658176D01*
X499596Y658194D01*
X499609Y658209D01*
X499668Y658335D01*
X499732Y658459D01*
X499736Y658479D01*
X499745Y658497D01*
X499771Y658633D01*
X499801Y658769D01*
X499801Y658790D01*
X499804Y658809D01*
X499796Y658948D01*
X499792Y659087D01*
X499786Y659107D01*
X499785Y659127D01*
X499742Y659259D01*
X499703Y659393D01*
X499693Y659410D01*
X499687Y659429D01*
X499612Y659547D01*
X499542Y659667D01*
X499523Y659688D01*
X499516Y659698D01*
X499502Y659712D01*
X499435Y659787D01*
X478462Y680761D01*
X476139Y683083D01*
X474991Y685855D01*
X474987Y685863D01*
X474984Y685872D01*
X474908Y686001D01*
X474834Y686132D01*
X474827Y686138D01*
X474822Y686146D01*
X474716Y686267D01*
X470541Y690442D01*
X469140Y693823D01*
X469096Y693901D01*
X469061Y693983D01*
X469018Y694038D01*
X468983Y694099D01*
X468921Y694164D01*
X468866Y694234D01*
X468810Y694277D01*
X468762Y694328D01*
X468685Y694375D01*
X468615Y694430D01*
X468550Y694457D01*
X468491Y694494D01*
X468405Y694520D01*
X468323Y694556D01*
X468254Y694567D01*
X468187Y694588D01*
X468097Y694592D01*
X468009Y694606D01*
X467939Y694599D01*
X467869Y694603D01*
X467781Y694585D01*
X467692Y694576D01*
X467626Y694553D01*
X467557Y694539D01*
X467477Y694499D01*
X467393Y694469D01*
X467335Y694430D01*
X467272Y694399D01*
X467204Y694341D01*
X467130Y694290D01*
X467083Y694238D01*
X467030Y694192D01*
X466978Y694119D01*
X466919Y694052D01*
X466855Y693945D01*
X466847Y693932D01*
X466844Y693926D01*
X466837Y693914D01*
X466325Y692908D01*
X465338Y691550D01*
X464150Y690362D01*
X462792Y689375D01*
X461295Y688613D01*
X459698Y688094D01*
X459231Y688020D01*
X459231Y697738D01*
X459216Y697856D01*
X459209Y697975D01*
X459196Y698013D01*
X459191Y698053D01*
X459148Y698164D01*
X459111Y698277D01*
X459089Y698311D01*
X459074Y698349D01*
X459005Y698445D01*
X458971Y698497D01*
X458988Y698515D01*
X459008Y698550D01*
X459033Y698582D01*
X459084Y698689D01*
X459142Y698794D01*
X459152Y698833D01*
X459169Y698869D01*
X459191Y698986D01*
X459221Y699102D01*
X459225Y699162D01*
X459229Y699182D01*
X459227Y699202D01*
X459231Y699262D01*
X459231Y708980D01*
X459698Y708906D01*
X461295Y708387D01*
X462792Y707625D01*
X464150Y706638D01*
X465338Y705450D01*
X466325Y704092D01*
X466837Y703086D01*
X466887Y703012D01*
X466929Y702933D01*
X466976Y702881D01*
X467016Y702823D01*
X467083Y702764D01*
X467143Y702698D01*
X467202Y702659D01*
X467254Y702613D01*
X467334Y702572D01*
X467409Y702523D01*
X467475Y702500D01*
X467538Y702469D01*
X467625Y702449D01*
X467710Y702420D01*
X467780Y702414D01*
X467848Y702399D01*
X467937Y702402D01*
X468027Y702395D01*
X468096Y702407D01*
X468166Y702409D01*
X468252Y702434D01*
X468340Y702449D01*
X468404Y702478D01*
X468471Y702497D01*
X468548Y702543D01*
X468630Y702580D01*
X468685Y702623D01*
X468745Y702659D01*
X468808Y702722D01*
X468878Y702778D01*
X468921Y702834D01*
X468970Y702884D01*
X469016Y702961D01*
X469070Y703032D01*
X469125Y703145D01*
X469132Y703157D01*
X469134Y703164D01*
X469140Y703177D01*
X470541Y706558D01*
X474542Y710559D01*
X479770Y712725D01*
X485430Y712725D01*
X490658Y710559D01*
X494403Y706814D01*
X494497Y706741D01*
X494586Y706663D01*
X494622Y706644D01*
X494654Y706619D01*
X494763Y706572D01*
X494869Y706518D01*
X494908Y706509D01*
X494946Y706493D01*
X495063Y706474D01*
X495179Y706448D01*
X495220Y706450D01*
X495260Y706443D01*
X495378Y706454D01*
X495497Y706458D01*
X495536Y706469D01*
X495576Y706473D01*
X495688Y706513D01*
X495803Y706546D01*
X495838Y706567D01*
X495876Y706581D01*
X495974Y706648D01*
X496077Y706708D01*
X496122Y706748D01*
X496139Y706759D01*
X496152Y706774D01*
X496198Y706814D01*
X498992Y709608D01*
X499052Y709687D01*
X499120Y709759D01*
X499149Y709812D01*
X499186Y709860D01*
X499226Y709951D01*
X499274Y710037D01*
X499289Y710096D01*
X499313Y710151D01*
X499328Y710249D01*
X499353Y710345D01*
X499359Y710445D01*
X499363Y710466D01*
X499361Y710478D01*
X499363Y710506D01*
X499363Y789718D01*
X500678Y792892D01*
X525108Y817322D01*
X528282Y818637D01*
X781718Y818637D01*
X784892Y817322D01*
X847322Y754892D01*
X848637Y751718D01*
X848637Y538282D01*
X847322Y535108D01*
X835300Y523086D01*
X834657Y522443D01*
X834651Y522435D01*
X834644Y522430D01*
X834554Y522310D01*
X834462Y522191D01*
X834458Y522183D01*
X834453Y522175D01*
X834382Y522031D01*
X833136Y519023D01*
X828777Y514664D01*
X827466Y514121D01*
X827337Y514048D01*
X827206Y513976D01*
X827199Y513969D01*
X827190Y513964D01*
X827083Y513861D01*
X826974Y513758D01*
X826969Y513749D01*
X826962Y513742D01*
X826884Y513617D01*
X826804Y513490D01*
X826801Y513480D01*
X826795Y513471D01*
X826752Y513330D01*
X826705Y513187D01*
X826705Y513177D01*
X826702Y513167D01*
X826695Y513018D01*
X826685Y512870D01*
X826687Y512860D01*
X826686Y512850D01*
X826717Y512703D01*
X826744Y512558D01*
X826749Y512548D01*
X826751Y512538D01*
X826816Y512404D01*
X826879Y512270D01*
X826886Y512262D01*
X826891Y512253D01*
X826987Y512139D01*
X827082Y512024D01*
X827093Y512016D01*
X827097Y512011D01*
X827109Y512002D01*
X827206Y511922D01*
X827778Y511506D01*
X829106Y510178D01*
X830211Y508657D01*
X831064Y506983D01*
X831645Y505196D01*
X831685Y504939D01*
X821270Y504939D01*
X821152Y504924D01*
X821033Y504917D01*
X820995Y504904D01*
X820955Y504899D01*
X820844Y504856D01*
X820731Y504819D01*
X820697Y504797D01*
X820659Y504782D01*
X820563Y504712D01*
X820462Y504649D01*
X820434Y504619D01*
X820402Y504595D01*
X820326Y504504D01*
X820244Y504417D01*
X820225Y504382D01*
X820199Y504351D01*
X820148Y504243D01*
X820091Y504139D01*
X820080Y504099D01*
X820063Y504063D01*
X820041Y503946D01*
X820011Y503831D01*
X820007Y503770D01*
X820003Y503750D01*
X820005Y503730D01*
X820001Y503670D01*
X820001Y501130D01*
X820016Y501012D01*
X820023Y500893D01*
X820036Y500855D01*
X820041Y500814D01*
X820085Y500704D01*
X820121Y500591D01*
X820143Y500556D01*
X820158Y500519D01*
X820228Y500423D01*
X820291Y500322D01*
X820321Y500294D01*
X820345Y500261D01*
X820436Y500186D01*
X820523Y500104D01*
X820558Y500084D01*
X820590Y500059D01*
X820697Y500008D01*
X820802Y499950D01*
X820841Y499940D01*
X820877Y499923D01*
X820994Y499901D01*
X821109Y499871D01*
X821170Y499867D01*
X821190Y499863D01*
X821210Y499865D01*
X821270Y499861D01*
X831685Y499861D01*
X831645Y499604D01*
X831064Y497817D01*
X830211Y496143D01*
X829106Y494622D01*
X827778Y493294D01*
X827206Y492878D01*
X827098Y492777D01*
X826987Y492676D01*
X826981Y492668D01*
X826974Y492661D01*
X826894Y492535D01*
X826812Y492411D01*
X826809Y492401D01*
X826804Y492392D01*
X826758Y492251D01*
X826709Y492110D01*
X826708Y492099D01*
X826705Y492090D01*
X826696Y491941D01*
X826684Y491793D01*
X826686Y491783D01*
X826685Y491772D01*
X826713Y491625D01*
X826738Y491479D01*
X826743Y491470D01*
X826745Y491460D01*
X826808Y491325D01*
X826869Y491189D01*
X826875Y491181D01*
X826880Y491172D01*
X826974Y491058D01*
X827068Y490941D01*
X827076Y490935D01*
X827082Y490927D01*
X827202Y490839D01*
X827322Y490750D01*
X827334Y490744D01*
X827339Y490740D01*
X827353Y490734D01*
X827466Y490679D01*
X828777Y490136D01*
X832904Y486008D01*
X832983Y485948D01*
X833055Y485880D01*
X833108Y485851D01*
X833156Y485814D01*
X833247Y485774D01*
X833333Y485726D01*
X833392Y485711D01*
X833448Y485687D01*
X833545Y485672D01*
X833641Y485647D01*
X833741Y485641D01*
X833762Y485637D01*
X833774Y485639D01*
X833802Y485637D01*
X854718Y485637D01*
X857892Y484322D01*
X860500Y481714D01*
X867322Y474892D01*
X868637Y471718D01*
X868637Y138282D01*
X867322Y135108D01*
X824892Y92678D01*
X821718Y91363D01*
X389482Y91363D01*
G37*
%LPD*%
G36*
X815995Y108649D02*
X815995Y108649D01*
X816094Y108652D01*
X816152Y108669D01*
X816212Y108677D01*
X816304Y108713D01*
X816400Y108741D01*
X816452Y108771D01*
X816508Y108794D01*
X816588Y108852D01*
X816673Y108902D01*
X816749Y108968D01*
X816765Y108980D01*
X816773Y108990D01*
X816794Y109008D01*
X850992Y143206D01*
X851052Y143284D01*
X851120Y143356D01*
X851149Y143409D01*
X851186Y143457D01*
X851226Y143548D01*
X851274Y143635D01*
X851289Y143693D01*
X851313Y143749D01*
X851328Y143847D01*
X851353Y143943D01*
X851359Y144043D01*
X851363Y144063D01*
X851361Y144075D01*
X851363Y144103D01*
X851363Y307522D01*
X851346Y307659D01*
X851333Y307798D01*
X851326Y307817D01*
X851323Y307837D01*
X851272Y307966D01*
X851225Y308097D01*
X851214Y308114D01*
X851206Y308133D01*
X851125Y308245D01*
X851047Y308360D01*
X851031Y308374D01*
X851020Y308390D01*
X850912Y308479D01*
X850808Y308571D01*
X850790Y308580D01*
X850775Y308593D01*
X850649Y308652D01*
X850525Y308716D01*
X850505Y308720D01*
X850487Y308729D01*
X850351Y308755D01*
X850215Y308785D01*
X850194Y308785D01*
X850175Y308788D01*
X850036Y308780D01*
X849897Y308776D01*
X849877Y308770D01*
X849857Y308769D01*
X849725Y308726D01*
X849591Y308687D01*
X849574Y308677D01*
X849555Y308671D01*
X849437Y308596D01*
X849317Y308526D01*
X849296Y308507D01*
X849286Y308500D01*
X849272Y308485D01*
X849197Y308419D01*
X834317Y293539D01*
X831516Y292379D01*
X748484Y292379D01*
X745683Y293539D01*
X723539Y315683D01*
X722379Y318484D01*
X722379Y366318D01*
X722367Y366416D01*
X722364Y366515D01*
X722347Y366573D01*
X722339Y366633D01*
X722303Y366725D01*
X722275Y366820D01*
X722245Y366873D01*
X722222Y366929D01*
X722164Y367009D01*
X722114Y367094D01*
X722048Y367170D01*
X722036Y367186D01*
X722026Y367194D01*
X722008Y367215D01*
X717215Y372008D01*
X717137Y372068D01*
X717065Y372136D01*
X717012Y372165D01*
X716964Y372202D01*
X716873Y372242D01*
X716786Y372290D01*
X716728Y372305D01*
X716672Y372329D01*
X716574Y372344D01*
X716478Y372369D01*
X716378Y372375D01*
X716358Y372379D01*
X716346Y372377D01*
X716318Y372379D01*
X358484Y372379D01*
X355683Y373539D01*
X353361Y375862D01*
X349787Y379435D01*
X349678Y379520D01*
X349571Y379609D01*
X349552Y379618D01*
X349536Y379630D01*
X349408Y379686D01*
X349283Y379745D01*
X349263Y379748D01*
X349244Y379756D01*
X349106Y379778D01*
X348970Y379804D01*
X348950Y379803D01*
X348930Y379806D01*
X348791Y379793D01*
X348653Y379785D01*
X348634Y379778D01*
X348614Y379777D01*
X348482Y379729D01*
X348351Y379687D01*
X348333Y379676D01*
X348314Y379669D01*
X348199Y379591D01*
X348082Y379516D01*
X348068Y379502D01*
X348051Y379490D01*
X347959Y379386D01*
X347864Y379285D01*
X347854Y379267D01*
X347841Y379252D01*
X347777Y379128D01*
X347710Y379006D01*
X347705Y378987D01*
X347696Y378969D01*
X347666Y378833D01*
X347631Y378698D01*
X347629Y378670D01*
X347626Y378658D01*
X347627Y378638D01*
X347621Y378538D01*
X347621Y359956D01*
X347638Y359819D01*
X347651Y359680D01*
X347658Y359660D01*
X347661Y359640D01*
X347712Y359512D01*
X347759Y359380D01*
X347770Y359364D01*
X347778Y359345D01*
X347859Y359232D01*
X347937Y359117D01*
X347953Y359104D01*
X347964Y359087D01*
X348072Y358999D01*
X348176Y358907D01*
X348194Y358898D01*
X348209Y358885D01*
X348335Y358825D01*
X348459Y358762D01*
X348479Y358758D01*
X348497Y358749D01*
X348633Y358723D01*
X348769Y358692D01*
X348790Y358693D01*
X348809Y358689D01*
X348948Y358698D01*
X349087Y358702D01*
X349107Y358708D01*
X349127Y358709D01*
X349259Y358752D01*
X349393Y358791D01*
X349410Y358801D01*
X349429Y358807D01*
X349547Y358882D01*
X349667Y358952D01*
X349688Y358971D01*
X349698Y358977D01*
X349712Y358992D01*
X349787Y359058D01*
X352742Y362013D01*
X357386Y363937D01*
X362414Y363937D01*
X367058Y362013D01*
X369003Y360069D01*
X369097Y359995D01*
X369186Y359917D01*
X369222Y359898D01*
X369254Y359874D01*
X369363Y359826D01*
X369469Y359772D01*
X369508Y359763D01*
X369546Y359747D01*
X369663Y359729D01*
X369779Y359703D01*
X369820Y359704D01*
X369860Y359697D01*
X369978Y359709D01*
X370097Y359712D01*
X370136Y359723D01*
X370176Y359727D01*
X370288Y359768D01*
X370403Y359801D01*
X370438Y359821D01*
X370476Y359835D01*
X370574Y359902D01*
X370677Y359962D01*
X370722Y360002D01*
X370739Y360013D01*
X370752Y360029D01*
X370798Y360069D01*
X372742Y362013D01*
X377386Y363937D01*
X382414Y363937D01*
X387058Y362013D01*
X389003Y360069D01*
X389097Y359995D01*
X389186Y359917D01*
X389222Y359898D01*
X389254Y359874D01*
X389363Y359826D01*
X389469Y359772D01*
X389508Y359763D01*
X389546Y359747D01*
X389663Y359729D01*
X389779Y359703D01*
X389820Y359704D01*
X389860Y359697D01*
X389978Y359709D01*
X390097Y359712D01*
X390136Y359723D01*
X390176Y359727D01*
X390288Y359768D01*
X390403Y359801D01*
X390438Y359821D01*
X390476Y359835D01*
X390574Y359902D01*
X390677Y359962D01*
X390722Y360002D01*
X390739Y360013D01*
X390752Y360029D01*
X390798Y360069D01*
X392742Y362013D01*
X397386Y363937D01*
X402414Y363937D01*
X407058Y362013D01*
X409003Y360069D01*
X409097Y359995D01*
X409186Y359917D01*
X409222Y359898D01*
X409254Y359874D01*
X409363Y359826D01*
X409469Y359772D01*
X409508Y359763D01*
X409546Y359747D01*
X409663Y359729D01*
X409779Y359703D01*
X409820Y359704D01*
X409860Y359697D01*
X409978Y359709D01*
X410097Y359712D01*
X410136Y359723D01*
X410176Y359727D01*
X410288Y359768D01*
X410403Y359801D01*
X410438Y359821D01*
X410476Y359835D01*
X410574Y359902D01*
X410677Y359962D01*
X410722Y360002D01*
X410739Y360013D01*
X410752Y360029D01*
X410798Y360069D01*
X412742Y362013D01*
X417386Y363937D01*
X422414Y363937D01*
X427058Y362013D01*
X429003Y360069D01*
X429097Y359995D01*
X429186Y359917D01*
X429222Y359898D01*
X429254Y359874D01*
X429363Y359826D01*
X429469Y359772D01*
X429508Y359763D01*
X429546Y359747D01*
X429663Y359729D01*
X429779Y359703D01*
X429820Y359704D01*
X429860Y359697D01*
X429978Y359709D01*
X430097Y359712D01*
X430136Y359723D01*
X430176Y359727D01*
X430288Y359768D01*
X430403Y359801D01*
X430438Y359821D01*
X430476Y359835D01*
X430574Y359902D01*
X430677Y359962D01*
X430722Y360002D01*
X430739Y360013D01*
X430752Y360029D01*
X430798Y360069D01*
X432742Y362013D01*
X437386Y363937D01*
X442414Y363937D01*
X447058Y362013D01*
X449003Y360069D01*
X449097Y359995D01*
X449186Y359917D01*
X449222Y359898D01*
X449254Y359874D01*
X449363Y359826D01*
X449469Y359772D01*
X449508Y359763D01*
X449546Y359747D01*
X449663Y359729D01*
X449779Y359703D01*
X449820Y359704D01*
X449860Y359697D01*
X449978Y359709D01*
X450097Y359712D01*
X450136Y359723D01*
X450176Y359727D01*
X450288Y359768D01*
X450403Y359801D01*
X450438Y359821D01*
X450476Y359835D01*
X450574Y359902D01*
X450677Y359962D01*
X450722Y360002D01*
X450739Y360013D01*
X450752Y360029D01*
X450798Y360069D01*
X452742Y362013D01*
X457386Y363937D01*
X462414Y363937D01*
X467058Y362013D01*
X469003Y360069D01*
X469097Y359995D01*
X469186Y359917D01*
X469222Y359898D01*
X469254Y359874D01*
X469363Y359826D01*
X469469Y359772D01*
X469508Y359763D01*
X469546Y359747D01*
X469663Y359729D01*
X469779Y359703D01*
X469820Y359704D01*
X469860Y359697D01*
X469978Y359709D01*
X470097Y359712D01*
X470136Y359723D01*
X470176Y359727D01*
X470288Y359768D01*
X470403Y359801D01*
X470438Y359821D01*
X470476Y359835D01*
X470574Y359902D01*
X470677Y359962D01*
X470722Y360002D01*
X470739Y360013D01*
X470752Y360029D01*
X470798Y360069D01*
X472742Y362013D01*
X477386Y363937D01*
X482414Y363937D01*
X487058Y362013D01*
X489003Y360069D01*
X489097Y359995D01*
X489186Y359917D01*
X489222Y359898D01*
X489254Y359874D01*
X489363Y359826D01*
X489469Y359772D01*
X489508Y359763D01*
X489546Y359747D01*
X489663Y359729D01*
X489779Y359703D01*
X489820Y359704D01*
X489860Y359697D01*
X489978Y359709D01*
X490097Y359712D01*
X490136Y359723D01*
X490176Y359727D01*
X490288Y359768D01*
X490403Y359801D01*
X490438Y359821D01*
X490476Y359835D01*
X490574Y359902D01*
X490677Y359962D01*
X490722Y360002D01*
X490739Y360013D01*
X490752Y360029D01*
X490798Y360069D01*
X492742Y362013D01*
X497386Y363937D01*
X502414Y363937D01*
X507058Y362013D01*
X509003Y360069D01*
X509097Y359995D01*
X509186Y359917D01*
X509222Y359898D01*
X509254Y359874D01*
X509363Y359826D01*
X509469Y359772D01*
X509508Y359763D01*
X509546Y359747D01*
X509663Y359729D01*
X509779Y359703D01*
X509820Y359704D01*
X509860Y359697D01*
X509978Y359709D01*
X510097Y359712D01*
X510136Y359723D01*
X510176Y359727D01*
X510288Y359768D01*
X510403Y359801D01*
X510438Y359821D01*
X510476Y359835D01*
X510574Y359902D01*
X510677Y359962D01*
X510722Y360002D01*
X510739Y360013D01*
X510752Y360029D01*
X510798Y360069D01*
X512742Y362013D01*
X517386Y363937D01*
X522414Y363937D01*
X527058Y362013D01*
X529003Y360069D01*
X529097Y359995D01*
X529186Y359917D01*
X529222Y359898D01*
X529254Y359874D01*
X529363Y359826D01*
X529469Y359772D01*
X529508Y359763D01*
X529546Y359747D01*
X529663Y359729D01*
X529779Y359703D01*
X529820Y359704D01*
X529860Y359697D01*
X529978Y359709D01*
X530097Y359712D01*
X530136Y359723D01*
X530176Y359727D01*
X530288Y359768D01*
X530403Y359801D01*
X530438Y359821D01*
X530476Y359835D01*
X530574Y359902D01*
X530677Y359962D01*
X530722Y360002D01*
X530739Y360013D01*
X530752Y360029D01*
X530798Y360069D01*
X532742Y362013D01*
X537386Y363937D01*
X542414Y363937D01*
X547058Y362013D01*
X550613Y358458D01*
X552537Y353814D01*
X552537Y348786D01*
X550613Y344142D01*
X547058Y340587D01*
X542414Y338663D01*
X537386Y338663D01*
X532742Y340587D01*
X530798Y342531D01*
X530703Y342605D01*
X530614Y342683D01*
X530578Y342702D01*
X530546Y342726D01*
X530437Y342774D01*
X530331Y342828D01*
X530292Y342837D01*
X530254Y342853D01*
X530137Y342871D01*
X530021Y342897D01*
X529980Y342896D01*
X529940Y342903D01*
X529822Y342891D01*
X529703Y342888D01*
X529664Y342877D01*
X529624Y342873D01*
X529511Y342832D01*
X529397Y342799D01*
X529363Y342779D01*
X529324Y342765D01*
X529226Y342698D01*
X529123Y342638D01*
X529078Y342598D01*
X529061Y342587D01*
X529048Y342571D01*
X529003Y342531D01*
X527058Y340587D01*
X522414Y338663D01*
X517386Y338663D01*
X512742Y340587D01*
X510798Y342531D01*
X510703Y342605D01*
X510614Y342683D01*
X510578Y342702D01*
X510546Y342726D01*
X510437Y342774D01*
X510331Y342828D01*
X510292Y342837D01*
X510254Y342853D01*
X510137Y342871D01*
X510021Y342897D01*
X509980Y342896D01*
X509940Y342903D01*
X509822Y342891D01*
X509703Y342888D01*
X509664Y342877D01*
X509624Y342873D01*
X509511Y342832D01*
X509397Y342799D01*
X509363Y342779D01*
X509324Y342765D01*
X509226Y342698D01*
X509123Y342638D01*
X509078Y342598D01*
X509061Y342587D01*
X509048Y342571D01*
X509003Y342531D01*
X507058Y340587D01*
X502414Y338663D01*
X497386Y338663D01*
X492742Y340587D01*
X490798Y342531D01*
X490703Y342605D01*
X490614Y342683D01*
X490578Y342702D01*
X490546Y342726D01*
X490437Y342774D01*
X490331Y342828D01*
X490292Y342837D01*
X490254Y342853D01*
X490137Y342871D01*
X490021Y342897D01*
X489980Y342896D01*
X489940Y342903D01*
X489822Y342891D01*
X489703Y342888D01*
X489664Y342877D01*
X489624Y342873D01*
X489511Y342832D01*
X489397Y342799D01*
X489363Y342779D01*
X489324Y342765D01*
X489226Y342698D01*
X489123Y342638D01*
X489078Y342598D01*
X489061Y342587D01*
X489048Y342571D01*
X489003Y342531D01*
X487058Y340587D01*
X482414Y338663D01*
X477386Y338663D01*
X472742Y340587D01*
X470798Y342531D01*
X470703Y342605D01*
X470614Y342683D01*
X470578Y342702D01*
X470546Y342726D01*
X470437Y342774D01*
X470331Y342828D01*
X470292Y342837D01*
X470254Y342853D01*
X470137Y342871D01*
X470021Y342897D01*
X469980Y342896D01*
X469940Y342903D01*
X469822Y342891D01*
X469703Y342888D01*
X469664Y342877D01*
X469624Y342873D01*
X469511Y342832D01*
X469397Y342799D01*
X469363Y342779D01*
X469324Y342765D01*
X469226Y342698D01*
X469123Y342638D01*
X469078Y342598D01*
X469061Y342587D01*
X469048Y342571D01*
X469003Y342531D01*
X467058Y340587D01*
X462414Y338663D01*
X457386Y338663D01*
X452742Y340587D01*
X450798Y342531D01*
X450703Y342605D01*
X450614Y342683D01*
X450578Y342702D01*
X450546Y342726D01*
X450437Y342774D01*
X450331Y342828D01*
X450292Y342837D01*
X450254Y342853D01*
X450137Y342871D01*
X450021Y342897D01*
X449980Y342896D01*
X449940Y342903D01*
X449822Y342891D01*
X449703Y342888D01*
X449664Y342877D01*
X449624Y342873D01*
X449511Y342832D01*
X449397Y342799D01*
X449363Y342779D01*
X449324Y342765D01*
X449226Y342698D01*
X449123Y342638D01*
X449078Y342598D01*
X449061Y342587D01*
X449048Y342571D01*
X449003Y342531D01*
X447058Y340587D01*
X442414Y338663D01*
X437386Y338663D01*
X432742Y340587D01*
X430798Y342531D01*
X430703Y342605D01*
X430614Y342683D01*
X430578Y342702D01*
X430546Y342726D01*
X430437Y342774D01*
X430331Y342828D01*
X430292Y342837D01*
X430254Y342853D01*
X430137Y342871D01*
X430021Y342897D01*
X429980Y342896D01*
X429940Y342903D01*
X429822Y342891D01*
X429703Y342888D01*
X429664Y342877D01*
X429624Y342873D01*
X429511Y342832D01*
X429397Y342799D01*
X429363Y342779D01*
X429324Y342765D01*
X429226Y342698D01*
X429123Y342638D01*
X429078Y342598D01*
X429061Y342587D01*
X429048Y342571D01*
X429003Y342531D01*
X427058Y340587D01*
X422414Y338663D01*
X417386Y338663D01*
X412742Y340587D01*
X410798Y342531D01*
X410703Y342605D01*
X410614Y342683D01*
X410578Y342702D01*
X410546Y342726D01*
X410437Y342774D01*
X410331Y342828D01*
X410292Y342837D01*
X410254Y342853D01*
X410137Y342871D01*
X410021Y342897D01*
X409980Y342896D01*
X409940Y342903D01*
X409822Y342891D01*
X409703Y342888D01*
X409664Y342877D01*
X409624Y342873D01*
X409511Y342832D01*
X409397Y342799D01*
X409363Y342779D01*
X409324Y342765D01*
X409226Y342698D01*
X409123Y342638D01*
X409078Y342598D01*
X409061Y342587D01*
X409048Y342571D01*
X409003Y342531D01*
X407058Y340587D01*
X402414Y338663D01*
X397386Y338663D01*
X392742Y340587D01*
X390798Y342531D01*
X390703Y342605D01*
X390614Y342683D01*
X390578Y342702D01*
X390546Y342726D01*
X390437Y342774D01*
X390331Y342828D01*
X390292Y342837D01*
X390254Y342853D01*
X390137Y342871D01*
X390021Y342897D01*
X389980Y342896D01*
X389940Y342903D01*
X389822Y342891D01*
X389703Y342888D01*
X389664Y342877D01*
X389624Y342873D01*
X389511Y342832D01*
X389397Y342799D01*
X389363Y342779D01*
X389324Y342765D01*
X389226Y342698D01*
X389123Y342638D01*
X389078Y342598D01*
X389061Y342587D01*
X389048Y342571D01*
X389003Y342531D01*
X387058Y340587D01*
X382414Y338663D01*
X377386Y338663D01*
X372742Y340587D01*
X370798Y342531D01*
X370703Y342605D01*
X370614Y342683D01*
X370578Y342702D01*
X370546Y342726D01*
X370437Y342774D01*
X370331Y342828D01*
X370292Y342837D01*
X370254Y342853D01*
X370137Y342871D01*
X370021Y342897D01*
X369980Y342896D01*
X369940Y342903D01*
X369822Y342891D01*
X369703Y342888D01*
X369664Y342877D01*
X369624Y342873D01*
X369511Y342832D01*
X369397Y342799D01*
X369363Y342779D01*
X369324Y342765D01*
X369226Y342698D01*
X369123Y342638D01*
X369078Y342598D01*
X369061Y342587D01*
X369048Y342571D01*
X369003Y342531D01*
X367058Y340587D01*
X362414Y338663D01*
X357386Y338663D01*
X352742Y340587D01*
X349787Y343542D01*
X349678Y343627D01*
X349571Y343715D01*
X349552Y343724D01*
X349536Y343736D01*
X349408Y343792D01*
X349283Y343851D01*
X349263Y343855D01*
X349244Y343863D01*
X349106Y343885D01*
X348970Y343911D01*
X348950Y343909D01*
X348930Y343913D01*
X348791Y343900D01*
X348653Y343891D01*
X348634Y343885D01*
X348614Y343883D01*
X348482Y343836D01*
X348351Y343793D01*
X348333Y343782D01*
X348314Y343775D01*
X348199Y343697D01*
X348082Y343623D01*
X348068Y343608D01*
X348051Y343597D01*
X347959Y343492D01*
X347864Y343391D01*
X347854Y343373D01*
X347841Y343358D01*
X347777Y343234D01*
X347710Y343113D01*
X347705Y343093D01*
X347696Y343075D01*
X347666Y342939D01*
X347631Y342805D01*
X347629Y342777D01*
X347626Y342765D01*
X347627Y342744D01*
X347621Y342644D01*
X347621Y194882D01*
X347633Y194784D01*
X347636Y194685D01*
X347653Y194627D01*
X347661Y194567D01*
X347697Y194475D01*
X347725Y194380D01*
X347755Y194327D01*
X347778Y194271D01*
X347836Y194191D01*
X347886Y194106D01*
X347952Y194030D01*
X347964Y194014D01*
X347974Y194006D01*
X347992Y193985D01*
X397669Y144308D01*
X397747Y144248D01*
X397819Y144180D01*
X397872Y144151D01*
X397920Y144114D01*
X398011Y144074D01*
X398098Y144026D01*
X398156Y144011D01*
X398212Y143987D01*
X398310Y143972D01*
X398406Y143947D01*
X398506Y143941D01*
X398526Y143937D01*
X398538Y143939D01*
X398566Y143937D01*
X402414Y143937D01*
X407058Y142013D01*
X409002Y140069D01*
X409097Y139995D01*
X409186Y139917D01*
X409222Y139898D01*
X409254Y139874D01*
X409363Y139826D01*
X409469Y139772D01*
X409508Y139763D01*
X409546Y139747D01*
X409663Y139729D01*
X409779Y139703D01*
X409820Y139704D01*
X409860Y139697D01*
X409978Y139709D01*
X410097Y139712D01*
X410136Y139723D01*
X410176Y139727D01*
X410289Y139768D01*
X410403Y139801D01*
X410437Y139821D01*
X410476Y139835D01*
X410574Y139902D01*
X410677Y139962D01*
X410722Y140002D01*
X410739Y140013D01*
X410752Y140029D01*
X410797Y140069D01*
X412742Y142013D01*
X417386Y143937D01*
X422414Y143937D01*
X427058Y142013D01*
X429002Y140069D01*
X429097Y139995D01*
X429186Y139917D01*
X429222Y139898D01*
X429254Y139874D01*
X429363Y139826D01*
X429469Y139772D01*
X429508Y139763D01*
X429546Y139747D01*
X429663Y139729D01*
X429779Y139703D01*
X429820Y139704D01*
X429860Y139697D01*
X429978Y139709D01*
X430097Y139712D01*
X430136Y139723D01*
X430176Y139727D01*
X430289Y139768D01*
X430403Y139801D01*
X430437Y139821D01*
X430476Y139835D01*
X430574Y139902D01*
X430677Y139962D01*
X430722Y140002D01*
X430739Y140013D01*
X430752Y140029D01*
X430797Y140069D01*
X432742Y142013D01*
X437386Y143937D01*
X442414Y143937D01*
X447058Y142013D01*
X449003Y140069D01*
X449097Y139995D01*
X449186Y139917D01*
X449222Y139898D01*
X449254Y139874D01*
X449363Y139826D01*
X449469Y139772D01*
X449508Y139763D01*
X449546Y139747D01*
X449663Y139729D01*
X449779Y139703D01*
X449820Y139704D01*
X449860Y139697D01*
X449978Y139709D01*
X450097Y139712D01*
X450136Y139723D01*
X450176Y139727D01*
X450288Y139768D01*
X450403Y139801D01*
X450438Y139821D01*
X450476Y139835D01*
X450574Y139902D01*
X450677Y139962D01*
X450722Y140002D01*
X450739Y140013D01*
X450752Y140029D01*
X450798Y140069D01*
X452742Y142013D01*
X457386Y143937D01*
X462414Y143937D01*
X467058Y142013D01*
X469002Y140069D01*
X469097Y139995D01*
X469186Y139917D01*
X469222Y139898D01*
X469254Y139874D01*
X469363Y139826D01*
X469469Y139772D01*
X469508Y139763D01*
X469546Y139747D01*
X469663Y139729D01*
X469779Y139703D01*
X469820Y139704D01*
X469860Y139697D01*
X469978Y139709D01*
X470097Y139712D01*
X470136Y139723D01*
X470176Y139727D01*
X470289Y139768D01*
X470403Y139801D01*
X470437Y139821D01*
X470476Y139835D01*
X470574Y139902D01*
X470677Y139962D01*
X470722Y140002D01*
X470739Y140013D01*
X470752Y140029D01*
X470797Y140069D01*
X472742Y142013D01*
X477386Y143937D01*
X482414Y143937D01*
X487058Y142013D01*
X489002Y140069D01*
X489097Y139995D01*
X489186Y139917D01*
X489222Y139898D01*
X489254Y139874D01*
X489363Y139826D01*
X489469Y139772D01*
X489508Y139763D01*
X489546Y139747D01*
X489663Y139729D01*
X489779Y139703D01*
X489820Y139704D01*
X489860Y139697D01*
X489978Y139709D01*
X490097Y139712D01*
X490136Y139723D01*
X490176Y139727D01*
X490289Y139768D01*
X490403Y139801D01*
X490437Y139821D01*
X490476Y139835D01*
X490574Y139902D01*
X490677Y139962D01*
X490722Y140002D01*
X490739Y140013D01*
X490752Y140029D01*
X490797Y140069D01*
X492742Y142013D01*
X497386Y143937D01*
X502414Y143937D01*
X507058Y142013D01*
X509002Y140069D01*
X509097Y139995D01*
X509186Y139917D01*
X509222Y139898D01*
X509254Y139874D01*
X509363Y139826D01*
X509469Y139772D01*
X509508Y139763D01*
X509546Y139747D01*
X509663Y139729D01*
X509779Y139703D01*
X509820Y139704D01*
X509860Y139697D01*
X509978Y139709D01*
X510097Y139712D01*
X510136Y139723D01*
X510176Y139727D01*
X510289Y139768D01*
X510403Y139801D01*
X510437Y139821D01*
X510476Y139835D01*
X510574Y139902D01*
X510677Y139962D01*
X510722Y140002D01*
X510739Y140013D01*
X510752Y140029D01*
X510797Y140069D01*
X512742Y142013D01*
X517386Y143937D01*
X522414Y143937D01*
X527058Y142013D01*
X530613Y138458D01*
X530941Y137665D01*
X530966Y137622D01*
X530983Y137575D01*
X531045Y137484D01*
X531099Y137389D01*
X531133Y137353D01*
X531161Y137312D01*
X531244Y137239D01*
X531320Y137161D01*
X531362Y137135D01*
X531400Y137102D01*
X531497Y137052D01*
X531591Y136994D01*
X531639Y136980D01*
X531683Y136957D01*
X531790Y136933D01*
X531895Y136901D01*
X531945Y136898D01*
X531993Y136887D01*
X532103Y136891D01*
X532213Y136886D01*
X532261Y136896D01*
X532311Y136897D01*
X532417Y136928D01*
X532524Y136950D01*
X532569Y136972D01*
X532617Y136986D01*
X532711Y137041D01*
X532810Y137090D01*
X532848Y137122D01*
X532891Y137147D01*
X533011Y137254D01*
X533984Y138226D01*
X535141Y139067D01*
X536414Y139715D01*
X537774Y140157D01*
X537901Y140177D01*
X537901Y132030D01*
X537916Y131912D01*
X537923Y131793D01*
X537935Y131755D01*
X537941Y131715D01*
X537984Y131604D01*
X538021Y131491D01*
X538043Y131457D01*
X538058Y131419D01*
X538127Y131323D01*
X538138Y131306D01*
X538124Y131282D01*
X538099Y131250D01*
X538048Y131143D01*
X537990Y131038D01*
X537980Y130999D01*
X537963Y130963D01*
X537941Y130846D01*
X537911Y130730D01*
X537907Y130670D01*
X537903Y130650D01*
X537905Y130630D01*
X537901Y130570D01*
X537901Y122423D01*
X537774Y122443D01*
X536414Y122885D01*
X535141Y123533D01*
X533984Y124374D01*
X533011Y125346D01*
X532972Y125377D01*
X532939Y125414D01*
X532847Y125474D01*
X532760Y125541D01*
X532715Y125561D01*
X532673Y125588D01*
X532569Y125624D01*
X532468Y125668D01*
X532419Y125676D01*
X532372Y125692D01*
X532263Y125700D01*
X532154Y125718D01*
X532105Y125713D01*
X532055Y125717D01*
X531947Y125698D01*
X531838Y125688D01*
X531791Y125671D01*
X531742Y125663D01*
X531642Y125617D01*
X531538Y125580D01*
X531497Y125552D01*
X531452Y125532D01*
X531366Y125463D01*
X531275Y125402D01*
X531242Y125364D01*
X531203Y125333D01*
X531137Y125246D01*
X531065Y125163D01*
X531042Y125119D01*
X531012Y125079D01*
X530941Y124935D01*
X530613Y124142D01*
X527058Y120587D01*
X522414Y118663D01*
X517386Y118663D01*
X512742Y120587D01*
X510797Y122531D01*
X510703Y122605D01*
X510614Y122683D01*
X510578Y122702D01*
X510546Y122726D01*
X510437Y122774D01*
X510331Y122828D01*
X510292Y122837D01*
X510254Y122853D01*
X510137Y122871D01*
X510021Y122897D01*
X509980Y122896D01*
X509940Y122903D01*
X509822Y122891D01*
X509703Y122888D01*
X509664Y122877D01*
X509624Y122873D01*
X509512Y122832D01*
X509397Y122799D01*
X509362Y122779D01*
X509324Y122765D01*
X509226Y122698D01*
X509123Y122638D01*
X509078Y122598D01*
X509061Y122587D01*
X509048Y122571D01*
X509002Y122531D01*
X507058Y120587D01*
X502414Y118663D01*
X497386Y118663D01*
X492742Y120587D01*
X490797Y122531D01*
X490703Y122605D01*
X490614Y122683D01*
X490578Y122702D01*
X490546Y122726D01*
X490437Y122774D01*
X490331Y122828D01*
X490292Y122837D01*
X490254Y122853D01*
X490137Y122871D01*
X490021Y122897D01*
X489980Y122896D01*
X489940Y122903D01*
X489822Y122891D01*
X489703Y122888D01*
X489664Y122877D01*
X489624Y122873D01*
X489512Y122832D01*
X489397Y122799D01*
X489362Y122779D01*
X489324Y122765D01*
X489226Y122698D01*
X489123Y122638D01*
X489078Y122598D01*
X489061Y122587D01*
X489048Y122571D01*
X489002Y122531D01*
X487058Y120587D01*
X482414Y118663D01*
X477386Y118663D01*
X472742Y120587D01*
X470797Y122531D01*
X470703Y122605D01*
X470614Y122683D01*
X470578Y122702D01*
X470546Y122726D01*
X470437Y122774D01*
X470331Y122828D01*
X470292Y122837D01*
X470254Y122853D01*
X470137Y122871D01*
X470021Y122897D01*
X469980Y122896D01*
X469940Y122903D01*
X469822Y122891D01*
X469703Y122888D01*
X469664Y122877D01*
X469624Y122873D01*
X469512Y122832D01*
X469397Y122799D01*
X469362Y122779D01*
X469324Y122765D01*
X469226Y122698D01*
X469123Y122638D01*
X469078Y122598D01*
X469061Y122587D01*
X469048Y122571D01*
X469002Y122531D01*
X467058Y120587D01*
X462414Y118663D01*
X457386Y118663D01*
X452742Y120587D01*
X450798Y122531D01*
X450703Y122605D01*
X450614Y122683D01*
X450578Y122702D01*
X450546Y122726D01*
X450437Y122774D01*
X450331Y122828D01*
X450292Y122837D01*
X450254Y122853D01*
X450137Y122871D01*
X450021Y122897D01*
X449980Y122896D01*
X449940Y122903D01*
X449822Y122891D01*
X449703Y122888D01*
X449664Y122877D01*
X449624Y122873D01*
X449511Y122832D01*
X449397Y122799D01*
X449363Y122779D01*
X449324Y122765D01*
X449226Y122698D01*
X449123Y122638D01*
X449078Y122598D01*
X449061Y122587D01*
X449048Y122571D01*
X449003Y122531D01*
X447058Y120587D01*
X442414Y118663D01*
X437386Y118663D01*
X432742Y120587D01*
X430797Y122531D01*
X430703Y122605D01*
X430614Y122683D01*
X430578Y122702D01*
X430546Y122726D01*
X430437Y122774D01*
X430331Y122828D01*
X430292Y122837D01*
X430254Y122853D01*
X430137Y122871D01*
X430021Y122897D01*
X429980Y122896D01*
X429940Y122903D01*
X429822Y122891D01*
X429703Y122888D01*
X429664Y122877D01*
X429624Y122873D01*
X429512Y122832D01*
X429397Y122799D01*
X429362Y122779D01*
X429324Y122765D01*
X429226Y122698D01*
X429123Y122638D01*
X429078Y122598D01*
X429061Y122587D01*
X429048Y122571D01*
X429002Y122531D01*
X427058Y120587D01*
X422414Y118663D01*
X417386Y118663D01*
X412742Y120587D01*
X410797Y122531D01*
X410703Y122605D01*
X410614Y122683D01*
X410578Y122702D01*
X410546Y122726D01*
X410437Y122774D01*
X410331Y122828D01*
X410292Y122837D01*
X410254Y122853D01*
X410137Y122871D01*
X410021Y122897D01*
X409980Y122896D01*
X409940Y122903D01*
X409822Y122891D01*
X409703Y122888D01*
X409664Y122877D01*
X409624Y122873D01*
X409512Y122832D01*
X409397Y122799D01*
X409362Y122779D01*
X409324Y122765D01*
X409226Y122698D01*
X409123Y122638D01*
X409078Y122598D01*
X409061Y122587D01*
X409048Y122571D01*
X409002Y122531D01*
X407058Y120587D01*
X402414Y118663D01*
X397386Y118663D01*
X392742Y120587D01*
X390797Y122531D01*
X390703Y122605D01*
X390614Y122683D01*
X390578Y122702D01*
X390546Y122726D01*
X390437Y122774D01*
X390331Y122828D01*
X390292Y122837D01*
X390254Y122853D01*
X390137Y122871D01*
X390021Y122897D01*
X389980Y122896D01*
X389940Y122903D01*
X389822Y122891D01*
X389703Y122888D01*
X389664Y122877D01*
X389624Y122873D01*
X389512Y122832D01*
X389397Y122799D01*
X389362Y122779D01*
X389324Y122765D01*
X389226Y122698D01*
X389123Y122638D01*
X389078Y122598D01*
X389061Y122587D01*
X389048Y122571D01*
X389002Y122531D01*
X387058Y120587D01*
X385821Y120075D01*
X385778Y120050D01*
X385731Y120033D01*
X385640Y119972D01*
X385545Y119917D01*
X385509Y119883D01*
X385468Y119855D01*
X385395Y119772D01*
X385317Y119696D01*
X385291Y119654D01*
X385258Y119616D01*
X385208Y119519D01*
X385150Y119425D01*
X385136Y119377D01*
X385113Y119333D01*
X385089Y119226D01*
X385057Y119121D01*
X385054Y119071D01*
X385044Y119023D01*
X385047Y118913D01*
X385042Y118803D01*
X385052Y118755D01*
X385053Y118705D01*
X385084Y118599D01*
X385106Y118492D01*
X385128Y118447D01*
X385142Y118399D01*
X385197Y118305D01*
X385246Y118206D01*
X385278Y118168D01*
X385303Y118125D01*
X385410Y118005D01*
X394406Y109008D01*
X394484Y108948D01*
X394556Y108880D01*
X394609Y108851D01*
X394657Y108814D01*
X394748Y108774D01*
X394835Y108726D01*
X394893Y108711D01*
X394949Y108687D01*
X395047Y108672D01*
X395143Y108647D01*
X395243Y108641D01*
X395263Y108637D01*
X395275Y108639D01*
X395303Y108637D01*
X815897Y108637D01*
X815995Y108649D01*
G37*
G36*
X826416Y307633D02*
X826416Y307633D01*
X826515Y307636D01*
X826573Y307653D01*
X826633Y307661D01*
X826725Y307697D01*
X826820Y307725D01*
X826873Y307755D01*
X826929Y307778D01*
X827009Y307836D01*
X827094Y307886D01*
X827170Y307952D01*
X827186Y307964D01*
X827194Y307974D01*
X827215Y307992D01*
X842008Y322785D01*
X842068Y322863D01*
X842136Y322935D01*
X842165Y322988D01*
X842202Y323036D01*
X842242Y323127D01*
X842290Y323214D01*
X842305Y323272D01*
X842329Y323328D01*
X842344Y323426D01*
X842369Y323522D01*
X842375Y323622D01*
X842379Y323642D01*
X842377Y323654D01*
X842379Y323682D01*
X842379Y366318D01*
X842367Y366416D01*
X842364Y366515D01*
X842347Y366573D01*
X842339Y366633D01*
X842303Y366725D01*
X842275Y366820D01*
X842245Y366873D01*
X842222Y366929D01*
X842164Y367009D01*
X842114Y367094D01*
X842048Y367170D01*
X842036Y367186D01*
X842026Y367194D01*
X842008Y367215D01*
X841815Y367408D01*
X841737Y367468D01*
X841665Y367536D01*
X841612Y367565D01*
X841564Y367602D01*
X841473Y367642D01*
X841386Y367690D01*
X841328Y367705D01*
X841272Y367729D01*
X841174Y367744D01*
X841078Y367769D01*
X840978Y367775D01*
X840958Y367779D01*
X840946Y367777D01*
X840918Y367779D01*
X834463Y367779D01*
X834433Y367776D01*
X834404Y367778D01*
X834276Y367756D01*
X834147Y367739D01*
X834120Y367729D01*
X834091Y367724D01*
X833972Y367670D01*
X833852Y367622D01*
X833828Y367605D01*
X833801Y367593D01*
X833699Y367512D01*
X833594Y367436D01*
X833575Y367413D01*
X833552Y367394D01*
X833474Y367291D01*
X833391Y367191D01*
X833379Y367164D01*
X833361Y367140D01*
X833290Y366996D01*
X833136Y366623D01*
X830110Y363597D01*
X830037Y363503D01*
X829959Y363414D01*
X829940Y363378D01*
X829915Y363346D01*
X829868Y363237D01*
X829814Y363131D01*
X829805Y363092D01*
X829789Y363054D01*
X829770Y362937D01*
X829744Y362821D01*
X829746Y362780D01*
X829739Y362740D01*
X829750Y362622D01*
X829754Y362503D01*
X829765Y362464D01*
X829769Y362424D01*
X829809Y362311D01*
X829842Y362197D01*
X829863Y362162D01*
X829877Y362124D01*
X829944Y362026D01*
X830004Y361923D01*
X830044Y361878D01*
X830055Y361861D01*
X830071Y361848D01*
X830110Y361802D01*
X833136Y358777D01*
X835495Y353082D01*
X835495Y346918D01*
X833136Y341223D01*
X828777Y336864D01*
X823082Y334505D01*
X816918Y334505D01*
X811223Y336864D01*
X806864Y341223D01*
X806710Y341596D01*
X806695Y341621D01*
X806686Y341649D01*
X806617Y341759D01*
X806552Y341872D01*
X806532Y341893D01*
X806516Y341918D01*
X806421Y342007D01*
X806331Y342100D01*
X806306Y342116D01*
X806284Y342136D01*
X806170Y342199D01*
X806060Y342267D01*
X806032Y342275D01*
X806006Y342290D01*
X805880Y342322D01*
X805756Y342360D01*
X805726Y342362D01*
X805698Y342369D01*
X805537Y342379D01*
X788484Y342379D01*
X785683Y343539D01*
X773539Y355683D01*
X772379Y358484D01*
X772379Y396318D01*
X772367Y396416D01*
X772364Y396515D01*
X772347Y396573D01*
X772339Y396633D01*
X772303Y396725D01*
X772275Y396820D01*
X772245Y396873D01*
X772222Y396929D01*
X772164Y397009D01*
X772114Y397094D01*
X772048Y397170D01*
X772036Y397186D01*
X772026Y397194D01*
X772008Y397215D01*
X767215Y402008D01*
X767137Y402068D01*
X767065Y402136D01*
X767012Y402165D01*
X766964Y402202D01*
X766873Y402242D01*
X766786Y402290D01*
X766728Y402305D01*
X766672Y402329D01*
X766574Y402344D01*
X766478Y402369D01*
X766378Y402375D01*
X766358Y402379D01*
X766346Y402377D01*
X766318Y402379D01*
X708484Y402379D01*
X705683Y403539D01*
X703361Y405862D01*
X695862Y413361D01*
X693539Y415683D01*
X692379Y418484D01*
X692379Y538818D01*
X692367Y538916D01*
X692364Y539015D01*
X692347Y539073D01*
X692339Y539133D01*
X692303Y539225D01*
X692275Y539320D01*
X692245Y539373D01*
X692222Y539429D01*
X692164Y539509D01*
X692114Y539594D01*
X692048Y539670D01*
X692036Y539686D01*
X692026Y539694D01*
X692008Y539715D01*
X689715Y542008D01*
X689637Y542068D01*
X689565Y542136D01*
X689512Y542165D01*
X689464Y542202D01*
X689373Y542242D01*
X689286Y542290D01*
X689228Y542305D01*
X689172Y542329D01*
X689074Y542344D01*
X688978Y542369D01*
X688878Y542375D01*
X688858Y542379D01*
X688846Y542377D01*
X688818Y542379D01*
X625984Y542379D01*
X623183Y543539D01*
X620861Y545862D01*
X616039Y550683D01*
X614879Y553484D01*
X614879Y607190D01*
X614873Y607240D01*
X614875Y607289D01*
X614853Y607397D01*
X614839Y607506D01*
X614821Y607552D01*
X614811Y607601D01*
X614763Y607700D01*
X614722Y607802D01*
X614693Y607842D01*
X614671Y607887D01*
X614600Y607970D01*
X614536Y608059D01*
X614497Y608091D01*
X614465Y608129D01*
X614375Y608192D01*
X614291Y608262D01*
X614246Y608283D01*
X614205Y608312D01*
X614102Y608351D01*
X614003Y608397D01*
X613954Y608407D01*
X613908Y608424D01*
X613798Y608437D01*
X613691Y608457D01*
X613641Y608454D01*
X613592Y608460D01*
X613483Y608444D01*
X613373Y608437D01*
X613326Y608422D01*
X613277Y608415D01*
X613124Y608363D01*
X612429Y608075D01*
X606770Y608075D01*
X601542Y610241D01*
X597797Y613986D01*
X597704Y614058D01*
X597689Y614073D01*
X597686Y614074D01*
X597614Y614137D01*
X597578Y614156D01*
X597546Y614181D01*
X597437Y614228D01*
X597331Y614282D01*
X597292Y614291D01*
X597254Y614307D01*
X597137Y614326D01*
X597021Y614352D01*
X596980Y614350D01*
X596940Y614357D01*
X596822Y614346D01*
X596703Y614342D01*
X596664Y614331D01*
X596624Y614327D01*
X596511Y614287D01*
X596397Y614254D01*
X596362Y614233D01*
X596324Y614219D01*
X596226Y614152D01*
X596123Y614092D01*
X596078Y614052D01*
X596061Y614041D01*
X596048Y614026D01*
X596002Y613986D01*
X592258Y610241D01*
X587030Y608075D01*
X581370Y608075D01*
X576142Y610241D01*
X572397Y613986D01*
X572304Y614058D01*
X572289Y614073D01*
X572286Y614074D01*
X572214Y614137D01*
X572178Y614156D01*
X572146Y614181D01*
X572037Y614228D01*
X571931Y614282D01*
X571892Y614291D01*
X571854Y614307D01*
X571737Y614326D01*
X571621Y614352D01*
X571580Y614350D01*
X571540Y614357D01*
X571422Y614346D01*
X571303Y614342D01*
X571264Y614331D01*
X571224Y614327D01*
X571111Y614287D01*
X570997Y614254D01*
X570962Y614233D01*
X570924Y614219D01*
X570826Y614152D01*
X570723Y614092D01*
X570678Y614052D01*
X570661Y614041D01*
X570648Y614026D01*
X570602Y613986D01*
X566858Y610241D01*
X561630Y608075D01*
X561466Y608075D01*
X561329Y608058D01*
X561190Y608045D01*
X561171Y608038D01*
X561151Y608035D01*
X561022Y607984D01*
X560891Y607937D01*
X560874Y607926D01*
X560855Y607918D01*
X560743Y607837D01*
X560628Y607759D01*
X560614Y607743D01*
X560598Y607732D01*
X560509Y607624D01*
X560417Y607520D01*
X560408Y607502D01*
X560395Y607487D01*
X560336Y607361D01*
X560272Y607237D01*
X560268Y607217D01*
X560259Y607199D01*
X560233Y607063D01*
X560203Y606927D01*
X560203Y606906D01*
X560200Y606887D01*
X560208Y606748D01*
X560212Y606609D01*
X560218Y606589D01*
X560219Y606569D01*
X560262Y606437D01*
X560301Y606303D01*
X560311Y606286D01*
X560317Y606267D01*
X560392Y606149D01*
X560462Y606029D01*
X560481Y606008D01*
X560488Y605998D01*
X560503Y605984D01*
X560569Y605909D01*
X565638Y600839D01*
X567961Y598517D01*
X569121Y595716D01*
X569121Y493101D01*
X569133Y493003D01*
X569136Y492904D01*
X569153Y492846D01*
X569161Y492786D01*
X569197Y492694D01*
X569225Y492599D01*
X569255Y492547D01*
X569278Y492490D01*
X569336Y492410D01*
X569386Y492325D01*
X569452Y492249D01*
X569464Y492233D01*
X569474Y492225D01*
X569492Y492204D01*
X573804Y487892D01*
X573882Y487832D01*
X573954Y487764D01*
X574007Y487735D01*
X574055Y487698D01*
X574146Y487658D01*
X574233Y487610D01*
X574291Y487595D01*
X574347Y487571D01*
X574445Y487556D01*
X574541Y487531D01*
X574641Y487525D01*
X574661Y487521D01*
X574673Y487523D01*
X574701Y487521D01*
X627199Y487521D01*
X627297Y487533D01*
X627396Y487536D01*
X627454Y487553D01*
X627514Y487561D01*
X627606Y487597D01*
X627701Y487625D01*
X627753Y487655D01*
X627810Y487678D01*
X627890Y487736D01*
X627975Y487786D01*
X628051Y487852D01*
X628067Y487864D01*
X628075Y487874D01*
X628096Y487892D01*
X632270Y492067D01*
X635420Y493371D01*
X635498Y493416D01*
X635580Y493451D01*
X635635Y493494D01*
X635696Y493529D01*
X635761Y493591D01*
X635831Y493646D01*
X635874Y493701D01*
X635925Y493750D01*
X635972Y493827D01*
X636026Y493897D01*
X636054Y493962D01*
X636091Y494021D01*
X636117Y494107D01*
X636153Y494189D01*
X636164Y494258D01*
X636185Y494325D01*
X636189Y494415D01*
X636203Y494503D01*
X636196Y494573D01*
X636200Y494643D01*
X636182Y494731D01*
X636173Y494820D01*
X636150Y494886D01*
X636135Y494954D01*
X636096Y495035D01*
X636066Y495119D01*
X636027Y495177D01*
X635996Y495240D01*
X635938Y495308D01*
X635887Y495382D01*
X635835Y495429D01*
X635789Y495482D01*
X635716Y495534D01*
X635649Y495593D01*
X635542Y495657D01*
X635529Y495665D01*
X635523Y495668D01*
X635511Y495675D01*
X634742Y496067D01*
X633367Y497065D01*
X632165Y498267D01*
X631167Y499642D01*
X630395Y501156D01*
X629870Y502772D01*
X629747Y503551D01*
X639920Y503551D01*
X640038Y503566D01*
X640157Y503573D01*
X640195Y503585D01*
X640235Y503591D01*
X640346Y503634D01*
X640394Y503650D01*
X640412Y503640D01*
X640451Y503630D01*
X640487Y503613D01*
X640604Y503591D01*
X640720Y503561D01*
X640780Y503557D01*
X640800Y503553D01*
X640820Y503555D01*
X640880Y503551D01*
X651053Y503551D01*
X650930Y502772D01*
X650405Y501156D01*
X649633Y499642D01*
X648635Y498267D01*
X647433Y497065D01*
X646058Y496067D01*
X645289Y495675D01*
X645215Y495625D01*
X645136Y495583D01*
X645084Y495536D01*
X645026Y495496D01*
X644967Y495429D01*
X644901Y495369D01*
X644862Y495310D01*
X644816Y495258D01*
X644775Y495178D01*
X644726Y495103D01*
X644703Y495037D01*
X644672Y494974D01*
X644652Y494887D01*
X644623Y494802D01*
X644617Y494732D01*
X644602Y494664D01*
X644605Y494575D01*
X644598Y494485D01*
X644610Y494416D01*
X644612Y494346D01*
X644637Y494260D01*
X644652Y494172D01*
X644681Y494108D01*
X644700Y494041D01*
X644746Y493964D01*
X644783Y493882D01*
X644826Y493827D01*
X644862Y493767D01*
X644925Y493704D01*
X644981Y493634D01*
X645037Y493591D01*
X645087Y493542D01*
X645164Y493496D01*
X645235Y493442D01*
X645348Y493387D01*
X645360Y493380D01*
X645367Y493378D01*
X645380Y493371D01*
X648530Y492067D01*
X652567Y488030D01*
X654752Y482755D01*
X654752Y477045D01*
X652567Y471770D01*
X648530Y467733D01*
X643255Y465548D01*
X637545Y465548D01*
X632270Y467733D01*
X628096Y471908D01*
X628018Y471968D01*
X627946Y472036D01*
X627893Y472065D01*
X627845Y472102D01*
X627754Y472142D01*
X627667Y472190D01*
X627609Y472205D01*
X627553Y472229D01*
X627455Y472244D01*
X627359Y472269D01*
X627259Y472275D01*
X627239Y472279D01*
X627227Y472277D01*
X627199Y472279D01*
X574701Y472279D01*
X574603Y472267D01*
X574504Y472264D01*
X574446Y472247D01*
X574386Y472239D01*
X574294Y472203D01*
X574199Y472175D01*
X574147Y472145D01*
X574090Y472122D01*
X574010Y472064D01*
X573925Y472014D01*
X573849Y471948D01*
X573833Y471936D01*
X573825Y471926D01*
X573804Y471908D01*
X569630Y467733D01*
X564355Y465548D01*
X558645Y465548D01*
X553370Y467733D01*
X549333Y471770D01*
X547148Y477045D01*
X547148Y482755D01*
X549333Y488030D01*
X553508Y492204D01*
X553568Y492282D01*
X553636Y492354D01*
X553665Y492407D01*
X553702Y492455D01*
X553742Y492546D01*
X553790Y492633D01*
X553805Y492691D01*
X553829Y492747D01*
X553844Y492845D01*
X553869Y492941D01*
X553875Y493041D01*
X553879Y493061D01*
X553877Y493073D01*
X553879Y493101D01*
X553879Y590518D01*
X553867Y590616D01*
X553864Y590715D01*
X553847Y590773D01*
X553839Y590833D01*
X553803Y590925D01*
X553775Y591020D01*
X553745Y591073D01*
X553722Y591129D01*
X553664Y591209D01*
X553614Y591294D01*
X553548Y591370D01*
X553536Y591386D01*
X553526Y591394D01*
X553508Y591415D01*
X537219Y607704D01*
X537141Y607764D01*
X537069Y607832D01*
X537016Y607861D01*
X536968Y607898D01*
X536877Y607938D01*
X536790Y607986D01*
X536732Y608001D01*
X536676Y608025D01*
X536578Y608040D01*
X536482Y608065D01*
X536382Y608071D01*
X536362Y608075D01*
X536350Y608073D01*
X536322Y608075D01*
X530570Y608075D01*
X525342Y610241D01*
X521597Y613986D01*
X521504Y614058D01*
X521489Y614073D01*
X521486Y614074D01*
X521414Y614137D01*
X521378Y614156D01*
X521346Y614181D01*
X521237Y614228D01*
X521131Y614282D01*
X521092Y614291D01*
X521054Y614307D01*
X520937Y614326D01*
X520821Y614352D01*
X520780Y614350D01*
X520740Y614357D01*
X520622Y614346D01*
X520503Y614342D01*
X520464Y614331D01*
X520424Y614327D01*
X520311Y614287D01*
X520197Y614254D01*
X520162Y614233D01*
X520124Y614219D01*
X520026Y614153D01*
X519923Y614092D01*
X519878Y614052D01*
X519861Y614041D01*
X519848Y614026D01*
X519802Y613986D01*
X518692Y612876D01*
X518632Y612797D01*
X518564Y612725D01*
X518535Y612672D01*
X518498Y612624D01*
X518458Y612533D01*
X518410Y612447D01*
X518395Y612388D01*
X518371Y612333D01*
X518356Y612235D01*
X518331Y612139D01*
X518325Y612039D01*
X518321Y612018D01*
X518323Y612006D01*
X518321Y611978D01*
X518321Y493101D01*
X518333Y493003D01*
X518336Y492904D01*
X518353Y492846D01*
X518361Y492786D01*
X518397Y492694D01*
X518425Y492599D01*
X518455Y492547D01*
X518478Y492490D01*
X518536Y492410D01*
X518586Y492325D01*
X518652Y492249D01*
X518664Y492233D01*
X518674Y492225D01*
X518692Y492204D01*
X522867Y488030D01*
X525052Y482755D01*
X525052Y477045D01*
X522867Y471770D01*
X518830Y467733D01*
X513555Y465548D01*
X507845Y465548D01*
X502570Y467733D01*
X498396Y471908D01*
X498318Y471968D01*
X498246Y472036D01*
X498193Y472065D01*
X498145Y472102D01*
X498054Y472142D01*
X497967Y472190D01*
X497909Y472205D01*
X497853Y472229D01*
X497755Y472244D01*
X497659Y472269D01*
X497559Y472275D01*
X497539Y472279D01*
X497527Y472277D01*
X497499Y472279D01*
X445001Y472279D01*
X444903Y472267D01*
X444804Y472264D01*
X444746Y472247D01*
X444686Y472239D01*
X444594Y472203D01*
X444499Y472175D01*
X444447Y472145D01*
X444390Y472122D01*
X444310Y472064D01*
X444225Y472014D01*
X444149Y471948D01*
X444133Y471936D01*
X444125Y471926D01*
X444104Y471908D01*
X439930Y467733D01*
X434655Y465548D01*
X428945Y465548D01*
X423670Y467733D01*
X419633Y471770D01*
X417448Y477045D01*
X417448Y482755D01*
X419633Y488030D01*
X423670Y492067D01*
X426820Y493371D01*
X426898Y493416D01*
X426980Y493451D01*
X427035Y493494D01*
X427096Y493529D01*
X427161Y493591D01*
X427231Y493646D01*
X427274Y493701D01*
X427325Y493750D01*
X427372Y493827D01*
X427426Y493897D01*
X427454Y493962D01*
X427491Y494021D01*
X427517Y494107D01*
X427553Y494189D01*
X427564Y494258D01*
X427585Y494325D01*
X427589Y494415D01*
X427603Y494503D01*
X427596Y494573D01*
X427600Y494643D01*
X427582Y494731D01*
X427573Y494820D01*
X427550Y494886D01*
X427535Y494954D01*
X427496Y495035D01*
X427466Y495119D01*
X427427Y495177D01*
X427396Y495240D01*
X427338Y495308D01*
X427287Y495382D01*
X427235Y495429D01*
X427189Y495482D01*
X427116Y495534D01*
X427049Y495593D01*
X426942Y495657D01*
X426929Y495665D01*
X426923Y495668D01*
X426911Y495675D01*
X426142Y496067D01*
X424767Y497065D01*
X423565Y498267D01*
X422567Y499642D01*
X421795Y501156D01*
X421270Y502772D01*
X421147Y503551D01*
X431320Y503551D01*
X431438Y503566D01*
X431557Y503573D01*
X431595Y503585D01*
X431635Y503591D01*
X431746Y503634D01*
X431794Y503650D01*
X431812Y503640D01*
X431851Y503630D01*
X431887Y503613D01*
X432004Y503591D01*
X432120Y503561D01*
X432180Y503557D01*
X432200Y503553D01*
X432220Y503555D01*
X432280Y503551D01*
X442453Y503551D01*
X442330Y502772D01*
X441805Y501156D01*
X441033Y499642D01*
X440035Y498267D01*
X438833Y497065D01*
X437458Y496067D01*
X436689Y495675D01*
X436615Y495625D01*
X436536Y495583D01*
X436484Y495536D01*
X436426Y495496D01*
X436367Y495429D01*
X436301Y495369D01*
X436262Y495310D01*
X436216Y495258D01*
X436175Y495178D01*
X436126Y495103D01*
X436103Y495037D01*
X436072Y494974D01*
X436052Y494887D01*
X436023Y494802D01*
X436017Y494732D01*
X436002Y494664D01*
X436005Y494575D01*
X435998Y494485D01*
X436010Y494416D01*
X436012Y494346D01*
X436037Y494260D01*
X436052Y494172D01*
X436081Y494108D01*
X436100Y494041D01*
X436146Y493964D01*
X436183Y493882D01*
X436226Y493827D01*
X436262Y493767D01*
X436326Y493703D01*
X436381Y493634D01*
X436437Y493592D01*
X436487Y493542D01*
X436564Y493496D01*
X436635Y493442D01*
X436748Y493387D01*
X436760Y493380D01*
X436767Y493378D01*
X436780Y493371D01*
X439930Y492067D01*
X444104Y487892D01*
X444182Y487832D01*
X444254Y487764D01*
X444307Y487735D01*
X444355Y487698D01*
X444446Y487658D01*
X444533Y487610D01*
X444591Y487595D01*
X444647Y487571D01*
X444745Y487556D01*
X444841Y487531D01*
X444941Y487525D01*
X444961Y487521D01*
X444973Y487523D01*
X445001Y487521D01*
X497499Y487521D01*
X497597Y487533D01*
X497696Y487536D01*
X497754Y487553D01*
X497814Y487561D01*
X497906Y487597D01*
X498001Y487625D01*
X498053Y487655D01*
X498110Y487678D01*
X498190Y487736D01*
X498275Y487786D01*
X498351Y487852D01*
X498367Y487864D01*
X498375Y487874D01*
X498396Y487892D01*
X502708Y492204D01*
X502768Y492282D01*
X502836Y492354D01*
X502865Y492407D01*
X502902Y492455D01*
X502942Y492546D01*
X502990Y492633D01*
X503005Y492691D01*
X503029Y492747D01*
X503044Y492845D01*
X503069Y492941D01*
X503075Y493041D01*
X503079Y493061D01*
X503077Y493073D01*
X503079Y493101D01*
X503079Y608093D01*
X503076Y608123D01*
X503078Y608152D01*
X503056Y608280D01*
X503039Y608409D01*
X503029Y608436D01*
X503024Y608465D01*
X502970Y608584D01*
X502922Y608705D01*
X502905Y608729D01*
X502893Y608755D01*
X502812Y608857D01*
X502736Y608962D01*
X502713Y608981D01*
X502694Y609004D01*
X502591Y609082D01*
X502491Y609165D01*
X502464Y609177D01*
X502440Y609195D01*
X502296Y609266D01*
X499942Y610241D01*
X495941Y614242D01*
X494540Y617623D01*
X494496Y617701D01*
X494461Y617783D01*
X494418Y617838D01*
X494383Y617899D01*
X494321Y617964D01*
X494266Y618034D01*
X494210Y618078D01*
X494162Y618128D01*
X494085Y618175D01*
X494015Y618230D01*
X493950Y618257D01*
X493891Y618294D01*
X493805Y618320D01*
X493723Y618356D01*
X493654Y618367D01*
X493587Y618388D01*
X493497Y618392D01*
X493409Y618406D01*
X493339Y618400D01*
X493269Y618403D01*
X493181Y618385D01*
X493092Y618376D01*
X493026Y618353D01*
X492958Y618339D01*
X492877Y618299D01*
X492793Y618269D01*
X492735Y618230D01*
X492672Y618199D01*
X492604Y618141D01*
X492530Y618090D01*
X492483Y618038D01*
X492430Y617992D01*
X492378Y617919D01*
X492319Y617852D01*
X492255Y617745D01*
X492247Y617732D01*
X492244Y617726D01*
X492237Y617714D01*
X491725Y616708D01*
X490738Y615350D01*
X489550Y614162D01*
X488192Y613175D01*
X486695Y612413D01*
X485098Y611894D01*
X484631Y611820D01*
X484631Y621538D01*
X484616Y621656D01*
X484609Y621775D01*
X484596Y621813D01*
X484591Y621853D01*
X484548Y621964D01*
X484511Y622077D01*
X484489Y622111D01*
X484474Y622149D01*
X484405Y622245D01*
X484341Y622346D01*
X484311Y622374D01*
X484288Y622406D01*
X484196Y622482D01*
X484109Y622564D01*
X484074Y622583D01*
X484043Y622609D01*
X483935Y622660D01*
X483831Y622717D01*
X483791Y622727D01*
X483755Y622745D01*
X483638Y622767D01*
X483523Y622797D01*
X483463Y622801D01*
X483443Y622804D01*
X483422Y622803D01*
X483362Y622807D01*
X481838Y622807D01*
X481720Y622792D01*
X481601Y622785D01*
X481563Y622772D01*
X481522Y622767D01*
X481412Y622723D01*
X481299Y622687D01*
X481264Y622665D01*
X481227Y622650D01*
X481130Y622580D01*
X481030Y622517D01*
X481002Y622487D01*
X480969Y622463D01*
X480893Y622372D01*
X480812Y622285D01*
X480792Y622250D01*
X480767Y622218D01*
X480716Y622111D01*
X480658Y622006D01*
X480648Y621967D01*
X480631Y621931D01*
X480609Y621814D01*
X480579Y621698D01*
X480575Y621638D01*
X480571Y621618D01*
X480573Y621598D01*
X480569Y621538D01*
X480569Y611820D01*
X480102Y611894D01*
X478505Y612413D01*
X477008Y613175D01*
X475650Y614162D01*
X474462Y615350D01*
X473475Y616708D01*
X472963Y617714D01*
X472913Y617788D01*
X472871Y617867D01*
X472824Y617919D01*
X472784Y617977D01*
X472717Y618036D01*
X472657Y618102D01*
X472598Y618141D01*
X472546Y618187D01*
X472466Y618228D01*
X472391Y618277D01*
X472325Y618300D01*
X472262Y618332D01*
X472175Y618351D01*
X472090Y618380D01*
X472021Y618386D01*
X471952Y618401D01*
X471863Y618398D01*
X471773Y618405D01*
X471704Y618393D01*
X471634Y618391D01*
X471548Y618366D01*
X471460Y618351D01*
X471396Y618322D01*
X471329Y618303D01*
X471252Y618257D01*
X471170Y618220D01*
X471115Y618177D01*
X471055Y618141D01*
X470992Y618078D01*
X470922Y618022D01*
X470880Y617966D01*
X470830Y617916D01*
X470784Y617839D01*
X470730Y617768D01*
X470675Y617656D01*
X470668Y617643D01*
X470666Y617636D01*
X470660Y617623D01*
X469259Y614242D01*
X466208Y611192D01*
X466148Y611113D01*
X466080Y611041D01*
X466051Y610988D01*
X466014Y610940D01*
X465974Y610849D01*
X465926Y610763D01*
X465911Y610704D01*
X465887Y610649D01*
X465872Y610551D01*
X465847Y610455D01*
X465841Y610355D01*
X465837Y610334D01*
X465839Y610322D01*
X465837Y610294D01*
X465837Y552982D01*
X464522Y549808D01*
X453492Y538778D01*
X450318Y537463D01*
X394802Y537463D01*
X394704Y537451D01*
X394605Y537448D01*
X394546Y537431D01*
X394486Y537423D01*
X394394Y537387D01*
X394299Y537359D01*
X394247Y537329D01*
X394191Y537306D01*
X394111Y537248D01*
X394025Y537198D01*
X393950Y537132D01*
X393933Y537120D01*
X393926Y537110D01*
X393904Y537092D01*
X389777Y532964D01*
X384082Y530605D01*
X377918Y530605D01*
X372223Y532964D01*
X367864Y537323D01*
X365505Y543018D01*
X365505Y549182D01*
X367864Y554877D01*
X372223Y559236D01*
X377918Y561595D01*
X384082Y561595D01*
X389777Y559236D01*
X393904Y555108D01*
X393983Y555048D01*
X394055Y554980D01*
X394108Y554951D01*
X394156Y554914D01*
X394247Y554874D01*
X394333Y554826D01*
X394392Y554811D01*
X394448Y554787D01*
X394545Y554772D01*
X394641Y554747D01*
X394741Y554741D01*
X394762Y554737D01*
X394774Y554739D01*
X394802Y554737D01*
X444497Y554737D01*
X444595Y554749D01*
X444694Y554752D01*
X444752Y554769D01*
X444812Y554777D01*
X444904Y554813D01*
X445000Y554841D01*
X445052Y554871D01*
X445108Y554894D01*
X445188Y554952D01*
X445273Y555002D01*
X445349Y555068D01*
X445365Y555080D01*
X445373Y555090D01*
X445394Y555108D01*
X448192Y557906D01*
X448252Y557984D01*
X448320Y558056D01*
X448349Y558109D01*
X448386Y558157D01*
X448426Y558248D01*
X448474Y558335D01*
X448489Y558393D01*
X448513Y558449D01*
X448528Y558547D01*
X448553Y558643D01*
X448559Y558743D01*
X448563Y558763D01*
X448561Y558775D01*
X448563Y558803D01*
X448563Y610294D01*
X448551Y610392D01*
X448548Y610491D01*
X448531Y610550D01*
X448523Y610610D01*
X448487Y610702D01*
X448459Y610797D01*
X448429Y610849D01*
X448406Y610905D01*
X448348Y610986D01*
X448298Y611071D01*
X448232Y611146D01*
X448220Y611163D01*
X448210Y611171D01*
X448192Y611192D01*
X445397Y613986D01*
X445304Y614058D01*
X445289Y614073D01*
X445286Y614074D01*
X445214Y614137D01*
X445178Y614156D01*
X445146Y614181D01*
X445037Y614228D01*
X444931Y614282D01*
X444892Y614291D01*
X444854Y614307D01*
X444737Y614326D01*
X444621Y614352D01*
X444580Y614350D01*
X444540Y614357D01*
X444422Y614346D01*
X444303Y614342D01*
X444264Y614331D01*
X444224Y614327D01*
X444111Y614287D01*
X443997Y614254D01*
X443962Y614233D01*
X443924Y614219D01*
X443826Y614152D01*
X443723Y614092D01*
X443678Y614052D01*
X443661Y614041D01*
X443648Y614026D01*
X443602Y613986D01*
X439858Y610241D01*
X434630Y608075D01*
X428970Y608075D01*
X423742Y610241D01*
X419998Y613986D01*
X419904Y614058D01*
X419889Y614073D01*
X419886Y614074D01*
X419814Y614137D01*
X419778Y614156D01*
X419746Y614181D01*
X419637Y614228D01*
X419531Y614282D01*
X419492Y614291D01*
X419454Y614307D01*
X419337Y614326D01*
X419221Y614352D01*
X419180Y614350D01*
X419140Y614357D01*
X419022Y614346D01*
X418903Y614342D01*
X418864Y614331D01*
X418824Y614327D01*
X418711Y614287D01*
X418597Y614254D01*
X418563Y614233D01*
X418524Y614219D01*
X418426Y614153D01*
X418323Y614092D01*
X418278Y614052D01*
X418261Y614041D01*
X418248Y614026D01*
X418203Y613986D01*
X414458Y610241D01*
X409230Y608075D01*
X403570Y608075D01*
X398342Y610241D01*
X394597Y613986D01*
X394504Y614058D01*
X394489Y614073D01*
X394486Y614074D01*
X394414Y614137D01*
X394378Y614156D01*
X394346Y614181D01*
X394237Y614228D01*
X394131Y614282D01*
X394092Y614291D01*
X394054Y614307D01*
X393937Y614326D01*
X393821Y614352D01*
X393780Y614350D01*
X393740Y614357D01*
X393622Y614346D01*
X393503Y614342D01*
X393464Y614331D01*
X393424Y614327D01*
X393311Y614287D01*
X393197Y614254D01*
X393162Y614233D01*
X393124Y614219D01*
X393026Y614152D01*
X392923Y614092D01*
X392878Y614052D01*
X392861Y614041D01*
X392848Y614026D01*
X392802Y613986D01*
X388992Y610176D01*
X388932Y610097D01*
X388864Y610025D01*
X388835Y609972D01*
X388798Y609924D01*
X388758Y609833D01*
X388710Y609747D01*
X388695Y609688D01*
X388671Y609633D01*
X388664Y609589D01*
X387461Y606683D01*
X357992Y577215D01*
X357932Y577137D01*
X357864Y577065D01*
X357835Y577012D01*
X357798Y576964D01*
X357758Y576873D01*
X357710Y576786D01*
X357695Y576728D01*
X357671Y576672D01*
X357656Y576574D01*
X357631Y576478D01*
X357625Y576378D01*
X357621Y576358D01*
X357623Y576346D01*
X357621Y576318D01*
X357621Y393682D01*
X357633Y393584D01*
X357636Y393485D01*
X357653Y393427D01*
X357661Y393367D01*
X357697Y393275D01*
X357725Y393180D01*
X357755Y393127D01*
X357778Y393071D01*
X357836Y392991D01*
X357886Y392906D01*
X357952Y392830D01*
X357964Y392814D01*
X357974Y392806D01*
X357992Y392785D01*
X362785Y387992D01*
X362863Y387932D01*
X362935Y387864D01*
X362988Y387835D01*
X363036Y387798D01*
X363127Y387758D01*
X363214Y387710D01*
X363272Y387695D01*
X363328Y387671D01*
X363426Y387656D01*
X363522Y387631D01*
X363622Y387625D01*
X363642Y387621D01*
X363654Y387623D01*
X363682Y387621D01*
X721516Y387621D01*
X724317Y386461D01*
X736461Y374317D01*
X737621Y371516D01*
X737621Y323682D01*
X737633Y323584D01*
X737636Y323485D01*
X737653Y323427D01*
X737661Y323367D01*
X737697Y323275D01*
X737725Y323180D01*
X737755Y323127D01*
X737778Y323071D01*
X737836Y322991D01*
X737886Y322906D01*
X737952Y322830D01*
X737964Y322814D01*
X737974Y322806D01*
X737992Y322785D01*
X752785Y307992D01*
X752863Y307932D01*
X752935Y307864D01*
X752988Y307835D01*
X753036Y307798D01*
X753127Y307758D01*
X753214Y307710D01*
X753272Y307695D01*
X753328Y307671D01*
X753426Y307656D01*
X753522Y307631D01*
X753622Y307625D01*
X753642Y307621D01*
X753654Y307623D01*
X753682Y307621D01*
X826318Y307621D01*
X826416Y307633D01*
G37*
G36*
X805567Y484624D02*
X805567Y484624D01*
X805596Y484622D01*
X805724Y484644D01*
X805853Y484661D01*
X805880Y484671D01*
X805909Y484676D01*
X806028Y484730D01*
X806148Y484778D01*
X806172Y484795D01*
X806199Y484807D01*
X806301Y484888D01*
X806406Y484964D01*
X806425Y484987D01*
X806448Y485006D01*
X806526Y485109D01*
X806609Y485209D01*
X806621Y485236D01*
X806639Y485260D01*
X806710Y485404D01*
X806864Y485777D01*
X811223Y490136D01*
X812534Y490679D01*
X812663Y490752D01*
X812794Y490824D01*
X812801Y490831D01*
X812810Y490836D01*
X812917Y490939D01*
X813026Y491042D01*
X813031Y491051D01*
X813038Y491058D01*
X813116Y491183D01*
X813196Y491310D01*
X813199Y491320D01*
X813205Y491329D01*
X813248Y491470D01*
X813295Y491613D01*
X813295Y491623D01*
X813298Y491633D01*
X813305Y491782D01*
X813315Y491930D01*
X813313Y491940D01*
X813314Y491950D01*
X813283Y492097D01*
X813256Y492242D01*
X813251Y492252D01*
X813249Y492262D01*
X813184Y492396D01*
X813121Y492530D01*
X813114Y492538D01*
X813109Y492547D01*
X813013Y492661D01*
X812918Y492776D01*
X812907Y492784D01*
X812903Y492789D01*
X812891Y492798D01*
X812794Y492878D01*
X812222Y493294D01*
X810894Y494622D01*
X809789Y496143D01*
X808936Y497817D01*
X808355Y499604D01*
X808315Y499861D01*
X818730Y499861D01*
X818848Y499876D01*
X818967Y499883D01*
X819005Y499896D01*
X819045Y499901D01*
X819156Y499944D01*
X819269Y499981D01*
X819303Y500003D01*
X819341Y500018D01*
X819437Y500088D01*
X819538Y500151D01*
X819566Y500181D01*
X819598Y500204D01*
X819674Y500296D01*
X819756Y500383D01*
X819775Y500418D01*
X819801Y500449D01*
X819852Y500557D01*
X819909Y500661D01*
X819920Y500701D01*
X819937Y500737D01*
X819959Y500854D01*
X819989Y500969D01*
X819993Y501030D01*
X819997Y501050D01*
X819995Y501070D01*
X819999Y501130D01*
X819999Y503670D01*
X819984Y503788D01*
X819977Y503907D01*
X819964Y503945D01*
X819959Y503985D01*
X819915Y504096D01*
X819879Y504209D01*
X819857Y504244D01*
X819842Y504281D01*
X819772Y504377D01*
X819709Y504478D01*
X819679Y504506D01*
X819655Y504539D01*
X819564Y504614D01*
X819477Y504696D01*
X819442Y504716D01*
X819410Y504741D01*
X819303Y504792D01*
X819198Y504850D01*
X819159Y504860D01*
X819123Y504877D01*
X819006Y504899D01*
X818891Y504929D01*
X818830Y504933D01*
X818810Y504937D01*
X818790Y504935D01*
X818730Y504939D01*
X808315Y504939D01*
X808355Y505196D01*
X808936Y506983D01*
X809789Y508657D01*
X810894Y510178D01*
X812222Y511506D01*
X812794Y511922D01*
X812902Y512023D01*
X813013Y512124D01*
X813019Y512132D01*
X813026Y512139D01*
X813106Y512265D01*
X813188Y512389D01*
X813191Y512399D01*
X813196Y512408D01*
X813242Y512549D01*
X813291Y512690D01*
X813292Y512701D01*
X813295Y512710D01*
X813304Y512859D01*
X813316Y513007D01*
X813314Y513017D01*
X813315Y513028D01*
X813287Y513175D01*
X813262Y513321D01*
X813257Y513330D01*
X813255Y513340D01*
X813192Y513475D01*
X813131Y513611D01*
X813125Y513619D01*
X813120Y513628D01*
X813026Y513742D01*
X812932Y513859D01*
X812924Y513865D01*
X812918Y513873D01*
X812798Y513961D01*
X812678Y514050D01*
X812666Y514056D01*
X812661Y514060D01*
X812647Y514066D01*
X812534Y514121D01*
X811223Y514664D01*
X806864Y519023D01*
X804505Y524718D01*
X804505Y530882D01*
X806864Y536577D01*
X809890Y539602D01*
X809963Y539697D01*
X810041Y539786D01*
X810060Y539822D01*
X810085Y539854D01*
X810132Y539963D01*
X810186Y540069D01*
X810195Y540108D01*
X810211Y540146D01*
X810230Y540263D01*
X810256Y540379D01*
X810254Y540420D01*
X810261Y540460D01*
X810250Y540578D01*
X810246Y540697D01*
X810235Y540736D01*
X810231Y540776D01*
X810191Y540889D01*
X810158Y541003D01*
X810137Y541037D01*
X810123Y541076D01*
X810057Y541174D01*
X809996Y541277D01*
X809956Y541322D01*
X809945Y541339D01*
X809930Y541352D01*
X809890Y541397D01*
X806864Y544423D01*
X804505Y550118D01*
X804505Y556282D01*
X806864Y561977D01*
X809890Y565002D01*
X809963Y565097D01*
X810041Y565186D01*
X810060Y565222D01*
X810085Y565254D01*
X810132Y565363D01*
X810186Y565469D01*
X810195Y565508D01*
X810211Y565546D01*
X810230Y565663D01*
X810256Y565779D01*
X810254Y565820D01*
X810261Y565860D01*
X810250Y565978D01*
X810246Y566097D01*
X810235Y566136D01*
X810231Y566176D01*
X810191Y566289D01*
X810158Y566403D01*
X810137Y566437D01*
X810123Y566476D01*
X810057Y566574D01*
X809996Y566677D01*
X809956Y566722D01*
X809945Y566739D01*
X809930Y566752D01*
X809890Y566797D01*
X806864Y569823D01*
X804505Y575518D01*
X804505Y581682D01*
X806864Y587377D01*
X811223Y591736D01*
X816918Y594095D01*
X823082Y594095D01*
X828777Y591736D01*
X829196Y591316D01*
X829306Y591231D01*
X829413Y591142D01*
X829432Y591134D01*
X829448Y591121D01*
X829576Y591066D01*
X829701Y591007D01*
X829721Y591003D01*
X829740Y590995D01*
X829878Y590973D01*
X830014Y590947D01*
X830034Y590948D01*
X830054Y590945D01*
X830193Y590958D01*
X830331Y590967D01*
X830350Y590973D01*
X830370Y590975D01*
X830501Y591022D01*
X830633Y591065D01*
X830651Y591076D01*
X830670Y591083D01*
X830784Y591161D01*
X830902Y591235D01*
X830916Y591250D01*
X830933Y591261D01*
X831025Y591365D01*
X831120Y591467D01*
X831130Y591484D01*
X831143Y591500D01*
X831206Y591623D01*
X831274Y591745D01*
X831279Y591765D01*
X831288Y591783D01*
X831318Y591919D01*
X831353Y592053D01*
X831355Y592081D01*
X831358Y592093D01*
X831357Y592114D01*
X831363Y592214D01*
X831363Y745897D01*
X831351Y745995D01*
X831348Y746094D01*
X831331Y746152D01*
X831323Y746212D01*
X831287Y746304D01*
X831259Y746400D01*
X831229Y746452D01*
X831206Y746508D01*
X831148Y746588D01*
X831098Y746673D01*
X831032Y746749D01*
X831020Y746765D01*
X831010Y746773D01*
X830992Y746794D01*
X776794Y800992D01*
X776716Y801052D01*
X776644Y801120D01*
X776591Y801149D01*
X776543Y801186D01*
X776452Y801226D01*
X776365Y801274D01*
X776307Y801289D01*
X776251Y801313D01*
X776153Y801328D01*
X776057Y801353D01*
X775957Y801359D01*
X775937Y801363D01*
X775925Y801361D01*
X775897Y801363D01*
X534103Y801363D01*
X534005Y801351D01*
X533906Y801348D01*
X533848Y801331D01*
X533788Y801323D01*
X533696Y801287D01*
X533600Y801259D01*
X533548Y801229D01*
X533492Y801206D01*
X533412Y801148D01*
X533327Y801098D01*
X533251Y801032D01*
X533235Y801020D01*
X533227Y801010D01*
X533206Y800992D01*
X517008Y784794D01*
X516948Y784716D01*
X516880Y784644D01*
X516851Y784591D01*
X516814Y784543D01*
X516774Y784452D01*
X516726Y784365D01*
X516711Y784307D01*
X516687Y784251D01*
X516672Y784153D01*
X516647Y784057D01*
X516641Y783957D01*
X516637Y783937D01*
X516639Y783925D01*
X516637Y783897D01*
X516637Y710506D01*
X516649Y710408D01*
X516652Y710309D01*
X516669Y710250D01*
X516677Y710190D01*
X516713Y710098D01*
X516741Y710003D01*
X516771Y709951D01*
X516794Y709895D01*
X516852Y709815D01*
X516902Y709729D01*
X516968Y709654D01*
X516980Y709637D01*
X516990Y709629D01*
X517008Y709608D01*
X519803Y706814D01*
X519897Y706741D01*
X519986Y706663D01*
X520022Y706644D01*
X520054Y706619D01*
X520163Y706572D01*
X520269Y706518D01*
X520308Y706509D01*
X520346Y706493D01*
X520463Y706474D01*
X520579Y706448D01*
X520620Y706450D01*
X520660Y706443D01*
X520778Y706454D01*
X520897Y706458D01*
X520936Y706469D01*
X520976Y706473D01*
X521089Y706513D01*
X521203Y706546D01*
X521238Y706567D01*
X521276Y706581D01*
X521374Y706648D01*
X521477Y706708D01*
X521522Y706748D01*
X521539Y706759D01*
X521552Y706774D01*
X521598Y706814D01*
X525408Y710624D01*
X525468Y710703D01*
X525536Y710775D01*
X525565Y710828D01*
X525602Y710876D01*
X525642Y710967D01*
X525690Y711053D01*
X525705Y711112D01*
X525729Y711167D01*
X525744Y711265D01*
X525769Y711361D01*
X525775Y711461D01*
X525779Y711482D01*
X525777Y711494D01*
X525779Y711522D01*
X525779Y763833D01*
X525767Y763932D01*
X525764Y764031D01*
X525747Y764089D01*
X525739Y764149D01*
X525703Y764241D01*
X525675Y764336D01*
X525645Y764388D01*
X525622Y764445D01*
X525564Y764525D01*
X525514Y764610D01*
X525448Y764686D01*
X525436Y764702D01*
X525426Y764710D01*
X525408Y764731D01*
X520699Y769439D01*
X520699Y779961D01*
X528139Y787401D01*
X538661Y787401D01*
X546101Y779961D01*
X546101Y769439D01*
X541392Y764731D01*
X541332Y764653D01*
X541264Y764581D01*
X541235Y764528D01*
X541198Y764480D01*
X541158Y764389D01*
X541110Y764302D01*
X541095Y764244D01*
X541071Y764188D01*
X541056Y764090D01*
X541031Y763994D01*
X541025Y763894D01*
X541021Y763874D01*
X541023Y763861D01*
X541021Y763833D01*
X541021Y711522D01*
X541033Y711424D01*
X541036Y711325D01*
X541053Y711266D01*
X541061Y711206D01*
X541097Y711114D01*
X541125Y711019D01*
X541155Y710967D01*
X541178Y710911D01*
X541236Y710831D01*
X541286Y710745D01*
X541352Y710670D01*
X541364Y710653D01*
X541374Y710645D01*
X541392Y710624D01*
X545203Y706814D01*
X545297Y706741D01*
X545386Y706663D01*
X545422Y706644D01*
X545454Y706619D01*
X545563Y706572D01*
X545669Y706518D01*
X545708Y706509D01*
X545746Y706493D01*
X545863Y706474D01*
X545979Y706448D01*
X546020Y706450D01*
X546060Y706443D01*
X546178Y706454D01*
X546297Y706458D01*
X546336Y706469D01*
X546376Y706473D01*
X546489Y706513D01*
X546603Y706546D01*
X546638Y706567D01*
X546676Y706581D01*
X546774Y706648D01*
X546877Y706708D01*
X546922Y706748D01*
X546939Y706759D01*
X546952Y706774D01*
X546998Y706814D01*
X550742Y710559D01*
X555970Y712725D01*
X561630Y712725D01*
X566858Y710559D01*
X570603Y706814D01*
X570697Y706741D01*
X570786Y706663D01*
X570822Y706644D01*
X570854Y706619D01*
X570963Y706572D01*
X571069Y706518D01*
X571108Y706509D01*
X571146Y706493D01*
X571263Y706474D01*
X571379Y706448D01*
X571420Y706450D01*
X571460Y706443D01*
X571578Y706454D01*
X571697Y706458D01*
X571736Y706469D01*
X571776Y706473D01*
X571889Y706513D01*
X572003Y706546D01*
X572038Y706567D01*
X572076Y706581D01*
X572174Y706648D01*
X572277Y706708D01*
X572322Y706748D01*
X572339Y706759D01*
X572352Y706774D01*
X572398Y706814D01*
X576142Y710559D01*
X581370Y712725D01*
X587030Y712725D01*
X592258Y710559D01*
X596003Y706814D01*
X596097Y706741D01*
X596186Y706663D01*
X596222Y706644D01*
X596254Y706619D01*
X596363Y706572D01*
X596469Y706518D01*
X596508Y706509D01*
X596546Y706493D01*
X596663Y706474D01*
X596779Y706448D01*
X596820Y706450D01*
X596860Y706443D01*
X596978Y706454D01*
X597097Y706458D01*
X597136Y706469D01*
X597176Y706473D01*
X597289Y706513D01*
X597403Y706546D01*
X597438Y706567D01*
X597476Y706581D01*
X597574Y706648D01*
X597677Y706708D01*
X597722Y706748D01*
X597739Y706759D01*
X597752Y706774D01*
X597798Y706814D01*
X601542Y710559D01*
X606770Y712725D01*
X612430Y712725D01*
X617658Y710559D01*
X621403Y706814D01*
X621497Y706741D01*
X621586Y706663D01*
X621622Y706644D01*
X621654Y706619D01*
X621763Y706572D01*
X621869Y706518D01*
X621908Y706509D01*
X621946Y706493D01*
X622063Y706474D01*
X622179Y706448D01*
X622220Y706450D01*
X622260Y706443D01*
X622378Y706454D01*
X622497Y706458D01*
X622536Y706469D01*
X622576Y706473D01*
X622689Y706513D01*
X622803Y706546D01*
X622838Y706567D01*
X622876Y706581D01*
X622974Y706648D01*
X623077Y706708D01*
X623122Y706748D01*
X623139Y706759D01*
X623152Y706774D01*
X623198Y706814D01*
X626942Y710559D01*
X632170Y712725D01*
X637830Y712725D01*
X643058Y710559D01*
X647059Y706558D01*
X649225Y701330D01*
X649225Y695670D01*
X647059Y690442D01*
X643058Y686441D01*
X637830Y684275D01*
X632170Y684275D01*
X626942Y686441D01*
X623198Y690186D01*
X623103Y690259D01*
X623014Y690337D01*
X622978Y690356D01*
X622946Y690381D01*
X622837Y690428D01*
X622731Y690482D01*
X622692Y690491D01*
X622654Y690507D01*
X622537Y690526D01*
X622421Y690552D01*
X622380Y690550D01*
X622340Y690557D01*
X622222Y690546D01*
X622103Y690542D01*
X622064Y690531D01*
X622024Y690527D01*
X621911Y690487D01*
X621797Y690454D01*
X621763Y690433D01*
X621724Y690419D01*
X621626Y690353D01*
X621523Y690292D01*
X621478Y690252D01*
X621461Y690241D01*
X621448Y690226D01*
X621403Y690186D01*
X617658Y686441D01*
X612430Y684275D01*
X606770Y684275D01*
X601542Y686441D01*
X597798Y690186D01*
X597703Y690259D01*
X597614Y690337D01*
X597578Y690356D01*
X597546Y690381D01*
X597437Y690428D01*
X597331Y690482D01*
X597292Y690491D01*
X597254Y690507D01*
X597137Y690526D01*
X597021Y690552D01*
X596980Y690550D01*
X596940Y690557D01*
X596822Y690546D01*
X596703Y690542D01*
X596664Y690531D01*
X596624Y690527D01*
X596511Y690487D01*
X596397Y690454D01*
X596363Y690433D01*
X596324Y690419D01*
X596226Y690353D01*
X596123Y690292D01*
X596078Y690252D01*
X596061Y690241D01*
X596048Y690226D01*
X596003Y690186D01*
X592258Y686441D01*
X587030Y684275D01*
X581370Y684275D01*
X576142Y686441D01*
X572398Y690186D01*
X572303Y690259D01*
X572214Y690337D01*
X572178Y690356D01*
X572146Y690381D01*
X572037Y690428D01*
X571931Y690482D01*
X571892Y690491D01*
X571854Y690507D01*
X571737Y690526D01*
X571621Y690552D01*
X571580Y690550D01*
X571540Y690557D01*
X571422Y690546D01*
X571303Y690542D01*
X571264Y690531D01*
X571224Y690527D01*
X571111Y690487D01*
X570997Y690454D01*
X570963Y690433D01*
X570924Y690419D01*
X570826Y690353D01*
X570723Y690292D01*
X570678Y690252D01*
X570661Y690241D01*
X570648Y690226D01*
X570603Y690186D01*
X566858Y686441D01*
X561630Y684275D01*
X555970Y684275D01*
X550742Y686441D01*
X546998Y690186D01*
X546903Y690259D01*
X546814Y690337D01*
X546778Y690356D01*
X546746Y690381D01*
X546637Y690428D01*
X546531Y690482D01*
X546492Y690491D01*
X546454Y690507D01*
X546337Y690526D01*
X546221Y690552D01*
X546180Y690550D01*
X546140Y690557D01*
X546022Y690546D01*
X545903Y690542D01*
X545864Y690531D01*
X545824Y690527D01*
X545711Y690487D01*
X545597Y690454D01*
X545563Y690433D01*
X545524Y690419D01*
X545426Y690353D01*
X545323Y690292D01*
X545278Y690252D01*
X545261Y690241D01*
X545248Y690226D01*
X545203Y690186D01*
X541458Y686441D01*
X536230Y684275D01*
X530570Y684275D01*
X525342Y686441D01*
X521598Y690186D01*
X521503Y690259D01*
X521414Y690337D01*
X521378Y690356D01*
X521346Y690381D01*
X521237Y690428D01*
X521131Y690482D01*
X521092Y690491D01*
X521054Y690507D01*
X520937Y690526D01*
X520821Y690552D01*
X520780Y690550D01*
X520740Y690557D01*
X520622Y690546D01*
X520503Y690542D01*
X520464Y690531D01*
X520424Y690527D01*
X520311Y690487D01*
X520197Y690454D01*
X520163Y690433D01*
X520124Y690419D01*
X520026Y690353D01*
X519923Y690292D01*
X519878Y690252D01*
X519861Y690241D01*
X519848Y690226D01*
X519803Y690186D01*
X516058Y686441D01*
X510830Y684275D01*
X505170Y684275D01*
X499942Y686441D01*
X496198Y690186D01*
X496103Y690259D01*
X496014Y690337D01*
X495978Y690356D01*
X495946Y690381D01*
X495837Y690428D01*
X495731Y690482D01*
X495692Y690491D01*
X495654Y690507D01*
X495537Y690526D01*
X495421Y690552D01*
X495380Y690550D01*
X495340Y690557D01*
X495222Y690546D01*
X495103Y690542D01*
X495064Y690531D01*
X495024Y690527D01*
X494912Y690487D01*
X494797Y690454D01*
X494762Y690433D01*
X494724Y690419D01*
X494626Y690353D01*
X494523Y690292D01*
X494478Y690252D01*
X494461Y690241D01*
X494448Y690225D01*
X494403Y690186D01*
X493395Y689178D01*
X493322Y689084D01*
X493243Y688994D01*
X493224Y688958D01*
X493200Y688926D01*
X493152Y688817D01*
X493098Y688711D01*
X493089Y688672D01*
X493073Y688635D01*
X493055Y688517D01*
X493029Y688401D01*
X493030Y688361D01*
X493023Y688321D01*
X493035Y688202D01*
X493038Y688083D01*
X493049Y688044D01*
X493053Y688004D01*
X493094Y687892D01*
X493127Y687778D01*
X493147Y687743D01*
X493161Y687705D01*
X493228Y687606D01*
X493288Y687504D01*
X493328Y687458D01*
X493339Y687442D01*
X493355Y687428D01*
X493395Y687383D01*
X512785Y667992D01*
X512863Y667932D01*
X512935Y667864D01*
X512988Y667835D01*
X513036Y667798D01*
X513127Y667758D01*
X513214Y667710D01*
X513272Y667695D01*
X513328Y667671D01*
X513426Y667656D01*
X513522Y667631D01*
X513622Y667625D01*
X513642Y667621D01*
X513654Y667623D01*
X513682Y667621D01*
X674016Y667621D01*
X676817Y666461D01*
X679139Y664138D01*
X764138Y579139D01*
X766461Y576817D01*
X767621Y574016D01*
X767621Y493682D01*
X767633Y493584D01*
X767636Y493485D01*
X767653Y493427D01*
X767661Y493367D01*
X767697Y493275D01*
X767725Y493180D01*
X767755Y493127D01*
X767778Y493071D01*
X767836Y492991D01*
X767886Y492906D01*
X767952Y492830D01*
X767964Y492814D01*
X767974Y492806D01*
X767992Y492785D01*
X775785Y484992D01*
X775863Y484932D01*
X775935Y484864D01*
X775988Y484835D01*
X776036Y484798D01*
X776127Y484758D01*
X776214Y484710D01*
X776272Y484695D01*
X776328Y484671D01*
X776426Y484656D01*
X776522Y484631D01*
X776622Y484625D01*
X776642Y484621D01*
X776654Y484623D01*
X776682Y484621D01*
X805537Y484621D01*
X805567Y484624D01*
G37*
%LPC*%
G36*
X708118Y746505D02*
X708118Y746505D01*
X702423Y748864D01*
X698064Y753223D01*
X697910Y753596D01*
X697895Y753621D01*
X697886Y753649D01*
X697817Y753759D01*
X697752Y753872D01*
X697732Y753893D01*
X697716Y753918D01*
X697621Y754007D01*
X697531Y754100D01*
X697506Y754116D01*
X697484Y754136D01*
X697370Y754199D01*
X697260Y754267D01*
X697232Y754275D01*
X697206Y754290D01*
X697080Y754322D01*
X696956Y754360D01*
X696926Y754362D01*
X696898Y754369D01*
X696737Y754379D01*
X620784Y754379D01*
X617983Y755539D01*
X611895Y761628D01*
X611817Y761688D01*
X611745Y761756D01*
X611692Y761785D01*
X611644Y761822D01*
X611553Y761862D01*
X611466Y761910D01*
X611408Y761925D01*
X611352Y761949D01*
X611254Y761964D01*
X611158Y761989D01*
X611058Y761995D01*
X611038Y761999D01*
X611026Y761997D01*
X610998Y761999D01*
X604339Y761999D01*
X596899Y769439D01*
X596899Y779961D01*
X604339Y787401D01*
X614861Y787401D01*
X622301Y779961D01*
X622301Y773302D01*
X622313Y773204D01*
X622316Y773105D01*
X622333Y773047D01*
X622341Y772987D01*
X622377Y772895D01*
X622405Y772800D01*
X622435Y772747D01*
X622458Y772691D01*
X622516Y772611D01*
X622566Y772526D01*
X622632Y772450D01*
X622644Y772434D01*
X622654Y772426D01*
X622672Y772405D01*
X625085Y769992D01*
X625163Y769932D01*
X625235Y769864D01*
X625288Y769835D01*
X625336Y769798D01*
X625427Y769758D01*
X625514Y769710D01*
X625572Y769695D01*
X625628Y769671D01*
X625726Y769656D01*
X625822Y769631D01*
X625922Y769625D01*
X625942Y769621D01*
X625954Y769623D01*
X625982Y769621D01*
X696737Y769621D01*
X696767Y769624D01*
X696796Y769622D01*
X696924Y769644D01*
X697053Y769661D01*
X697080Y769671D01*
X697109Y769676D01*
X697228Y769730D01*
X697348Y769778D01*
X697372Y769795D01*
X697399Y769807D01*
X697501Y769888D01*
X697606Y769964D01*
X697625Y769987D01*
X697648Y770006D01*
X697726Y770109D01*
X697809Y770209D01*
X697821Y770236D01*
X697839Y770260D01*
X697910Y770404D01*
X698064Y770777D01*
X702423Y775136D01*
X708118Y777495D01*
X714282Y777495D01*
X719977Y775136D01*
X724336Y770777D01*
X724879Y769466D01*
X724952Y769337D01*
X725024Y769206D01*
X725031Y769199D01*
X725036Y769190D01*
X725139Y769083D01*
X725242Y768974D01*
X725251Y768969D01*
X725258Y768962D01*
X725383Y768884D01*
X725510Y768804D01*
X725520Y768801D01*
X725529Y768795D01*
X725670Y768752D01*
X725813Y768705D01*
X725823Y768705D01*
X725833Y768702D01*
X725982Y768695D01*
X726130Y768685D01*
X726140Y768687D01*
X726150Y768686D01*
X726297Y768717D01*
X726442Y768744D01*
X726452Y768749D01*
X726462Y768751D01*
X726596Y768816D01*
X726730Y768879D01*
X726738Y768886D01*
X726747Y768891D01*
X726861Y768987D01*
X726976Y769082D01*
X726984Y769093D01*
X726989Y769097D01*
X726998Y769109D01*
X727078Y769206D01*
X727494Y769778D01*
X728822Y771106D01*
X730343Y772211D01*
X732017Y773064D01*
X733804Y773645D01*
X734569Y773766D01*
X734569Y762762D01*
X734584Y762644D01*
X734591Y762525D01*
X734603Y762487D01*
X734609Y762447D01*
X734652Y762336D01*
X734689Y762223D01*
X734711Y762189D01*
X734726Y762151D01*
X734795Y762055D01*
X734828Y762003D01*
X734812Y761985D01*
X734792Y761950D01*
X734767Y761918D01*
X734716Y761811D01*
X734658Y761706D01*
X734648Y761667D01*
X734631Y761631D01*
X734609Y761514D01*
X734579Y761398D01*
X734575Y761338D01*
X734571Y761318D01*
X734573Y761298D01*
X734569Y761238D01*
X734569Y750234D01*
X733804Y750355D01*
X732017Y750936D01*
X730343Y751789D01*
X728822Y752894D01*
X727494Y754222D01*
X727078Y754794D01*
X726977Y754902D01*
X726876Y755013D01*
X726868Y755019D01*
X726861Y755026D01*
X726735Y755106D01*
X726611Y755188D01*
X726601Y755191D01*
X726592Y755196D01*
X726451Y755242D01*
X726310Y755291D01*
X726299Y755292D01*
X726290Y755295D01*
X726141Y755304D01*
X725993Y755316D01*
X725983Y755314D01*
X725972Y755315D01*
X725825Y755287D01*
X725679Y755262D01*
X725670Y755257D01*
X725660Y755255D01*
X725525Y755192D01*
X725389Y755131D01*
X725381Y755125D01*
X725372Y755120D01*
X725258Y755026D01*
X725141Y754932D01*
X725135Y754924D01*
X725127Y754918D01*
X725039Y754798D01*
X724950Y754678D01*
X724944Y754666D01*
X724940Y754661D01*
X724934Y754647D01*
X724879Y754534D01*
X724336Y753223D01*
X719977Y748864D01*
X714282Y746505D01*
X708118Y746505D01*
G37*
%LPD*%
%LPC*%
G36*
X244332Y455548D02*
X244332Y455548D01*
X242091Y456476D01*
X240376Y458191D01*
X239448Y460432D01*
X239448Y462283D01*
X239438Y462362D01*
X239438Y462442D01*
X239418Y462519D01*
X239408Y462598D01*
X239379Y462673D01*
X239359Y462750D01*
X239321Y462820D01*
X239291Y462894D01*
X239245Y462959D01*
X239206Y463029D01*
X239151Y463087D01*
X239105Y463152D01*
X239043Y463202D01*
X238989Y463261D01*
X238921Y463303D01*
X238860Y463354D01*
X238787Y463388D01*
X238720Y463431D01*
X238644Y463456D01*
X238572Y463490D01*
X238494Y463505D01*
X238418Y463530D01*
X238338Y463535D01*
X238260Y463550D01*
X238180Y463545D01*
X238100Y463550D01*
X238022Y463535D01*
X237942Y463530D01*
X237866Y463505D01*
X237788Y463490D01*
X237715Y463456D01*
X237640Y463432D01*
X237572Y463389D01*
X237500Y463355D01*
X237438Y463304D01*
X237371Y463262D01*
X237316Y463204D01*
X237255Y463153D01*
X237154Y463031D01*
X237153Y463030D01*
X237152Y463029D01*
X237035Y462867D01*
X235833Y461665D01*
X234458Y460667D01*
X232944Y459895D01*
X231328Y459370D01*
X230549Y459247D01*
X230549Y469420D01*
X230534Y469538D01*
X230527Y469657D01*
X230514Y469695D01*
X230509Y469735D01*
X230466Y469846D01*
X230450Y469894D01*
X230460Y469912D01*
X230470Y469951D01*
X230487Y469987D01*
X230509Y470104D01*
X230539Y470220D01*
X230543Y470280D01*
X230547Y470300D01*
X230545Y470320D01*
X230549Y470380D01*
X230549Y480553D01*
X231328Y480430D01*
X232944Y479905D01*
X234458Y479133D01*
X234987Y478749D01*
X235833Y478135D01*
X237035Y476933D01*
X237152Y476771D01*
X237207Y476713D01*
X237253Y476648D01*
X237315Y476597D01*
X237370Y476539D01*
X237437Y476497D01*
X237498Y476446D01*
X237571Y476412D01*
X237638Y476369D01*
X237714Y476344D01*
X237786Y476310D01*
X237865Y476295D01*
X237941Y476270D01*
X238020Y476265D01*
X238099Y476250D01*
X238178Y476255D01*
X238258Y476250D01*
X238336Y476265D01*
X238416Y476270D01*
X238492Y476295D01*
X238570Y476310D01*
X238643Y476344D01*
X238718Y476368D01*
X238786Y476411D01*
X238858Y476445D01*
X238920Y476496D01*
X238987Y476538D01*
X239042Y476597D01*
X239104Y476647D01*
X239150Y476712D01*
X239205Y476770D01*
X239244Y476840D01*
X239291Y476904D01*
X239320Y476979D01*
X239359Y477048D01*
X239379Y477126D01*
X239408Y477200D01*
X239418Y477279D01*
X239438Y477356D01*
X239448Y477514D01*
X239448Y477516D01*
X239448Y477517D01*
X239448Y479368D01*
X240376Y481609D01*
X242091Y483324D01*
X244332Y484252D01*
X263268Y484252D01*
X265509Y483324D01*
X267224Y481609D01*
X268152Y479368D01*
X268152Y460432D01*
X267224Y458191D01*
X265509Y456476D01*
X263268Y455548D01*
X244332Y455548D01*
G37*
%LPD*%
%LPC*%
G36*
X164812Y677417D02*
X164812Y677417D01*
X159117Y679776D01*
X154758Y684135D01*
X152399Y689830D01*
X152399Y695994D01*
X154758Y701689D01*
X159117Y706048D01*
X164812Y708407D01*
X170976Y708407D01*
X176671Y706048D01*
X181030Y701689D01*
X183389Y695994D01*
X183389Y689830D01*
X181030Y684135D01*
X176671Y679776D01*
X170976Y677417D01*
X164812Y677417D01*
G37*
%LPD*%
%LPC*%
G36*
X210024Y677417D02*
X210024Y677417D01*
X204329Y679776D01*
X199970Y684135D01*
X197611Y689830D01*
X197611Y695994D01*
X199970Y701689D01*
X204329Y706048D01*
X210024Y708407D01*
X216188Y708407D01*
X221883Y706048D01*
X226242Y701689D01*
X228601Y695994D01*
X228601Y689830D01*
X226242Y684135D01*
X221883Y679776D01*
X216188Y677417D01*
X210024Y677417D01*
G37*
%LPD*%
%LPC*%
G36*
X738631Y764031D02*
X738631Y764031D01*
X738631Y773766D01*
X739396Y773645D01*
X741183Y773064D01*
X742857Y772211D01*
X744378Y771106D01*
X745706Y769778D01*
X746811Y768257D01*
X747664Y766583D01*
X748245Y764796D01*
X748366Y764031D01*
X738631Y764031D01*
G37*
%LPD*%
%LPC*%
G36*
X738631Y759969D02*
X738631Y759969D01*
X748366Y759969D01*
X748245Y759204D01*
X747664Y757417D01*
X746811Y755743D01*
X745706Y754222D01*
X744378Y752894D01*
X742857Y751789D01*
X741183Y750936D01*
X739396Y750355D01*
X738631Y750234D01*
X738631Y759969D01*
G37*
%LPD*%
%LPC*%
G36*
X170433Y630427D02*
X170433Y630427D01*
X170433Y639573D01*
X170690Y639533D01*
X172477Y638952D01*
X174151Y638099D01*
X175672Y636994D01*
X177000Y635666D01*
X178105Y634145D01*
X178958Y632471D01*
X179539Y630684D01*
X179579Y630427D01*
X170433Y630427D01*
G37*
%LPD*%
%LPC*%
G36*
X170433Y625349D02*
X170433Y625349D01*
X179579Y625349D01*
X179539Y625092D01*
X178958Y623305D01*
X178105Y621631D01*
X177000Y620110D01*
X175672Y618782D01*
X174151Y617677D01*
X172477Y616824D01*
X170690Y616243D01*
X170433Y616203D01*
X170433Y625349D01*
G37*
%LPD*%
%LPC*%
G36*
X156209Y630427D02*
X156209Y630427D01*
X156249Y630684D01*
X156830Y632471D01*
X157683Y634145D01*
X158788Y635666D01*
X160116Y636994D01*
X161637Y638099D01*
X163311Y638952D01*
X165098Y639533D01*
X165355Y639573D01*
X165355Y630427D01*
X156209Y630427D01*
G37*
%LPD*%
%LPC*%
G36*
X165098Y616243D02*
X165098Y616243D01*
X163311Y616824D01*
X161637Y617677D01*
X160116Y618782D01*
X158788Y620110D01*
X157683Y621631D01*
X156830Y623305D01*
X156249Y625092D01*
X156209Y625349D01*
X165355Y625349D01*
X165355Y616203D01*
X165098Y616243D01*
G37*
%LPD*%
%LPC*%
G36*
X433549Y507049D02*
X433549Y507049D01*
X433549Y515953D01*
X434328Y515830D01*
X435944Y515305D01*
X437458Y514533D01*
X438833Y513535D01*
X440035Y512333D01*
X441033Y510958D01*
X441805Y509444D01*
X442330Y507828D01*
X442453Y507049D01*
X433549Y507049D01*
G37*
%LPD*%
%LPC*%
G36*
X642149Y507049D02*
X642149Y507049D01*
X642149Y515953D01*
X642928Y515830D01*
X644544Y515305D01*
X646058Y514533D01*
X647433Y513535D01*
X648635Y512333D01*
X649633Y510958D01*
X650405Y509444D01*
X650930Y507828D01*
X651053Y507049D01*
X642149Y507049D01*
G37*
%LPD*%
%LPC*%
G36*
X629747Y507049D02*
X629747Y507049D01*
X629870Y507828D01*
X630395Y509444D01*
X631167Y510958D01*
X632165Y512333D01*
X633367Y513535D01*
X634742Y514533D01*
X636256Y515305D01*
X637872Y515830D01*
X638651Y515953D01*
X638651Y507049D01*
X629747Y507049D01*
G37*
%LPD*%
%LPC*%
G36*
X421147Y507049D02*
X421147Y507049D01*
X421270Y507828D01*
X421795Y509444D01*
X422567Y510958D01*
X423565Y512333D01*
X424767Y513535D01*
X426142Y514533D01*
X427656Y515305D01*
X429272Y515830D01*
X430051Y515953D01*
X430051Y507049D01*
X421147Y507049D01*
G37*
%LPD*%
%LPC*%
G36*
X218147Y471649D02*
X218147Y471649D01*
X218270Y472428D01*
X218795Y474044D01*
X219567Y475558D01*
X220565Y476933D01*
X221767Y478135D01*
X223142Y479133D01*
X224656Y479905D01*
X226272Y480430D01*
X227051Y480553D01*
X227051Y471649D01*
X218147Y471649D01*
G37*
%LPD*%
%LPC*%
G36*
X226272Y459370D02*
X226272Y459370D01*
X224656Y459895D01*
X223142Y460667D01*
X221767Y461665D01*
X220565Y462867D01*
X219567Y464242D01*
X218795Y465756D01*
X218270Y467372D01*
X218147Y468151D01*
X227051Y468151D01*
X227051Y459247D01*
X226272Y459370D01*
G37*
%LPD*%
%LPC*%
G36*
X541899Y133299D02*
X541899Y133299D01*
X541899Y140177D01*
X542026Y140157D01*
X543386Y139715D01*
X544659Y139067D01*
X545816Y138226D01*
X546826Y137216D01*
X547667Y136059D01*
X548315Y134786D01*
X548757Y133426D01*
X548777Y133299D01*
X541899Y133299D01*
G37*
%LPD*%
%LPC*%
G36*
X541899Y129301D02*
X541899Y129301D01*
X548777Y129301D01*
X548757Y129174D01*
X548315Y127814D01*
X547667Y126541D01*
X546826Y125384D01*
X545816Y124374D01*
X544659Y123533D01*
X543386Y122885D01*
X542026Y122443D01*
X541899Y122423D01*
X541899Y129301D01*
G37*
%LPD*%
%LPC*%
G36*
X167893Y627887D02*
X167893Y627887D01*
X167893Y627889D01*
X167895Y627889D01*
X167895Y627887D01*
X167893Y627887D01*
G37*
%LPD*%
D10*
X431800Y479900D03*
X431800Y505300D03*
X640400Y479900D03*
X640400Y505300D03*
D11*
X253800Y469900D03*
D10*
X228800Y469900D03*
D12*
X711200Y762000D03*
X736600Y762000D03*
X304800Y546100D03*
X381000Y546100D03*
D13*
X533400Y774700D03*
X609600Y774700D03*
D12*
X167894Y627888D03*
X167894Y692912D03*
X213106Y627888D03*
X213106Y692912D03*
D14*
X304800Y622300D03*
X330200Y622300D03*
X355600Y622300D03*
X381000Y622300D03*
X406400Y622300D03*
X431800Y622300D03*
X457200Y622300D03*
X482600Y622300D03*
X508000Y622300D03*
X533400Y622300D03*
X558800Y622300D03*
X584200Y622300D03*
X609600Y622300D03*
X635000Y622300D03*
X635000Y698500D03*
X609600Y698500D03*
X584200Y698500D03*
X558800Y698500D03*
X533400Y698500D03*
X508000Y698500D03*
X482600Y698500D03*
X457200Y698500D03*
X431800Y698500D03*
X406400Y698500D03*
X381000Y698500D03*
X355600Y698500D03*
X330200Y698500D03*
X304800Y698500D03*
D15*
X359900Y131300D03*
X379900Y131300D03*
X399900Y131300D03*
X419900Y131300D03*
X439900Y131300D03*
X459900Y131300D03*
X479900Y131300D03*
X499900Y131300D03*
X519900Y131300D03*
X539900Y131300D03*
X539900Y351300D03*
X519900Y351300D03*
X499900Y351300D03*
X479900Y351300D03*
X459900Y351300D03*
X439900Y351300D03*
X419900Y351300D03*
X399900Y351300D03*
X379900Y351300D03*
X359900Y351300D03*
D10*
X510700Y479900D03*
X561500Y479900D03*
D12*
X820000Y350000D03*
X820000Y375400D03*
X820000Y400800D03*
X820000Y426200D03*
X820000Y451600D03*
X820000Y477000D03*
X820000Y502400D03*
X820000Y527800D03*
X820000Y553200D03*
X820000Y578600D03*
D16*
X304800Y546100D02*
X304800Y622300D01*
X218694Y622300D01*
X213106Y627888D01*
D17*
X530000Y810000D02*
X780000Y810000D01*
X530000Y810000D02*
X508000Y788000D01*
X508000Y698500D01*
X780000Y810000D02*
X840000Y750000D01*
X840000Y540000D01*
X827800Y527800D01*
X820000Y527800D01*
X457200Y554700D02*
X457200Y622300D01*
X448600Y546100D02*
X381000Y546100D01*
X448600Y546100D02*
X457200Y554700D01*
D16*
X533400Y622300D02*
X561500Y594200D01*
X561500Y479900D01*
X640400Y479900D01*
X510700Y619600D02*
X508000Y622300D01*
X510700Y619600D02*
X510700Y479900D01*
X431800Y479900D01*
X533400Y698500D02*
X533400Y774700D01*
X609600Y774700D02*
X622300Y762000D01*
X711200Y762000D01*
X660000Y650000D02*
X750000Y560000D01*
X750000Y460000D01*
X758400Y451600D01*
X820000Y451600D01*
X330200Y659800D02*
X330200Y698500D01*
X340000Y650000D02*
X660000Y650000D01*
X340000Y650000D02*
X330200Y659800D01*
X720000Y560000D02*
X720000Y440000D01*
X733800Y426200D01*
X820000Y426200D01*
X720000Y560000D02*
X637500Y642500D01*
X310000Y642500D01*
X304800Y647700D01*
X304800Y698500D01*
X355600Y622300D02*
X355600Y605600D01*
X340000Y590000D01*
X340000Y191200D01*
X399900Y131300D01*
X330200Y181000D02*
X330200Y622300D01*
X330200Y181000D02*
X379900Y131300D01*
X700000Y420000D02*
X710000Y410000D01*
X770000Y410000D01*
X780000Y400000D01*
X780000Y360000D01*
X790000Y350000D01*
X820000Y350000D01*
X431800Y698500D02*
X415800Y682500D01*
X617072Y635428D02*
X622500Y630000D01*
X622500Y555000D01*
X627500Y550000D01*
X357500Y635428D02*
X352067Y635428D01*
X357500Y635428D02*
X617072Y635428D01*
X700000Y542500D02*
X700000Y420000D01*
X700000Y542500D02*
X692500Y550000D01*
X627500Y550000D01*
X347500Y682500D02*
X342500Y687500D01*
X342500Y710000D01*
X337500Y715000D01*
X295000Y715000D01*
X290000Y710000D01*
X290000Y642500D01*
X297072Y635428D01*
X352067Y635428D01*
X347500Y682500D02*
X415800Y682500D01*
X482600Y687400D02*
X510000Y660000D01*
X482600Y687400D02*
X482600Y698500D01*
X760000Y537500D02*
X760000Y490000D01*
X760000Y537500D02*
X760000Y560000D01*
D17*
X359900Y131300D02*
X391200Y100000D01*
X820000Y100000D01*
X860000Y140000D01*
X860000Y470000D01*
X853000Y477000D01*
D16*
X773000Y477000D02*
X760000Y490000D01*
X773000Y477000D02*
X820000Y477000D01*
D17*
X853000Y477000D01*
D16*
X760000Y572500D02*
X672500Y660000D01*
X760000Y572500D02*
X760000Y560000D01*
X672500Y660000D02*
X510000Y660000D01*
X381000Y622300D02*
X381000Y611000D01*
X350000Y580000D01*
X350000Y390000D01*
X360000Y380000D01*
X720000Y380000D01*
X730000Y370000D01*
X730000Y320000D01*
X750000Y300000D01*
X830000Y300000D01*
X850000Y320000D01*
X850000Y370000D01*
X844600Y375400D01*
X820000Y375400D01*
M02*
