G04 EAGLE Gerber RS-274X export*
G75*
%MOMM*%
%FSLAX34Y34*%
%LPD*%
%INSilkscreen Top*%
%IPPOS*%
%AMOC8*
5,1,8,0,0,1.08239X$1,22.5*%
G01*
%ADD10C,0.203200*%
%ADD11C,0.127000*%
%ADD12C,0.025400*%
%ADD13C,0.152400*%
%ADD14C,0.015238*%
%ADD15C,0.254000*%
%ADD16C,0.101600*%


D10*
X425450Y492600D02*
X438150Y492600D01*
D11*
X421005Y491104D02*
X421005Y490032D01*
X421003Y489967D01*
X420997Y489903D01*
X420987Y489839D01*
X420974Y489775D01*
X420956Y489713D01*
X420935Y489652D01*
X420911Y489592D01*
X420882Y489534D01*
X420850Y489477D01*
X420815Y489423D01*
X420777Y489371D01*
X420735Y489321D01*
X420691Y489274D01*
X420644Y489230D01*
X420594Y489188D01*
X420542Y489150D01*
X420488Y489115D01*
X420431Y489083D01*
X420373Y489054D01*
X420313Y489030D01*
X420252Y489009D01*
X420190Y488991D01*
X420126Y488978D01*
X420062Y488968D01*
X419998Y488962D01*
X419933Y488960D01*
X419933Y488959D02*
X417251Y488959D01*
X417186Y488961D01*
X417122Y488967D01*
X417058Y488977D01*
X416994Y488990D01*
X416932Y489008D01*
X416871Y489029D01*
X416811Y489054D01*
X416752Y489082D01*
X416696Y489114D01*
X416641Y489149D01*
X416589Y489187D01*
X416539Y489229D01*
X416492Y489273D01*
X416448Y489320D01*
X416406Y489370D01*
X416368Y489422D01*
X416333Y489477D01*
X416301Y489533D01*
X416273Y489592D01*
X416248Y489651D01*
X416227Y489713D01*
X416209Y489775D01*
X416196Y489839D01*
X416186Y489903D01*
X416180Y489967D01*
X416178Y490032D01*
X416179Y490032D02*
X416179Y491104D01*
X417251Y493560D02*
X416179Y494900D01*
X421005Y494900D01*
X421005Y493560D02*
X421005Y496241D01*
D10*
X634050Y492600D02*
X646750Y492600D01*
D11*
X629605Y491104D02*
X629605Y490032D01*
X629603Y489967D01*
X629597Y489903D01*
X629587Y489839D01*
X629574Y489775D01*
X629556Y489713D01*
X629535Y489652D01*
X629511Y489592D01*
X629482Y489534D01*
X629450Y489477D01*
X629415Y489423D01*
X629377Y489371D01*
X629335Y489321D01*
X629291Y489274D01*
X629244Y489230D01*
X629194Y489188D01*
X629142Y489150D01*
X629088Y489115D01*
X629031Y489083D01*
X628973Y489054D01*
X628913Y489030D01*
X628852Y489009D01*
X628790Y488991D01*
X628726Y488978D01*
X628662Y488968D01*
X628598Y488962D01*
X628533Y488960D01*
X628533Y488959D02*
X625851Y488959D01*
X625786Y488961D01*
X625722Y488967D01*
X625658Y488977D01*
X625594Y488990D01*
X625532Y489008D01*
X625471Y489029D01*
X625411Y489054D01*
X625352Y489082D01*
X625296Y489114D01*
X625241Y489149D01*
X625189Y489187D01*
X625139Y489229D01*
X625092Y489273D01*
X625048Y489320D01*
X625006Y489370D01*
X624968Y489422D01*
X624933Y489477D01*
X624901Y489533D01*
X624873Y489592D01*
X624848Y489651D01*
X624827Y489713D01*
X624809Y489775D01*
X624796Y489839D01*
X624786Y489903D01*
X624780Y489967D01*
X624778Y490032D01*
X624779Y490032D02*
X624779Y491104D01*
X624779Y495034D02*
X624781Y495102D01*
X624787Y495169D01*
X624796Y495236D01*
X624809Y495303D01*
X624826Y495368D01*
X624847Y495433D01*
X624871Y495496D01*
X624899Y495558D01*
X624930Y495618D01*
X624964Y495676D01*
X625002Y495732D01*
X625042Y495787D01*
X625086Y495838D01*
X625133Y495887D01*
X625182Y495934D01*
X625233Y495978D01*
X625288Y496018D01*
X625344Y496056D01*
X625402Y496090D01*
X625462Y496121D01*
X625524Y496149D01*
X625587Y496173D01*
X625652Y496194D01*
X625717Y496211D01*
X625784Y496224D01*
X625851Y496233D01*
X625918Y496239D01*
X625986Y496241D01*
X624779Y495034D02*
X624781Y494956D01*
X624787Y494878D01*
X624797Y494801D01*
X624810Y494724D01*
X624828Y494648D01*
X624849Y494573D01*
X624874Y494499D01*
X624903Y494427D01*
X624935Y494356D01*
X624971Y494287D01*
X625010Y494219D01*
X625053Y494154D01*
X625099Y494091D01*
X625148Y494030D01*
X625200Y493972D01*
X625255Y493917D01*
X625312Y493864D01*
X625372Y493815D01*
X625435Y493768D01*
X625500Y493725D01*
X625566Y493685D01*
X625635Y493648D01*
X625706Y493615D01*
X625778Y493585D01*
X625852Y493559D01*
X626924Y495839D02*
X626875Y495888D01*
X626823Y495935D01*
X626768Y495978D01*
X626711Y496019D01*
X626652Y496057D01*
X626591Y496091D01*
X626528Y496122D01*
X626464Y496150D01*
X626398Y496174D01*
X626332Y496194D01*
X626264Y496211D01*
X626195Y496224D01*
X626126Y496233D01*
X626056Y496239D01*
X625986Y496241D01*
X626924Y495839D02*
X629605Y493560D01*
X629605Y496241D01*
D10*
X216300Y469900D02*
X216308Y470514D01*
X216330Y471127D01*
X216368Y471739D01*
X216420Y472350D01*
X216488Y472960D01*
X216571Y473568D01*
X216668Y474174D01*
X216780Y474777D01*
X216907Y475378D01*
X217049Y475975D01*
X217206Y476568D01*
X217376Y477157D01*
X217562Y477742D01*
X217761Y478322D01*
X217975Y478897D01*
X218203Y479467D01*
X218445Y480031D01*
X218700Y480589D01*
X218969Y481140D01*
X219252Y481685D01*
X219548Y482222D01*
X219857Y482753D01*
X220179Y483275D01*
X220513Y483789D01*
X220860Y484295D01*
X221220Y484792D01*
X221591Y485281D01*
X221975Y485760D01*
X222370Y486229D01*
X222776Y486689D01*
X223194Y487139D01*
X223622Y487578D01*
X224061Y488006D01*
X224511Y488424D01*
X224971Y488830D01*
X225440Y489225D01*
X225919Y489609D01*
X226408Y489980D01*
X226905Y490340D01*
X227411Y490687D01*
X227925Y491021D01*
X228447Y491343D01*
X228978Y491652D01*
X229515Y491948D01*
X230060Y492231D01*
X230611Y492500D01*
X231169Y492755D01*
X231733Y492997D01*
X232303Y493225D01*
X232878Y493439D01*
X233458Y493638D01*
X234043Y493824D01*
X234632Y493994D01*
X235225Y494151D01*
X235822Y494293D01*
X236423Y494420D01*
X237026Y494532D01*
X237632Y494629D01*
X238240Y494712D01*
X238850Y494780D01*
X239461Y494832D01*
X240073Y494870D01*
X240686Y494892D01*
X241300Y494900D01*
X241914Y494892D01*
X242527Y494870D01*
X243139Y494832D01*
X243750Y494780D01*
X244360Y494712D01*
X244968Y494629D01*
X245574Y494532D01*
X246177Y494420D01*
X246778Y494293D01*
X247375Y494151D01*
X247968Y493994D01*
X248557Y493824D01*
X249142Y493638D01*
X249722Y493439D01*
X250297Y493225D01*
X250867Y492997D01*
X251431Y492755D01*
X251989Y492500D01*
X252540Y492231D01*
X253085Y491948D01*
X253622Y491652D01*
X254153Y491343D01*
X254675Y491021D01*
X255189Y490687D01*
X255695Y490340D01*
X256192Y489980D01*
X256681Y489609D01*
X257160Y489225D01*
X257629Y488830D01*
X258089Y488424D01*
X258539Y488006D01*
X258978Y487578D01*
X259406Y487139D01*
X259824Y486689D01*
X260230Y486229D01*
X260625Y485760D01*
X261009Y485281D01*
X261380Y484792D01*
X261740Y484295D01*
X262087Y483789D01*
X262421Y483275D01*
X262743Y482753D01*
X263052Y482222D01*
X263348Y481685D01*
X263631Y481140D01*
X263900Y480589D01*
X264155Y480031D01*
X264397Y479467D01*
X264625Y478897D01*
X264839Y478322D01*
X265038Y477742D01*
X265224Y477157D01*
X265394Y476568D01*
X265551Y475975D01*
X265693Y475378D01*
X265820Y474777D01*
X265932Y474174D01*
X266029Y473568D01*
X266112Y472960D01*
X266180Y472350D01*
X266232Y471739D01*
X266270Y471127D01*
X266292Y470514D01*
X266300Y469900D01*
X266292Y469286D01*
X266270Y468673D01*
X266232Y468061D01*
X266180Y467450D01*
X266112Y466840D01*
X266029Y466232D01*
X265932Y465626D01*
X265820Y465023D01*
X265693Y464422D01*
X265551Y463825D01*
X265394Y463232D01*
X265224Y462643D01*
X265038Y462058D01*
X264839Y461478D01*
X264625Y460903D01*
X264397Y460333D01*
X264155Y459769D01*
X263900Y459211D01*
X263631Y458660D01*
X263348Y458115D01*
X263052Y457578D01*
X262743Y457047D01*
X262421Y456525D01*
X262087Y456011D01*
X261740Y455505D01*
X261380Y455008D01*
X261009Y454519D01*
X260625Y454040D01*
X260230Y453571D01*
X259824Y453111D01*
X259406Y452661D01*
X258978Y452222D01*
X258539Y451794D01*
X258089Y451376D01*
X257629Y450970D01*
X257160Y450575D01*
X256681Y450191D01*
X256192Y449820D01*
X255695Y449460D01*
X255189Y449113D01*
X254675Y448779D01*
X254153Y448457D01*
X253622Y448148D01*
X253085Y447852D01*
X252540Y447569D01*
X251989Y447300D01*
X251431Y447045D01*
X250867Y446803D01*
X250297Y446575D01*
X249722Y446361D01*
X249142Y446162D01*
X248557Y445976D01*
X247968Y445806D01*
X247375Y445649D01*
X246778Y445507D01*
X246177Y445380D01*
X245574Y445268D01*
X244968Y445171D01*
X244360Y445088D01*
X243750Y445020D01*
X243139Y444968D01*
X242527Y444930D01*
X241914Y444908D01*
X241300Y444900D01*
X240686Y444908D01*
X240073Y444930D01*
X239461Y444968D01*
X238850Y445020D01*
X238240Y445088D01*
X237632Y445171D01*
X237026Y445268D01*
X236423Y445380D01*
X235822Y445507D01*
X235225Y445649D01*
X234632Y445806D01*
X234043Y445976D01*
X233458Y446162D01*
X232878Y446361D01*
X232303Y446575D01*
X231733Y446803D01*
X231169Y447045D01*
X230611Y447300D01*
X230060Y447569D01*
X229515Y447852D01*
X228978Y448148D01*
X228447Y448457D01*
X227925Y448779D01*
X227411Y449113D01*
X226905Y449460D01*
X226408Y449820D01*
X225919Y450191D01*
X225440Y450575D01*
X224971Y450970D01*
X224511Y451376D01*
X224061Y451794D01*
X223622Y452222D01*
X223194Y452661D01*
X222776Y453111D01*
X222370Y453571D01*
X221975Y454040D01*
X221591Y454519D01*
X221220Y455008D01*
X220860Y455505D01*
X220513Y456011D01*
X220179Y456525D01*
X219857Y457047D01*
X219548Y457578D01*
X219252Y458115D01*
X218969Y458660D01*
X218700Y459211D01*
X218445Y459769D01*
X218203Y460333D01*
X217975Y460903D01*
X217761Y461478D01*
X217562Y462058D01*
X217376Y462643D01*
X217206Y463232D01*
X217049Y463825D01*
X216907Y464422D01*
X216780Y465023D01*
X216668Y465626D01*
X216571Y466232D01*
X216488Y466840D01*
X216420Y467450D01*
X216368Y468061D01*
X216330Y468673D01*
X216308Y469286D01*
X216300Y469900D01*
X223720Y483870D02*
X233880Y483870D01*
X248720Y483870D02*
X258880Y483870D01*
X253800Y488950D02*
X253800Y478790D01*
D11*
X239804Y497205D02*
X238732Y497205D01*
X238667Y497207D01*
X238603Y497213D01*
X238539Y497223D01*
X238475Y497236D01*
X238413Y497254D01*
X238352Y497275D01*
X238292Y497299D01*
X238234Y497328D01*
X238177Y497360D01*
X238123Y497395D01*
X238071Y497433D01*
X238021Y497475D01*
X237974Y497519D01*
X237930Y497566D01*
X237888Y497616D01*
X237850Y497668D01*
X237815Y497722D01*
X237783Y497779D01*
X237754Y497837D01*
X237730Y497897D01*
X237709Y497958D01*
X237691Y498020D01*
X237678Y498084D01*
X237668Y498148D01*
X237662Y498212D01*
X237660Y498277D01*
X237659Y498277D02*
X237659Y500959D01*
X237660Y500959D02*
X237662Y501024D01*
X237668Y501088D01*
X237678Y501152D01*
X237691Y501216D01*
X237709Y501278D01*
X237730Y501339D01*
X237754Y501399D01*
X237783Y501457D01*
X237815Y501514D01*
X237850Y501568D01*
X237888Y501620D01*
X237930Y501670D01*
X237974Y501717D01*
X238021Y501761D01*
X238071Y501803D01*
X238123Y501841D01*
X238177Y501876D01*
X238234Y501908D01*
X238292Y501937D01*
X238352Y501961D01*
X238413Y501982D01*
X238475Y502000D01*
X238539Y502013D01*
X238603Y502023D01*
X238667Y502029D01*
X238732Y502031D01*
X239804Y502031D01*
X242260Y497205D02*
X243600Y497205D01*
X243671Y497207D01*
X243743Y497213D01*
X243813Y497222D01*
X243883Y497235D01*
X243953Y497252D01*
X244021Y497273D01*
X244088Y497297D01*
X244154Y497325D01*
X244218Y497356D01*
X244281Y497391D01*
X244341Y497429D01*
X244400Y497470D01*
X244456Y497514D01*
X244510Y497561D01*
X244561Y497610D01*
X244609Y497663D01*
X244655Y497718D01*
X244697Y497775D01*
X244737Y497835D01*
X244773Y497896D01*
X244806Y497960D01*
X244835Y498025D01*
X244861Y498091D01*
X244884Y498159D01*
X244903Y498228D01*
X244918Y498298D01*
X244929Y498368D01*
X244937Y498439D01*
X244941Y498510D01*
X244941Y498582D01*
X244937Y498653D01*
X244929Y498724D01*
X244918Y498794D01*
X244903Y498864D01*
X244884Y498933D01*
X244861Y499001D01*
X244835Y499067D01*
X244806Y499132D01*
X244773Y499196D01*
X244737Y499257D01*
X244697Y499317D01*
X244655Y499374D01*
X244609Y499429D01*
X244561Y499482D01*
X244510Y499531D01*
X244456Y499578D01*
X244400Y499622D01*
X244341Y499663D01*
X244281Y499701D01*
X244218Y499736D01*
X244154Y499767D01*
X244088Y499795D01*
X244021Y499819D01*
X243953Y499840D01*
X243883Y499857D01*
X243813Y499870D01*
X243743Y499879D01*
X243671Y499885D01*
X243600Y499887D01*
X243868Y502031D02*
X242260Y502031D01*
X243868Y502031D02*
X243933Y502029D01*
X243997Y502023D01*
X244061Y502013D01*
X244125Y502000D01*
X244187Y501982D01*
X244248Y501961D01*
X244308Y501937D01*
X244366Y501908D01*
X244423Y501876D01*
X244477Y501841D01*
X244529Y501803D01*
X244579Y501761D01*
X244626Y501717D01*
X244670Y501670D01*
X244712Y501620D01*
X244750Y501568D01*
X244785Y501514D01*
X244817Y501457D01*
X244846Y501399D01*
X244870Y501339D01*
X244891Y501278D01*
X244909Y501216D01*
X244922Y501152D01*
X244932Y501088D01*
X244938Y501024D01*
X244940Y500959D01*
X244938Y500894D01*
X244932Y500830D01*
X244922Y500766D01*
X244909Y500702D01*
X244891Y500640D01*
X244870Y500579D01*
X244846Y500519D01*
X244817Y500461D01*
X244785Y500404D01*
X244750Y500350D01*
X244712Y500298D01*
X244670Y500248D01*
X244626Y500201D01*
X244579Y500157D01*
X244529Y500115D01*
X244477Y500077D01*
X244423Y500042D01*
X244366Y500010D01*
X244308Y499981D01*
X244248Y499957D01*
X244187Y499936D01*
X244125Y499918D01*
X244061Y499905D01*
X243997Y499895D01*
X243933Y499889D01*
X243868Y499887D01*
X243868Y499886D02*
X242796Y499886D01*
D10*
X749300Y742950D02*
X749300Y781050D01*
D12*
X750138Y781837D02*
X748309Y780465D01*
X748309Y780466D02*
X747850Y781057D01*
X747377Y781637D01*
X746890Y782205D01*
X746389Y782761D01*
X745875Y783304D01*
X745348Y783835D01*
X744808Y784353D01*
X744255Y784858D01*
X743690Y785348D01*
X743113Y785825D01*
X742525Y786288D01*
X741926Y786736D01*
X741315Y787169D01*
X740695Y787588D01*
X740064Y787990D01*
X739424Y788378D01*
X738775Y788750D01*
X738116Y789105D01*
X737449Y789445D01*
X736774Y789768D01*
X736091Y790074D01*
X735401Y790364D01*
X734705Y790637D01*
X734001Y790892D01*
X733292Y791130D01*
X732577Y791351D01*
X731857Y791555D01*
X731132Y791740D01*
X730403Y791908D01*
X729669Y792058D01*
X728933Y792190D01*
X728193Y792304D01*
X727451Y792400D01*
X726707Y792478D01*
X725961Y792538D01*
X725214Y792579D01*
X724466Y792602D01*
X723717Y792606D01*
X722969Y792593D01*
X722221Y792561D01*
X721475Y792511D01*
X720730Y792442D01*
X719986Y792356D01*
X719245Y792251D01*
X718507Y792128D01*
X717772Y791987D01*
X717041Y791829D01*
X716314Y791652D01*
X715591Y791458D01*
X714873Y791246D01*
X714161Y791016D01*
X713455Y790769D01*
X712754Y790505D01*
X712061Y790224D01*
X711374Y789927D01*
X710695Y789612D01*
X710024Y789281D01*
X709361Y788934D01*
X708707Y788570D01*
X708062Y788191D01*
X707427Y787796D01*
X706801Y787385D01*
X706185Y786960D01*
X705580Y786519D01*
X704986Y786064D01*
X704404Y785594D01*
X703833Y785110D01*
X703274Y784613D01*
X702727Y784102D01*
X702193Y783578D01*
X701672Y783041D01*
X701164Y782491D01*
X700670Y781929D01*
X700190Y781355D01*
X699724Y780770D01*
X699272Y780173D01*
X698835Y779565D01*
X698413Y778947D01*
X698006Y778319D01*
X697615Y777681D01*
X697240Y777034D01*
X696880Y776378D01*
X696537Y775713D01*
X696210Y775040D01*
X695899Y774359D01*
X695605Y773671D01*
X695329Y772975D01*
X695069Y772274D01*
X694826Y771566D01*
X694601Y770852D01*
X694393Y770133D01*
X694203Y769409D01*
X694031Y768681D01*
X693877Y767949D01*
X693740Y767213D01*
X693622Y766474D01*
X693521Y765732D01*
X693439Y764989D01*
X693375Y764243D01*
X693330Y763496D01*
X693302Y762748D01*
X693293Y762000D01*
X693302Y761252D01*
X693330Y760504D01*
X693375Y759757D01*
X693439Y759011D01*
X693521Y758268D01*
X693622Y757526D01*
X693740Y756787D01*
X693877Y756051D01*
X694031Y755319D01*
X694203Y754591D01*
X694393Y753867D01*
X694601Y753148D01*
X694826Y752434D01*
X695069Y751726D01*
X695329Y751025D01*
X695605Y750329D01*
X695899Y749641D01*
X696210Y748960D01*
X696537Y748287D01*
X696880Y747622D01*
X697240Y746966D01*
X697615Y746319D01*
X698006Y745681D01*
X698413Y745053D01*
X698835Y744435D01*
X699272Y743827D01*
X699724Y743230D01*
X700190Y742645D01*
X700670Y742071D01*
X701164Y741509D01*
X701672Y740959D01*
X702193Y740422D01*
X702727Y739898D01*
X703274Y739387D01*
X703833Y738890D01*
X704404Y738406D01*
X704986Y737936D01*
X705580Y737481D01*
X706185Y737040D01*
X706801Y736615D01*
X707427Y736204D01*
X708062Y735809D01*
X708707Y735430D01*
X709361Y735066D01*
X710024Y734719D01*
X710695Y734388D01*
X711374Y734073D01*
X712061Y733776D01*
X712754Y733495D01*
X713455Y733231D01*
X714161Y732984D01*
X714873Y732754D01*
X715591Y732542D01*
X716314Y732348D01*
X717041Y732171D01*
X717772Y732013D01*
X718507Y731872D01*
X719245Y731749D01*
X719986Y731644D01*
X720730Y731558D01*
X721475Y731489D01*
X722221Y731439D01*
X722969Y731407D01*
X723717Y731394D01*
X724466Y731398D01*
X725214Y731421D01*
X725961Y731462D01*
X726707Y731522D01*
X727451Y731600D01*
X728193Y731696D01*
X728933Y731810D01*
X729669Y731942D01*
X730403Y732092D01*
X731132Y732260D01*
X731857Y732445D01*
X732577Y732649D01*
X733292Y732870D01*
X734001Y733108D01*
X734705Y733363D01*
X735401Y733636D01*
X736091Y733926D01*
X736774Y734232D01*
X737449Y734555D01*
X738116Y734895D01*
X738775Y735250D01*
X739424Y735622D01*
X740064Y736010D01*
X740695Y736412D01*
X741315Y736831D01*
X741926Y737264D01*
X742525Y737712D01*
X743113Y738175D01*
X743690Y738652D01*
X744255Y739142D01*
X744808Y739647D01*
X745348Y740165D01*
X745875Y740696D01*
X746389Y741239D01*
X746890Y741795D01*
X747377Y742363D01*
X747850Y742943D01*
X748309Y743534D01*
X750138Y742163D01*
X749645Y741527D01*
X749137Y740904D01*
X748613Y740293D01*
X748075Y739695D01*
X747523Y739111D01*
X746956Y738540D01*
X746376Y737983D01*
X745782Y737441D01*
X745175Y736913D01*
X744555Y736401D01*
X743923Y735903D01*
X743279Y735421D01*
X742623Y734956D01*
X741956Y734506D01*
X741278Y734073D01*
X740590Y733656D01*
X739892Y733256D01*
X739185Y732874D01*
X738468Y732509D01*
X737743Y732162D01*
X737009Y731832D01*
X736267Y731521D01*
X735518Y731227D01*
X734763Y730952D01*
X734000Y730696D01*
X733232Y730458D01*
X732458Y730240D01*
X731679Y730040D01*
X730895Y729859D01*
X730107Y729698D01*
X729315Y729556D01*
X728520Y729433D01*
X727723Y729330D01*
X726923Y729246D01*
X726121Y729182D01*
X725318Y729138D01*
X724514Y729113D01*
X723710Y729108D01*
X722905Y729122D01*
X722102Y729156D01*
X721299Y729210D01*
X720498Y729283D01*
X719699Y729376D01*
X718903Y729489D01*
X718110Y729621D01*
X717320Y729772D01*
X716534Y729942D01*
X715752Y730132D01*
X714975Y730341D01*
X714204Y730569D01*
X713438Y730815D01*
X712679Y731080D01*
X711926Y731364D01*
X711181Y731666D01*
X710443Y731986D01*
X709713Y732324D01*
X708991Y732680D01*
X708279Y733053D01*
X707576Y733444D01*
X706883Y733851D01*
X706199Y734276D01*
X705527Y734717D01*
X704865Y735174D01*
X704215Y735648D01*
X703577Y736137D01*
X702950Y736641D01*
X702336Y737161D01*
X701736Y737696D01*
X701148Y738245D01*
X700574Y738809D01*
X700014Y739386D01*
X699468Y739977D01*
X698937Y740581D01*
X698421Y741197D01*
X697920Y741827D01*
X697434Y742468D01*
X696964Y743121D01*
X696511Y743785D01*
X696074Y744460D01*
X695653Y745146D01*
X695249Y745841D01*
X694863Y746547D01*
X694494Y747261D01*
X694142Y747985D01*
X693808Y748717D01*
X693493Y749456D01*
X693195Y750204D01*
X692916Y750958D01*
X692655Y751719D01*
X692413Y752486D01*
X692190Y753259D01*
X691986Y754037D01*
X691800Y754819D01*
X691634Y755606D01*
X691488Y756397D01*
X691360Y757191D01*
X691253Y757988D01*
X691164Y758788D01*
X691095Y759589D01*
X691046Y760392D01*
X691017Y761196D01*
X691007Y762000D01*
X691017Y762804D01*
X691046Y763608D01*
X691095Y764411D01*
X691164Y765212D01*
X691253Y766012D01*
X691360Y766809D01*
X691488Y767603D01*
X691634Y768394D01*
X691800Y769181D01*
X691986Y769963D01*
X692190Y770741D01*
X692413Y771514D01*
X692655Y772281D01*
X692916Y773042D01*
X693195Y773796D01*
X693493Y774544D01*
X693808Y775283D01*
X694142Y776015D01*
X694494Y776739D01*
X694863Y777453D01*
X695249Y778159D01*
X695653Y778854D01*
X696074Y779540D01*
X696511Y780215D01*
X696964Y780879D01*
X697434Y781532D01*
X697920Y782173D01*
X698421Y782803D01*
X698937Y783419D01*
X699468Y784023D01*
X700014Y784614D01*
X700574Y785191D01*
X701148Y785755D01*
X701736Y786304D01*
X702336Y786839D01*
X702950Y787359D01*
X703577Y787863D01*
X704215Y788352D01*
X704865Y788826D01*
X705527Y789283D01*
X706199Y789724D01*
X706883Y790149D01*
X707576Y790556D01*
X708279Y790947D01*
X708991Y791320D01*
X709713Y791676D01*
X710443Y792014D01*
X711181Y792334D01*
X711926Y792636D01*
X712679Y792920D01*
X713438Y793185D01*
X714204Y793431D01*
X714975Y793659D01*
X715752Y793868D01*
X716534Y794058D01*
X717320Y794228D01*
X718110Y794379D01*
X718903Y794511D01*
X719699Y794624D01*
X720498Y794717D01*
X721299Y794790D01*
X722102Y794844D01*
X722905Y794878D01*
X723710Y794892D01*
X724514Y794887D01*
X725318Y794862D01*
X726121Y794818D01*
X726923Y794754D01*
X727723Y794670D01*
X728520Y794567D01*
X729315Y794444D01*
X730107Y794302D01*
X730895Y794141D01*
X731679Y793960D01*
X732458Y793760D01*
X733232Y793542D01*
X734000Y793304D01*
X734763Y793048D01*
X735518Y792773D01*
X736267Y792479D01*
X737009Y792168D01*
X737743Y791838D01*
X738468Y791491D01*
X739185Y791126D01*
X739892Y790744D01*
X740590Y790344D01*
X741278Y789927D01*
X741956Y789494D01*
X742623Y789044D01*
X743279Y788579D01*
X743923Y788097D01*
X744555Y787599D01*
X745175Y787087D01*
X745782Y786559D01*
X746376Y786017D01*
X746956Y785460D01*
X747523Y784889D01*
X748075Y784305D01*
X748613Y783707D01*
X749137Y783096D01*
X749645Y782473D01*
X750138Y781837D01*
X749946Y781693D01*
X749457Y782324D01*
X748952Y782943D01*
X748433Y783549D01*
X747898Y784143D01*
X747350Y784723D01*
X746787Y785289D01*
X746211Y785842D01*
X745621Y786380D01*
X745019Y786904D01*
X744403Y787413D01*
X743776Y787907D01*
X743137Y788385D01*
X742486Y788848D01*
X741824Y789294D01*
X741151Y789724D01*
X740468Y790138D01*
X739775Y790534D01*
X739073Y790914D01*
X738361Y791276D01*
X737641Y791621D01*
X736913Y791948D01*
X736176Y792257D01*
X735433Y792548D01*
X734683Y792821D01*
X733926Y793076D01*
X733163Y793312D01*
X732395Y793529D01*
X731621Y793727D01*
X730843Y793906D01*
X730061Y794067D01*
X729275Y794208D01*
X728486Y794329D01*
X727694Y794432D01*
X726900Y794515D01*
X726104Y794579D01*
X725307Y794623D01*
X724509Y794647D01*
X723710Y794652D01*
X722912Y794638D01*
X722114Y794604D01*
X721318Y794551D01*
X720523Y794478D01*
X719730Y794386D01*
X718939Y794274D01*
X718151Y794143D01*
X717367Y793993D01*
X716587Y793824D01*
X715811Y793635D01*
X715040Y793428D01*
X714274Y793202D01*
X713514Y792957D01*
X712760Y792694D01*
X712013Y792412D01*
X711273Y792113D01*
X710540Y791795D01*
X709816Y791459D01*
X709100Y791106D01*
X708393Y790736D01*
X707695Y790348D01*
X707006Y789943D01*
X706328Y789522D01*
X705661Y789084D01*
X705004Y788630D01*
X704358Y788160D01*
X703725Y787674D01*
X703103Y787173D01*
X702494Y786657D01*
X701897Y786127D01*
X701314Y785581D01*
X700744Y785022D01*
X700188Y784449D01*
X699646Y783862D01*
X699119Y783263D01*
X698606Y782651D01*
X698109Y782026D01*
X697627Y781389D01*
X697161Y780741D01*
X696711Y780082D01*
X696277Y779412D01*
X695859Y778731D01*
X695458Y778040D01*
X695075Y777340D01*
X694708Y776631D01*
X694359Y775913D01*
X694028Y775186D01*
X693714Y774452D01*
X693419Y773710D01*
X693142Y772961D01*
X692883Y772206D01*
X692643Y771445D01*
X692421Y770678D01*
X692218Y769905D01*
X692035Y769128D01*
X691870Y768347D01*
X691724Y767562D01*
X691598Y766774D01*
X691491Y765982D01*
X691403Y765189D01*
X691335Y764393D01*
X691286Y763596D01*
X691257Y762798D01*
X691247Y762000D01*
X691257Y761202D01*
X691286Y760404D01*
X691335Y759607D01*
X691403Y758811D01*
X691491Y758018D01*
X691598Y757226D01*
X691724Y756438D01*
X691870Y755653D01*
X692035Y754872D01*
X692218Y754095D01*
X692421Y753322D01*
X692643Y752555D01*
X692883Y751794D01*
X693142Y751039D01*
X693419Y750290D01*
X693714Y749548D01*
X694028Y748814D01*
X694359Y748087D01*
X694708Y747369D01*
X695075Y746660D01*
X695458Y745960D01*
X695859Y745269D01*
X696277Y744588D01*
X696711Y743918D01*
X697161Y743259D01*
X697627Y742611D01*
X698109Y741974D01*
X698606Y741349D01*
X699119Y740737D01*
X699646Y740138D01*
X700188Y739551D01*
X700744Y738978D01*
X701314Y738419D01*
X701897Y737873D01*
X702494Y737343D01*
X703103Y736827D01*
X703725Y736326D01*
X704358Y735840D01*
X705004Y735370D01*
X705661Y734916D01*
X706328Y734478D01*
X707006Y734057D01*
X707695Y733652D01*
X708393Y733264D01*
X709100Y732894D01*
X709816Y732541D01*
X710540Y732205D01*
X711273Y731887D01*
X712013Y731588D01*
X712760Y731306D01*
X713514Y731043D01*
X714274Y730798D01*
X715040Y730572D01*
X715811Y730365D01*
X716587Y730176D01*
X717367Y730007D01*
X718151Y729857D01*
X718939Y729726D01*
X719730Y729614D01*
X720523Y729522D01*
X721318Y729449D01*
X722114Y729396D01*
X722912Y729362D01*
X723710Y729348D01*
X724509Y729353D01*
X725307Y729377D01*
X726104Y729421D01*
X726900Y729485D01*
X727694Y729568D01*
X728486Y729671D01*
X729275Y729792D01*
X730061Y729933D01*
X730843Y730094D01*
X731621Y730273D01*
X732395Y730471D01*
X733163Y730688D01*
X733926Y730924D01*
X734683Y731179D01*
X735433Y731452D01*
X736176Y731743D01*
X736913Y732052D01*
X737641Y732379D01*
X738361Y732724D01*
X739073Y733086D01*
X739775Y733466D01*
X740468Y733862D01*
X741151Y734276D01*
X741824Y734706D01*
X742486Y735152D01*
X743137Y735615D01*
X743776Y736093D01*
X744403Y736587D01*
X745019Y737096D01*
X745621Y737620D01*
X746211Y738158D01*
X746787Y738711D01*
X747350Y739277D01*
X747898Y739857D01*
X748433Y740451D01*
X748952Y741057D01*
X749457Y741676D01*
X749946Y742307D01*
X749754Y742451D01*
X749268Y741824D01*
X748767Y741210D01*
X748252Y740608D01*
X747721Y740019D01*
X747177Y739444D01*
X746618Y738881D01*
X746046Y738333D01*
X745461Y737798D01*
X744863Y737278D01*
X744252Y736773D01*
X743629Y736283D01*
X742995Y735808D01*
X742348Y735349D01*
X741691Y734906D01*
X741024Y734479D01*
X740345Y734069D01*
X739658Y733675D01*
X738960Y733298D01*
X738254Y732939D01*
X737539Y732596D01*
X736816Y732272D01*
X736086Y731965D01*
X735348Y731676D01*
X734603Y731405D01*
X733851Y731152D01*
X733094Y730918D01*
X732332Y730703D01*
X731564Y730506D01*
X730791Y730328D01*
X730015Y730169D01*
X729235Y730029D01*
X728452Y729908D01*
X727666Y729806D01*
X726877Y729724D01*
X726087Y729661D01*
X725296Y729617D01*
X724504Y729593D01*
X723711Y729588D01*
X722919Y729602D01*
X722127Y729636D01*
X721336Y729689D01*
X720547Y729761D01*
X719760Y729853D01*
X718975Y729963D01*
X718193Y730093D01*
X717415Y730242D01*
X716640Y730411D01*
X715870Y730597D01*
X715104Y730803D01*
X714344Y731028D01*
X713590Y731270D01*
X712842Y731532D01*
X712100Y731811D01*
X711365Y732109D01*
X710638Y732424D01*
X709919Y732757D01*
X709208Y733108D01*
X708506Y733476D01*
X707813Y733861D01*
X707130Y734262D01*
X706457Y734681D01*
X705794Y735115D01*
X705142Y735566D01*
X704502Y736033D01*
X703873Y736515D01*
X703255Y737012D01*
X702651Y737524D01*
X702059Y738051D01*
X701480Y738592D01*
X700914Y739147D01*
X700362Y739716D01*
X699824Y740298D01*
X699301Y740894D01*
X698792Y741501D01*
X698298Y742121D01*
X697820Y742753D01*
X697357Y743397D01*
X696910Y744051D01*
X696480Y744716D01*
X696065Y745392D01*
X695667Y746078D01*
X695287Y746773D01*
X694923Y747477D01*
X694576Y748190D01*
X694247Y748911D01*
X693936Y749640D01*
X693643Y750376D01*
X693368Y751119D01*
X693111Y751869D01*
X692872Y752625D01*
X692652Y753386D01*
X692451Y754153D01*
X692269Y754924D01*
X692105Y755700D01*
X691961Y756479D01*
X691835Y757262D01*
X691729Y758047D01*
X691642Y758835D01*
X691574Y759624D01*
X691526Y760415D01*
X691497Y761207D01*
X691487Y762000D01*
X691497Y762793D01*
X691526Y763585D01*
X691574Y764376D01*
X691642Y765165D01*
X691729Y765953D01*
X691835Y766738D01*
X691961Y767521D01*
X692105Y768300D01*
X692269Y769076D01*
X692451Y769847D01*
X692652Y770614D01*
X692872Y771375D01*
X693111Y772131D01*
X693368Y772881D01*
X693643Y773624D01*
X693936Y774360D01*
X694247Y775089D01*
X694576Y775810D01*
X694923Y776523D01*
X695287Y777227D01*
X695667Y777922D01*
X696065Y778608D01*
X696480Y779284D01*
X696910Y779949D01*
X697357Y780603D01*
X697820Y781247D01*
X698298Y781879D01*
X698792Y782499D01*
X699301Y783106D01*
X699824Y783702D01*
X700362Y784284D01*
X700914Y784853D01*
X701480Y785408D01*
X702059Y785949D01*
X702651Y786476D01*
X703255Y786988D01*
X703873Y787485D01*
X704502Y787967D01*
X705142Y788434D01*
X705794Y788885D01*
X706457Y789319D01*
X707130Y789738D01*
X707813Y790139D01*
X708506Y790524D01*
X709208Y790892D01*
X709919Y791243D01*
X710638Y791576D01*
X711365Y791891D01*
X712100Y792189D01*
X712842Y792468D01*
X713590Y792730D01*
X714344Y792972D01*
X715104Y793197D01*
X715870Y793403D01*
X716640Y793589D01*
X717415Y793758D01*
X718193Y793907D01*
X718975Y794037D01*
X719760Y794147D01*
X720547Y794239D01*
X721336Y794311D01*
X722127Y794364D01*
X722919Y794398D01*
X723711Y794412D01*
X724504Y794407D01*
X725296Y794383D01*
X726087Y794339D01*
X726877Y794276D01*
X727666Y794194D01*
X728452Y794092D01*
X729235Y793971D01*
X730015Y793831D01*
X730791Y793672D01*
X731564Y793494D01*
X732332Y793297D01*
X733094Y793082D01*
X733851Y792848D01*
X734603Y792595D01*
X735348Y792324D01*
X736086Y792035D01*
X736816Y791728D01*
X737539Y791404D01*
X738254Y791061D01*
X738960Y790702D01*
X739658Y790325D01*
X740345Y789931D01*
X741024Y789521D01*
X741691Y789094D01*
X742348Y788651D01*
X742995Y788192D01*
X743629Y787717D01*
X744252Y787227D01*
X744863Y786722D01*
X745461Y786202D01*
X746046Y785667D01*
X746618Y785119D01*
X747177Y784556D01*
X747721Y783981D01*
X748252Y783392D01*
X748767Y782790D01*
X749268Y782176D01*
X749754Y781549D01*
X749562Y781405D01*
X749080Y782027D01*
X748583Y782637D01*
X748071Y783234D01*
X747544Y783818D01*
X747004Y784390D01*
X746449Y784948D01*
X745882Y785493D01*
X745301Y786023D01*
X744707Y786539D01*
X744101Y787041D01*
X743482Y787527D01*
X742852Y787998D01*
X742211Y788454D01*
X741559Y788894D01*
X740896Y789317D01*
X740223Y789725D01*
X739540Y790116D01*
X738848Y790490D01*
X738147Y790846D01*
X737438Y791186D01*
X736720Y791508D01*
X735995Y791813D01*
X735262Y792100D01*
X734523Y792369D01*
X733777Y792619D01*
X733025Y792852D01*
X732268Y793066D01*
X731506Y793261D01*
X730740Y793438D01*
X729969Y793595D01*
X729195Y793734D01*
X728417Y793854D01*
X727637Y793955D01*
X726855Y794037D01*
X726070Y794100D01*
X725285Y794143D01*
X724499Y794167D01*
X723712Y794172D01*
X722925Y794158D01*
X722139Y794125D01*
X721355Y794072D01*
X720571Y794000D01*
X719790Y793909D01*
X719011Y793799D01*
X718235Y793670D01*
X717462Y793522D01*
X716693Y793355D01*
X715929Y793170D01*
X715169Y792966D01*
X714415Y792743D01*
X713666Y792502D01*
X712923Y792243D01*
X712187Y791965D01*
X711458Y791670D01*
X710736Y791357D01*
X710022Y791026D01*
X709317Y790678D01*
X708620Y790313D01*
X707932Y789931D01*
X707254Y789532D01*
X706586Y789117D01*
X705928Y788685D01*
X705281Y788238D01*
X704645Y787775D01*
X704021Y787296D01*
X703408Y786803D01*
X702808Y786294D01*
X702220Y785771D01*
X701645Y785234D01*
X701084Y784683D01*
X700536Y784119D01*
X700002Y783541D01*
X699483Y782950D01*
X698978Y782347D01*
X698488Y781731D01*
X698013Y781104D01*
X697554Y780465D01*
X697110Y779816D01*
X696682Y779155D01*
X696271Y778485D01*
X695876Y777804D01*
X695498Y777114D01*
X695137Y776415D01*
X694793Y775708D01*
X694467Y774992D01*
X694158Y774269D01*
X693867Y773538D01*
X693594Y772800D01*
X693339Y772056D01*
X693102Y771306D01*
X692884Y770550D01*
X692684Y769789D01*
X692503Y769023D01*
X692341Y768254D01*
X692197Y767480D01*
X692073Y766703D01*
X691967Y765924D01*
X691881Y765142D01*
X691814Y764358D01*
X691765Y763573D01*
X691737Y762787D01*
X691727Y762000D01*
X691737Y761213D01*
X691765Y760427D01*
X691814Y759642D01*
X691881Y758858D01*
X691967Y758076D01*
X692073Y757297D01*
X692197Y756520D01*
X692341Y755746D01*
X692503Y754977D01*
X692684Y754211D01*
X692884Y753450D01*
X693102Y752694D01*
X693339Y751944D01*
X693594Y751200D01*
X693867Y750462D01*
X694158Y749731D01*
X694467Y749008D01*
X694793Y748292D01*
X695137Y747585D01*
X695498Y746886D01*
X695876Y746196D01*
X696271Y745515D01*
X696682Y744845D01*
X697110Y744184D01*
X697554Y743535D01*
X698013Y742896D01*
X698488Y742269D01*
X698978Y741653D01*
X699483Y741050D01*
X700002Y740459D01*
X700536Y739881D01*
X701084Y739317D01*
X701645Y738766D01*
X702220Y738229D01*
X702808Y737706D01*
X703408Y737197D01*
X704021Y736704D01*
X704645Y736225D01*
X705281Y735762D01*
X705928Y735315D01*
X706586Y734883D01*
X707254Y734468D01*
X707932Y734069D01*
X708620Y733687D01*
X709317Y733322D01*
X710022Y732974D01*
X710736Y732643D01*
X711458Y732330D01*
X712187Y732035D01*
X712923Y731757D01*
X713666Y731498D01*
X714415Y731257D01*
X715169Y731034D01*
X715929Y730830D01*
X716693Y730645D01*
X717462Y730478D01*
X718235Y730330D01*
X719011Y730201D01*
X719790Y730091D01*
X720571Y730000D01*
X721355Y729928D01*
X722139Y729875D01*
X722925Y729842D01*
X723712Y729828D01*
X724499Y729833D01*
X725285Y729857D01*
X726070Y729900D01*
X726855Y729963D01*
X727637Y730045D01*
X728417Y730146D01*
X729195Y730266D01*
X729969Y730405D01*
X730740Y730562D01*
X731506Y730739D01*
X732268Y730934D01*
X733025Y731148D01*
X733777Y731381D01*
X734523Y731631D01*
X735262Y731900D01*
X735995Y732187D01*
X736720Y732492D01*
X737438Y732814D01*
X738147Y733154D01*
X738848Y733510D01*
X739540Y733884D01*
X740223Y734275D01*
X740896Y734683D01*
X741559Y735106D01*
X742211Y735546D01*
X742852Y736002D01*
X743482Y736473D01*
X744101Y736959D01*
X744707Y737461D01*
X745301Y737977D01*
X745882Y738507D01*
X746449Y739052D01*
X747004Y739610D01*
X747544Y740182D01*
X748071Y740766D01*
X748583Y741363D01*
X749080Y741973D01*
X749562Y742595D01*
X749370Y742739D01*
X748891Y742122D01*
X748398Y741517D01*
X747890Y740924D01*
X747367Y740344D01*
X746831Y739776D01*
X746281Y739222D01*
X745717Y738682D01*
X745140Y738155D01*
X744551Y737643D01*
X743949Y737146D01*
X743336Y736663D01*
X742710Y736195D01*
X742074Y735743D01*
X741426Y735307D01*
X740769Y734886D01*
X740101Y734482D01*
X739423Y734094D01*
X738736Y733723D01*
X738040Y733368D01*
X737336Y733031D01*
X736624Y732711D01*
X735904Y732409D01*
X735177Y732124D01*
X734443Y731858D01*
X733703Y731609D01*
X732957Y731378D01*
X732205Y731166D01*
X731449Y730972D01*
X730688Y730797D01*
X729923Y730640D01*
X729155Y730502D01*
X728383Y730383D01*
X727609Y730283D01*
X726832Y730202D01*
X726054Y730140D01*
X725274Y730097D01*
X724494Y730073D01*
X723713Y730068D01*
X722932Y730082D01*
X722152Y730115D01*
X721373Y730167D01*
X720595Y730238D01*
X719820Y730329D01*
X719047Y730438D01*
X718276Y730566D01*
X717510Y730713D01*
X716747Y730879D01*
X715988Y731063D01*
X715234Y731265D01*
X714485Y731487D01*
X713742Y731726D01*
X713005Y731983D01*
X712274Y732259D01*
X711550Y732552D01*
X710834Y732863D01*
X710125Y733191D01*
X709425Y733536D01*
X708734Y733899D01*
X708051Y734278D01*
X707378Y734674D01*
X706715Y735086D01*
X706062Y735514D01*
X705420Y735958D01*
X704788Y736418D01*
X704169Y736892D01*
X703561Y737382D01*
X702965Y737887D01*
X702382Y738406D01*
X701811Y738939D01*
X701254Y739486D01*
X700710Y740047D01*
X700180Y740620D01*
X699665Y741207D01*
X699164Y741805D01*
X698677Y742416D01*
X698206Y743039D01*
X697750Y743673D01*
X697310Y744317D01*
X696885Y744973D01*
X696477Y745638D01*
X696085Y746314D01*
X695710Y746999D01*
X695352Y747692D01*
X695010Y748394D01*
X694686Y749105D01*
X694380Y749823D01*
X694091Y750548D01*
X693820Y751281D01*
X693567Y752019D01*
X693332Y752764D01*
X693115Y753514D01*
X692917Y754269D01*
X692737Y755029D01*
X692576Y755793D01*
X692434Y756561D01*
X692310Y757332D01*
X692205Y758106D01*
X692120Y758882D01*
X692053Y759660D01*
X692005Y760439D01*
X691977Y761219D01*
X691967Y762000D01*
X691977Y762781D01*
X692005Y763561D01*
X692053Y764340D01*
X692120Y765118D01*
X692205Y765894D01*
X692310Y766668D01*
X692434Y767439D01*
X692576Y768207D01*
X692737Y768971D01*
X692917Y769731D01*
X693115Y770486D01*
X693332Y771236D01*
X693567Y771981D01*
X693820Y772719D01*
X694091Y773452D01*
X694380Y774177D01*
X694686Y774895D01*
X695010Y775606D01*
X695352Y776308D01*
X695710Y777001D01*
X696085Y777686D01*
X696477Y778362D01*
X696885Y779027D01*
X697310Y779683D01*
X697750Y780327D01*
X698206Y780961D01*
X698677Y781584D01*
X699164Y782195D01*
X699665Y782793D01*
X700180Y783380D01*
X700710Y783953D01*
X701254Y784514D01*
X701811Y785061D01*
X702382Y785594D01*
X702965Y786113D01*
X703561Y786618D01*
X704169Y787108D01*
X704788Y787582D01*
X705420Y788042D01*
X706062Y788486D01*
X706715Y788914D01*
X707378Y789326D01*
X708051Y789722D01*
X708734Y790101D01*
X709425Y790464D01*
X710125Y790809D01*
X710834Y791137D01*
X711550Y791448D01*
X712274Y791741D01*
X713005Y792017D01*
X713742Y792274D01*
X714485Y792513D01*
X715234Y792735D01*
X715988Y792937D01*
X716747Y793121D01*
X717510Y793287D01*
X718276Y793434D01*
X719047Y793562D01*
X719820Y793671D01*
X720595Y793762D01*
X721373Y793833D01*
X722152Y793885D01*
X722932Y793918D01*
X723713Y793932D01*
X724494Y793927D01*
X725274Y793903D01*
X726054Y793860D01*
X726832Y793798D01*
X727609Y793717D01*
X728383Y793617D01*
X729155Y793498D01*
X729923Y793360D01*
X730688Y793203D01*
X731449Y793028D01*
X732205Y792834D01*
X732957Y792622D01*
X733703Y792391D01*
X734443Y792142D01*
X735177Y791876D01*
X735904Y791591D01*
X736624Y791289D01*
X737336Y790969D01*
X738040Y790632D01*
X738736Y790277D01*
X739423Y789906D01*
X740101Y789518D01*
X740769Y789114D01*
X741426Y788693D01*
X742074Y788257D01*
X742710Y787805D01*
X743336Y787337D01*
X743949Y786854D01*
X744551Y786357D01*
X745140Y785845D01*
X745717Y785318D01*
X746281Y784778D01*
X746831Y784224D01*
X747367Y783656D01*
X747890Y783076D01*
X748398Y782483D01*
X748891Y781878D01*
X749370Y781261D01*
X749178Y781117D01*
X748703Y781730D01*
X748213Y782330D01*
X747709Y782918D01*
X747190Y783494D01*
X746658Y784057D01*
X746112Y784607D01*
X745552Y785143D01*
X744980Y785666D01*
X744395Y786174D01*
X743798Y786668D01*
X743189Y787147D01*
X742568Y787611D01*
X741937Y788060D01*
X741294Y788493D01*
X740641Y788911D01*
X739978Y789312D01*
X739306Y789697D01*
X738624Y790065D01*
X737933Y790417D01*
X737234Y790751D01*
X736527Y791069D01*
X735813Y791369D01*
X735091Y791651D01*
X734363Y791916D01*
X733628Y792163D01*
X732888Y792392D01*
X732142Y792602D01*
X731392Y792795D01*
X730636Y792969D01*
X729877Y793124D01*
X729114Y793261D01*
X728349Y793379D01*
X727580Y793479D01*
X726809Y793559D01*
X726037Y793621D01*
X725263Y793664D01*
X724489Y793688D01*
X723714Y793692D01*
X722939Y793678D01*
X722165Y793645D01*
X721391Y793594D01*
X720620Y793523D01*
X719850Y793433D01*
X719083Y793325D01*
X718318Y793198D01*
X717557Y793052D01*
X716800Y792887D01*
X716047Y792705D01*
X715298Y792503D01*
X714555Y792284D01*
X713818Y792046D01*
X713086Y791791D01*
X712361Y791518D01*
X711643Y791227D01*
X710932Y790918D01*
X710229Y790593D01*
X709534Y790250D01*
X708847Y789890D01*
X708170Y789514D01*
X707502Y789121D01*
X706844Y788712D01*
X706196Y788287D01*
X705558Y787846D01*
X704932Y787390D01*
X704317Y786919D01*
X703713Y786432D01*
X703122Y785932D01*
X702543Y785416D01*
X701977Y784887D01*
X701424Y784344D01*
X700884Y783788D01*
X700358Y783219D01*
X699847Y782637D01*
X699349Y782043D01*
X698867Y781436D01*
X698399Y780819D01*
X697946Y780190D01*
X697509Y779550D01*
X697088Y778899D01*
X696683Y778238D01*
X696294Y777568D01*
X695922Y776889D01*
X695566Y776200D01*
X695227Y775503D01*
X694906Y774798D01*
X694602Y774085D01*
X694315Y773365D01*
X694046Y772639D01*
X693795Y771906D01*
X693562Y771167D01*
X693347Y770422D01*
X693150Y769673D01*
X692971Y768918D01*
X692811Y768160D01*
X692670Y767398D01*
X692547Y766633D01*
X692444Y765865D01*
X692358Y765095D01*
X692292Y764323D01*
X692245Y763549D01*
X692216Y762775D01*
X692207Y762000D01*
X692216Y761225D01*
X692245Y760451D01*
X692292Y759677D01*
X692358Y758905D01*
X692444Y758135D01*
X692547Y757367D01*
X692670Y756602D01*
X692811Y755840D01*
X692971Y755082D01*
X693150Y754327D01*
X693347Y753578D01*
X693562Y752833D01*
X693795Y752094D01*
X694046Y751361D01*
X694315Y750635D01*
X694602Y749915D01*
X694906Y749202D01*
X695227Y748497D01*
X695566Y747800D01*
X695922Y747111D01*
X696294Y746432D01*
X696683Y745762D01*
X697088Y745101D01*
X697509Y744450D01*
X697946Y743810D01*
X698399Y743181D01*
X698867Y742564D01*
X699349Y741957D01*
X699847Y741363D01*
X700358Y740781D01*
X700884Y740212D01*
X701424Y739656D01*
X701977Y739113D01*
X702543Y738584D01*
X703122Y738068D01*
X703713Y737568D01*
X704317Y737081D01*
X704932Y736610D01*
X705558Y736154D01*
X706196Y735713D01*
X706844Y735288D01*
X707502Y734879D01*
X708170Y734486D01*
X708847Y734110D01*
X709534Y733750D01*
X710229Y733407D01*
X710932Y733082D01*
X711643Y732773D01*
X712361Y732482D01*
X713086Y732209D01*
X713818Y731954D01*
X714555Y731716D01*
X715298Y731497D01*
X716047Y731295D01*
X716800Y731113D01*
X717557Y730948D01*
X718318Y730802D01*
X719083Y730675D01*
X719850Y730567D01*
X720620Y730477D01*
X721391Y730406D01*
X722165Y730355D01*
X722939Y730322D01*
X723714Y730308D01*
X724489Y730312D01*
X725263Y730336D01*
X726037Y730379D01*
X726809Y730441D01*
X727580Y730521D01*
X728349Y730621D01*
X729114Y730739D01*
X729877Y730876D01*
X730636Y731031D01*
X731392Y731205D01*
X732142Y731398D01*
X732888Y731608D01*
X733628Y731837D01*
X734363Y732084D01*
X735091Y732349D01*
X735813Y732631D01*
X736527Y732931D01*
X737234Y733249D01*
X737933Y733583D01*
X738624Y733935D01*
X739306Y734303D01*
X739978Y734688D01*
X740641Y735089D01*
X741294Y735507D01*
X741937Y735940D01*
X742568Y736389D01*
X743189Y736853D01*
X743798Y737332D01*
X744395Y737826D01*
X744980Y738334D01*
X745552Y738857D01*
X746112Y739393D01*
X746658Y739943D01*
X747190Y740506D01*
X747709Y741082D01*
X748213Y741670D01*
X748703Y742270D01*
X749178Y742883D01*
X748986Y743027D01*
X748515Y742419D01*
X748029Y741823D01*
X747528Y741239D01*
X747013Y740668D01*
X746485Y740109D01*
X745943Y739563D01*
X745388Y739031D01*
X744820Y738513D01*
X744239Y738008D01*
X743647Y737518D01*
X743042Y737043D01*
X742426Y736582D01*
X741799Y736137D01*
X741162Y735707D01*
X740514Y735293D01*
X739856Y734895D01*
X739188Y734513D01*
X738512Y734147D01*
X737826Y733798D01*
X737133Y733466D01*
X736431Y733151D01*
X735722Y732853D01*
X735006Y732573D01*
X734283Y732310D01*
X733554Y732065D01*
X732819Y731838D01*
X732079Y731629D01*
X731334Y731438D01*
X730585Y731266D01*
X729831Y731111D01*
X729074Y730976D01*
X728314Y730858D01*
X727552Y730760D01*
X726787Y730680D01*
X726020Y730619D01*
X725252Y730576D01*
X724483Y730552D01*
X723714Y730548D01*
X722946Y730561D01*
X722177Y730594D01*
X721410Y730646D01*
X720644Y730716D01*
X719880Y730805D01*
X719119Y730913D01*
X718360Y731039D01*
X717605Y731183D01*
X716853Y731347D01*
X716106Y731528D01*
X715363Y731728D01*
X714626Y731945D01*
X713893Y732181D01*
X713167Y732435D01*
X712448Y732706D01*
X711735Y732995D01*
X711029Y733301D01*
X710332Y733624D01*
X709642Y733964D01*
X708961Y734321D01*
X708289Y734695D01*
X707626Y735085D01*
X706972Y735491D01*
X706329Y735912D01*
X705697Y736350D01*
X705075Y736803D01*
X704465Y737270D01*
X703866Y737753D01*
X703279Y738250D01*
X702705Y738761D01*
X702143Y739286D01*
X701594Y739825D01*
X701058Y740377D01*
X700537Y740942D01*
X700029Y741519D01*
X699535Y742109D01*
X699056Y742711D01*
X698592Y743324D01*
X698143Y743948D01*
X697709Y744584D01*
X697291Y745229D01*
X696889Y745885D01*
X696503Y746550D01*
X696134Y747224D01*
X695781Y747908D01*
X695445Y748599D01*
X695125Y749299D01*
X694823Y750006D01*
X694539Y750721D01*
X694272Y751442D01*
X694023Y752170D01*
X693791Y752903D01*
X693578Y753642D01*
X693383Y754386D01*
X693206Y755134D01*
X693047Y755887D01*
X692907Y756643D01*
X692785Y757402D01*
X692682Y758164D01*
X692597Y758929D01*
X692532Y759695D01*
X692485Y760462D01*
X692456Y761231D01*
X692447Y762000D01*
X692456Y762769D01*
X692485Y763538D01*
X692532Y764305D01*
X692597Y765071D01*
X692682Y765836D01*
X692785Y766598D01*
X692907Y767357D01*
X693047Y768113D01*
X693206Y768866D01*
X693383Y769614D01*
X693578Y770358D01*
X693791Y771097D01*
X694023Y771830D01*
X694272Y772558D01*
X694539Y773279D01*
X694823Y773994D01*
X695125Y774701D01*
X695445Y775401D01*
X695781Y776092D01*
X696134Y776776D01*
X696503Y777450D01*
X696889Y778115D01*
X697291Y778771D01*
X697709Y779416D01*
X698143Y780052D01*
X698592Y780676D01*
X699056Y781289D01*
X699535Y781891D01*
X700029Y782481D01*
X700537Y783058D01*
X701058Y783623D01*
X701594Y784175D01*
X702143Y784714D01*
X702705Y785239D01*
X703279Y785750D01*
X703866Y786247D01*
X704465Y786730D01*
X705075Y787197D01*
X705697Y787650D01*
X706329Y788088D01*
X706972Y788509D01*
X707626Y788915D01*
X708289Y789305D01*
X708961Y789679D01*
X709642Y790036D01*
X710332Y790376D01*
X711029Y790699D01*
X711735Y791005D01*
X712448Y791294D01*
X713167Y791565D01*
X713893Y791819D01*
X714626Y792055D01*
X715363Y792272D01*
X716106Y792472D01*
X716853Y792653D01*
X717605Y792817D01*
X718360Y792961D01*
X719119Y793087D01*
X719880Y793195D01*
X720644Y793284D01*
X721410Y793354D01*
X722177Y793406D01*
X722946Y793439D01*
X723714Y793452D01*
X724483Y793448D01*
X725252Y793424D01*
X726020Y793381D01*
X726787Y793320D01*
X727552Y793240D01*
X728314Y793142D01*
X729074Y793024D01*
X729831Y792889D01*
X730585Y792734D01*
X731334Y792562D01*
X732079Y792371D01*
X732819Y792162D01*
X733554Y791935D01*
X734283Y791690D01*
X735006Y791427D01*
X735722Y791147D01*
X736431Y790849D01*
X737133Y790534D01*
X737826Y790202D01*
X738512Y789853D01*
X739188Y789487D01*
X739856Y789105D01*
X740514Y788707D01*
X741162Y788293D01*
X741799Y787863D01*
X742426Y787418D01*
X743042Y786957D01*
X743647Y786482D01*
X744239Y785992D01*
X744820Y785487D01*
X745388Y784969D01*
X745943Y784437D01*
X746485Y783891D01*
X747013Y783332D01*
X747528Y782761D01*
X748029Y782177D01*
X748515Y781581D01*
X748986Y780973D01*
X748794Y780829D01*
X748326Y781432D01*
X747844Y782024D01*
X747347Y782603D01*
X746836Y783170D01*
X746312Y783725D01*
X745774Y784266D01*
X745223Y784794D01*
X744660Y785309D01*
X744083Y785809D01*
X743495Y786296D01*
X742895Y786767D01*
X742284Y787224D01*
X741662Y787666D01*
X741029Y788093D01*
X740386Y788504D01*
X739733Y788899D01*
X739071Y789278D01*
X738399Y789641D01*
X737719Y789987D01*
X737031Y790317D01*
X736335Y790629D01*
X735631Y790925D01*
X734920Y791203D01*
X734203Y791464D01*
X733480Y791707D01*
X732750Y791932D01*
X732016Y792139D01*
X731277Y792329D01*
X730533Y792500D01*
X729785Y792653D01*
X729034Y792788D01*
X728280Y792904D01*
X727523Y793002D01*
X726764Y793081D01*
X726003Y793142D01*
X725241Y793184D01*
X724478Y793208D01*
X723715Y793212D01*
X722952Y793199D01*
X722190Y793166D01*
X721428Y793115D01*
X720668Y793045D01*
X719910Y792957D01*
X719155Y792850D01*
X718402Y792725D01*
X717652Y792581D01*
X716906Y792419D01*
X716165Y792239D01*
X715428Y792041D01*
X714696Y791825D01*
X713969Y791591D01*
X713249Y791339D01*
X712535Y791070D01*
X711827Y790784D01*
X711127Y790480D01*
X710435Y790159D01*
X709750Y789822D01*
X709074Y789467D01*
X708407Y789097D01*
X707749Y788710D01*
X707101Y788307D01*
X706463Y787888D01*
X705835Y787454D01*
X705218Y787005D01*
X704613Y786541D01*
X704018Y786062D01*
X703436Y785569D01*
X702866Y785061D01*
X702308Y784540D01*
X701764Y784006D01*
X701232Y783458D01*
X700715Y782897D01*
X700211Y782324D01*
X699721Y781739D01*
X699245Y781142D01*
X698785Y780533D01*
X698339Y779914D01*
X697909Y779283D01*
X697494Y778643D01*
X697095Y777992D01*
X696712Y777332D01*
X696345Y776663D01*
X695995Y775985D01*
X695662Y775298D01*
X695345Y774604D01*
X695045Y773902D01*
X694763Y773193D01*
X694498Y772477D01*
X694251Y771755D01*
X694021Y771027D01*
X693809Y770294D01*
X693615Y769556D01*
X693440Y768813D01*
X693282Y768067D01*
X693143Y767316D01*
X693022Y766563D01*
X692920Y765806D01*
X692836Y765048D01*
X692771Y764288D01*
X692724Y763526D01*
X692696Y762763D01*
X692687Y762000D01*
X692696Y761237D01*
X692724Y760474D01*
X692771Y759712D01*
X692836Y758952D01*
X692920Y758194D01*
X693022Y757437D01*
X693143Y756684D01*
X693282Y755933D01*
X693440Y755187D01*
X693615Y754444D01*
X693809Y753706D01*
X694021Y752973D01*
X694251Y752245D01*
X694498Y751523D01*
X694763Y750807D01*
X695045Y750098D01*
X695345Y749396D01*
X695662Y748702D01*
X695995Y748015D01*
X696345Y747337D01*
X696712Y746668D01*
X697095Y746008D01*
X697494Y745357D01*
X697909Y744717D01*
X698339Y744086D01*
X698785Y743467D01*
X699245Y742858D01*
X699721Y742261D01*
X700211Y741676D01*
X700715Y741103D01*
X701232Y740542D01*
X701764Y739994D01*
X702308Y739460D01*
X702866Y738939D01*
X703436Y738431D01*
X704018Y737938D01*
X704613Y737459D01*
X705218Y736995D01*
X705835Y736546D01*
X706463Y736112D01*
X707101Y735693D01*
X707749Y735290D01*
X708407Y734903D01*
X709074Y734533D01*
X709750Y734178D01*
X710435Y733841D01*
X711127Y733520D01*
X711827Y733216D01*
X712535Y732930D01*
X713249Y732661D01*
X713969Y732409D01*
X714696Y732175D01*
X715428Y731959D01*
X716165Y731761D01*
X716906Y731581D01*
X717652Y731419D01*
X718402Y731275D01*
X719155Y731150D01*
X719910Y731043D01*
X720668Y730955D01*
X721428Y730885D01*
X722190Y730834D01*
X722952Y730801D01*
X723715Y730788D01*
X724478Y730792D01*
X725241Y730816D01*
X726003Y730858D01*
X726764Y730919D01*
X727523Y730998D01*
X728280Y731096D01*
X729034Y731212D01*
X729785Y731347D01*
X730533Y731500D01*
X731277Y731671D01*
X732016Y731861D01*
X732750Y732068D01*
X733480Y732293D01*
X734203Y732536D01*
X734920Y732797D01*
X735631Y733075D01*
X736335Y733371D01*
X737031Y733683D01*
X737719Y734013D01*
X738399Y734359D01*
X739071Y734722D01*
X739733Y735101D01*
X740386Y735496D01*
X741029Y735907D01*
X741662Y736334D01*
X742284Y736776D01*
X742895Y737233D01*
X743495Y737704D01*
X744083Y738191D01*
X744660Y738691D01*
X745223Y739206D01*
X745774Y739734D01*
X746312Y740275D01*
X746836Y740830D01*
X747347Y741397D01*
X747844Y741976D01*
X748326Y742568D01*
X748794Y743171D01*
X748602Y743315D01*
X748138Y742716D01*
X747659Y742130D01*
X747166Y741555D01*
X746659Y740992D01*
X746139Y740442D01*
X745605Y739905D01*
X745059Y739380D01*
X744499Y738870D01*
X743928Y738373D01*
X743344Y737891D01*
X742749Y737423D01*
X742142Y736969D01*
X741525Y736531D01*
X740897Y736107D01*
X740259Y735699D01*
X739611Y735307D01*
X738953Y734931D01*
X738287Y734571D01*
X737612Y734228D01*
X736929Y733901D01*
X736238Y733591D01*
X735540Y733297D01*
X734835Y733021D01*
X734123Y732763D01*
X733405Y732522D01*
X732682Y732298D01*
X731953Y732092D01*
X731219Y731904D01*
X730481Y731734D01*
X729739Y731582D01*
X728994Y731449D01*
X728246Y731333D01*
X727495Y731236D01*
X726741Y731158D01*
X725986Y731097D01*
X725230Y731056D01*
X724473Y731032D01*
X723716Y731028D01*
X722959Y731041D01*
X722202Y731074D01*
X721447Y731124D01*
X720693Y731194D01*
X719940Y731281D01*
X719190Y731387D01*
X718443Y731511D01*
X717700Y731654D01*
X716960Y731815D01*
X716224Y731993D01*
X715492Y732190D01*
X714766Y732404D01*
X714045Y732637D01*
X713330Y732886D01*
X712622Y733153D01*
X711920Y733438D01*
X711225Y733739D01*
X710538Y734058D01*
X709859Y734393D01*
X709188Y734744D01*
X708526Y735112D01*
X707873Y735496D01*
X707230Y735896D01*
X706597Y736311D01*
X705974Y736742D01*
X705362Y737187D01*
X704761Y737648D01*
X704171Y738123D01*
X703593Y738613D01*
X703027Y739116D01*
X702474Y739633D01*
X701934Y740164D01*
X701407Y740707D01*
X700893Y741264D01*
X700393Y741832D01*
X699907Y742413D01*
X699435Y743006D01*
X698978Y743609D01*
X698536Y744224D01*
X698109Y744850D01*
X697697Y745485D01*
X697301Y746131D01*
X696921Y746786D01*
X696557Y747450D01*
X696210Y748123D01*
X695879Y748804D01*
X695564Y749493D01*
X695267Y750190D01*
X694987Y750893D01*
X694724Y751603D01*
X694479Y752320D01*
X694251Y753042D01*
X694041Y753770D01*
X693848Y754502D01*
X693674Y755239D01*
X693518Y755980D01*
X693380Y756725D01*
X693260Y757472D01*
X693158Y758223D01*
X693075Y758976D01*
X693010Y759730D01*
X692964Y760486D01*
X692936Y761243D01*
X692927Y762000D01*
X692936Y762757D01*
X692964Y763514D01*
X693010Y764270D01*
X693075Y765024D01*
X693158Y765777D01*
X693260Y766528D01*
X693380Y767275D01*
X693518Y768020D01*
X693674Y768761D01*
X693848Y769498D01*
X694041Y770230D01*
X694251Y770958D01*
X694479Y771680D01*
X694724Y772397D01*
X694987Y773107D01*
X695267Y773810D01*
X695564Y774507D01*
X695879Y775196D01*
X696210Y775877D01*
X696557Y776550D01*
X696921Y777214D01*
X697301Y777869D01*
X697697Y778515D01*
X698109Y779150D01*
X698536Y779776D01*
X698978Y780391D01*
X699435Y780994D01*
X699907Y781587D01*
X700393Y782168D01*
X700893Y782736D01*
X701407Y783293D01*
X701934Y783836D01*
X702474Y784367D01*
X703027Y784884D01*
X703593Y785387D01*
X704171Y785877D01*
X704761Y786352D01*
X705362Y786813D01*
X705974Y787258D01*
X706597Y787689D01*
X707230Y788104D01*
X707873Y788504D01*
X708526Y788888D01*
X709188Y789256D01*
X709859Y789607D01*
X710538Y789942D01*
X711225Y790261D01*
X711920Y790562D01*
X712622Y790847D01*
X713330Y791114D01*
X714045Y791363D01*
X714766Y791596D01*
X715492Y791810D01*
X716224Y792007D01*
X716960Y792185D01*
X717700Y792346D01*
X718443Y792489D01*
X719190Y792613D01*
X719940Y792719D01*
X720693Y792806D01*
X721447Y792876D01*
X722202Y792926D01*
X722959Y792959D01*
X723716Y792972D01*
X724473Y792968D01*
X725230Y792944D01*
X725986Y792903D01*
X726741Y792842D01*
X727495Y792764D01*
X728246Y792667D01*
X728994Y792551D01*
X729739Y792418D01*
X730481Y792266D01*
X731219Y792096D01*
X731953Y791908D01*
X732682Y791702D01*
X733405Y791478D01*
X734123Y791237D01*
X734835Y790979D01*
X735540Y790703D01*
X736238Y790409D01*
X736929Y790099D01*
X737612Y789772D01*
X738287Y789429D01*
X738953Y789069D01*
X739611Y788693D01*
X740259Y788301D01*
X740897Y787893D01*
X741525Y787469D01*
X742142Y787031D01*
X742749Y786577D01*
X743344Y786109D01*
X743928Y785627D01*
X744499Y785130D01*
X745059Y784620D01*
X745605Y784095D01*
X746139Y783558D01*
X746659Y783008D01*
X747166Y782445D01*
X747659Y781870D01*
X748138Y781284D01*
X748602Y780685D01*
X748410Y780541D01*
X747949Y781135D01*
X747474Y781717D01*
X746985Y782288D01*
X746482Y782846D01*
X745966Y783392D01*
X745436Y783925D01*
X744894Y784445D01*
X744339Y784951D01*
X743772Y785444D01*
X743193Y785923D01*
X742602Y786388D01*
X742000Y786838D01*
X741387Y787273D01*
X740764Y787693D01*
X740131Y788097D01*
X739488Y788486D01*
X738836Y788859D01*
X738175Y789217D01*
X737505Y789557D01*
X736828Y789882D01*
X736142Y790190D01*
X735449Y790480D01*
X734749Y790754D01*
X734043Y791011D01*
X733331Y791250D01*
X732613Y791472D01*
X731890Y791676D01*
X731162Y791863D01*
X730430Y792031D01*
X729693Y792182D01*
X728954Y792315D01*
X728211Y792429D01*
X727466Y792525D01*
X726719Y792603D01*
X725970Y792663D01*
X725219Y792705D01*
X724468Y792728D01*
X723717Y792732D01*
X722966Y792719D01*
X722215Y792687D01*
X721465Y792636D01*
X720717Y792568D01*
X719970Y792481D01*
X719226Y792376D01*
X718485Y792252D01*
X717747Y792111D01*
X717013Y791951D01*
X716283Y791774D01*
X715557Y791579D01*
X714836Y791366D01*
X714121Y791136D01*
X713412Y790888D01*
X712709Y790623D01*
X712012Y790341D01*
X711323Y790042D01*
X710641Y789726D01*
X709967Y789393D01*
X709302Y789045D01*
X708645Y788680D01*
X707997Y788299D01*
X707359Y787902D01*
X706731Y787490D01*
X706113Y787062D01*
X705505Y786620D01*
X704909Y786163D01*
X704324Y785691D01*
X703750Y785206D01*
X703189Y784706D01*
X702640Y784193D01*
X702104Y783667D01*
X701581Y783127D01*
X701071Y782575D01*
X700575Y782011D01*
X700092Y781435D01*
X699624Y780847D01*
X699171Y780248D01*
X698732Y779638D01*
X698308Y779017D01*
X697900Y778386D01*
X697507Y777746D01*
X697130Y777096D01*
X696769Y776437D01*
X696424Y775769D01*
X696096Y775093D01*
X695784Y774410D01*
X695489Y773719D01*
X695211Y773021D01*
X694950Y772316D01*
X694707Y771605D01*
X694480Y770888D01*
X694272Y770167D01*
X694081Y769440D01*
X693908Y768709D01*
X693753Y767973D01*
X693616Y767234D01*
X693497Y766492D01*
X693396Y765748D01*
X693314Y765001D01*
X693250Y764252D01*
X693204Y763502D01*
X693176Y762751D01*
X693167Y762000D01*
X693176Y761249D01*
X693204Y760498D01*
X693250Y759748D01*
X693314Y758999D01*
X693396Y758252D01*
X693497Y757508D01*
X693616Y756766D01*
X693753Y756027D01*
X693908Y755291D01*
X694081Y754560D01*
X694272Y753833D01*
X694480Y753112D01*
X694707Y752395D01*
X694950Y751684D01*
X695211Y750979D01*
X695489Y750281D01*
X695784Y749590D01*
X696096Y748907D01*
X696424Y748231D01*
X696769Y747563D01*
X697130Y746904D01*
X697507Y746254D01*
X697900Y745614D01*
X698308Y744983D01*
X698732Y744362D01*
X699171Y743752D01*
X699624Y743153D01*
X700092Y742565D01*
X700575Y741989D01*
X701071Y741425D01*
X701581Y740873D01*
X702104Y740333D01*
X702640Y739807D01*
X703189Y739294D01*
X703750Y738794D01*
X704324Y738309D01*
X704909Y737837D01*
X705505Y737380D01*
X706113Y736938D01*
X706731Y736510D01*
X707359Y736098D01*
X707997Y735701D01*
X708645Y735320D01*
X709302Y734955D01*
X709967Y734607D01*
X710641Y734274D01*
X711323Y733958D01*
X712012Y733659D01*
X712709Y733377D01*
X713412Y733112D01*
X714121Y732864D01*
X714836Y732634D01*
X715557Y732421D01*
X716283Y732226D01*
X717013Y732049D01*
X717747Y731889D01*
X718485Y731748D01*
X719226Y731624D01*
X719970Y731519D01*
X720717Y731432D01*
X721465Y731364D01*
X722215Y731313D01*
X722966Y731281D01*
X723717Y731268D01*
X724468Y731272D01*
X725219Y731295D01*
X725970Y731337D01*
X726719Y731397D01*
X727466Y731475D01*
X728211Y731571D01*
X728954Y731685D01*
X729693Y731818D01*
X730430Y731969D01*
X731162Y732137D01*
X731890Y732324D01*
X732613Y732528D01*
X733331Y732750D01*
X734043Y732989D01*
X734749Y733246D01*
X735449Y733520D01*
X736142Y733810D01*
X736828Y734118D01*
X737505Y734443D01*
X738175Y734783D01*
X738836Y735141D01*
X739488Y735514D01*
X740131Y735903D01*
X740764Y736307D01*
X741387Y736727D01*
X742000Y737162D01*
X742602Y737612D01*
X743193Y738077D01*
X743772Y738556D01*
X744339Y739049D01*
X744894Y739555D01*
X745436Y740075D01*
X745966Y740608D01*
X746482Y741154D01*
X746985Y741712D01*
X747474Y742283D01*
X747949Y742865D01*
X748410Y743459D01*
D13*
X698500Y762000D02*
X698508Y762623D01*
X698531Y763246D01*
X698569Y763869D01*
X698622Y764490D01*
X698691Y765109D01*
X698775Y765727D01*
X698874Y766342D01*
X698988Y766955D01*
X699117Y767565D01*
X699261Y768172D01*
X699420Y768775D01*
X699594Y769373D01*
X699782Y769968D01*
X699985Y770557D01*
X700202Y771141D01*
X700433Y771720D01*
X700679Y772293D01*
X700939Y772860D01*
X701212Y773420D01*
X701499Y773973D01*
X701800Y774520D01*
X702114Y775058D01*
X702441Y775589D01*
X702781Y776111D01*
X703133Y776626D01*
X703499Y777131D01*
X703876Y777627D01*
X704266Y778114D01*
X704667Y778591D01*
X705080Y779058D01*
X705504Y779514D01*
X705939Y779961D01*
X706386Y780396D01*
X706842Y780820D01*
X707309Y781233D01*
X707786Y781634D01*
X708273Y782024D01*
X708769Y782401D01*
X709274Y782767D01*
X709789Y783119D01*
X710311Y783459D01*
X710842Y783786D01*
X711380Y784100D01*
X711927Y784401D01*
X712480Y784688D01*
X713040Y784961D01*
X713607Y785221D01*
X714180Y785467D01*
X714759Y785698D01*
X715343Y785915D01*
X715932Y786118D01*
X716527Y786306D01*
X717125Y786480D01*
X717728Y786639D01*
X718335Y786783D01*
X718945Y786912D01*
X719558Y787026D01*
X720173Y787125D01*
X720791Y787209D01*
X721410Y787278D01*
X722031Y787331D01*
X722654Y787369D01*
X723277Y787392D01*
X723900Y787400D01*
X724523Y787392D01*
X725146Y787369D01*
X725769Y787331D01*
X726390Y787278D01*
X727009Y787209D01*
X727627Y787125D01*
X728242Y787026D01*
X728855Y786912D01*
X729465Y786783D01*
X730072Y786639D01*
X730675Y786480D01*
X731273Y786306D01*
X731868Y786118D01*
X732457Y785915D01*
X733041Y785698D01*
X733620Y785467D01*
X734193Y785221D01*
X734760Y784961D01*
X735320Y784688D01*
X735873Y784401D01*
X736420Y784100D01*
X736958Y783786D01*
X737489Y783459D01*
X738011Y783119D01*
X738526Y782767D01*
X739031Y782401D01*
X739527Y782024D01*
X740014Y781634D01*
X740491Y781233D01*
X740958Y780820D01*
X741414Y780396D01*
X741861Y779961D01*
X742296Y779514D01*
X742720Y779058D01*
X743133Y778591D01*
X743534Y778114D01*
X743924Y777627D01*
X744301Y777131D01*
X744667Y776626D01*
X745019Y776111D01*
X745359Y775589D01*
X745686Y775058D01*
X746000Y774520D01*
X746301Y773973D01*
X746588Y773420D01*
X746861Y772860D01*
X747121Y772293D01*
X747367Y771720D01*
X747598Y771141D01*
X747815Y770557D01*
X748018Y769968D01*
X748206Y769373D01*
X748380Y768775D01*
X748539Y768172D01*
X748683Y767565D01*
X748812Y766955D01*
X748926Y766342D01*
X749025Y765727D01*
X749109Y765109D01*
X749178Y764490D01*
X749231Y763869D01*
X749269Y763246D01*
X749292Y762623D01*
X749300Y762000D01*
X749292Y761377D01*
X749269Y760754D01*
X749231Y760131D01*
X749178Y759510D01*
X749109Y758891D01*
X749025Y758273D01*
X748926Y757658D01*
X748812Y757045D01*
X748683Y756435D01*
X748539Y755828D01*
X748380Y755225D01*
X748206Y754627D01*
X748018Y754032D01*
X747815Y753443D01*
X747598Y752859D01*
X747367Y752280D01*
X747121Y751707D01*
X746861Y751140D01*
X746588Y750580D01*
X746301Y750027D01*
X746000Y749480D01*
X745686Y748942D01*
X745359Y748411D01*
X745019Y747889D01*
X744667Y747374D01*
X744301Y746869D01*
X743924Y746373D01*
X743534Y745886D01*
X743133Y745409D01*
X742720Y744942D01*
X742296Y744486D01*
X741861Y744039D01*
X741414Y743604D01*
X740958Y743180D01*
X740491Y742767D01*
X740014Y742366D01*
X739527Y741976D01*
X739031Y741599D01*
X738526Y741233D01*
X738011Y740881D01*
X737489Y740541D01*
X736958Y740214D01*
X736420Y739900D01*
X735873Y739599D01*
X735320Y739312D01*
X734760Y739039D01*
X734193Y738779D01*
X733620Y738533D01*
X733041Y738302D01*
X732457Y738085D01*
X731868Y737882D01*
X731273Y737694D01*
X730675Y737520D01*
X730072Y737361D01*
X729465Y737217D01*
X728855Y737088D01*
X728242Y736974D01*
X727627Y736875D01*
X727009Y736791D01*
X726390Y736722D01*
X725769Y736669D01*
X725146Y736631D01*
X724523Y736608D01*
X723900Y736600D01*
X723277Y736608D01*
X722654Y736631D01*
X722031Y736669D01*
X721410Y736722D01*
X720791Y736791D01*
X720173Y736875D01*
X719558Y736974D01*
X718945Y737088D01*
X718335Y737217D01*
X717728Y737361D01*
X717125Y737520D01*
X716527Y737694D01*
X715932Y737882D01*
X715343Y738085D01*
X714759Y738302D01*
X714180Y738533D01*
X713607Y738779D01*
X713040Y739039D01*
X712480Y739312D01*
X711927Y739599D01*
X711380Y739900D01*
X710842Y740214D01*
X710311Y740541D01*
X709789Y740881D01*
X709274Y741233D01*
X708769Y741599D01*
X708273Y741976D01*
X707786Y742366D01*
X707309Y742767D01*
X706842Y743180D01*
X706386Y743604D01*
X705939Y744039D01*
X705504Y744486D01*
X705080Y744942D01*
X704667Y745409D01*
X704266Y745886D01*
X703876Y746373D01*
X703499Y746869D01*
X703133Y747374D01*
X702781Y747889D01*
X702441Y748411D01*
X702114Y748942D01*
X701800Y749480D01*
X701499Y750027D01*
X701212Y750580D01*
X700939Y751140D01*
X700679Y751707D01*
X700433Y752280D01*
X700202Y752859D01*
X699985Y753443D01*
X699782Y754032D01*
X699594Y754627D01*
X699420Y755225D01*
X699261Y755828D01*
X699117Y756435D01*
X698988Y757045D01*
X698874Y757658D01*
X698775Y758273D01*
X698691Y758891D01*
X698622Y759510D01*
X698569Y760131D01*
X698531Y760754D01*
X698508Y761377D01*
X698500Y762000D01*
D11*
X719725Y796544D02*
X719725Y801370D01*
X721065Y801370D01*
X721135Y801368D01*
X721205Y801363D01*
X721275Y801353D01*
X721344Y801341D01*
X721412Y801324D01*
X721479Y801304D01*
X721546Y801281D01*
X721610Y801254D01*
X721674Y801224D01*
X721736Y801190D01*
X721795Y801154D01*
X721853Y801114D01*
X721909Y801071D01*
X721962Y801026D01*
X722013Y800977D01*
X722062Y800926D01*
X722107Y800873D01*
X722150Y800817D01*
X722190Y800759D01*
X722226Y800700D01*
X722260Y800638D01*
X722290Y800574D01*
X722317Y800510D01*
X722340Y800443D01*
X722360Y800376D01*
X722377Y800308D01*
X722389Y800239D01*
X722399Y800169D01*
X722404Y800099D01*
X722406Y800029D01*
X722406Y797885D01*
X722404Y797815D01*
X722399Y797745D01*
X722389Y797675D01*
X722377Y797606D01*
X722360Y797538D01*
X722340Y797471D01*
X722317Y797404D01*
X722290Y797340D01*
X722260Y797276D01*
X722226Y797214D01*
X722190Y797155D01*
X722150Y797097D01*
X722107Y797041D01*
X722062Y796988D01*
X722013Y796937D01*
X721962Y796888D01*
X721909Y796843D01*
X721853Y796800D01*
X721795Y796760D01*
X721735Y796724D01*
X721674Y796690D01*
X721610Y796660D01*
X721546Y796633D01*
X721479Y796610D01*
X721412Y796590D01*
X721344Y796573D01*
X721275Y796561D01*
X721205Y796551D01*
X721135Y796546D01*
X721065Y796544D01*
X719725Y796544D01*
X725394Y800298D02*
X726735Y801370D01*
X726735Y796544D01*
X728075Y796544D02*
X725394Y796544D01*
D10*
X368300Y553720D02*
X317500Y553720D01*
X368300Y553720D02*
X368300Y546100D01*
X368300Y538480D01*
X317500Y538480D01*
X317500Y546100D01*
X317500Y553720D01*
X368300Y546100D02*
X370840Y546100D01*
X317500Y546100D02*
X314960Y546100D01*
D11*
X338848Y556895D02*
X338848Y561721D01*
X340189Y561721D01*
X340260Y561719D01*
X340332Y561713D01*
X340402Y561704D01*
X340472Y561691D01*
X340542Y561674D01*
X340610Y561653D01*
X340677Y561629D01*
X340743Y561601D01*
X340807Y561570D01*
X340870Y561535D01*
X340930Y561497D01*
X340989Y561456D01*
X341045Y561412D01*
X341099Y561365D01*
X341150Y561316D01*
X341198Y561263D01*
X341244Y561208D01*
X341286Y561151D01*
X341326Y561091D01*
X341362Y561030D01*
X341395Y560966D01*
X341424Y560901D01*
X341450Y560835D01*
X341473Y560767D01*
X341492Y560698D01*
X341507Y560628D01*
X341518Y560558D01*
X341526Y560487D01*
X341530Y560416D01*
X341530Y560344D01*
X341526Y560273D01*
X341518Y560202D01*
X341507Y560132D01*
X341492Y560062D01*
X341473Y559993D01*
X341450Y559925D01*
X341424Y559859D01*
X341395Y559794D01*
X341362Y559730D01*
X341326Y559669D01*
X341286Y559609D01*
X341244Y559552D01*
X341198Y559497D01*
X341150Y559444D01*
X341099Y559395D01*
X341045Y559348D01*
X340989Y559304D01*
X340930Y559263D01*
X340870Y559225D01*
X340807Y559190D01*
X340743Y559159D01*
X340677Y559131D01*
X340610Y559107D01*
X340542Y559086D01*
X340472Y559069D01*
X340402Y559056D01*
X340332Y559047D01*
X340260Y559041D01*
X340189Y559039D01*
X340189Y559040D02*
X338848Y559040D01*
X340457Y559040D02*
X341529Y556895D01*
X344271Y560649D02*
X345611Y561721D01*
X345611Y556895D01*
X344271Y556895D02*
X346952Y556895D01*
D14*
X542215Y786815D02*
X542215Y785442D01*
X542214Y785442D02*
X542131Y785437D01*
X542047Y785428D01*
X541965Y785415D01*
X541883Y785399D01*
X541802Y785379D01*
X541721Y785355D01*
X541642Y785327D01*
X541565Y785296D01*
X541489Y785262D01*
X541414Y785224D01*
X541341Y785183D01*
X541270Y785138D01*
X541201Y785091D01*
X541135Y785040D01*
X541071Y784987D01*
X541009Y784930D01*
X540950Y784871D01*
X540893Y784809D01*
X540840Y784745D01*
X540789Y784679D01*
X540742Y784610D01*
X540697Y784539D01*
X540656Y784466D01*
X540618Y784391D01*
X540584Y784315D01*
X540553Y784238D01*
X540525Y784159D01*
X540501Y784078D01*
X540481Y783997D01*
X540465Y783915D01*
X540452Y783833D01*
X540443Y783749D01*
X540438Y783666D01*
X539065Y783665D01*
X539065Y783666D01*
X539069Y783778D01*
X539078Y783889D01*
X539090Y784000D01*
X539106Y784111D01*
X539126Y784220D01*
X539150Y784330D01*
X539177Y784438D01*
X539209Y784545D01*
X539244Y784651D01*
X539282Y784756D01*
X539324Y784860D01*
X539370Y784961D01*
X539419Y785062D01*
X539472Y785160D01*
X539528Y785257D01*
X539587Y785352D01*
X539650Y785444D01*
X539716Y785534D01*
X539785Y785622D01*
X539856Y785708D01*
X539931Y785791D01*
X540009Y785871D01*
X540089Y785949D01*
X540172Y786024D01*
X540258Y786095D01*
X540346Y786164D01*
X540436Y786230D01*
X540528Y786293D01*
X540623Y786352D01*
X540720Y786408D01*
X540818Y786461D01*
X540919Y786510D01*
X541020Y786556D01*
X541124Y786598D01*
X541229Y786636D01*
X541335Y786671D01*
X541442Y786703D01*
X541550Y786730D01*
X541660Y786754D01*
X541769Y786774D01*
X541880Y786790D01*
X541991Y786802D01*
X542102Y786811D01*
X542214Y786815D01*
X542214Y786672D01*
X542105Y786667D01*
X541996Y786659D01*
X541888Y786647D01*
X541780Y786631D01*
X541673Y786611D01*
X541566Y786587D01*
X541461Y786559D01*
X541356Y786528D01*
X541253Y786493D01*
X541151Y786455D01*
X541050Y786413D01*
X540951Y786367D01*
X540854Y786318D01*
X540758Y786265D01*
X540664Y786210D01*
X540573Y786150D01*
X540483Y786088D01*
X540396Y786023D01*
X540311Y785954D01*
X540229Y785883D01*
X540149Y785808D01*
X540072Y785731D01*
X539997Y785651D01*
X539926Y785569D01*
X539857Y785484D01*
X539792Y785397D01*
X539730Y785307D01*
X539670Y785216D01*
X539615Y785122D01*
X539562Y785026D01*
X539513Y784929D01*
X539467Y784830D01*
X539425Y784729D01*
X539387Y784627D01*
X539352Y784524D01*
X539321Y784419D01*
X539293Y784314D01*
X539269Y784207D01*
X539249Y784100D01*
X539233Y783992D01*
X539221Y783884D01*
X539213Y783775D01*
X539208Y783666D01*
X539351Y783666D01*
X539356Y783772D01*
X539364Y783878D01*
X539376Y783984D01*
X539393Y784089D01*
X539413Y784193D01*
X539436Y784297D01*
X539464Y784400D01*
X539495Y784501D01*
X539530Y784602D01*
X539568Y784701D01*
X539610Y784799D01*
X539655Y784895D01*
X539704Y784989D01*
X539757Y785082D01*
X539812Y785173D01*
X539871Y785261D01*
X539933Y785347D01*
X539998Y785432D01*
X540066Y785513D01*
X540137Y785592D01*
X540211Y785669D01*
X540288Y785743D01*
X540367Y785814D01*
X540448Y785882D01*
X540533Y785947D01*
X540619Y786009D01*
X540707Y786068D01*
X540798Y786123D01*
X540891Y786176D01*
X540985Y786225D01*
X541081Y786270D01*
X541179Y786312D01*
X541278Y786350D01*
X541379Y786385D01*
X541480Y786416D01*
X541583Y786444D01*
X541687Y786467D01*
X541791Y786487D01*
X541896Y786504D01*
X542002Y786516D01*
X542108Y786524D01*
X542214Y786529D01*
X542214Y786386D01*
X542111Y786381D01*
X542008Y786373D01*
X541905Y786360D01*
X541803Y786344D01*
X541701Y786324D01*
X541600Y786301D01*
X541501Y786273D01*
X541402Y786242D01*
X541305Y786208D01*
X541208Y786169D01*
X541114Y786128D01*
X541021Y786082D01*
X540929Y786034D01*
X540840Y785982D01*
X540753Y785927D01*
X540667Y785868D01*
X540584Y785807D01*
X540503Y785742D01*
X540425Y785674D01*
X540349Y785604D01*
X540276Y785531D01*
X540206Y785455D01*
X540138Y785377D01*
X540073Y785296D01*
X540012Y785213D01*
X539953Y785127D01*
X539898Y785040D01*
X539846Y784951D01*
X539798Y784859D01*
X539752Y784766D01*
X539711Y784672D01*
X539672Y784575D01*
X539638Y784478D01*
X539607Y784379D01*
X539579Y784280D01*
X539556Y784179D01*
X539536Y784077D01*
X539520Y783975D01*
X539507Y783872D01*
X539499Y783769D01*
X539494Y783666D01*
X539637Y783666D01*
X539642Y783766D01*
X539650Y783866D01*
X539663Y783966D01*
X539679Y784065D01*
X539699Y784164D01*
X539722Y784261D01*
X539749Y784358D01*
X539780Y784453D01*
X539815Y784548D01*
X539853Y784641D01*
X539894Y784732D01*
X539939Y784822D01*
X539988Y784910D01*
X540039Y784996D01*
X540094Y785080D01*
X540152Y785162D01*
X540213Y785242D01*
X540277Y785319D01*
X540344Y785394D01*
X540413Y785467D01*
X540486Y785536D01*
X540561Y785603D01*
X540638Y785667D01*
X540718Y785728D01*
X540800Y785786D01*
X540884Y785841D01*
X540970Y785892D01*
X541058Y785941D01*
X541148Y785986D01*
X541239Y786027D01*
X541332Y786065D01*
X541427Y786100D01*
X541522Y786131D01*
X541619Y786158D01*
X541716Y786181D01*
X541815Y786201D01*
X541914Y786217D01*
X542014Y786230D01*
X542114Y786238D01*
X542214Y786243D01*
X542214Y786100D01*
X542114Y786095D01*
X542015Y786086D01*
X541916Y786073D01*
X541818Y786056D01*
X541720Y786035D01*
X541623Y786011D01*
X541528Y785982D01*
X541433Y785950D01*
X541340Y785914D01*
X541248Y785875D01*
X541159Y785832D01*
X541070Y785785D01*
X540984Y785735D01*
X540900Y785681D01*
X540818Y785624D01*
X540738Y785564D01*
X540661Y785501D01*
X540586Y785435D01*
X540514Y785366D01*
X540445Y785294D01*
X540379Y785219D01*
X540316Y785142D01*
X540256Y785062D01*
X540199Y784980D01*
X540145Y784896D01*
X540095Y784810D01*
X540048Y784721D01*
X540005Y784632D01*
X539966Y784540D01*
X539930Y784447D01*
X539898Y784352D01*
X539869Y784257D01*
X539845Y784160D01*
X539824Y784062D01*
X539807Y783964D01*
X539794Y783865D01*
X539785Y783766D01*
X539780Y783666D01*
X539923Y783666D01*
X539928Y783762D01*
X539937Y783858D01*
X539950Y783954D01*
X539967Y784049D01*
X539987Y784143D01*
X540012Y784236D01*
X540040Y784328D01*
X540072Y784419D01*
X540108Y784509D01*
X540147Y784597D01*
X540190Y784684D01*
X540236Y784768D01*
X540286Y784851D01*
X540339Y784931D01*
X540395Y785010D01*
X540454Y785086D01*
X540516Y785159D01*
X540582Y785230D01*
X540650Y785298D01*
X540721Y785364D01*
X540794Y785426D01*
X540870Y785485D01*
X540949Y785541D01*
X541029Y785594D01*
X541112Y785644D01*
X541196Y785690D01*
X541283Y785733D01*
X541371Y785772D01*
X541461Y785808D01*
X541552Y785840D01*
X541644Y785868D01*
X541737Y785893D01*
X541831Y785913D01*
X541926Y785930D01*
X542022Y785943D01*
X542118Y785952D01*
X542214Y785957D01*
X542214Y785814D01*
X542121Y785809D01*
X542029Y785800D01*
X541937Y785787D01*
X541846Y785770D01*
X541755Y785750D01*
X541665Y785726D01*
X541577Y785698D01*
X541489Y785666D01*
X541404Y785631D01*
X541319Y785592D01*
X541236Y785550D01*
X541156Y785504D01*
X541077Y785455D01*
X541000Y785403D01*
X540925Y785347D01*
X540853Y785289D01*
X540784Y785228D01*
X540717Y785163D01*
X540652Y785096D01*
X540591Y785027D01*
X540533Y784955D01*
X540477Y784880D01*
X540425Y784803D01*
X540376Y784724D01*
X540330Y784644D01*
X540288Y784561D01*
X540249Y784476D01*
X540214Y784391D01*
X540182Y784303D01*
X540154Y784215D01*
X540130Y784125D01*
X540110Y784034D01*
X540093Y783943D01*
X540080Y783851D01*
X540071Y783759D01*
X540066Y783666D01*
X540209Y783666D01*
X540215Y783755D01*
X540223Y783844D01*
X540236Y783932D01*
X540253Y784019D01*
X540273Y784106D01*
X540297Y784192D01*
X540324Y784277D01*
X540356Y784360D01*
X540390Y784442D01*
X540429Y784523D01*
X540470Y784601D01*
X540515Y784678D01*
X540563Y784753D01*
X540615Y784826D01*
X540669Y784897D01*
X540726Y784965D01*
X540787Y785030D01*
X540850Y785093D01*
X540915Y785154D01*
X540983Y785211D01*
X541054Y785265D01*
X541127Y785317D01*
X541202Y785365D01*
X541279Y785410D01*
X541357Y785451D01*
X541438Y785490D01*
X541520Y785524D01*
X541603Y785556D01*
X541688Y785583D01*
X541774Y785607D01*
X541861Y785627D01*
X541948Y785644D01*
X542036Y785657D01*
X542125Y785665D01*
X542214Y785671D01*
X542214Y785528D01*
X542129Y785522D01*
X542044Y785513D01*
X541960Y785501D01*
X541877Y785484D01*
X541794Y785464D01*
X541712Y785441D01*
X541632Y785414D01*
X541552Y785383D01*
X541474Y785349D01*
X541398Y785312D01*
X541323Y785271D01*
X541250Y785227D01*
X541179Y785179D01*
X541111Y785129D01*
X541044Y785076D01*
X540980Y785020D01*
X540919Y784961D01*
X540860Y784900D01*
X540804Y784836D01*
X540751Y784769D01*
X540701Y784701D01*
X540653Y784630D01*
X540609Y784557D01*
X540568Y784482D01*
X540531Y784406D01*
X540497Y784328D01*
X540466Y784248D01*
X540439Y784168D01*
X540416Y784086D01*
X540396Y784003D01*
X540379Y783920D01*
X540367Y783836D01*
X540358Y783751D01*
X540352Y783666D01*
X539065Y765735D02*
X540438Y765735D01*
X540438Y765734D02*
X540443Y765651D01*
X540452Y765567D01*
X540465Y765485D01*
X540481Y765403D01*
X540501Y765322D01*
X540525Y765241D01*
X540553Y765162D01*
X540584Y765085D01*
X540618Y765009D01*
X540656Y764934D01*
X540697Y764861D01*
X540742Y764790D01*
X540789Y764721D01*
X540840Y764655D01*
X540893Y764591D01*
X540950Y764529D01*
X541009Y764470D01*
X541071Y764413D01*
X541135Y764360D01*
X541201Y764309D01*
X541270Y764262D01*
X541341Y764217D01*
X541414Y764176D01*
X541489Y764138D01*
X541565Y764104D01*
X541642Y764073D01*
X541721Y764045D01*
X541802Y764021D01*
X541883Y764001D01*
X541965Y763985D01*
X542047Y763972D01*
X542131Y763963D01*
X542214Y763958D01*
X542215Y762585D01*
X542214Y762585D01*
X542102Y762589D01*
X541991Y762598D01*
X541880Y762610D01*
X541769Y762626D01*
X541660Y762646D01*
X541550Y762670D01*
X541442Y762697D01*
X541335Y762729D01*
X541229Y762764D01*
X541124Y762802D01*
X541020Y762844D01*
X540919Y762890D01*
X540818Y762939D01*
X540720Y762992D01*
X540623Y763048D01*
X540528Y763107D01*
X540436Y763170D01*
X540346Y763236D01*
X540258Y763305D01*
X540172Y763376D01*
X540089Y763451D01*
X540009Y763529D01*
X539931Y763609D01*
X539856Y763692D01*
X539785Y763778D01*
X539716Y763866D01*
X539650Y763956D01*
X539587Y764048D01*
X539528Y764143D01*
X539472Y764240D01*
X539419Y764338D01*
X539370Y764439D01*
X539324Y764540D01*
X539282Y764644D01*
X539244Y764749D01*
X539209Y764855D01*
X539177Y764962D01*
X539150Y765070D01*
X539126Y765180D01*
X539106Y765289D01*
X539090Y765400D01*
X539078Y765511D01*
X539069Y765622D01*
X539065Y765734D01*
X539208Y765734D01*
X539213Y765625D01*
X539221Y765516D01*
X539233Y765408D01*
X539249Y765300D01*
X539269Y765193D01*
X539293Y765086D01*
X539321Y764981D01*
X539352Y764876D01*
X539387Y764773D01*
X539425Y764671D01*
X539467Y764570D01*
X539513Y764471D01*
X539562Y764374D01*
X539615Y764278D01*
X539670Y764184D01*
X539730Y764093D01*
X539792Y764003D01*
X539857Y763916D01*
X539926Y763831D01*
X539997Y763749D01*
X540072Y763669D01*
X540149Y763592D01*
X540229Y763517D01*
X540311Y763446D01*
X540396Y763377D01*
X540483Y763312D01*
X540573Y763250D01*
X540664Y763190D01*
X540758Y763135D01*
X540854Y763082D01*
X540951Y763033D01*
X541050Y762987D01*
X541151Y762945D01*
X541253Y762907D01*
X541356Y762872D01*
X541461Y762841D01*
X541566Y762813D01*
X541673Y762789D01*
X541780Y762769D01*
X541888Y762753D01*
X541996Y762741D01*
X542105Y762733D01*
X542214Y762728D01*
X542214Y762871D01*
X542108Y762876D01*
X542002Y762884D01*
X541896Y762896D01*
X541791Y762913D01*
X541687Y762933D01*
X541583Y762956D01*
X541480Y762984D01*
X541379Y763015D01*
X541278Y763050D01*
X541179Y763088D01*
X541081Y763130D01*
X540985Y763175D01*
X540891Y763224D01*
X540798Y763277D01*
X540707Y763332D01*
X540619Y763391D01*
X540533Y763453D01*
X540448Y763518D01*
X540367Y763586D01*
X540288Y763657D01*
X540211Y763731D01*
X540137Y763808D01*
X540066Y763887D01*
X539998Y763968D01*
X539933Y764053D01*
X539871Y764139D01*
X539812Y764227D01*
X539757Y764318D01*
X539704Y764411D01*
X539655Y764505D01*
X539610Y764601D01*
X539568Y764699D01*
X539530Y764798D01*
X539495Y764899D01*
X539464Y765000D01*
X539436Y765103D01*
X539413Y765207D01*
X539393Y765311D01*
X539376Y765416D01*
X539364Y765522D01*
X539356Y765628D01*
X539351Y765734D01*
X539494Y765734D01*
X539499Y765631D01*
X539507Y765528D01*
X539520Y765425D01*
X539536Y765323D01*
X539556Y765221D01*
X539579Y765120D01*
X539607Y765021D01*
X539638Y764922D01*
X539672Y764825D01*
X539711Y764728D01*
X539752Y764634D01*
X539798Y764541D01*
X539846Y764449D01*
X539898Y764360D01*
X539953Y764273D01*
X540012Y764187D01*
X540073Y764104D01*
X540138Y764023D01*
X540206Y763945D01*
X540276Y763869D01*
X540349Y763796D01*
X540425Y763726D01*
X540503Y763658D01*
X540584Y763593D01*
X540667Y763532D01*
X540753Y763473D01*
X540840Y763418D01*
X540929Y763366D01*
X541021Y763318D01*
X541114Y763272D01*
X541208Y763231D01*
X541305Y763192D01*
X541402Y763158D01*
X541501Y763127D01*
X541600Y763099D01*
X541701Y763076D01*
X541803Y763056D01*
X541905Y763040D01*
X542008Y763027D01*
X542111Y763019D01*
X542214Y763014D01*
X542214Y763157D01*
X542114Y763162D01*
X542014Y763170D01*
X541914Y763183D01*
X541815Y763199D01*
X541716Y763219D01*
X541619Y763242D01*
X541522Y763269D01*
X541427Y763300D01*
X541332Y763335D01*
X541239Y763373D01*
X541148Y763414D01*
X541058Y763459D01*
X540970Y763508D01*
X540884Y763559D01*
X540800Y763614D01*
X540718Y763672D01*
X540638Y763733D01*
X540561Y763797D01*
X540486Y763864D01*
X540413Y763933D01*
X540344Y764006D01*
X540277Y764081D01*
X540213Y764158D01*
X540152Y764238D01*
X540094Y764320D01*
X540039Y764404D01*
X539988Y764490D01*
X539939Y764578D01*
X539894Y764668D01*
X539853Y764759D01*
X539815Y764852D01*
X539780Y764947D01*
X539749Y765042D01*
X539722Y765139D01*
X539699Y765236D01*
X539679Y765335D01*
X539663Y765434D01*
X539650Y765534D01*
X539642Y765634D01*
X539637Y765734D01*
X539780Y765734D01*
X539785Y765634D01*
X539794Y765535D01*
X539807Y765436D01*
X539824Y765338D01*
X539845Y765240D01*
X539869Y765143D01*
X539898Y765048D01*
X539930Y764953D01*
X539966Y764860D01*
X540005Y764768D01*
X540048Y764679D01*
X540095Y764590D01*
X540145Y764504D01*
X540199Y764420D01*
X540256Y764338D01*
X540316Y764258D01*
X540379Y764181D01*
X540445Y764106D01*
X540514Y764034D01*
X540586Y763965D01*
X540661Y763899D01*
X540738Y763836D01*
X540818Y763776D01*
X540900Y763719D01*
X540984Y763665D01*
X541070Y763615D01*
X541159Y763568D01*
X541248Y763525D01*
X541340Y763486D01*
X541433Y763450D01*
X541528Y763418D01*
X541623Y763389D01*
X541720Y763365D01*
X541818Y763344D01*
X541916Y763327D01*
X542015Y763314D01*
X542114Y763305D01*
X542214Y763300D01*
X542214Y763443D01*
X542118Y763448D01*
X542022Y763457D01*
X541926Y763470D01*
X541831Y763487D01*
X541737Y763507D01*
X541644Y763532D01*
X541552Y763560D01*
X541461Y763592D01*
X541371Y763628D01*
X541283Y763667D01*
X541196Y763710D01*
X541112Y763756D01*
X541029Y763806D01*
X540949Y763859D01*
X540870Y763915D01*
X540794Y763974D01*
X540721Y764036D01*
X540650Y764102D01*
X540582Y764170D01*
X540516Y764241D01*
X540454Y764314D01*
X540395Y764390D01*
X540339Y764469D01*
X540286Y764549D01*
X540236Y764632D01*
X540190Y764716D01*
X540147Y764803D01*
X540108Y764891D01*
X540072Y764981D01*
X540040Y765072D01*
X540012Y765164D01*
X539987Y765257D01*
X539967Y765351D01*
X539950Y765446D01*
X539937Y765542D01*
X539928Y765638D01*
X539923Y765734D01*
X540066Y765734D01*
X540071Y765641D01*
X540080Y765549D01*
X540093Y765457D01*
X540110Y765366D01*
X540130Y765275D01*
X540154Y765185D01*
X540182Y765097D01*
X540214Y765009D01*
X540249Y764924D01*
X540288Y764839D01*
X540330Y764756D01*
X540376Y764676D01*
X540425Y764597D01*
X540477Y764520D01*
X540533Y764445D01*
X540591Y764373D01*
X540652Y764304D01*
X540717Y764237D01*
X540784Y764172D01*
X540853Y764111D01*
X540925Y764053D01*
X541000Y763997D01*
X541077Y763945D01*
X541156Y763896D01*
X541236Y763850D01*
X541319Y763808D01*
X541404Y763769D01*
X541489Y763734D01*
X541577Y763702D01*
X541665Y763674D01*
X541755Y763650D01*
X541846Y763630D01*
X541937Y763613D01*
X542029Y763600D01*
X542121Y763591D01*
X542214Y763586D01*
X542214Y763729D01*
X542125Y763735D01*
X542036Y763743D01*
X541948Y763756D01*
X541861Y763773D01*
X541774Y763793D01*
X541688Y763817D01*
X541603Y763844D01*
X541520Y763876D01*
X541438Y763910D01*
X541357Y763949D01*
X541279Y763990D01*
X541202Y764035D01*
X541127Y764083D01*
X541054Y764135D01*
X540983Y764189D01*
X540915Y764246D01*
X540850Y764307D01*
X540787Y764370D01*
X540726Y764435D01*
X540669Y764503D01*
X540615Y764574D01*
X540563Y764647D01*
X540515Y764722D01*
X540470Y764799D01*
X540429Y764877D01*
X540390Y764958D01*
X540356Y765040D01*
X540324Y765123D01*
X540297Y765208D01*
X540273Y765294D01*
X540253Y765381D01*
X540236Y765468D01*
X540223Y765556D01*
X540215Y765645D01*
X540209Y765734D01*
X540352Y765734D01*
X540358Y765649D01*
X540367Y765564D01*
X540379Y765480D01*
X540396Y765397D01*
X540416Y765314D01*
X540439Y765232D01*
X540466Y765152D01*
X540497Y765072D01*
X540531Y764994D01*
X540568Y764918D01*
X540609Y764843D01*
X540653Y764770D01*
X540701Y764699D01*
X540751Y764631D01*
X540804Y764564D01*
X540860Y764500D01*
X540919Y764439D01*
X540980Y764380D01*
X541044Y764324D01*
X541111Y764271D01*
X541179Y764221D01*
X541250Y764173D01*
X541323Y764129D01*
X541398Y764088D01*
X541474Y764051D01*
X541552Y764017D01*
X541632Y763986D01*
X541712Y763959D01*
X541794Y763936D01*
X541877Y763916D01*
X541960Y763899D01*
X542044Y763887D01*
X542129Y763878D01*
X542214Y763872D01*
X600785Y762585D02*
X600785Y763958D01*
X600786Y763958D02*
X600869Y763963D01*
X600953Y763972D01*
X601035Y763985D01*
X601117Y764001D01*
X601198Y764021D01*
X601279Y764045D01*
X601358Y764073D01*
X601435Y764104D01*
X601511Y764138D01*
X601586Y764176D01*
X601659Y764217D01*
X601730Y764262D01*
X601799Y764309D01*
X601865Y764360D01*
X601929Y764413D01*
X601991Y764470D01*
X602050Y764529D01*
X602107Y764591D01*
X602160Y764655D01*
X602211Y764721D01*
X602258Y764790D01*
X602303Y764861D01*
X602344Y764934D01*
X602382Y765009D01*
X602416Y765085D01*
X602447Y765162D01*
X602475Y765241D01*
X602499Y765322D01*
X602519Y765403D01*
X602535Y765485D01*
X602548Y765567D01*
X602557Y765651D01*
X602562Y765734D01*
X603935Y765735D01*
X603935Y765734D01*
X603931Y765622D01*
X603922Y765511D01*
X603910Y765400D01*
X603894Y765289D01*
X603874Y765180D01*
X603850Y765070D01*
X603823Y764962D01*
X603791Y764855D01*
X603756Y764749D01*
X603718Y764644D01*
X603676Y764540D01*
X603630Y764439D01*
X603581Y764338D01*
X603528Y764240D01*
X603472Y764143D01*
X603413Y764048D01*
X603350Y763956D01*
X603284Y763866D01*
X603215Y763778D01*
X603144Y763692D01*
X603069Y763609D01*
X602991Y763529D01*
X602911Y763451D01*
X602828Y763376D01*
X602742Y763305D01*
X602654Y763236D01*
X602564Y763170D01*
X602472Y763107D01*
X602377Y763048D01*
X602280Y762992D01*
X602182Y762939D01*
X602081Y762890D01*
X601980Y762844D01*
X601876Y762802D01*
X601771Y762764D01*
X601665Y762729D01*
X601558Y762697D01*
X601450Y762670D01*
X601340Y762646D01*
X601231Y762626D01*
X601120Y762610D01*
X601009Y762598D01*
X600898Y762589D01*
X600786Y762585D01*
X600786Y762728D01*
X600895Y762733D01*
X601004Y762741D01*
X601112Y762753D01*
X601220Y762769D01*
X601327Y762789D01*
X601434Y762813D01*
X601539Y762841D01*
X601644Y762872D01*
X601747Y762907D01*
X601849Y762945D01*
X601950Y762987D01*
X602049Y763033D01*
X602146Y763082D01*
X602242Y763135D01*
X602336Y763190D01*
X602427Y763250D01*
X602517Y763312D01*
X602604Y763377D01*
X602689Y763446D01*
X602771Y763517D01*
X602851Y763592D01*
X602928Y763669D01*
X603003Y763749D01*
X603074Y763831D01*
X603143Y763916D01*
X603208Y764003D01*
X603270Y764093D01*
X603330Y764184D01*
X603385Y764278D01*
X603438Y764374D01*
X603487Y764471D01*
X603533Y764570D01*
X603575Y764671D01*
X603613Y764773D01*
X603648Y764876D01*
X603679Y764981D01*
X603707Y765086D01*
X603731Y765193D01*
X603751Y765300D01*
X603767Y765408D01*
X603779Y765516D01*
X603787Y765625D01*
X603792Y765734D01*
X603649Y765734D01*
X603644Y765628D01*
X603636Y765522D01*
X603624Y765416D01*
X603607Y765311D01*
X603587Y765207D01*
X603564Y765103D01*
X603536Y765000D01*
X603505Y764899D01*
X603470Y764798D01*
X603432Y764699D01*
X603390Y764601D01*
X603345Y764505D01*
X603296Y764411D01*
X603243Y764318D01*
X603188Y764227D01*
X603129Y764139D01*
X603067Y764053D01*
X603002Y763968D01*
X602934Y763887D01*
X602863Y763808D01*
X602789Y763731D01*
X602712Y763657D01*
X602633Y763586D01*
X602552Y763518D01*
X602467Y763453D01*
X602381Y763391D01*
X602293Y763332D01*
X602202Y763277D01*
X602109Y763224D01*
X602015Y763175D01*
X601919Y763130D01*
X601821Y763088D01*
X601722Y763050D01*
X601621Y763015D01*
X601520Y762984D01*
X601417Y762956D01*
X601313Y762933D01*
X601209Y762913D01*
X601104Y762896D01*
X600998Y762884D01*
X600892Y762876D01*
X600786Y762871D01*
X600786Y763014D01*
X600889Y763019D01*
X600992Y763027D01*
X601095Y763040D01*
X601197Y763056D01*
X601299Y763076D01*
X601400Y763099D01*
X601499Y763127D01*
X601598Y763158D01*
X601695Y763192D01*
X601792Y763231D01*
X601886Y763272D01*
X601979Y763318D01*
X602071Y763366D01*
X602160Y763418D01*
X602247Y763473D01*
X602333Y763532D01*
X602416Y763593D01*
X602497Y763658D01*
X602575Y763726D01*
X602651Y763796D01*
X602724Y763869D01*
X602794Y763945D01*
X602862Y764023D01*
X602927Y764104D01*
X602988Y764187D01*
X603047Y764273D01*
X603102Y764360D01*
X603154Y764449D01*
X603202Y764541D01*
X603248Y764634D01*
X603289Y764728D01*
X603328Y764825D01*
X603362Y764922D01*
X603393Y765021D01*
X603421Y765120D01*
X603444Y765221D01*
X603464Y765323D01*
X603480Y765425D01*
X603493Y765528D01*
X603501Y765631D01*
X603506Y765734D01*
X603363Y765734D01*
X603358Y765634D01*
X603350Y765534D01*
X603337Y765434D01*
X603321Y765335D01*
X603301Y765236D01*
X603278Y765139D01*
X603251Y765042D01*
X603220Y764947D01*
X603185Y764852D01*
X603147Y764759D01*
X603106Y764668D01*
X603061Y764578D01*
X603012Y764490D01*
X602961Y764404D01*
X602906Y764320D01*
X602848Y764238D01*
X602787Y764158D01*
X602723Y764081D01*
X602656Y764006D01*
X602587Y763933D01*
X602514Y763864D01*
X602439Y763797D01*
X602362Y763733D01*
X602282Y763672D01*
X602200Y763614D01*
X602116Y763559D01*
X602030Y763508D01*
X601942Y763459D01*
X601852Y763414D01*
X601761Y763373D01*
X601668Y763335D01*
X601573Y763300D01*
X601478Y763269D01*
X601381Y763242D01*
X601284Y763219D01*
X601185Y763199D01*
X601086Y763183D01*
X600986Y763170D01*
X600886Y763162D01*
X600786Y763157D01*
X600786Y763300D01*
X600886Y763305D01*
X600985Y763314D01*
X601084Y763327D01*
X601182Y763344D01*
X601280Y763365D01*
X601377Y763389D01*
X601472Y763418D01*
X601567Y763450D01*
X601660Y763486D01*
X601752Y763525D01*
X601841Y763568D01*
X601930Y763615D01*
X602016Y763665D01*
X602100Y763719D01*
X602182Y763776D01*
X602262Y763836D01*
X602339Y763899D01*
X602414Y763965D01*
X602486Y764034D01*
X602555Y764106D01*
X602621Y764181D01*
X602684Y764258D01*
X602744Y764338D01*
X602801Y764420D01*
X602855Y764504D01*
X602905Y764590D01*
X602952Y764679D01*
X602995Y764768D01*
X603034Y764860D01*
X603070Y764953D01*
X603102Y765048D01*
X603131Y765143D01*
X603155Y765240D01*
X603176Y765338D01*
X603193Y765436D01*
X603206Y765535D01*
X603215Y765634D01*
X603220Y765734D01*
X603077Y765734D01*
X603072Y765638D01*
X603063Y765542D01*
X603050Y765446D01*
X603033Y765351D01*
X603013Y765257D01*
X602988Y765164D01*
X602960Y765072D01*
X602928Y764981D01*
X602892Y764891D01*
X602853Y764803D01*
X602810Y764716D01*
X602764Y764632D01*
X602714Y764549D01*
X602661Y764469D01*
X602605Y764390D01*
X602546Y764314D01*
X602484Y764241D01*
X602418Y764170D01*
X602350Y764102D01*
X602279Y764036D01*
X602206Y763974D01*
X602130Y763915D01*
X602051Y763859D01*
X601971Y763806D01*
X601888Y763756D01*
X601804Y763710D01*
X601717Y763667D01*
X601629Y763628D01*
X601539Y763592D01*
X601448Y763560D01*
X601356Y763532D01*
X601263Y763507D01*
X601169Y763487D01*
X601074Y763470D01*
X600978Y763457D01*
X600882Y763448D01*
X600786Y763443D01*
X600786Y763586D01*
X600879Y763591D01*
X600971Y763600D01*
X601063Y763613D01*
X601154Y763630D01*
X601245Y763650D01*
X601335Y763674D01*
X601423Y763702D01*
X601511Y763734D01*
X601596Y763769D01*
X601681Y763808D01*
X601764Y763850D01*
X601844Y763896D01*
X601923Y763945D01*
X602000Y763997D01*
X602075Y764053D01*
X602147Y764111D01*
X602216Y764172D01*
X602283Y764237D01*
X602348Y764304D01*
X602409Y764373D01*
X602467Y764445D01*
X602523Y764520D01*
X602575Y764597D01*
X602624Y764676D01*
X602670Y764756D01*
X602712Y764839D01*
X602751Y764924D01*
X602786Y765009D01*
X602818Y765097D01*
X602846Y765185D01*
X602870Y765275D01*
X602890Y765366D01*
X602907Y765457D01*
X602920Y765549D01*
X602929Y765641D01*
X602934Y765734D01*
X602791Y765734D01*
X602785Y765645D01*
X602777Y765556D01*
X602764Y765468D01*
X602747Y765381D01*
X602727Y765294D01*
X602703Y765208D01*
X602676Y765123D01*
X602644Y765040D01*
X602610Y764958D01*
X602571Y764877D01*
X602530Y764799D01*
X602485Y764722D01*
X602437Y764647D01*
X602385Y764574D01*
X602331Y764503D01*
X602274Y764435D01*
X602213Y764370D01*
X602150Y764307D01*
X602085Y764246D01*
X602017Y764189D01*
X601946Y764135D01*
X601873Y764083D01*
X601798Y764035D01*
X601721Y763990D01*
X601643Y763949D01*
X601562Y763910D01*
X601480Y763876D01*
X601397Y763844D01*
X601312Y763817D01*
X601226Y763793D01*
X601139Y763773D01*
X601052Y763756D01*
X600964Y763743D01*
X600875Y763735D01*
X600786Y763729D01*
X600786Y763872D01*
X600871Y763878D01*
X600956Y763887D01*
X601040Y763899D01*
X601123Y763916D01*
X601206Y763936D01*
X601288Y763959D01*
X601368Y763986D01*
X601448Y764017D01*
X601526Y764051D01*
X601602Y764088D01*
X601677Y764129D01*
X601750Y764173D01*
X601821Y764221D01*
X601889Y764271D01*
X601956Y764324D01*
X602020Y764380D01*
X602081Y764439D01*
X602140Y764500D01*
X602196Y764564D01*
X602249Y764631D01*
X602299Y764699D01*
X602347Y764770D01*
X602391Y764843D01*
X602432Y764918D01*
X602469Y764994D01*
X602503Y765072D01*
X602534Y765152D01*
X602561Y765232D01*
X602584Y765314D01*
X602604Y765397D01*
X602621Y765480D01*
X602633Y765564D01*
X602642Y765649D01*
X602648Y765734D01*
X603935Y783665D02*
X602562Y783665D01*
X602562Y783666D02*
X602557Y783749D01*
X602548Y783833D01*
X602535Y783915D01*
X602519Y783997D01*
X602499Y784078D01*
X602475Y784159D01*
X602447Y784238D01*
X602416Y784315D01*
X602382Y784391D01*
X602344Y784466D01*
X602303Y784539D01*
X602258Y784610D01*
X602211Y784679D01*
X602160Y784745D01*
X602107Y784809D01*
X602050Y784871D01*
X601991Y784930D01*
X601929Y784987D01*
X601865Y785040D01*
X601799Y785091D01*
X601730Y785138D01*
X601659Y785183D01*
X601586Y785224D01*
X601511Y785262D01*
X601435Y785296D01*
X601358Y785327D01*
X601279Y785355D01*
X601198Y785379D01*
X601117Y785399D01*
X601035Y785415D01*
X600953Y785428D01*
X600869Y785437D01*
X600786Y785442D01*
X600785Y786815D01*
X600786Y786815D01*
X600898Y786811D01*
X601009Y786802D01*
X601120Y786790D01*
X601231Y786774D01*
X601340Y786754D01*
X601450Y786730D01*
X601558Y786703D01*
X601665Y786671D01*
X601771Y786636D01*
X601876Y786598D01*
X601980Y786556D01*
X602081Y786510D01*
X602182Y786461D01*
X602280Y786408D01*
X602377Y786352D01*
X602472Y786293D01*
X602564Y786230D01*
X602654Y786164D01*
X602742Y786095D01*
X602828Y786024D01*
X602911Y785949D01*
X602991Y785871D01*
X603069Y785791D01*
X603144Y785708D01*
X603215Y785622D01*
X603284Y785534D01*
X603350Y785444D01*
X603413Y785352D01*
X603472Y785257D01*
X603528Y785160D01*
X603581Y785062D01*
X603630Y784961D01*
X603676Y784860D01*
X603718Y784756D01*
X603756Y784651D01*
X603791Y784545D01*
X603823Y784438D01*
X603850Y784330D01*
X603874Y784220D01*
X603894Y784111D01*
X603910Y784000D01*
X603922Y783889D01*
X603931Y783778D01*
X603935Y783666D01*
X603792Y783666D01*
X603787Y783775D01*
X603779Y783884D01*
X603767Y783992D01*
X603751Y784100D01*
X603731Y784207D01*
X603707Y784314D01*
X603679Y784419D01*
X603648Y784524D01*
X603613Y784627D01*
X603575Y784729D01*
X603533Y784830D01*
X603487Y784929D01*
X603438Y785026D01*
X603385Y785122D01*
X603330Y785216D01*
X603270Y785307D01*
X603208Y785397D01*
X603143Y785484D01*
X603074Y785569D01*
X603003Y785651D01*
X602928Y785731D01*
X602851Y785808D01*
X602771Y785883D01*
X602689Y785954D01*
X602604Y786023D01*
X602517Y786088D01*
X602427Y786150D01*
X602336Y786210D01*
X602242Y786265D01*
X602146Y786318D01*
X602049Y786367D01*
X601950Y786413D01*
X601849Y786455D01*
X601747Y786493D01*
X601644Y786528D01*
X601539Y786559D01*
X601434Y786587D01*
X601327Y786611D01*
X601220Y786631D01*
X601112Y786647D01*
X601004Y786659D01*
X600895Y786667D01*
X600786Y786672D01*
X600786Y786529D01*
X600892Y786524D01*
X600998Y786516D01*
X601104Y786504D01*
X601209Y786487D01*
X601313Y786467D01*
X601417Y786444D01*
X601520Y786416D01*
X601621Y786385D01*
X601722Y786350D01*
X601821Y786312D01*
X601919Y786270D01*
X602015Y786225D01*
X602109Y786176D01*
X602202Y786123D01*
X602293Y786068D01*
X602381Y786009D01*
X602467Y785947D01*
X602552Y785882D01*
X602633Y785814D01*
X602712Y785743D01*
X602789Y785669D01*
X602863Y785592D01*
X602934Y785513D01*
X603002Y785432D01*
X603067Y785347D01*
X603129Y785261D01*
X603188Y785173D01*
X603243Y785082D01*
X603296Y784989D01*
X603345Y784895D01*
X603390Y784799D01*
X603432Y784701D01*
X603470Y784602D01*
X603505Y784501D01*
X603536Y784400D01*
X603564Y784297D01*
X603587Y784193D01*
X603607Y784089D01*
X603624Y783984D01*
X603636Y783878D01*
X603644Y783772D01*
X603649Y783666D01*
X603506Y783666D01*
X603501Y783769D01*
X603493Y783872D01*
X603480Y783975D01*
X603464Y784077D01*
X603444Y784179D01*
X603421Y784280D01*
X603393Y784379D01*
X603362Y784478D01*
X603328Y784575D01*
X603289Y784672D01*
X603248Y784766D01*
X603202Y784859D01*
X603154Y784951D01*
X603102Y785040D01*
X603047Y785127D01*
X602988Y785213D01*
X602927Y785296D01*
X602862Y785377D01*
X602794Y785455D01*
X602724Y785531D01*
X602651Y785604D01*
X602575Y785674D01*
X602497Y785742D01*
X602416Y785807D01*
X602333Y785868D01*
X602247Y785927D01*
X602160Y785982D01*
X602071Y786034D01*
X601979Y786082D01*
X601886Y786128D01*
X601792Y786169D01*
X601695Y786208D01*
X601598Y786242D01*
X601499Y786273D01*
X601400Y786301D01*
X601299Y786324D01*
X601197Y786344D01*
X601095Y786360D01*
X600992Y786373D01*
X600889Y786381D01*
X600786Y786386D01*
X600786Y786243D01*
X600886Y786238D01*
X600986Y786230D01*
X601086Y786217D01*
X601185Y786201D01*
X601284Y786181D01*
X601381Y786158D01*
X601478Y786131D01*
X601573Y786100D01*
X601668Y786065D01*
X601761Y786027D01*
X601852Y785986D01*
X601942Y785941D01*
X602030Y785892D01*
X602116Y785841D01*
X602200Y785786D01*
X602282Y785728D01*
X602362Y785667D01*
X602439Y785603D01*
X602514Y785536D01*
X602587Y785467D01*
X602656Y785394D01*
X602723Y785319D01*
X602787Y785242D01*
X602848Y785162D01*
X602906Y785080D01*
X602961Y784996D01*
X603012Y784910D01*
X603061Y784822D01*
X603106Y784732D01*
X603147Y784641D01*
X603185Y784548D01*
X603220Y784453D01*
X603251Y784358D01*
X603278Y784261D01*
X603301Y784164D01*
X603321Y784065D01*
X603337Y783966D01*
X603350Y783866D01*
X603358Y783766D01*
X603363Y783666D01*
X603220Y783666D01*
X603215Y783766D01*
X603206Y783865D01*
X603193Y783964D01*
X603176Y784062D01*
X603155Y784160D01*
X603131Y784257D01*
X603102Y784352D01*
X603070Y784447D01*
X603034Y784540D01*
X602995Y784632D01*
X602952Y784721D01*
X602905Y784810D01*
X602855Y784896D01*
X602801Y784980D01*
X602744Y785062D01*
X602684Y785142D01*
X602621Y785219D01*
X602555Y785294D01*
X602486Y785366D01*
X602414Y785435D01*
X602339Y785501D01*
X602262Y785564D01*
X602182Y785624D01*
X602100Y785681D01*
X602016Y785735D01*
X601930Y785785D01*
X601841Y785832D01*
X601752Y785875D01*
X601660Y785914D01*
X601567Y785950D01*
X601472Y785982D01*
X601377Y786011D01*
X601280Y786035D01*
X601182Y786056D01*
X601084Y786073D01*
X600985Y786086D01*
X600886Y786095D01*
X600786Y786100D01*
X600786Y785957D01*
X600882Y785952D01*
X600978Y785943D01*
X601074Y785930D01*
X601169Y785913D01*
X601263Y785893D01*
X601356Y785868D01*
X601448Y785840D01*
X601539Y785808D01*
X601629Y785772D01*
X601717Y785733D01*
X601804Y785690D01*
X601888Y785644D01*
X601971Y785594D01*
X602051Y785541D01*
X602130Y785485D01*
X602206Y785426D01*
X602279Y785364D01*
X602350Y785298D01*
X602418Y785230D01*
X602484Y785159D01*
X602546Y785086D01*
X602605Y785010D01*
X602661Y784931D01*
X602714Y784851D01*
X602764Y784768D01*
X602810Y784684D01*
X602853Y784597D01*
X602892Y784509D01*
X602928Y784419D01*
X602960Y784328D01*
X602988Y784236D01*
X603013Y784143D01*
X603033Y784049D01*
X603050Y783954D01*
X603063Y783858D01*
X603072Y783762D01*
X603077Y783666D01*
X602934Y783666D01*
X602929Y783759D01*
X602920Y783851D01*
X602907Y783943D01*
X602890Y784034D01*
X602870Y784125D01*
X602846Y784215D01*
X602818Y784303D01*
X602786Y784391D01*
X602751Y784476D01*
X602712Y784561D01*
X602670Y784644D01*
X602624Y784724D01*
X602575Y784803D01*
X602523Y784880D01*
X602467Y784955D01*
X602409Y785027D01*
X602348Y785096D01*
X602283Y785163D01*
X602216Y785228D01*
X602147Y785289D01*
X602075Y785347D01*
X602000Y785403D01*
X601923Y785455D01*
X601844Y785504D01*
X601764Y785550D01*
X601681Y785592D01*
X601596Y785631D01*
X601511Y785666D01*
X601423Y785698D01*
X601335Y785726D01*
X601245Y785750D01*
X601154Y785770D01*
X601063Y785787D01*
X600971Y785800D01*
X600879Y785809D01*
X600786Y785814D01*
X600786Y785671D01*
X600875Y785665D01*
X600964Y785657D01*
X601052Y785644D01*
X601139Y785627D01*
X601226Y785607D01*
X601312Y785583D01*
X601397Y785556D01*
X601480Y785524D01*
X601562Y785490D01*
X601643Y785451D01*
X601721Y785410D01*
X601798Y785365D01*
X601873Y785317D01*
X601946Y785265D01*
X602017Y785211D01*
X602085Y785154D01*
X602150Y785093D01*
X602213Y785030D01*
X602274Y784965D01*
X602331Y784897D01*
X602385Y784826D01*
X602437Y784753D01*
X602485Y784678D01*
X602530Y784601D01*
X602571Y784523D01*
X602610Y784442D01*
X602644Y784360D01*
X602676Y784277D01*
X602703Y784192D01*
X602727Y784106D01*
X602747Y784019D01*
X602764Y783932D01*
X602777Y783844D01*
X602785Y783755D01*
X602791Y783666D01*
X602648Y783666D01*
X602642Y783751D01*
X602633Y783836D01*
X602621Y783920D01*
X602604Y784003D01*
X602584Y784086D01*
X602561Y784168D01*
X602534Y784248D01*
X602503Y784328D01*
X602469Y784406D01*
X602432Y784482D01*
X602391Y784557D01*
X602347Y784630D01*
X602299Y784701D01*
X602249Y784769D01*
X602196Y784836D01*
X602140Y784900D01*
X602081Y784961D01*
X602020Y785020D01*
X601956Y785076D01*
X601889Y785129D01*
X601821Y785179D01*
X601750Y785227D01*
X601677Y785271D01*
X601602Y785312D01*
X601526Y785349D01*
X601448Y785383D01*
X601368Y785414D01*
X601288Y785441D01*
X601206Y785464D01*
X601123Y785484D01*
X601040Y785501D01*
X600956Y785513D01*
X600871Y785522D01*
X600786Y785528D01*
D13*
X546100Y786130D02*
X542290Y786130D01*
X546100Y786130D02*
X547370Y784860D01*
X546100Y763270D02*
X542290Y763270D01*
X546100Y763270D02*
X547370Y764540D01*
X595630Y784860D02*
X596900Y786130D01*
X595630Y784860D02*
X547370Y784860D01*
X595630Y764540D02*
X596900Y763270D01*
X595630Y764540D02*
X547370Y764540D01*
X596900Y786130D02*
X600710Y786130D01*
X600710Y763270D02*
X596900Y763270D01*
D11*
X546735Y789305D02*
X546735Y800735D01*
X549910Y800735D01*
X550021Y800733D01*
X550131Y800727D01*
X550242Y800718D01*
X550352Y800704D01*
X550461Y800687D01*
X550570Y800666D01*
X550678Y800641D01*
X550785Y800612D01*
X550891Y800580D01*
X550996Y800544D01*
X551099Y800504D01*
X551201Y800461D01*
X551302Y800414D01*
X551401Y800363D01*
X551498Y800310D01*
X551592Y800253D01*
X551685Y800192D01*
X551776Y800129D01*
X551865Y800062D01*
X551951Y799992D01*
X552034Y799919D01*
X552116Y799844D01*
X552194Y799766D01*
X552269Y799684D01*
X552342Y799601D01*
X552412Y799515D01*
X552479Y799426D01*
X552542Y799335D01*
X552603Y799242D01*
X552660Y799147D01*
X552713Y799051D01*
X552764Y798952D01*
X552811Y798851D01*
X552854Y798749D01*
X552894Y798646D01*
X552930Y798541D01*
X552962Y798435D01*
X552991Y798328D01*
X553016Y798220D01*
X553037Y798111D01*
X553054Y798002D01*
X553068Y797892D01*
X553077Y797781D01*
X553083Y797671D01*
X553085Y797560D01*
X553083Y797449D01*
X553077Y797339D01*
X553068Y797228D01*
X553054Y797118D01*
X553037Y797009D01*
X553016Y796900D01*
X552991Y796792D01*
X552962Y796685D01*
X552930Y796579D01*
X552894Y796474D01*
X552854Y796371D01*
X552811Y796269D01*
X552764Y796168D01*
X552713Y796069D01*
X552660Y795973D01*
X552603Y795878D01*
X552542Y795785D01*
X552479Y795694D01*
X552412Y795605D01*
X552342Y795519D01*
X552269Y795436D01*
X552194Y795354D01*
X552116Y795276D01*
X552034Y795201D01*
X551951Y795128D01*
X551865Y795058D01*
X551776Y794991D01*
X551685Y794928D01*
X551592Y794867D01*
X551498Y794810D01*
X551401Y794757D01*
X551302Y794706D01*
X551201Y794659D01*
X551099Y794616D01*
X550996Y794576D01*
X550891Y794540D01*
X550785Y794508D01*
X550678Y794479D01*
X550570Y794454D01*
X550461Y794433D01*
X550352Y794416D01*
X550242Y794402D01*
X550131Y794393D01*
X550021Y794387D01*
X549910Y794385D01*
X546735Y794385D01*
X550545Y794385D02*
X553085Y789305D01*
X564433Y797878D02*
X564431Y797982D01*
X564425Y798087D01*
X564416Y798191D01*
X564403Y798294D01*
X564385Y798397D01*
X564365Y798499D01*
X564340Y798601D01*
X564312Y798701D01*
X564280Y798801D01*
X564244Y798899D01*
X564205Y798996D01*
X564163Y799091D01*
X564117Y799185D01*
X564067Y799277D01*
X564015Y799367D01*
X563959Y799455D01*
X563899Y799541D01*
X563837Y799625D01*
X563772Y799706D01*
X563704Y799785D01*
X563632Y799862D01*
X563559Y799935D01*
X563482Y800007D01*
X563403Y800075D01*
X563322Y800140D01*
X563238Y800202D01*
X563152Y800262D01*
X563064Y800318D01*
X562974Y800370D01*
X562882Y800420D01*
X562788Y800466D01*
X562693Y800508D01*
X562596Y800547D01*
X562498Y800583D01*
X562398Y800615D01*
X562298Y800643D01*
X562196Y800668D01*
X562094Y800688D01*
X561991Y800706D01*
X561888Y800719D01*
X561784Y800728D01*
X561679Y800734D01*
X561575Y800736D01*
X561575Y800735D02*
X561457Y800733D01*
X561338Y800727D01*
X561220Y800718D01*
X561103Y800705D01*
X560986Y800687D01*
X560869Y800667D01*
X560753Y800642D01*
X560638Y800614D01*
X560525Y800581D01*
X560412Y800546D01*
X560300Y800506D01*
X560190Y800464D01*
X560081Y800417D01*
X559973Y800367D01*
X559868Y800314D01*
X559764Y800257D01*
X559662Y800197D01*
X559562Y800134D01*
X559464Y800067D01*
X559368Y799998D01*
X559275Y799925D01*
X559184Y799849D01*
X559095Y799771D01*
X559009Y799689D01*
X558926Y799605D01*
X558845Y799519D01*
X558768Y799429D01*
X558693Y799338D01*
X558621Y799244D01*
X558552Y799147D01*
X558487Y799049D01*
X558424Y798948D01*
X558365Y798845D01*
X558309Y798741D01*
X558257Y798635D01*
X558208Y798527D01*
X558163Y798418D01*
X558121Y798307D01*
X558083Y798195D01*
X563480Y795656D02*
X563556Y795731D01*
X563631Y795810D01*
X563702Y795891D01*
X563771Y795975D01*
X563836Y796061D01*
X563898Y796149D01*
X563958Y796239D01*
X564014Y796331D01*
X564067Y796426D01*
X564116Y796522D01*
X564162Y796620D01*
X564205Y796719D01*
X564244Y796820D01*
X564279Y796922D01*
X564311Y797025D01*
X564339Y797129D01*
X564364Y797234D01*
X564385Y797341D01*
X564402Y797447D01*
X564415Y797554D01*
X564424Y797662D01*
X564430Y797770D01*
X564432Y797878D01*
X563480Y795655D02*
X558082Y789305D01*
X564432Y789305D01*
D10*
X160020Y681990D02*
X160020Y638810D01*
X220980Y638810D02*
X220980Y681990D01*
X200660Y690880D02*
X180520Y690880D01*
X180220Y629920D02*
X200660Y629920D01*
X172720Y660400D02*
X172725Y660836D01*
X172741Y661272D01*
X172768Y661708D01*
X172806Y662143D01*
X172854Y662576D01*
X172912Y663009D01*
X172982Y663440D01*
X173062Y663869D01*
X173152Y664296D01*
X173253Y664720D01*
X173364Y665142D01*
X173486Y665561D01*
X173617Y665977D01*
X173759Y666390D01*
X173911Y666799D01*
X174073Y667204D01*
X174245Y667605D01*
X174427Y668002D01*
X174618Y668394D01*
X174819Y668781D01*
X175030Y669164D01*
X175250Y669541D01*
X175479Y669912D01*
X175716Y670278D01*
X175963Y670638D01*
X176219Y670992D01*
X176483Y671339D01*
X176756Y671680D01*
X177037Y672013D01*
X177326Y672340D01*
X177623Y672660D01*
X177928Y672972D01*
X178240Y673277D01*
X178560Y673574D01*
X178887Y673863D01*
X179220Y674144D01*
X179561Y674417D01*
X179908Y674681D01*
X180262Y674937D01*
X180622Y675184D01*
X180988Y675421D01*
X181359Y675650D01*
X181736Y675870D01*
X182119Y676081D01*
X182506Y676282D01*
X182898Y676473D01*
X183295Y676655D01*
X183696Y676827D01*
X184101Y676989D01*
X184510Y677141D01*
X184923Y677283D01*
X185339Y677414D01*
X185758Y677536D01*
X186180Y677647D01*
X186604Y677748D01*
X187031Y677838D01*
X187460Y677918D01*
X187891Y677988D01*
X188324Y678046D01*
X188757Y678094D01*
X189192Y678132D01*
X189628Y678159D01*
X190064Y678175D01*
X190500Y678180D01*
X190936Y678175D01*
X191372Y678159D01*
X191808Y678132D01*
X192243Y678094D01*
X192676Y678046D01*
X193109Y677988D01*
X193540Y677918D01*
X193969Y677838D01*
X194396Y677748D01*
X194820Y677647D01*
X195242Y677536D01*
X195661Y677414D01*
X196077Y677283D01*
X196490Y677141D01*
X196899Y676989D01*
X197304Y676827D01*
X197705Y676655D01*
X198102Y676473D01*
X198494Y676282D01*
X198881Y676081D01*
X199264Y675870D01*
X199641Y675650D01*
X200012Y675421D01*
X200378Y675184D01*
X200738Y674937D01*
X201092Y674681D01*
X201439Y674417D01*
X201780Y674144D01*
X202113Y673863D01*
X202440Y673574D01*
X202760Y673277D01*
X203072Y672972D01*
X203377Y672660D01*
X203674Y672340D01*
X203963Y672013D01*
X204244Y671680D01*
X204517Y671339D01*
X204781Y670992D01*
X205037Y670638D01*
X205284Y670278D01*
X205521Y669912D01*
X205750Y669541D01*
X205970Y669164D01*
X206181Y668781D01*
X206382Y668394D01*
X206573Y668002D01*
X206755Y667605D01*
X206927Y667204D01*
X207089Y666799D01*
X207241Y666390D01*
X207383Y665977D01*
X207514Y665561D01*
X207636Y665142D01*
X207747Y664720D01*
X207848Y664296D01*
X207938Y663869D01*
X208018Y663440D01*
X208088Y663009D01*
X208146Y662576D01*
X208194Y662143D01*
X208232Y661708D01*
X208259Y661272D01*
X208275Y660836D01*
X208280Y660400D01*
X208275Y659964D01*
X208259Y659528D01*
X208232Y659092D01*
X208194Y658657D01*
X208146Y658224D01*
X208088Y657791D01*
X208018Y657360D01*
X207938Y656931D01*
X207848Y656504D01*
X207747Y656080D01*
X207636Y655658D01*
X207514Y655239D01*
X207383Y654823D01*
X207241Y654410D01*
X207089Y654001D01*
X206927Y653596D01*
X206755Y653195D01*
X206573Y652798D01*
X206382Y652406D01*
X206181Y652019D01*
X205970Y651636D01*
X205750Y651259D01*
X205521Y650888D01*
X205284Y650522D01*
X205037Y650162D01*
X204781Y649808D01*
X204517Y649461D01*
X204244Y649120D01*
X203963Y648787D01*
X203674Y648460D01*
X203377Y648140D01*
X203072Y647828D01*
X202760Y647523D01*
X202440Y647226D01*
X202113Y646937D01*
X201780Y646656D01*
X201439Y646383D01*
X201092Y646119D01*
X200738Y645863D01*
X200378Y645616D01*
X200012Y645379D01*
X199641Y645150D01*
X199264Y644930D01*
X198881Y644719D01*
X198494Y644518D01*
X198102Y644327D01*
X197705Y644145D01*
X197304Y643973D01*
X196899Y643811D01*
X196490Y643659D01*
X196077Y643517D01*
X195661Y643386D01*
X195242Y643264D01*
X194820Y643153D01*
X194396Y643052D01*
X193969Y642962D01*
X193540Y642882D01*
X193109Y642812D01*
X192676Y642754D01*
X192243Y642706D01*
X191808Y642668D01*
X191372Y642641D01*
X190936Y642625D01*
X190500Y642620D01*
X190064Y642625D01*
X189628Y642641D01*
X189192Y642668D01*
X188757Y642706D01*
X188324Y642754D01*
X187891Y642812D01*
X187460Y642882D01*
X187031Y642962D01*
X186604Y643052D01*
X186180Y643153D01*
X185758Y643264D01*
X185339Y643386D01*
X184923Y643517D01*
X184510Y643659D01*
X184101Y643811D01*
X183696Y643973D01*
X183295Y644145D01*
X182898Y644327D01*
X182506Y644518D01*
X182119Y644719D01*
X181736Y644930D01*
X181359Y645150D01*
X180988Y645379D01*
X180622Y645616D01*
X180262Y645863D01*
X179908Y646119D01*
X179561Y646383D01*
X179220Y646656D01*
X178887Y646937D01*
X178560Y647226D01*
X178240Y647523D01*
X177928Y647828D01*
X177623Y648140D01*
X177326Y648460D01*
X177037Y648787D01*
X176756Y649120D01*
X176483Y649461D01*
X176219Y649808D01*
X175963Y650162D01*
X175716Y650522D01*
X175479Y650888D01*
X175250Y651259D01*
X175030Y651636D01*
X174819Y652019D01*
X174618Y652406D01*
X174427Y652798D01*
X174245Y653195D01*
X174073Y653596D01*
X173911Y654001D01*
X173759Y654410D01*
X173617Y654823D01*
X173486Y655239D01*
X173364Y655658D01*
X173253Y656080D01*
X173152Y656504D01*
X173062Y656931D01*
X172982Y657360D01*
X172912Y657791D01*
X172854Y658224D01*
X172806Y658657D01*
X172768Y659092D01*
X172741Y659528D01*
X172725Y659964D01*
X172720Y660400D01*
D11*
X156845Y658016D02*
X156843Y658081D01*
X156837Y658145D01*
X156827Y658209D01*
X156814Y658273D01*
X156796Y658335D01*
X156775Y658396D01*
X156751Y658456D01*
X156722Y658514D01*
X156690Y658571D01*
X156655Y658625D01*
X156617Y658677D01*
X156575Y658727D01*
X156531Y658774D01*
X156484Y658818D01*
X156434Y658860D01*
X156382Y658898D01*
X156328Y658933D01*
X156271Y658965D01*
X156213Y658994D01*
X156153Y659018D01*
X156092Y659039D01*
X156030Y659057D01*
X155966Y659070D01*
X155902Y659080D01*
X155838Y659086D01*
X155773Y659088D01*
X156845Y658016D02*
X156843Y657922D01*
X156837Y657828D01*
X156827Y657734D01*
X156814Y657641D01*
X156796Y657549D01*
X156775Y657457D01*
X156750Y657366D01*
X156721Y657276D01*
X156688Y657188D01*
X156652Y657101D01*
X156612Y657016D01*
X156569Y656932D01*
X156522Y656851D01*
X156472Y656771D01*
X156419Y656693D01*
X156362Y656618D01*
X156303Y656545D01*
X156240Y656475D01*
X156175Y656407D01*
X153091Y656542D02*
X153026Y656544D01*
X152962Y656550D01*
X152898Y656560D01*
X152834Y656573D01*
X152772Y656591D01*
X152711Y656612D01*
X152651Y656636D01*
X152593Y656665D01*
X152536Y656697D01*
X152482Y656732D01*
X152430Y656770D01*
X152380Y656812D01*
X152333Y656856D01*
X152289Y656903D01*
X152247Y656953D01*
X152209Y657005D01*
X152174Y657059D01*
X152142Y657116D01*
X152113Y657174D01*
X152089Y657234D01*
X152068Y657295D01*
X152050Y657357D01*
X152037Y657421D01*
X152027Y657485D01*
X152021Y657549D01*
X152019Y657614D01*
X152021Y657700D01*
X152026Y657786D01*
X152036Y657872D01*
X152049Y657957D01*
X152065Y658042D01*
X152085Y658126D01*
X152109Y658209D01*
X152136Y658291D01*
X152167Y658371D01*
X152201Y658451D01*
X152239Y658528D01*
X152280Y658604D01*
X152324Y658678D01*
X152371Y658751D01*
X152421Y658821D01*
X154029Y657078D02*
X153996Y657025D01*
X153959Y656974D01*
X153920Y656925D01*
X153878Y656878D01*
X153833Y656834D01*
X153786Y656793D01*
X153737Y656754D01*
X153685Y656718D01*
X153631Y656685D01*
X153576Y656656D01*
X153519Y656630D01*
X153460Y656607D01*
X153401Y656587D01*
X153340Y656571D01*
X153279Y656558D01*
X153216Y656549D01*
X153154Y656544D01*
X153091Y656542D01*
X154835Y658553D02*
X154868Y658606D01*
X154905Y658657D01*
X154944Y658706D01*
X154986Y658753D01*
X155031Y658797D01*
X155078Y658838D01*
X155127Y658877D01*
X155179Y658913D01*
X155233Y658946D01*
X155288Y658975D01*
X155345Y659001D01*
X155404Y659024D01*
X155463Y659044D01*
X155524Y659060D01*
X155585Y659073D01*
X155648Y659082D01*
X155710Y659087D01*
X155773Y659089D01*
X154834Y658553D02*
X154030Y657078D01*
X153091Y661711D02*
X152019Y663052D01*
X156845Y663052D01*
X156845Y664392D02*
X156845Y661711D01*
D10*
X292100Y685800D02*
X647700Y685800D01*
X647700Y635000D02*
X292100Y635000D01*
X647700Y635000D02*
X647700Y685800D01*
X292100Y685800D02*
X292100Y670560D01*
X292100Y650240D02*
X292100Y635000D01*
X292100Y650240D02*
X292347Y650243D01*
X292595Y650252D01*
X292842Y650267D01*
X293088Y650288D01*
X293334Y650315D01*
X293579Y650348D01*
X293824Y650387D01*
X294067Y650432D01*
X294309Y650483D01*
X294550Y650540D01*
X294789Y650602D01*
X295027Y650671D01*
X295263Y650745D01*
X295497Y650825D01*
X295729Y650910D01*
X295959Y651002D01*
X296187Y651098D01*
X296412Y651201D01*
X296635Y651308D01*
X296855Y651422D01*
X297072Y651540D01*
X297287Y651664D01*
X297498Y651793D01*
X297706Y651927D01*
X297911Y652066D01*
X298112Y652210D01*
X298310Y652358D01*
X298504Y652512D01*
X298694Y652670D01*
X298880Y652833D01*
X299062Y653000D01*
X299240Y653172D01*
X299414Y653348D01*
X299584Y653528D01*
X299749Y653713D01*
X299909Y653901D01*
X300065Y654093D01*
X300217Y654289D01*
X300363Y654488D01*
X300505Y654691D01*
X300641Y654898D01*
X300773Y655107D01*
X300899Y655320D01*
X301020Y655536D01*
X301136Y655754D01*
X301246Y655976D01*
X301351Y656200D01*
X301451Y656426D01*
X301545Y656655D01*
X301633Y656886D01*
X301716Y657120D01*
X301793Y657355D01*
X301864Y657592D01*
X301930Y657830D01*
X301989Y658070D01*
X302043Y658312D01*
X302091Y658555D01*
X302133Y658798D01*
X302169Y659043D01*
X302199Y659289D01*
X302223Y659535D01*
X302241Y659782D01*
X302253Y660029D01*
X302259Y660276D01*
X302259Y660524D01*
X302253Y660771D01*
X302241Y661018D01*
X302223Y661265D01*
X302199Y661511D01*
X302169Y661757D01*
X302133Y662002D01*
X302091Y662245D01*
X302043Y662488D01*
X301989Y662730D01*
X301930Y662970D01*
X301864Y663208D01*
X301793Y663445D01*
X301716Y663680D01*
X301633Y663914D01*
X301545Y664145D01*
X301451Y664374D01*
X301351Y664600D01*
X301246Y664824D01*
X301136Y665046D01*
X301020Y665264D01*
X300899Y665480D01*
X300773Y665693D01*
X300641Y665902D01*
X300505Y666109D01*
X300363Y666312D01*
X300217Y666511D01*
X300065Y666707D01*
X299909Y666899D01*
X299749Y667087D01*
X299584Y667272D01*
X299414Y667452D01*
X299240Y667628D01*
X299062Y667800D01*
X298880Y667967D01*
X298694Y668130D01*
X298504Y668288D01*
X298310Y668442D01*
X298112Y668590D01*
X297911Y668734D01*
X297706Y668873D01*
X297498Y669007D01*
X297287Y669136D01*
X297072Y669260D01*
X296855Y669378D01*
X296635Y669492D01*
X296412Y669599D01*
X296187Y669702D01*
X295959Y669798D01*
X295729Y669890D01*
X295497Y669975D01*
X295263Y670055D01*
X295027Y670129D01*
X294789Y670198D01*
X294550Y670260D01*
X294309Y670317D01*
X294067Y670368D01*
X293824Y670413D01*
X293579Y670452D01*
X293334Y670485D01*
X293088Y670512D01*
X292842Y670533D01*
X292595Y670548D01*
X292347Y670557D01*
X292100Y670560D01*
D15*
X280670Y628650D02*
X280672Y628792D01*
X280678Y628935D01*
X280688Y629077D01*
X280702Y629219D01*
X280720Y629360D01*
X280742Y629501D01*
X280768Y629641D01*
X280797Y629780D01*
X280831Y629919D01*
X280869Y630056D01*
X280910Y630193D01*
X280955Y630328D01*
X281004Y630462D01*
X281057Y630594D01*
X281113Y630725D01*
X281173Y630854D01*
X281237Y630982D01*
X281304Y631107D01*
X281375Y631231D01*
X281449Y631353D01*
X281526Y631472D01*
X281607Y631590D01*
X281691Y631705D01*
X281778Y631817D01*
X281869Y631927D01*
X281962Y632035D01*
X282059Y632140D01*
X282158Y632242D01*
X282260Y632341D01*
X282365Y632438D01*
X282473Y632531D01*
X282583Y632622D01*
X282695Y632709D01*
X282810Y632793D01*
X282928Y632874D01*
X283047Y632951D01*
X283169Y633025D01*
X283293Y633096D01*
X283418Y633163D01*
X283546Y633227D01*
X283675Y633287D01*
X283806Y633343D01*
X283938Y633396D01*
X284072Y633445D01*
X284207Y633490D01*
X284344Y633531D01*
X284481Y633569D01*
X284620Y633603D01*
X284759Y633632D01*
X284899Y633658D01*
X285040Y633680D01*
X285181Y633698D01*
X285323Y633712D01*
X285465Y633722D01*
X285608Y633728D01*
X285750Y633730D01*
X285892Y633728D01*
X286035Y633722D01*
X286177Y633712D01*
X286319Y633698D01*
X286460Y633680D01*
X286601Y633658D01*
X286741Y633632D01*
X286880Y633603D01*
X287019Y633569D01*
X287156Y633531D01*
X287293Y633490D01*
X287428Y633445D01*
X287562Y633396D01*
X287694Y633343D01*
X287825Y633287D01*
X287954Y633227D01*
X288082Y633163D01*
X288207Y633096D01*
X288331Y633025D01*
X288453Y632951D01*
X288572Y632874D01*
X288690Y632793D01*
X288805Y632709D01*
X288917Y632622D01*
X289027Y632531D01*
X289135Y632438D01*
X289240Y632341D01*
X289342Y632242D01*
X289441Y632140D01*
X289538Y632035D01*
X289631Y631927D01*
X289722Y631817D01*
X289809Y631705D01*
X289893Y631590D01*
X289974Y631472D01*
X290051Y631353D01*
X290125Y631231D01*
X290196Y631107D01*
X290263Y630982D01*
X290327Y630854D01*
X290387Y630725D01*
X290443Y630594D01*
X290496Y630462D01*
X290545Y630328D01*
X290590Y630193D01*
X290631Y630056D01*
X290669Y629919D01*
X290703Y629780D01*
X290732Y629641D01*
X290758Y629501D01*
X290780Y629360D01*
X290798Y629219D01*
X290812Y629077D01*
X290822Y628935D01*
X290828Y628792D01*
X290830Y628650D01*
X290828Y628508D01*
X290822Y628365D01*
X290812Y628223D01*
X290798Y628081D01*
X290780Y627940D01*
X290758Y627799D01*
X290732Y627659D01*
X290703Y627520D01*
X290669Y627381D01*
X290631Y627244D01*
X290590Y627107D01*
X290545Y626972D01*
X290496Y626838D01*
X290443Y626706D01*
X290387Y626575D01*
X290327Y626446D01*
X290263Y626318D01*
X290196Y626193D01*
X290125Y626069D01*
X290051Y625947D01*
X289974Y625828D01*
X289893Y625710D01*
X289809Y625595D01*
X289722Y625483D01*
X289631Y625373D01*
X289538Y625265D01*
X289441Y625160D01*
X289342Y625058D01*
X289240Y624959D01*
X289135Y624862D01*
X289027Y624769D01*
X288917Y624678D01*
X288805Y624591D01*
X288690Y624507D01*
X288572Y624426D01*
X288453Y624349D01*
X288331Y624275D01*
X288207Y624204D01*
X288082Y624137D01*
X287954Y624073D01*
X287825Y624013D01*
X287694Y623957D01*
X287562Y623904D01*
X287428Y623855D01*
X287293Y623810D01*
X287156Y623769D01*
X287019Y623731D01*
X286880Y623697D01*
X286741Y623668D01*
X286601Y623642D01*
X286460Y623620D01*
X286319Y623602D01*
X286177Y623588D01*
X286035Y623578D01*
X285892Y623572D01*
X285750Y623570D01*
X285608Y623572D01*
X285465Y623578D01*
X285323Y623588D01*
X285181Y623602D01*
X285040Y623620D01*
X284899Y623642D01*
X284759Y623668D01*
X284620Y623697D01*
X284481Y623731D01*
X284344Y623769D01*
X284207Y623810D01*
X284072Y623855D01*
X283938Y623904D01*
X283806Y623957D01*
X283675Y624013D01*
X283546Y624073D01*
X283418Y624137D01*
X283293Y624204D01*
X283169Y624275D01*
X283047Y624349D01*
X282928Y624426D01*
X282810Y624507D01*
X282695Y624591D01*
X282583Y624678D01*
X282473Y624769D01*
X282365Y624862D01*
X282260Y624959D01*
X282158Y625058D01*
X282059Y625160D01*
X281962Y625265D01*
X281869Y625373D01*
X281778Y625483D01*
X281691Y625595D01*
X281607Y625710D01*
X281526Y625828D01*
X281449Y625947D01*
X281375Y626069D01*
X281304Y626193D01*
X281237Y626318D01*
X281173Y626446D01*
X281113Y626575D01*
X281057Y626706D01*
X281004Y626838D01*
X280955Y626972D01*
X280910Y627107D01*
X280869Y627244D01*
X280831Y627381D01*
X280797Y627520D01*
X280768Y627659D01*
X280742Y627799D01*
X280720Y627940D01*
X280702Y628081D01*
X280688Y628223D01*
X280678Y628365D01*
X280672Y628508D01*
X280670Y628650D01*
D11*
X280289Y656225D02*
X283774Y656225D01*
X283774Y656224D02*
X283845Y656226D01*
X283917Y656232D01*
X283987Y656241D01*
X284057Y656254D01*
X284127Y656271D01*
X284195Y656292D01*
X284262Y656316D01*
X284328Y656344D01*
X284392Y656375D01*
X284455Y656410D01*
X284515Y656448D01*
X284574Y656489D01*
X284630Y656533D01*
X284684Y656580D01*
X284735Y656629D01*
X284783Y656682D01*
X284829Y656737D01*
X284871Y656794D01*
X284911Y656854D01*
X284947Y656915D01*
X284980Y656979D01*
X285009Y657044D01*
X285035Y657110D01*
X285058Y657178D01*
X285077Y657247D01*
X285092Y657317D01*
X285103Y657387D01*
X285111Y657458D01*
X285115Y657529D01*
X285115Y657601D01*
X285111Y657672D01*
X285103Y657743D01*
X285092Y657813D01*
X285077Y657883D01*
X285058Y657952D01*
X285035Y658020D01*
X285009Y658086D01*
X284980Y658151D01*
X284947Y658215D01*
X284911Y658276D01*
X284871Y658336D01*
X284829Y658393D01*
X284783Y658448D01*
X284735Y658501D01*
X284684Y658550D01*
X284630Y658597D01*
X284574Y658641D01*
X284515Y658682D01*
X284455Y658720D01*
X284392Y658755D01*
X284328Y658786D01*
X284262Y658814D01*
X284195Y658838D01*
X284127Y658859D01*
X284057Y658876D01*
X283987Y658889D01*
X283917Y658898D01*
X283845Y658904D01*
X283774Y658906D01*
X280289Y658906D01*
X281361Y661894D02*
X280289Y663235D01*
X285115Y663235D01*
X285115Y664575D02*
X285115Y661894D01*
D10*
X358900Y120300D02*
X622950Y120300D01*
X358900Y120300D02*
X295650Y183550D01*
X295650Y299050D01*
X358900Y362300D01*
X622950Y362300D01*
X622950Y120300D01*
D13*
X421215Y157471D02*
X421215Y315659D01*
X474269Y315659D02*
X474269Y157471D01*
D16*
X428177Y167218D02*
X428177Y182536D01*
X429013Y182536D01*
X429848Y182118D01*
X430545Y182536D01*
X431241Y182536D01*
X440014Y186017D01*
X430266Y195904D01*
X429570Y196461D01*
X428734Y196878D01*
X428177Y197018D01*
X428177Y205790D01*
X429431Y203980D01*
X430405Y202588D01*
X432076Y200638D01*
X444330Y187549D01*
X463547Y195347D01*
X466610Y197575D01*
X466610Y197992D01*
X465775Y198828D01*
X462433Y199942D01*
X456167Y201613D01*
X448229Y203562D01*
X433469Y207183D01*
X430962Y207740D01*
X428177Y207740D01*
X428177Y239350D01*
X428595Y241021D01*
X429291Y242135D01*
X430823Y242970D01*
X432216Y243527D01*
X434583Y243527D01*
X435697Y243109D01*
X442659Y241438D01*
X444052Y240881D01*
X446141Y238793D01*
X446837Y237122D01*
X447394Y234894D01*
X447394Y232109D01*
X447951Y236147D01*
X449343Y239071D01*
X449622Y239210D01*
X453382Y239210D01*
X459509Y237679D01*
X461040Y236704D01*
X462711Y236425D01*
X465079Y234337D01*
X465914Y232666D01*
X466750Y230020D01*
X466750Y181700D01*
X465218Y182536D01*
X464243Y182536D01*
X453242Y178080D01*
X464522Y166522D01*
X466750Y165269D01*
X466750Y157053D01*
X464243Y160534D01*
X449065Y176687D01*
X429709Y168750D01*
X428177Y167218D01*
X432912Y218323D02*
X432912Y231134D01*
X433608Y232387D01*
X435836Y232526D01*
X443216Y230577D01*
X444191Y230159D01*
X444748Y229324D01*
X444748Y215399D01*
X432912Y218323D01*
X449761Y214424D02*
X449761Y227096D01*
X450179Y228210D01*
X451154Y228906D01*
X451571Y228906D01*
X459787Y226817D01*
X460623Y226260D01*
X461737Y225285D01*
X462015Y224728D01*
X462015Y211221D01*
X449761Y214424D01*
X450875Y254946D02*
X445166Y255920D01*
X444052Y256338D01*
X443077Y256895D01*
X442659Y257731D01*
X442659Y267617D01*
X442799Y268174D01*
X443216Y268592D01*
X445027Y268592D01*
X451014Y267060D01*
X451014Y255085D01*
X450875Y254946D01*
X466750Y245337D02*
X466750Y272909D01*
X466750Y245337D02*
X466471Y244223D01*
X465636Y243109D01*
X464661Y242413D01*
X463129Y241995D01*
X461737Y241995D01*
X459509Y242274D01*
X447115Y245059D01*
X445584Y245477D01*
X442242Y247148D01*
X440431Y248401D01*
X439039Y250629D01*
X438482Y252300D01*
X438343Y253135D01*
X438343Y274998D01*
X438900Y276529D01*
X440292Y278340D01*
X440849Y278897D01*
X445723Y278897D01*
X455331Y276529D01*
X455331Y253692D01*
X460066Y252578D01*
X460901Y252300D01*
X461876Y252439D01*
X462294Y252996D01*
X462294Y273048D01*
X462015Y274858D01*
X466750Y272909D01*
X450875Y291986D02*
X445166Y292960D01*
X444052Y293378D01*
X443077Y293935D01*
X442659Y294771D01*
X442659Y304657D01*
X442799Y305214D01*
X443216Y305632D01*
X445027Y305632D01*
X451014Y304100D01*
X451014Y292125D01*
X450875Y291986D01*
X466750Y282377D02*
X466750Y309949D01*
X466750Y282377D02*
X466471Y281263D01*
X465636Y280149D01*
X464661Y279453D01*
X463129Y279035D01*
X461737Y279035D01*
X459509Y279314D01*
X447115Y282099D01*
X445584Y282517D01*
X442242Y284188D01*
X440431Y285441D01*
X439039Y287669D01*
X438482Y289340D01*
X438343Y290175D01*
X438343Y312038D01*
X438900Y313569D01*
X440292Y315380D01*
X440849Y315937D01*
X445723Y315937D01*
X455331Y313569D01*
X455331Y290732D01*
X460066Y289618D01*
X460901Y289340D01*
X461876Y289479D01*
X462294Y290036D01*
X462294Y310088D01*
X462015Y311898D01*
X466750Y309949D01*
X484017Y245477D02*
X484017Y244223D01*
X484017Y245477D02*
X483181Y246591D01*
X482067Y247705D01*
X482763Y248958D01*
X482763Y253971D01*
X483181Y258009D01*
X484852Y260794D01*
X486105Y261490D01*
X486662Y261490D01*
X487916Y260933D01*
X488890Y260098D01*
X490004Y258427D01*
X493068Y252300D01*
X494321Y249097D01*
X494878Y246591D01*
X495017Y245755D01*
X495017Y244780D01*
X496271Y244363D01*
X498777Y243527D01*
X501005Y242831D01*
X501980Y242274D01*
X502537Y241995D01*
X502815Y241438D01*
X502398Y240742D01*
X501562Y240185D01*
X500587Y240185D01*
X499473Y240464D01*
X496828Y241717D01*
X494878Y242552D01*
X493068Y242831D01*
X491397Y243249D01*
X489169Y243945D01*
X487498Y244641D01*
X486384Y245337D01*
X486384Y244223D01*
X484017Y244223D01*
X485548Y249097D02*
X485548Y256199D01*
X486245Y257870D01*
X486523Y258288D01*
X486941Y258148D01*
X487498Y257452D01*
X488612Y255224D01*
X489865Y253414D01*
X490561Y250907D01*
X491258Y249097D01*
X491397Y247983D01*
X491397Y246312D01*
X486245Y248819D01*
X485548Y249097D01*
X485688Y267478D02*
X486245Y267896D01*
X485688Y267478D02*
X485270Y266782D01*
X484713Y266503D01*
X483877Y266643D01*
X483042Y267478D01*
X482485Y269010D01*
X481789Y270820D01*
X481789Y278897D01*
X482206Y280568D01*
X482903Y282517D01*
X483599Y283631D01*
X484713Y284606D01*
X485409Y284884D01*
X486662Y284188D01*
X487776Y284188D01*
X488890Y283074D01*
X489865Y281542D01*
X491258Y278479D01*
X493068Y275555D01*
X493903Y274162D01*
X495992Y276251D01*
X497802Y278897D01*
X499334Y280846D01*
X500727Y281960D01*
X502119Y282517D01*
X502955Y282656D01*
X503790Y282239D01*
X503929Y281821D01*
X503094Y280707D01*
X498777Y275276D01*
X495296Y270124D01*
X495296Y269149D01*
X496271Y268871D01*
X499056Y267896D01*
X501562Y267060D01*
X502955Y266503D01*
X503790Y266503D01*
X502398Y264972D01*
X500309Y264832D01*
X498916Y265111D01*
X494460Y266364D01*
X491954Y267060D01*
X488473Y268592D01*
X486662Y269567D01*
X485688Y269985D01*
X485548Y269010D01*
X486384Y267896D01*
X486245Y267896D01*
X485131Y273884D02*
X485131Y278897D01*
X485409Y280568D01*
X486245Y280985D01*
X486523Y280011D01*
X487916Y278618D01*
X489030Y276669D01*
X490004Y274858D01*
X490422Y272770D01*
X491258Y271099D01*
X486523Y273744D01*
X485131Y273884D01*
X486523Y299784D02*
X486523Y303265D01*
X487080Y304936D01*
X490283Y308000D01*
X493625Y308000D01*
X495574Y305215D01*
X497245Y302291D01*
X498359Y298809D01*
X499613Y295467D01*
X499752Y292125D01*
X499056Y290872D01*
X497663Y291011D01*
X493625Y292265D01*
X490422Y294632D01*
X487637Y298252D01*
X486523Y299784D01*
X481789Y301316D02*
X482346Y302708D01*
X483460Y303683D01*
X484156Y303822D01*
X484713Y305772D01*
X486662Y308557D01*
X488612Y310924D01*
X491258Y311620D01*
X493068Y311342D01*
X495853Y309810D01*
X497942Y307164D01*
X499891Y305215D01*
X500727Y301594D01*
X502398Y298949D01*
X502955Y294910D01*
X502955Y291708D01*
X501423Y289340D01*
X498777Y287948D01*
X495992Y288087D01*
X492650Y288783D01*
X491536Y289201D01*
X487776Y292961D01*
X483320Y298252D01*
X481789Y301177D01*
X309692Y127508D02*
X298008Y135297D01*
X298008Y127508D02*
X309692Y135297D01*
X303201Y140137D02*
X303201Y143383D01*
X303200Y143383D02*
X303202Y143496D01*
X303208Y143609D01*
X303218Y143722D01*
X303232Y143835D01*
X303249Y143947D01*
X303271Y144058D01*
X303296Y144168D01*
X303326Y144278D01*
X303359Y144386D01*
X303396Y144493D01*
X303436Y144599D01*
X303481Y144703D01*
X303529Y144806D01*
X303580Y144907D01*
X303635Y145006D01*
X303693Y145103D01*
X303755Y145198D01*
X303820Y145291D01*
X303888Y145381D01*
X303959Y145469D01*
X304034Y145555D01*
X304111Y145638D01*
X304191Y145718D01*
X304274Y145795D01*
X304360Y145870D01*
X304448Y145941D01*
X304538Y146009D01*
X304631Y146074D01*
X304726Y146136D01*
X304823Y146194D01*
X304922Y146249D01*
X305023Y146300D01*
X305126Y146348D01*
X305230Y146393D01*
X305336Y146433D01*
X305443Y146470D01*
X305551Y146503D01*
X305661Y146533D01*
X305771Y146558D01*
X305882Y146580D01*
X305994Y146597D01*
X306107Y146611D01*
X306220Y146621D01*
X306333Y146627D01*
X306446Y146629D01*
X306559Y146627D01*
X306672Y146621D01*
X306785Y146611D01*
X306898Y146597D01*
X307010Y146580D01*
X307121Y146558D01*
X307231Y146533D01*
X307341Y146503D01*
X307449Y146470D01*
X307556Y146433D01*
X307662Y146393D01*
X307766Y146348D01*
X307869Y146300D01*
X307970Y146249D01*
X308069Y146194D01*
X308166Y146136D01*
X308261Y146074D01*
X308354Y146009D01*
X308444Y145941D01*
X308532Y145870D01*
X308618Y145795D01*
X308701Y145718D01*
X308781Y145638D01*
X308858Y145555D01*
X308933Y145469D01*
X309004Y145381D01*
X309072Y145291D01*
X309137Y145198D01*
X309199Y145103D01*
X309257Y145006D01*
X309312Y144907D01*
X309363Y144806D01*
X309411Y144703D01*
X309456Y144599D01*
X309496Y144493D01*
X309533Y144386D01*
X309566Y144278D01*
X309596Y144168D01*
X309621Y144058D01*
X309643Y143947D01*
X309660Y143835D01*
X309674Y143722D01*
X309684Y143609D01*
X309690Y143496D01*
X309692Y143383D01*
X309692Y140137D01*
X298008Y140137D01*
X298008Y143383D01*
X298010Y143484D01*
X298016Y143584D01*
X298026Y143684D01*
X298039Y143784D01*
X298057Y143883D01*
X298078Y143982D01*
X298103Y144079D01*
X298132Y144176D01*
X298165Y144271D01*
X298201Y144365D01*
X298241Y144457D01*
X298284Y144548D01*
X298331Y144637D01*
X298381Y144724D01*
X298435Y144810D01*
X298492Y144893D01*
X298552Y144973D01*
X298615Y145052D01*
X298682Y145128D01*
X298751Y145201D01*
X298823Y145271D01*
X298897Y145339D01*
X298974Y145404D01*
X299054Y145465D01*
X299136Y145524D01*
X299220Y145579D01*
X299306Y145631D01*
X299394Y145680D01*
X299484Y145725D01*
X299576Y145767D01*
X299669Y145805D01*
X299764Y145839D01*
X299859Y145870D01*
X299956Y145897D01*
X300054Y145920D01*
X300153Y145940D01*
X300253Y145955D01*
X300353Y145967D01*
X300453Y145975D01*
X300554Y145979D01*
X300654Y145979D01*
X300755Y145975D01*
X300855Y145967D01*
X300955Y145955D01*
X301055Y145940D01*
X301154Y145920D01*
X301252Y145897D01*
X301349Y145870D01*
X301444Y145839D01*
X301539Y145805D01*
X301632Y145767D01*
X301724Y145725D01*
X301814Y145680D01*
X301902Y145631D01*
X301988Y145579D01*
X302072Y145524D01*
X302154Y145465D01*
X302234Y145404D01*
X302311Y145339D01*
X302385Y145271D01*
X302457Y145201D01*
X302526Y145128D01*
X302593Y145052D01*
X302656Y144973D01*
X302716Y144893D01*
X302773Y144810D01*
X302827Y144724D01*
X302877Y144637D01*
X302924Y144548D01*
X302967Y144457D01*
X303007Y144365D01*
X303043Y144271D01*
X303076Y144176D01*
X303105Y144079D01*
X303130Y143982D01*
X303151Y143883D01*
X303169Y143784D01*
X303182Y143684D01*
X303192Y143584D01*
X303198Y143484D01*
X303200Y143383D01*
X300604Y151017D02*
X298008Y154263D01*
X309692Y154263D01*
X309692Y157508D02*
X309692Y151017D01*
D10*
X501810Y457040D02*
X570390Y457040D01*
X570390Y502760D02*
X501810Y502760D01*
X570390Y502760D02*
X570947Y502753D01*
X571503Y502733D01*
X572059Y502699D01*
X572613Y502652D01*
X573167Y502591D01*
X573718Y502516D01*
X574268Y502429D01*
X574816Y502328D01*
X575360Y502213D01*
X575902Y502085D01*
X576441Y501945D01*
X576976Y501791D01*
X577507Y501624D01*
X578034Y501444D01*
X578556Y501252D01*
X579074Y501046D01*
X579586Y500829D01*
X580093Y500599D01*
X580594Y500356D01*
X581089Y500102D01*
X581578Y499835D01*
X582060Y499557D01*
X582535Y499267D01*
X583003Y498965D01*
X583464Y498652D01*
X583917Y498328D01*
X584361Y497994D01*
X584798Y497648D01*
X585226Y497292D01*
X585645Y496925D01*
X586055Y496549D01*
X586456Y496163D01*
X586847Y495767D01*
X587228Y495361D01*
X587600Y494946D01*
X587961Y494523D01*
X588312Y494091D01*
X588652Y493650D01*
X588982Y493201D01*
X589300Y492745D01*
X589607Y492280D01*
X589903Y491809D01*
X590187Y491330D01*
X590460Y490845D01*
X590720Y490353D01*
X590969Y489854D01*
X591205Y489350D01*
X591429Y488841D01*
X591641Y488326D01*
X591839Y487806D01*
X592026Y487281D01*
X592199Y486752D01*
X592359Y486219D01*
X592507Y485682D01*
X592641Y485142D01*
X592762Y484598D01*
X592870Y484052D01*
X592964Y483504D01*
X593045Y482953D01*
X593113Y482400D01*
X593167Y481846D01*
X593208Y481291D01*
X593235Y480735D01*
X593248Y480178D01*
X593248Y479622D01*
X593235Y479065D01*
X593208Y478509D01*
X593167Y477954D01*
X593113Y477400D01*
X593045Y476847D01*
X592964Y476296D01*
X592870Y475748D01*
X592762Y475202D01*
X592641Y474658D01*
X592507Y474118D01*
X592359Y473581D01*
X592199Y473048D01*
X592026Y472519D01*
X591839Y471994D01*
X591641Y471474D01*
X591429Y470959D01*
X591205Y470450D01*
X590969Y469946D01*
X590720Y469447D01*
X590460Y468955D01*
X590187Y468470D01*
X589903Y467991D01*
X589607Y467520D01*
X589300Y467055D01*
X588982Y466599D01*
X588652Y466150D01*
X588312Y465709D01*
X587961Y465277D01*
X587600Y464854D01*
X587228Y464439D01*
X586847Y464033D01*
X586456Y463637D01*
X586055Y463251D01*
X585645Y462875D01*
X585226Y462508D01*
X584798Y462152D01*
X584361Y461806D01*
X583917Y461472D01*
X583464Y461148D01*
X583003Y460835D01*
X582535Y460533D01*
X582060Y460243D01*
X581578Y459965D01*
X581089Y459698D01*
X580594Y459444D01*
X580093Y459201D01*
X579586Y458971D01*
X579074Y458754D01*
X578556Y458548D01*
X578034Y458356D01*
X577507Y458176D01*
X576976Y458009D01*
X576441Y457855D01*
X575902Y457715D01*
X575360Y457587D01*
X574816Y457472D01*
X574268Y457371D01*
X573718Y457284D01*
X573167Y457209D01*
X572613Y457148D01*
X572059Y457101D01*
X571503Y457067D01*
X570947Y457047D01*
X570390Y457040D01*
X501810Y457040D02*
X501253Y457047D01*
X500697Y457067D01*
X500141Y457101D01*
X499587Y457148D01*
X499033Y457209D01*
X498482Y457284D01*
X497932Y457371D01*
X497384Y457472D01*
X496840Y457587D01*
X496298Y457715D01*
X495759Y457855D01*
X495224Y458009D01*
X494693Y458176D01*
X494166Y458356D01*
X493644Y458548D01*
X493126Y458754D01*
X492614Y458971D01*
X492107Y459201D01*
X491606Y459444D01*
X491111Y459698D01*
X490622Y459965D01*
X490140Y460243D01*
X489665Y460533D01*
X489197Y460835D01*
X488736Y461148D01*
X488283Y461472D01*
X487839Y461806D01*
X487402Y462152D01*
X486974Y462508D01*
X486555Y462875D01*
X486145Y463251D01*
X485744Y463637D01*
X485353Y464033D01*
X484972Y464439D01*
X484600Y464854D01*
X484239Y465277D01*
X483888Y465709D01*
X483548Y466150D01*
X483218Y466599D01*
X482900Y467055D01*
X482593Y467520D01*
X482297Y467991D01*
X482013Y468470D01*
X481740Y468955D01*
X481480Y469447D01*
X481231Y469946D01*
X480995Y470450D01*
X480771Y470959D01*
X480559Y471474D01*
X480361Y471994D01*
X480174Y472519D01*
X480001Y473048D01*
X479841Y473581D01*
X479693Y474118D01*
X479559Y474658D01*
X479438Y475202D01*
X479330Y475748D01*
X479236Y476296D01*
X479155Y476847D01*
X479087Y477400D01*
X479033Y477954D01*
X478992Y478509D01*
X478965Y479065D01*
X478952Y479622D01*
X478952Y480178D01*
X478965Y480735D01*
X478992Y481291D01*
X479033Y481846D01*
X479087Y482400D01*
X479155Y482953D01*
X479236Y483504D01*
X479330Y484052D01*
X479438Y484598D01*
X479559Y485142D01*
X479693Y485682D01*
X479841Y486219D01*
X480001Y486752D01*
X480174Y487281D01*
X480361Y487806D01*
X480559Y488326D01*
X480771Y488841D01*
X480995Y489350D01*
X481231Y489854D01*
X481480Y490353D01*
X481740Y490845D01*
X482013Y491330D01*
X482297Y491809D01*
X482593Y492280D01*
X482900Y492745D01*
X483218Y493201D01*
X483548Y493650D01*
X483888Y494091D01*
X484239Y494523D01*
X484600Y494946D01*
X484972Y495361D01*
X485353Y495767D01*
X485744Y496163D01*
X486145Y496549D01*
X486555Y496925D01*
X486974Y497292D01*
X487402Y497648D01*
X487839Y497994D01*
X488283Y498328D01*
X488736Y498652D01*
X489197Y498965D01*
X489665Y499267D01*
X490140Y499557D01*
X490622Y499835D01*
X491111Y500102D01*
X491606Y500356D01*
X492107Y500599D01*
X492614Y500829D01*
X493126Y501046D01*
X493644Y501252D01*
X494166Y501444D01*
X494693Y501624D01*
X495224Y501791D01*
X495759Y501945D01*
X496298Y502085D01*
X496840Y502213D01*
X497384Y502328D01*
X497932Y502429D01*
X498482Y502516D01*
X499033Y502591D01*
X499587Y502652D01*
X500141Y502699D01*
X500697Y502733D01*
X501253Y502753D01*
X501810Y502760D01*
D11*
X531882Y510761D02*
X533491Y508482D01*
X535100Y510761D01*
X533491Y508482D02*
X533491Y505935D01*
X537637Y509689D02*
X538977Y510761D01*
X538977Y505935D01*
X537637Y505935D02*
X540318Y505935D01*
D10*
X807300Y508750D02*
X807300Y496050D01*
X807300Y508750D02*
X813650Y515100D01*
X826350Y515100D02*
X832700Y508750D01*
X807300Y470650D02*
X813650Y464300D01*
X807300Y470650D02*
X807300Y483350D01*
X813650Y489700D01*
X826350Y489700D02*
X832700Y483350D01*
X832700Y470650D01*
X826350Y464300D01*
X813650Y489700D02*
X807300Y496050D01*
X826350Y489700D02*
X832700Y496050D01*
X832700Y508750D01*
X807300Y432550D02*
X807300Y419850D01*
X807300Y432550D02*
X813650Y438900D01*
X826350Y438900D02*
X832700Y432550D01*
X813650Y438900D02*
X807300Y445250D01*
X807300Y457950D01*
X813650Y464300D01*
X826350Y464300D02*
X832700Y457950D01*
X832700Y445250D01*
X826350Y438900D01*
X807300Y394450D02*
X813650Y388100D01*
X807300Y394450D02*
X807300Y407150D01*
X813650Y413500D01*
X826350Y413500D02*
X832700Y407150D01*
X832700Y394450D01*
X826350Y388100D01*
X813650Y413500D02*
X807300Y419850D01*
X826350Y413500D02*
X832700Y419850D01*
X832700Y432550D01*
X807300Y356350D02*
X807300Y343650D01*
X807300Y356350D02*
X813650Y362700D01*
X826350Y362700D02*
X832700Y356350D01*
X813650Y362700D02*
X807300Y369050D01*
X807300Y381750D01*
X813650Y388100D01*
X826350Y388100D02*
X832700Y381750D01*
X832700Y369050D01*
X826350Y362700D01*
X826350Y337300D02*
X813650Y337300D01*
X807300Y343650D01*
X826350Y337300D02*
X832700Y343650D01*
X832700Y356350D01*
X807300Y521450D02*
X807300Y534150D01*
X813650Y540500D01*
X826350Y540500D02*
X832700Y534150D01*
X813650Y515100D02*
X807300Y521450D01*
X826350Y515100D02*
X832700Y521450D01*
X832700Y534150D01*
X807300Y546850D02*
X807300Y559550D01*
X813650Y565900D01*
X826350Y565900D02*
X832700Y559550D01*
X813650Y540500D02*
X807300Y546850D01*
X826350Y540500D02*
X832700Y546850D01*
X832700Y559550D01*
X807300Y572250D02*
X807300Y584950D01*
X813650Y591300D01*
X826350Y591300D01*
X832700Y584950D01*
X813650Y565900D02*
X807300Y572250D01*
X826350Y565900D02*
X832700Y572250D01*
X832700Y584950D01*
D11*
X804323Y339544D02*
X800569Y339544D01*
X804323Y339543D02*
X804388Y339541D01*
X804452Y339535D01*
X804516Y339525D01*
X804580Y339512D01*
X804642Y339494D01*
X804703Y339473D01*
X804763Y339449D01*
X804821Y339420D01*
X804878Y339388D01*
X804932Y339353D01*
X804984Y339315D01*
X805034Y339273D01*
X805081Y339229D01*
X805125Y339182D01*
X805167Y339132D01*
X805205Y339080D01*
X805240Y339026D01*
X805272Y338969D01*
X805301Y338911D01*
X805325Y338851D01*
X805346Y338790D01*
X805364Y338728D01*
X805377Y338664D01*
X805387Y338600D01*
X805393Y338536D01*
X805395Y338471D01*
X805395Y337935D01*
X800569Y343966D02*
X800571Y344034D01*
X800577Y344101D01*
X800586Y344168D01*
X800599Y344235D01*
X800616Y344300D01*
X800637Y344365D01*
X800661Y344428D01*
X800689Y344490D01*
X800720Y344550D01*
X800754Y344608D01*
X800792Y344664D01*
X800832Y344719D01*
X800876Y344770D01*
X800923Y344819D01*
X800972Y344866D01*
X801023Y344910D01*
X801078Y344950D01*
X801134Y344988D01*
X801192Y345022D01*
X801252Y345053D01*
X801314Y345081D01*
X801377Y345105D01*
X801442Y345126D01*
X801507Y345143D01*
X801574Y345156D01*
X801641Y345165D01*
X801708Y345171D01*
X801776Y345173D01*
X800569Y343966D02*
X800571Y343888D01*
X800577Y343810D01*
X800587Y343733D01*
X800600Y343656D01*
X800618Y343580D01*
X800639Y343505D01*
X800664Y343431D01*
X800693Y343359D01*
X800725Y343288D01*
X800761Y343219D01*
X800800Y343151D01*
X800843Y343086D01*
X800889Y343023D01*
X800938Y342962D01*
X800990Y342904D01*
X801045Y342849D01*
X801102Y342796D01*
X801162Y342747D01*
X801225Y342700D01*
X801290Y342657D01*
X801356Y342617D01*
X801425Y342580D01*
X801496Y342547D01*
X801568Y342517D01*
X801642Y342491D01*
X802714Y344771D02*
X802665Y344820D01*
X802613Y344867D01*
X802558Y344910D01*
X802501Y344951D01*
X802442Y344989D01*
X802381Y345023D01*
X802318Y345054D01*
X802254Y345082D01*
X802188Y345106D01*
X802122Y345126D01*
X802054Y345143D01*
X801985Y345156D01*
X801916Y345165D01*
X801846Y345171D01*
X801776Y345173D01*
X802714Y344771D02*
X805395Y342492D01*
X805395Y345173D01*
M02*
