M48
;GenerationSoftware,Autodesk,EAGLE,9.6.0*%
;CreationDate,2020-04-07T01:30:12Z*%
FMAT,2
ICI,OFF
METRIC,TZ,000.000
T1C1.016
%
G90
M71
T1
X55140Y10240
X57680Y10240
X60220Y10240
X62760Y10240
X16680Y83050
X16680Y80510
X16680Y77970
X16520Y8430
X19060Y8430
X21600Y8430
X24140Y8430
X26680Y8430
X29220Y8430
X31760Y8430
X15980Y45460
X18520Y45460
X21060Y45460
X23600Y45460
X26140Y45460
X28680Y45460
X82000Y35000
X82000Y37540
X82000Y40080
X82000Y42620
X82000Y45160
X82000Y47700
X82000Y50240
X82000Y52780
X82000Y55320
X82000Y57860
M30