M48
;GenerationSoftware,Autodesk,EAGLE,9.6.0*%
;CreationDate,2020-04-06T22:51:52Z*%
FMAT,2
ICI,OFF
METRIC,TZ,000.000
T2C0.813
T1C1.016
%
G90
M71
T1
X42180Y57880
X44720Y57880
X47260Y57880
X49800Y57880
X52340Y57880
X54880Y57880
X82000Y35000
X82000Y37540
X82000Y40080
X82000Y42620
X82000Y45160
X82000Y47700
X82000Y50240
X82000Y52780
X82000Y55320
X82000Y57860
T2
X49260Y17590
X51260Y17590
X51530Y73660
X49530Y73660
X80200Y28040
X80200Y30040
X16050Y48180
X16050Y46180
M30