G04 EAGLE Gerber RS-274X export*
G75*
%MOMM*%
%FSLAX34Y34*%
%LPD*%
%INTop Copper*%
%IPPOS*%
%AMOC8*
5,1,8,0,0,1.08239X$1,22.5*%
G01*
%ADD10C,1.879600*%
%ADD11C,0.508000*%
%ADD12C,0.406400*%
%ADD13C,0.304800*%


D10*
X469900Y794700D03*
X495300Y794700D03*
X520700Y794700D03*
X546100Y794700D03*
X571500Y794700D03*
X596900Y794700D03*
X622300Y794700D03*
X647700Y794700D03*
X820000Y350000D03*
X820000Y375400D03*
X820000Y400800D03*
X820000Y426200D03*
X820000Y451600D03*
X820000Y477000D03*
X820000Y502400D03*
X820000Y527800D03*
X820000Y553200D03*
X820000Y578600D03*
X665800Y493100D03*
X665800Y467700D03*
X665800Y442300D03*
X665800Y416900D03*
X465300Y101600D03*
X490700Y101600D03*
X516100Y101600D03*
X541500Y101600D03*
X566900Y101600D03*
X592300Y101600D03*
X617700Y101600D03*
X643100Y101600D03*
D11*
X665800Y416900D02*
X670000Y416900D01*
X617700Y407700D02*
X617700Y101600D01*
X617700Y407700D02*
X630000Y420000D01*
X666900Y420000D01*
X670000Y416900D01*
X490700Y101600D02*
X512300Y80000D01*
X555000Y80000D01*
X610000Y80000D01*
X617700Y87700D01*
X617700Y101600D01*
X730000Y430000D02*
X730000Y510000D01*
X730000Y430000D02*
X716900Y416900D01*
X665800Y416900D01*
X622300Y537700D02*
X622300Y794700D01*
X640000Y520000D02*
X720000Y520000D01*
X730000Y510000D01*
X640000Y520000D02*
X622300Y537700D01*
D12*
X541500Y101600D02*
X541500Y93500D01*
X555000Y80000D01*
X737500Y502500D02*
X730000Y510000D01*
X737500Y502500D02*
X737600Y502400D01*
X820000Y502400D01*
D13*
X820000Y451600D02*
X841600Y451600D01*
X845000Y455000D01*
X845000Y810000D01*
X835000Y820000D01*
X575000Y820000D01*
X571500Y816500D01*
X571500Y794700D01*
M02*
