G04 EAGLE Gerber RS-274X export*
G75*
%MOMM*%
%FSLAX34Y34*%
%LPD*%
%INSilkscreen Top*%
%IPPOS*%
%AMOC8*
5,1,8,0,0,1.08239X$1,22.5*%
G01*
%ADD10C,0.203200*%
%ADD11C,0.127000*%


D10*
X615950Y807400D02*
X628650Y807400D01*
X635000Y801050D01*
X635000Y788350D02*
X628650Y782000D01*
X590550Y807400D02*
X584200Y801050D01*
X590550Y807400D02*
X603250Y807400D01*
X609600Y801050D01*
X609600Y788350D02*
X603250Y782000D01*
X590550Y782000D01*
X584200Y788350D01*
X609600Y801050D02*
X615950Y807400D01*
X609600Y788350D02*
X615950Y782000D01*
X628650Y782000D01*
X552450Y807400D02*
X539750Y807400D01*
X552450Y807400D02*
X558800Y801050D01*
X558800Y788350D02*
X552450Y782000D01*
X558800Y801050D02*
X565150Y807400D01*
X577850Y807400D01*
X584200Y801050D01*
X584200Y788350D02*
X577850Y782000D01*
X565150Y782000D01*
X558800Y788350D01*
X514350Y807400D02*
X508000Y801050D01*
X514350Y807400D02*
X527050Y807400D01*
X533400Y801050D01*
X533400Y788350D02*
X527050Y782000D01*
X514350Y782000D01*
X508000Y788350D01*
X533400Y801050D02*
X539750Y807400D01*
X533400Y788350D02*
X539750Y782000D01*
X552450Y782000D01*
X476250Y807400D02*
X463550Y807400D01*
X476250Y807400D02*
X482600Y801050D01*
X482600Y788350D02*
X476250Y782000D01*
X482600Y801050D02*
X488950Y807400D01*
X501650Y807400D01*
X508000Y801050D01*
X508000Y788350D02*
X501650Y782000D01*
X488950Y782000D01*
X482600Y788350D01*
X457200Y788350D02*
X457200Y801050D01*
X463550Y807400D01*
X457200Y788350D02*
X463550Y782000D01*
X476250Y782000D01*
X641350Y807400D02*
X654050Y807400D01*
X660400Y801050D01*
X660400Y788350D01*
X654050Y782000D01*
X635000Y801050D02*
X641350Y807400D01*
X635000Y788350D02*
X641350Y782000D01*
X654050Y782000D01*
D11*
X458371Y809305D02*
X458371Y814131D01*
X457835Y809305D02*
X458907Y809305D01*
X458907Y814131D02*
X457835Y814131D01*
X461603Y814131D02*
X461603Y809305D01*
X464284Y809305D02*
X461603Y814131D01*
X464284Y814131D02*
X464284Y809305D01*
X467004Y809305D02*
X468612Y814131D01*
X470221Y809305D01*
X469819Y810512D02*
X467406Y810512D01*
X474233Y814131D02*
X474301Y814129D01*
X474368Y814123D01*
X474435Y814114D01*
X474502Y814101D01*
X474567Y814084D01*
X474632Y814063D01*
X474695Y814039D01*
X474757Y814011D01*
X474817Y813980D01*
X474875Y813946D01*
X474931Y813908D01*
X474986Y813868D01*
X475037Y813824D01*
X475086Y813777D01*
X475133Y813728D01*
X475177Y813677D01*
X475217Y813622D01*
X475255Y813566D01*
X475289Y813508D01*
X475320Y813448D01*
X475348Y813386D01*
X475372Y813323D01*
X475393Y813258D01*
X475410Y813193D01*
X475423Y813126D01*
X475432Y813059D01*
X475438Y812992D01*
X475440Y812924D01*
X474233Y814131D02*
X474155Y814129D01*
X474077Y814123D01*
X474000Y814113D01*
X473923Y814100D01*
X473847Y814082D01*
X473772Y814061D01*
X473698Y814036D01*
X473626Y814007D01*
X473555Y813975D01*
X473486Y813939D01*
X473418Y813900D01*
X473353Y813857D01*
X473290Y813811D01*
X473229Y813762D01*
X473171Y813710D01*
X473116Y813655D01*
X473063Y813598D01*
X473014Y813538D01*
X472967Y813475D01*
X472924Y813411D01*
X472884Y813344D01*
X472847Y813275D01*
X472814Y813204D01*
X472784Y813132D01*
X472758Y813059D01*
X475038Y811986D02*
X475087Y812035D01*
X475134Y812087D01*
X475177Y812142D01*
X475218Y812199D01*
X475256Y812258D01*
X475290Y812319D01*
X475321Y812382D01*
X475349Y812446D01*
X475373Y812512D01*
X475393Y812578D01*
X475410Y812646D01*
X475423Y812715D01*
X475432Y812784D01*
X475438Y812854D01*
X475440Y812924D01*
X475037Y811986D02*
X472758Y809305D01*
X475439Y809305D01*
X478245Y811986D02*
X479853Y811986D01*
X479918Y811984D01*
X479982Y811978D01*
X480046Y811968D01*
X480110Y811955D01*
X480172Y811937D01*
X480233Y811916D01*
X480293Y811892D01*
X480351Y811863D01*
X480408Y811831D01*
X480462Y811796D01*
X480514Y811758D01*
X480564Y811716D01*
X480611Y811672D01*
X480655Y811625D01*
X480697Y811575D01*
X480735Y811523D01*
X480770Y811469D01*
X480802Y811412D01*
X480831Y811354D01*
X480855Y811294D01*
X480876Y811233D01*
X480894Y811171D01*
X480907Y811107D01*
X480917Y811043D01*
X480923Y810979D01*
X480925Y810914D01*
X480926Y810914D02*
X480926Y810646D01*
X480924Y810575D01*
X480918Y810503D01*
X480909Y810433D01*
X480896Y810363D01*
X480879Y810293D01*
X480858Y810225D01*
X480834Y810158D01*
X480806Y810092D01*
X480775Y810028D01*
X480740Y809965D01*
X480702Y809905D01*
X480661Y809846D01*
X480617Y809790D01*
X480570Y809736D01*
X480521Y809685D01*
X480468Y809637D01*
X480413Y809591D01*
X480356Y809549D01*
X480296Y809509D01*
X480235Y809473D01*
X480171Y809440D01*
X480106Y809411D01*
X480040Y809385D01*
X479972Y809362D01*
X479903Y809343D01*
X479833Y809328D01*
X479763Y809317D01*
X479692Y809309D01*
X479621Y809305D01*
X479549Y809305D01*
X479478Y809309D01*
X479407Y809317D01*
X479337Y809328D01*
X479267Y809343D01*
X479198Y809362D01*
X479130Y809385D01*
X479064Y809411D01*
X478999Y809440D01*
X478935Y809473D01*
X478874Y809509D01*
X478814Y809549D01*
X478757Y809591D01*
X478702Y809637D01*
X478649Y809685D01*
X478600Y809736D01*
X478553Y809790D01*
X478509Y809846D01*
X478468Y809905D01*
X478430Y809965D01*
X478395Y810028D01*
X478364Y810092D01*
X478336Y810158D01*
X478312Y810225D01*
X478291Y810293D01*
X478274Y810363D01*
X478261Y810433D01*
X478252Y810503D01*
X478246Y810575D01*
X478244Y810646D01*
X478245Y810646D02*
X478245Y811986D01*
X478247Y812077D01*
X478253Y812168D01*
X478262Y812258D01*
X478276Y812349D01*
X478293Y812438D01*
X478314Y812526D01*
X478339Y812614D01*
X478368Y812701D01*
X478400Y812786D01*
X478435Y812870D01*
X478475Y812952D01*
X478517Y813032D01*
X478563Y813111D01*
X478613Y813187D01*
X478665Y813261D01*
X478721Y813334D01*
X478780Y813403D01*
X478841Y813470D01*
X478906Y813535D01*
X478973Y813596D01*
X479042Y813655D01*
X479114Y813711D01*
X479189Y813763D01*
X479265Y813813D01*
X479344Y813859D01*
X479424Y813901D01*
X479506Y813941D01*
X479590Y813976D01*
X479675Y814008D01*
X479762Y814037D01*
X479849Y814062D01*
X479938Y814083D01*
X480027Y814100D01*
X480118Y814114D01*
X480208Y814123D01*
X480299Y814129D01*
X480390Y814131D01*
X484133Y813461D02*
X484082Y813352D01*
X484034Y813241D01*
X483990Y813130D01*
X483949Y813017D01*
X483911Y812902D01*
X483877Y812787D01*
X483847Y812671D01*
X483820Y812554D01*
X483796Y812436D01*
X483776Y812317D01*
X483760Y812198D01*
X483747Y812078D01*
X483738Y811958D01*
X483733Y811838D01*
X483731Y811718D01*
X484134Y813461D02*
X484155Y813518D01*
X484181Y813574D01*
X484209Y813629D01*
X484241Y813681D01*
X484277Y813732D01*
X484315Y813780D01*
X484356Y813826D01*
X484400Y813869D01*
X484446Y813909D01*
X484495Y813946D01*
X484547Y813980D01*
X484600Y814011D01*
X484655Y814039D01*
X484711Y814063D01*
X484769Y814084D01*
X484828Y814101D01*
X484888Y814114D01*
X484949Y814123D01*
X485011Y814129D01*
X485072Y814131D01*
X485133Y814129D01*
X485195Y814123D01*
X485256Y814114D01*
X485316Y814101D01*
X485375Y814084D01*
X485433Y814063D01*
X485489Y814039D01*
X485544Y814011D01*
X485597Y813980D01*
X485649Y813946D01*
X485698Y813909D01*
X485744Y813869D01*
X485788Y813826D01*
X485829Y813780D01*
X485867Y813732D01*
X485903Y813681D01*
X485935Y813629D01*
X485963Y813574D01*
X485989Y813518D01*
X486010Y813461D01*
X486061Y813352D01*
X486109Y813241D01*
X486153Y813130D01*
X486194Y813017D01*
X486232Y812902D01*
X486266Y812787D01*
X486296Y812671D01*
X486323Y812554D01*
X486347Y812436D01*
X486367Y812317D01*
X486383Y812198D01*
X486396Y812078D01*
X486405Y811958D01*
X486410Y811838D01*
X486412Y811718D01*
X483731Y811718D02*
X483733Y811598D01*
X483738Y811478D01*
X483747Y811358D01*
X483760Y811238D01*
X483776Y811119D01*
X483796Y811000D01*
X483820Y810882D01*
X483847Y810765D01*
X483877Y810649D01*
X483911Y810534D01*
X483949Y810419D01*
X483990Y810306D01*
X484034Y810195D01*
X484082Y810084D01*
X484133Y809975D01*
X484134Y809975D02*
X484155Y809918D01*
X484181Y809862D01*
X484209Y809807D01*
X484241Y809755D01*
X484277Y809704D01*
X484315Y809656D01*
X484356Y809610D01*
X484400Y809567D01*
X484446Y809527D01*
X484495Y809490D01*
X484547Y809456D01*
X484600Y809425D01*
X484655Y809397D01*
X484711Y809373D01*
X484769Y809352D01*
X484828Y809335D01*
X484888Y809322D01*
X484949Y809313D01*
X485011Y809307D01*
X485072Y809305D01*
X486010Y809975D02*
X486061Y810084D01*
X486109Y810195D01*
X486153Y810306D01*
X486194Y810419D01*
X486232Y810534D01*
X486266Y810649D01*
X486296Y810765D01*
X486323Y810882D01*
X486347Y811000D01*
X486367Y811119D01*
X486383Y811238D01*
X486396Y811358D01*
X486405Y811478D01*
X486410Y811598D01*
X486412Y811718D01*
X486010Y809975D02*
X485989Y809918D01*
X485963Y809862D01*
X485935Y809807D01*
X485903Y809755D01*
X485867Y809704D01*
X485829Y809656D01*
X485788Y809610D01*
X485744Y809567D01*
X485697Y809527D01*
X485649Y809490D01*
X485597Y809456D01*
X485544Y809425D01*
X485489Y809397D01*
X485433Y809373D01*
X485375Y809352D01*
X485316Y809335D01*
X485256Y809322D01*
X485195Y809313D01*
X485133Y809307D01*
X485072Y809305D01*
X483999Y810377D02*
X486144Y813059D01*
D10*
X807300Y508750D02*
X807300Y496050D01*
X807300Y508750D02*
X813650Y515100D01*
X826350Y515100D02*
X832700Y508750D01*
X807300Y470650D02*
X813650Y464300D01*
X807300Y470650D02*
X807300Y483350D01*
X813650Y489700D01*
X826350Y489700D02*
X832700Y483350D01*
X832700Y470650D01*
X826350Y464300D01*
X813650Y489700D02*
X807300Y496050D01*
X826350Y489700D02*
X832700Y496050D01*
X832700Y508750D01*
X807300Y432550D02*
X807300Y419850D01*
X807300Y432550D02*
X813650Y438900D01*
X826350Y438900D02*
X832700Y432550D01*
X813650Y438900D02*
X807300Y445250D01*
X807300Y457950D01*
X813650Y464300D01*
X826350Y464300D02*
X832700Y457950D01*
X832700Y445250D01*
X826350Y438900D01*
X807300Y394450D02*
X813650Y388100D01*
X807300Y394450D02*
X807300Y407150D01*
X813650Y413500D01*
X826350Y413500D02*
X832700Y407150D01*
X832700Y394450D01*
X826350Y388100D01*
X813650Y413500D02*
X807300Y419850D01*
X826350Y413500D02*
X832700Y419850D01*
X832700Y432550D01*
X807300Y356350D02*
X807300Y343650D01*
X807300Y356350D02*
X813650Y362700D01*
X826350Y362700D02*
X832700Y356350D01*
X813650Y362700D02*
X807300Y369050D01*
X807300Y381750D01*
X813650Y388100D01*
X826350Y388100D02*
X832700Y381750D01*
X832700Y369050D01*
X826350Y362700D01*
X826350Y337300D02*
X813650Y337300D01*
X807300Y343650D01*
X826350Y337300D02*
X832700Y343650D01*
X832700Y356350D01*
X807300Y521450D02*
X807300Y534150D01*
X813650Y540500D01*
X826350Y540500D02*
X832700Y534150D01*
X813650Y515100D02*
X807300Y521450D01*
X826350Y515100D02*
X832700Y521450D01*
X832700Y534150D01*
X807300Y546850D02*
X807300Y559550D01*
X813650Y565900D01*
X826350Y565900D02*
X832700Y559550D01*
X813650Y540500D02*
X807300Y546850D01*
X826350Y540500D02*
X832700Y546850D01*
X832700Y559550D01*
X807300Y572250D02*
X807300Y584950D01*
X813650Y591300D01*
X826350Y591300D01*
X832700Y584950D01*
X813650Y565900D02*
X807300Y572250D01*
X826350Y565900D02*
X832700Y572250D01*
X832700Y584950D01*
D11*
X795395Y340080D02*
X795395Y339007D01*
X795393Y338942D01*
X795387Y338878D01*
X795377Y338814D01*
X795364Y338750D01*
X795346Y338688D01*
X795325Y338627D01*
X795301Y338567D01*
X795272Y338509D01*
X795240Y338452D01*
X795205Y338398D01*
X795167Y338346D01*
X795125Y338296D01*
X795081Y338249D01*
X795034Y338205D01*
X794984Y338163D01*
X794932Y338125D01*
X794878Y338090D01*
X794821Y338058D01*
X794763Y338029D01*
X794703Y338005D01*
X794642Y337984D01*
X794580Y337966D01*
X794516Y337953D01*
X794452Y337943D01*
X794388Y337937D01*
X794323Y337935D01*
X791641Y337935D01*
X791576Y337937D01*
X791512Y337943D01*
X791448Y337953D01*
X791384Y337966D01*
X791322Y337984D01*
X791261Y338005D01*
X791201Y338030D01*
X791142Y338058D01*
X791086Y338090D01*
X791031Y338125D01*
X790979Y338163D01*
X790929Y338205D01*
X790882Y338249D01*
X790838Y338296D01*
X790796Y338346D01*
X790758Y338398D01*
X790723Y338453D01*
X790691Y338509D01*
X790663Y338568D01*
X790638Y338627D01*
X790617Y338689D01*
X790599Y338751D01*
X790586Y338815D01*
X790576Y338879D01*
X790570Y338943D01*
X790568Y339008D01*
X790569Y339007D02*
X790569Y340080D01*
X790569Y342719D02*
X794054Y342719D01*
X794054Y342718D02*
X794125Y342720D01*
X794197Y342726D01*
X794267Y342735D01*
X794337Y342748D01*
X794407Y342765D01*
X794475Y342786D01*
X794542Y342810D01*
X794608Y342838D01*
X794672Y342869D01*
X794735Y342904D01*
X794795Y342942D01*
X794854Y342983D01*
X794910Y343027D01*
X794964Y343074D01*
X795015Y343123D01*
X795063Y343176D01*
X795109Y343231D01*
X795151Y343288D01*
X795191Y343348D01*
X795227Y343409D01*
X795260Y343473D01*
X795289Y343538D01*
X795315Y343604D01*
X795338Y343672D01*
X795357Y343741D01*
X795372Y343811D01*
X795383Y343881D01*
X795391Y343952D01*
X795395Y344023D01*
X795395Y344095D01*
X795391Y344166D01*
X795383Y344237D01*
X795372Y344307D01*
X795357Y344377D01*
X795338Y344446D01*
X795315Y344514D01*
X795289Y344580D01*
X795260Y344645D01*
X795227Y344709D01*
X795191Y344770D01*
X795151Y344830D01*
X795109Y344887D01*
X795063Y344942D01*
X795015Y344995D01*
X794964Y345044D01*
X794910Y345091D01*
X794854Y345135D01*
X794795Y345176D01*
X794735Y345214D01*
X794672Y345249D01*
X794608Y345280D01*
X794542Y345308D01*
X794475Y345332D01*
X794407Y345353D01*
X794337Y345370D01*
X794267Y345383D01*
X794197Y345392D01*
X794125Y345398D01*
X794054Y345400D01*
X790569Y345400D01*
X792714Y348717D02*
X792714Y350058D01*
X792713Y350058D02*
X792715Y350129D01*
X792721Y350201D01*
X792730Y350271D01*
X792743Y350341D01*
X792760Y350411D01*
X792781Y350479D01*
X792805Y350546D01*
X792833Y350612D01*
X792864Y350676D01*
X792899Y350739D01*
X792937Y350799D01*
X792978Y350858D01*
X793022Y350914D01*
X793069Y350968D01*
X793118Y351019D01*
X793171Y351067D01*
X793226Y351113D01*
X793283Y351155D01*
X793343Y351195D01*
X793404Y351231D01*
X793468Y351264D01*
X793533Y351293D01*
X793599Y351319D01*
X793667Y351342D01*
X793736Y351361D01*
X793806Y351376D01*
X793876Y351387D01*
X793947Y351395D01*
X794018Y351399D01*
X794090Y351399D01*
X794161Y351395D01*
X794232Y351387D01*
X794302Y351376D01*
X794372Y351361D01*
X794441Y351342D01*
X794509Y351319D01*
X794575Y351293D01*
X794640Y351264D01*
X794704Y351231D01*
X794765Y351195D01*
X794825Y351155D01*
X794882Y351113D01*
X794937Y351067D01*
X794990Y351019D01*
X795039Y350968D01*
X795086Y350914D01*
X795130Y350858D01*
X795171Y350799D01*
X795209Y350739D01*
X795244Y350676D01*
X795275Y350612D01*
X795303Y350546D01*
X795327Y350479D01*
X795348Y350411D01*
X795365Y350341D01*
X795378Y350271D01*
X795387Y350201D01*
X795393Y350129D01*
X795395Y350058D01*
X795395Y348717D01*
X790569Y348717D01*
X790569Y350058D01*
X790571Y350123D01*
X790577Y350187D01*
X790587Y350251D01*
X790600Y350315D01*
X790618Y350377D01*
X790639Y350438D01*
X790663Y350498D01*
X790692Y350556D01*
X790724Y350613D01*
X790759Y350667D01*
X790797Y350719D01*
X790839Y350769D01*
X790883Y350816D01*
X790930Y350860D01*
X790980Y350902D01*
X791032Y350940D01*
X791086Y350975D01*
X791143Y351007D01*
X791201Y351036D01*
X791261Y351060D01*
X791322Y351081D01*
X791384Y351099D01*
X791448Y351112D01*
X791512Y351122D01*
X791576Y351128D01*
X791641Y351130D01*
X791706Y351128D01*
X791770Y351122D01*
X791834Y351112D01*
X791898Y351099D01*
X791960Y351081D01*
X792021Y351060D01*
X792081Y351036D01*
X792139Y351007D01*
X792196Y350975D01*
X792250Y350940D01*
X792302Y350902D01*
X792352Y350860D01*
X792399Y350816D01*
X792443Y350769D01*
X792485Y350719D01*
X792523Y350667D01*
X792558Y350613D01*
X792590Y350556D01*
X792619Y350498D01*
X792643Y350438D01*
X792664Y350377D01*
X792682Y350315D01*
X792695Y350251D01*
X792705Y350187D01*
X792711Y350123D01*
X792713Y350058D01*
X795395Y354077D02*
X795395Y356222D01*
X795395Y354077D02*
X790569Y354077D01*
X790569Y356222D01*
X792714Y355685D02*
X792714Y354077D01*
X795395Y360055D02*
X795393Y360120D01*
X795387Y360184D01*
X795377Y360248D01*
X795364Y360312D01*
X795346Y360374D01*
X795325Y360435D01*
X795301Y360495D01*
X795272Y360553D01*
X795240Y360610D01*
X795205Y360664D01*
X795167Y360716D01*
X795125Y360766D01*
X795081Y360813D01*
X795034Y360857D01*
X794984Y360899D01*
X794932Y360937D01*
X794878Y360972D01*
X794821Y361004D01*
X794763Y361033D01*
X794703Y361057D01*
X794642Y361078D01*
X794580Y361096D01*
X794516Y361109D01*
X794452Y361119D01*
X794388Y361125D01*
X794323Y361127D01*
X795395Y360055D02*
X795393Y359961D01*
X795387Y359867D01*
X795377Y359773D01*
X795364Y359680D01*
X795346Y359588D01*
X795325Y359496D01*
X795300Y359405D01*
X795271Y359315D01*
X795238Y359227D01*
X795202Y359140D01*
X795162Y359055D01*
X795119Y358971D01*
X795072Y358890D01*
X795022Y358810D01*
X794969Y358732D01*
X794912Y358657D01*
X794853Y358584D01*
X794790Y358514D01*
X794725Y358446D01*
X791641Y358581D02*
X791576Y358583D01*
X791512Y358589D01*
X791448Y358599D01*
X791384Y358612D01*
X791322Y358630D01*
X791261Y358651D01*
X791201Y358675D01*
X791143Y358704D01*
X791086Y358736D01*
X791032Y358771D01*
X790980Y358809D01*
X790930Y358851D01*
X790883Y358895D01*
X790839Y358942D01*
X790797Y358992D01*
X790759Y359044D01*
X790724Y359098D01*
X790692Y359155D01*
X790663Y359213D01*
X790639Y359273D01*
X790618Y359334D01*
X790600Y359396D01*
X790587Y359460D01*
X790577Y359524D01*
X790571Y359588D01*
X790569Y359653D01*
X790571Y359739D01*
X790576Y359825D01*
X790586Y359911D01*
X790599Y359996D01*
X790615Y360081D01*
X790635Y360165D01*
X790659Y360248D01*
X790686Y360330D01*
X790717Y360410D01*
X790751Y360490D01*
X790789Y360567D01*
X790830Y360643D01*
X790874Y360717D01*
X790921Y360790D01*
X790971Y360860D01*
X792579Y359116D02*
X792546Y359063D01*
X792509Y359012D01*
X792470Y358963D01*
X792428Y358916D01*
X792383Y358872D01*
X792336Y358831D01*
X792287Y358792D01*
X792235Y358756D01*
X792181Y358723D01*
X792126Y358694D01*
X792069Y358668D01*
X792010Y358645D01*
X791951Y358625D01*
X791890Y358609D01*
X791829Y358596D01*
X791766Y358587D01*
X791704Y358582D01*
X791641Y358580D01*
X793385Y360591D02*
X793418Y360644D01*
X793455Y360695D01*
X793494Y360744D01*
X793536Y360791D01*
X793581Y360835D01*
X793628Y360876D01*
X793677Y360915D01*
X793729Y360951D01*
X793783Y360984D01*
X793838Y361013D01*
X793895Y361039D01*
X793954Y361062D01*
X794013Y361082D01*
X794074Y361098D01*
X794135Y361111D01*
X794198Y361120D01*
X794260Y361125D01*
X794323Y361127D01*
X793384Y360591D02*
X792580Y359116D01*
X795395Y363482D02*
X790569Y365090D01*
X795395Y366699D01*
X794189Y366297D02*
X794189Y363884D01*
X795395Y370211D02*
X790569Y370211D01*
X790569Y371551D02*
X790569Y368870D01*
X795931Y373710D02*
X795931Y375855D01*
X792714Y378709D02*
X792714Y380050D01*
X792713Y380050D02*
X792715Y380121D01*
X792721Y380193D01*
X792730Y380263D01*
X792743Y380333D01*
X792760Y380403D01*
X792781Y380471D01*
X792805Y380538D01*
X792833Y380604D01*
X792864Y380668D01*
X792899Y380731D01*
X792937Y380791D01*
X792978Y380850D01*
X793022Y380906D01*
X793069Y380960D01*
X793118Y381011D01*
X793171Y381059D01*
X793226Y381105D01*
X793283Y381147D01*
X793343Y381187D01*
X793404Y381223D01*
X793468Y381256D01*
X793533Y381285D01*
X793599Y381311D01*
X793667Y381334D01*
X793736Y381353D01*
X793806Y381368D01*
X793876Y381379D01*
X793947Y381387D01*
X794018Y381391D01*
X794090Y381391D01*
X794161Y381387D01*
X794232Y381379D01*
X794302Y381368D01*
X794372Y381353D01*
X794441Y381334D01*
X794509Y381311D01*
X794575Y381285D01*
X794640Y381256D01*
X794704Y381223D01*
X794765Y381187D01*
X794825Y381147D01*
X794882Y381105D01*
X794937Y381059D01*
X794990Y381011D01*
X795039Y380960D01*
X795086Y380906D01*
X795130Y380850D01*
X795171Y380791D01*
X795209Y380731D01*
X795244Y380668D01*
X795275Y380604D01*
X795303Y380538D01*
X795327Y380471D01*
X795348Y380403D01*
X795365Y380333D01*
X795378Y380263D01*
X795387Y380193D01*
X795393Y380121D01*
X795395Y380050D01*
X795395Y378709D01*
X790569Y378709D01*
X790569Y380050D01*
X790571Y380115D01*
X790577Y380179D01*
X790587Y380243D01*
X790600Y380307D01*
X790618Y380369D01*
X790639Y380430D01*
X790663Y380490D01*
X790692Y380548D01*
X790724Y380605D01*
X790759Y380659D01*
X790797Y380711D01*
X790839Y380761D01*
X790883Y380808D01*
X790930Y380852D01*
X790980Y380894D01*
X791032Y380932D01*
X791086Y380967D01*
X791143Y380999D01*
X791201Y381028D01*
X791261Y381052D01*
X791322Y381073D01*
X791384Y381091D01*
X791448Y381104D01*
X791512Y381114D01*
X791576Y381120D01*
X791641Y381122D01*
X791706Y381120D01*
X791770Y381114D01*
X791834Y381104D01*
X791898Y381091D01*
X791960Y381073D01*
X792021Y381052D01*
X792081Y381028D01*
X792139Y380999D01*
X792196Y380967D01*
X792250Y380932D01*
X792302Y380894D01*
X792352Y380852D01*
X792399Y380808D01*
X792443Y380761D01*
X792485Y380711D01*
X792523Y380659D01*
X792558Y380605D01*
X792590Y380548D01*
X792619Y380490D01*
X792643Y380430D01*
X792664Y380369D01*
X792682Y380307D01*
X792695Y380243D01*
X792705Y380179D01*
X792711Y380115D01*
X792713Y380050D01*
X794054Y384049D02*
X790569Y384049D01*
X794054Y384049D02*
X794125Y384051D01*
X794197Y384057D01*
X794267Y384066D01*
X794337Y384079D01*
X794407Y384096D01*
X794475Y384117D01*
X794542Y384141D01*
X794608Y384169D01*
X794672Y384200D01*
X794735Y384235D01*
X794795Y384273D01*
X794854Y384314D01*
X794910Y384358D01*
X794964Y384405D01*
X795015Y384454D01*
X795063Y384507D01*
X795109Y384562D01*
X795151Y384619D01*
X795191Y384679D01*
X795227Y384740D01*
X795260Y384804D01*
X795289Y384869D01*
X795315Y384935D01*
X795338Y385003D01*
X795357Y385072D01*
X795372Y385142D01*
X795383Y385212D01*
X795391Y385283D01*
X795395Y385354D01*
X795395Y385426D01*
X795391Y385497D01*
X795383Y385568D01*
X795372Y385638D01*
X795357Y385708D01*
X795338Y385777D01*
X795315Y385845D01*
X795289Y385911D01*
X795260Y385976D01*
X795227Y386040D01*
X795191Y386101D01*
X795151Y386161D01*
X795109Y386218D01*
X795063Y386273D01*
X795015Y386326D01*
X794964Y386375D01*
X794910Y386422D01*
X794854Y386466D01*
X794795Y386507D01*
X794735Y386545D01*
X794672Y386580D01*
X794608Y386611D01*
X794542Y386639D01*
X794475Y386663D01*
X794407Y386684D01*
X794337Y386701D01*
X794267Y386714D01*
X794197Y386723D01*
X794125Y386729D01*
X794054Y386731D01*
X794054Y386730D02*
X790569Y386730D01*
X795395Y391144D02*
X795393Y391209D01*
X795387Y391273D01*
X795377Y391337D01*
X795364Y391401D01*
X795346Y391463D01*
X795325Y391524D01*
X795301Y391584D01*
X795272Y391642D01*
X795240Y391699D01*
X795205Y391753D01*
X795167Y391805D01*
X795125Y391855D01*
X795081Y391902D01*
X795034Y391946D01*
X794984Y391988D01*
X794932Y392026D01*
X794878Y392061D01*
X794821Y392093D01*
X794763Y392122D01*
X794703Y392146D01*
X794642Y392167D01*
X794580Y392185D01*
X794516Y392198D01*
X794452Y392208D01*
X794388Y392214D01*
X794323Y392216D01*
X795395Y391144D02*
X795393Y391050D01*
X795387Y390956D01*
X795377Y390862D01*
X795364Y390769D01*
X795346Y390677D01*
X795325Y390585D01*
X795300Y390494D01*
X795271Y390404D01*
X795238Y390316D01*
X795202Y390229D01*
X795162Y390144D01*
X795119Y390060D01*
X795072Y389979D01*
X795022Y389899D01*
X794969Y389821D01*
X794912Y389746D01*
X794853Y389673D01*
X794790Y389603D01*
X794725Y389535D01*
X791641Y389670D02*
X791576Y389672D01*
X791512Y389678D01*
X791448Y389688D01*
X791384Y389701D01*
X791322Y389719D01*
X791261Y389740D01*
X791201Y389764D01*
X791143Y389793D01*
X791086Y389825D01*
X791032Y389860D01*
X790980Y389898D01*
X790930Y389940D01*
X790883Y389984D01*
X790839Y390031D01*
X790797Y390081D01*
X790759Y390133D01*
X790724Y390187D01*
X790692Y390244D01*
X790663Y390302D01*
X790639Y390362D01*
X790618Y390423D01*
X790600Y390485D01*
X790587Y390549D01*
X790577Y390613D01*
X790571Y390677D01*
X790569Y390742D01*
X790571Y390828D01*
X790576Y390914D01*
X790586Y391000D01*
X790599Y391085D01*
X790615Y391170D01*
X790635Y391254D01*
X790659Y391337D01*
X790686Y391419D01*
X790717Y391499D01*
X790751Y391579D01*
X790789Y391656D01*
X790830Y391732D01*
X790874Y391806D01*
X790921Y391879D01*
X790971Y391949D01*
X792579Y390206D02*
X792546Y390153D01*
X792509Y390102D01*
X792470Y390053D01*
X792428Y390006D01*
X792383Y389962D01*
X792336Y389921D01*
X792287Y389882D01*
X792235Y389846D01*
X792181Y389813D01*
X792126Y389784D01*
X792069Y389758D01*
X792010Y389735D01*
X791951Y389715D01*
X791890Y389699D01*
X791829Y389686D01*
X791766Y389677D01*
X791704Y389672D01*
X791641Y389670D01*
X793385Y391680D02*
X793418Y391733D01*
X793455Y391784D01*
X793494Y391833D01*
X793536Y391880D01*
X793581Y391924D01*
X793628Y391965D01*
X793677Y392004D01*
X793729Y392040D01*
X793783Y392073D01*
X793838Y392102D01*
X793895Y392128D01*
X793954Y392151D01*
X794013Y392171D01*
X794074Y392187D01*
X794135Y392200D01*
X794198Y392209D01*
X794260Y392214D01*
X794323Y392216D01*
X793384Y391680D02*
X792580Y390206D01*
D10*
X678500Y410550D02*
X678500Y423250D01*
X678500Y410550D02*
X672150Y404200D01*
X659450Y404200D02*
X653100Y410550D01*
X678500Y448650D02*
X672150Y455000D01*
X678500Y448650D02*
X678500Y435950D01*
X672150Y429600D01*
X659450Y429600D02*
X653100Y435950D01*
X653100Y448650D01*
X659450Y455000D01*
X672150Y429600D02*
X678500Y423250D01*
X659450Y429600D02*
X653100Y423250D01*
X653100Y410550D01*
X678500Y486750D02*
X678500Y499450D01*
X678500Y486750D02*
X672150Y480400D01*
X659450Y480400D02*
X653100Y486750D01*
X672150Y480400D02*
X678500Y474050D01*
X678500Y461350D01*
X672150Y455000D01*
X659450Y455000D02*
X653100Y461350D01*
X653100Y474050D01*
X659450Y480400D01*
X659450Y505800D02*
X672150Y505800D01*
X678500Y499450D01*
X659450Y505800D02*
X653100Y499450D01*
X653100Y486750D01*
X659450Y404200D02*
X672150Y404200D01*
D11*
X680405Y474889D02*
X685231Y474889D01*
X685231Y477034D01*
X685231Y479722D02*
X680405Y479722D01*
X683086Y481330D01*
X680405Y482939D01*
X685231Y482939D01*
X685231Y486025D02*
X685231Y487365D01*
X685229Y487436D01*
X685223Y487508D01*
X685214Y487578D01*
X685201Y487648D01*
X685184Y487718D01*
X685163Y487786D01*
X685139Y487853D01*
X685111Y487919D01*
X685080Y487983D01*
X685045Y488046D01*
X685007Y488106D01*
X684966Y488165D01*
X684922Y488221D01*
X684875Y488275D01*
X684826Y488326D01*
X684773Y488374D01*
X684718Y488420D01*
X684661Y488462D01*
X684601Y488502D01*
X684540Y488538D01*
X684476Y488571D01*
X684411Y488600D01*
X684345Y488626D01*
X684277Y488649D01*
X684208Y488668D01*
X684138Y488683D01*
X684068Y488694D01*
X683997Y488702D01*
X683926Y488706D01*
X683854Y488706D01*
X683783Y488702D01*
X683712Y488694D01*
X683642Y488683D01*
X683572Y488668D01*
X683503Y488649D01*
X683435Y488626D01*
X683369Y488600D01*
X683304Y488571D01*
X683240Y488538D01*
X683179Y488502D01*
X683119Y488462D01*
X683062Y488420D01*
X683007Y488374D01*
X682954Y488326D01*
X682905Y488275D01*
X682858Y488221D01*
X682814Y488165D01*
X682773Y488106D01*
X682735Y488046D01*
X682700Y487983D01*
X682669Y487919D01*
X682641Y487853D01*
X682617Y487786D01*
X682596Y487718D01*
X682579Y487648D01*
X682566Y487578D01*
X682557Y487508D01*
X682551Y487436D01*
X682549Y487365D01*
X680405Y487634D02*
X680405Y486025D01*
X680405Y487634D02*
X680407Y487699D01*
X680413Y487763D01*
X680423Y487827D01*
X680436Y487891D01*
X680454Y487953D01*
X680475Y488014D01*
X680499Y488074D01*
X680528Y488132D01*
X680560Y488189D01*
X680595Y488243D01*
X680633Y488295D01*
X680675Y488345D01*
X680719Y488392D01*
X680766Y488436D01*
X680816Y488478D01*
X680868Y488516D01*
X680922Y488551D01*
X680979Y488583D01*
X681037Y488612D01*
X681097Y488636D01*
X681158Y488657D01*
X681220Y488675D01*
X681284Y488688D01*
X681348Y488698D01*
X681412Y488704D01*
X681477Y488706D01*
X681542Y488704D01*
X681606Y488698D01*
X681670Y488688D01*
X681734Y488675D01*
X681796Y488657D01*
X681857Y488636D01*
X681917Y488612D01*
X681975Y488583D01*
X682032Y488551D01*
X682086Y488516D01*
X682138Y488478D01*
X682188Y488436D01*
X682235Y488392D01*
X682279Y488345D01*
X682321Y488295D01*
X682359Y488243D01*
X682394Y488189D01*
X682426Y488132D01*
X682455Y488074D01*
X682479Y488014D01*
X682500Y487953D01*
X682518Y487891D01*
X682531Y487827D01*
X682541Y487763D01*
X682547Y487699D01*
X682549Y487634D01*
X682550Y487634D02*
X682550Y486561D01*
X682550Y491511D02*
X682550Y493120D01*
X682552Y493185D01*
X682558Y493249D01*
X682568Y493313D01*
X682581Y493377D01*
X682599Y493439D01*
X682620Y493500D01*
X682644Y493560D01*
X682673Y493618D01*
X682705Y493675D01*
X682740Y493729D01*
X682778Y493781D01*
X682820Y493831D01*
X682864Y493878D01*
X682911Y493922D01*
X682961Y493964D01*
X683013Y494002D01*
X683067Y494037D01*
X683124Y494069D01*
X683182Y494098D01*
X683242Y494122D01*
X683303Y494143D01*
X683365Y494161D01*
X683429Y494174D01*
X683493Y494184D01*
X683557Y494190D01*
X683622Y494192D01*
X683890Y494192D01*
X683890Y494193D02*
X683961Y494191D01*
X684033Y494185D01*
X684103Y494176D01*
X684173Y494163D01*
X684243Y494146D01*
X684311Y494125D01*
X684378Y494101D01*
X684444Y494073D01*
X684508Y494042D01*
X684571Y494007D01*
X684631Y493969D01*
X684690Y493928D01*
X684746Y493884D01*
X684800Y493837D01*
X684851Y493788D01*
X684899Y493735D01*
X684945Y493680D01*
X684987Y493623D01*
X685027Y493563D01*
X685063Y493502D01*
X685096Y493438D01*
X685125Y493373D01*
X685151Y493307D01*
X685174Y493239D01*
X685193Y493170D01*
X685208Y493100D01*
X685219Y493030D01*
X685227Y492959D01*
X685231Y492888D01*
X685231Y492816D01*
X685227Y492745D01*
X685219Y492674D01*
X685208Y492604D01*
X685193Y492534D01*
X685174Y492465D01*
X685151Y492397D01*
X685125Y492331D01*
X685096Y492266D01*
X685063Y492202D01*
X685027Y492141D01*
X684987Y492081D01*
X684945Y492024D01*
X684899Y491969D01*
X684851Y491916D01*
X684800Y491867D01*
X684746Y491820D01*
X684690Y491776D01*
X684631Y491735D01*
X684571Y491697D01*
X684508Y491662D01*
X684444Y491631D01*
X684378Y491603D01*
X684311Y491579D01*
X684243Y491558D01*
X684173Y491541D01*
X684103Y491528D01*
X684033Y491519D01*
X683961Y491513D01*
X683890Y491511D01*
X682550Y491511D01*
X682459Y491513D01*
X682368Y491519D01*
X682278Y491528D01*
X682187Y491542D01*
X682098Y491559D01*
X682010Y491580D01*
X681922Y491605D01*
X681835Y491634D01*
X681750Y491666D01*
X681666Y491701D01*
X681584Y491741D01*
X681504Y491783D01*
X681425Y491829D01*
X681349Y491879D01*
X681275Y491931D01*
X681202Y491987D01*
X681133Y492046D01*
X681066Y492107D01*
X681001Y492172D01*
X680940Y492239D01*
X680881Y492308D01*
X680825Y492380D01*
X680773Y492455D01*
X680723Y492531D01*
X680677Y492610D01*
X680635Y492690D01*
X680595Y492772D01*
X680560Y492856D01*
X680528Y492941D01*
X680499Y493028D01*
X680474Y493115D01*
X680453Y493204D01*
X680436Y493293D01*
X680422Y493383D01*
X680413Y493474D01*
X680407Y493565D01*
X680405Y493656D01*
X680405Y496998D02*
X680941Y496998D01*
X680405Y496998D02*
X680405Y499679D01*
X685231Y498338D01*
X681477Y502484D02*
X680405Y503824D01*
X685231Y503824D01*
X685231Y502484D02*
X685231Y505165D01*
D10*
X624050Y114300D02*
X611350Y114300D01*
X624050Y114300D02*
X630400Y107950D01*
X630400Y95250D02*
X624050Y88900D01*
X585950Y114300D02*
X579600Y107950D01*
X585950Y114300D02*
X598650Y114300D01*
X605000Y107950D01*
X605000Y95250D02*
X598650Y88900D01*
X585950Y88900D01*
X579600Y95250D01*
X605000Y107950D02*
X611350Y114300D01*
X605000Y95250D02*
X611350Y88900D01*
X624050Y88900D01*
X547850Y114300D02*
X535150Y114300D01*
X547850Y114300D02*
X554200Y107950D01*
X554200Y95250D02*
X547850Y88900D01*
X554200Y107950D02*
X560550Y114300D01*
X573250Y114300D01*
X579600Y107950D01*
X579600Y95250D02*
X573250Y88900D01*
X560550Y88900D01*
X554200Y95250D01*
X509750Y114300D02*
X503400Y107950D01*
X509750Y114300D02*
X522450Y114300D01*
X528800Y107950D01*
X528800Y95250D02*
X522450Y88900D01*
X509750Y88900D01*
X503400Y95250D01*
X528800Y107950D02*
X535150Y114300D01*
X528800Y95250D02*
X535150Y88900D01*
X547850Y88900D01*
X471650Y114300D02*
X458950Y114300D01*
X471650Y114300D02*
X478000Y107950D01*
X478000Y95250D02*
X471650Y88900D01*
X478000Y107950D02*
X484350Y114300D01*
X497050Y114300D01*
X503400Y107950D01*
X503400Y95250D02*
X497050Y88900D01*
X484350Y88900D01*
X478000Y95250D01*
X452600Y95250D02*
X452600Y107950D01*
X458950Y114300D01*
X452600Y95250D02*
X458950Y88900D01*
X471650Y88900D01*
X636750Y114300D02*
X649450Y114300D01*
X655800Y107950D01*
X655800Y95250D01*
X649450Y88900D01*
X630400Y107950D02*
X636750Y114300D01*
X630400Y95250D02*
X636750Y88900D01*
X649450Y88900D01*
D11*
X453235Y116205D02*
X453235Y121031D01*
X454576Y121031D01*
X454647Y121029D01*
X454719Y121023D01*
X454789Y121014D01*
X454859Y121001D01*
X454929Y120984D01*
X454997Y120963D01*
X455064Y120939D01*
X455130Y120911D01*
X455194Y120880D01*
X455257Y120845D01*
X455317Y120807D01*
X455376Y120766D01*
X455432Y120722D01*
X455486Y120675D01*
X455537Y120626D01*
X455585Y120573D01*
X455631Y120518D01*
X455673Y120461D01*
X455713Y120401D01*
X455749Y120340D01*
X455782Y120276D01*
X455811Y120211D01*
X455837Y120145D01*
X455860Y120077D01*
X455879Y120008D01*
X455894Y119938D01*
X455905Y119868D01*
X455913Y119797D01*
X455917Y119726D01*
X455917Y119654D01*
X455913Y119583D01*
X455905Y119512D01*
X455894Y119442D01*
X455879Y119372D01*
X455860Y119303D01*
X455837Y119235D01*
X455811Y119169D01*
X455782Y119104D01*
X455749Y119040D01*
X455713Y118979D01*
X455673Y118919D01*
X455631Y118862D01*
X455585Y118807D01*
X455537Y118754D01*
X455486Y118705D01*
X455432Y118658D01*
X455376Y118614D01*
X455317Y118573D01*
X455257Y118535D01*
X455194Y118500D01*
X455130Y118469D01*
X455064Y118441D01*
X454997Y118417D01*
X454929Y118396D01*
X454859Y118379D01*
X454789Y118366D01*
X454719Y118357D01*
X454647Y118351D01*
X454576Y118349D01*
X454576Y118350D02*
X453235Y118350D01*
X458392Y117546D02*
X458392Y119690D01*
X458394Y119761D01*
X458400Y119833D01*
X458409Y119903D01*
X458422Y119973D01*
X458439Y120043D01*
X458460Y120111D01*
X458484Y120178D01*
X458512Y120244D01*
X458543Y120308D01*
X458578Y120371D01*
X458616Y120431D01*
X458657Y120490D01*
X458701Y120546D01*
X458748Y120600D01*
X458797Y120651D01*
X458850Y120699D01*
X458905Y120745D01*
X458962Y120787D01*
X459022Y120827D01*
X459083Y120863D01*
X459147Y120896D01*
X459212Y120925D01*
X459278Y120951D01*
X459346Y120974D01*
X459415Y120993D01*
X459485Y121008D01*
X459555Y121019D01*
X459626Y121027D01*
X459697Y121031D01*
X459769Y121031D01*
X459840Y121027D01*
X459911Y121019D01*
X459981Y121008D01*
X460051Y120993D01*
X460120Y120974D01*
X460188Y120951D01*
X460254Y120925D01*
X460319Y120896D01*
X460383Y120863D01*
X460444Y120827D01*
X460504Y120787D01*
X460561Y120745D01*
X460616Y120699D01*
X460669Y120651D01*
X460718Y120600D01*
X460765Y120546D01*
X460809Y120490D01*
X460850Y120431D01*
X460888Y120371D01*
X460923Y120308D01*
X460954Y120244D01*
X460982Y120178D01*
X461006Y120111D01*
X461027Y120043D01*
X461044Y119973D01*
X461057Y119903D01*
X461066Y119833D01*
X461072Y119761D01*
X461074Y119690D01*
X461073Y119690D02*
X461073Y117546D01*
X461074Y117546D02*
X461072Y117475D01*
X461066Y117403D01*
X461057Y117333D01*
X461044Y117263D01*
X461027Y117193D01*
X461006Y117125D01*
X460982Y117058D01*
X460954Y116992D01*
X460923Y116928D01*
X460888Y116865D01*
X460850Y116805D01*
X460809Y116746D01*
X460765Y116690D01*
X460718Y116636D01*
X460669Y116585D01*
X460616Y116537D01*
X460561Y116491D01*
X460504Y116449D01*
X460444Y116409D01*
X460383Y116373D01*
X460319Y116340D01*
X460254Y116311D01*
X460188Y116285D01*
X460120Y116262D01*
X460051Y116243D01*
X459981Y116228D01*
X459911Y116217D01*
X459840Y116209D01*
X459769Y116205D01*
X459697Y116205D01*
X459626Y116209D01*
X459555Y116217D01*
X459485Y116228D01*
X459415Y116243D01*
X459346Y116262D01*
X459278Y116285D01*
X459212Y116311D01*
X459147Y116340D01*
X459083Y116373D01*
X459022Y116409D01*
X458962Y116449D01*
X458905Y116491D01*
X458850Y116537D01*
X458797Y116585D01*
X458748Y116636D01*
X458701Y116690D01*
X458657Y116746D01*
X458616Y116805D01*
X458578Y116865D01*
X458543Y116928D01*
X458512Y116992D01*
X458484Y117058D01*
X458460Y117125D01*
X458439Y117193D01*
X458422Y117263D01*
X458409Y117333D01*
X458400Y117403D01*
X458394Y117475D01*
X458392Y117546D01*
X463806Y121031D02*
X464878Y116205D01*
X465950Y119422D01*
X467023Y116205D01*
X468095Y121031D01*
X471030Y116205D02*
X473175Y116205D01*
X471030Y116205D02*
X471030Y121031D01*
X473175Y121031D01*
X472639Y118886D02*
X471030Y118886D01*
X475829Y121031D02*
X475829Y116205D01*
X475829Y121031D02*
X477170Y121031D01*
X477241Y121029D01*
X477313Y121023D01*
X477383Y121014D01*
X477453Y121001D01*
X477523Y120984D01*
X477591Y120963D01*
X477658Y120939D01*
X477724Y120911D01*
X477788Y120880D01*
X477851Y120845D01*
X477911Y120807D01*
X477970Y120766D01*
X478026Y120722D01*
X478080Y120675D01*
X478131Y120626D01*
X478179Y120573D01*
X478225Y120518D01*
X478267Y120461D01*
X478307Y120401D01*
X478343Y120340D01*
X478376Y120276D01*
X478405Y120211D01*
X478431Y120145D01*
X478454Y120077D01*
X478473Y120008D01*
X478488Y119938D01*
X478499Y119868D01*
X478507Y119797D01*
X478511Y119726D01*
X478511Y119654D01*
X478507Y119583D01*
X478499Y119512D01*
X478488Y119442D01*
X478473Y119372D01*
X478454Y119303D01*
X478431Y119235D01*
X478405Y119169D01*
X478376Y119104D01*
X478343Y119040D01*
X478307Y118979D01*
X478267Y118919D01*
X478225Y118862D01*
X478179Y118807D01*
X478131Y118754D01*
X478080Y118705D01*
X478026Y118658D01*
X477970Y118614D01*
X477911Y118573D01*
X477851Y118535D01*
X477788Y118500D01*
X477724Y118469D01*
X477658Y118441D01*
X477591Y118417D01*
X477523Y118396D01*
X477453Y118379D01*
X477383Y118366D01*
X477313Y118357D01*
X477241Y118351D01*
X477170Y118349D01*
X477170Y118350D02*
X475829Y118350D01*
X477438Y118350D02*
X478510Y116205D01*
X481581Y118886D02*
X482922Y118886D01*
X482922Y118887D02*
X482993Y118885D01*
X483065Y118879D01*
X483135Y118870D01*
X483205Y118857D01*
X483275Y118840D01*
X483343Y118819D01*
X483410Y118795D01*
X483476Y118767D01*
X483540Y118736D01*
X483603Y118701D01*
X483663Y118663D01*
X483722Y118622D01*
X483778Y118578D01*
X483832Y118531D01*
X483883Y118482D01*
X483931Y118429D01*
X483977Y118374D01*
X484019Y118317D01*
X484059Y118257D01*
X484095Y118196D01*
X484128Y118132D01*
X484157Y118067D01*
X484183Y118001D01*
X484206Y117933D01*
X484225Y117864D01*
X484240Y117794D01*
X484251Y117724D01*
X484259Y117653D01*
X484263Y117582D01*
X484263Y117510D01*
X484259Y117439D01*
X484251Y117368D01*
X484240Y117298D01*
X484225Y117228D01*
X484206Y117159D01*
X484183Y117091D01*
X484157Y117025D01*
X484128Y116960D01*
X484095Y116896D01*
X484059Y116835D01*
X484019Y116775D01*
X483977Y116718D01*
X483931Y116663D01*
X483883Y116610D01*
X483832Y116561D01*
X483778Y116514D01*
X483722Y116470D01*
X483663Y116429D01*
X483603Y116391D01*
X483540Y116356D01*
X483476Y116325D01*
X483410Y116297D01*
X483343Y116273D01*
X483275Y116252D01*
X483205Y116235D01*
X483135Y116222D01*
X483065Y116213D01*
X482993Y116207D01*
X482922Y116205D01*
X481581Y116205D01*
X481581Y121031D01*
X482922Y121031D01*
X482987Y121029D01*
X483051Y121023D01*
X483115Y121013D01*
X483179Y121000D01*
X483241Y120982D01*
X483302Y120961D01*
X483362Y120937D01*
X483420Y120908D01*
X483477Y120876D01*
X483531Y120841D01*
X483583Y120803D01*
X483633Y120761D01*
X483680Y120717D01*
X483724Y120670D01*
X483766Y120620D01*
X483804Y120568D01*
X483839Y120514D01*
X483871Y120457D01*
X483900Y120399D01*
X483924Y120339D01*
X483945Y120278D01*
X483963Y120216D01*
X483976Y120152D01*
X483986Y120088D01*
X483992Y120024D01*
X483994Y119959D01*
X483992Y119894D01*
X483986Y119830D01*
X483976Y119766D01*
X483963Y119702D01*
X483945Y119640D01*
X483924Y119579D01*
X483900Y119519D01*
X483871Y119461D01*
X483839Y119404D01*
X483804Y119350D01*
X483766Y119298D01*
X483724Y119248D01*
X483680Y119201D01*
X483633Y119157D01*
X483583Y119115D01*
X483531Y119077D01*
X483477Y119042D01*
X483420Y119010D01*
X483362Y118981D01*
X483302Y118957D01*
X483241Y118936D01*
X483179Y118918D01*
X483115Y118905D01*
X483051Y118895D01*
X482987Y118889D01*
X482922Y118887D01*
X486738Y119690D02*
X486738Y117546D01*
X486738Y119690D02*
X486740Y119761D01*
X486746Y119833D01*
X486755Y119903D01*
X486768Y119973D01*
X486785Y120043D01*
X486806Y120111D01*
X486830Y120178D01*
X486858Y120244D01*
X486889Y120308D01*
X486924Y120371D01*
X486962Y120431D01*
X487003Y120490D01*
X487047Y120546D01*
X487094Y120600D01*
X487143Y120651D01*
X487196Y120699D01*
X487251Y120745D01*
X487308Y120787D01*
X487368Y120827D01*
X487429Y120863D01*
X487493Y120896D01*
X487558Y120925D01*
X487624Y120951D01*
X487692Y120974D01*
X487761Y120993D01*
X487831Y121008D01*
X487901Y121019D01*
X487972Y121027D01*
X488043Y121031D01*
X488115Y121031D01*
X488186Y121027D01*
X488257Y121019D01*
X488327Y121008D01*
X488397Y120993D01*
X488466Y120974D01*
X488534Y120951D01*
X488600Y120925D01*
X488665Y120896D01*
X488729Y120863D01*
X488790Y120827D01*
X488850Y120787D01*
X488907Y120745D01*
X488962Y120699D01*
X489015Y120651D01*
X489064Y120600D01*
X489111Y120546D01*
X489155Y120490D01*
X489196Y120431D01*
X489234Y120371D01*
X489269Y120308D01*
X489300Y120244D01*
X489328Y120178D01*
X489352Y120111D01*
X489373Y120043D01*
X489390Y119973D01*
X489403Y119903D01*
X489412Y119833D01*
X489418Y119761D01*
X489420Y119690D01*
X489419Y119690D02*
X489419Y117546D01*
X489420Y117546D02*
X489418Y117475D01*
X489412Y117403D01*
X489403Y117333D01*
X489390Y117263D01*
X489373Y117193D01*
X489352Y117125D01*
X489328Y117058D01*
X489300Y116992D01*
X489269Y116928D01*
X489234Y116865D01*
X489196Y116805D01*
X489155Y116746D01*
X489111Y116690D01*
X489064Y116636D01*
X489015Y116585D01*
X488962Y116537D01*
X488907Y116491D01*
X488850Y116449D01*
X488790Y116409D01*
X488729Y116373D01*
X488665Y116340D01*
X488600Y116311D01*
X488534Y116285D01*
X488466Y116262D01*
X488397Y116243D01*
X488327Y116228D01*
X488257Y116217D01*
X488186Y116209D01*
X488115Y116205D01*
X488043Y116205D01*
X487972Y116209D01*
X487901Y116217D01*
X487831Y116228D01*
X487761Y116243D01*
X487692Y116262D01*
X487624Y116285D01*
X487558Y116311D01*
X487493Y116340D01*
X487429Y116373D01*
X487368Y116409D01*
X487308Y116449D01*
X487251Y116491D01*
X487196Y116537D01*
X487143Y116585D01*
X487094Y116636D01*
X487047Y116690D01*
X487003Y116746D01*
X486962Y116805D01*
X486924Y116865D01*
X486889Y116928D01*
X486858Y116992D01*
X486830Y117058D01*
X486806Y117125D01*
X486785Y117193D01*
X486768Y117263D01*
X486755Y117333D01*
X486746Y117403D01*
X486740Y117475D01*
X486738Y117546D01*
X492225Y117546D02*
X492225Y119690D01*
X492224Y119690D02*
X492226Y119761D01*
X492232Y119833D01*
X492241Y119903D01*
X492254Y119973D01*
X492271Y120043D01*
X492292Y120111D01*
X492316Y120178D01*
X492344Y120244D01*
X492375Y120308D01*
X492410Y120371D01*
X492448Y120431D01*
X492489Y120490D01*
X492533Y120546D01*
X492580Y120600D01*
X492629Y120651D01*
X492682Y120699D01*
X492737Y120745D01*
X492794Y120787D01*
X492854Y120827D01*
X492915Y120863D01*
X492979Y120896D01*
X493044Y120925D01*
X493110Y120951D01*
X493178Y120974D01*
X493247Y120993D01*
X493317Y121008D01*
X493387Y121019D01*
X493458Y121027D01*
X493529Y121031D01*
X493601Y121031D01*
X493672Y121027D01*
X493743Y121019D01*
X493813Y121008D01*
X493883Y120993D01*
X493952Y120974D01*
X494020Y120951D01*
X494086Y120925D01*
X494151Y120896D01*
X494215Y120863D01*
X494276Y120827D01*
X494336Y120787D01*
X494393Y120745D01*
X494448Y120699D01*
X494501Y120651D01*
X494550Y120600D01*
X494597Y120546D01*
X494641Y120490D01*
X494682Y120431D01*
X494720Y120371D01*
X494755Y120308D01*
X494786Y120244D01*
X494814Y120178D01*
X494838Y120111D01*
X494859Y120043D01*
X494876Y119973D01*
X494889Y119903D01*
X494898Y119833D01*
X494904Y119761D01*
X494906Y119690D01*
X494906Y117546D01*
X494904Y117475D01*
X494898Y117403D01*
X494889Y117333D01*
X494876Y117263D01*
X494859Y117193D01*
X494838Y117125D01*
X494814Y117058D01*
X494786Y116992D01*
X494755Y116928D01*
X494720Y116865D01*
X494682Y116805D01*
X494641Y116746D01*
X494597Y116690D01*
X494550Y116636D01*
X494501Y116585D01*
X494448Y116537D01*
X494393Y116491D01*
X494336Y116449D01*
X494276Y116409D01*
X494215Y116373D01*
X494151Y116340D01*
X494086Y116311D01*
X494020Y116285D01*
X493952Y116262D01*
X493883Y116243D01*
X493813Y116228D01*
X493743Y116217D01*
X493672Y116209D01*
X493601Y116205D01*
X493529Y116205D01*
X493458Y116209D01*
X493387Y116217D01*
X493317Y116228D01*
X493247Y116243D01*
X493178Y116262D01*
X493110Y116285D01*
X493044Y116311D01*
X492979Y116340D01*
X492915Y116373D01*
X492854Y116409D01*
X492794Y116449D01*
X492737Y116491D01*
X492682Y116537D01*
X492629Y116585D01*
X492580Y116636D01*
X492533Y116690D01*
X492489Y116746D01*
X492448Y116805D01*
X492410Y116865D01*
X492375Y116928D01*
X492344Y116992D01*
X492316Y117058D01*
X492292Y117125D01*
X492271Y117193D01*
X492254Y117263D01*
X492241Y117333D01*
X492232Y117403D01*
X492226Y117475D01*
X492224Y117546D01*
X499137Y116205D02*
X499202Y116207D01*
X499266Y116213D01*
X499330Y116223D01*
X499394Y116236D01*
X499456Y116254D01*
X499517Y116275D01*
X499577Y116299D01*
X499635Y116328D01*
X499692Y116360D01*
X499746Y116395D01*
X499798Y116433D01*
X499848Y116475D01*
X499895Y116519D01*
X499939Y116566D01*
X499981Y116616D01*
X500019Y116668D01*
X500054Y116722D01*
X500086Y116779D01*
X500115Y116837D01*
X500139Y116897D01*
X500160Y116958D01*
X500178Y117020D01*
X500191Y117084D01*
X500201Y117148D01*
X500207Y117212D01*
X500209Y117277D01*
X499137Y116205D02*
X499043Y116207D01*
X498949Y116213D01*
X498855Y116223D01*
X498762Y116236D01*
X498670Y116254D01*
X498578Y116275D01*
X498487Y116300D01*
X498397Y116329D01*
X498309Y116362D01*
X498222Y116398D01*
X498137Y116438D01*
X498053Y116481D01*
X497972Y116528D01*
X497892Y116578D01*
X497814Y116631D01*
X497739Y116688D01*
X497666Y116747D01*
X497596Y116810D01*
X497528Y116875D01*
X497663Y119959D02*
X497665Y120024D01*
X497671Y120088D01*
X497681Y120152D01*
X497694Y120216D01*
X497712Y120278D01*
X497733Y120339D01*
X497757Y120399D01*
X497786Y120457D01*
X497818Y120514D01*
X497853Y120568D01*
X497891Y120620D01*
X497933Y120670D01*
X497977Y120717D01*
X498024Y120761D01*
X498074Y120803D01*
X498126Y120841D01*
X498180Y120876D01*
X498237Y120908D01*
X498295Y120937D01*
X498355Y120961D01*
X498416Y120982D01*
X498478Y121000D01*
X498542Y121013D01*
X498606Y121023D01*
X498670Y121029D01*
X498735Y121031D01*
X498734Y121031D02*
X498820Y121029D01*
X498906Y121024D01*
X498992Y121014D01*
X499077Y121001D01*
X499162Y120985D01*
X499246Y120965D01*
X499329Y120941D01*
X499411Y120914D01*
X499491Y120883D01*
X499571Y120849D01*
X499648Y120811D01*
X499724Y120770D01*
X499798Y120726D01*
X499870Y120679D01*
X499941Y120629D01*
X498198Y119021D02*
X498145Y119054D01*
X498094Y119091D01*
X498045Y119130D01*
X497998Y119172D01*
X497954Y119217D01*
X497913Y119264D01*
X497874Y119313D01*
X497838Y119365D01*
X497805Y119419D01*
X497776Y119474D01*
X497750Y119531D01*
X497727Y119590D01*
X497707Y119649D01*
X497691Y119710D01*
X497678Y119771D01*
X497669Y119834D01*
X497664Y119896D01*
X497662Y119959D01*
X499673Y118215D02*
X499726Y118182D01*
X499777Y118145D01*
X499826Y118106D01*
X499873Y118064D01*
X499917Y118019D01*
X499958Y117972D01*
X499997Y117923D01*
X500033Y117871D01*
X500066Y117817D01*
X500095Y117762D01*
X500121Y117705D01*
X500144Y117646D01*
X500164Y117587D01*
X500180Y117526D01*
X500193Y117465D01*
X500202Y117402D01*
X500207Y117340D01*
X500209Y117277D01*
X499673Y118216D02*
X498198Y119020D01*
X503806Y121031D02*
X503806Y116205D01*
X502466Y121031D02*
X505147Y121031D01*
X507586Y116205D02*
X509195Y116205D01*
X509260Y116207D01*
X509324Y116213D01*
X509388Y116223D01*
X509452Y116236D01*
X509514Y116254D01*
X509575Y116275D01*
X509635Y116299D01*
X509693Y116328D01*
X509750Y116360D01*
X509804Y116395D01*
X509856Y116433D01*
X509906Y116475D01*
X509953Y116519D01*
X509997Y116566D01*
X510039Y116616D01*
X510077Y116668D01*
X510112Y116722D01*
X510144Y116779D01*
X510173Y116837D01*
X510197Y116897D01*
X510218Y116958D01*
X510236Y117020D01*
X510249Y117084D01*
X510259Y117148D01*
X510265Y117212D01*
X510267Y117277D01*
X510267Y117814D01*
X510265Y117879D01*
X510259Y117943D01*
X510249Y118007D01*
X510236Y118071D01*
X510218Y118133D01*
X510197Y118194D01*
X510173Y118254D01*
X510144Y118312D01*
X510112Y118369D01*
X510077Y118423D01*
X510039Y118475D01*
X509997Y118525D01*
X509953Y118572D01*
X509906Y118616D01*
X509856Y118658D01*
X509804Y118696D01*
X509750Y118731D01*
X509693Y118763D01*
X509635Y118792D01*
X509575Y118816D01*
X509514Y118837D01*
X509452Y118855D01*
X509388Y118868D01*
X509324Y118878D01*
X509260Y118884D01*
X509195Y118886D01*
X507586Y118886D01*
X507586Y121031D01*
X510267Y121031D01*
X513475Y120361D02*
X513424Y120252D01*
X513376Y120141D01*
X513332Y120030D01*
X513291Y119917D01*
X513253Y119802D01*
X513219Y119687D01*
X513189Y119571D01*
X513162Y119454D01*
X513138Y119336D01*
X513118Y119217D01*
X513102Y119098D01*
X513089Y118978D01*
X513080Y118858D01*
X513075Y118738D01*
X513073Y118618D01*
X513475Y120361D02*
X513496Y120418D01*
X513522Y120474D01*
X513550Y120529D01*
X513582Y120581D01*
X513618Y120632D01*
X513656Y120680D01*
X513697Y120726D01*
X513741Y120769D01*
X513787Y120809D01*
X513836Y120846D01*
X513888Y120880D01*
X513941Y120911D01*
X513996Y120939D01*
X514052Y120963D01*
X514110Y120984D01*
X514169Y121001D01*
X514229Y121014D01*
X514290Y121023D01*
X514352Y121029D01*
X514413Y121031D01*
X514474Y121029D01*
X514536Y121023D01*
X514597Y121014D01*
X514657Y121001D01*
X514716Y120984D01*
X514774Y120963D01*
X514830Y120939D01*
X514885Y120911D01*
X514938Y120880D01*
X514990Y120846D01*
X515039Y120809D01*
X515085Y120769D01*
X515129Y120726D01*
X515170Y120680D01*
X515208Y120632D01*
X515244Y120581D01*
X515276Y120529D01*
X515304Y120474D01*
X515330Y120418D01*
X515351Y120361D01*
X515352Y120361D02*
X515403Y120252D01*
X515451Y120141D01*
X515495Y120030D01*
X515536Y119917D01*
X515574Y119802D01*
X515608Y119687D01*
X515638Y119571D01*
X515665Y119454D01*
X515689Y119336D01*
X515709Y119217D01*
X515725Y119098D01*
X515738Y118978D01*
X515747Y118858D01*
X515752Y118738D01*
X515754Y118618D01*
X513073Y118618D02*
X513075Y118498D01*
X513080Y118378D01*
X513089Y118258D01*
X513102Y118138D01*
X513118Y118019D01*
X513138Y117900D01*
X513162Y117782D01*
X513189Y117665D01*
X513219Y117549D01*
X513253Y117434D01*
X513291Y117319D01*
X513332Y117206D01*
X513376Y117095D01*
X513424Y116984D01*
X513475Y116875D01*
X513496Y116818D01*
X513522Y116762D01*
X513550Y116707D01*
X513582Y116655D01*
X513618Y116604D01*
X513656Y116556D01*
X513697Y116510D01*
X513741Y116467D01*
X513787Y116427D01*
X513836Y116390D01*
X513888Y116356D01*
X513941Y116325D01*
X513996Y116297D01*
X514052Y116273D01*
X514110Y116252D01*
X514169Y116235D01*
X514229Y116222D01*
X514290Y116213D01*
X514352Y116207D01*
X514413Y116205D01*
X515352Y116875D02*
X515403Y116984D01*
X515451Y117095D01*
X515495Y117206D01*
X515536Y117319D01*
X515574Y117434D01*
X515608Y117549D01*
X515638Y117665D01*
X515665Y117782D01*
X515689Y117900D01*
X515709Y118019D01*
X515725Y118138D01*
X515738Y118258D01*
X515747Y118378D01*
X515752Y118498D01*
X515754Y118618D01*
X515351Y116875D02*
X515330Y116818D01*
X515304Y116762D01*
X515276Y116707D01*
X515244Y116655D01*
X515208Y116604D01*
X515170Y116556D01*
X515129Y116510D01*
X515085Y116467D01*
X515038Y116427D01*
X514990Y116390D01*
X514938Y116356D01*
X514885Y116325D01*
X514830Y116297D01*
X514774Y116273D01*
X514716Y116252D01*
X514657Y116235D01*
X514597Y116222D01*
X514536Y116213D01*
X514474Y116207D01*
X514413Y116205D01*
X513341Y117277D02*
X515486Y119959D01*
X518559Y118618D02*
X518561Y118738D01*
X518566Y118858D01*
X518575Y118978D01*
X518588Y119098D01*
X518604Y119217D01*
X518624Y119336D01*
X518648Y119454D01*
X518675Y119571D01*
X518705Y119687D01*
X518739Y119802D01*
X518777Y119917D01*
X518818Y120030D01*
X518862Y120141D01*
X518910Y120252D01*
X518961Y120361D01*
X518962Y120361D02*
X518983Y120418D01*
X519009Y120474D01*
X519037Y120529D01*
X519069Y120581D01*
X519105Y120632D01*
X519143Y120680D01*
X519184Y120726D01*
X519228Y120769D01*
X519274Y120809D01*
X519323Y120846D01*
X519375Y120880D01*
X519428Y120911D01*
X519483Y120939D01*
X519539Y120963D01*
X519597Y120984D01*
X519656Y121001D01*
X519716Y121014D01*
X519777Y121023D01*
X519839Y121029D01*
X519900Y121031D01*
X519961Y121029D01*
X520023Y121023D01*
X520084Y121014D01*
X520144Y121001D01*
X520203Y120984D01*
X520261Y120963D01*
X520317Y120939D01*
X520372Y120911D01*
X520425Y120880D01*
X520477Y120846D01*
X520526Y120809D01*
X520572Y120769D01*
X520616Y120726D01*
X520657Y120680D01*
X520695Y120632D01*
X520731Y120581D01*
X520763Y120529D01*
X520791Y120474D01*
X520817Y120418D01*
X520838Y120361D01*
X520889Y120252D01*
X520937Y120141D01*
X520981Y120030D01*
X521022Y119917D01*
X521060Y119802D01*
X521094Y119687D01*
X521124Y119571D01*
X521151Y119454D01*
X521175Y119336D01*
X521195Y119217D01*
X521211Y119098D01*
X521224Y118978D01*
X521233Y118858D01*
X521238Y118738D01*
X521240Y118618D01*
X518559Y118618D02*
X518561Y118498D01*
X518566Y118378D01*
X518575Y118258D01*
X518588Y118138D01*
X518604Y118019D01*
X518624Y117900D01*
X518648Y117782D01*
X518675Y117665D01*
X518705Y117549D01*
X518739Y117434D01*
X518777Y117319D01*
X518818Y117206D01*
X518862Y117095D01*
X518910Y116984D01*
X518961Y116875D01*
X518962Y116875D02*
X518983Y116818D01*
X519009Y116762D01*
X519037Y116707D01*
X519069Y116655D01*
X519105Y116604D01*
X519143Y116556D01*
X519184Y116510D01*
X519228Y116467D01*
X519274Y116427D01*
X519323Y116390D01*
X519375Y116356D01*
X519428Y116325D01*
X519483Y116297D01*
X519539Y116273D01*
X519597Y116252D01*
X519656Y116235D01*
X519716Y116222D01*
X519777Y116213D01*
X519839Y116207D01*
X519900Y116205D01*
X520838Y116875D02*
X520889Y116984D01*
X520937Y117095D01*
X520981Y117206D01*
X521022Y117319D01*
X521060Y117434D01*
X521094Y117549D01*
X521124Y117665D01*
X521151Y117782D01*
X521175Y117900D01*
X521195Y118019D01*
X521211Y118138D01*
X521224Y118258D01*
X521233Y118378D01*
X521238Y118498D01*
X521240Y118618D01*
X520838Y116875D02*
X520817Y116818D01*
X520791Y116762D01*
X520763Y116707D01*
X520731Y116655D01*
X520695Y116604D01*
X520657Y116556D01*
X520616Y116510D01*
X520572Y116467D01*
X520525Y116427D01*
X520477Y116390D01*
X520425Y116356D01*
X520372Y116325D01*
X520317Y116297D01*
X520261Y116273D01*
X520203Y116252D01*
X520144Y116235D01*
X520084Y116222D01*
X520023Y116213D01*
X519961Y116207D01*
X519900Y116205D01*
X518827Y117277D02*
X520972Y119959D01*
X525089Y116205D02*
X526162Y116205D01*
X525089Y116205D02*
X525024Y116207D01*
X524960Y116213D01*
X524896Y116223D01*
X524832Y116236D01*
X524770Y116254D01*
X524709Y116275D01*
X524649Y116299D01*
X524591Y116328D01*
X524534Y116360D01*
X524480Y116395D01*
X524428Y116433D01*
X524378Y116475D01*
X524331Y116519D01*
X524287Y116566D01*
X524245Y116616D01*
X524207Y116668D01*
X524172Y116722D01*
X524140Y116779D01*
X524111Y116837D01*
X524087Y116897D01*
X524066Y116958D01*
X524048Y117020D01*
X524035Y117084D01*
X524025Y117148D01*
X524019Y117212D01*
X524017Y117277D01*
X524017Y119959D01*
X524019Y120024D01*
X524025Y120088D01*
X524035Y120152D01*
X524048Y120216D01*
X524066Y120278D01*
X524087Y120339D01*
X524111Y120399D01*
X524140Y120457D01*
X524172Y120514D01*
X524207Y120568D01*
X524245Y120620D01*
X524287Y120670D01*
X524331Y120717D01*
X524378Y120761D01*
X524428Y120803D01*
X524480Y120841D01*
X524534Y120876D01*
X524591Y120908D01*
X524649Y120937D01*
X524709Y120961D01*
X524770Y120982D01*
X524832Y121000D01*
X524896Y121013D01*
X524960Y121023D01*
X525024Y121029D01*
X525089Y121031D01*
X526162Y121031D01*
M02*
