G04 EAGLE Gerber RS-274X export*
G75*
%MOMM*%
%FSLAX34Y34*%
%LPD*%
%INBottom Copper*%
%IPPOS*%
%AMOC8*
5,1,8,0,0,1.08239X$1,22.5*%
G01*
%ADD10C,1.879600*%
%ADD11P,1.814519X8X22.500000*%
%ADD12P,1.814519X8X202.500000*%
%ADD13P,1.814519X8X112.500000*%
%ADD14P,1.814519X8X292.500000*%
%ADD15C,0.508000*%
%ADD16C,0.304800*%

G36*
X860026Y98480D02*
X860026Y98480D01*
X860052Y98478D01*
X860199Y98500D01*
X860346Y98517D01*
X860371Y98525D01*
X860397Y98529D01*
X860535Y98584D01*
X860674Y98634D01*
X860696Y98648D01*
X860721Y98658D01*
X860842Y98743D01*
X860967Y98823D01*
X860985Y98842D01*
X861007Y98857D01*
X861106Y98967D01*
X861209Y99074D01*
X861223Y99096D01*
X861240Y99116D01*
X861312Y99246D01*
X861388Y99373D01*
X861396Y99398D01*
X861409Y99421D01*
X861449Y99564D01*
X861494Y99705D01*
X861496Y99731D01*
X861504Y99756D01*
X861523Y100000D01*
X861523Y820000D01*
X861520Y820026D01*
X861522Y820052D01*
X861500Y820199D01*
X861483Y820346D01*
X861475Y820371D01*
X861471Y820397D01*
X861416Y820535D01*
X861366Y820674D01*
X861352Y820696D01*
X861342Y820721D01*
X861257Y820842D01*
X861177Y820967D01*
X861158Y820985D01*
X861143Y821007D01*
X861033Y821106D01*
X860926Y821209D01*
X860904Y821223D01*
X860884Y821240D01*
X860754Y821312D01*
X860627Y821388D01*
X860602Y821396D01*
X860579Y821409D01*
X860436Y821449D01*
X860295Y821494D01*
X860269Y821496D01*
X860244Y821504D01*
X860000Y821523D01*
X110000Y821523D01*
X109974Y821520D01*
X109948Y821522D01*
X109801Y821500D01*
X109654Y821483D01*
X109629Y821475D01*
X109603Y821471D01*
X109465Y821416D01*
X109326Y821366D01*
X109304Y821352D01*
X109279Y821342D01*
X109158Y821257D01*
X109033Y821177D01*
X109015Y821158D01*
X108993Y821143D01*
X108894Y821033D01*
X108791Y820926D01*
X108777Y820904D01*
X108760Y820884D01*
X108688Y820754D01*
X108612Y820627D01*
X108604Y820602D01*
X108591Y820579D01*
X108551Y820436D01*
X108506Y820295D01*
X108504Y820269D01*
X108496Y820244D01*
X108477Y820000D01*
X108477Y100000D01*
X108480Y99974D01*
X108478Y99948D01*
X108500Y99801D01*
X108517Y99654D01*
X108525Y99629D01*
X108529Y99603D01*
X108584Y99465D01*
X108634Y99326D01*
X108648Y99304D01*
X108658Y99279D01*
X108743Y99158D01*
X108823Y99033D01*
X108842Y99015D01*
X108857Y98993D01*
X108967Y98894D01*
X109074Y98791D01*
X109096Y98777D01*
X109116Y98760D01*
X109246Y98688D01*
X109373Y98612D01*
X109398Y98604D01*
X109421Y98591D01*
X109564Y98551D01*
X109705Y98506D01*
X109731Y98504D01*
X109756Y98496D01*
X110000Y98477D01*
X860000Y98477D01*
X860026Y98480D01*
G37*
%LPC*%
G36*
X494631Y164977D02*
X494631Y164977D01*
X494631Y175392D01*
X494628Y175418D01*
X494630Y175444D01*
X494608Y175591D01*
X494591Y175738D01*
X494583Y175763D01*
X494579Y175789D01*
X494536Y175896D01*
X494557Y175972D01*
X494602Y176113D01*
X494604Y176139D01*
X494612Y176164D01*
X494631Y176408D01*
X494631Y187489D01*
X494617Y187615D01*
X494610Y187741D01*
X494597Y187788D01*
X494591Y187836D01*
X494549Y187955D01*
X494514Y188076D01*
X494490Y188118D01*
X494474Y188164D01*
X494405Y188270D01*
X494344Y188380D01*
X494304Y188426D01*
X494285Y188456D01*
X494250Y188490D01*
X494185Y188566D01*
X477262Y205489D01*
X477163Y205568D01*
X477070Y205652D01*
X477027Y205676D01*
X476989Y205706D01*
X476875Y205760D01*
X476765Y205821D01*
X476718Y205834D01*
X476674Y205855D01*
X476551Y205881D01*
X476429Y205916D01*
X476368Y205921D01*
X476334Y205928D01*
X476286Y205927D01*
X476185Y205935D01*
X168316Y205935D01*
X155935Y218316D01*
X155935Y451724D01*
X155921Y451849D01*
X155914Y451975D01*
X155901Y452022D01*
X155895Y452070D01*
X155853Y452189D01*
X155818Y452310D01*
X155794Y452352D01*
X155778Y452398D01*
X155709Y452504D01*
X155648Y452614D01*
X155608Y452661D01*
X155589Y452691D01*
X155554Y452724D01*
X155489Y452801D01*
X150593Y457696D01*
X150593Y465904D01*
X154694Y470004D01*
X154711Y470025D01*
X154731Y470042D01*
X154819Y470162D01*
X154911Y470277D01*
X154922Y470301D01*
X154938Y470322D01*
X154996Y470459D01*
X155060Y470593D01*
X155065Y470618D01*
X155076Y470642D01*
X155102Y470788D01*
X155133Y470933D01*
X155133Y470959D01*
X155137Y470985D01*
X155130Y471134D01*
X155127Y471282D01*
X155121Y471307D01*
X155119Y471333D01*
X155078Y471476D01*
X155042Y471620D01*
X155030Y471643D01*
X155023Y471668D01*
X154950Y471798D01*
X154883Y471930D01*
X154866Y471950D01*
X154853Y471972D01*
X154694Y472159D01*
X149577Y477276D01*
X149577Y479769D01*
X159992Y479769D01*
X160018Y479772D01*
X160044Y479770D01*
X160191Y479792D01*
X160338Y479809D01*
X160363Y479817D01*
X160389Y479821D01*
X160496Y479864D01*
X160572Y479843D01*
X160713Y479798D01*
X160739Y479795D01*
X160764Y479788D01*
X161008Y479769D01*
X171423Y479769D01*
X171423Y477276D01*
X166306Y472159D01*
X166289Y472138D01*
X166269Y472121D01*
X166181Y472002D01*
X166089Y471886D01*
X166078Y471862D01*
X166062Y471841D01*
X166004Y471705D01*
X165940Y471571D01*
X165935Y471545D01*
X165924Y471521D01*
X165898Y471375D01*
X165867Y471230D01*
X165867Y471204D01*
X165863Y471178D01*
X165870Y471029D01*
X165873Y470881D01*
X165879Y470856D01*
X165881Y470830D01*
X165922Y470687D01*
X165958Y470543D01*
X165970Y470520D01*
X165977Y470495D01*
X166050Y470365D01*
X166117Y470234D01*
X166134Y470214D01*
X166147Y470191D01*
X166306Y470004D01*
X169999Y466311D01*
X170098Y466232D01*
X170192Y466148D01*
X170235Y466124D01*
X170272Y466094D01*
X170387Y466040D01*
X170497Y465979D01*
X170544Y465966D01*
X170587Y465945D01*
X170711Y465919D01*
X170833Y465884D01*
X170893Y465879D01*
X170928Y465872D01*
X170976Y465873D01*
X171076Y465865D01*
X229485Y465865D01*
X229611Y465879D01*
X229737Y465886D01*
X229784Y465899D01*
X229832Y465905D01*
X229951Y465947D01*
X230072Y465982D01*
X230114Y466006D01*
X230160Y466022D01*
X230266Y466091D01*
X230376Y466152D01*
X230422Y466192D01*
X230452Y466211D01*
X230486Y466246D01*
X230562Y466311D01*
X348316Y584065D01*
X411140Y584065D01*
X411216Y584073D01*
X411293Y584072D01*
X411389Y584093D01*
X411486Y584105D01*
X411558Y584130D01*
X411633Y584147D01*
X411722Y584189D01*
X411815Y584222D01*
X411879Y584264D01*
X411948Y584296D01*
X412025Y584358D01*
X412107Y584411D01*
X412160Y584466D01*
X412220Y584514D01*
X412281Y584591D01*
X412350Y584662D01*
X412389Y584727D01*
X412436Y584787D01*
X412504Y584921D01*
X412528Y584961D01*
X412534Y584979D01*
X412537Y584984D01*
X415489Y587936D01*
X415559Y588025D01*
X415571Y588037D01*
X415575Y588043D01*
X415652Y588129D01*
X415676Y588171D01*
X415706Y588209D01*
X415760Y588323D01*
X415821Y588434D01*
X415834Y588481D01*
X415855Y588524D01*
X415881Y588648D01*
X415916Y588770D01*
X415921Y588830D01*
X415928Y588865D01*
X415927Y588913D01*
X415935Y589013D01*
X415935Y721684D01*
X434916Y740665D01*
X484724Y740665D01*
X484849Y740679D01*
X484975Y740686D01*
X485022Y740699D01*
X485070Y740705D01*
X485189Y740747D01*
X485310Y740782D01*
X485352Y740806D01*
X485398Y740822D01*
X485504Y740891D01*
X485614Y740952D01*
X485661Y740992D01*
X485691Y741011D01*
X485724Y741046D01*
X485801Y741111D01*
X491196Y746507D01*
X499404Y746507D01*
X503504Y742406D01*
X503525Y742389D01*
X503542Y742369D01*
X503662Y742281D01*
X503777Y742189D01*
X503801Y742178D01*
X503822Y742162D01*
X503959Y742104D01*
X504093Y742040D01*
X504118Y742035D01*
X504142Y742024D01*
X504288Y741998D01*
X504433Y741967D01*
X504459Y741967D01*
X504485Y741963D01*
X504634Y741970D01*
X504782Y741973D01*
X504807Y741979D01*
X504833Y741981D01*
X504976Y742022D01*
X505120Y742058D01*
X505143Y742070D01*
X505168Y742077D01*
X505298Y742150D01*
X505430Y742217D01*
X505450Y742234D01*
X505472Y742247D01*
X505659Y742406D01*
X510776Y747523D01*
X513269Y747523D01*
X513269Y737108D01*
X513272Y737082D01*
X513270Y737056D01*
X513292Y736909D01*
X513309Y736762D01*
X513317Y736737D01*
X513321Y736711D01*
X513364Y736604D01*
X513343Y736528D01*
X513298Y736387D01*
X513295Y736361D01*
X513288Y736336D01*
X513269Y736092D01*
X513269Y725677D01*
X510776Y725677D01*
X505659Y730794D01*
X505638Y730811D01*
X505621Y730831D01*
X505502Y730919D01*
X505386Y731011D01*
X505362Y731022D01*
X505341Y731038D01*
X505205Y731096D01*
X505071Y731160D01*
X505045Y731165D01*
X505021Y731176D01*
X504875Y731202D01*
X504730Y731233D01*
X504704Y731233D01*
X504678Y731237D01*
X504529Y731230D01*
X504381Y731227D01*
X504356Y731221D01*
X504330Y731219D01*
X504187Y731178D01*
X504043Y731142D01*
X504020Y731130D01*
X503995Y731123D01*
X503865Y731050D01*
X503734Y730983D01*
X503714Y730966D01*
X503691Y730953D01*
X503504Y730794D01*
X499404Y726693D01*
X491196Y726693D01*
X485801Y732089D01*
X485702Y732168D01*
X485608Y732252D01*
X485565Y732276D01*
X485528Y732306D01*
X485413Y732360D01*
X485303Y732421D01*
X485256Y732434D01*
X485213Y732455D01*
X485089Y732481D01*
X484967Y732516D01*
X484907Y732521D01*
X484872Y732528D01*
X484824Y732527D01*
X484724Y732535D01*
X438915Y732535D01*
X438789Y732521D01*
X438663Y732514D01*
X438616Y732501D01*
X438568Y732495D01*
X438449Y732453D01*
X438328Y732418D01*
X438286Y732394D01*
X438240Y732378D01*
X438134Y732309D01*
X438024Y732248D01*
X437978Y732208D01*
X437948Y732189D01*
X437914Y732154D01*
X437838Y732089D01*
X424511Y718762D01*
X424432Y718663D01*
X424348Y718570D01*
X424324Y718527D01*
X424294Y718489D01*
X424240Y718375D01*
X424179Y718265D01*
X424166Y718218D01*
X424145Y718174D01*
X424119Y718051D01*
X424084Y717929D01*
X424079Y717868D01*
X424072Y717834D01*
X424073Y717786D01*
X424065Y717685D01*
X424065Y590702D01*
X424073Y590627D01*
X424072Y590550D01*
X424093Y590454D01*
X424105Y590356D01*
X424130Y590284D01*
X424147Y590210D01*
X424189Y590121D01*
X424222Y590028D01*
X424264Y589964D01*
X424296Y589895D01*
X424358Y589818D01*
X424411Y589735D01*
X424466Y589682D01*
X424514Y589622D01*
X424591Y589562D01*
X424662Y589493D01*
X424727Y589454D01*
X424787Y589407D01*
X424920Y589338D01*
X424961Y589314D01*
X424979Y589308D01*
X425005Y589295D01*
X427987Y588060D01*
X431060Y584987D01*
X432633Y581188D01*
X432685Y581096D01*
X432727Y581000D01*
X432769Y580944D01*
X432803Y580884D01*
X432874Y580806D01*
X432937Y580722D01*
X432990Y580677D01*
X433037Y580625D01*
X433124Y580565D01*
X433204Y580498D01*
X433266Y580467D01*
X433324Y580427D01*
X433422Y580389D01*
X433515Y580341D01*
X433583Y580325D01*
X433648Y580299D01*
X433752Y580284D01*
X433854Y580259D01*
X433924Y580259D01*
X433993Y580249D01*
X434098Y580257D01*
X434203Y580256D01*
X434271Y580272D01*
X434340Y580277D01*
X434440Y580310D01*
X434543Y580333D01*
X434605Y580363D01*
X434672Y580385D01*
X434762Y580439D01*
X434856Y580485D01*
X434911Y580528D01*
X434970Y580564D01*
X435046Y580638D01*
X435127Y580704D01*
X435170Y580758D01*
X435220Y580807D01*
X435277Y580896D01*
X435342Y580979D01*
X435371Y581042D01*
X435408Y581100D01*
X435444Y581199D01*
X435488Y581295D01*
X435510Y581385D01*
X435525Y581429D01*
X435529Y581467D01*
X435545Y581533D01*
X435555Y581596D01*
X436136Y583383D01*
X436989Y585057D01*
X438094Y586578D01*
X439422Y587906D01*
X440943Y589011D01*
X442617Y589864D01*
X444404Y590445D01*
X444661Y590485D01*
X444661Y579816D01*
X444663Y579793D01*
X444662Y579772D01*
X444662Y579769D01*
X444662Y579764D01*
X444684Y579617D01*
X444701Y579470D01*
X444709Y579445D01*
X444713Y579419D01*
X444768Y579282D01*
X444818Y579142D01*
X444832Y579120D01*
X444842Y579095D01*
X444927Y578974D01*
X445007Y578849D01*
X445026Y578831D01*
X445041Y578809D01*
X445057Y578795D01*
X444975Y578710D01*
X444961Y578687D01*
X444944Y578668D01*
X444872Y578538D01*
X444796Y578411D01*
X444788Y578386D01*
X444775Y578363D01*
X444735Y578220D01*
X444690Y578079D01*
X444687Y578053D01*
X444680Y578028D01*
X444661Y577784D01*
X444661Y567115D01*
X444404Y567155D01*
X442617Y567736D01*
X440943Y568589D01*
X439422Y569694D01*
X438094Y571022D01*
X436989Y572543D01*
X436136Y574217D01*
X435555Y576004D01*
X435545Y576067D01*
X435517Y576169D01*
X435498Y576272D01*
X435470Y576336D01*
X435452Y576403D01*
X435401Y576495D01*
X435359Y576592D01*
X435318Y576648D01*
X435284Y576709D01*
X435214Y576787D01*
X435151Y576871D01*
X435098Y576916D01*
X435052Y576968D01*
X434966Y577029D01*
X434885Y577097D01*
X434823Y577128D01*
X434766Y577168D01*
X434669Y577208D01*
X434575Y577255D01*
X434508Y577272D01*
X434443Y577298D01*
X434339Y577314D01*
X434237Y577339D01*
X434167Y577340D01*
X434098Y577351D01*
X433994Y577343D01*
X433888Y577345D01*
X433820Y577330D01*
X433751Y577324D01*
X433651Y577293D01*
X433548Y577270D01*
X433485Y577240D01*
X433419Y577219D01*
X433328Y577166D01*
X433233Y577120D01*
X433179Y577077D01*
X433119Y577042D01*
X433043Y576969D01*
X432961Y576903D01*
X432918Y576849D01*
X432867Y576800D01*
X432810Y576712D01*
X432745Y576630D01*
X432703Y576547D01*
X432677Y576508D01*
X432664Y576472D01*
X432633Y576412D01*
X431060Y572613D01*
X427987Y569540D01*
X423973Y567877D01*
X419627Y567877D01*
X415613Y569540D01*
X412540Y572613D01*
X411553Y574995D01*
X411516Y575062D01*
X411488Y575133D01*
X411432Y575214D01*
X411384Y575300D01*
X411333Y575356D01*
X411289Y575419D01*
X411216Y575485D01*
X411150Y575558D01*
X411087Y575601D01*
X411030Y575652D01*
X410944Y575700D01*
X410863Y575756D01*
X410792Y575784D01*
X410725Y575821D01*
X410631Y575848D01*
X410539Y575884D01*
X410464Y575895D01*
X410390Y575916D01*
X410241Y575928D01*
X410194Y575935D01*
X410175Y575933D01*
X410146Y575935D01*
X352315Y575935D01*
X352189Y575921D01*
X352063Y575914D01*
X352016Y575901D01*
X351968Y575895D01*
X351849Y575853D01*
X351728Y575818D01*
X351686Y575794D01*
X351640Y575778D01*
X351534Y575709D01*
X351424Y575648D01*
X351378Y575608D01*
X351348Y575589D01*
X351314Y575554D01*
X351238Y575489D01*
X233484Y457735D01*
X171076Y457735D01*
X170951Y457721D01*
X170825Y457714D01*
X170778Y457701D01*
X170730Y457695D01*
X170611Y457653D01*
X170490Y457618D01*
X170448Y457594D01*
X170402Y457578D01*
X170296Y457509D01*
X170186Y457448D01*
X170139Y457408D01*
X170109Y457389D01*
X170076Y457354D01*
X169999Y457289D01*
X164511Y451801D01*
X164432Y451702D01*
X164348Y451608D01*
X164324Y451565D01*
X164294Y451528D01*
X164240Y451413D01*
X164179Y451303D01*
X164166Y451256D01*
X164145Y451213D01*
X164119Y451089D01*
X164084Y450967D01*
X164079Y450907D01*
X164072Y450872D01*
X164073Y450824D01*
X164065Y450724D01*
X164065Y222315D01*
X164079Y222189D01*
X164086Y222063D01*
X164099Y222016D01*
X164105Y221968D01*
X164147Y221849D01*
X164182Y221728D01*
X164206Y221686D01*
X164222Y221640D01*
X164291Y221534D01*
X164352Y221424D01*
X164392Y221378D01*
X164411Y221348D01*
X164446Y221314D01*
X164511Y221238D01*
X171238Y214511D01*
X171337Y214432D01*
X171430Y214348D01*
X171473Y214324D01*
X171511Y214294D01*
X171625Y214240D01*
X171735Y214179D01*
X171782Y214166D01*
X171826Y214145D01*
X171949Y214119D01*
X172071Y214084D01*
X172132Y214079D01*
X172166Y214072D01*
X172214Y214073D01*
X172315Y214065D01*
X480184Y214065D01*
X507996Y186253D01*
X508095Y186174D01*
X508188Y186090D01*
X508231Y186066D01*
X508269Y186036D01*
X508383Y185982D01*
X508493Y185921D01*
X508540Y185908D01*
X508584Y185887D01*
X508707Y185861D01*
X508829Y185826D01*
X508890Y185821D01*
X508924Y185814D01*
X508972Y185815D01*
X509073Y185807D01*
X516704Y185807D01*
X522099Y180411D01*
X522198Y180332D01*
X522292Y180248D01*
X522335Y180224D01*
X522372Y180194D01*
X522487Y180140D01*
X522597Y180079D01*
X522644Y180066D01*
X522687Y180045D01*
X522811Y180019D01*
X522933Y179984D01*
X522993Y179979D01*
X523028Y179972D01*
X523076Y179973D01*
X523176Y179965D01*
X733585Y179965D01*
X733711Y179979D01*
X733837Y179986D01*
X733884Y179999D01*
X733932Y180005D01*
X734051Y180047D01*
X734172Y180082D01*
X734214Y180106D01*
X734260Y180122D01*
X734366Y180191D01*
X734476Y180252D01*
X734522Y180292D01*
X734552Y180311D01*
X734586Y180346D01*
X734662Y180411D01*
X735489Y181238D01*
X735561Y181328D01*
X735562Y181329D01*
X735563Y181331D01*
X735568Y181337D01*
X735652Y181430D01*
X735676Y181473D01*
X735706Y181511D01*
X735760Y181625D01*
X735821Y181735D01*
X735834Y181782D01*
X735855Y181826D01*
X735881Y181949D01*
X735916Y182071D01*
X735921Y182132D01*
X735928Y182166D01*
X735927Y182214D01*
X735935Y182315D01*
X735935Y281684D01*
X758716Y304465D01*
X791424Y304465D01*
X791549Y304479D01*
X791675Y304486D01*
X791722Y304499D01*
X791770Y304505D01*
X791889Y304547D01*
X792010Y304582D01*
X792052Y304606D01*
X792098Y304622D01*
X792204Y304691D01*
X792314Y304752D01*
X792361Y304792D01*
X792391Y304811D01*
X792424Y304846D01*
X792501Y304911D01*
X797896Y310307D01*
X806104Y310307D01*
X811907Y304504D01*
X811907Y296296D01*
X807806Y292196D01*
X807789Y292175D01*
X807769Y292158D01*
X807681Y292038D01*
X807589Y291923D01*
X807578Y291899D01*
X807562Y291878D01*
X807504Y291741D01*
X807440Y291607D01*
X807435Y291582D01*
X807424Y291558D01*
X807398Y291412D01*
X807367Y291267D01*
X807367Y291241D01*
X807363Y291215D01*
X807370Y291066D01*
X807373Y290918D01*
X807379Y290893D01*
X807381Y290867D01*
X807422Y290724D01*
X807458Y290580D01*
X807470Y290557D01*
X807477Y290532D01*
X807550Y290402D01*
X807617Y290270D01*
X807634Y290250D01*
X807647Y290228D01*
X807806Y290041D01*
X812923Y284924D01*
X812923Y282431D01*
X802508Y282431D01*
X802482Y282428D01*
X802456Y282430D01*
X802309Y282408D01*
X802162Y282391D01*
X802137Y282383D01*
X802111Y282379D01*
X802004Y282336D01*
X801928Y282357D01*
X801787Y282402D01*
X801761Y282404D01*
X801736Y282412D01*
X801492Y282431D01*
X791077Y282431D01*
X791077Y284924D01*
X796194Y290041D01*
X796211Y290062D01*
X796231Y290079D01*
X796319Y290198D01*
X796411Y290314D01*
X796422Y290338D01*
X796438Y290359D01*
X796496Y290495D01*
X796560Y290629D01*
X796565Y290655D01*
X796576Y290679D01*
X796602Y290825D01*
X796633Y290970D01*
X796633Y290996D01*
X796637Y291022D01*
X796630Y291171D01*
X796627Y291319D01*
X796621Y291344D01*
X796619Y291370D01*
X796578Y291513D01*
X796542Y291657D01*
X796530Y291680D01*
X796523Y291705D01*
X796450Y291835D01*
X796383Y291966D01*
X796366Y291986D01*
X796353Y292009D01*
X796194Y292196D01*
X792501Y295889D01*
X792402Y295968D01*
X792308Y296052D01*
X792265Y296076D01*
X792228Y296106D01*
X792113Y296160D01*
X792003Y296221D01*
X791956Y296234D01*
X791913Y296255D01*
X791789Y296281D01*
X791667Y296316D01*
X791607Y296321D01*
X791572Y296328D01*
X791524Y296327D01*
X791424Y296335D01*
X762715Y296335D01*
X762589Y296321D01*
X762463Y296314D01*
X762416Y296301D01*
X762368Y296295D01*
X762249Y296253D01*
X762128Y296218D01*
X762086Y296194D01*
X762040Y296178D01*
X761934Y296109D01*
X761824Y296048D01*
X761778Y296008D01*
X761748Y295989D01*
X761714Y295954D01*
X761638Y295889D01*
X744511Y278762D01*
X744432Y278663D01*
X744348Y278570D01*
X744324Y278527D01*
X744294Y278489D01*
X744240Y278375D01*
X744179Y278265D01*
X744166Y278218D01*
X744145Y278174D01*
X744119Y278051D01*
X744084Y277929D01*
X744079Y277868D01*
X744072Y277834D01*
X744073Y277786D01*
X744065Y277685D01*
X744065Y178316D01*
X737584Y171835D01*
X523176Y171835D01*
X523051Y171821D01*
X522925Y171814D01*
X522878Y171801D01*
X522830Y171795D01*
X522711Y171753D01*
X522590Y171718D01*
X522548Y171694D01*
X522502Y171678D01*
X522396Y171609D01*
X522286Y171548D01*
X522239Y171508D01*
X522209Y171489D01*
X522176Y171454D01*
X522099Y171389D01*
X516704Y165993D01*
X508496Y165993D01*
X504396Y170094D01*
X504375Y170111D01*
X504358Y170131D01*
X504238Y170219D01*
X504123Y170311D01*
X504099Y170322D01*
X504078Y170338D01*
X503941Y170396D01*
X503807Y170460D01*
X503782Y170465D01*
X503758Y170476D01*
X503612Y170502D01*
X503467Y170533D01*
X503441Y170533D01*
X503415Y170537D01*
X503266Y170530D01*
X503118Y170527D01*
X503093Y170521D01*
X503067Y170519D01*
X502924Y170478D01*
X502780Y170442D01*
X502757Y170430D01*
X502732Y170423D01*
X502602Y170350D01*
X502470Y170283D01*
X502450Y170266D01*
X502428Y170253D01*
X502241Y170094D01*
X497124Y164977D01*
X494631Y164977D01*
G37*
%LPD*%
%LPC*%
G36*
X817827Y542277D02*
X817827Y542277D01*
X813813Y543940D01*
X810740Y547013D01*
X810251Y548195D01*
X810213Y548262D01*
X810185Y548333D01*
X810129Y548413D01*
X810081Y548500D01*
X810030Y548556D01*
X809986Y548619D01*
X809913Y548685D01*
X809847Y548758D01*
X809784Y548801D01*
X809727Y548852D01*
X809641Y548900D01*
X809560Y548956D01*
X809489Y548984D01*
X809422Y549021D01*
X809328Y549048D01*
X809236Y549084D01*
X809161Y549095D01*
X809087Y549116D01*
X808938Y549128D01*
X808891Y549135D01*
X808872Y549133D01*
X808843Y549135D01*
X572716Y549135D01*
X569889Y551962D01*
X553815Y568037D01*
X553755Y568084D01*
X553702Y568139D01*
X553619Y568192D01*
X553542Y568253D01*
X553473Y568286D01*
X553408Y568327D01*
X553316Y568360D01*
X553227Y568402D01*
X553152Y568418D01*
X553080Y568444D01*
X552982Y568455D01*
X552886Y568476D01*
X552810Y568474D01*
X552734Y568483D01*
X552636Y568471D01*
X552538Y568470D01*
X552463Y568451D01*
X552388Y568442D01*
X552245Y568396D01*
X552200Y568385D01*
X552183Y568376D01*
X552155Y568367D01*
X550973Y567877D01*
X546627Y567877D01*
X542613Y569540D01*
X539540Y572613D01*
X537967Y576412D01*
X537915Y576504D01*
X537873Y576600D01*
X537831Y576656D01*
X537797Y576717D01*
X537726Y576794D01*
X537663Y576879D01*
X537610Y576923D01*
X537563Y576975D01*
X537476Y577035D01*
X537396Y577102D01*
X537334Y577133D01*
X537276Y577173D01*
X537178Y577211D01*
X537084Y577259D01*
X537017Y577275D01*
X536952Y577301D01*
X536848Y577316D01*
X536746Y577341D01*
X536676Y577341D01*
X536607Y577351D01*
X536502Y577343D01*
X536397Y577344D01*
X536329Y577328D01*
X536260Y577323D01*
X536160Y577290D01*
X536057Y577267D01*
X535994Y577237D01*
X535928Y577215D01*
X535838Y577161D01*
X535743Y577115D01*
X535689Y577072D01*
X535630Y577036D01*
X535554Y576962D01*
X535472Y576896D01*
X535430Y576841D01*
X535380Y576793D01*
X535323Y576704D01*
X535258Y576621D01*
X535229Y576558D01*
X535192Y576500D01*
X535156Y576400D01*
X535112Y576305D01*
X535091Y576215D01*
X535075Y576171D01*
X535071Y576133D01*
X535055Y576067D01*
X535045Y576004D01*
X534464Y574217D01*
X533611Y572543D01*
X532506Y571022D01*
X531178Y569694D01*
X529657Y568589D01*
X527983Y567736D01*
X526196Y567155D01*
X525939Y567115D01*
X525939Y577784D01*
X525936Y577810D01*
X525938Y577836D01*
X525916Y577983D01*
X525899Y578130D01*
X525891Y578155D01*
X525887Y578181D01*
X525832Y578318D01*
X525782Y578458D01*
X525768Y578480D01*
X525758Y578505D01*
X525673Y578626D01*
X525593Y578751D01*
X525574Y578769D01*
X525559Y578791D01*
X525543Y578805D01*
X525625Y578890D01*
X525639Y578913D01*
X525656Y578932D01*
X525728Y579062D01*
X525804Y579189D01*
X525812Y579214D01*
X525825Y579237D01*
X525865Y579380D01*
X525910Y579521D01*
X525912Y579547D01*
X525920Y579572D01*
X525939Y579816D01*
X525939Y590485D01*
X526196Y590445D01*
X527983Y589864D01*
X529657Y589011D01*
X531178Y587906D01*
X532506Y586578D01*
X533611Y585057D01*
X534464Y583383D01*
X535045Y581596D01*
X535055Y581533D01*
X535083Y581432D01*
X535102Y581328D01*
X535130Y581264D01*
X535148Y581197D01*
X535199Y581105D01*
X535241Y581008D01*
X535282Y580952D01*
X535315Y580892D01*
X535386Y580813D01*
X535449Y580728D01*
X535502Y580684D01*
X535548Y580632D01*
X535634Y580571D01*
X535715Y580503D01*
X535776Y580472D01*
X535833Y580432D01*
X535931Y580393D01*
X536025Y580345D01*
X536092Y580328D01*
X536157Y580302D01*
X536261Y580286D01*
X536363Y580260D01*
X536432Y580259D01*
X536501Y580249D01*
X536606Y580257D01*
X536712Y580255D01*
X536779Y580270D01*
X536849Y580276D01*
X536949Y580307D01*
X537052Y580330D01*
X537115Y580360D01*
X537181Y580380D01*
X537272Y580434D01*
X537367Y580479D01*
X537421Y580523D01*
X537481Y580558D01*
X537557Y580631D01*
X537639Y580697D01*
X537682Y580751D01*
X537732Y580799D01*
X537790Y580888D01*
X537855Y580970D01*
X537897Y581053D01*
X537922Y581091D01*
X537936Y581128D01*
X537967Y581188D01*
X539540Y584987D01*
X542613Y588060D01*
X546627Y589723D01*
X550973Y589723D01*
X554987Y588060D01*
X558060Y584987D01*
X559723Y580973D01*
X559723Y576627D01*
X559233Y575445D01*
X559212Y575371D01*
X559182Y575301D01*
X559164Y575205D01*
X559137Y575110D01*
X559134Y575034D01*
X559120Y574958D01*
X559125Y574860D01*
X559120Y574762D01*
X559134Y574687D01*
X559138Y574610D01*
X559165Y574516D01*
X559183Y574419D01*
X559213Y574349D01*
X559235Y574276D01*
X559283Y574190D01*
X559322Y574099D01*
X559367Y574038D01*
X559405Y573971D01*
X559502Y573858D01*
X559530Y573820D01*
X559544Y573807D01*
X559563Y573785D01*
X575638Y557711D01*
X575737Y557632D01*
X575830Y557548D01*
X575873Y557524D01*
X575911Y557494D01*
X576025Y557440D01*
X576135Y557379D01*
X576182Y557366D01*
X576226Y557345D01*
X576349Y557319D01*
X576471Y557284D01*
X576532Y557279D01*
X576566Y557272D01*
X576614Y557273D01*
X576715Y557265D01*
X808843Y557265D01*
X808919Y557273D01*
X808996Y557272D01*
X809092Y557293D01*
X809189Y557305D01*
X809261Y557330D01*
X809336Y557347D01*
X809425Y557389D01*
X809518Y557422D01*
X809582Y557464D01*
X809651Y557496D01*
X809728Y557558D01*
X809810Y557611D01*
X809863Y557666D01*
X809923Y557714D01*
X809984Y557791D01*
X810053Y557862D01*
X810092Y557927D01*
X810139Y557987D01*
X810207Y558120D01*
X810231Y558161D01*
X810237Y558179D01*
X810251Y558205D01*
X810740Y559387D01*
X813813Y562460D01*
X817827Y564123D01*
X822173Y564123D01*
X826187Y562460D01*
X829260Y559387D01*
X830923Y555373D01*
X830923Y551027D01*
X829260Y547013D01*
X826187Y543940D01*
X822173Y542277D01*
X817827Y542277D01*
G37*
%LPD*%
%LPC*%
G36*
X449739Y577784D02*
X449739Y577784D01*
X449736Y577810D01*
X449738Y577836D01*
X449716Y577983D01*
X449699Y578130D01*
X449691Y578155D01*
X449687Y578181D01*
X449632Y578318D01*
X449582Y578458D01*
X449568Y578480D01*
X449558Y578505D01*
X449473Y578626D01*
X449393Y578751D01*
X449374Y578769D01*
X449359Y578791D01*
X449343Y578805D01*
X449425Y578890D01*
X449439Y578913D01*
X449456Y578932D01*
X449528Y579062D01*
X449604Y579189D01*
X449612Y579214D01*
X449625Y579237D01*
X449665Y579380D01*
X449710Y579521D01*
X449712Y579547D01*
X449720Y579572D01*
X449739Y579816D01*
X449739Y590485D01*
X449996Y590445D01*
X451783Y589864D01*
X453457Y589011D01*
X454978Y587906D01*
X456306Y586578D01*
X457411Y585057D01*
X458264Y583383D01*
X458845Y581596D01*
X458855Y581533D01*
X458883Y581431D01*
X458902Y581328D01*
X458930Y581264D01*
X458948Y581197D01*
X458999Y581105D01*
X459041Y581008D01*
X459082Y580952D01*
X459116Y580891D01*
X459186Y580813D01*
X459249Y580729D01*
X459302Y580684D01*
X459348Y580632D01*
X459434Y580571D01*
X459515Y580503D01*
X459577Y580472D01*
X459634Y580432D01*
X459731Y580393D01*
X459825Y580345D01*
X459892Y580328D01*
X459957Y580302D01*
X460061Y580286D01*
X460163Y580260D01*
X460233Y580259D01*
X460301Y580249D01*
X460406Y580257D01*
X460512Y580255D01*
X460580Y580270D01*
X460649Y580276D01*
X460749Y580307D01*
X460852Y580330D01*
X460915Y580360D01*
X460981Y580381D01*
X461072Y580434D01*
X461167Y580479D01*
X461221Y580523D01*
X461281Y580558D01*
X461357Y580631D01*
X461439Y580697D01*
X461482Y580751D01*
X461533Y580800D01*
X461590Y580888D01*
X461655Y580970D01*
X461697Y581053D01*
X461723Y581092D01*
X461736Y581128D01*
X461767Y581188D01*
X463340Y584987D01*
X466413Y588060D01*
X470427Y589723D01*
X474773Y589723D01*
X478787Y588060D01*
X481860Y584987D01*
X483523Y580973D01*
X483523Y576627D01*
X481860Y572613D01*
X478787Y569540D01*
X474773Y567877D01*
X470427Y567877D01*
X466413Y569540D01*
X463340Y572613D01*
X461767Y576412D01*
X461715Y576504D01*
X461673Y576600D01*
X461631Y576656D01*
X461597Y576716D01*
X461526Y576794D01*
X461463Y576878D01*
X461410Y576923D01*
X461363Y576975D01*
X461276Y577035D01*
X461196Y577102D01*
X461134Y577133D01*
X461076Y577173D01*
X460978Y577211D01*
X460885Y577259D01*
X460817Y577275D01*
X460752Y577301D01*
X460648Y577316D01*
X460546Y577341D01*
X460476Y577341D01*
X460407Y577351D01*
X460302Y577343D01*
X460197Y577344D01*
X460129Y577328D01*
X460060Y577323D01*
X459960Y577290D01*
X459857Y577267D01*
X459795Y577237D01*
X459728Y577215D01*
X459638Y577161D01*
X459544Y577115D01*
X459489Y577072D01*
X459430Y577036D01*
X459354Y576962D01*
X459273Y576896D01*
X459230Y576842D01*
X459180Y576793D01*
X459123Y576704D01*
X459058Y576621D01*
X459029Y576558D01*
X458992Y576500D01*
X458956Y576401D01*
X458912Y576305D01*
X458890Y576215D01*
X458875Y576171D01*
X458871Y576133D01*
X458855Y576067D01*
X458845Y576004D01*
X458264Y574217D01*
X457411Y572543D01*
X456306Y571022D01*
X454978Y569694D01*
X453457Y568589D01*
X451783Y567736D01*
X449996Y567155D01*
X449739Y567115D01*
X449739Y577784D01*
G37*
%LPD*%
%LPC*%
G36*
X819910Y504625D02*
X819910Y504625D01*
X819887Y504639D01*
X819868Y504656D01*
X819738Y504728D01*
X819611Y504804D01*
X819586Y504812D01*
X819563Y504825D01*
X819420Y504865D01*
X819279Y504910D01*
X819253Y504912D01*
X819228Y504920D01*
X818984Y504939D01*
X808315Y504939D01*
X808355Y505196D01*
X808936Y506983D01*
X809789Y508657D01*
X810894Y510178D01*
X812222Y511506D01*
X813743Y512611D01*
X815417Y513464D01*
X817204Y514045D01*
X817267Y514055D01*
X817368Y514083D01*
X817472Y514102D01*
X817536Y514130D01*
X817603Y514148D01*
X817695Y514199D01*
X817792Y514241D01*
X817848Y514282D01*
X817908Y514315D01*
X817987Y514386D01*
X818072Y514449D01*
X818116Y514502D01*
X818168Y514548D01*
X818229Y514634D01*
X818297Y514715D01*
X818328Y514776D01*
X818368Y514833D01*
X818407Y514931D01*
X818455Y515025D01*
X818472Y515092D01*
X818498Y515157D01*
X818514Y515261D01*
X818540Y515363D01*
X818541Y515432D01*
X818551Y515501D01*
X818543Y515606D01*
X818545Y515712D01*
X818530Y515779D01*
X818524Y515849D01*
X818493Y515949D01*
X818470Y516052D01*
X818440Y516115D01*
X818420Y516181D01*
X818366Y516272D01*
X818321Y516367D01*
X818277Y516421D01*
X818242Y516481D01*
X818169Y516557D01*
X818103Y516639D01*
X818049Y516682D01*
X818001Y516732D01*
X817912Y516790D01*
X817830Y516855D01*
X817747Y516897D01*
X817709Y516922D01*
X817672Y516936D01*
X817612Y516967D01*
X813813Y518540D01*
X810740Y521613D01*
X809077Y525627D01*
X809077Y529973D01*
X810740Y533987D01*
X813813Y537060D01*
X817827Y538723D01*
X822173Y538723D01*
X826187Y537060D01*
X829260Y533987D01*
X830923Y529973D01*
X830923Y525627D01*
X829260Y521613D01*
X826187Y518540D01*
X822388Y516967D01*
X822296Y516915D01*
X822200Y516873D01*
X822144Y516831D01*
X822083Y516797D01*
X822006Y516726D01*
X821921Y516663D01*
X821877Y516610D01*
X821825Y516563D01*
X821765Y516476D01*
X821698Y516396D01*
X821667Y516334D01*
X821627Y516276D01*
X821589Y516178D01*
X821541Y516084D01*
X821525Y516017D01*
X821499Y515952D01*
X821484Y515848D01*
X821459Y515746D01*
X821459Y515676D01*
X821449Y515607D01*
X821457Y515502D01*
X821456Y515397D01*
X821472Y515329D01*
X821477Y515260D01*
X821510Y515160D01*
X821533Y515057D01*
X821563Y514994D01*
X821585Y514928D01*
X821639Y514838D01*
X821685Y514743D01*
X821728Y514689D01*
X821764Y514630D01*
X821838Y514554D01*
X821904Y514472D01*
X821959Y514430D01*
X822007Y514380D01*
X822096Y514323D01*
X822179Y514258D01*
X822242Y514229D01*
X822300Y514192D01*
X822400Y514156D01*
X822495Y514112D01*
X822585Y514091D01*
X822629Y514075D01*
X822667Y514071D01*
X822733Y514055D01*
X822796Y514045D01*
X824583Y513464D01*
X826257Y512611D01*
X827778Y511506D01*
X829106Y510178D01*
X830211Y508657D01*
X831064Y506983D01*
X831645Y505196D01*
X831685Y504939D01*
X821016Y504939D01*
X820990Y504936D01*
X820964Y504938D01*
X820817Y504916D01*
X820670Y504899D01*
X820645Y504891D01*
X820619Y504887D01*
X820482Y504832D01*
X820342Y504782D01*
X820320Y504768D01*
X820295Y504758D01*
X820174Y504673D01*
X820049Y504593D01*
X820031Y504574D01*
X820009Y504559D01*
X819995Y504543D01*
X819910Y504625D01*
G37*
%LPD*%
%LPC*%
G36*
X817827Y466077D02*
X817827Y466077D01*
X813813Y467740D01*
X810740Y470813D01*
X809077Y474827D01*
X809077Y479173D01*
X810740Y483187D01*
X813813Y486260D01*
X817612Y487833D01*
X817704Y487885D01*
X817800Y487927D01*
X817856Y487969D01*
X817917Y488003D01*
X817994Y488074D01*
X818079Y488137D01*
X818123Y488190D01*
X818175Y488237D01*
X818235Y488324D01*
X818302Y488404D01*
X818333Y488466D01*
X818373Y488524D01*
X818411Y488622D01*
X818459Y488716D01*
X818475Y488783D01*
X818501Y488848D01*
X818516Y488952D01*
X818541Y489054D01*
X818541Y489124D01*
X818551Y489193D01*
X818543Y489298D01*
X818544Y489403D01*
X818528Y489471D01*
X818523Y489540D01*
X818490Y489640D01*
X818467Y489743D01*
X818437Y489806D01*
X818415Y489872D01*
X818361Y489962D01*
X818315Y490057D01*
X818272Y490111D01*
X818236Y490170D01*
X818162Y490246D01*
X818096Y490328D01*
X818041Y490370D01*
X817993Y490420D01*
X817904Y490477D01*
X817821Y490542D01*
X817758Y490571D01*
X817700Y490608D01*
X817600Y490644D01*
X817505Y490688D01*
X817415Y490709D01*
X817371Y490725D01*
X817333Y490729D01*
X817267Y490745D01*
X817204Y490755D01*
X815417Y491336D01*
X813743Y492189D01*
X812222Y493294D01*
X810894Y494622D01*
X809789Y496143D01*
X808936Y497817D01*
X808355Y499604D01*
X808315Y499861D01*
X818984Y499861D01*
X819010Y499864D01*
X819036Y499862D01*
X819183Y499884D01*
X819330Y499901D01*
X819355Y499909D01*
X819381Y499913D01*
X819518Y499968D01*
X819658Y500018D01*
X819680Y500032D01*
X819705Y500042D01*
X819826Y500127D01*
X819951Y500207D01*
X819969Y500226D01*
X819991Y500241D01*
X820005Y500257D01*
X820090Y500175D01*
X820113Y500161D01*
X820132Y500144D01*
X820262Y500072D01*
X820389Y499996D01*
X820414Y499988D01*
X820437Y499975D01*
X820580Y499935D01*
X820721Y499890D01*
X820747Y499887D01*
X820772Y499880D01*
X821016Y499861D01*
X831685Y499861D01*
X831645Y499604D01*
X831064Y497817D01*
X830211Y496143D01*
X829106Y494622D01*
X827778Y493294D01*
X826257Y492189D01*
X824583Y491336D01*
X822796Y490755D01*
X822733Y490745D01*
X822631Y490717D01*
X822528Y490698D01*
X822464Y490670D01*
X822397Y490652D01*
X822305Y490601D01*
X822208Y490559D01*
X822152Y490518D01*
X822091Y490484D01*
X822013Y490414D01*
X821928Y490351D01*
X821884Y490298D01*
X821832Y490252D01*
X821771Y490165D01*
X821703Y490085D01*
X821672Y490023D01*
X821632Y489966D01*
X821593Y489869D01*
X821545Y489775D01*
X821528Y489708D01*
X821502Y489643D01*
X821486Y489539D01*
X821460Y489437D01*
X821459Y489367D01*
X821449Y489299D01*
X821457Y489194D01*
X821455Y489088D01*
X821470Y489020D01*
X821476Y488951D01*
X821507Y488851D01*
X821530Y488748D01*
X821560Y488685D01*
X821581Y488619D01*
X821634Y488528D01*
X821679Y488433D01*
X821723Y488379D01*
X821758Y488319D01*
X821831Y488243D01*
X821897Y488161D01*
X821951Y488118D01*
X822000Y488067D01*
X822088Y488010D01*
X822170Y487945D01*
X822253Y487903D01*
X822292Y487877D01*
X822328Y487864D01*
X822388Y487833D01*
X826187Y486260D01*
X829260Y483187D01*
X830923Y479173D01*
X830923Y474827D01*
X829260Y470813D01*
X826187Y467740D01*
X822173Y466077D01*
X817827Y466077D01*
G37*
%LPD*%
%LPC*%
G36*
X520604Y567155D02*
X520604Y567155D01*
X518817Y567736D01*
X517143Y568589D01*
X515622Y569694D01*
X514294Y571022D01*
X513189Y572543D01*
X512336Y574217D01*
X511755Y576004D01*
X511745Y576067D01*
X511717Y576169D01*
X511698Y576272D01*
X511670Y576336D01*
X511652Y576403D01*
X511601Y576495D01*
X511559Y576592D01*
X511518Y576648D01*
X511484Y576709D01*
X511414Y576787D01*
X511351Y576872D01*
X511298Y576916D01*
X511252Y576968D01*
X511165Y577029D01*
X511085Y577097D01*
X511023Y577128D01*
X510966Y577168D01*
X510869Y577207D01*
X510775Y577255D01*
X510708Y577272D01*
X510643Y577298D01*
X510539Y577314D01*
X510437Y577340D01*
X510367Y577341D01*
X510299Y577351D01*
X510194Y577343D01*
X510088Y577345D01*
X510020Y577330D01*
X509951Y577324D01*
X509851Y577293D01*
X509748Y577270D01*
X509685Y577240D01*
X509619Y577219D01*
X509528Y577166D01*
X509433Y577121D01*
X509379Y577077D01*
X509319Y577042D01*
X509243Y576969D01*
X509161Y576903D01*
X509118Y576849D01*
X509067Y576800D01*
X509010Y576712D01*
X508945Y576630D01*
X508903Y576547D01*
X508877Y576508D01*
X508864Y576472D01*
X508833Y576412D01*
X507260Y572613D01*
X504187Y569540D01*
X500173Y567877D01*
X495827Y567877D01*
X491813Y569540D01*
X488740Y572613D01*
X487077Y576627D01*
X487077Y580973D01*
X488740Y584987D01*
X491813Y588060D01*
X495827Y589723D01*
X500173Y589723D01*
X504187Y588060D01*
X507260Y584987D01*
X508833Y581188D01*
X508885Y581096D01*
X508927Y581000D01*
X508969Y580944D01*
X509003Y580883D01*
X509074Y580806D01*
X509137Y580721D01*
X509190Y580677D01*
X509237Y580625D01*
X509324Y580565D01*
X509404Y580498D01*
X509466Y580467D01*
X509524Y580427D01*
X509622Y580389D01*
X509716Y580341D01*
X509783Y580325D01*
X509848Y580299D01*
X509952Y580284D01*
X510054Y580259D01*
X510124Y580259D01*
X510193Y580249D01*
X510298Y580257D01*
X510403Y580256D01*
X510471Y580272D01*
X510540Y580277D01*
X510640Y580310D01*
X510743Y580333D01*
X510806Y580363D01*
X510872Y580385D01*
X510962Y580439D01*
X511057Y580485D01*
X511111Y580528D01*
X511170Y580564D01*
X511246Y580638D01*
X511328Y580704D01*
X511370Y580759D01*
X511420Y580807D01*
X511477Y580896D01*
X511542Y580979D01*
X511571Y581042D01*
X511608Y581100D01*
X511644Y581200D01*
X511688Y581295D01*
X511709Y581385D01*
X511725Y581429D01*
X511729Y581467D01*
X511745Y581533D01*
X511755Y581596D01*
X512336Y583383D01*
X513189Y585057D01*
X514294Y586578D01*
X515622Y587906D01*
X517143Y589011D01*
X518817Y589864D01*
X520604Y590445D01*
X520861Y590485D01*
X520861Y579816D01*
X520863Y579793D01*
X520862Y579772D01*
X520862Y579769D01*
X520862Y579764D01*
X520884Y579617D01*
X520901Y579470D01*
X520909Y579445D01*
X520913Y579419D01*
X520968Y579282D01*
X521018Y579142D01*
X521032Y579120D01*
X521042Y579095D01*
X521127Y578974D01*
X521207Y578849D01*
X521226Y578831D01*
X521241Y578809D01*
X521257Y578795D01*
X521175Y578710D01*
X521161Y578687D01*
X521144Y578668D01*
X521072Y578538D01*
X520996Y578411D01*
X520988Y578386D01*
X520975Y578363D01*
X520935Y578220D01*
X520890Y578079D01*
X520887Y578053D01*
X520880Y578028D01*
X520861Y577784D01*
X520861Y567115D01*
X520604Y567155D01*
G37*
%LPD*%
%LPC*%
G36*
X817827Y567677D02*
X817827Y567677D01*
X813813Y569340D01*
X810740Y572413D01*
X809077Y576427D01*
X809077Y580773D01*
X810740Y584787D01*
X813813Y587860D01*
X817827Y589523D01*
X822173Y589523D01*
X826187Y587860D01*
X829260Y584787D01*
X830923Y580773D01*
X830923Y576427D01*
X829260Y572413D01*
X826187Y569340D01*
X822173Y567677D01*
X817827Y567677D01*
G37*
%LPD*%
%LPC*%
G36*
X817827Y364477D02*
X817827Y364477D01*
X813813Y366140D01*
X810740Y369213D01*
X809077Y373227D01*
X809077Y377573D01*
X810740Y381587D01*
X813813Y384660D01*
X817827Y386323D01*
X822173Y386323D01*
X826187Y384660D01*
X829260Y381587D01*
X830923Y377573D01*
X830923Y373227D01*
X829260Y369213D01*
X826187Y366140D01*
X822173Y364477D01*
X817827Y364477D01*
G37*
%LPD*%
%LPC*%
G36*
X817827Y339077D02*
X817827Y339077D01*
X813813Y340740D01*
X810740Y343813D01*
X809077Y347827D01*
X809077Y352173D01*
X810740Y356187D01*
X813813Y359260D01*
X817827Y360923D01*
X822173Y360923D01*
X826187Y359260D01*
X829260Y356187D01*
X830923Y352173D01*
X830923Y347827D01*
X829260Y343813D01*
X826187Y340740D01*
X822173Y339077D01*
X817827Y339077D01*
G37*
%LPD*%
%LPC*%
G36*
X817827Y389877D02*
X817827Y389877D01*
X813813Y391540D01*
X810740Y394613D01*
X809077Y398627D01*
X809077Y402973D01*
X810740Y406987D01*
X813813Y410060D01*
X817827Y411723D01*
X822173Y411723D01*
X826187Y410060D01*
X829260Y406987D01*
X830923Y402973D01*
X830923Y398627D01*
X829260Y394613D01*
X826187Y391540D01*
X822173Y389877D01*
X817827Y389877D01*
G37*
%LPD*%
%LPC*%
G36*
X817827Y415277D02*
X817827Y415277D01*
X813813Y416940D01*
X810740Y420013D01*
X809077Y424027D01*
X809077Y428373D01*
X810740Y432387D01*
X813813Y435460D01*
X817827Y437123D01*
X822173Y437123D01*
X826187Y435460D01*
X829260Y432387D01*
X830923Y428373D01*
X830923Y424027D01*
X829260Y420013D01*
X826187Y416940D01*
X822173Y415277D01*
X817827Y415277D01*
G37*
%LPD*%
%LPC*%
G36*
X817827Y440677D02*
X817827Y440677D01*
X813813Y442340D01*
X810740Y445413D01*
X809077Y449427D01*
X809077Y453773D01*
X810740Y457787D01*
X813813Y460860D01*
X817827Y462523D01*
X822173Y462523D01*
X826187Y460860D01*
X829260Y457787D01*
X830923Y453773D01*
X830923Y449427D01*
X829260Y445413D01*
X826187Y442340D01*
X822173Y440677D01*
X817827Y440677D01*
G37*
%LPD*%
%LPC*%
G36*
X162531Y483831D02*
X162531Y483831D01*
X162531Y492723D01*
X165024Y492723D01*
X171423Y486324D01*
X171423Y483831D01*
X162531Y483831D01*
G37*
%LPD*%
%LPC*%
G36*
X517331Y738631D02*
X517331Y738631D01*
X517331Y747523D01*
X519824Y747523D01*
X526223Y741124D01*
X526223Y738631D01*
X517331Y738631D01*
G37*
%LPD*%
%LPC*%
G36*
X149577Y483831D02*
X149577Y483831D01*
X149577Y486324D01*
X155976Y492723D01*
X158469Y492723D01*
X158469Y483831D01*
X149577Y483831D01*
G37*
%LPD*%
%LPC*%
G36*
X517331Y725677D02*
X517331Y725677D01*
X517331Y734569D01*
X526223Y734569D01*
X526223Y732076D01*
X519824Y725677D01*
X517331Y725677D01*
G37*
%LPD*%
%LPC*%
G36*
X481677Y177931D02*
X481677Y177931D01*
X481677Y180424D01*
X488076Y186823D01*
X490569Y186823D01*
X490569Y177931D01*
X481677Y177931D01*
G37*
%LPD*%
%LPC*%
G36*
X804031Y269477D02*
X804031Y269477D01*
X804031Y278369D01*
X812923Y278369D01*
X812923Y275876D01*
X806524Y269477D01*
X804031Y269477D01*
G37*
%LPD*%
%LPC*%
G36*
X797476Y269477D02*
X797476Y269477D01*
X791077Y275876D01*
X791077Y278369D01*
X799969Y278369D01*
X799969Y269477D01*
X797476Y269477D01*
G37*
%LPD*%
%LPC*%
G36*
X488076Y164977D02*
X488076Y164977D01*
X481677Y171376D01*
X481677Y173869D01*
X490569Y173869D01*
X490569Y164977D01*
X488076Y164977D01*
G37*
%LPD*%
D10*
X421800Y578800D03*
X447200Y578800D03*
X472600Y578800D03*
X498000Y578800D03*
X523400Y578800D03*
X548800Y578800D03*
D11*
X492600Y175900D03*
X512600Y175900D03*
D12*
X515300Y736600D03*
X495300Y736600D03*
D13*
X802000Y280400D03*
X802000Y300400D03*
D14*
X160500Y481800D03*
X160500Y461800D03*
D10*
X820000Y350000D03*
X820000Y375400D03*
X820000Y400800D03*
X820000Y426200D03*
X820000Y451600D03*
X820000Y477000D03*
X820000Y502400D03*
X820000Y527800D03*
X820000Y553200D03*
X820000Y578600D03*
D15*
X574400Y553200D02*
X548800Y578800D01*
X574400Y553200D02*
X820000Y553200D01*
D16*
X421800Y578800D02*
X421800Y580000D01*
D15*
X231800Y461800D02*
X160500Y461800D01*
X231800Y461800D02*
X350000Y580000D01*
X420000Y580000D01*
X421800Y580000D01*
X478500Y210000D02*
X512600Y175900D01*
X170000Y210000D02*
X160000Y220000D01*
X160000Y461300D01*
X160500Y461800D01*
X170000Y210000D02*
X478500Y210000D01*
X495300Y736600D02*
X436600Y736600D01*
X420000Y720000D02*
X420000Y580000D01*
X420000Y720000D02*
X436600Y736600D01*
X760400Y300400D02*
X802000Y300400D01*
X740000Y280000D02*
X740000Y180000D01*
X735900Y175900D01*
X512600Y175900D01*
X740000Y280000D02*
X760400Y300400D01*
M02*
