G04 EAGLE Gerber RS-274X export*
G75*
%MOMM*%
%FSLAX34Y34*%
%LPD*%
%IN*%
%IPPOS*%
%AMOC8*
5,1,8,0,0,1.08239X$1,22.5*%
G01*
%ADD10C,0.254000*%


D10*
X0Y0D02*
X404450Y0D01*
X404450Y50000D01*
X554450Y50000D01*
X554450Y0D01*
X958900Y0D01*
X958900Y74000D01*
X942900Y74000D01*
X942900Y138900D01*
X883900Y138900D01*
X883900Y762800D01*
X942900Y762800D01*
X942900Y827700D01*
X958900Y827700D01*
X958900Y901700D01*
X554450Y901700D01*
X554450Y851700D01*
X404450Y851700D01*
X404450Y901700D01*
X0Y901700D01*
X0Y827700D01*
X16000Y827700D01*
X16000Y762800D01*
X75000Y762800D01*
X75000Y138900D01*
X16000Y138900D01*
X16000Y74000D01*
X0Y74000D01*
X0Y0D01*
X65800Y50264D02*
X65800Y51336D01*
X65724Y52404D01*
X65571Y53465D01*
X65343Y54512D01*
X65041Y55540D01*
X64667Y56544D01*
X64222Y57519D01*
X63708Y58459D01*
X63129Y59360D01*
X62487Y60218D01*
X61785Y61028D01*
X61028Y61785D01*
X60218Y62487D01*
X59360Y63129D01*
X58459Y63708D01*
X57519Y64222D01*
X56544Y64667D01*
X55540Y65041D01*
X54512Y65343D01*
X53465Y65571D01*
X52404Y65724D01*
X51336Y65800D01*
X50264Y65800D01*
X49196Y65724D01*
X48135Y65571D01*
X47088Y65343D01*
X46060Y65041D01*
X45056Y64667D01*
X44081Y64222D01*
X43141Y63708D01*
X42240Y63129D01*
X41382Y62487D01*
X40572Y61785D01*
X39815Y61028D01*
X39113Y60218D01*
X38471Y59360D01*
X37892Y58459D01*
X37378Y57519D01*
X36933Y56544D01*
X36559Y55540D01*
X36257Y54512D01*
X36029Y53465D01*
X35876Y52404D01*
X35800Y51336D01*
X35800Y50264D01*
X35876Y49196D01*
X36029Y48135D01*
X36257Y47088D01*
X36559Y46060D01*
X36933Y45056D01*
X37378Y44081D01*
X37892Y43141D01*
X38471Y42240D01*
X39113Y41382D01*
X39815Y40572D01*
X40572Y39815D01*
X41382Y39113D01*
X42240Y38471D01*
X43141Y37892D01*
X44081Y37378D01*
X45056Y36933D01*
X46060Y36559D01*
X47088Y36257D01*
X48135Y36029D01*
X49196Y35876D01*
X50264Y35800D01*
X51336Y35800D01*
X52404Y35876D01*
X53465Y36029D01*
X54512Y36257D01*
X55540Y36559D01*
X56544Y36933D01*
X57519Y37378D01*
X58459Y37892D01*
X59360Y38471D01*
X60218Y39113D01*
X61028Y39815D01*
X61785Y40572D01*
X62487Y41382D01*
X63129Y42240D01*
X63708Y43141D01*
X64222Y44081D01*
X64667Y45056D01*
X65041Y46060D01*
X65343Y47088D01*
X65571Y48135D01*
X65724Y49196D01*
X65800Y50264D01*
X923100Y812264D02*
X923100Y813336D01*
X923024Y814404D01*
X922871Y815465D01*
X922643Y816512D01*
X922341Y817540D01*
X921967Y818544D01*
X921522Y819519D01*
X921008Y820459D01*
X920429Y821360D01*
X919787Y822218D01*
X919085Y823028D01*
X918328Y823785D01*
X917518Y824487D01*
X916660Y825129D01*
X915759Y825708D01*
X914819Y826222D01*
X913844Y826667D01*
X912840Y827041D01*
X911812Y827343D01*
X910765Y827571D01*
X909704Y827724D01*
X908636Y827800D01*
X907564Y827800D01*
X906496Y827724D01*
X905435Y827571D01*
X904388Y827343D01*
X903360Y827041D01*
X902356Y826667D01*
X901381Y826222D01*
X900441Y825708D01*
X899540Y825129D01*
X898682Y824487D01*
X897872Y823785D01*
X897115Y823028D01*
X896413Y822218D01*
X895771Y821360D01*
X895192Y820459D01*
X894678Y819519D01*
X894233Y818544D01*
X893859Y817540D01*
X893557Y816512D01*
X893329Y815465D01*
X893176Y814404D01*
X893100Y813336D01*
X893100Y812264D01*
X893176Y811196D01*
X893329Y810135D01*
X893557Y809088D01*
X893859Y808060D01*
X894233Y807056D01*
X894678Y806081D01*
X895192Y805141D01*
X895771Y804240D01*
X896413Y803382D01*
X897115Y802572D01*
X897872Y801815D01*
X898682Y801113D01*
X899540Y800471D01*
X900441Y799892D01*
X901381Y799378D01*
X902356Y798933D01*
X903360Y798559D01*
X904388Y798257D01*
X905435Y798029D01*
X906496Y797876D01*
X907564Y797800D01*
X908636Y797800D01*
X909704Y797876D01*
X910765Y798029D01*
X911812Y798257D01*
X912840Y798559D01*
X913844Y798933D01*
X914819Y799378D01*
X915759Y799892D01*
X916660Y800471D01*
X917518Y801113D01*
X918328Y801815D01*
X919085Y802572D01*
X919787Y803382D01*
X920429Y804240D01*
X921008Y805141D01*
X921522Y806081D01*
X921967Y807056D01*
X922341Y808060D01*
X922643Y809088D01*
X922871Y810135D01*
X923024Y811196D01*
X923100Y812264D01*
X65800Y850364D02*
X65800Y851436D01*
X65724Y852504D01*
X65571Y853565D01*
X65343Y854612D01*
X65041Y855640D01*
X64667Y856644D01*
X64222Y857619D01*
X63708Y858559D01*
X63129Y859460D01*
X62487Y860318D01*
X61785Y861128D01*
X61028Y861885D01*
X60218Y862587D01*
X59360Y863229D01*
X58459Y863808D01*
X57519Y864322D01*
X56544Y864767D01*
X55540Y865141D01*
X54512Y865443D01*
X53465Y865671D01*
X52404Y865824D01*
X51336Y865900D01*
X50264Y865900D01*
X49196Y865824D01*
X48135Y865671D01*
X47088Y865443D01*
X46060Y865141D01*
X45056Y864767D01*
X44081Y864322D01*
X43141Y863808D01*
X42240Y863229D01*
X41382Y862587D01*
X40572Y861885D01*
X39815Y861128D01*
X39113Y860318D01*
X38471Y859460D01*
X37892Y858559D01*
X37378Y857619D01*
X36933Y856644D01*
X36559Y855640D01*
X36257Y854612D01*
X36029Y853565D01*
X35876Y852504D01*
X35800Y851436D01*
X35800Y850364D01*
X35876Y849296D01*
X36029Y848235D01*
X36257Y847188D01*
X36559Y846160D01*
X36933Y845156D01*
X37378Y844181D01*
X37892Y843241D01*
X38471Y842340D01*
X39113Y841482D01*
X39815Y840672D01*
X40572Y839915D01*
X41382Y839213D01*
X42240Y838571D01*
X43141Y837992D01*
X44081Y837478D01*
X45056Y837033D01*
X46060Y836659D01*
X47088Y836357D01*
X48135Y836129D01*
X49196Y835976D01*
X50264Y835900D01*
X51336Y835900D01*
X52404Y835976D01*
X53465Y836129D01*
X54512Y836357D01*
X55540Y836659D01*
X56544Y837033D01*
X57519Y837478D01*
X58459Y837992D01*
X59360Y838571D01*
X60218Y839213D01*
X61028Y839915D01*
X61785Y840672D01*
X62487Y841482D01*
X63129Y842340D01*
X63708Y843241D01*
X64222Y844181D01*
X64667Y845156D01*
X65041Y846160D01*
X65343Y847188D01*
X65571Y848235D01*
X65724Y849296D01*
X65800Y850364D01*
X923100Y88364D02*
X923100Y89436D01*
X923024Y90504D01*
X922871Y91565D01*
X922643Y92612D01*
X922341Y93640D01*
X921967Y94644D01*
X921522Y95619D01*
X921008Y96559D01*
X920429Y97460D01*
X919787Y98318D01*
X919085Y99128D01*
X918328Y99885D01*
X917518Y100587D01*
X916660Y101229D01*
X915759Y101808D01*
X914819Y102322D01*
X913844Y102767D01*
X912840Y103141D01*
X911812Y103443D01*
X910765Y103671D01*
X909704Y103824D01*
X908636Y103900D01*
X907564Y103900D01*
X906496Y103824D01*
X905435Y103671D01*
X904388Y103443D01*
X903360Y103141D01*
X902356Y102767D01*
X901381Y102322D01*
X900441Y101808D01*
X899540Y101229D01*
X898682Y100587D01*
X897872Y99885D01*
X897115Y99128D01*
X896413Y98318D01*
X895771Y97460D01*
X895192Y96559D01*
X894678Y95619D01*
X894233Y94644D01*
X893859Y93640D01*
X893557Y92612D01*
X893329Y91565D01*
X893176Y90504D01*
X893100Y89436D01*
X893100Y88364D01*
X893176Y87296D01*
X893329Y86235D01*
X893557Y85188D01*
X893859Y84160D01*
X894233Y83156D01*
X894678Y82181D01*
X895192Y81241D01*
X895771Y80340D01*
X896413Y79482D01*
X897115Y78672D01*
X897872Y77915D01*
X898682Y77213D01*
X899540Y76571D01*
X900441Y75992D01*
X901381Y75478D01*
X902356Y75033D01*
X903360Y74659D01*
X904388Y74357D01*
X905435Y74129D01*
X906496Y73976D01*
X907564Y73900D01*
X908636Y73900D01*
X909704Y73976D01*
X910765Y74129D01*
X911812Y74357D01*
X912840Y74659D01*
X913844Y75033D01*
X914819Y75478D01*
X915759Y75992D01*
X916660Y76571D01*
X917518Y77213D01*
X918328Y77915D01*
X919085Y78672D01*
X919787Y79482D01*
X920429Y80340D01*
X921008Y81241D01*
X921522Y82181D01*
X921967Y83156D01*
X922341Y84160D01*
X922643Y85188D01*
X922871Y86235D01*
X923024Y87296D01*
X923100Y88364D01*
M02*
