G04 EAGLE Gerber RS-274X export*
G75*
%MOMM*%
%FSLAX34Y34*%
%LPD*%
%INBottom Copper*%
%IPPOS*%
%AMOC8*
5,1,8,0,0,1.08239X$1,22.5*%
G01*
%ADD10C,1.879600*%
%ADD11C,0.508000*%
%ADD12C,0.406400*%
%ADD13C,0.304800*%

G36*
X837928Y354835D02*
X837928Y354835D01*
X838027Y354838D01*
X838086Y354855D01*
X838146Y354863D01*
X838238Y354899D01*
X838333Y354927D01*
X838385Y354957D01*
X838441Y354980D01*
X838521Y355038D01*
X838607Y355088D01*
X838682Y355154D01*
X838699Y355166D01*
X838707Y355176D01*
X838728Y355194D01*
X845056Y361522D01*
X845116Y361601D01*
X845184Y361673D01*
X845213Y361726D01*
X845250Y361774D01*
X845290Y361865D01*
X845338Y361951D01*
X845353Y362010D01*
X845377Y362065D01*
X845392Y362163D01*
X845417Y362259D01*
X845423Y362359D01*
X845427Y362380D01*
X845425Y362392D01*
X845427Y362420D01*
X845427Y687580D01*
X845415Y687678D01*
X845412Y687777D01*
X845395Y687836D01*
X845387Y687896D01*
X845351Y687988D01*
X845323Y688083D01*
X845293Y688135D01*
X845270Y688191D01*
X845212Y688271D01*
X845162Y688357D01*
X845096Y688432D01*
X845084Y688449D01*
X845074Y688457D01*
X845056Y688478D01*
X733378Y800156D01*
X733299Y800216D01*
X733227Y800284D01*
X733174Y800313D01*
X733126Y800350D01*
X733035Y800390D01*
X732949Y800438D01*
X732890Y800453D01*
X732835Y800477D01*
X732737Y800492D01*
X732641Y800517D01*
X732541Y800523D01*
X732520Y800527D01*
X732508Y800525D01*
X732480Y800527D01*
X179226Y800527D01*
X179197Y800524D01*
X179168Y800526D01*
X179040Y800504D01*
X178911Y800487D01*
X178883Y800477D01*
X178854Y800472D01*
X178736Y800418D01*
X178615Y800370D01*
X178591Y800353D01*
X178564Y800341D01*
X178463Y800260D01*
X178358Y800184D01*
X178339Y800161D01*
X178316Y800142D01*
X178238Y800039D01*
X178155Y799939D01*
X178142Y799912D01*
X178125Y799888D01*
X178054Y799744D01*
X177352Y798050D01*
X173850Y794548D01*
X170825Y793295D01*
X170799Y793280D01*
X170770Y793271D01*
X170661Y793201D01*
X170548Y793137D01*
X170527Y793116D01*
X170502Y793100D01*
X170413Y793006D01*
X170320Y792916D01*
X170304Y792890D01*
X170284Y792869D01*
X170221Y792755D01*
X170154Y792645D01*
X170145Y792616D01*
X170131Y792590D01*
X170098Y792465D01*
X170060Y792341D01*
X170059Y792311D01*
X170051Y792282D01*
X170051Y792152D01*
X170045Y792023D01*
X170051Y791994D01*
X170051Y791964D01*
X170083Y791839D01*
X170109Y791712D01*
X170122Y791685D01*
X170130Y791656D01*
X170192Y791543D01*
X170249Y791426D01*
X170268Y791403D01*
X170283Y791377D01*
X170371Y791283D01*
X170455Y791184D01*
X170480Y791167D01*
X170500Y791145D01*
X170609Y791076D01*
X170715Y791001D01*
X170743Y790990D01*
X170769Y790974D01*
X170918Y790915D01*
X171383Y790764D01*
X173057Y789911D01*
X174578Y788806D01*
X175906Y787478D01*
X177011Y785957D01*
X177864Y784283D01*
X178445Y782496D01*
X178485Y782239D01*
X168070Y782239D01*
X167952Y782224D01*
X167833Y782217D01*
X167795Y782204D01*
X167755Y782199D01*
X167644Y782156D01*
X167531Y782119D01*
X167497Y782097D01*
X167459Y782082D01*
X167363Y782012D01*
X167262Y781949D01*
X167234Y781919D01*
X167202Y781895D01*
X167126Y781804D01*
X167044Y781717D01*
X167025Y781682D01*
X166999Y781651D01*
X166948Y781543D01*
X166891Y781439D01*
X166880Y781399D01*
X166863Y781363D01*
X166841Y781246D01*
X166811Y781131D01*
X166807Y781070D01*
X166803Y781050D01*
X166805Y781030D01*
X166801Y780970D01*
X166801Y779699D01*
X166799Y779699D01*
X166799Y780970D01*
X166784Y781088D01*
X166777Y781207D01*
X166764Y781245D01*
X166759Y781285D01*
X166715Y781396D01*
X166679Y781509D01*
X166657Y781544D01*
X166642Y781581D01*
X166572Y781677D01*
X166509Y781778D01*
X166479Y781806D01*
X166455Y781839D01*
X166364Y781914D01*
X166277Y781996D01*
X166242Y782016D01*
X166210Y782041D01*
X166103Y782092D01*
X165998Y782150D01*
X165959Y782160D01*
X165923Y782177D01*
X165806Y782199D01*
X165691Y782229D01*
X165630Y782233D01*
X165610Y782237D01*
X165590Y782235D01*
X165530Y782239D01*
X155115Y782239D01*
X155155Y782496D01*
X155736Y784283D01*
X156589Y785957D01*
X157694Y787478D01*
X159022Y788806D01*
X160543Y789911D01*
X162217Y790764D01*
X162682Y790915D01*
X162709Y790928D01*
X162738Y790935D01*
X162852Y790995D01*
X162970Y791050D01*
X162993Y791069D01*
X163019Y791083D01*
X163115Y791170D01*
X163215Y791253D01*
X163232Y791277D01*
X163254Y791297D01*
X163326Y791406D01*
X163402Y791510D01*
X163413Y791538D01*
X163429Y791563D01*
X163471Y791686D01*
X163519Y791806D01*
X163523Y791836D01*
X163532Y791864D01*
X163543Y791993D01*
X163559Y792121D01*
X163555Y792151D01*
X163558Y792181D01*
X163535Y792309D01*
X163519Y792437D01*
X163508Y792465D01*
X163503Y792494D01*
X163450Y792612D01*
X163402Y792733D01*
X163385Y792757D01*
X163373Y792784D01*
X163292Y792885D01*
X163216Y792990D01*
X163193Y793009D01*
X163174Y793033D01*
X163070Y793111D01*
X162971Y793193D01*
X162944Y793206D01*
X162920Y793224D01*
X162775Y793295D01*
X159750Y794548D01*
X156248Y798050D01*
X154353Y802624D01*
X154353Y807576D01*
X156248Y812150D01*
X159750Y815652D01*
X162105Y816627D01*
X162225Y816696D01*
X162348Y816761D01*
X162363Y816775D01*
X162381Y816785D01*
X162481Y816882D01*
X162584Y816975D01*
X162595Y816992D01*
X162609Y817006D01*
X162682Y817125D01*
X162758Y817241D01*
X162765Y817260D01*
X162776Y817277D01*
X162817Y817410D01*
X162862Y817542D01*
X162863Y817562D01*
X162869Y817581D01*
X162876Y817720D01*
X162887Y817859D01*
X162883Y817879D01*
X162884Y817899D01*
X162856Y818035D01*
X162832Y818172D01*
X162824Y818191D01*
X162820Y818210D01*
X162759Y818336D01*
X162702Y818462D01*
X162689Y818478D01*
X162680Y818496D01*
X162590Y818602D01*
X162503Y818710D01*
X162487Y818723D01*
X162474Y818738D01*
X162360Y818818D01*
X162249Y818902D01*
X162224Y818914D01*
X162214Y818921D01*
X162195Y818928D01*
X162105Y818973D01*
X159749Y819948D01*
X156248Y823449D01*
X155967Y824128D01*
X155953Y824153D01*
X155944Y824181D01*
X155874Y824291D01*
X155810Y824404D01*
X155789Y824425D01*
X155773Y824450D01*
X155679Y824539D01*
X155588Y824632D01*
X155563Y824648D01*
X155542Y824668D01*
X155428Y824731D01*
X155317Y824799D01*
X155289Y824807D01*
X155263Y824822D01*
X155138Y824854D01*
X155013Y824892D01*
X154984Y824894D01*
X154955Y824901D01*
X154795Y824911D01*
X143341Y824911D01*
X143242Y824899D01*
X143143Y824896D01*
X143085Y824879D01*
X143025Y824871D01*
X142933Y824835D01*
X142838Y824807D01*
X142786Y824777D01*
X142729Y824754D01*
X142649Y824696D01*
X142564Y824646D01*
X142489Y824580D01*
X142472Y824568D01*
X142464Y824558D01*
X142443Y824540D01*
X135960Y818057D01*
X135900Y817979D01*
X135832Y817906D01*
X135803Y817853D01*
X135766Y817806D01*
X135726Y817715D01*
X135678Y817628D01*
X135663Y817569D01*
X135639Y817514D01*
X135624Y817416D01*
X135599Y817320D01*
X135593Y817220D01*
X135589Y817200D01*
X135591Y817187D01*
X135589Y817159D01*
X135589Y752841D01*
X135601Y752742D01*
X135604Y752643D01*
X135621Y752585D01*
X135629Y752525D01*
X135665Y752433D01*
X135693Y752338D01*
X135723Y752286D01*
X135746Y752229D01*
X135804Y752149D01*
X135854Y752064D01*
X135920Y751989D01*
X135932Y751972D01*
X135942Y751964D01*
X135960Y751943D01*
X164538Y723366D01*
X165389Y721312D01*
X165389Y516557D01*
X165406Y516419D01*
X165419Y516280D01*
X165426Y516261D01*
X165429Y516241D01*
X165480Y516112D01*
X165527Y515981D01*
X165538Y515964D01*
X165546Y515945D01*
X165627Y515833D01*
X165705Y515718D01*
X165721Y515704D01*
X165732Y515688D01*
X165840Y515599D01*
X165944Y515507D01*
X165962Y515498D01*
X165977Y515485D01*
X166103Y515426D01*
X166227Y515363D01*
X166247Y515358D01*
X166265Y515350D01*
X166401Y515324D01*
X166537Y515293D01*
X166558Y515294D01*
X166577Y515290D01*
X166716Y515299D01*
X166855Y515303D01*
X166875Y515308D01*
X166895Y515310D01*
X167027Y515352D01*
X167161Y515391D01*
X167178Y515401D01*
X167197Y515408D01*
X167315Y515482D01*
X167435Y515553D01*
X167456Y515571D01*
X167466Y515578D01*
X167480Y515593D01*
X167555Y515659D01*
X182985Y531088D01*
X182988Y531093D01*
X183003Y531108D01*
X183006Y531110D01*
X183007Y531111D01*
X183966Y532070D01*
X184735Y532839D01*
X185776Y533270D01*
X185777Y533270D01*
X186790Y533689D01*
X187920Y533689D01*
X187921Y533689D01*
X189255Y533689D01*
X189265Y533688D01*
X807996Y533394D01*
X808026Y533398D01*
X808056Y533396D01*
X808183Y533418D01*
X808312Y533434D01*
X808340Y533445D01*
X808369Y533450D01*
X808487Y533504D01*
X808608Y533551D01*
X808632Y533568D01*
X808659Y533581D01*
X808760Y533662D01*
X808865Y533738D01*
X808884Y533761D01*
X808907Y533779D01*
X808985Y533883D01*
X809068Y533983D01*
X809081Y534010D01*
X809099Y534033D01*
X809170Y534178D01*
X809448Y534850D01*
X812949Y538352D01*
X815305Y539327D01*
X815426Y539396D01*
X815548Y539461D01*
X815563Y539475D01*
X815581Y539485D01*
X815681Y539582D01*
X815784Y539675D01*
X815795Y539692D01*
X815809Y539706D01*
X815882Y539824D01*
X815958Y539941D01*
X815965Y539960D01*
X815976Y539977D01*
X816016Y540110D01*
X816062Y540242D01*
X816063Y540262D01*
X816069Y540281D01*
X816076Y540420D01*
X816087Y540559D01*
X816083Y540579D01*
X816084Y540599D01*
X816056Y540735D01*
X816032Y540872D01*
X816024Y540891D01*
X816020Y540910D01*
X815959Y541035D01*
X815902Y541162D01*
X815889Y541178D01*
X815880Y541196D01*
X815790Y541302D01*
X815703Y541410D01*
X815687Y541423D01*
X815674Y541438D01*
X815560Y541518D01*
X815449Y541602D01*
X815424Y541614D01*
X815414Y541621D01*
X815395Y541628D01*
X815305Y541673D01*
X812950Y542648D01*
X809448Y546150D01*
X807553Y550724D01*
X807553Y555676D01*
X809448Y560250D01*
X812949Y563752D01*
X815305Y564727D01*
X815426Y564796D01*
X815548Y564861D01*
X815563Y564875D01*
X815581Y564885D01*
X815681Y564982D01*
X815784Y565075D01*
X815795Y565092D01*
X815809Y565106D01*
X815882Y565224D01*
X815958Y565341D01*
X815965Y565360D01*
X815976Y565377D01*
X816016Y565510D01*
X816062Y565642D01*
X816063Y565662D01*
X816069Y565681D01*
X816076Y565820D01*
X816087Y565959D01*
X816083Y565979D01*
X816084Y565999D01*
X816056Y566135D01*
X816032Y566272D01*
X816024Y566291D01*
X816020Y566310D01*
X815959Y566435D01*
X815902Y566562D01*
X815889Y566578D01*
X815880Y566596D01*
X815790Y566702D01*
X815703Y566810D01*
X815687Y566823D01*
X815674Y566838D01*
X815560Y566918D01*
X815449Y567002D01*
X815424Y567014D01*
X815414Y567021D01*
X815395Y567028D01*
X815305Y567073D01*
X812950Y568048D01*
X809448Y571550D01*
X807553Y576124D01*
X807553Y581076D01*
X809448Y585650D01*
X812950Y589152D01*
X817524Y591047D01*
X822476Y591047D01*
X827050Y589152D01*
X830552Y585650D01*
X832447Y581076D01*
X832447Y576124D01*
X830552Y571550D01*
X827050Y568048D01*
X824695Y567073D01*
X824575Y567004D01*
X824452Y566939D01*
X824437Y566925D01*
X824419Y566915D01*
X824319Y566818D01*
X824216Y566725D01*
X824205Y566708D01*
X824191Y566694D01*
X824118Y566575D01*
X824042Y566459D01*
X824035Y566440D01*
X824024Y566423D01*
X823983Y566290D01*
X823938Y566158D01*
X823937Y566138D01*
X823931Y566119D01*
X823924Y565980D01*
X823913Y565841D01*
X823917Y565821D01*
X823916Y565801D01*
X823944Y565665D01*
X823968Y565528D01*
X823976Y565509D01*
X823980Y565490D01*
X824041Y565364D01*
X824098Y565238D01*
X824111Y565222D01*
X824120Y565204D01*
X824210Y565098D01*
X824297Y564990D01*
X824313Y564977D01*
X824326Y564962D01*
X824440Y564882D01*
X824551Y564798D01*
X824576Y564786D01*
X824586Y564779D01*
X824605Y564772D01*
X824695Y564727D01*
X827051Y563752D01*
X830552Y560250D01*
X832447Y555676D01*
X832447Y550724D01*
X830552Y546150D01*
X827050Y542648D01*
X824695Y541673D01*
X824575Y541604D01*
X824452Y541539D01*
X824437Y541525D01*
X824419Y541515D01*
X824319Y541418D01*
X824216Y541325D01*
X824205Y541308D01*
X824191Y541294D01*
X824118Y541175D01*
X824042Y541059D01*
X824035Y541040D01*
X824024Y541023D01*
X823983Y540890D01*
X823938Y540758D01*
X823937Y540738D01*
X823931Y540719D01*
X823924Y540580D01*
X823913Y540441D01*
X823917Y540421D01*
X823916Y540401D01*
X823944Y540265D01*
X823968Y540128D01*
X823976Y540109D01*
X823980Y540090D01*
X824041Y539964D01*
X824098Y539838D01*
X824111Y539822D01*
X824120Y539804D01*
X824210Y539698D01*
X824297Y539590D01*
X824313Y539577D01*
X824326Y539562D01*
X824440Y539482D01*
X824551Y539398D01*
X824576Y539386D01*
X824586Y539379D01*
X824605Y539372D01*
X824695Y539327D01*
X827051Y538352D01*
X830552Y534850D01*
X832447Y530276D01*
X832447Y525324D01*
X830552Y520750D01*
X827050Y517248D01*
X824025Y515995D01*
X823999Y515980D01*
X823970Y515971D01*
X823861Y515901D01*
X823748Y515837D01*
X823727Y515816D01*
X823702Y515800D01*
X823613Y515706D01*
X823520Y515616D01*
X823504Y515590D01*
X823484Y515569D01*
X823421Y515455D01*
X823354Y515345D01*
X823345Y515316D01*
X823331Y515290D01*
X823298Y515164D01*
X823260Y515041D01*
X823259Y515011D01*
X823251Y514982D01*
X823251Y514852D01*
X823245Y514723D01*
X823251Y514694D01*
X823251Y514664D01*
X823283Y514539D01*
X823309Y514412D01*
X823322Y514385D01*
X823330Y514356D01*
X823392Y514243D01*
X823449Y514126D01*
X823468Y514103D01*
X823483Y514077D01*
X823571Y513983D01*
X823655Y513884D01*
X823680Y513867D01*
X823700Y513845D01*
X823809Y513776D01*
X823915Y513701D01*
X823943Y513690D01*
X823969Y513674D01*
X824118Y513615D01*
X824583Y513464D01*
X826257Y512611D01*
X827778Y511506D01*
X829106Y510178D01*
X830211Y508657D01*
X831064Y506983D01*
X831645Y505196D01*
X831685Y504939D01*
X821270Y504939D01*
X821152Y504924D01*
X821033Y504917D01*
X820995Y504904D01*
X820955Y504899D01*
X820844Y504856D01*
X820731Y504819D01*
X820697Y504797D01*
X820659Y504782D01*
X820563Y504712D01*
X820462Y504649D01*
X820434Y504619D01*
X820402Y504595D01*
X820326Y504504D01*
X820244Y504417D01*
X820225Y504382D01*
X820199Y504351D01*
X820148Y504243D01*
X820091Y504139D01*
X820080Y504099D01*
X820063Y504063D01*
X820041Y503946D01*
X820011Y503831D01*
X820007Y503770D01*
X820003Y503750D01*
X820005Y503730D01*
X820001Y503670D01*
X820001Y501130D01*
X820016Y501012D01*
X820023Y500893D01*
X820036Y500855D01*
X820041Y500814D01*
X820085Y500704D01*
X820121Y500591D01*
X820143Y500556D01*
X820158Y500519D01*
X820228Y500423D01*
X820291Y500322D01*
X820321Y500294D01*
X820345Y500261D01*
X820436Y500186D01*
X820523Y500104D01*
X820558Y500084D01*
X820590Y500059D01*
X820697Y500008D01*
X820802Y499950D01*
X820841Y499940D01*
X820877Y499923D01*
X820994Y499901D01*
X821109Y499871D01*
X821170Y499867D01*
X821190Y499863D01*
X821210Y499865D01*
X821270Y499861D01*
X831685Y499861D01*
X831645Y499604D01*
X831064Y497817D01*
X830211Y496143D01*
X829106Y494622D01*
X827778Y493294D01*
X826257Y492189D01*
X824583Y491336D01*
X824118Y491185D01*
X824091Y491172D01*
X824062Y491165D01*
X823948Y491105D01*
X823830Y491050D01*
X823807Y491031D01*
X823781Y491017D01*
X823685Y490930D01*
X823585Y490847D01*
X823568Y490823D01*
X823546Y490803D01*
X823474Y490694D01*
X823398Y490590D01*
X823387Y490562D01*
X823371Y490537D01*
X823329Y490414D01*
X823281Y490294D01*
X823277Y490264D01*
X823268Y490236D01*
X823257Y490107D01*
X823241Y489979D01*
X823245Y489949D01*
X823242Y489919D01*
X823265Y489791D01*
X823281Y489663D01*
X823292Y489635D01*
X823297Y489606D01*
X823350Y489488D01*
X823398Y489367D01*
X823415Y489343D01*
X823427Y489316D01*
X823508Y489215D01*
X823584Y489110D01*
X823607Y489091D01*
X823626Y489067D01*
X823730Y488989D01*
X823829Y488907D01*
X823856Y488894D01*
X823880Y488876D01*
X824025Y488805D01*
X827050Y487552D01*
X830552Y484050D01*
X832447Y479476D01*
X832447Y474524D01*
X830552Y469950D01*
X827050Y466448D01*
X824695Y465473D01*
X824575Y465404D01*
X824452Y465339D01*
X824437Y465325D01*
X824419Y465315D01*
X824319Y465218D01*
X824216Y465125D01*
X824205Y465108D01*
X824191Y465094D01*
X824118Y464975D01*
X824042Y464859D01*
X824035Y464840D01*
X824024Y464823D01*
X823983Y464690D01*
X823938Y464558D01*
X823937Y464538D01*
X823931Y464519D01*
X823924Y464380D01*
X823913Y464241D01*
X823917Y464221D01*
X823916Y464201D01*
X823944Y464065D01*
X823968Y463928D01*
X823976Y463909D01*
X823980Y463890D01*
X824041Y463764D01*
X824098Y463638D01*
X824111Y463622D01*
X824120Y463604D01*
X824210Y463498D01*
X824297Y463390D01*
X824313Y463377D01*
X824326Y463362D01*
X824440Y463282D01*
X824551Y463198D01*
X824576Y463186D01*
X824586Y463179D01*
X824605Y463172D01*
X824695Y463127D01*
X827051Y462152D01*
X830552Y458650D01*
X832447Y454076D01*
X832447Y449124D01*
X830552Y444550D01*
X827050Y441048D01*
X824695Y440073D01*
X824575Y440004D01*
X824452Y439939D01*
X824437Y439925D01*
X824419Y439915D01*
X824319Y439818D01*
X824216Y439725D01*
X824205Y439708D01*
X824191Y439694D01*
X824118Y439575D01*
X824042Y439459D01*
X824035Y439440D01*
X824024Y439423D01*
X823983Y439290D01*
X823938Y439158D01*
X823937Y439138D01*
X823931Y439119D01*
X823924Y438980D01*
X823913Y438841D01*
X823917Y438821D01*
X823916Y438801D01*
X823944Y438665D01*
X823968Y438528D01*
X823976Y438509D01*
X823980Y438490D01*
X824041Y438364D01*
X824098Y438238D01*
X824111Y438222D01*
X824120Y438204D01*
X824210Y438098D01*
X824297Y437990D01*
X824313Y437977D01*
X824326Y437962D01*
X824440Y437882D01*
X824551Y437798D01*
X824576Y437786D01*
X824586Y437779D01*
X824605Y437772D01*
X824695Y437727D01*
X827051Y436752D01*
X830552Y433250D01*
X832447Y428676D01*
X832447Y423724D01*
X830552Y419150D01*
X827050Y415648D01*
X824695Y414673D01*
X824575Y414604D01*
X824452Y414539D01*
X824437Y414525D01*
X824419Y414515D01*
X824319Y414418D01*
X824216Y414325D01*
X824205Y414308D01*
X824191Y414294D01*
X824118Y414176D01*
X824042Y414059D01*
X824035Y414040D01*
X824024Y414023D01*
X823984Y413890D01*
X823938Y413758D01*
X823937Y413738D01*
X823931Y413719D01*
X823924Y413580D01*
X823913Y413441D01*
X823917Y413421D01*
X823916Y413401D01*
X823944Y413265D01*
X823968Y413128D01*
X823976Y413109D01*
X823980Y413090D01*
X824041Y412965D01*
X824098Y412838D01*
X824111Y412822D01*
X824120Y412804D01*
X824210Y412698D01*
X824297Y412590D01*
X824313Y412577D01*
X824326Y412562D01*
X824440Y412482D01*
X824551Y412398D01*
X824576Y412386D01*
X824586Y412379D01*
X824605Y412372D01*
X824695Y412327D01*
X827050Y411352D01*
X830552Y407850D01*
X832447Y403276D01*
X832447Y398324D01*
X830552Y393750D01*
X827050Y390248D01*
X824695Y389273D01*
X824575Y389204D01*
X824452Y389139D01*
X824437Y389125D01*
X824419Y389115D01*
X824319Y389018D01*
X824216Y388925D01*
X824205Y388908D01*
X824191Y388894D01*
X824118Y388775D01*
X824042Y388659D01*
X824035Y388640D01*
X824024Y388623D01*
X823984Y388490D01*
X823938Y388358D01*
X823937Y388338D01*
X823931Y388319D01*
X823924Y388180D01*
X823913Y388041D01*
X823917Y388021D01*
X823916Y388001D01*
X823944Y387865D01*
X823968Y387728D01*
X823976Y387709D01*
X823980Y387690D01*
X824041Y387564D01*
X824098Y387438D01*
X824111Y387422D01*
X824120Y387404D01*
X824210Y387298D01*
X824297Y387190D01*
X824313Y387177D01*
X824326Y387162D01*
X824440Y387082D01*
X824551Y386998D01*
X824576Y386986D01*
X824586Y386979D01*
X824605Y386972D01*
X824695Y386927D01*
X827050Y385952D01*
X830552Y382450D01*
X832447Y377876D01*
X832447Y372924D01*
X830552Y368350D01*
X827050Y364848D01*
X824695Y363873D01*
X824575Y363804D01*
X824452Y363739D01*
X824437Y363725D01*
X824419Y363715D01*
X824319Y363618D01*
X824216Y363525D01*
X824205Y363508D01*
X824191Y363494D01*
X824118Y363375D01*
X824042Y363259D01*
X824035Y363240D01*
X824024Y363223D01*
X823984Y363090D01*
X823938Y362958D01*
X823937Y362938D01*
X823931Y362919D01*
X823924Y362780D01*
X823913Y362641D01*
X823917Y362621D01*
X823916Y362601D01*
X823944Y362465D01*
X823968Y362328D01*
X823976Y362309D01*
X823980Y362290D01*
X824041Y362164D01*
X824098Y362038D01*
X824111Y362022D01*
X824120Y362004D01*
X824210Y361898D01*
X824297Y361790D01*
X824313Y361777D01*
X824326Y361762D01*
X824440Y361682D01*
X824551Y361598D01*
X824576Y361586D01*
X824586Y361579D01*
X824605Y361572D01*
X824695Y361527D01*
X827050Y360552D01*
X830552Y357050D01*
X831150Y355606D01*
X831165Y355581D01*
X831174Y355553D01*
X831243Y355443D01*
X831308Y355330D01*
X831328Y355309D01*
X831344Y355284D01*
X831438Y355195D01*
X831529Y355102D01*
X831554Y355086D01*
X831576Y355066D01*
X831689Y355003D01*
X831800Y354935D01*
X831828Y354927D01*
X831854Y354912D01*
X831980Y354880D01*
X832104Y354842D01*
X832133Y354840D01*
X832162Y354833D01*
X832323Y354823D01*
X837830Y354823D01*
X837928Y354835D01*
G37*
G36*
X347468Y45093D02*
X347468Y45093D01*
X347567Y45096D01*
X347625Y45113D01*
X347685Y45121D01*
X347777Y45157D01*
X347872Y45185D01*
X347925Y45215D01*
X347981Y45238D01*
X348061Y45296D01*
X348146Y45346D01*
X348222Y45412D01*
X348238Y45424D01*
X348246Y45434D01*
X348267Y45452D01*
X354548Y51733D01*
X354608Y51811D01*
X354676Y51883D01*
X354705Y51936D01*
X354742Y51984D01*
X354782Y52075D01*
X354830Y52162D01*
X354845Y52220D01*
X354869Y52276D01*
X354884Y52374D01*
X354909Y52470D01*
X354915Y52570D01*
X354919Y52590D01*
X354917Y52602D01*
X354919Y52630D01*
X354919Y61011D01*
X355693Y62878D01*
X367122Y74307D01*
X368989Y75081D01*
X617370Y75081D01*
X617468Y75093D01*
X617567Y75096D01*
X617625Y75113D01*
X617685Y75121D01*
X617777Y75157D01*
X617872Y75185D01*
X617925Y75215D01*
X617981Y75238D01*
X618061Y75296D01*
X618146Y75346D01*
X618222Y75412D01*
X618238Y75424D01*
X618246Y75434D01*
X618267Y75452D01*
X622148Y79333D01*
X622208Y79411D01*
X622276Y79483D01*
X622305Y79536D01*
X622342Y79584D01*
X622382Y79675D01*
X622430Y79762D01*
X622445Y79820D01*
X622469Y79876D01*
X622484Y79974D01*
X622509Y80070D01*
X622515Y80170D01*
X622519Y80190D01*
X622517Y80202D01*
X622519Y80230D01*
X622519Y90184D01*
X622516Y90213D01*
X622518Y90243D01*
X622496Y90371D01*
X622479Y90500D01*
X622469Y90527D01*
X622464Y90556D01*
X622410Y90675D01*
X622362Y90795D01*
X622345Y90819D01*
X622333Y90846D01*
X622252Y90948D01*
X622176Y91053D01*
X622153Y91072D01*
X622134Y91095D01*
X622031Y91173D01*
X621931Y91256D01*
X621904Y91268D01*
X621880Y91286D01*
X621736Y91357D01*
X620550Y91848D01*
X617048Y95350D01*
X616073Y97705D01*
X616004Y97825D01*
X615939Y97948D01*
X615925Y97963D01*
X615915Y97981D01*
X615818Y98081D01*
X615725Y98184D01*
X615708Y98195D01*
X615694Y98209D01*
X615575Y98282D01*
X615459Y98358D01*
X615440Y98365D01*
X615423Y98376D01*
X615290Y98417D01*
X615158Y98462D01*
X615138Y98463D01*
X615119Y98469D01*
X614980Y98476D01*
X614841Y98487D01*
X614821Y98483D01*
X614801Y98484D01*
X614665Y98456D01*
X614528Y98432D01*
X614509Y98424D01*
X614490Y98420D01*
X614364Y98359D01*
X614238Y98302D01*
X614222Y98289D01*
X614204Y98280D01*
X614098Y98190D01*
X613990Y98103D01*
X613977Y98087D01*
X613962Y98074D01*
X613882Y97960D01*
X613798Y97849D01*
X613786Y97824D01*
X613779Y97814D01*
X613772Y97795D01*
X613727Y97705D01*
X612752Y95349D01*
X609250Y91848D01*
X604676Y89953D01*
X599724Y89953D01*
X595150Y91848D01*
X593630Y93367D01*
X593536Y93440D01*
X593447Y93519D01*
X593411Y93537D01*
X593379Y93562D01*
X593270Y93610D01*
X593164Y93664D01*
X593124Y93672D01*
X593087Y93689D01*
X592969Y93707D01*
X592854Y93733D01*
X592813Y93732D01*
X592773Y93738D01*
X592655Y93727D01*
X592536Y93724D01*
X592497Y93712D01*
X592457Y93709D01*
X592344Y93668D01*
X592230Y93635D01*
X592195Y93615D01*
X592157Y93601D01*
X592059Y93534D01*
X591956Y93474D01*
X591911Y93434D01*
X591894Y93422D01*
X591881Y93407D01*
X591835Y93367D01*
X583849Y85381D01*
X569751Y85381D01*
X562832Y92300D01*
X561405Y93727D01*
X561311Y93800D01*
X561222Y93878D01*
X561186Y93897D01*
X561154Y93921D01*
X561045Y93969D01*
X560939Y94023D01*
X560899Y94032D01*
X560862Y94048D01*
X560745Y94066D01*
X560629Y94093D01*
X560588Y94091D01*
X560548Y94098D01*
X560429Y94086D01*
X560311Y94083D01*
X560272Y94072D01*
X560232Y94068D01*
X560119Y94028D01*
X560005Y93994D01*
X559970Y93974D01*
X559932Y93960D01*
X559834Y93893D01*
X559731Y93833D01*
X559686Y93793D01*
X559669Y93782D01*
X559656Y93766D01*
X559610Y93726D01*
X559178Y93294D01*
X557657Y92189D01*
X555983Y91336D01*
X554196Y90755D01*
X553939Y90715D01*
X553939Y101130D01*
X553924Y101248D01*
X553917Y101367D01*
X553904Y101405D01*
X553899Y101445D01*
X553856Y101556D01*
X553819Y101669D01*
X553797Y101703D01*
X553782Y101741D01*
X553712Y101837D01*
X553649Y101938D01*
X553619Y101966D01*
X553595Y101998D01*
X553504Y102074D01*
X553417Y102156D01*
X553382Y102175D01*
X553351Y102201D01*
X553243Y102252D01*
X553139Y102309D01*
X553099Y102320D01*
X553063Y102337D01*
X552946Y102359D01*
X552831Y102389D01*
X552770Y102393D01*
X552750Y102397D01*
X552730Y102395D01*
X552670Y102399D01*
X551399Y102399D01*
X551399Y102401D01*
X552670Y102401D01*
X552788Y102416D01*
X552907Y102423D01*
X552945Y102436D01*
X552985Y102441D01*
X553096Y102485D01*
X553209Y102521D01*
X553244Y102543D01*
X553281Y102558D01*
X553377Y102628D01*
X553478Y102691D01*
X553506Y102721D01*
X553539Y102745D01*
X553614Y102836D01*
X553696Y102923D01*
X553716Y102958D01*
X553741Y102990D01*
X553792Y103097D01*
X553850Y103202D01*
X553860Y103241D01*
X553877Y103277D01*
X553899Y103394D01*
X553929Y103509D01*
X553933Y103570D01*
X553937Y103590D01*
X553935Y103610D01*
X553939Y103670D01*
X553939Y114085D01*
X554196Y114045D01*
X555983Y113464D01*
X557657Y112611D01*
X557766Y112532D01*
X557801Y112513D01*
X557831Y112487D01*
X557940Y112436D01*
X558045Y112379D01*
X558083Y112369D01*
X558119Y112352D01*
X558236Y112329D01*
X558353Y112300D01*
X558393Y112300D01*
X558432Y112292D01*
X558551Y112300D01*
X558671Y112300D01*
X558709Y112309D01*
X558749Y112312D01*
X558863Y112349D01*
X558979Y112378D01*
X559014Y112398D01*
X559051Y112410D01*
X559153Y112474D01*
X559257Y112532D01*
X559286Y112559D01*
X559320Y112580D01*
X559402Y112667D01*
X559489Y112749D01*
X559511Y112783D01*
X559538Y112812D01*
X559596Y112917D01*
X559660Y113017D01*
X559672Y113055D01*
X559692Y113090D01*
X559721Y113206D01*
X559759Y113320D01*
X559761Y113360D01*
X559771Y113398D01*
X559781Y113559D01*
X559781Y137826D01*
X559769Y137924D01*
X559766Y138023D01*
X559749Y138082D01*
X559741Y138142D01*
X559705Y138234D01*
X559677Y138329D01*
X559647Y138381D01*
X559624Y138437D01*
X559566Y138517D01*
X559516Y138603D01*
X559450Y138678D01*
X559438Y138695D01*
X559428Y138703D01*
X559410Y138724D01*
X555427Y142706D01*
X555427Y361894D01*
X588106Y394573D01*
X806357Y394573D01*
X806441Y394583D01*
X806526Y394584D01*
X806598Y394603D01*
X806673Y394613D01*
X806751Y394644D01*
X806833Y394665D01*
X806899Y394702D01*
X806968Y394730D01*
X807037Y394779D01*
X807111Y394821D01*
X807218Y394911D01*
X807226Y394916D01*
X807228Y394919D01*
X807234Y394924D01*
X807843Y395507D01*
X807871Y395541D01*
X807904Y395569D01*
X807971Y395664D01*
X808044Y395753D01*
X808062Y395793D01*
X808088Y395829D01*
X808129Y395937D01*
X808177Y396042D01*
X808185Y396086D01*
X808200Y396127D01*
X808213Y396242D01*
X808234Y396355D01*
X808231Y396399D01*
X808236Y396443D01*
X808219Y396557D01*
X808211Y396672D01*
X808197Y396714D01*
X808191Y396758D01*
X808139Y396910D01*
X807553Y398324D01*
X807553Y403276D01*
X809448Y407850D01*
X812950Y411352D01*
X815305Y412327D01*
X815425Y412396D01*
X815548Y412461D01*
X815563Y412475D01*
X815581Y412485D01*
X815681Y412582D01*
X815784Y412675D01*
X815795Y412692D01*
X815809Y412706D01*
X815882Y412825D01*
X815958Y412941D01*
X815965Y412960D01*
X815976Y412977D01*
X816016Y413110D01*
X816062Y413242D01*
X816063Y413262D01*
X816069Y413281D01*
X816076Y413420D01*
X816087Y413559D01*
X816083Y413579D01*
X816084Y413599D01*
X816056Y413735D01*
X816032Y413872D01*
X816024Y413891D01*
X816020Y413910D01*
X815959Y414036D01*
X815902Y414162D01*
X815889Y414178D01*
X815880Y414196D01*
X815790Y414302D01*
X815703Y414410D01*
X815687Y414423D01*
X815674Y414438D01*
X815560Y414518D01*
X815449Y414602D01*
X815424Y414614D01*
X815414Y414621D01*
X815395Y414628D01*
X815305Y414673D01*
X812950Y415648D01*
X809448Y419149D01*
X808743Y420853D01*
X808728Y420878D01*
X808719Y420906D01*
X808650Y421016D01*
X808585Y421129D01*
X808565Y421150D01*
X808549Y421175D01*
X808454Y421264D01*
X808364Y421358D01*
X808339Y421373D01*
X808318Y421393D01*
X808204Y421456D01*
X808093Y421524D01*
X808065Y421532D01*
X808039Y421546D01*
X807913Y421579D01*
X807789Y421618D01*
X807760Y421619D01*
X807732Y421626D01*
X807571Y421637D01*
X421400Y421924D01*
X420005Y421925D01*
X420004Y421925D01*
X348917Y421925D01*
X348819Y421912D01*
X348720Y421909D01*
X348662Y421892D01*
X348602Y421885D01*
X348510Y421848D01*
X348415Y421821D01*
X348362Y421790D01*
X348306Y421768D01*
X348226Y421710D01*
X348141Y421659D01*
X348065Y421593D01*
X348049Y421581D01*
X348041Y421572D01*
X348020Y421553D01*
X344944Y418478D01*
X344884Y418399D01*
X344816Y418327D01*
X344787Y418274D01*
X344750Y418226D01*
X344710Y418135D01*
X344662Y418049D01*
X344647Y417990D01*
X344623Y417935D01*
X344608Y417837D01*
X344583Y417741D01*
X344577Y417641D01*
X344573Y417620D01*
X344575Y417608D01*
X344573Y417580D01*
X344573Y68106D01*
X331894Y55427D01*
X298106Y55427D01*
X287627Y65906D01*
X287627Y71874D01*
X287624Y71903D01*
X287626Y71932D01*
X287604Y72060D01*
X287587Y72189D01*
X287577Y72217D01*
X287572Y72246D01*
X287518Y72364D01*
X287470Y72485D01*
X287453Y72509D01*
X287441Y72536D01*
X287360Y72637D01*
X287284Y72742D01*
X287261Y72761D01*
X287242Y72784D01*
X287139Y72862D01*
X287039Y72945D01*
X287012Y72958D01*
X286988Y72975D01*
X286844Y73046D01*
X285150Y73748D01*
X281648Y77250D01*
X280673Y79605D01*
X280604Y79725D01*
X280539Y79848D01*
X280525Y79863D01*
X280515Y79881D01*
X280418Y79981D01*
X280325Y80084D01*
X280308Y80095D01*
X280294Y80109D01*
X280175Y80182D01*
X280059Y80258D01*
X280040Y80265D01*
X280023Y80276D01*
X279890Y80316D01*
X279758Y80362D01*
X279738Y80363D01*
X279719Y80369D01*
X279580Y80376D01*
X279441Y80387D01*
X279421Y80383D01*
X279401Y80384D01*
X279265Y80356D01*
X279128Y80332D01*
X279109Y80324D01*
X279090Y80320D01*
X278964Y80259D01*
X278838Y80202D01*
X278822Y80189D01*
X278804Y80180D01*
X278698Y80090D01*
X278590Y80003D01*
X278577Y79987D01*
X278562Y79974D01*
X278482Y79860D01*
X278398Y79749D01*
X278386Y79724D01*
X278379Y79714D01*
X278372Y79695D01*
X278327Y79605D01*
X277352Y77250D01*
X273850Y73748D01*
X269276Y71853D01*
X264324Y71853D01*
X259750Y73748D01*
X256248Y77250D01*
X255273Y79605D01*
X255204Y79725D01*
X255139Y79848D01*
X255125Y79863D01*
X255115Y79881D01*
X255018Y79981D01*
X254925Y80084D01*
X254908Y80095D01*
X254894Y80109D01*
X254775Y80182D01*
X254659Y80258D01*
X254640Y80265D01*
X254623Y80276D01*
X254490Y80316D01*
X254358Y80362D01*
X254338Y80363D01*
X254319Y80369D01*
X254180Y80376D01*
X254041Y80387D01*
X254021Y80383D01*
X254001Y80384D01*
X253865Y80356D01*
X253728Y80332D01*
X253709Y80324D01*
X253690Y80320D01*
X253564Y80259D01*
X253438Y80202D01*
X253422Y80189D01*
X253404Y80180D01*
X253298Y80090D01*
X253190Y80003D01*
X253177Y79987D01*
X253162Y79974D01*
X253082Y79860D01*
X252998Y79749D01*
X252986Y79724D01*
X252979Y79714D01*
X252972Y79695D01*
X252927Y79605D01*
X251952Y77250D01*
X248450Y73748D01*
X243876Y71853D01*
X238924Y71853D01*
X234350Y73748D01*
X230848Y77250D01*
X229873Y79605D01*
X229804Y79725D01*
X229739Y79848D01*
X229725Y79863D01*
X229715Y79881D01*
X229618Y79981D01*
X229525Y80084D01*
X229508Y80095D01*
X229494Y80109D01*
X229375Y80182D01*
X229259Y80258D01*
X229240Y80265D01*
X229223Y80276D01*
X229090Y80316D01*
X228958Y80362D01*
X228938Y80363D01*
X228919Y80369D01*
X228780Y80376D01*
X228641Y80387D01*
X228621Y80383D01*
X228601Y80384D01*
X228465Y80356D01*
X228328Y80332D01*
X228309Y80324D01*
X228290Y80320D01*
X228164Y80259D01*
X228038Y80202D01*
X228022Y80189D01*
X228004Y80180D01*
X227898Y80090D01*
X227790Y80003D01*
X227777Y79987D01*
X227762Y79974D01*
X227682Y79860D01*
X227598Y79749D01*
X227586Y79724D01*
X227579Y79714D01*
X227572Y79695D01*
X227527Y79605D01*
X226552Y77250D01*
X223050Y73748D01*
X218476Y71853D01*
X213524Y71853D01*
X208950Y73748D01*
X205448Y77250D01*
X204195Y80275D01*
X204180Y80301D01*
X204171Y80330D01*
X204101Y80439D01*
X204037Y80552D01*
X204016Y80573D01*
X204000Y80598D01*
X203906Y80687D01*
X203816Y80780D01*
X203790Y80796D01*
X203769Y80816D01*
X203655Y80879D01*
X203545Y80946D01*
X203516Y80955D01*
X203490Y80969D01*
X203365Y81002D01*
X203241Y81040D01*
X203211Y81041D01*
X203182Y81049D01*
X203052Y81049D01*
X202923Y81055D01*
X202894Y81049D01*
X202864Y81049D01*
X202739Y81017D01*
X202612Y80991D01*
X202585Y80978D01*
X202556Y80970D01*
X202443Y80908D01*
X202326Y80851D01*
X202303Y80832D01*
X202277Y80817D01*
X202183Y80729D01*
X202084Y80645D01*
X202067Y80620D01*
X202045Y80600D01*
X201976Y80491D01*
X201901Y80385D01*
X201890Y80357D01*
X201874Y80331D01*
X201815Y80182D01*
X201664Y79717D01*
X200811Y78043D01*
X199706Y76522D01*
X198378Y75194D01*
X196857Y74089D01*
X195183Y73236D01*
X193396Y72655D01*
X193139Y72615D01*
X193139Y83030D01*
X193124Y83148D01*
X193117Y83267D01*
X193104Y83305D01*
X193099Y83345D01*
X193056Y83456D01*
X193019Y83569D01*
X192997Y83603D01*
X192982Y83641D01*
X192912Y83737D01*
X192849Y83838D01*
X192819Y83866D01*
X192795Y83898D01*
X192704Y83974D01*
X192617Y84056D01*
X192582Y84075D01*
X192551Y84101D01*
X192443Y84152D01*
X192339Y84209D01*
X192299Y84220D01*
X192263Y84237D01*
X192146Y84259D01*
X192031Y84289D01*
X191970Y84293D01*
X191950Y84297D01*
X191930Y84295D01*
X191870Y84299D01*
X189330Y84299D01*
X189212Y84284D01*
X189093Y84277D01*
X189055Y84264D01*
X189014Y84259D01*
X188904Y84215D01*
X188791Y84179D01*
X188756Y84157D01*
X188719Y84142D01*
X188623Y84072D01*
X188522Y84009D01*
X188494Y83979D01*
X188461Y83955D01*
X188386Y83864D01*
X188304Y83777D01*
X188284Y83742D01*
X188259Y83710D01*
X188208Y83603D01*
X188150Y83498D01*
X188140Y83459D01*
X188123Y83423D01*
X188101Y83306D01*
X188071Y83191D01*
X188067Y83130D01*
X188063Y83110D01*
X188065Y83090D01*
X188061Y83030D01*
X188061Y72615D01*
X187804Y72655D01*
X186017Y73236D01*
X184343Y74089D01*
X182822Y75194D01*
X181494Y76522D01*
X180389Y78043D01*
X179536Y79717D01*
X179385Y80182D01*
X179372Y80209D01*
X179365Y80238D01*
X179305Y80352D01*
X179250Y80470D01*
X179231Y80493D01*
X179217Y80519D01*
X179130Y80615D01*
X179047Y80715D01*
X179023Y80732D01*
X179003Y80754D01*
X178894Y80826D01*
X178790Y80902D01*
X178762Y80913D01*
X178737Y80929D01*
X178614Y80971D01*
X178494Y81019D01*
X178464Y81023D01*
X178436Y81032D01*
X178307Y81043D01*
X178179Y81059D01*
X178149Y81055D01*
X178119Y81058D01*
X177991Y81035D01*
X177863Y81019D01*
X177835Y81008D01*
X177806Y81003D01*
X177688Y80950D01*
X177567Y80902D01*
X177543Y80885D01*
X177516Y80873D01*
X177415Y80792D01*
X177310Y80716D01*
X177291Y80693D01*
X177267Y80674D01*
X177189Y80570D01*
X177107Y80471D01*
X177094Y80444D01*
X177076Y80420D01*
X177005Y80275D01*
X175752Y77250D01*
X172250Y73748D01*
X171064Y73257D01*
X171039Y73242D01*
X171011Y73233D01*
X170901Y73164D01*
X170788Y73099D01*
X170767Y73079D01*
X170742Y73063D01*
X170653Y72968D01*
X170560Y72878D01*
X170544Y72853D01*
X170524Y72831D01*
X170461Y72717D01*
X170393Y72607D01*
X170385Y72579D01*
X170370Y72553D01*
X170338Y72427D01*
X170300Y72303D01*
X170298Y72273D01*
X170291Y72245D01*
X170281Y72084D01*
X170281Y57430D01*
X170293Y57332D01*
X170296Y57233D01*
X170313Y57175D01*
X170321Y57115D01*
X170357Y57023D01*
X170385Y56928D01*
X170415Y56875D01*
X170438Y56819D01*
X170496Y56739D01*
X170546Y56654D01*
X170612Y56578D01*
X170624Y56562D01*
X170634Y56554D01*
X170652Y56533D01*
X181733Y45452D01*
X181811Y45392D01*
X181883Y45324D01*
X181936Y45295D01*
X181984Y45258D01*
X182075Y45218D01*
X182162Y45170D01*
X182220Y45155D01*
X182276Y45131D01*
X182374Y45116D01*
X182470Y45091D01*
X182570Y45085D01*
X182590Y45081D01*
X182602Y45083D01*
X182630Y45081D01*
X347370Y45081D01*
X347468Y45093D01*
G37*
G36*
X191988Y84316D02*
X191988Y84316D01*
X192107Y84323D01*
X192145Y84336D01*
X192185Y84341D01*
X192296Y84385D01*
X192409Y84421D01*
X192444Y84443D01*
X192481Y84458D01*
X192577Y84528D01*
X192678Y84591D01*
X192706Y84621D01*
X192739Y84645D01*
X192814Y84736D01*
X192896Y84823D01*
X192916Y84858D01*
X192941Y84890D01*
X192992Y84997D01*
X193050Y85102D01*
X193060Y85141D01*
X193077Y85177D01*
X193099Y85294D01*
X193129Y85409D01*
X193133Y85470D01*
X193137Y85490D01*
X193135Y85510D01*
X193139Y85570D01*
X193139Y95985D01*
X193396Y95945D01*
X195183Y95364D01*
X196857Y94511D01*
X198378Y93406D01*
X199706Y92078D01*
X200811Y90557D01*
X201664Y88883D01*
X201815Y88418D01*
X201828Y88391D01*
X201835Y88362D01*
X201895Y88248D01*
X201950Y88130D01*
X201969Y88107D01*
X201983Y88081D01*
X202070Y87985D01*
X202153Y87885D01*
X202177Y87868D01*
X202197Y87846D01*
X202306Y87774D01*
X202410Y87698D01*
X202438Y87687D01*
X202463Y87671D01*
X202586Y87629D01*
X202706Y87581D01*
X202736Y87577D01*
X202764Y87568D01*
X202893Y87557D01*
X203021Y87541D01*
X203051Y87545D01*
X203081Y87542D01*
X203209Y87565D01*
X203337Y87581D01*
X203365Y87592D01*
X203394Y87597D01*
X203512Y87650D01*
X203633Y87698D01*
X203657Y87715D01*
X203684Y87727D01*
X203785Y87808D01*
X203890Y87884D01*
X203909Y87907D01*
X203933Y87926D01*
X204011Y88030D01*
X204093Y88129D01*
X204106Y88156D01*
X204124Y88180D01*
X204195Y88325D01*
X205448Y91350D01*
X208950Y94852D01*
X213524Y96747D01*
X218476Y96747D01*
X223050Y94852D01*
X226552Y91350D01*
X227527Y88995D01*
X227537Y88978D01*
X227541Y88965D01*
X227574Y88913D01*
X227596Y88875D01*
X227661Y88752D01*
X227675Y88737D01*
X227685Y88719D01*
X227782Y88619D01*
X227875Y88516D01*
X227892Y88505D01*
X227906Y88491D01*
X228024Y88418D01*
X228141Y88342D01*
X228160Y88335D01*
X228177Y88324D01*
X228310Y88284D01*
X228442Y88238D01*
X228462Y88237D01*
X228481Y88231D01*
X228620Y88224D01*
X228759Y88213D01*
X228779Y88217D01*
X228799Y88216D01*
X228935Y88244D01*
X229072Y88268D01*
X229091Y88276D01*
X229110Y88280D01*
X229235Y88341D01*
X229362Y88398D01*
X229378Y88411D01*
X229396Y88420D01*
X229502Y88510D01*
X229610Y88597D01*
X229623Y88613D01*
X229638Y88626D01*
X229718Y88740D01*
X229802Y88851D01*
X229814Y88876D01*
X229821Y88886D01*
X229828Y88905D01*
X229873Y88995D01*
X230848Y91350D01*
X234350Y94852D01*
X238924Y96747D01*
X243876Y96747D01*
X248450Y94852D01*
X251952Y91350D01*
X252927Y88995D01*
X252937Y88978D01*
X252941Y88965D01*
X252974Y88913D01*
X252996Y88875D01*
X253061Y88752D01*
X253075Y88737D01*
X253085Y88719D01*
X253182Y88619D01*
X253275Y88516D01*
X253292Y88505D01*
X253306Y88491D01*
X253424Y88418D01*
X253541Y88342D01*
X253560Y88335D01*
X253577Y88324D01*
X253710Y88284D01*
X253842Y88238D01*
X253862Y88237D01*
X253881Y88231D01*
X254020Y88224D01*
X254159Y88213D01*
X254179Y88217D01*
X254199Y88216D01*
X254335Y88244D01*
X254472Y88268D01*
X254491Y88276D01*
X254510Y88280D01*
X254635Y88341D01*
X254762Y88398D01*
X254778Y88411D01*
X254796Y88420D01*
X254902Y88510D01*
X255010Y88597D01*
X255023Y88613D01*
X255038Y88626D01*
X255118Y88740D01*
X255202Y88851D01*
X255214Y88876D01*
X255221Y88886D01*
X255228Y88905D01*
X255273Y88995D01*
X256248Y91350D01*
X259750Y94852D01*
X264324Y96747D01*
X269276Y96747D01*
X273850Y94852D01*
X277352Y91350D01*
X278327Y88995D01*
X278337Y88978D01*
X278341Y88965D01*
X278374Y88913D01*
X278396Y88875D01*
X278461Y88752D01*
X278475Y88737D01*
X278485Y88719D01*
X278582Y88619D01*
X278675Y88516D01*
X278692Y88505D01*
X278706Y88491D01*
X278824Y88418D01*
X278941Y88342D01*
X278960Y88335D01*
X278977Y88324D01*
X279110Y88284D01*
X279242Y88238D01*
X279262Y88237D01*
X279281Y88231D01*
X279420Y88224D01*
X279559Y88213D01*
X279579Y88217D01*
X279599Y88216D01*
X279735Y88244D01*
X279872Y88268D01*
X279891Y88276D01*
X279910Y88280D01*
X280035Y88341D01*
X280162Y88398D01*
X280178Y88411D01*
X280196Y88420D01*
X280302Y88510D01*
X280410Y88597D01*
X280423Y88613D01*
X280438Y88626D01*
X280518Y88740D01*
X280602Y88851D01*
X280614Y88876D01*
X280621Y88886D01*
X280628Y88905D01*
X280673Y88995D01*
X281648Y91350D01*
X285150Y94852D01*
X286844Y95554D01*
X286869Y95568D01*
X286897Y95577D01*
X287007Y95647D01*
X287120Y95711D01*
X287141Y95732D01*
X287166Y95747D01*
X287255Y95842D01*
X287348Y95932D01*
X287364Y95958D01*
X287384Y95979D01*
X287447Y96093D01*
X287515Y96204D01*
X287523Y96232D01*
X287538Y96258D01*
X287570Y96383D01*
X287608Y96507D01*
X287610Y96537D01*
X287617Y96566D01*
X287627Y96726D01*
X287627Y255380D01*
X287615Y255478D01*
X287612Y255577D01*
X287595Y255636D01*
X287587Y255696D01*
X287551Y255788D01*
X287523Y255883D01*
X287493Y255935D01*
X287470Y255991D01*
X287412Y256071D01*
X287362Y256157D01*
X287296Y256232D01*
X287284Y256249D01*
X287274Y256257D01*
X287256Y256278D01*
X268478Y275056D01*
X268399Y275116D01*
X268327Y275184D01*
X268274Y275213D01*
X268226Y275250D01*
X268135Y275290D01*
X268049Y275338D01*
X267990Y275353D01*
X267935Y275377D01*
X267837Y275392D01*
X267741Y275417D01*
X267641Y275423D01*
X267620Y275427D01*
X267608Y275425D01*
X267580Y275427D01*
X248106Y275427D01*
X231427Y292106D01*
X231427Y442174D01*
X231424Y442203D01*
X231426Y442232D01*
X231404Y442360D01*
X231387Y442489D01*
X231377Y442517D01*
X231372Y442546D01*
X231318Y442664D01*
X231270Y442785D01*
X231253Y442809D01*
X231241Y442836D01*
X231160Y442937D01*
X231084Y443042D01*
X231061Y443061D01*
X231042Y443084D01*
X230939Y443162D01*
X230839Y443245D01*
X230812Y443258D01*
X230788Y443275D01*
X230644Y443346D01*
X228950Y444048D01*
X225448Y447550D01*
X224195Y450575D01*
X224180Y450601D01*
X224171Y450630D01*
X224102Y450739D01*
X224037Y450852D01*
X224016Y450873D01*
X224000Y450898D01*
X223906Y450987D01*
X223816Y451080D01*
X223790Y451096D01*
X223769Y451116D01*
X223655Y451179D01*
X223545Y451246D01*
X223516Y451255D01*
X223490Y451269D01*
X223364Y451302D01*
X223241Y451340D01*
X223211Y451341D01*
X223182Y451349D01*
X223052Y451349D01*
X222923Y451355D01*
X222894Y451349D01*
X222864Y451349D01*
X222738Y451317D01*
X222612Y451291D01*
X222585Y451278D01*
X222556Y451270D01*
X222442Y451208D01*
X222326Y451151D01*
X222303Y451132D01*
X222277Y451117D01*
X222182Y451029D01*
X222084Y450945D01*
X222067Y450920D01*
X222045Y450900D01*
X221976Y450791D01*
X221901Y450685D01*
X221890Y450657D01*
X221874Y450631D01*
X221815Y450482D01*
X221664Y450017D01*
X220811Y448343D01*
X219706Y446822D01*
X218378Y445494D01*
X216857Y444389D01*
X215183Y443536D01*
X213396Y442955D01*
X213139Y442915D01*
X213139Y453330D01*
X213124Y453448D01*
X213117Y453567D01*
X213104Y453605D01*
X213099Y453645D01*
X213056Y453756D01*
X213019Y453869D01*
X212997Y453903D01*
X212982Y453941D01*
X212912Y454037D01*
X212849Y454138D01*
X212819Y454166D01*
X212795Y454198D01*
X212704Y454274D01*
X212617Y454356D01*
X212582Y454375D01*
X212551Y454401D01*
X212443Y454452D01*
X212339Y454509D01*
X212299Y454520D01*
X212263Y454537D01*
X212146Y454559D01*
X212031Y454589D01*
X211970Y454593D01*
X211950Y454597D01*
X211930Y454595D01*
X211870Y454599D01*
X209330Y454599D01*
X209212Y454584D01*
X209093Y454577D01*
X209055Y454564D01*
X209014Y454559D01*
X208904Y454515D01*
X208791Y454479D01*
X208756Y454457D01*
X208719Y454442D01*
X208623Y454372D01*
X208522Y454309D01*
X208494Y454279D01*
X208461Y454255D01*
X208386Y454164D01*
X208304Y454077D01*
X208284Y454042D01*
X208259Y454010D01*
X208208Y453903D01*
X208150Y453798D01*
X208140Y453759D01*
X208123Y453723D01*
X208101Y453606D01*
X208071Y453491D01*
X208067Y453430D01*
X208063Y453410D01*
X208065Y453390D01*
X208061Y453330D01*
X208061Y442915D01*
X207804Y442955D01*
X206017Y443536D01*
X204343Y444389D01*
X202822Y445494D01*
X201494Y446822D01*
X200389Y448343D01*
X199536Y450017D01*
X199385Y450482D01*
X199372Y450509D01*
X199365Y450538D01*
X199305Y450652D01*
X199250Y450770D01*
X199231Y450793D01*
X199217Y450819D01*
X199130Y450915D01*
X199047Y451015D01*
X199023Y451032D01*
X199003Y451054D01*
X198894Y451126D01*
X198790Y451202D01*
X198762Y451213D01*
X198737Y451229D01*
X198614Y451271D01*
X198494Y451319D01*
X198464Y451323D01*
X198436Y451332D01*
X198307Y451343D01*
X198179Y451359D01*
X198149Y451355D01*
X198119Y451358D01*
X197991Y451335D01*
X197863Y451319D01*
X197835Y451308D01*
X197806Y451303D01*
X197688Y451250D01*
X197567Y451202D01*
X197543Y451185D01*
X197516Y451173D01*
X197415Y451092D01*
X197310Y451016D01*
X197291Y450993D01*
X197267Y450974D01*
X197189Y450870D01*
X197107Y450771D01*
X197094Y450744D01*
X197076Y450720D01*
X197005Y450575D01*
X195752Y447550D01*
X192250Y444048D01*
X187676Y442153D01*
X182724Y442153D01*
X178150Y444048D01*
X174648Y447550D01*
X173673Y449905D01*
X173604Y450025D01*
X173539Y450148D01*
X173525Y450163D01*
X173515Y450181D01*
X173418Y450281D01*
X173325Y450384D01*
X173308Y450395D01*
X173294Y450409D01*
X173175Y450482D01*
X173059Y450558D01*
X173040Y450565D01*
X173023Y450576D01*
X172890Y450616D01*
X172758Y450662D01*
X172738Y450663D01*
X172719Y450669D01*
X172580Y450676D01*
X172441Y450687D01*
X172421Y450683D01*
X172401Y450684D01*
X172265Y450656D01*
X172128Y450632D01*
X172109Y450624D01*
X172090Y450620D01*
X171964Y450559D01*
X171838Y450502D01*
X171822Y450489D01*
X171804Y450480D01*
X171698Y450390D01*
X171590Y450303D01*
X171577Y450287D01*
X171562Y450274D01*
X171482Y450160D01*
X171398Y450049D01*
X171386Y450024D01*
X171379Y450014D01*
X171372Y449995D01*
X171327Y449905D01*
X170352Y447550D01*
X166851Y444048D01*
X166172Y443767D01*
X166147Y443753D01*
X166119Y443744D01*
X166009Y443674D01*
X165896Y443610D01*
X165875Y443589D01*
X165850Y443573D01*
X165761Y443479D01*
X165668Y443388D01*
X165652Y443363D01*
X165632Y443342D01*
X165569Y443228D01*
X165501Y443117D01*
X165493Y443089D01*
X165478Y443063D01*
X165446Y442938D01*
X165408Y442813D01*
X165406Y442784D01*
X165399Y442755D01*
X165389Y442595D01*
X165389Y98016D01*
X165404Y97898D01*
X165411Y97779D01*
X165424Y97741D01*
X165429Y97700D01*
X165472Y97590D01*
X165509Y97477D01*
X165531Y97442D01*
X165546Y97405D01*
X165615Y97309D01*
X165679Y97208D01*
X165709Y97180D01*
X165732Y97147D01*
X165824Y97071D01*
X165911Y96990D01*
X165946Y96970D01*
X165977Y96945D01*
X166085Y96894D01*
X166189Y96836D01*
X166229Y96826D01*
X166265Y96809D01*
X166382Y96787D01*
X166497Y96757D01*
X166557Y96753D01*
X166577Y96749D01*
X166598Y96751D01*
X166658Y96747D01*
X167676Y96747D01*
X172250Y94852D01*
X175752Y91350D01*
X177005Y88325D01*
X177020Y88299D01*
X177029Y88270D01*
X177099Y88161D01*
X177163Y88048D01*
X177184Y88027D01*
X177200Y88002D01*
X177294Y87913D01*
X177384Y87820D01*
X177410Y87804D01*
X177431Y87784D01*
X177545Y87721D01*
X177655Y87654D01*
X177684Y87645D01*
X177710Y87631D01*
X177835Y87598D01*
X177959Y87560D01*
X177989Y87559D01*
X178018Y87551D01*
X178148Y87551D01*
X178277Y87545D01*
X178306Y87551D01*
X178336Y87551D01*
X178461Y87583D01*
X178588Y87609D01*
X178615Y87622D01*
X178644Y87630D01*
X178757Y87692D01*
X178874Y87749D01*
X178897Y87768D01*
X178923Y87783D01*
X179017Y87871D01*
X179116Y87955D01*
X179133Y87980D01*
X179155Y88000D01*
X179224Y88109D01*
X179299Y88215D01*
X179310Y88243D01*
X179326Y88269D01*
X179385Y88418D01*
X179536Y88883D01*
X180389Y90557D01*
X181494Y92078D01*
X182822Y93406D01*
X184343Y94511D01*
X186017Y95364D01*
X187804Y95945D01*
X188061Y95985D01*
X188061Y85570D01*
X188076Y85452D01*
X188083Y85333D01*
X188096Y85295D01*
X188101Y85255D01*
X188144Y85144D01*
X188181Y85031D01*
X188203Y84997D01*
X188218Y84959D01*
X188288Y84863D01*
X188351Y84762D01*
X188381Y84734D01*
X188404Y84702D01*
X188496Y84626D01*
X188583Y84544D01*
X188618Y84525D01*
X188649Y84499D01*
X188757Y84448D01*
X188861Y84391D01*
X188901Y84380D01*
X188937Y84363D01*
X189054Y84341D01*
X189169Y84311D01*
X189230Y84307D01*
X189250Y84303D01*
X189270Y84305D01*
X189330Y84301D01*
X191870Y84301D01*
X191988Y84316D01*
G37*
G36*
X211988Y454616D02*
X211988Y454616D01*
X212107Y454623D01*
X212145Y454636D01*
X212185Y454641D01*
X212296Y454685D01*
X212409Y454721D01*
X212444Y454743D01*
X212481Y454758D01*
X212577Y454828D01*
X212678Y454891D01*
X212706Y454921D01*
X212739Y454945D01*
X212814Y455036D01*
X212896Y455123D01*
X212916Y455158D01*
X212941Y455190D01*
X212992Y455297D01*
X213050Y455402D01*
X213060Y455441D01*
X213077Y455477D01*
X213099Y455594D01*
X213129Y455709D01*
X213133Y455770D01*
X213137Y455790D01*
X213135Y455810D01*
X213139Y455870D01*
X213139Y466285D01*
X213396Y466245D01*
X215183Y465664D01*
X216857Y464811D01*
X218378Y463706D01*
X219706Y462378D01*
X220811Y460857D01*
X221664Y459183D01*
X221815Y458718D01*
X221828Y458691D01*
X221835Y458662D01*
X221895Y458548D01*
X221950Y458430D01*
X221969Y458407D01*
X221983Y458381D01*
X222070Y458285D01*
X222153Y458185D01*
X222177Y458168D01*
X222197Y458146D01*
X222306Y458074D01*
X222410Y457998D01*
X222438Y457987D01*
X222463Y457971D01*
X222586Y457929D01*
X222706Y457881D01*
X222736Y457877D01*
X222764Y457868D01*
X222893Y457857D01*
X223021Y457841D01*
X223051Y457845D01*
X223081Y457842D01*
X223209Y457865D01*
X223337Y457881D01*
X223365Y457892D01*
X223394Y457897D01*
X223512Y457950D01*
X223633Y457998D01*
X223657Y458015D01*
X223684Y458027D01*
X223785Y458108D01*
X223890Y458184D01*
X223909Y458207D01*
X223933Y458226D01*
X224011Y458330D01*
X224093Y458429D01*
X224106Y458456D01*
X224124Y458480D01*
X224195Y458625D01*
X225448Y461650D01*
X228950Y465152D01*
X233524Y467047D01*
X238476Y467047D01*
X243050Y465152D01*
X246552Y461650D01*
X247527Y459295D01*
X247596Y459175D01*
X247661Y459052D01*
X247675Y459037D01*
X247685Y459019D01*
X247782Y458919D01*
X247875Y458816D01*
X247892Y458805D01*
X247906Y458791D01*
X248024Y458718D01*
X248141Y458642D01*
X248160Y458635D01*
X248177Y458624D01*
X248310Y458584D01*
X248442Y458538D01*
X248462Y458537D01*
X248481Y458531D01*
X248620Y458524D01*
X248759Y458513D01*
X248779Y458517D01*
X248799Y458516D01*
X248935Y458544D01*
X249072Y458568D01*
X249091Y458576D01*
X249110Y458580D01*
X249235Y458641D01*
X249362Y458698D01*
X249378Y458711D01*
X249396Y458720D01*
X249502Y458810D01*
X249610Y458897D01*
X249623Y458913D01*
X249638Y458926D01*
X249718Y459040D01*
X249802Y459151D01*
X249814Y459176D01*
X249821Y459186D01*
X249828Y459205D01*
X249873Y459295D01*
X250848Y461650D01*
X254350Y465152D01*
X256044Y465854D01*
X256069Y465868D01*
X256097Y465877D01*
X256207Y465947D01*
X256320Y466011D01*
X256341Y466032D01*
X256366Y466047D01*
X256455Y466142D01*
X256548Y466232D01*
X256564Y466258D01*
X256584Y466279D01*
X256647Y466393D01*
X256715Y466504D01*
X256723Y466532D01*
X256738Y466558D01*
X256770Y466683D01*
X256808Y466807D01*
X256810Y466837D01*
X256817Y466866D01*
X256827Y467026D01*
X256827Y473294D01*
X259877Y476344D01*
X259878Y476344D01*
X265056Y481522D01*
X268106Y484573D01*
X771894Y484573D01*
X799655Y456811D01*
X799727Y456756D01*
X799792Y456693D01*
X799852Y456659D01*
X799907Y456616D01*
X799990Y456581D01*
X800068Y456536D01*
X800135Y456518D01*
X800198Y456490D01*
X800288Y456476D01*
X800375Y456452D01*
X800497Y456443D01*
X800513Y456440D01*
X800520Y456441D01*
X800535Y456440D01*
X807627Y456343D01*
X807665Y456347D01*
X807703Y456344D01*
X807822Y456365D01*
X807943Y456378D01*
X807979Y456392D01*
X808016Y456398D01*
X808127Y456448D01*
X808240Y456491D01*
X808271Y456513D01*
X808306Y456529D01*
X808401Y456605D01*
X808500Y456674D01*
X808525Y456704D01*
X808555Y456727D01*
X808628Y456824D01*
X808706Y456917D01*
X808723Y456951D01*
X808746Y456982D01*
X808817Y457126D01*
X809448Y458651D01*
X812949Y462152D01*
X815305Y463127D01*
X815426Y463196D01*
X815548Y463261D01*
X815563Y463275D01*
X815581Y463285D01*
X815681Y463382D01*
X815784Y463475D01*
X815795Y463492D01*
X815809Y463506D01*
X815882Y463624D01*
X815958Y463741D01*
X815965Y463760D01*
X815976Y463777D01*
X816016Y463910D01*
X816062Y464042D01*
X816063Y464062D01*
X816069Y464081D01*
X816076Y464220D01*
X816087Y464359D01*
X816083Y464379D01*
X816084Y464399D01*
X816056Y464535D01*
X816032Y464672D01*
X816024Y464691D01*
X816020Y464710D01*
X815959Y464835D01*
X815902Y464962D01*
X815889Y464978D01*
X815880Y464996D01*
X815790Y465102D01*
X815703Y465210D01*
X815687Y465223D01*
X815674Y465238D01*
X815560Y465318D01*
X815449Y465402D01*
X815424Y465414D01*
X815414Y465421D01*
X815395Y465428D01*
X815305Y465473D01*
X812950Y466448D01*
X809448Y469950D01*
X807553Y474524D01*
X807553Y479476D01*
X809448Y484050D01*
X812950Y487552D01*
X815975Y488805D01*
X816001Y488820D01*
X816030Y488829D01*
X816139Y488899D01*
X816252Y488963D01*
X816273Y488984D01*
X816298Y489000D01*
X816387Y489094D01*
X816480Y489184D01*
X816496Y489210D01*
X816516Y489231D01*
X816579Y489345D01*
X816646Y489455D01*
X816655Y489484D01*
X816669Y489510D01*
X816702Y489635D01*
X816740Y489759D01*
X816741Y489789D01*
X816749Y489818D01*
X816749Y489948D01*
X816755Y490077D01*
X816749Y490106D01*
X816749Y490136D01*
X816717Y490261D01*
X816691Y490388D01*
X816678Y490415D01*
X816670Y490444D01*
X816608Y490557D01*
X816551Y490674D01*
X816532Y490697D01*
X816517Y490723D01*
X816429Y490817D01*
X816345Y490916D01*
X816320Y490933D01*
X816300Y490955D01*
X816191Y491024D01*
X816085Y491099D01*
X816057Y491110D01*
X816031Y491126D01*
X815882Y491185D01*
X815417Y491336D01*
X813743Y492189D01*
X812222Y493294D01*
X810894Y494622D01*
X809789Y496143D01*
X808936Y497817D01*
X808355Y499604D01*
X808315Y499861D01*
X818730Y499861D01*
X818848Y499876D01*
X818967Y499883D01*
X819005Y499896D01*
X819045Y499901D01*
X819156Y499944D01*
X819269Y499981D01*
X819303Y500003D01*
X819341Y500018D01*
X819437Y500088D01*
X819538Y500151D01*
X819566Y500181D01*
X819598Y500204D01*
X819674Y500296D01*
X819756Y500383D01*
X819775Y500418D01*
X819801Y500449D01*
X819852Y500557D01*
X819909Y500661D01*
X819920Y500701D01*
X819937Y500737D01*
X819959Y500854D01*
X819989Y500969D01*
X819993Y501030D01*
X819997Y501050D01*
X819995Y501070D01*
X819999Y501130D01*
X819999Y503670D01*
X819984Y503788D01*
X819977Y503907D01*
X819964Y503945D01*
X819959Y503985D01*
X819915Y504096D01*
X819879Y504209D01*
X819857Y504244D01*
X819842Y504281D01*
X819772Y504377D01*
X819709Y504478D01*
X819679Y504506D01*
X819655Y504539D01*
X819564Y504614D01*
X819477Y504696D01*
X819442Y504716D01*
X819410Y504741D01*
X819303Y504792D01*
X819198Y504850D01*
X819159Y504860D01*
X819123Y504877D01*
X819006Y504899D01*
X818891Y504929D01*
X818830Y504933D01*
X818810Y504937D01*
X818790Y504935D01*
X818730Y504939D01*
X808315Y504939D01*
X808355Y505196D01*
X808936Y506983D01*
X809789Y508657D01*
X810894Y510178D01*
X812222Y511506D01*
X813743Y512611D01*
X815417Y513464D01*
X815882Y513615D01*
X815909Y513628D01*
X815938Y513635D01*
X816052Y513695D01*
X816170Y513750D01*
X816193Y513769D01*
X816219Y513783D01*
X816315Y513870D01*
X816415Y513953D01*
X816432Y513977D01*
X816454Y513997D01*
X816526Y514106D01*
X816602Y514210D01*
X816613Y514238D01*
X816629Y514263D01*
X816671Y514386D01*
X816719Y514506D01*
X816723Y514536D01*
X816732Y514564D01*
X816743Y514693D01*
X816759Y514821D01*
X816755Y514851D01*
X816758Y514881D01*
X816735Y515009D01*
X816719Y515137D01*
X816708Y515165D01*
X816703Y515194D01*
X816650Y515312D01*
X816602Y515433D01*
X816585Y515457D01*
X816573Y515484D01*
X816492Y515585D01*
X816416Y515690D01*
X816393Y515709D01*
X816374Y515733D01*
X816270Y515811D01*
X816171Y515893D01*
X816144Y515906D01*
X816120Y515924D01*
X815975Y515995D01*
X812950Y517248D01*
X809448Y520750D01*
X809165Y521433D01*
X809150Y521459D01*
X809141Y521487D01*
X809072Y521597D01*
X809007Y521710D01*
X808987Y521731D01*
X808971Y521755D01*
X808877Y521845D01*
X808786Y521938D01*
X808761Y521953D01*
X808740Y521973D01*
X808626Y522036D01*
X808515Y522104D01*
X808487Y522113D01*
X808461Y522127D01*
X808335Y522160D01*
X808211Y522198D01*
X808182Y522199D01*
X808154Y522207D01*
X807993Y522217D01*
X190740Y522510D01*
X190641Y522498D01*
X190542Y522495D01*
X190484Y522478D01*
X190424Y522470D01*
X190332Y522434D01*
X190237Y522406D01*
X190185Y522375D01*
X190129Y522353D01*
X190048Y522295D01*
X189963Y522245D01*
X189888Y522179D01*
X189871Y522167D01*
X189863Y522157D01*
X189842Y522138D01*
X165760Y498057D01*
X165700Y497979D01*
X165632Y497906D01*
X165603Y497853D01*
X165566Y497806D01*
X165526Y497715D01*
X165478Y497628D01*
X165463Y497569D01*
X165439Y497514D01*
X165424Y497416D01*
X165399Y497320D01*
X165393Y497220D01*
X165389Y497200D01*
X165391Y497187D01*
X165389Y497159D01*
X165389Y466605D01*
X165392Y466576D01*
X165390Y466547D01*
X165412Y466419D01*
X165429Y466290D01*
X165439Y466262D01*
X165444Y466233D01*
X165498Y466115D01*
X165546Y465994D01*
X165563Y465970D01*
X165575Y465943D01*
X165656Y465842D01*
X165732Y465737D01*
X165755Y465718D01*
X165774Y465695D01*
X165877Y465617D01*
X165977Y465534D01*
X166004Y465521D01*
X166028Y465504D01*
X166172Y465433D01*
X166851Y465152D01*
X170352Y461650D01*
X171327Y459295D01*
X171396Y459175D01*
X171461Y459052D01*
X171475Y459037D01*
X171485Y459019D01*
X171582Y458919D01*
X171675Y458816D01*
X171692Y458805D01*
X171706Y458791D01*
X171824Y458718D01*
X171941Y458642D01*
X171960Y458635D01*
X171977Y458624D01*
X172110Y458584D01*
X172242Y458538D01*
X172262Y458537D01*
X172281Y458531D01*
X172420Y458524D01*
X172559Y458513D01*
X172579Y458517D01*
X172599Y458516D01*
X172735Y458544D01*
X172872Y458568D01*
X172891Y458576D01*
X172910Y458580D01*
X173035Y458641D01*
X173162Y458698D01*
X173178Y458711D01*
X173196Y458720D01*
X173302Y458810D01*
X173410Y458897D01*
X173423Y458913D01*
X173438Y458926D01*
X173518Y459040D01*
X173602Y459151D01*
X173614Y459176D01*
X173621Y459186D01*
X173628Y459205D01*
X173673Y459295D01*
X174648Y461650D01*
X178150Y465152D01*
X182724Y467047D01*
X187676Y467047D01*
X192250Y465152D01*
X195752Y461650D01*
X197005Y458625D01*
X197020Y458599D01*
X197029Y458570D01*
X197099Y458461D01*
X197163Y458348D01*
X197184Y458327D01*
X197200Y458302D01*
X197294Y458213D01*
X197384Y458120D01*
X197410Y458104D01*
X197431Y458084D01*
X197545Y458021D01*
X197655Y457954D01*
X197684Y457945D01*
X197710Y457931D01*
X197835Y457898D01*
X197959Y457860D01*
X197989Y457859D01*
X198018Y457851D01*
X198148Y457851D01*
X198277Y457845D01*
X198306Y457851D01*
X198336Y457851D01*
X198461Y457883D01*
X198588Y457909D01*
X198615Y457922D01*
X198644Y457930D01*
X198757Y457992D01*
X198874Y458049D01*
X198897Y458068D01*
X198923Y458083D01*
X199017Y458171D01*
X199116Y458255D01*
X199133Y458280D01*
X199155Y458300D01*
X199224Y458409D01*
X199299Y458515D01*
X199310Y458543D01*
X199326Y458569D01*
X199385Y458718D01*
X199536Y459183D01*
X200389Y460857D01*
X201494Y462378D01*
X202822Y463706D01*
X204343Y464811D01*
X206017Y465664D01*
X207804Y466245D01*
X208061Y466285D01*
X208061Y455870D01*
X208076Y455752D01*
X208083Y455633D01*
X208096Y455595D01*
X208101Y455555D01*
X208144Y455444D01*
X208181Y455331D01*
X208203Y455297D01*
X208218Y455259D01*
X208288Y455163D01*
X208351Y455062D01*
X208381Y455034D01*
X208404Y455002D01*
X208496Y454926D01*
X208583Y454844D01*
X208618Y454825D01*
X208649Y454799D01*
X208757Y454748D01*
X208861Y454691D01*
X208901Y454680D01*
X208937Y454663D01*
X209054Y454641D01*
X209169Y454611D01*
X209230Y454607D01*
X209250Y454603D01*
X209270Y454605D01*
X209330Y454601D01*
X211870Y454601D01*
X211988Y454616D01*
G37*
%LPC*%
G36*
X404188Y661539D02*
X404188Y661539D01*
X397788Y663254D01*
X392051Y666566D01*
X387366Y671251D01*
X384054Y676988D01*
X382339Y683388D01*
X382339Y690012D01*
X384054Y696412D01*
X387366Y702149D01*
X392051Y706834D01*
X397788Y710146D01*
X404188Y711861D01*
X410812Y711861D01*
X417212Y710146D01*
X422949Y706834D01*
X427634Y702149D01*
X430946Y696412D01*
X432661Y690012D01*
X432661Y683388D01*
X430946Y676988D01*
X427634Y671251D01*
X422949Y666566D01*
X417212Y663254D01*
X410812Y661539D01*
X404188Y661539D01*
G37*
%LPD*%
%LPC*%
G36*
X799188Y661539D02*
X799188Y661539D01*
X792788Y663254D01*
X787051Y666566D01*
X782366Y671251D01*
X779054Y676988D01*
X777339Y683388D01*
X777339Y690012D01*
X779054Y696412D01*
X782366Y702149D01*
X787051Y706834D01*
X792788Y710146D01*
X799188Y711861D01*
X805812Y711861D01*
X812212Y710146D01*
X817949Y706834D01*
X822634Y702149D01*
X825946Y696412D01*
X827661Y690012D01*
X827661Y683388D01*
X825946Y676988D01*
X822634Y671251D01*
X817949Y666566D01*
X812212Y663254D01*
X805812Y661539D01*
X799188Y661539D01*
G37*
%LPD*%
%LPC*%
G36*
X169339Y777161D02*
X169339Y777161D01*
X178485Y777161D01*
X178445Y776904D01*
X177864Y775117D01*
X177011Y773443D01*
X175906Y771922D01*
X174578Y770594D01*
X173057Y769489D01*
X171383Y768636D01*
X169596Y768055D01*
X169339Y768015D01*
X169339Y777161D01*
G37*
%LPD*%
%LPC*%
G36*
X539715Y104939D02*
X539715Y104939D01*
X539755Y105196D01*
X540336Y106983D01*
X541189Y108657D01*
X542294Y110178D01*
X543622Y111506D01*
X545143Y112611D01*
X546817Y113464D01*
X548604Y114045D01*
X548861Y114085D01*
X548861Y104939D01*
X539715Y104939D01*
G37*
%LPD*%
%LPC*%
G36*
X164004Y768055D02*
X164004Y768055D01*
X162217Y768636D01*
X160543Y769489D01*
X159022Y770594D01*
X157694Y771922D01*
X156589Y773443D01*
X155736Y775117D01*
X155155Y776904D01*
X155115Y777161D01*
X164261Y777161D01*
X164261Y768015D01*
X164004Y768055D01*
G37*
%LPD*%
%LPC*%
G36*
X548604Y90755D02*
X548604Y90755D01*
X546817Y91336D01*
X545143Y92189D01*
X543622Y93294D01*
X542294Y94622D01*
X541189Y96143D01*
X540336Y97817D01*
X539755Y99604D01*
X539715Y99861D01*
X548861Y99861D01*
X548861Y90715D01*
X548604Y90755D01*
G37*
%LPD*%
D10*
X551400Y102400D03*
X576800Y102400D03*
X602200Y102400D03*
X627600Y102400D03*
X166800Y830500D03*
X166800Y805100D03*
X166800Y779700D03*
X165200Y84300D03*
X190600Y84300D03*
X216000Y84300D03*
X241400Y84300D03*
X266800Y84300D03*
X292200Y84300D03*
X317600Y84300D03*
X159800Y454600D03*
X185200Y454600D03*
X210600Y454600D03*
X236000Y454600D03*
X261400Y454600D03*
X286800Y454600D03*
X820000Y350000D03*
X820000Y375400D03*
X820000Y400800D03*
X820000Y426200D03*
X820000Y451600D03*
X820000Y477000D03*
X820000Y502400D03*
X820000Y527800D03*
X820000Y553200D03*
X820000Y578600D03*
D11*
X165200Y84300D02*
X159800Y89700D01*
X159800Y454600D01*
X159800Y500000D01*
X159800Y720200D01*
X130000Y750000D01*
X130000Y820000D01*
X140500Y830500D01*
X166800Y830500D01*
X187900Y528100D02*
X820000Y527800D01*
X187900Y528100D02*
X159800Y500000D01*
D12*
X165200Y84300D02*
X165200Y54800D01*
X180000Y40000D02*
X350000Y40000D01*
X360000Y50000D01*
X360000Y60000D01*
X370000Y70000D01*
X620000Y70000D01*
X180000Y40000D02*
X165200Y54800D01*
X620000Y70000D02*
X627600Y77600D01*
X627600Y102400D01*
D13*
X261400Y318600D02*
X261400Y454600D01*
X261400Y318600D02*
X280000Y300000D01*
X290000Y300000D01*
X317600Y272400D01*
X317600Y84300D01*
X261400Y454600D02*
X261400Y471400D01*
X270000Y480000D01*
X770000Y480000D01*
X798100Y451900D02*
X820000Y451600D01*
X798100Y451900D02*
X770000Y480000D01*
X236000Y454600D02*
X236000Y294000D01*
X250000Y280000D01*
X270000Y280000D01*
X292200Y257800D01*
X292200Y84300D01*
X416500Y426500D02*
X419997Y426497D01*
X820000Y426200D01*
X292200Y84300D02*
X292200Y67800D01*
X300000Y60000D01*
X330000Y60000D01*
X340000Y70000D01*
X340000Y420000D02*
X346497Y426497D01*
X419997Y426497D01*
X340000Y420000D02*
X340000Y70000D01*
X560000Y144600D02*
X560000Y360000D01*
X571645Y89954D02*
X581955Y89954D01*
X571645Y89954D02*
X564354Y97245D01*
X564354Y140246D02*
X560000Y144600D01*
X564354Y140246D02*
X564354Y97245D01*
X594401Y102400D02*
X602200Y102400D01*
X594401Y102400D02*
X581955Y89954D01*
X560000Y360000D02*
X590000Y390000D01*
X808700Y390000D02*
X820000Y400800D01*
X808700Y390000D02*
X590000Y390000D01*
X576800Y356800D02*
X576800Y102400D01*
X595700Y375700D02*
X820000Y375400D01*
X595700Y375700D02*
X576800Y356800D01*
X819500Y350000D02*
X819750Y350250D01*
X820000Y350000D01*
X734900Y805100D02*
X166800Y805100D01*
X734900Y805100D02*
X850000Y690000D01*
X850000Y360000D01*
X840250Y350250D01*
X819750Y350250D01*
M02*
