G04 EAGLE Gerber RS-274X export*
G75*
%MOMM*%
%FSLAX34Y34*%
%LPD*%
%INTop Copper*%
%IPPOS*%
%AMOC8*
5,1,8,0,0,1.08239X$1,22.5*%
G01*
%ADD10C,0.152400*%
%ADD11C,1.879600*%


D10*
X110762Y30762D02*
X110762Y47018D01*
X115278Y47018D01*
X115411Y47016D01*
X115543Y47010D01*
X115675Y47000D01*
X115807Y46987D01*
X115939Y46969D01*
X116069Y46948D01*
X116200Y46923D01*
X116329Y46894D01*
X116457Y46861D01*
X116585Y46825D01*
X116711Y46785D01*
X116836Y46741D01*
X116960Y46693D01*
X117082Y46642D01*
X117203Y46587D01*
X117322Y46529D01*
X117440Y46467D01*
X117555Y46402D01*
X117669Y46333D01*
X117780Y46262D01*
X117889Y46186D01*
X117996Y46108D01*
X118101Y46027D01*
X118203Y45942D01*
X118303Y45855D01*
X118400Y45765D01*
X118495Y45672D01*
X118586Y45576D01*
X118675Y45478D01*
X118761Y45377D01*
X118844Y45273D01*
X118924Y45167D01*
X119000Y45059D01*
X119074Y44949D01*
X119144Y44836D01*
X119211Y44722D01*
X119274Y44605D01*
X119334Y44487D01*
X119391Y44367D01*
X119444Y44245D01*
X119493Y44122D01*
X119539Y43998D01*
X119581Y43872D01*
X119619Y43745D01*
X119654Y43617D01*
X119685Y43488D01*
X119712Y43359D01*
X119735Y43228D01*
X119755Y43097D01*
X119770Y42965D01*
X119782Y42833D01*
X119790Y42701D01*
X119794Y42568D01*
X119794Y42436D01*
X119790Y42303D01*
X119782Y42171D01*
X119770Y42039D01*
X119755Y41907D01*
X119735Y41776D01*
X119712Y41645D01*
X119685Y41516D01*
X119654Y41387D01*
X119619Y41259D01*
X119581Y41132D01*
X119539Y41006D01*
X119493Y40882D01*
X119444Y40759D01*
X119391Y40637D01*
X119334Y40517D01*
X119274Y40399D01*
X119211Y40282D01*
X119144Y40168D01*
X119074Y40055D01*
X119000Y39945D01*
X118924Y39837D01*
X118844Y39731D01*
X118761Y39627D01*
X118675Y39526D01*
X118586Y39428D01*
X118495Y39332D01*
X118400Y39239D01*
X118303Y39149D01*
X118203Y39062D01*
X118101Y38977D01*
X117996Y38896D01*
X117889Y38818D01*
X117780Y38742D01*
X117669Y38671D01*
X117555Y38602D01*
X117440Y38537D01*
X117322Y38475D01*
X117203Y38417D01*
X117082Y38362D01*
X116960Y38311D01*
X116836Y38263D01*
X116711Y38219D01*
X116585Y38179D01*
X116457Y38143D01*
X116329Y38110D01*
X116200Y38081D01*
X116069Y38056D01*
X115939Y38035D01*
X115807Y38017D01*
X115675Y38004D01*
X115543Y37994D01*
X115411Y37988D01*
X115278Y37986D01*
X115278Y37987D02*
X110762Y37987D01*
X128610Y37084D02*
X132674Y37084D01*
X128610Y37084D02*
X128498Y37082D01*
X128387Y37076D01*
X128276Y37066D01*
X128165Y37053D01*
X128055Y37035D01*
X127946Y37013D01*
X127837Y36988D01*
X127729Y36959D01*
X127623Y36926D01*
X127517Y36889D01*
X127413Y36849D01*
X127311Y36805D01*
X127210Y36757D01*
X127111Y36706D01*
X127013Y36651D01*
X126918Y36593D01*
X126825Y36532D01*
X126734Y36467D01*
X126645Y36399D01*
X126559Y36328D01*
X126476Y36255D01*
X126395Y36178D01*
X126316Y36098D01*
X126241Y36016D01*
X126169Y35931D01*
X126099Y35844D01*
X126033Y35754D01*
X125970Y35662D01*
X125910Y35567D01*
X125854Y35471D01*
X125801Y35373D01*
X125752Y35273D01*
X125706Y35171D01*
X125664Y35068D01*
X125625Y34963D01*
X125590Y34857D01*
X125559Y34750D01*
X125532Y34642D01*
X125508Y34533D01*
X125489Y34423D01*
X125473Y34313D01*
X125461Y34202D01*
X125453Y34090D01*
X125449Y33979D01*
X125449Y33867D01*
X125453Y33756D01*
X125461Y33644D01*
X125473Y33533D01*
X125489Y33423D01*
X125508Y33313D01*
X125532Y33204D01*
X125559Y33096D01*
X125590Y32989D01*
X125625Y32883D01*
X125664Y32778D01*
X125706Y32675D01*
X125752Y32573D01*
X125801Y32473D01*
X125854Y32375D01*
X125910Y32279D01*
X125970Y32184D01*
X126033Y32092D01*
X126099Y32002D01*
X126169Y31915D01*
X126241Y31830D01*
X126316Y31748D01*
X126395Y31668D01*
X126476Y31591D01*
X126559Y31518D01*
X126645Y31447D01*
X126734Y31379D01*
X126825Y31314D01*
X126918Y31253D01*
X127013Y31195D01*
X127111Y31140D01*
X127210Y31089D01*
X127311Y31041D01*
X127413Y30997D01*
X127517Y30957D01*
X127623Y30920D01*
X127729Y30887D01*
X127837Y30858D01*
X127946Y30833D01*
X128055Y30811D01*
X128165Y30793D01*
X128276Y30780D01*
X128387Y30770D01*
X128498Y30764D01*
X128610Y30762D01*
X132674Y30762D01*
X132674Y38890D01*
X132672Y38991D01*
X132666Y39092D01*
X132657Y39193D01*
X132644Y39294D01*
X132627Y39394D01*
X132606Y39493D01*
X132582Y39591D01*
X132554Y39688D01*
X132522Y39785D01*
X132487Y39880D01*
X132448Y39973D01*
X132406Y40065D01*
X132360Y40156D01*
X132311Y40245D01*
X132259Y40331D01*
X132203Y40416D01*
X132145Y40499D01*
X132083Y40579D01*
X132018Y40657D01*
X131951Y40733D01*
X131881Y40806D01*
X131808Y40876D01*
X131732Y40943D01*
X131654Y41008D01*
X131574Y41070D01*
X131491Y41128D01*
X131406Y41184D01*
X131320Y41236D01*
X131231Y41285D01*
X131140Y41331D01*
X131048Y41373D01*
X130955Y41412D01*
X130860Y41447D01*
X130763Y41479D01*
X130666Y41507D01*
X130568Y41531D01*
X130469Y41552D01*
X130369Y41569D01*
X130268Y41582D01*
X130167Y41591D01*
X130066Y41597D01*
X129965Y41599D01*
X126352Y41599D01*
X139069Y25343D02*
X140876Y25343D01*
X146294Y41599D01*
X139069Y41599D02*
X142682Y30762D01*
X152332Y33471D02*
X152332Y47018D01*
X152333Y33471D02*
X152335Y33370D01*
X152341Y33269D01*
X152350Y33168D01*
X152363Y33067D01*
X152380Y32967D01*
X152401Y32868D01*
X152425Y32770D01*
X152453Y32673D01*
X152485Y32576D01*
X152520Y32481D01*
X152559Y32388D01*
X152601Y32296D01*
X152647Y32205D01*
X152696Y32116D01*
X152748Y32030D01*
X152804Y31945D01*
X152862Y31862D01*
X152924Y31782D01*
X152989Y31704D01*
X153056Y31628D01*
X153126Y31555D01*
X153199Y31485D01*
X153275Y31418D01*
X153353Y31353D01*
X153433Y31291D01*
X153516Y31233D01*
X153601Y31177D01*
X153688Y31125D01*
X153776Y31076D01*
X153867Y31030D01*
X153959Y30988D01*
X154052Y30949D01*
X154147Y30914D01*
X154244Y30882D01*
X154341Y30854D01*
X154439Y30830D01*
X154538Y30809D01*
X154638Y30792D01*
X154739Y30779D01*
X154840Y30770D01*
X154941Y30764D01*
X155042Y30762D01*
X160432Y34374D02*
X160432Y37987D01*
X160434Y38106D01*
X160440Y38226D01*
X160450Y38345D01*
X160464Y38463D01*
X160481Y38582D01*
X160503Y38699D01*
X160528Y38816D01*
X160558Y38931D01*
X160591Y39046D01*
X160628Y39160D01*
X160668Y39272D01*
X160713Y39383D01*
X160761Y39492D01*
X160812Y39600D01*
X160867Y39706D01*
X160926Y39810D01*
X160988Y39912D01*
X161053Y40012D01*
X161122Y40110D01*
X161194Y40206D01*
X161269Y40299D01*
X161346Y40389D01*
X161427Y40477D01*
X161511Y40562D01*
X161598Y40644D01*
X161687Y40724D01*
X161779Y40800D01*
X161873Y40874D01*
X161970Y40944D01*
X162068Y41011D01*
X162169Y41075D01*
X162273Y41135D01*
X162378Y41192D01*
X162485Y41245D01*
X162593Y41295D01*
X162703Y41341D01*
X162815Y41383D01*
X162928Y41422D01*
X163042Y41457D01*
X163157Y41488D01*
X163274Y41516D01*
X163391Y41539D01*
X163508Y41559D01*
X163627Y41575D01*
X163746Y41587D01*
X163865Y41595D01*
X163984Y41599D01*
X164104Y41599D01*
X164223Y41595D01*
X164342Y41587D01*
X164461Y41575D01*
X164580Y41559D01*
X164697Y41539D01*
X164814Y41516D01*
X164931Y41488D01*
X165046Y41457D01*
X165160Y41422D01*
X165273Y41383D01*
X165385Y41341D01*
X165495Y41295D01*
X165603Y41245D01*
X165710Y41192D01*
X165815Y41135D01*
X165919Y41075D01*
X166020Y41011D01*
X166118Y40944D01*
X166215Y40874D01*
X166309Y40800D01*
X166401Y40724D01*
X166490Y40644D01*
X166577Y40562D01*
X166661Y40477D01*
X166742Y40389D01*
X166819Y40299D01*
X166894Y40206D01*
X166966Y40110D01*
X167035Y40012D01*
X167100Y39912D01*
X167162Y39810D01*
X167221Y39706D01*
X167276Y39600D01*
X167327Y39492D01*
X167375Y39383D01*
X167420Y39272D01*
X167460Y39160D01*
X167497Y39046D01*
X167530Y38931D01*
X167560Y38816D01*
X167585Y38699D01*
X167607Y38582D01*
X167624Y38463D01*
X167638Y38345D01*
X167648Y38226D01*
X167654Y38106D01*
X167656Y37987D01*
X167657Y37987D02*
X167657Y34374D01*
X167656Y34374D02*
X167654Y34255D01*
X167648Y34135D01*
X167638Y34016D01*
X167624Y33898D01*
X167607Y33779D01*
X167585Y33662D01*
X167560Y33545D01*
X167530Y33430D01*
X167497Y33315D01*
X167460Y33201D01*
X167420Y33089D01*
X167375Y32978D01*
X167327Y32869D01*
X167276Y32761D01*
X167221Y32655D01*
X167162Y32551D01*
X167100Y32449D01*
X167035Y32349D01*
X166966Y32251D01*
X166894Y32155D01*
X166819Y32062D01*
X166742Y31972D01*
X166661Y31884D01*
X166577Y31799D01*
X166490Y31717D01*
X166401Y31637D01*
X166309Y31561D01*
X166215Y31487D01*
X166118Y31417D01*
X166020Y31350D01*
X165919Y31286D01*
X165815Y31226D01*
X165710Y31169D01*
X165603Y31116D01*
X165495Y31066D01*
X165385Y31020D01*
X165273Y30978D01*
X165160Y30939D01*
X165046Y30904D01*
X164931Y30873D01*
X164814Y30845D01*
X164697Y30822D01*
X164580Y30802D01*
X164461Y30786D01*
X164342Y30774D01*
X164223Y30766D01*
X164104Y30762D01*
X163984Y30762D01*
X163865Y30766D01*
X163746Y30774D01*
X163627Y30786D01*
X163508Y30802D01*
X163391Y30822D01*
X163274Y30845D01*
X163157Y30873D01*
X163042Y30904D01*
X162928Y30939D01*
X162815Y30978D01*
X162703Y31020D01*
X162593Y31066D01*
X162485Y31116D01*
X162378Y31169D01*
X162273Y31226D01*
X162169Y31286D01*
X162068Y31350D01*
X161970Y31417D01*
X161873Y31487D01*
X161779Y31561D01*
X161687Y31637D01*
X161598Y31717D01*
X161511Y31799D01*
X161427Y31884D01*
X161346Y31972D01*
X161269Y32062D01*
X161194Y32155D01*
X161122Y32251D01*
X161053Y32349D01*
X160988Y32449D01*
X160926Y32551D01*
X160867Y32655D01*
X160812Y32761D01*
X160761Y32869D01*
X160713Y32978D01*
X160668Y33089D01*
X160628Y33201D01*
X160591Y33315D01*
X160558Y33430D01*
X160528Y33545D01*
X160503Y33662D01*
X160481Y33779D01*
X160464Y33898D01*
X160450Y34016D01*
X160440Y34135D01*
X160434Y34255D01*
X160432Y34374D01*
X177067Y37084D02*
X181131Y37084D01*
X177067Y37084D02*
X176955Y37082D01*
X176844Y37076D01*
X176733Y37066D01*
X176622Y37053D01*
X176512Y37035D01*
X176403Y37013D01*
X176294Y36988D01*
X176186Y36959D01*
X176080Y36926D01*
X175974Y36889D01*
X175870Y36849D01*
X175768Y36805D01*
X175667Y36757D01*
X175568Y36706D01*
X175470Y36651D01*
X175375Y36593D01*
X175282Y36532D01*
X175191Y36467D01*
X175102Y36399D01*
X175016Y36328D01*
X174933Y36255D01*
X174852Y36178D01*
X174773Y36098D01*
X174698Y36016D01*
X174626Y35931D01*
X174556Y35844D01*
X174490Y35754D01*
X174427Y35662D01*
X174367Y35567D01*
X174311Y35471D01*
X174258Y35373D01*
X174209Y35273D01*
X174163Y35171D01*
X174121Y35068D01*
X174082Y34963D01*
X174047Y34857D01*
X174016Y34750D01*
X173989Y34642D01*
X173965Y34533D01*
X173946Y34423D01*
X173930Y34313D01*
X173918Y34202D01*
X173910Y34090D01*
X173906Y33979D01*
X173906Y33867D01*
X173910Y33756D01*
X173918Y33644D01*
X173930Y33533D01*
X173946Y33423D01*
X173965Y33313D01*
X173989Y33204D01*
X174016Y33096D01*
X174047Y32989D01*
X174082Y32883D01*
X174121Y32778D01*
X174163Y32675D01*
X174209Y32573D01*
X174258Y32473D01*
X174311Y32375D01*
X174367Y32279D01*
X174427Y32184D01*
X174490Y32092D01*
X174556Y32002D01*
X174626Y31915D01*
X174698Y31830D01*
X174773Y31748D01*
X174852Y31668D01*
X174933Y31591D01*
X175016Y31518D01*
X175102Y31447D01*
X175191Y31379D01*
X175282Y31314D01*
X175375Y31253D01*
X175470Y31195D01*
X175568Y31140D01*
X175667Y31089D01*
X175768Y31041D01*
X175870Y30997D01*
X175974Y30957D01*
X176080Y30920D01*
X176186Y30887D01*
X176294Y30858D01*
X176403Y30833D01*
X176512Y30811D01*
X176622Y30793D01*
X176733Y30780D01*
X176844Y30770D01*
X176955Y30764D01*
X177067Y30762D01*
X181131Y30762D01*
X181131Y38890D01*
X181130Y38890D02*
X181128Y38991D01*
X181122Y39092D01*
X181113Y39193D01*
X181100Y39294D01*
X181083Y39394D01*
X181062Y39493D01*
X181038Y39591D01*
X181010Y39688D01*
X180978Y39785D01*
X180943Y39880D01*
X180904Y39973D01*
X180862Y40065D01*
X180816Y40156D01*
X180767Y40245D01*
X180715Y40331D01*
X180659Y40416D01*
X180601Y40499D01*
X180539Y40579D01*
X180474Y40657D01*
X180407Y40733D01*
X180337Y40806D01*
X180264Y40876D01*
X180188Y40943D01*
X180110Y41008D01*
X180030Y41070D01*
X179947Y41128D01*
X179862Y41184D01*
X179776Y41236D01*
X179687Y41285D01*
X179596Y41331D01*
X179504Y41373D01*
X179411Y41412D01*
X179316Y41447D01*
X179219Y41479D01*
X179122Y41507D01*
X179024Y41531D01*
X178925Y41552D01*
X178825Y41569D01*
X178724Y41582D01*
X178623Y41591D01*
X178522Y41597D01*
X178421Y41599D01*
X174809Y41599D01*
X195199Y47018D02*
X195199Y30762D01*
X190683Y30762D01*
X190582Y30764D01*
X190481Y30770D01*
X190380Y30779D01*
X190279Y30792D01*
X190179Y30809D01*
X190080Y30830D01*
X189982Y30854D01*
X189885Y30882D01*
X189788Y30914D01*
X189693Y30949D01*
X189600Y30988D01*
X189508Y31030D01*
X189417Y31076D01*
X189329Y31125D01*
X189242Y31177D01*
X189157Y31233D01*
X189074Y31291D01*
X188994Y31353D01*
X188916Y31418D01*
X188840Y31485D01*
X188767Y31555D01*
X188697Y31628D01*
X188630Y31704D01*
X188565Y31782D01*
X188503Y31862D01*
X188445Y31945D01*
X188389Y32030D01*
X188337Y32116D01*
X188288Y32205D01*
X188242Y32296D01*
X188200Y32388D01*
X188161Y32481D01*
X188126Y32576D01*
X188094Y32673D01*
X188066Y32770D01*
X188042Y32868D01*
X188021Y32967D01*
X188004Y33067D01*
X187991Y33168D01*
X187982Y33269D01*
X187976Y33370D01*
X187974Y33471D01*
X187974Y38890D01*
X187976Y38991D01*
X187982Y39092D01*
X187991Y39193D01*
X188004Y39294D01*
X188021Y39394D01*
X188042Y39493D01*
X188066Y39591D01*
X188094Y39688D01*
X188126Y39785D01*
X188161Y39880D01*
X188200Y39973D01*
X188242Y40065D01*
X188288Y40156D01*
X188337Y40245D01*
X188389Y40331D01*
X188445Y40416D01*
X188503Y40499D01*
X188565Y40579D01*
X188630Y40657D01*
X188697Y40733D01*
X188767Y40806D01*
X188840Y40876D01*
X188916Y40943D01*
X188994Y41008D01*
X189074Y41070D01*
X189157Y41128D01*
X189242Y41184D01*
X189329Y41236D01*
X189417Y41285D01*
X189508Y41331D01*
X189600Y41373D01*
X189693Y41412D01*
X189788Y41447D01*
X189885Y41479D01*
X189982Y41507D01*
X190080Y41531D01*
X190179Y41552D01*
X190279Y41569D01*
X190380Y41582D01*
X190481Y41591D01*
X190582Y41597D01*
X190683Y41599D01*
X195199Y41599D01*
X201594Y28956D02*
X208819Y28956D01*
X223790Y42954D02*
X223788Y43079D01*
X223782Y43204D01*
X223773Y43329D01*
X223759Y43453D01*
X223742Y43577D01*
X223721Y43701D01*
X223696Y43823D01*
X223667Y43945D01*
X223635Y44066D01*
X223599Y44186D01*
X223559Y44305D01*
X223516Y44422D01*
X223469Y44538D01*
X223418Y44653D01*
X223364Y44765D01*
X223306Y44877D01*
X223246Y44986D01*
X223181Y45093D01*
X223114Y45199D01*
X223043Y45302D01*
X222969Y45403D01*
X222892Y45502D01*
X222812Y45598D01*
X222729Y45692D01*
X222644Y45783D01*
X222555Y45872D01*
X222464Y45957D01*
X222370Y46040D01*
X222274Y46120D01*
X222175Y46197D01*
X222074Y46271D01*
X221971Y46342D01*
X221865Y46409D01*
X221758Y46474D01*
X221649Y46534D01*
X221537Y46592D01*
X221425Y46646D01*
X221310Y46697D01*
X221194Y46744D01*
X221077Y46787D01*
X220958Y46827D01*
X220838Y46863D01*
X220717Y46895D01*
X220595Y46924D01*
X220473Y46949D01*
X220349Y46970D01*
X220225Y46987D01*
X220101Y47001D01*
X219976Y47010D01*
X219851Y47016D01*
X219726Y47018D01*
X219583Y47016D01*
X219441Y47010D01*
X219298Y47000D01*
X219156Y46987D01*
X219015Y46969D01*
X218873Y46948D01*
X218733Y46923D01*
X218593Y46894D01*
X218454Y46861D01*
X218316Y46824D01*
X218179Y46784D01*
X218044Y46740D01*
X217909Y46692D01*
X217776Y46640D01*
X217644Y46585D01*
X217514Y46526D01*
X217386Y46464D01*
X217259Y46398D01*
X217134Y46329D01*
X217011Y46257D01*
X216891Y46181D01*
X216772Y46102D01*
X216655Y46019D01*
X216541Y45934D01*
X216429Y45845D01*
X216320Y45754D01*
X216213Y45659D01*
X216108Y45562D01*
X216007Y45461D01*
X215908Y45358D01*
X215812Y45253D01*
X215719Y45144D01*
X215629Y45033D01*
X215542Y44920D01*
X215458Y44805D01*
X215378Y44687D01*
X215300Y44567D01*
X215226Y44445D01*
X215156Y44321D01*
X215088Y44195D01*
X215025Y44067D01*
X214964Y43938D01*
X214907Y43807D01*
X214854Y43675D01*
X214805Y43541D01*
X214759Y43406D01*
X222435Y39793D02*
X222529Y39885D01*
X222619Y39979D01*
X222707Y40076D01*
X222792Y40176D01*
X222874Y40278D01*
X222953Y40383D01*
X223028Y40490D01*
X223100Y40599D01*
X223169Y40710D01*
X223235Y40824D01*
X223297Y40939D01*
X223356Y41056D01*
X223411Y41175D01*
X223462Y41295D01*
X223510Y41417D01*
X223555Y41540D01*
X223595Y41664D01*
X223632Y41790D01*
X223665Y41917D01*
X223694Y42044D01*
X223720Y42173D01*
X223741Y42302D01*
X223759Y42432D01*
X223772Y42562D01*
X223782Y42692D01*
X223788Y42823D01*
X223790Y42954D01*
X222436Y39793D02*
X214759Y30762D01*
X223790Y30762D01*
D11*
X551400Y102400D03*
X576800Y102400D03*
X602200Y102400D03*
X627600Y102400D03*
X166800Y830500D03*
X166800Y805100D03*
X166800Y779700D03*
X165200Y84300D03*
X190600Y84300D03*
X216000Y84300D03*
X241400Y84300D03*
X266800Y84300D03*
X292200Y84300D03*
X317600Y84300D03*
X159800Y454600D03*
X185200Y454600D03*
X210600Y454600D03*
X236000Y454600D03*
X261400Y454600D03*
X286800Y454600D03*
X820000Y350000D03*
X820000Y375400D03*
X820000Y400800D03*
X820000Y426200D03*
X820000Y451600D03*
X820000Y477000D03*
X820000Y502400D03*
X820000Y527800D03*
X820000Y553200D03*
X820000Y578600D03*
M02*
