G04 EAGLE Gerber RS-274X export*
G75*
%MOMM*%
%FSLAX34Y34*%
%LPD*%
%INBottom Copper*%
%IPPOS*%
%AMOC8*
5,1,8,0,0,1.08239X$1,22.5*%
G01*
%ADD10C,1.879600*%
%ADD11C,0.508000*%
%ADD12C,0.406400*%
%ADD13C,0.304800*%

G36*
X316660Y46099D02*
X316660Y46099D01*
X316687Y46097D01*
X316860Y46119D01*
X317034Y46137D01*
X317059Y46144D01*
X317086Y46148D01*
X317252Y46203D01*
X317419Y46255D01*
X317442Y46268D01*
X317468Y46276D01*
X317619Y46363D01*
X317773Y46447D01*
X317793Y46464D01*
X317817Y46477D01*
X318070Y46692D01*
X346546Y75169D01*
X348787Y76097D01*
X521096Y76097D01*
X521105Y76098D01*
X521114Y76097D01*
X521305Y76118D01*
X521496Y76137D01*
X521505Y76139D01*
X521514Y76140D01*
X521696Y76198D01*
X521881Y76255D01*
X521889Y76259D01*
X521898Y76262D01*
X522066Y76355D01*
X522235Y76447D01*
X522242Y76452D01*
X522250Y76457D01*
X522397Y76581D01*
X522545Y76704D01*
X522550Y76711D01*
X522557Y76717D01*
X522676Y76868D01*
X522797Y77018D01*
X522801Y77026D01*
X522807Y77033D01*
X522894Y77206D01*
X522982Y77375D01*
X522985Y77384D01*
X522989Y77392D01*
X523041Y77578D01*
X523094Y77762D01*
X523095Y77771D01*
X523097Y77780D01*
X523111Y77973D01*
X523127Y78164D01*
X523126Y78172D01*
X523126Y78181D01*
X523102Y78374D01*
X523080Y78563D01*
X523077Y78572D01*
X523076Y78581D01*
X523014Y78764D01*
X522955Y78946D01*
X522950Y78954D01*
X522948Y78962D01*
X522852Y79129D01*
X522757Y79297D01*
X522751Y79304D01*
X522747Y79311D01*
X522532Y79564D01*
X517120Y84976D01*
X515262Y86834D01*
X514411Y88888D01*
X514411Y381112D01*
X515262Y383166D01*
X526834Y394738D01*
X528888Y395589D01*
X804547Y395589D01*
X804560Y395590D01*
X804573Y395589D01*
X804760Y395610D01*
X804947Y395629D01*
X804960Y395633D01*
X804973Y395634D01*
X805153Y395692D01*
X805332Y395747D01*
X805344Y395753D01*
X805357Y395757D01*
X805521Y395849D01*
X805686Y395939D01*
X805696Y395947D01*
X805708Y395954D01*
X805852Y396076D01*
X805995Y396196D01*
X806004Y396207D01*
X806014Y396216D01*
X806130Y396364D01*
X806248Y396510D01*
X806254Y396522D01*
X806262Y396533D01*
X806347Y396702D01*
X806433Y396867D01*
X806437Y396880D01*
X806443Y396892D01*
X806493Y397074D01*
X806545Y397254D01*
X806546Y397268D01*
X806549Y397281D01*
X806562Y397467D01*
X806578Y397656D01*
X806576Y397669D01*
X806577Y397682D01*
X806553Y397869D01*
X806537Y397999D01*
X806537Y403478D01*
X808587Y408426D01*
X812225Y412064D01*
X812236Y412078D01*
X812249Y412089D01*
X812363Y412233D01*
X812480Y412375D01*
X812488Y412391D01*
X812499Y412405D01*
X812583Y412569D01*
X812668Y412731D01*
X812673Y412748D01*
X812681Y412764D01*
X812731Y412941D01*
X812783Y413117D01*
X812785Y413135D01*
X812789Y413152D01*
X812803Y413335D01*
X812819Y413518D01*
X812817Y413536D01*
X812819Y413553D01*
X812796Y413735D01*
X812776Y413918D01*
X812771Y413935D01*
X812768Y413953D01*
X812710Y414127D01*
X812654Y414302D01*
X812646Y414318D01*
X812640Y414334D01*
X812548Y414494D01*
X812460Y414654D01*
X812448Y414668D01*
X812439Y414683D01*
X812225Y414936D01*
X808587Y418574D01*
X808139Y419655D01*
X808129Y419674D01*
X808122Y419696D01*
X808034Y419852D01*
X807949Y420010D01*
X807935Y420027D01*
X807924Y420046D01*
X807807Y420182D01*
X807693Y420320D01*
X807675Y420334D01*
X807661Y420351D01*
X807519Y420461D01*
X807380Y420574D01*
X807360Y420584D01*
X807343Y420598D01*
X807182Y420678D01*
X807023Y420761D01*
X807002Y420767D01*
X806982Y420777D01*
X806808Y420824D01*
X806637Y420874D01*
X806615Y420876D01*
X806593Y420882D01*
X806263Y420909D01*
X349654Y420909D01*
X349627Y420906D01*
X349600Y420908D01*
X349427Y420886D01*
X349253Y420869D01*
X349228Y420861D01*
X349201Y420858D01*
X349035Y420802D01*
X348868Y420751D01*
X348845Y420738D01*
X348819Y420729D01*
X348668Y420642D01*
X348514Y420559D01*
X348494Y420542D01*
X348470Y420528D01*
X348217Y420314D01*
X336184Y408280D01*
X336167Y408259D01*
X336146Y408242D01*
X336039Y408104D01*
X335929Y407968D01*
X335916Y407945D01*
X335900Y407924D01*
X335822Y407767D01*
X335740Y407613D01*
X335732Y407587D01*
X335720Y407563D01*
X335675Y407394D01*
X335625Y407227D01*
X335623Y407200D01*
X335616Y407174D01*
X335589Y406844D01*
X335589Y98888D01*
X334738Y96834D01*
X323166Y85262D01*
X321112Y84411D01*
X288888Y84411D01*
X286834Y85262D01*
X277462Y94634D01*
X276611Y96688D01*
X276611Y100686D01*
X276609Y100708D01*
X276611Y100730D01*
X276589Y100908D01*
X276571Y101086D01*
X276565Y101108D01*
X276562Y101130D01*
X276506Y101299D01*
X276453Y101471D01*
X276443Y101491D01*
X276436Y101512D01*
X276347Y101668D01*
X276261Y101825D01*
X276247Y101842D01*
X276236Y101862D01*
X276118Y101998D01*
X276004Y102135D01*
X275986Y102148D01*
X275972Y102165D01*
X275830Y102275D01*
X275690Y102387D01*
X275670Y102397D01*
X275652Y102411D01*
X275357Y102562D01*
X274574Y102887D01*
X270936Y106525D01*
X270922Y106536D01*
X270911Y106549D01*
X270767Y106663D01*
X270625Y106780D01*
X270609Y106788D01*
X270595Y106799D01*
X270431Y106883D01*
X270269Y106968D01*
X270252Y106973D01*
X270236Y106981D01*
X270059Y107031D01*
X269883Y107083D01*
X269865Y107085D01*
X269848Y107089D01*
X269665Y107103D01*
X269482Y107119D01*
X269464Y107117D01*
X269447Y107119D01*
X269265Y107096D01*
X269082Y107076D01*
X269065Y107071D01*
X269047Y107068D01*
X268873Y107010D01*
X268698Y106954D01*
X268682Y106946D01*
X268666Y106940D01*
X268506Y106848D01*
X268346Y106760D01*
X268332Y106748D01*
X268317Y106739D01*
X268064Y106525D01*
X264426Y102887D01*
X259478Y100837D01*
X254122Y100837D01*
X249174Y102887D01*
X245536Y106525D01*
X245522Y106536D01*
X245511Y106549D01*
X245367Y106663D01*
X245225Y106780D01*
X245209Y106788D01*
X245195Y106799D01*
X245031Y106883D01*
X244869Y106968D01*
X244852Y106973D01*
X244836Y106981D01*
X244659Y107031D01*
X244483Y107083D01*
X244465Y107085D01*
X244448Y107089D01*
X244265Y107103D01*
X244082Y107119D01*
X244064Y107117D01*
X244047Y107119D01*
X243865Y107096D01*
X243682Y107076D01*
X243665Y107071D01*
X243647Y107068D01*
X243473Y107010D01*
X243298Y106954D01*
X243282Y106946D01*
X243266Y106940D01*
X243106Y106848D01*
X242946Y106760D01*
X242932Y106748D01*
X242917Y106739D01*
X242664Y106525D01*
X239026Y102887D01*
X234078Y100837D01*
X228722Y100837D01*
X223774Y102887D01*
X220136Y106525D01*
X220122Y106536D01*
X220111Y106549D01*
X219967Y106663D01*
X219825Y106780D01*
X219809Y106788D01*
X219795Y106799D01*
X219631Y106883D01*
X219469Y106968D01*
X219452Y106973D01*
X219436Y106981D01*
X219259Y107031D01*
X219083Y107083D01*
X219065Y107085D01*
X219048Y107089D01*
X218865Y107103D01*
X218682Y107119D01*
X218664Y107117D01*
X218647Y107119D01*
X218465Y107096D01*
X218282Y107076D01*
X218265Y107071D01*
X218247Y107068D01*
X218073Y107010D01*
X217898Y106954D01*
X217882Y106946D01*
X217866Y106940D01*
X217706Y106848D01*
X217546Y106760D01*
X217532Y106748D01*
X217517Y106739D01*
X217264Y106525D01*
X213626Y102887D01*
X208678Y100837D01*
X203322Y100837D01*
X198374Y102887D01*
X194587Y106674D01*
X194243Y107505D01*
X194161Y107657D01*
X194084Y107811D01*
X194066Y107834D01*
X194053Y107860D01*
X193943Y107993D01*
X193836Y108129D01*
X193814Y108148D01*
X193796Y108170D01*
X193662Y108279D01*
X193531Y108391D01*
X193506Y108406D01*
X193483Y108424D01*
X193331Y108504D01*
X193180Y108589D01*
X193152Y108597D01*
X193127Y108611D01*
X192961Y108659D01*
X192797Y108713D01*
X192768Y108716D01*
X192741Y108724D01*
X192568Y108739D01*
X192397Y108758D01*
X192368Y108756D01*
X192339Y108759D01*
X192168Y108739D01*
X191996Y108725D01*
X191968Y108717D01*
X191939Y108713D01*
X191775Y108661D01*
X191609Y108612D01*
X191584Y108599D01*
X191556Y108590D01*
X191406Y108506D01*
X191252Y108426D01*
X191230Y108408D01*
X191205Y108394D01*
X191074Y108282D01*
X190939Y108173D01*
X190918Y108149D01*
X190899Y108132D01*
X190846Y108065D01*
X190723Y107921D01*
X189706Y106522D01*
X188378Y105194D01*
X186857Y104089D01*
X185183Y103236D01*
X183396Y102655D01*
X183139Y102615D01*
X183139Y113792D01*
X183137Y113810D01*
X183139Y113827D01*
X183118Y114010D01*
X183099Y114192D01*
X183094Y114209D01*
X183092Y114227D01*
X183067Y114305D01*
X183106Y114442D01*
X183108Y114460D01*
X183112Y114477D01*
X183139Y114808D01*
X183139Y125985D01*
X183396Y125945D01*
X185183Y125364D01*
X186857Y124511D01*
X188378Y123406D01*
X189706Y122078D01*
X190723Y120679D01*
X190837Y120550D01*
X190949Y120417D01*
X190971Y120399D01*
X190991Y120378D01*
X191128Y120274D01*
X191264Y120166D01*
X191289Y120153D01*
X191312Y120136D01*
X191468Y120061D01*
X191622Y119983D01*
X191650Y119975D01*
X191676Y119962D01*
X191843Y119920D01*
X192009Y119873D01*
X192038Y119871D01*
X192066Y119864D01*
X192239Y119855D01*
X192411Y119842D01*
X192439Y119845D01*
X192468Y119844D01*
X192639Y119870D01*
X192810Y119890D01*
X192837Y119899D01*
X192866Y119904D01*
X193029Y119963D01*
X193192Y120017D01*
X193217Y120031D01*
X193245Y120041D01*
X193392Y120131D01*
X193542Y120216D01*
X193564Y120235D01*
X193589Y120250D01*
X193716Y120368D01*
X193846Y120481D01*
X193863Y120504D01*
X193885Y120523D01*
X193986Y120663D01*
X194091Y120800D01*
X194106Y120829D01*
X194121Y120849D01*
X194156Y120926D01*
X194243Y121095D01*
X194587Y121926D01*
X198374Y125713D01*
X203322Y127763D01*
X208678Y127763D01*
X213626Y125713D01*
X217264Y122075D01*
X217277Y122064D01*
X217289Y122051D01*
X217433Y121937D01*
X217575Y121820D01*
X217591Y121812D01*
X217605Y121801D01*
X217769Y121718D01*
X217931Y121632D01*
X217948Y121627D01*
X217964Y121619D01*
X218141Y121569D01*
X218317Y121517D01*
X218335Y121515D01*
X218352Y121511D01*
X218535Y121497D01*
X218718Y121481D01*
X218736Y121483D01*
X218753Y121481D01*
X218935Y121504D01*
X219118Y121524D01*
X219135Y121529D01*
X219153Y121532D01*
X219326Y121590D01*
X219502Y121646D01*
X219518Y121654D01*
X219534Y121660D01*
X219694Y121752D01*
X219854Y121840D01*
X219868Y121852D01*
X219883Y121861D01*
X220136Y122075D01*
X223774Y125713D01*
X228722Y127763D01*
X234078Y127763D01*
X239026Y125713D01*
X242664Y122075D01*
X242677Y122064D01*
X242689Y122051D01*
X242833Y121937D01*
X242975Y121820D01*
X242991Y121812D01*
X243005Y121801D01*
X243169Y121718D01*
X243331Y121632D01*
X243348Y121627D01*
X243364Y121619D01*
X243541Y121569D01*
X243717Y121517D01*
X243735Y121515D01*
X243752Y121511D01*
X243935Y121497D01*
X244118Y121481D01*
X244136Y121483D01*
X244153Y121481D01*
X244335Y121504D01*
X244518Y121524D01*
X244535Y121529D01*
X244553Y121532D01*
X244726Y121590D01*
X244902Y121646D01*
X244918Y121654D01*
X244934Y121660D01*
X245094Y121752D01*
X245254Y121840D01*
X245268Y121852D01*
X245283Y121861D01*
X245536Y122075D01*
X249174Y125713D01*
X254122Y127763D01*
X259478Y127763D01*
X264426Y125713D01*
X268064Y122075D01*
X268077Y122064D01*
X268089Y122051D01*
X268233Y121937D01*
X268375Y121820D01*
X268391Y121812D01*
X268405Y121801D01*
X268569Y121718D01*
X268731Y121632D01*
X268748Y121627D01*
X268764Y121619D01*
X268941Y121569D01*
X269117Y121517D01*
X269135Y121515D01*
X269152Y121511D01*
X269335Y121497D01*
X269518Y121481D01*
X269536Y121483D01*
X269553Y121481D01*
X269735Y121504D01*
X269918Y121524D01*
X269935Y121529D01*
X269953Y121532D01*
X270126Y121590D01*
X270302Y121646D01*
X270318Y121654D01*
X270334Y121660D01*
X270494Y121752D01*
X270654Y121840D01*
X270668Y121852D01*
X270683Y121861D01*
X270936Y122075D01*
X274574Y125713D01*
X275357Y126038D01*
X275377Y126048D01*
X275398Y126055D01*
X275554Y126143D01*
X275712Y126228D01*
X275729Y126242D01*
X275749Y126253D01*
X275884Y126370D01*
X276023Y126484D01*
X276037Y126502D01*
X276054Y126516D01*
X276163Y126658D01*
X276276Y126797D01*
X276287Y126817D01*
X276300Y126834D01*
X276380Y126995D01*
X276463Y127153D01*
X276470Y127175D01*
X276480Y127195D01*
X276526Y127369D01*
X276576Y127540D01*
X276578Y127562D01*
X276584Y127584D01*
X276611Y127914D01*
X276611Y264644D01*
X276609Y264670D01*
X276611Y264697D01*
X276589Y264871D01*
X276571Y265044D01*
X276564Y265070D01*
X276560Y265096D01*
X276505Y265262D01*
X276453Y265429D01*
X276440Y265453D01*
X276432Y265478D01*
X276345Y265630D01*
X276261Y265783D01*
X276244Y265804D01*
X276231Y265827D01*
X276016Y266080D01*
X268280Y273816D01*
X268259Y273833D01*
X268242Y273854D01*
X268104Y273961D01*
X267968Y274071D01*
X267945Y274084D01*
X267924Y274100D01*
X267767Y274178D01*
X267613Y274260D01*
X267587Y274268D01*
X267563Y274280D01*
X267394Y274325D01*
X267227Y274375D01*
X267200Y274377D01*
X267174Y274384D01*
X266844Y274411D01*
X248888Y274411D01*
X246834Y275262D01*
X231262Y290834D01*
X230411Y292888D01*
X230411Y440986D01*
X230409Y441008D01*
X230411Y441030D01*
X230389Y441208D01*
X230371Y441386D01*
X230365Y441408D01*
X230362Y441430D01*
X230306Y441599D01*
X230253Y441771D01*
X230243Y441791D01*
X230236Y441812D01*
X230147Y441968D01*
X230061Y442125D01*
X230047Y442142D01*
X230036Y442162D01*
X229918Y442298D01*
X229804Y442435D01*
X229786Y442448D01*
X229772Y442465D01*
X229630Y442575D01*
X229490Y442687D01*
X229470Y442697D01*
X229452Y442711D01*
X229157Y442862D01*
X228374Y443187D01*
X224587Y446974D01*
X224243Y447805D01*
X224161Y447957D01*
X224084Y448111D01*
X224066Y448134D01*
X224053Y448160D01*
X223943Y448293D01*
X223836Y448429D01*
X223815Y448448D01*
X223796Y448470D01*
X223662Y448579D01*
X223531Y448691D01*
X223506Y448705D01*
X223483Y448724D01*
X223330Y448804D01*
X223180Y448888D01*
X223153Y448897D01*
X223127Y448911D01*
X222961Y448959D01*
X222797Y449012D01*
X222768Y449016D01*
X222741Y449024D01*
X222568Y449039D01*
X222397Y449058D01*
X222368Y449056D01*
X222339Y449059D01*
X222168Y449039D01*
X221996Y449025D01*
X221968Y449017D01*
X221939Y449013D01*
X221775Y448961D01*
X221609Y448912D01*
X221584Y448899D01*
X221556Y448890D01*
X221405Y448806D01*
X221252Y448726D01*
X221230Y448708D01*
X221205Y448694D01*
X221073Y448582D01*
X220939Y448473D01*
X220918Y448449D01*
X220899Y448432D01*
X220846Y448365D01*
X220723Y448221D01*
X219706Y446822D01*
X218378Y445494D01*
X216857Y444389D01*
X215183Y443536D01*
X213396Y442955D01*
X213139Y442915D01*
X213139Y454092D01*
X213137Y454110D01*
X213139Y454127D01*
X213118Y454310D01*
X213099Y454492D01*
X213094Y454509D01*
X213092Y454527D01*
X213067Y454605D01*
X213106Y454742D01*
X213108Y454760D01*
X213112Y454777D01*
X213139Y455108D01*
X213139Y466285D01*
X213396Y466245D01*
X215183Y465664D01*
X216857Y464811D01*
X218378Y463706D01*
X219706Y462378D01*
X220723Y460979D01*
X220838Y460850D01*
X220949Y460718D01*
X220971Y460700D01*
X220991Y460678D01*
X221129Y460574D01*
X221264Y460467D01*
X221289Y460453D01*
X221312Y460436D01*
X221468Y460361D01*
X221622Y460283D01*
X221649Y460275D01*
X221676Y460262D01*
X221843Y460220D01*
X222009Y460173D01*
X222038Y460171D01*
X222066Y460164D01*
X222239Y460155D01*
X222411Y460142D01*
X222439Y460145D01*
X222468Y460144D01*
X222639Y460170D01*
X222810Y460190D01*
X222838Y460200D01*
X222866Y460204D01*
X223029Y460263D01*
X223192Y460317D01*
X223217Y460331D01*
X223245Y460341D01*
X223392Y460431D01*
X223542Y460516D01*
X223564Y460535D01*
X223589Y460550D01*
X223716Y460668D01*
X223846Y460781D01*
X223863Y460804D01*
X223885Y460823D01*
X223986Y460964D01*
X224091Y461100D01*
X224106Y461129D01*
X224121Y461149D01*
X224156Y461227D01*
X224243Y461395D01*
X224587Y462226D01*
X228374Y466013D01*
X233322Y468063D01*
X238678Y468063D01*
X243626Y466013D01*
X247264Y462375D01*
X247277Y462364D01*
X247289Y462351D01*
X247433Y462237D01*
X247575Y462120D01*
X247591Y462112D01*
X247605Y462101D01*
X247769Y462018D01*
X247931Y461932D01*
X247948Y461927D01*
X247964Y461919D01*
X248141Y461869D01*
X248317Y461817D01*
X248335Y461815D01*
X248352Y461811D01*
X248535Y461797D01*
X248718Y461781D01*
X248736Y461783D01*
X248753Y461781D01*
X248935Y461804D01*
X249118Y461824D01*
X249135Y461829D01*
X249153Y461832D01*
X249326Y461890D01*
X249502Y461946D01*
X249518Y461954D01*
X249534Y461960D01*
X249694Y462052D01*
X249854Y462140D01*
X249868Y462152D01*
X249883Y462161D01*
X250136Y462375D01*
X253774Y466013D01*
X254557Y466338D01*
X254577Y466348D01*
X254598Y466355D01*
X254754Y466443D01*
X254912Y466528D01*
X254929Y466542D01*
X254949Y466553D01*
X255084Y466670D01*
X255223Y466784D01*
X255237Y466802D01*
X255254Y466816D01*
X255363Y466958D01*
X255476Y467097D01*
X255487Y467117D01*
X255500Y467134D01*
X255580Y467295D01*
X255663Y467453D01*
X255670Y467475D01*
X255680Y467495D01*
X255726Y467669D01*
X255776Y467840D01*
X255778Y467862D01*
X255784Y467884D01*
X255811Y468214D01*
X255811Y472512D01*
X256662Y474566D01*
X266834Y484738D01*
X268888Y485589D01*
X771112Y485589D01*
X773166Y484738D01*
X799863Y458041D01*
X799873Y458032D01*
X799881Y458023D01*
X800029Y457905D01*
X800175Y457785D01*
X800186Y457780D01*
X800196Y457771D01*
X800366Y457684D01*
X800530Y457597D01*
X800542Y457593D01*
X800554Y457587D01*
X800737Y457535D01*
X800916Y457482D01*
X800929Y457481D01*
X800941Y457477D01*
X801272Y457446D01*
X806435Y457375D01*
X806471Y457378D01*
X806507Y457375D01*
X806671Y457395D01*
X806836Y457409D01*
X806871Y457420D01*
X806907Y457424D01*
X807064Y457476D01*
X807223Y457522D01*
X807255Y457539D01*
X807289Y457551D01*
X807433Y457633D01*
X807579Y457709D01*
X807607Y457732D01*
X807639Y457750D01*
X807764Y457859D01*
X807892Y457963D01*
X807915Y457991D01*
X807943Y458015D01*
X808043Y458145D01*
X808149Y458273D01*
X808166Y458305D01*
X808188Y458334D01*
X808336Y458622D01*
X808339Y458628D01*
X808340Y458629D01*
X808587Y459226D01*
X812225Y462864D01*
X812236Y462877D01*
X812249Y462889D01*
X812363Y463033D01*
X812480Y463175D01*
X812488Y463191D01*
X812499Y463205D01*
X812582Y463369D01*
X812668Y463531D01*
X812673Y463548D01*
X812681Y463564D01*
X812731Y463741D01*
X812783Y463917D01*
X812785Y463935D01*
X812789Y463952D01*
X812803Y464135D01*
X812819Y464318D01*
X812817Y464336D01*
X812819Y464353D01*
X812796Y464534D01*
X812776Y464718D01*
X812771Y464735D01*
X812768Y464753D01*
X812710Y464926D01*
X812654Y465102D01*
X812646Y465118D01*
X812640Y465134D01*
X812548Y465294D01*
X812460Y465454D01*
X812448Y465468D01*
X812439Y465483D01*
X812225Y465736D01*
X808587Y469374D01*
X806537Y474322D01*
X806537Y479678D01*
X808587Y484626D01*
X812374Y488413D01*
X813205Y488757D01*
X813357Y488839D01*
X813511Y488916D01*
X813534Y488934D01*
X813560Y488947D01*
X813693Y489057D01*
X813829Y489164D01*
X813848Y489186D01*
X813870Y489204D01*
X813979Y489338D01*
X814091Y489469D01*
X814106Y489494D01*
X814124Y489517D01*
X814204Y489669D01*
X814289Y489820D01*
X814297Y489848D01*
X814311Y489873D01*
X814359Y490039D01*
X814413Y490203D01*
X814416Y490232D01*
X814424Y490259D01*
X814439Y490432D01*
X814458Y490603D01*
X814456Y490632D01*
X814459Y490661D01*
X814439Y490832D01*
X814425Y491004D01*
X814417Y491032D01*
X814413Y491061D01*
X814361Y491225D01*
X814312Y491391D01*
X814299Y491416D01*
X814290Y491444D01*
X814206Y491594D01*
X814126Y491748D01*
X814108Y491770D01*
X814094Y491795D01*
X813982Y491926D01*
X813873Y492061D01*
X813849Y492082D01*
X813832Y492101D01*
X813765Y492154D01*
X813621Y492277D01*
X812222Y493294D01*
X810894Y494622D01*
X809789Y496143D01*
X808936Y497817D01*
X808355Y499604D01*
X808315Y499861D01*
X819492Y499861D01*
X819510Y499862D01*
X819527Y499861D01*
X819710Y499882D01*
X819892Y499901D01*
X819909Y499906D01*
X819927Y499908D01*
X820005Y499933D01*
X820142Y499894D01*
X820160Y499892D01*
X820177Y499888D01*
X820508Y499861D01*
X831685Y499861D01*
X831645Y499604D01*
X831064Y497817D01*
X830211Y496143D01*
X829106Y494622D01*
X827778Y493294D01*
X826379Y492277D01*
X826250Y492163D01*
X826117Y492051D01*
X826099Y492029D01*
X826078Y492009D01*
X825974Y491872D01*
X825866Y491736D01*
X825853Y491711D01*
X825836Y491688D01*
X825761Y491532D01*
X825683Y491378D01*
X825675Y491350D01*
X825662Y491324D01*
X825620Y491157D01*
X825573Y490991D01*
X825571Y490962D01*
X825564Y490934D01*
X825555Y490761D01*
X825542Y490589D01*
X825545Y490561D01*
X825544Y490532D01*
X825570Y490361D01*
X825590Y490190D01*
X825599Y490163D01*
X825604Y490134D01*
X825663Y489971D01*
X825717Y489808D01*
X825731Y489783D01*
X825741Y489755D01*
X825831Y489608D01*
X825916Y489458D01*
X825935Y489436D01*
X825950Y489411D01*
X826068Y489284D01*
X826181Y489154D01*
X826204Y489137D01*
X826223Y489115D01*
X826363Y489014D01*
X826500Y488909D01*
X826529Y488894D01*
X826549Y488879D01*
X826626Y488844D01*
X826795Y488757D01*
X827626Y488413D01*
X831413Y484626D01*
X833463Y479678D01*
X833463Y474322D01*
X831413Y469374D01*
X827775Y465736D01*
X827764Y465722D01*
X827751Y465711D01*
X827637Y465567D01*
X827520Y465425D01*
X827512Y465409D01*
X827501Y465395D01*
X827417Y465231D01*
X827332Y465069D01*
X827327Y465052D01*
X827319Y465036D01*
X827269Y464859D01*
X827217Y464683D01*
X827215Y464665D01*
X827211Y464648D01*
X827197Y464464D01*
X827181Y464282D01*
X827183Y464264D01*
X827181Y464247D01*
X827204Y464065D01*
X827224Y463882D01*
X827229Y463865D01*
X827232Y463847D01*
X827290Y463673D01*
X827346Y463498D01*
X827354Y463482D01*
X827360Y463466D01*
X827452Y463306D01*
X827540Y463146D01*
X827552Y463132D01*
X827561Y463117D01*
X827775Y462864D01*
X831413Y459226D01*
X833463Y454278D01*
X833463Y448922D01*
X831413Y443974D01*
X827775Y440336D01*
X827764Y440322D01*
X827751Y440311D01*
X827637Y440167D01*
X827520Y440025D01*
X827512Y440009D01*
X827501Y439995D01*
X827417Y439831D01*
X827332Y439669D01*
X827327Y439652D01*
X827319Y439636D01*
X827269Y439459D01*
X827217Y439283D01*
X827215Y439265D01*
X827211Y439248D01*
X827197Y439065D01*
X827181Y438882D01*
X827183Y438864D01*
X827181Y438847D01*
X827204Y438665D01*
X827224Y438482D01*
X827229Y438465D01*
X827232Y438447D01*
X827290Y438273D01*
X827346Y438098D01*
X827354Y438082D01*
X827360Y438066D01*
X827452Y437906D01*
X827540Y437746D01*
X827552Y437732D01*
X827561Y437717D01*
X827775Y437464D01*
X831413Y433826D01*
X833463Y428878D01*
X833463Y423522D01*
X831413Y418574D01*
X827775Y414936D01*
X827764Y414923D01*
X827751Y414911D01*
X827637Y414767D01*
X827520Y414625D01*
X827512Y414609D01*
X827501Y414595D01*
X827418Y414431D01*
X827332Y414269D01*
X827327Y414252D01*
X827319Y414236D01*
X827269Y414059D01*
X827217Y413883D01*
X827215Y413865D01*
X827211Y413848D01*
X827197Y413665D01*
X827181Y413482D01*
X827183Y413464D01*
X827181Y413447D01*
X827204Y413265D01*
X827224Y413082D01*
X827229Y413065D01*
X827232Y413047D01*
X827290Y412874D01*
X827346Y412698D01*
X827354Y412682D01*
X827360Y412666D01*
X827452Y412506D01*
X827540Y412346D01*
X827552Y412332D01*
X827561Y412317D01*
X827775Y412064D01*
X831413Y408426D01*
X833463Y403478D01*
X833463Y398122D01*
X831413Y393174D01*
X827775Y389536D01*
X827764Y389522D01*
X827751Y389511D01*
X827637Y389367D01*
X827520Y389225D01*
X827512Y389209D01*
X827501Y389195D01*
X827417Y389031D01*
X827332Y388869D01*
X827327Y388852D01*
X827319Y388836D01*
X827269Y388659D01*
X827217Y388483D01*
X827215Y388465D01*
X827211Y388448D01*
X827197Y388265D01*
X827181Y388082D01*
X827183Y388064D01*
X827181Y388047D01*
X827204Y387865D01*
X827224Y387682D01*
X827229Y387665D01*
X827232Y387647D01*
X827290Y387473D01*
X827346Y387298D01*
X827354Y387282D01*
X827360Y387266D01*
X827452Y387106D01*
X827540Y386946D01*
X827552Y386932D01*
X827561Y386917D01*
X827775Y386664D01*
X831413Y383026D01*
X833463Y378078D01*
X833463Y372722D01*
X831413Y367774D01*
X827775Y364136D01*
X827764Y364122D01*
X827751Y364111D01*
X827637Y363967D01*
X827520Y363825D01*
X827512Y363809D01*
X827501Y363795D01*
X827417Y363631D01*
X827332Y363469D01*
X827327Y363452D01*
X827319Y363436D01*
X827269Y363259D01*
X827217Y363083D01*
X827215Y363065D01*
X827211Y363048D01*
X827197Y362865D01*
X827181Y362682D01*
X827183Y362664D01*
X827181Y362647D01*
X827204Y362465D01*
X827224Y362282D01*
X827229Y362265D01*
X827232Y362247D01*
X827290Y362073D01*
X827346Y361898D01*
X827354Y361882D01*
X827360Y361866D01*
X827452Y361706D01*
X827540Y361546D01*
X827552Y361532D01*
X827561Y361517D01*
X827775Y361264D01*
X831413Y357626D01*
X831738Y356843D01*
X831748Y356823D01*
X831755Y356802D01*
X831843Y356646D01*
X831928Y356488D01*
X831942Y356471D01*
X831953Y356451D01*
X832070Y356316D01*
X832184Y356177D01*
X832202Y356163D01*
X832216Y356146D01*
X832358Y356037D01*
X832497Y355924D01*
X832517Y355913D01*
X832534Y355900D01*
X832695Y355820D01*
X832853Y355737D01*
X832875Y355730D01*
X832895Y355720D01*
X833069Y355674D01*
X833240Y355624D01*
X833262Y355622D01*
X833284Y355616D01*
X833614Y355589D01*
X836844Y355589D01*
X836870Y355591D01*
X836897Y355589D01*
X837071Y355611D01*
X837244Y355629D01*
X837270Y355636D01*
X837296Y355640D01*
X837462Y355695D01*
X837629Y355747D01*
X837653Y355760D01*
X837678Y355768D01*
X837830Y355855D01*
X837983Y355939D01*
X838004Y355956D01*
X838027Y355969D01*
X838280Y356184D01*
X843816Y361720D01*
X843833Y361741D01*
X843854Y361758D01*
X843961Y361896D01*
X844071Y362032D01*
X844084Y362055D01*
X844100Y362076D01*
X844178Y362233D01*
X844260Y362387D01*
X844268Y362413D01*
X844280Y362437D01*
X844325Y362606D01*
X844375Y362773D01*
X844377Y362800D01*
X844384Y362826D01*
X844411Y363156D01*
X844411Y686844D01*
X844409Y686870D01*
X844411Y686897D01*
X844389Y687071D01*
X844371Y687244D01*
X844364Y687270D01*
X844360Y687296D01*
X844305Y687462D01*
X844253Y687629D01*
X844240Y687653D01*
X844232Y687678D01*
X844145Y687830D01*
X844061Y687983D01*
X844044Y688004D01*
X844031Y688027D01*
X843816Y688280D01*
X733180Y798916D01*
X733159Y798933D01*
X733142Y798954D01*
X733004Y799061D01*
X732868Y799171D01*
X732845Y799184D01*
X732824Y799200D01*
X732667Y799278D01*
X732513Y799360D01*
X732487Y799368D01*
X732463Y799380D01*
X732294Y799425D01*
X732127Y799475D01*
X732100Y799477D01*
X732074Y799484D01*
X731744Y799511D01*
X180414Y799511D01*
X180392Y799509D01*
X180370Y799511D01*
X180192Y799489D01*
X180014Y799471D01*
X179992Y799465D01*
X179970Y799462D01*
X179801Y799406D01*
X179629Y799353D01*
X179609Y799343D01*
X179588Y799336D01*
X179432Y799247D01*
X179275Y799161D01*
X179258Y799147D01*
X179238Y799136D01*
X179102Y799018D01*
X178965Y798904D01*
X178952Y798886D01*
X178935Y798872D01*
X178825Y798730D01*
X178713Y798590D01*
X178703Y798570D01*
X178689Y798552D01*
X178538Y798257D01*
X178213Y797474D01*
X174426Y793687D01*
X173827Y793439D01*
X173595Y793343D01*
X173443Y793261D01*
X173289Y793184D01*
X173266Y793166D01*
X173240Y793153D01*
X173107Y793043D01*
X172971Y792936D01*
X172952Y792914D01*
X172930Y792896D01*
X172821Y792762D01*
X172709Y792631D01*
X172694Y792606D01*
X172676Y792583D01*
X172596Y792431D01*
X172511Y792280D01*
X172503Y792252D01*
X172489Y792227D01*
X172441Y792061D01*
X172387Y791897D01*
X172384Y791868D01*
X172376Y791841D01*
X172361Y791668D01*
X172342Y791497D01*
X172344Y791468D01*
X172341Y791439D01*
X172361Y791268D01*
X172375Y791096D01*
X172383Y791068D01*
X172387Y791039D01*
X172439Y790875D01*
X172488Y790709D01*
X172501Y790684D01*
X172510Y790656D01*
X172594Y790506D01*
X172674Y790352D01*
X172692Y790330D01*
X172706Y790305D01*
X172818Y790174D01*
X172927Y790039D01*
X172951Y790018D01*
X172968Y789999D01*
X173035Y789946D01*
X173179Y789823D01*
X174578Y788806D01*
X175906Y787478D01*
X177011Y785957D01*
X177864Y784283D01*
X178445Y782496D01*
X178485Y782239D01*
X167308Y782239D01*
X167290Y782237D01*
X167273Y782239D01*
X167090Y782218D01*
X166908Y782199D01*
X166891Y782194D01*
X166873Y782192D01*
X166795Y782167D01*
X166658Y782206D01*
X166640Y782208D01*
X166623Y782212D01*
X166292Y782239D01*
X155115Y782239D01*
X155155Y782496D01*
X155736Y784283D01*
X156589Y785957D01*
X157694Y787478D01*
X159022Y788806D01*
X160421Y789823D01*
X160550Y789937D01*
X160683Y790049D01*
X160701Y790071D01*
X160722Y790091D01*
X160826Y790228D01*
X160934Y790364D01*
X160947Y790389D01*
X160964Y790412D01*
X161039Y790568D01*
X161117Y790722D01*
X161125Y790750D01*
X161138Y790776D01*
X161180Y790943D01*
X161227Y791109D01*
X161229Y791138D01*
X161236Y791166D01*
X161245Y791339D01*
X161258Y791511D01*
X161255Y791539D01*
X161256Y791568D01*
X161230Y791739D01*
X161210Y791910D01*
X161201Y791937D01*
X161196Y791966D01*
X161137Y792129D01*
X161083Y792292D01*
X161069Y792317D01*
X161059Y792345D01*
X160969Y792492D01*
X160884Y792642D01*
X160865Y792664D01*
X160850Y792689D01*
X160732Y792816D01*
X160619Y792946D01*
X160596Y792963D01*
X160577Y792985D01*
X160437Y793086D01*
X160300Y793191D01*
X160271Y793206D01*
X160251Y793221D01*
X160174Y793256D01*
X160005Y793343D01*
X159174Y793687D01*
X155387Y797474D01*
X153337Y802422D01*
X153337Y807778D01*
X155387Y812726D01*
X159025Y816364D01*
X159036Y816378D01*
X159049Y816389D01*
X159163Y816533D01*
X159280Y816675D01*
X159288Y816691D01*
X159299Y816705D01*
X159383Y816869D01*
X159468Y817031D01*
X159473Y817048D01*
X159481Y817064D01*
X159531Y817241D01*
X159583Y817417D01*
X159585Y817435D01*
X159589Y817452D01*
X159603Y817635D01*
X159619Y817818D01*
X159617Y817836D01*
X159619Y817853D01*
X159596Y818035D01*
X159576Y818218D01*
X159571Y818235D01*
X159568Y818253D01*
X159510Y818427D01*
X159454Y818602D01*
X159446Y818618D01*
X159440Y818634D01*
X159348Y818794D01*
X159260Y818954D01*
X159248Y818968D01*
X159239Y818983D01*
X159025Y819236D01*
X155326Y822935D01*
X155293Y822996D01*
X155279Y823013D01*
X155268Y823033D01*
X155151Y823168D01*
X155037Y823306D01*
X155019Y823321D01*
X155005Y823338D01*
X154863Y823447D01*
X154724Y823560D01*
X154704Y823571D01*
X154687Y823584D01*
X154526Y823664D01*
X154368Y823747D01*
X154346Y823754D01*
X154326Y823764D01*
X154153Y823810D01*
X153981Y823860D01*
X153959Y823862D01*
X153937Y823868D01*
X153607Y823895D01*
X144077Y823895D01*
X144051Y823893D01*
X144024Y823895D01*
X143850Y823873D01*
X143677Y823855D01*
X143651Y823848D01*
X143624Y823844D01*
X143459Y823789D01*
X143292Y823737D01*
X143268Y823724D01*
X143243Y823716D01*
X143091Y823629D01*
X142938Y823545D01*
X142917Y823528D01*
X142894Y823515D01*
X142641Y823300D01*
X137200Y817859D01*
X137183Y817838D01*
X137162Y817821D01*
X137055Y817683D01*
X136945Y817548D01*
X136932Y817524D01*
X136916Y817503D01*
X136838Y817346D01*
X136756Y817192D01*
X136748Y817166D01*
X136736Y817142D01*
X136691Y816973D01*
X136641Y816806D01*
X136639Y816779D01*
X136632Y816754D01*
X136605Y816423D01*
X136605Y753577D01*
X136607Y753551D01*
X136605Y753524D01*
X136627Y753350D01*
X136645Y753177D01*
X136652Y753151D01*
X136656Y753124D01*
X136711Y752959D01*
X136763Y752792D01*
X136776Y752768D01*
X136784Y752743D01*
X136871Y752591D01*
X136955Y752438D01*
X136972Y752417D01*
X136985Y752394D01*
X137200Y752141D01*
X165399Y723941D01*
X166405Y721514D01*
X166405Y520849D01*
X166406Y520840D01*
X166405Y520831D01*
X166426Y520638D01*
X166445Y520448D01*
X166447Y520440D01*
X166448Y520431D01*
X166507Y520247D01*
X166563Y520064D01*
X166567Y520056D01*
X166570Y520047D01*
X166663Y519879D01*
X166755Y519710D01*
X166760Y519703D01*
X166765Y519695D01*
X166889Y519548D01*
X167012Y519400D01*
X167019Y519395D01*
X167025Y519388D01*
X167177Y519268D01*
X167326Y519148D01*
X167334Y519144D01*
X167341Y519138D01*
X167514Y519050D01*
X167683Y518962D01*
X167692Y518960D01*
X167700Y518956D01*
X167886Y518904D01*
X168070Y518851D01*
X168079Y518850D01*
X168088Y518848D01*
X168281Y518834D01*
X168472Y518818D01*
X168480Y518819D01*
X168489Y518819D01*
X168682Y518843D01*
X168871Y518865D01*
X168880Y518868D01*
X168889Y518869D01*
X169071Y518930D01*
X169254Y518990D01*
X169262Y518994D01*
X169270Y518997D01*
X169437Y519093D01*
X169605Y519188D01*
X169612Y519194D01*
X169619Y519198D01*
X169872Y519413D01*
X182017Y531557D01*
X182022Y531564D01*
X183231Y532772D01*
X183232Y532772D01*
X183232Y532773D01*
X184160Y533700D01*
X185356Y534195D01*
X185357Y534195D01*
X185357Y534196D01*
X186588Y534705D01*
X187897Y534705D01*
X187898Y534705D01*
X189609Y534705D01*
X189619Y534704D01*
X806808Y534411D01*
X806831Y534413D01*
X806854Y534411D01*
X807031Y534433D01*
X807209Y534451D01*
X807231Y534457D01*
X807253Y534460D01*
X807423Y534516D01*
X807594Y534569D01*
X807614Y534580D01*
X807636Y534587D01*
X807791Y534675D01*
X807948Y534760D01*
X807966Y534775D01*
X807985Y534786D01*
X808120Y534903D01*
X808257Y535018D01*
X808272Y535036D01*
X808289Y535051D01*
X808398Y535192D01*
X808510Y535331D01*
X808520Y535352D01*
X808534Y535370D01*
X808538Y535377D01*
X812225Y539064D01*
X812236Y539077D01*
X812249Y539089D01*
X812363Y539233D01*
X812480Y539375D01*
X812488Y539391D01*
X812499Y539405D01*
X812582Y539569D01*
X812668Y539731D01*
X812673Y539748D01*
X812681Y539764D01*
X812731Y539941D01*
X812783Y540117D01*
X812785Y540135D01*
X812789Y540152D01*
X812803Y540335D01*
X812819Y540518D01*
X812817Y540536D01*
X812819Y540553D01*
X812796Y540735D01*
X812776Y540918D01*
X812771Y540935D01*
X812768Y540953D01*
X812710Y541126D01*
X812654Y541302D01*
X812646Y541318D01*
X812640Y541334D01*
X812548Y541494D01*
X812460Y541654D01*
X812448Y541668D01*
X812439Y541683D01*
X812225Y541936D01*
X808587Y545574D01*
X806537Y550522D01*
X806537Y555878D01*
X808587Y560826D01*
X812225Y564464D01*
X812236Y564477D01*
X812249Y564489D01*
X812363Y564633D01*
X812480Y564775D01*
X812488Y564791D01*
X812499Y564805D01*
X812582Y564969D01*
X812668Y565131D01*
X812673Y565148D01*
X812681Y565164D01*
X812731Y565341D01*
X812783Y565517D01*
X812785Y565535D01*
X812789Y565552D01*
X812803Y565735D01*
X812819Y565918D01*
X812817Y565936D01*
X812819Y565953D01*
X812796Y566135D01*
X812776Y566318D01*
X812771Y566335D01*
X812768Y566353D01*
X812710Y566526D01*
X812654Y566702D01*
X812646Y566718D01*
X812640Y566734D01*
X812548Y566894D01*
X812460Y567054D01*
X812448Y567068D01*
X812439Y567083D01*
X812225Y567336D01*
X808587Y570974D01*
X806537Y575922D01*
X806537Y581278D01*
X808587Y586226D01*
X812374Y590013D01*
X813863Y590630D01*
X817322Y592063D01*
X822678Y592063D01*
X827626Y590013D01*
X831413Y586226D01*
X833463Y581278D01*
X833463Y575922D01*
X831413Y570974D01*
X827775Y567336D01*
X827764Y567322D01*
X827751Y567311D01*
X827637Y567167D01*
X827520Y567025D01*
X827512Y567009D01*
X827501Y566995D01*
X827417Y566831D01*
X827332Y566669D01*
X827327Y566652D01*
X827319Y566636D01*
X827269Y566459D01*
X827217Y566283D01*
X827215Y566265D01*
X827211Y566248D01*
X827197Y566065D01*
X827181Y565882D01*
X827183Y565864D01*
X827181Y565847D01*
X827204Y565665D01*
X827224Y565482D01*
X827229Y565465D01*
X827232Y565447D01*
X827290Y565273D01*
X827346Y565098D01*
X827354Y565082D01*
X827360Y565066D01*
X827452Y564906D01*
X827540Y564746D01*
X827552Y564732D01*
X827561Y564717D01*
X827775Y564464D01*
X831413Y560826D01*
X833463Y555878D01*
X833463Y550522D01*
X831413Y545574D01*
X827775Y541936D01*
X827764Y541922D01*
X827751Y541911D01*
X827637Y541767D01*
X827520Y541625D01*
X827512Y541609D01*
X827501Y541595D01*
X827417Y541431D01*
X827332Y541269D01*
X827327Y541252D01*
X827319Y541236D01*
X827269Y541059D01*
X827217Y540883D01*
X827215Y540865D01*
X827211Y540848D01*
X827197Y540665D01*
X827181Y540482D01*
X827183Y540464D01*
X827181Y540447D01*
X827204Y540265D01*
X827224Y540082D01*
X827229Y540065D01*
X827232Y540047D01*
X827290Y539873D01*
X827346Y539698D01*
X827354Y539682D01*
X827360Y539666D01*
X827452Y539506D01*
X827540Y539346D01*
X827552Y539332D01*
X827561Y539317D01*
X827775Y539064D01*
X831413Y535426D01*
X833463Y530478D01*
X833463Y525122D01*
X831413Y520174D01*
X827626Y516387D01*
X826795Y516043D01*
X826643Y515961D01*
X826489Y515884D01*
X826466Y515866D01*
X826440Y515853D01*
X826307Y515743D01*
X826171Y515636D01*
X826152Y515614D01*
X826130Y515596D01*
X826021Y515462D01*
X825909Y515331D01*
X825894Y515306D01*
X825876Y515283D01*
X825796Y515131D01*
X825711Y514980D01*
X825703Y514952D01*
X825689Y514927D01*
X825641Y514761D01*
X825587Y514597D01*
X825584Y514568D01*
X825576Y514541D01*
X825561Y514368D01*
X825542Y514197D01*
X825544Y514168D01*
X825541Y514139D01*
X825561Y513968D01*
X825575Y513796D01*
X825583Y513768D01*
X825587Y513739D01*
X825639Y513575D01*
X825688Y513409D01*
X825701Y513384D01*
X825710Y513356D01*
X825794Y513206D01*
X825874Y513052D01*
X825892Y513030D01*
X825906Y513005D01*
X826018Y512874D01*
X826127Y512739D01*
X826151Y512718D01*
X826168Y512699D01*
X826235Y512646D01*
X826379Y512523D01*
X827778Y511506D01*
X829106Y510178D01*
X830211Y508657D01*
X831064Y506983D01*
X831645Y505196D01*
X831685Y504939D01*
X820508Y504939D01*
X820490Y504937D01*
X820473Y504939D01*
X820290Y504918D01*
X820108Y504899D01*
X820091Y504894D01*
X820073Y504892D01*
X819995Y504867D01*
X819858Y504906D01*
X819840Y504908D01*
X819823Y504912D01*
X819492Y504939D01*
X808315Y504939D01*
X808355Y505196D01*
X808936Y506983D01*
X809789Y508657D01*
X810894Y510178D01*
X812222Y511506D01*
X813621Y512523D01*
X813750Y512637D01*
X813883Y512749D01*
X813901Y512771D01*
X813922Y512791D01*
X814026Y512928D01*
X814134Y513064D01*
X814147Y513089D01*
X814164Y513112D01*
X814239Y513268D01*
X814317Y513422D01*
X814325Y513450D01*
X814338Y513476D01*
X814380Y513643D01*
X814427Y513809D01*
X814429Y513838D01*
X814436Y513866D01*
X814445Y514039D01*
X814458Y514211D01*
X814455Y514239D01*
X814456Y514268D01*
X814430Y514439D01*
X814410Y514610D01*
X814401Y514637D01*
X814396Y514666D01*
X814337Y514829D01*
X814283Y514992D01*
X814269Y515017D01*
X814259Y515045D01*
X814169Y515192D01*
X814084Y515342D01*
X814065Y515364D01*
X814050Y515389D01*
X813932Y515516D01*
X813819Y515646D01*
X813796Y515663D01*
X813777Y515685D01*
X813637Y515786D01*
X813500Y515891D01*
X813471Y515906D01*
X813451Y515921D01*
X813374Y515956D01*
X813205Y516043D01*
X812374Y516387D01*
X808528Y520233D01*
X808491Y520302D01*
X808477Y520319D01*
X808466Y520338D01*
X808349Y520474D01*
X808234Y520613D01*
X808217Y520627D01*
X808203Y520643D01*
X808061Y520753D01*
X807922Y520866D01*
X807902Y520877D01*
X807885Y520890D01*
X807724Y520970D01*
X807565Y521054D01*
X807544Y521060D01*
X807524Y521070D01*
X807351Y521116D01*
X807179Y521167D01*
X807157Y521169D01*
X807136Y521174D01*
X806805Y521202D01*
X191476Y521494D01*
X191449Y521491D01*
X191422Y521493D01*
X191249Y521471D01*
X191076Y521454D01*
X191050Y521446D01*
X191023Y521442D01*
X190857Y521387D01*
X190691Y521336D01*
X190667Y521323D01*
X190641Y521314D01*
X190490Y521227D01*
X190337Y521144D01*
X190316Y521127D01*
X190292Y521113D01*
X190039Y520899D01*
X167000Y497859D01*
X166983Y497838D01*
X166962Y497821D01*
X166855Y497683D01*
X166745Y497548D01*
X166732Y497524D01*
X166716Y497503D01*
X166638Y497346D01*
X166556Y497192D01*
X166548Y497166D01*
X166536Y497142D01*
X166491Y496973D01*
X166441Y496806D01*
X166439Y496779D01*
X166432Y496754D01*
X166405Y496423D01*
X166405Y467793D01*
X166407Y467771D01*
X166405Y467749D01*
X166427Y467571D01*
X166445Y467393D01*
X166451Y467371D01*
X166454Y467349D01*
X166510Y467179D01*
X166563Y467008D01*
X166573Y466988D01*
X166580Y466967D01*
X166669Y466811D01*
X166755Y466654D01*
X166769Y466637D01*
X166780Y466617D01*
X166898Y466482D01*
X167012Y466345D01*
X167030Y466331D01*
X167044Y466314D01*
X167187Y466204D01*
X167326Y466092D01*
X167346Y466082D01*
X167364Y466068D01*
X167379Y466061D01*
X171064Y462375D01*
X171077Y462364D01*
X171089Y462351D01*
X171233Y462237D01*
X171375Y462120D01*
X171391Y462112D01*
X171405Y462101D01*
X171569Y462018D01*
X171731Y461932D01*
X171748Y461927D01*
X171764Y461919D01*
X171941Y461869D01*
X172117Y461817D01*
X172135Y461815D01*
X172152Y461811D01*
X172335Y461797D01*
X172518Y461781D01*
X172536Y461783D01*
X172553Y461781D01*
X172735Y461804D01*
X172918Y461824D01*
X172935Y461829D01*
X172953Y461832D01*
X173126Y461890D01*
X173302Y461946D01*
X173318Y461954D01*
X173334Y461960D01*
X173494Y462052D01*
X173654Y462140D01*
X173668Y462152D01*
X173683Y462161D01*
X173936Y462375D01*
X177574Y466013D01*
X182522Y468063D01*
X187878Y468063D01*
X192826Y466013D01*
X196613Y462226D01*
X196957Y461395D01*
X197039Y461243D01*
X197116Y461089D01*
X197134Y461066D01*
X197147Y461040D01*
X197257Y460907D01*
X197364Y460771D01*
X197386Y460752D01*
X197404Y460730D01*
X197538Y460621D01*
X197669Y460509D01*
X197694Y460494D01*
X197717Y460476D01*
X197869Y460396D01*
X198020Y460311D01*
X198048Y460303D01*
X198073Y460289D01*
X198239Y460241D01*
X198403Y460187D01*
X198432Y460184D01*
X198459Y460176D01*
X198632Y460161D01*
X198803Y460142D01*
X198832Y460144D01*
X198861Y460141D01*
X199032Y460161D01*
X199204Y460175D01*
X199232Y460183D01*
X199261Y460187D01*
X199425Y460239D01*
X199591Y460288D01*
X199616Y460301D01*
X199644Y460310D01*
X199794Y460394D01*
X199948Y460474D01*
X199970Y460492D01*
X199995Y460506D01*
X200126Y460618D01*
X200261Y460727D01*
X200282Y460751D01*
X200301Y460768D01*
X200354Y460835D01*
X200477Y460979D01*
X201494Y462378D01*
X202822Y463706D01*
X204343Y464811D01*
X206017Y465664D01*
X207804Y466245D01*
X208061Y466285D01*
X208061Y455108D01*
X208062Y455090D01*
X208061Y455073D01*
X208082Y454890D01*
X208101Y454708D01*
X208106Y454691D01*
X208108Y454673D01*
X208133Y454595D01*
X208094Y454458D01*
X208092Y454440D01*
X208088Y454423D01*
X208061Y454092D01*
X208061Y442915D01*
X207804Y442955D01*
X206017Y443536D01*
X204343Y444389D01*
X202822Y445494D01*
X201494Y446822D01*
X200477Y448221D01*
X200362Y448350D01*
X200251Y448482D01*
X200229Y448500D01*
X200209Y448522D01*
X200071Y448626D01*
X199936Y448733D01*
X199911Y448747D01*
X199888Y448764D01*
X199732Y448839D01*
X199578Y448917D01*
X199551Y448925D01*
X199524Y448938D01*
X199357Y448980D01*
X199191Y449027D01*
X199162Y449029D01*
X199134Y449036D01*
X198961Y449045D01*
X198789Y449058D01*
X198761Y449055D01*
X198732Y449056D01*
X198561Y449030D01*
X198390Y449010D01*
X198362Y449000D01*
X198334Y448996D01*
X198171Y448937D01*
X198008Y448883D01*
X197983Y448869D01*
X197955Y448859D01*
X197808Y448769D01*
X197658Y448684D01*
X197636Y448665D01*
X197611Y448650D01*
X197484Y448532D01*
X197354Y448419D01*
X197337Y448396D01*
X197315Y448377D01*
X197214Y448236D01*
X197109Y448100D01*
X197094Y448071D01*
X197079Y448051D01*
X197044Y447973D01*
X196957Y447805D01*
X196613Y446974D01*
X192826Y443187D01*
X187878Y441137D01*
X182522Y441137D01*
X177574Y443187D01*
X173936Y446825D01*
X173922Y446836D01*
X173911Y446849D01*
X173767Y446963D01*
X173625Y447080D01*
X173609Y447088D01*
X173595Y447099D01*
X173431Y447183D01*
X173269Y447268D01*
X173252Y447273D01*
X173236Y447281D01*
X173059Y447331D01*
X172883Y447383D01*
X172865Y447385D01*
X172848Y447389D01*
X172665Y447403D01*
X172482Y447419D01*
X172464Y447417D01*
X172447Y447419D01*
X172265Y447396D01*
X172082Y447376D01*
X172065Y447371D01*
X172047Y447368D01*
X171873Y447310D01*
X171698Y447254D01*
X171682Y447246D01*
X171666Y447240D01*
X171506Y447148D01*
X171346Y447060D01*
X171332Y447048D01*
X171317Y447039D01*
X171064Y446825D01*
X167426Y443187D01*
X162478Y441137D01*
X158436Y441137D01*
X158418Y441135D01*
X158400Y441137D01*
X158218Y441116D01*
X158035Y441097D01*
X158018Y441092D01*
X158001Y441090D01*
X157826Y441033D01*
X157650Y440979D01*
X157635Y440971D01*
X157618Y440965D01*
X157458Y440875D01*
X157296Y440787D01*
X157283Y440776D01*
X157267Y440767D01*
X157128Y440647D01*
X156987Y440530D01*
X156976Y440516D01*
X156962Y440504D01*
X156850Y440359D01*
X156735Y440216D01*
X156727Y440200D01*
X156716Y440186D01*
X156634Y440021D01*
X156549Y439859D01*
X156544Y439842D01*
X156536Y439826D01*
X156489Y439647D01*
X156438Y439472D01*
X156436Y439454D01*
X156432Y439437D01*
X156405Y439106D01*
X156405Y129730D01*
X156407Y129708D01*
X156405Y129686D01*
X156427Y129508D01*
X156445Y129330D01*
X156451Y129308D01*
X156454Y129286D01*
X156510Y129116D01*
X156563Y128945D01*
X156573Y128925D01*
X156580Y128904D01*
X156669Y128748D01*
X156755Y128591D01*
X156769Y128574D01*
X156780Y128554D01*
X156898Y128419D01*
X157012Y128281D01*
X157030Y128267D01*
X157044Y128251D01*
X157186Y128141D01*
X157326Y128029D01*
X157346Y128019D01*
X157364Y128005D01*
X157659Y127854D01*
X162826Y125713D01*
X166613Y121926D01*
X166957Y121095D01*
X167039Y120943D01*
X167116Y120789D01*
X167134Y120766D01*
X167147Y120740D01*
X167257Y120607D01*
X167364Y120471D01*
X167386Y120452D01*
X167404Y120430D01*
X167538Y120321D01*
X167669Y120209D01*
X167694Y120194D01*
X167717Y120176D01*
X167869Y120096D01*
X168020Y120011D01*
X168048Y120003D01*
X168073Y119989D01*
X168239Y119941D01*
X168403Y119887D01*
X168432Y119884D01*
X168459Y119876D01*
X168632Y119861D01*
X168803Y119842D01*
X168832Y119844D01*
X168861Y119841D01*
X169032Y119861D01*
X169204Y119875D01*
X169232Y119883D01*
X169261Y119887D01*
X169425Y119939D01*
X169591Y119988D01*
X169616Y120001D01*
X169644Y120010D01*
X169794Y120094D01*
X169948Y120174D01*
X169970Y120192D01*
X169995Y120206D01*
X170126Y120318D01*
X170261Y120427D01*
X170282Y120451D01*
X170301Y120468D01*
X170354Y120535D01*
X170477Y120679D01*
X171494Y122078D01*
X172822Y123406D01*
X174343Y124511D01*
X176017Y125364D01*
X177804Y125945D01*
X178061Y125985D01*
X178061Y114808D01*
X178062Y114790D01*
X178061Y114773D01*
X178082Y114590D01*
X178101Y114408D01*
X178106Y114391D01*
X178108Y114373D01*
X178133Y114295D01*
X178094Y114158D01*
X178092Y114140D01*
X178088Y114123D01*
X178061Y113792D01*
X178061Y102615D01*
X177804Y102655D01*
X176017Y103236D01*
X174343Y104089D01*
X172822Y105194D01*
X171494Y106522D01*
X170477Y107921D01*
X170363Y108050D01*
X170251Y108183D01*
X170229Y108201D01*
X170209Y108222D01*
X170072Y108326D01*
X169936Y108434D01*
X169911Y108447D01*
X169888Y108464D01*
X169732Y108539D01*
X169578Y108617D01*
X169550Y108625D01*
X169524Y108638D01*
X169357Y108680D01*
X169191Y108727D01*
X169162Y108729D01*
X169134Y108736D01*
X168961Y108745D01*
X168789Y108758D01*
X168761Y108755D01*
X168732Y108756D01*
X168561Y108730D01*
X168390Y108710D01*
X168363Y108701D01*
X168334Y108696D01*
X168171Y108637D01*
X168008Y108583D01*
X167983Y108569D01*
X167955Y108559D01*
X167808Y108469D01*
X167658Y108384D01*
X167636Y108365D01*
X167611Y108350D01*
X167484Y108232D01*
X167354Y108119D01*
X167337Y108096D01*
X167315Y108077D01*
X167214Y107937D01*
X167109Y107800D01*
X167094Y107771D01*
X167079Y107751D01*
X167044Y107674D01*
X166957Y107505D01*
X166613Y106674D01*
X162826Y102887D01*
X162551Y102773D01*
X162531Y102762D01*
X162510Y102755D01*
X162354Y102667D01*
X162196Y102583D01*
X162179Y102568D01*
X162159Y102557D01*
X162024Y102440D01*
X161885Y102326D01*
X161871Y102309D01*
X161854Y102294D01*
X161745Y102153D01*
X161632Y102014D01*
X161621Y101994D01*
X161608Y101976D01*
X161528Y101816D01*
X161445Y101657D01*
X161438Y101636D01*
X161428Y101616D01*
X161382Y101443D01*
X161332Y101271D01*
X161330Y101248D01*
X161324Y101227D01*
X161297Y100896D01*
X161297Y88167D01*
X161299Y88140D01*
X161297Y88113D01*
X161319Y87940D01*
X161337Y87766D01*
X161344Y87741D01*
X161348Y87714D01*
X161403Y87548D01*
X161455Y87381D01*
X161468Y87358D01*
X161476Y87332D01*
X161563Y87181D01*
X161647Y87027D01*
X161664Y87007D01*
X161677Y86983D01*
X161892Y86730D01*
X201930Y46692D01*
X201951Y46675D01*
X201969Y46654D01*
X202107Y46547D01*
X202242Y46437D01*
X202266Y46424D01*
X202287Y46408D01*
X202444Y46330D01*
X202598Y46248D01*
X202623Y46240D01*
X202647Y46228D01*
X202817Y46183D01*
X202984Y46133D01*
X203010Y46131D01*
X203036Y46124D01*
X203367Y46097D01*
X316633Y46097D01*
X316660Y46099D01*
G37*
G36*
X571999Y85589D02*
X571999Y85589D01*
X572003Y85589D01*
X572197Y85609D01*
X572395Y85629D01*
X572399Y85630D01*
X572404Y85630D01*
X572590Y85688D01*
X572780Y85747D01*
X572784Y85749D01*
X572788Y85750D01*
X572960Y85844D01*
X573134Y85939D01*
X573137Y85941D01*
X573141Y85944D01*
X573292Y86071D01*
X573443Y86196D01*
X573446Y86200D01*
X573450Y86203D01*
X573572Y86356D01*
X573696Y86510D01*
X573698Y86514D01*
X573700Y86517D01*
X573790Y86692D01*
X573881Y86867D01*
X573882Y86872D01*
X573884Y86876D01*
X573937Y87063D01*
X573993Y87254D01*
X573993Y87259D01*
X573994Y87263D01*
X574009Y87456D01*
X574025Y87656D01*
X574025Y87660D01*
X574025Y87664D01*
X574002Y87858D01*
X573978Y88055D01*
X573977Y88060D01*
X573977Y88064D01*
X573915Y88249D01*
X573854Y88438D01*
X573851Y88442D01*
X573850Y88446D01*
X573752Y88618D01*
X573656Y88789D01*
X573653Y88792D01*
X573651Y88796D01*
X573519Y88947D01*
X573393Y89093D01*
X573389Y89096D01*
X573386Y89100D01*
X573230Y89220D01*
X573074Y89340D01*
X573070Y89342D01*
X573067Y89345D01*
X572772Y89497D01*
X569174Y90987D01*
X565387Y94774D01*
X565043Y95605D01*
X564961Y95757D01*
X564884Y95911D01*
X564866Y95934D01*
X564853Y95960D01*
X564743Y96093D01*
X564636Y96229D01*
X564614Y96248D01*
X564596Y96270D01*
X564462Y96379D01*
X564331Y96491D01*
X564306Y96506D01*
X564283Y96524D01*
X564131Y96604D01*
X563980Y96689D01*
X563952Y96697D01*
X563927Y96711D01*
X563761Y96759D01*
X563597Y96813D01*
X563568Y96816D01*
X563541Y96824D01*
X563368Y96839D01*
X563197Y96858D01*
X563168Y96856D01*
X563139Y96859D01*
X562968Y96839D01*
X562796Y96825D01*
X562768Y96817D01*
X562739Y96813D01*
X562575Y96761D01*
X562409Y96712D01*
X562384Y96699D01*
X562356Y96690D01*
X562206Y96606D01*
X562052Y96526D01*
X562030Y96508D01*
X562005Y96494D01*
X561874Y96382D01*
X561739Y96273D01*
X561718Y96249D01*
X561699Y96232D01*
X561646Y96165D01*
X561523Y96021D01*
X560506Y94622D01*
X559178Y93294D01*
X557657Y92189D01*
X555983Y91336D01*
X554196Y90755D01*
X553939Y90715D01*
X553939Y101892D01*
X553937Y101910D01*
X553939Y101927D01*
X553918Y102109D01*
X553899Y102292D01*
X553894Y102309D01*
X553892Y102327D01*
X553867Y102405D01*
X553906Y102542D01*
X553908Y102560D01*
X553912Y102577D01*
X553939Y102908D01*
X553939Y114085D01*
X554196Y114045D01*
X555983Y113464D01*
X557657Y112611D01*
X559178Y111506D01*
X560506Y110178D01*
X561523Y108779D01*
X561637Y108650D01*
X561749Y108517D01*
X561771Y108499D01*
X561791Y108478D01*
X561928Y108374D01*
X562064Y108266D01*
X562089Y108253D01*
X562112Y108236D01*
X562268Y108161D01*
X562422Y108083D01*
X562450Y108075D01*
X562476Y108062D01*
X562643Y108020D01*
X562809Y107973D01*
X562838Y107971D01*
X562866Y107964D01*
X563039Y107955D01*
X563211Y107942D01*
X563239Y107945D01*
X563268Y107944D01*
X563439Y107970D01*
X563610Y107990D01*
X563637Y107999D01*
X563666Y108004D01*
X563829Y108063D01*
X563992Y108117D01*
X564017Y108131D01*
X564045Y108141D01*
X564192Y108231D01*
X564342Y108316D01*
X564364Y108335D01*
X564389Y108350D01*
X564516Y108468D01*
X564646Y108581D01*
X564663Y108604D01*
X564685Y108623D01*
X564786Y108763D01*
X564891Y108900D01*
X564906Y108929D01*
X564921Y108949D01*
X564956Y109026D01*
X565043Y109195D01*
X565387Y110026D01*
X569174Y113813D01*
X569957Y114138D01*
X569977Y114148D01*
X569998Y114155D01*
X570154Y114243D01*
X570312Y114328D01*
X570329Y114342D01*
X570349Y114353D01*
X570484Y114470D01*
X570623Y114584D01*
X570637Y114602D01*
X570654Y114616D01*
X570763Y114758D01*
X570876Y114897D01*
X570887Y114917D01*
X570900Y114934D01*
X570980Y115095D01*
X571063Y115253D01*
X571070Y115275D01*
X571080Y115295D01*
X571126Y115469D01*
X571176Y115640D01*
X571178Y115662D01*
X571184Y115684D01*
X571211Y116014D01*
X571211Y357912D01*
X572062Y359966D01*
X590680Y378584D01*
X590693Y378600D01*
X590719Y378626D01*
X590728Y378633D01*
X590732Y378638D01*
X591742Y379645D01*
X591742Y379646D01*
X591744Y379647D01*
X592537Y380441D01*
X592687Y380502D01*
X592692Y380505D01*
X592697Y380507D01*
X592868Y380599D01*
X593042Y380692D01*
X593046Y380696D01*
X593051Y380699D01*
X593199Y380822D01*
X593352Y380948D01*
X593356Y380953D01*
X593361Y380956D01*
X593483Y381109D01*
X593607Y381260D01*
X593609Y381266D01*
X593613Y381270D01*
X593702Y381443D01*
X593794Y381617D01*
X593796Y381622D01*
X593798Y381627D01*
X593851Y381811D01*
X593908Y382003D01*
X593908Y382009D01*
X593910Y382014D01*
X593926Y382207D01*
X593943Y382404D01*
X593942Y382410D01*
X593943Y382416D01*
X593920Y382608D01*
X593898Y382804D01*
X593896Y382810D01*
X593896Y382815D01*
X593835Y383001D01*
X593776Y383188D01*
X593773Y383193D01*
X593771Y383198D01*
X593674Y383369D01*
X593580Y383539D01*
X593576Y383544D01*
X593573Y383549D01*
X593445Y383698D01*
X593318Y383845D01*
X593314Y383849D01*
X593310Y383854D01*
X593155Y383974D01*
X593002Y384094D01*
X592996Y384097D01*
X592992Y384100D01*
X592817Y384187D01*
X592642Y384275D01*
X592636Y384277D01*
X592631Y384280D01*
X592441Y384331D01*
X592254Y384382D01*
X592248Y384383D01*
X592242Y384384D01*
X591912Y384411D01*
X533156Y384411D01*
X533130Y384409D01*
X533103Y384411D01*
X532929Y384389D01*
X532756Y384371D01*
X532730Y384364D01*
X532704Y384360D01*
X532538Y384305D01*
X532371Y384253D01*
X532347Y384240D01*
X532322Y384232D01*
X532170Y384145D01*
X532017Y384061D01*
X531996Y384044D01*
X531973Y384031D01*
X531720Y383816D01*
X526184Y378280D01*
X526167Y378259D01*
X526146Y378242D01*
X526039Y378104D01*
X525929Y377968D01*
X525916Y377945D01*
X525900Y377924D01*
X525822Y377767D01*
X525740Y377613D01*
X525732Y377587D01*
X525720Y377563D01*
X525675Y377394D01*
X525625Y377227D01*
X525623Y377200D01*
X525616Y377174D01*
X525589Y376844D01*
X525589Y93156D01*
X525591Y93130D01*
X525589Y93103D01*
X525611Y92929D01*
X525629Y92756D01*
X525636Y92730D01*
X525640Y92704D01*
X525695Y92538D01*
X525747Y92371D01*
X525760Y92347D01*
X525768Y92322D01*
X525855Y92170D01*
X525939Y92017D01*
X525956Y91996D01*
X525969Y91973D01*
X526184Y91720D01*
X531720Y86184D01*
X531741Y86167D01*
X531758Y86146D01*
X531896Y86039D01*
X532032Y85929D01*
X532055Y85916D01*
X532076Y85900D01*
X532233Y85822D01*
X532387Y85740D01*
X532413Y85732D01*
X532437Y85720D01*
X532606Y85675D01*
X532773Y85625D01*
X532800Y85623D01*
X532826Y85616D01*
X533156Y85589D01*
X571994Y85589D01*
X571999Y85589D01*
G37*
%LPC*%
G36*
X404188Y661539D02*
X404188Y661539D01*
X397788Y663254D01*
X392051Y666566D01*
X387366Y671251D01*
X384054Y676988D01*
X382339Y683388D01*
X382339Y690012D01*
X384054Y696412D01*
X387366Y702149D01*
X392051Y706834D01*
X397788Y710146D01*
X404188Y711861D01*
X410812Y711861D01*
X417212Y710146D01*
X422949Y706834D01*
X427634Y702149D01*
X430946Y696412D01*
X432661Y690012D01*
X432661Y683388D01*
X430946Y676988D01*
X427634Y671251D01*
X422949Y666566D01*
X417212Y663254D01*
X410812Y661539D01*
X404188Y661539D01*
G37*
%LPD*%
%LPC*%
G36*
X799188Y661539D02*
X799188Y661539D01*
X792788Y663254D01*
X787051Y666566D01*
X782366Y671251D01*
X779054Y676988D01*
X777339Y683388D01*
X777339Y690012D01*
X779054Y696412D01*
X782366Y702149D01*
X787051Y706834D01*
X792788Y710146D01*
X799188Y711861D01*
X805812Y711861D01*
X812212Y710146D01*
X817949Y706834D01*
X822634Y702149D01*
X825946Y696412D01*
X827661Y690012D01*
X827661Y683388D01*
X825946Y676988D01*
X822634Y671251D01*
X817949Y666566D01*
X812212Y663254D01*
X805812Y661539D01*
X799188Y661539D01*
G37*
%LPD*%
%LPC*%
G36*
X169339Y777161D02*
X169339Y777161D01*
X178485Y777161D01*
X178445Y776904D01*
X177864Y775117D01*
X177011Y773443D01*
X175906Y771922D01*
X174578Y770594D01*
X173057Y769489D01*
X171383Y768636D01*
X169596Y768055D01*
X169339Y768015D01*
X169339Y777161D01*
G37*
%LPD*%
%LPC*%
G36*
X539715Y104939D02*
X539715Y104939D01*
X539755Y105196D01*
X540336Y106983D01*
X541189Y108657D01*
X542294Y110178D01*
X543622Y111506D01*
X545143Y112611D01*
X546817Y113464D01*
X548604Y114045D01*
X548861Y114085D01*
X548861Y104939D01*
X539715Y104939D01*
G37*
%LPD*%
%LPC*%
G36*
X164004Y768055D02*
X164004Y768055D01*
X162217Y768636D01*
X160543Y769489D01*
X159022Y770594D01*
X157694Y771922D01*
X156589Y773443D01*
X155736Y775117D01*
X155155Y776904D01*
X155115Y777161D01*
X164261Y777161D01*
X164261Y768015D01*
X164004Y768055D01*
G37*
%LPD*%
%LPC*%
G36*
X548604Y90755D02*
X548604Y90755D01*
X546817Y91336D01*
X545143Y92189D01*
X543622Y93294D01*
X542294Y94622D01*
X541189Y96143D01*
X540336Y97817D01*
X539755Y99604D01*
X539715Y99861D01*
X548861Y99861D01*
X548861Y90715D01*
X548604Y90755D01*
G37*
%LPD*%
D10*
X551400Y102400D03*
X576800Y102400D03*
X602200Y102400D03*
X627600Y102400D03*
X166800Y830500D03*
X166800Y805100D03*
X166800Y779700D03*
X155200Y114300D03*
X180600Y114300D03*
X206000Y114300D03*
X231400Y114300D03*
X256800Y114300D03*
X282200Y114300D03*
X307600Y114300D03*
X159800Y454600D03*
X185200Y454600D03*
X210600Y454600D03*
X236000Y454600D03*
X261400Y454600D03*
X286800Y454600D03*
X820000Y350000D03*
X820000Y375400D03*
X820000Y400800D03*
X820000Y426200D03*
X820000Y451600D03*
X820000Y477000D03*
X820000Y502400D03*
X820000Y527800D03*
X820000Y553200D03*
X820000Y578600D03*
D11*
X155200Y114300D02*
X149800Y108900D01*
X149800Y444600D01*
X159800Y454600D01*
X159800Y500000D01*
X159800Y720200D01*
X130000Y750000D01*
X130000Y820000D01*
X140500Y830500D01*
X166800Y830500D01*
X187900Y528100D02*
X820000Y527800D01*
X187900Y528100D02*
X159800Y500000D01*
D12*
X155200Y114300D02*
X155200Y84800D01*
X200000Y40000D01*
X320000Y40000D02*
X350000Y70000D01*
X620000Y70000D01*
X627600Y77600D01*
X320000Y40000D02*
X200000Y40000D01*
X627600Y77600D02*
X627600Y102400D01*
D13*
X261400Y318600D02*
X261400Y454600D01*
X261400Y318600D02*
X280000Y300000D01*
X290000Y300000D01*
X307600Y282400D01*
X307600Y114300D01*
X261400Y454600D02*
X261400Y471400D01*
X270000Y480000D01*
X770000Y480000D01*
X798100Y451900D02*
X820000Y451600D01*
X798100Y451900D02*
X770000Y480000D01*
X236000Y454600D02*
X236000Y294000D01*
X250000Y280000D01*
X270000Y280000D01*
X282200Y267800D01*
X282200Y114300D01*
X282200Y97800D01*
X290000Y90000D01*
X320000Y90000D01*
X330000Y100000D01*
X330000Y410000D02*
X346497Y426497D01*
X330000Y410000D02*
X330000Y100000D01*
X346497Y426497D02*
X819703Y426497D01*
X820000Y426200D01*
X820000Y400800D02*
X808700Y390000D01*
X530000Y390000D01*
X602200Y102400D02*
X602200Y82200D01*
X600000Y80000D01*
X530000Y80000D01*
X520000Y90000D01*
X520000Y380000D02*
X530000Y390000D01*
X520000Y380000D02*
X520000Y90000D01*
X576800Y102400D02*
X576800Y356800D01*
X595700Y375700D02*
X820000Y375400D01*
X595700Y375700D02*
X576800Y356800D01*
X734900Y805100D02*
X166800Y805100D01*
X734900Y805100D02*
X850000Y690000D01*
X850000Y360000D01*
X840000Y350000D02*
X820000Y350000D01*
X840000Y350000D02*
X850000Y360000D01*
M02*
