M48
;GenerationSoftware,Autodesk,EAGLE,9.6.1*%
;CreationDate,2020-04-08T19:23:44Z*%
FMAT,2
ICI,OFF
METRIC,TZ,000.000
T5C0.700
T4C0.800
T3C0.813
T2C0.900
T1C1.016
%
G90
M71
T1
X82000Y57860
X82000Y55320
X82000Y52780
X82000Y50240
X82000Y47700
X82000Y45160
X82000Y42620
X82000Y40080
X82000Y37540
X82000Y35000
X16789Y62789
X16789Y69291
X21311Y62789
X21311Y69291
T2
X30480Y54610
X38100Y54610
T3
X30480Y62230
X33020Y62230
X35560Y62230
X38100Y62230
X40640Y62230
X43180Y62230
X45720Y62230
X48260Y62230
X50800Y62230
X53340Y62230
X55880Y62230
X58420Y62230
X60960Y62230
X63500Y62230
X63500Y69850
X60960Y69850
X58420Y69850
X55880Y69850
X53340Y69850
X50800Y69850
X48260Y69850
X45720Y69850
X43180Y69850
X40640Y69850
X38100Y69850
X35560Y69850
X33020Y69850
X30480Y69850
X71120Y76200
X73660Y76200
X53340Y77470
X60960Y77470
T4
X43990Y13130
X45990Y13130
X47990Y13130
X49990Y13130
X51990Y13130
X53990Y13130
X53990Y35130
X51990Y35130
X49990Y35130
X47990Y35130
X45990Y35130
X43990Y35130
X41990Y35130
X39990Y35130
X37990Y35130
X35990Y35130
X41990Y13130
X39990Y13130
X37990Y13130
X35990Y13130
T5
X51070Y47990
X56150Y47990
X22880Y46990
X25380Y46990
X64040Y50530
X64040Y47990
X43180Y50530
X43180Y47990
M30