M48
;GenerationSoftware,Autodesk,EAGLE,9.6.1*%
;CreationDate,2020-04-08T19:00:00Z*%
FMAT,2
ICI,OFF
METRIC,TZ,000.000
T1C1.016
%
G90
M71
T1
X46990Y79470
X49530Y79470
X52070Y79470
X54610Y79470
X57150Y79470
X59690Y79470
X62230Y79470
X64770Y79470
X82000Y35000
X82000Y37540
X82000Y40080
X82000Y42620
X82000Y45160
X82000Y47700
X82000Y50240
X82000Y52780
X82000Y55320
X82000Y57860
X66580Y49310
X66580Y46770
X66580Y44230
X66580Y41690
X46530Y10160
X49070Y10160
X51610Y10160
X54150Y10160
X56690Y10160
X59230Y10160
X61770Y10160
X64310Y10160
M30