G04 EAGLE Gerber RS-274X export*
G75*
%MOMM*%
%FSLAX34Y34*%
%LPD*%
%INTop Copper*%
%IPPOS*%
%AMOC8*
5,1,8,0,0,1.08239X$1,22.5*%
G01*
%ADD10C,0.152400*%
%ADD11C,1.879600*%
%ADD12P,1.814519X8X22.500000*%
%ADD13P,1.814519X8X202.500000*%
%ADD14P,1.814519X8X112.500000*%
%ADD15P,1.814519X8X292.500000*%


D10*
X167987Y150762D02*
X160762Y150762D01*
X160762Y167018D01*
X167987Y167018D01*
X166181Y159793D02*
X160762Y159793D01*
X174490Y167018D02*
X174490Y150762D01*
X174490Y167018D02*
X179006Y167018D01*
X179139Y167016D01*
X179271Y167010D01*
X179403Y167000D01*
X179535Y166987D01*
X179667Y166969D01*
X179797Y166948D01*
X179928Y166923D01*
X180057Y166894D01*
X180185Y166861D01*
X180313Y166825D01*
X180439Y166785D01*
X180564Y166741D01*
X180688Y166693D01*
X180810Y166642D01*
X180931Y166587D01*
X181050Y166529D01*
X181168Y166467D01*
X181283Y166402D01*
X181397Y166333D01*
X181508Y166262D01*
X181617Y166186D01*
X181724Y166108D01*
X181829Y166027D01*
X181931Y165942D01*
X182031Y165855D01*
X182128Y165765D01*
X182223Y165672D01*
X182314Y165576D01*
X182403Y165478D01*
X182489Y165377D01*
X182572Y165273D01*
X182652Y165167D01*
X182728Y165059D01*
X182802Y164949D01*
X182872Y164836D01*
X182939Y164722D01*
X183002Y164605D01*
X183062Y164487D01*
X183119Y164367D01*
X183172Y164245D01*
X183221Y164122D01*
X183267Y163998D01*
X183309Y163872D01*
X183347Y163745D01*
X183382Y163617D01*
X183413Y163488D01*
X183440Y163359D01*
X183463Y163228D01*
X183483Y163097D01*
X183498Y162965D01*
X183510Y162833D01*
X183518Y162701D01*
X183522Y162568D01*
X183522Y162436D01*
X183518Y162303D01*
X183510Y162171D01*
X183498Y162039D01*
X183483Y161907D01*
X183463Y161776D01*
X183440Y161645D01*
X183413Y161516D01*
X183382Y161387D01*
X183347Y161259D01*
X183309Y161132D01*
X183267Y161006D01*
X183221Y160882D01*
X183172Y160759D01*
X183119Y160637D01*
X183062Y160517D01*
X183002Y160399D01*
X182939Y160282D01*
X182872Y160168D01*
X182802Y160055D01*
X182728Y159945D01*
X182652Y159837D01*
X182572Y159731D01*
X182489Y159627D01*
X182403Y159526D01*
X182314Y159428D01*
X182223Y159332D01*
X182128Y159239D01*
X182031Y159149D01*
X181931Y159062D01*
X181829Y158977D01*
X181724Y158896D01*
X181617Y158818D01*
X181508Y158742D01*
X181397Y158671D01*
X181283Y158602D01*
X181168Y158537D01*
X181050Y158475D01*
X180931Y158417D01*
X180810Y158362D01*
X180688Y158311D01*
X180564Y158263D01*
X180439Y158219D01*
X180313Y158179D01*
X180185Y158143D01*
X180057Y158110D01*
X179928Y158081D01*
X179797Y158056D01*
X179667Y158035D01*
X179535Y158017D01*
X179403Y158004D01*
X179271Y157994D01*
X179139Y157988D01*
X179006Y157986D01*
X179006Y157987D02*
X174490Y157987D01*
X194287Y150762D02*
X194405Y150764D01*
X194523Y150770D01*
X194641Y150779D01*
X194758Y150793D01*
X194875Y150810D01*
X194992Y150831D01*
X195107Y150856D01*
X195222Y150885D01*
X195336Y150918D01*
X195448Y150954D01*
X195559Y150994D01*
X195669Y151037D01*
X195778Y151084D01*
X195885Y151134D01*
X195990Y151189D01*
X196093Y151246D01*
X196194Y151307D01*
X196294Y151371D01*
X196391Y151438D01*
X196486Y151508D01*
X196578Y151582D01*
X196669Y151658D01*
X196756Y151738D01*
X196841Y151820D01*
X196923Y151905D01*
X197003Y151992D01*
X197079Y152083D01*
X197153Y152175D01*
X197223Y152270D01*
X197290Y152367D01*
X197354Y152467D01*
X197415Y152568D01*
X197472Y152671D01*
X197527Y152776D01*
X197577Y152883D01*
X197624Y152992D01*
X197667Y153102D01*
X197707Y153213D01*
X197743Y153325D01*
X197776Y153439D01*
X197805Y153554D01*
X197830Y153669D01*
X197851Y153786D01*
X197868Y153903D01*
X197882Y154020D01*
X197891Y154138D01*
X197897Y154256D01*
X197899Y154374D01*
X194287Y150762D02*
X194104Y150764D01*
X193922Y150771D01*
X193740Y150782D01*
X193558Y150797D01*
X193376Y150817D01*
X193195Y150840D01*
X193015Y150869D01*
X192835Y150901D01*
X192656Y150938D01*
X192479Y150979D01*
X192302Y151025D01*
X192126Y151074D01*
X191952Y151128D01*
X191778Y151186D01*
X191607Y151248D01*
X191437Y151314D01*
X191268Y151385D01*
X191101Y151459D01*
X190936Y151537D01*
X190773Y151619D01*
X190612Y151705D01*
X190453Y151795D01*
X190296Y151889D01*
X190142Y151986D01*
X189990Y152087D01*
X189840Y152192D01*
X189693Y152300D01*
X189549Y152411D01*
X189407Y152526D01*
X189268Y152645D01*
X189132Y152767D01*
X188999Y152892D01*
X188869Y153020D01*
X189320Y163406D02*
X189322Y163524D01*
X189328Y163642D01*
X189337Y163760D01*
X189351Y163877D01*
X189368Y163994D01*
X189389Y164111D01*
X189414Y164226D01*
X189443Y164341D01*
X189476Y164455D01*
X189512Y164567D01*
X189552Y164678D01*
X189595Y164788D01*
X189642Y164897D01*
X189692Y165004D01*
X189747Y165109D01*
X189804Y165212D01*
X189865Y165313D01*
X189929Y165413D01*
X189996Y165510D01*
X190066Y165605D01*
X190140Y165697D01*
X190216Y165788D01*
X190296Y165875D01*
X190378Y165960D01*
X190463Y166042D01*
X190550Y166122D01*
X190641Y166198D01*
X190733Y166272D01*
X190828Y166342D01*
X190925Y166409D01*
X191025Y166473D01*
X191126Y166534D01*
X191229Y166592D01*
X191334Y166646D01*
X191441Y166696D01*
X191550Y166743D01*
X191660Y166787D01*
X191771Y166826D01*
X191884Y166862D01*
X191997Y166895D01*
X192112Y166924D01*
X192227Y166949D01*
X192344Y166970D01*
X192461Y166987D01*
X192578Y167001D01*
X192696Y167010D01*
X192814Y167016D01*
X192932Y167018D01*
X193093Y167016D01*
X193255Y167010D01*
X193416Y167001D01*
X193577Y166987D01*
X193737Y166970D01*
X193897Y166949D01*
X194057Y166924D01*
X194216Y166895D01*
X194374Y166863D01*
X194531Y166827D01*
X194687Y166787D01*
X194843Y166743D01*
X194997Y166695D01*
X195150Y166644D01*
X195302Y166590D01*
X195453Y166531D01*
X195602Y166470D01*
X195749Y166404D01*
X195895Y166335D01*
X196040Y166263D01*
X196182Y166187D01*
X196323Y166108D01*
X196462Y166026D01*
X196598Y165940D01*
X196733Y165851D01*
X196866Y165759D01*
X196996Y165663D01*
X191126Y160245D02*
X191025Y160307D01*
X190925Y160372D01*
X190828Y160441D01*
X190733Y160513D01*
X190640Y160587D01*
X190550Y160665D01*
X190462Y160746D01*
X190377Y160829D01*
X190295Y160915D01*
X190216Y161004D01*
X190139Y161095D01*
X190066Y161189D01*
X189995Y161285D01*
X189928Y161383D01*
X189864Y161483D01*
X189803Y161586D01*
X189746Y161690D01*
X189692Y161796D01*
X189642Y161904D01*
X189595Y162013D01*
X189551Y162124D01*
X189511Y162236D01*
X189475Y162350D01*
X189443Y162464D01*
X189414Y162580D01*
X189389Y162696D01*
X189368Y162813D01*
X189351Y162931D01*
X189337Y163049D01*
X189328Y163168D01*
X189322Y163287D01*
X189320Y163406D01*
X196094Y157535D02*
X196195Y157473D01*
X196295Y157408D01*
X196392Y157339D01*
X196487Y157267D01*
X196580Y157193D01*
X196670Y157115D01*
X196758Y157034D01*
X196843Y156951D01*
X196925Y156865D01*
X197004Y156776D01*
X197081Y156685D01*
X197154Y156591D01*
X197225Y156495D01*
X197292Y156397D01*
X197356Y156297D01*
X197417Y156194D01*
X197474Y156090D01*
X197528Y155984D01*
X197578Y155876D01*
X197625Y155767D01*
X197669Y155656D01*
X197709Y155544D01*
X197745Y155430D01*
X197777Y155316D01*
X197806Y155200D01*
X197831Y155084D01*
X197852Y154967D01*
X197869Y154849D01*
X197883Y154731D01*
X197892Y154612D01*
X197898Y154493D01*
X197900Y154374D01*
X196093Y157535D02*
X191126Y160245D01*
X203319Y148956D02*
X210543Y148956D01*
X216484Y163406D02*
X220999Y167018D01*
X220999Y150762D01*
X216484Y150762D02*
X225515Y150762D01*
D11*
X421800Y578800D03*
X447200Y578800D03*
X472600Y578800D03*
X498000Y578800D03*
X523400Y578800D03*
X548800Y578800D03*
D12*
X492600Y175900D03*
X512600Y175900D03*
D13*
X515300Y736600D03*
X495300Y736600D03*
D14*
X802000Y280400D03*
X802000Y300400D03*
D15*
X160500Y481800D03*
X160500Y461800D03*
D11*
X820000Y350000D03*
X820000Y375400D03*
X820000Y400800D03*
X820000Y426200D03*
X820000Y451600D03*
X820000Y477000D03*
X820000Y502400D03*
X820000Y527800D03*
X820000Y553200D03*
X820000Y578600D03*
M02*
