G04 EAGLE Gerber RS-274X export*
G75*
%MOMM*%
%FSLAX34Y34*%
%LPD*%
%INBottom Copper*%
%IPPOS*%
%AMOC8*
5,1,8,0,0,1.08239X$1,22.5*%
G01*
%ADD10C,1.879600*%
%ADD11P,1.814519X8X22.500000*%
%ADD12P,1.814519X8X202.500000*%
%ADD13P,1.814519X8X112.500000*%
%ADD14P,1.814519X8X292.500000*%
%ADD15C,0.508000*%
%ADD16C,0.304800*%

G36*
X860018Y117971D02*
X860018Y117971D01*
X860036Y117969D01*
X860218Y117990D01*
X860401Y118009D01*
X860418Y118014D01*
X860435Y118016D01*
X860610Y118073D01*
X860786Y118127D01*
X860801Y118135D01*
X860818Y118141D01*
X860978Y118231D01*
X861140Y118319D01*
X861153Y118330D01*
X861169Y118339D01*
X861308Y118459D01*
X861449Y118576D01*
X861460Y118590D01*
X861474Y118602D01*
X861586Y118747D01*
X861701Y118890D01*
X861709Y118906D01*
X861720Y118920D01*
X861802Y119085D01*
X861887Y119247D01*
X861892Y119264D01*
X861900Y119281D01*
X861947Y119459D01*
X861998Y119634D01*
X862000Y119652D01*
X862004Y119669D01*
X862031Y120000D01*
X862031Y780000D01*
X862029Y780018D01*
X862031Y780036D01*
X862010Y780218D01*
X861991Y780401D01*
X861986Y780418D01*
X861984Y780435D01*
X861927Y780610D01*
X861873Y780786D01*
X861865Y780801D01*
X861859Y780818D01*
X861769Y780978D01*
X861681Y781140D01*
X861670Y781153D01*
X861661Y781169D01*
X861541Y781308D01*
X861424Y781449D01*
X861410Y781460D01*
X861398Y781474D01*
X861253Y781586D01*
X861110Y781701D01*
X861094Y781709D01*
X861080Y781720D01*
X860915Y781802D01*
X860753Y781887D01*
X860736Y781892D01*
X860720Y781900D01*
X860541Y781947D01*
X860366Y781998D01*
X860348Y782000D01*
X860331Y782004D01*
X860000Y782031D01*
X120000Y782031D01*
X119973Y782029D01*
X119947Y782031D01*
X119773Y782009D01*
X119599Y781991D01*
X119574Y781984D01*
X119547Y781980D01*
X119382Y781925D01*
X119214Y781873D01*
X119191Y781860D01*
X119166Y781852D01*
X119014Y781765D01*
X118860Y781681D01*
X118840Y781664D01*
X118817Y781651D01*
X118564Y781436D01*
X108564Y771436D01*
X108558Y771429D01*
X108551Y771424D01*
X108540Y771410D01*
X108527Y771398D01*
X108419Y771260D01*
X108309Y771125D01*
X108304Y771117D01*
X108299Y771110D01*
X108291Y771094D01*
X108280Y771080D01*
X108202Y770923D01*
X108120Y770769D01*
X108117Y770761D01*
X108113Y770753D01*
X108108Y770736D01*
X108100Y770720D01*
X108055Y770550D01*
X108005Y770383D01*
X108004Y770374D01*
X108002Y770366D01*
X108000Y770348D01*
X107996Y770331D01*
X107969Y770000D01*
X107969Y120000D01*
X107971Y119982D01*
X107969Y119964D01*
X107990Y119782D01*
X108009Y119599D01*
X108014Y119582D01*
X108016Y119565D01*
X108073Y119390D01*
X108127Y119214D01*
X108135Y119199D01*
X108141Y119182D01*
X108231Y119022D01*
X108319Y118860D01*
X108330Y118847D01*
X108339Y118831D01*
X108459Y118692D01*
X108576Y118551D01*
X108590Y118540D01*
X108602Y118527D01*
X108747Y118414D01*
X108890Y118299D01*
X108906Y118291D01*
X108920Y118280D01*
X109085Y118198D01*
X109247Y118113D01*
X109264Y118108D01*
X109281Y118100D01*
X109459Y118053D01*
X109634Y118002D01*
X109652Y118000D01*
X109669Y117996D01*
X110000Y117969D01*
X860000Y117969D01*
X860018Y117971D01*
G37*
%LPC*%
G36*
X507444Y163453D02*
X507444Y163453D01*
X502959Y167939D01*
X502945Y167950D01*
X502933Y167964D01*
X502790Y168077D01*
X502647Y168194D01*
X502631Y168202D01*
X502617Y168214D01*
X502453Y168297D01*
X502291Y168383D01*
X502274Y168388D01*
X502258Y168396D01*
X502081Y168445D01*
X501906Y168497D01*
X501888Y168499D01*
X501871Y168504D01*
X501687Y168517D01*
X501505Y168534D01*
X501487Y168532D01*
X501469Y168533D01*
X501287Y168510D01*
X501104Y168490D01*
X501087Y168485D01*
X501070Y168483D01*
X500896Y168424D01*
X500720Y168369D01*
X500705Y168360D01*
X500688Y168355D01*
X500528Y168263D01*
X500368Y168174D01*
X500355Y168163D01*
X500339Y168154D01*
X500086Y167939D01*
X497124Y164977D01*
X494631Y164977D01*
X494631Y175900D01*
X494630Y175917D01*
X494631Y175935D01*
X494610Y176118D01*
X494591Y176300D01*
X494586Y176317D01*
X494584Y176335D01*
X494527Y176509D01*
X494473Y176685D01*
X494465Y176701D01*
X494459Y176718D01*
X494369Y176878D01*
X494282Y177039D01*
X494270Y177053D01*
X494261Y177068D01*
X494141Y177208D01*
X494024Y177348D01*
X494024Y177349D01*
X494023Y177349D01*
X494010Y177360D01*
X493998Y177373D01*
X493998Y177374D01*
X493853Y177486D01*
X493710Y177601D01*
X493694Y177610D01*
X493680Y177620D01*
X493515Y177702D01*
X493352Y177787D01*
X493335Y177792D01*
X493319Y177800D01*
X493141Y177848D01*
X492965Y177898D01*
X492948Y177900D01*
X492930Y177904D01*
X492600Y177931D01*
X481677Y177931D01*
X481677Y180424D01*
X488248Y186995D01*
X488402Y187080D01*
X488572Y187173D01*
X488579Y187178D01*
X488587Y187183D01*
X488734Y187307D01*
X488882Y187430D01*
X488887Y187437D01*
X488894Y187443D01*
X489014Y187595D01*
X489134Y187744D01*
X489138Y187752D01*
X489144Y187759D01*
X489232Y187932D01*
X489320Y188101D01*
X489322Y188110D01*
X489326Y188118D01*
X489378Y188304D01*
X489431Y188488D01*
X489432Y188497D01*
X489434Y188506D01*
X489448Y188697D01*
X489464Y188890D01*
X489463Y188898D01*
X489463Y188907D01*
X489439Y189100D01*
X489417Y189289D01*
X489414Y189298D01*
X489413Y189307D01*
X489352Y189490D01*
X489292Y189672D01*
X489288Y189680D01*
X489285Y189688D01*
X489189Y189855D01*
X489094Y190023D01*
X489088Y190030D01*
X489084Y190037D01*
X488869Y190290D01*
X476359Y202800D01*
X476338Y202817D01*
X476321Y202838D01*
X476183Y202945D01*
X476048Y203055D01*
X476024Y203068D01*
X476003Y203084D01*
X475846Y203162D01*
X475692Y203244D01*
X475666Y203252D01*
X475642Y203264D01*
X475473Y203309D01*
X475306Y203359D01*
X475279Y203361D01*
X475254Y203368D01*
X474923Y203395D01*
X168686Y203395D01*
X166259Y204401D01*
X154401Y216259D01*
X153395Y218686D01*
X153395Y450461D01*
X153393Y450488D01*
X153395Y450514D01*
X153373Y450688D01*
X153355Y450862D01*
X153348Y450887D01*
X153344Y450914D01*
X153289Y451079D01*
X153237Y451247D01*
X153224Y451270D01*
X153216Y451295D01*
X153129Y451447D01*
X153045Y451601D01*
X153028Y451621D01*
X153015Y451644D01*
X152800Y451897D01*
X148053Y456644D01*
X148053Y466956D01*
X152539Y471441D01*
X152550Y471455D01*
X152564Y471467D01*
X152677Y471610D01*
X152794Y471753D01*
X152802Y471769D01*
X152814Y471783D01*
X152897Y471947D01*
X152983Y472109D01*
X152988Y472126D01*
X152996Y472142D01*
X153045Y472319D01*
X153097Y472494D01*
X153099Y472512D01*
X153104Y472529D01*
X153117Y472713D01*
X153134Y472895D01*
X153132Y472913D01*
X153133Y472931D01*
X153110Y473113D01*
X153090Y473296D01*
X153085Y473313D01*
X153083Y473330D01*
X153024Y473504D01*
X152969Y473680D01*
X152960Y473695D01*
X152955Y473712D01*
X152863Y473872D01*
X152774Y474032D01*
X152763Y474045D01*
X152754Y474061D01*
X152539Y474314D01*
X149577Y477276D01*
X149577Y479769D01*
X160500Y479769D01*
X171423Y479769D01*
X171423Y477276D01*
X168461Y474314D01*
X168450Y474300D01*
X168436Y474289D01*
X168322Y474144D01*
X168206Y474002D01*
X168198Y473987D01*
X168186Y473973D01*
X168103Y473809D01*
X168017Y473647D01*
X168012Y473630D01*
X168004Y473614D01*
X167955Y473437D01*
X167903Y473261D01*
X167901Y473243D01*
X167896Y473226D01*
X167883Y473043D01*
X167866Y472860D01*
X167868Y472842D01*
X167867Y472824D01*
X167890Y472642D01*
X167910Y472460D01*
X167915Y472443D01*
X167917Y472425D01*
X167976Y472251D01*
X168031Y472076D01*
X168040Y472060D01*
X168045Y472043D01*
X168137Y471884D01*
X168226Y471723D01*
X168237Y471710D01*
X168246Y471694D01*
X168461Y471441D01*
X170903Y469000D01*
X170923Y468983D01*
X170941Y468962D01*
X171079Y468856D01*
X171214Y468745D01*
X171238Y468732D01*
X171259Y468716D01*
X171415Y468638D01*
X171570Y468556D01*
X171596Y468548D01*
X171619Y468536D01*
X171788Y468491D01*
X171956Y468441D01*
X171982Y468439D01*
X172008Y468432D01*
X172339Y468405D01*
X228223Y468405D01*
X228249Y468407D01*
X228276Y468405D01*
X228450Y468427D01*
X228623Y468445D01*
X228649Y468452D01*
X228676Y468456D01*
X228841Y468511D01*
X229008Y468563D01*
X229032Y468576D01*
X229057Y468584D01*
X229209Y468671D01*
X229362Y468755D01*
X229383Y468772D01*
X229406Y468785D01*
X229659Y469000D01*
X346259Y585599D01*
X348686Y586605D01*
X409724Y586605D01*
X409751Y586607D01*
X409777Y586605D01*
X409951Y586627D01*
X410125Y586645D01*
X410150Y586652D01*
X410177Y586656D01*
X410343Y586711D01*
X410510Y586763D01*
X410533Y586776D01*
X410559Y586784D01*
X410710Y586871D01*
X410864Y586955D01*
X410884Y586972D01*
X410907Y586985D01*
X411160Y587200D01*
X412800Y588840D01*
X412817Y588860D01*
X412838Y588878D01*
X412945Y589016D01*
X413055Y589151D01*
X413068Y589175D01*
X413084Y589196D01*
X413162Y589353D01*
X413244Y589507D01*
X413252Y589532D01*
X413264Y589556D01*
X413309Y589726D01*
X413359Y589893D01*
X413361Y589919D01*
X413368Y589945D01*
X413395Y590276D01*
X413395Y721314D01*
X414401Y723741D01*
X432859Y742199D01*
X435286Y743205D01*
X483461Y743205D01*
X483488Y743207D01*
X483514Y743205D01*
X483688Y743227D01*
X483862Y743245D01*
X483887Y743252D01*
X483914Y743256D01*
X484079Y743311D01*
X484247Y743363D01*
X484270Y743376D01*
X484295Y743384D01*
X484447Y743471D01*
X484601Y743555D01*
X484621Y743572D01*
X484644Y743585D01*
X484897Y743800D01*
X490144Y749047D01*
X500456Y749047D01*
X504941Y744561D01*
X504955Y744550D01*
X504967Y744536D01*
X505110Y744423D01*
X505253Y744306D01*
X505269Y744298D01*
X505283Y744286D01*
X505447Y744203D01*
X505609Y744117D01*
X505626Y744112D01*
X505642Y744104D01*
X505819Y744055D01*
X505994Y744003D01*
X506012Y744001D01*
X506029Y743996D01*
X506213Y743983D01*
X506395Y743966D01*
X506413Y743968D01*
X506431Y743967D01*
X506613Y743990D01*
X506796Y744010D01*
X506813Y744015D01*
X506830Y744017D01*
X507004Y744076D01*
X507180Y744131D01*
X507195Y744140D01*
X507212Y744145D01*
X507372Y744237D01*
X507532Y744326D01*
X507545Y744337D01*
X507561Y744346D01*
X507814Y744561D01*
X510776Y747523D01*
X513269Y747523D01*
X513269Y736600D01*
X513269Y725677D01*
X510776Y725677D01*
X507814Y728639D01*
X507800Y728650D01*
X507789Y728664D01*
X507645Y728777D01*
X507502Y728894D01*
X507487Y728902D01*
X507473Y728914D01*
X507309Y728997D01*
X507147Y729083D01*
X507130Y729088D01*
X507114Y729096D01*
X506937Y729145D01*
X506761Y729197D01*
X506743Y729199D01*
X506726Y729204D01*
X506543Y729217D01*
X506360Y729234D01*
X506342Y729232D01*
X506324Y729233D01*
X506142Y729210D01*
X505960Y729190D01*
X505943Y729185D01*
X505925Y729183D01*
X505751Y729124D01*
X505576Y729069D01*
X505560Y729060D01*
X505543Y729055D01*
X505384Y728963D01*
X505223Y728874D01*
X505210Y728863D01*
X505194Y728854D01*
X504941Y728639D01*
X500456Y724153D01*
X490144Y724153D01*
X484897Y729400D01*
X484877Y729417D01*
X484859Y729438D01*
X484721Y729545D01*
X484586Y729655D01*
X484562Y729668D01*
X484541Y729684D01*
X484384Y729762D01*
X484230Y729844D01*
X484205Y729852D01*
X484181Y729864D01*
X484011Y729909D01*
X483844Y729959D01*
X483818Y729961D01*
X483792Y729968D01*
X483461Y729995D01*
X440177Y729995D01*
X440151Y729993D01*
X440124Y729995D01*
X439950Y729973D01*
X439777Y729955D01*
X439751Y729948D01*
X439724Y729944D01*
X439559Y729889D01*
X439392Y729837D01*
X439368Y729824D01*
X439343Y729816D01*
X439191Y729729D01*
X439038Y729645D01*
X439017Y729628D01*
X438994Y729615D01*
X438741Y729400D01*
X427200Y717859D01*
X427183Y717838D01*
X427162Y717821D01*
X427055Y717683D01*
X426945Y717548D01*
X426932Y717524D01*
X426916Y717503D01*
X426838Y717346D01*
X426756Y717192D01*
X426748Y717166D01*
X426736Y717142D01*
X426691Y716973D01*
X426641Y716806D01*
X426639Y716779D01*
X426632Y716754D01*
X426605Y716423D01*
X426605Y592739D01*
X426607Y592717D01*
X426605Y592695D01*
X426627Y592517D01*
X426645Y592338D01*
X426651Y592317D01*
X426654Y592295D01*
X426710Y592125D01*
X426763Y591953D01*
X426773Y591934D01*
X426780Y591913D01*
X426869Y591757D01*
X426955Y591599D01*
X426969Y591582D01*
X426980Y591563D01*
X427098Y591428D01*
X427212Y591290D01*
X427230Y591276D01*
X427244Y591259D01*
X427386Y591150D01*
X427526Y591038D01*
X427546Y591028D01*
X427564Y591014D01*
X427859Y590862D01*
X429426Y590213D01*
X433213Y586426D01*
X433557Y585595D01*
X433639Y585443D01*
X433716Y585289D01*
X433734Y585266D01*
X433747Y585240D01*
X433857Y585107D01*
X433964Y584971D01*
X433985Y584952D01*
X434004Y584930D01*
X434138Y584821D01*
X434269Y584709D01*
X434294Y584695D01*
X434317Y584676D01*
X434470Y584596D01*
X434620Y584512D01*
X434647Y584503D01*
X434673Y584489D01*
X434839Y584441D01*
X435003Y584388D01*
X435032Y584384D01*
X435059Y584376D01*
X435232Y584361D01*
X435403Y584342D01*
X435432Y584344D01*
X435461Y584341D01*
X435632Y584361D01*
X435804Y584375D01*
X435832Y584383D01*
X435861Y584387D01*
X436025Y584439D01*
X436191Y584488D01*
X436216Y584501D01*
X436244Y584510D01*
X436395Y584594D01*
X436548Y584674D01*
X436570Y584692D01*
X436595Y584706D01*
X436727Y584818D01*
X436861Y584927D01*
X436882Y584951D01*
X436901Y584968D01*
X436954Y585035D01*
X437077Y585179D01*
X438094Y586578D01*
X439422Y587906D01*
X440943Y589011D01*
X442617Y589864D01*
X444404Y590445D01*
X444661Y590485D01*
X444661Y579308D01*
X444662Y579290D01*
X444661Y579273D01*
X444682Y579090D01*
X444701Y578908D01*
X444706Y578891D01*
X444708Y578873D01*
X444733Y578795D01*
X444694Y578658D01*
X444692Y578640D01*
X444688Y578623D01*
X444661Y578292D01*
X444661Y567115D01*
X444404Y567155D01*
X442617Y567736D01*
X440943Y568589D01*
X439422Y569694D01*
X438094Y571022D01*
X437077Y572421D01*
X436962Y572550D01*
X436851Y572682D01*
X436829Y572700D01*
X436809Y572722D01*
X436671Y572826D01*
X436536Y572933D01*
X436511Y572947D01*
X436488Y572964D01*
X436332Y573039D01*
X436178Y573117D01*
X436151Y573125D01*
X436124Y573138D01*
X435957Y573180D01*
X435791Y573227D01*
X435762Y573229D01*
X435734Y573236D01*
X435561Y573245D01*
X435389Y573258D01*
X435361Y573255D01*
X435332Y573256D01*
X435161Y573230D01*
X434990Y573210D01*
X434962Y573200D01*
X434934Y573196D01*
X434771Y573137D01*
X434608Y573083D01*
X434583Y573069D01*
X434555Y573059D01*
X434408Y572969D01*
X434258Y572884D01*
X434236Y572865D01*
X434211Y572850D01*
X434084Y572732D01*
X433954Y572619D01*
X433937Y572596D01*
X433915Y572577D01*
X433814Y572436D01*
X433709Y572300D01*
X433694Y572271D01*
X433679Y572251D01*
X433644Y572173D01*
X433557Y572005D01*
X433213Y571174D01*
X429426Y567387D01*
X427809Y566717D01*
X424478Y565337D01*
X419122Y565337D01*
X414174Y567387D01*
X410387Y571174D01*
X409986Y572141D01*
X409976Y572161D01*
X409969Y572182D01*
X409881Y572338D01*
X409796Y572496D01*
X409782Y572513D01*
X409771Y572533D01*
X409654Y572668D01*
X409540Y572807D01*
X409522Y572821D01*
X409508Y572838D01*
X409366Y572947D01*
X409227Y573060D01*
X409207Y573071D01*
X409190Y573084D01*
X409029Y573164D01*
X408870Y573247D01*
X408849Y573254D01*
X408829Y573264D01*
X408655Y573310D01*
X408484Y573360D01*
X408462Y573362D01*
X408440Y573368D01*
X408110Y573395D01*
X353577Y573395D01*
X353551Y573393D01*
X353524Y573395D01*
X353350Y573373D01*
X353177Y573355D01*
X353151Y573348D01*
X353124Y573344D01*
X352959Y573289D01*
X352792Y573237D01*
X352768Y573224D01*
X352743Y573216D01*
X352591Y573129D01*
X352438Y573045D01*
X352417Y573028D01*
X352394Y573015D01*
X352141Y572800D01*
X235541Y456201D01*
X233114Y455195D01*
X172339Y455195D01*
X172312Y455193D01*
X172286Y455195D01*
X172112Y455173D01*
X171938Y455155D01*
X171913Y455148D01*
X171886Y455144D01*
X171721Y455089D01*
X171553Y455037D01*
X171530Y455024D01*
X171505Y455016D01*
X171353Y454929D01*
X171199Y454845D01*
X171179Y454828D01*
X171156Y454815D01*
X170903Y454600D01*
X167200Y450897D01*
X167183Y450877D01*
X167162Y450859D01*
X167055Y450721D01*
X166945Y450586D01*
X166932Y450562D01*
X166916Y450541D01*
X166838Y450384D01*
X166756Y450230D01*
X166748Y450205D01*
X166736Y450181D01*
X166691Y450011D01*
X166641Y449844D01*
X166639Y449818D01*
X166632Y449792D01*
X166605Y449461D01*
X166605Y223577D01*
X166606Y223567D01*
X166605Y223558D01*
X166607Y223543D01*
X166605Y223524D01*
X166627Y223350D01*
X166645Y223177D01*
X166652Y223151D01*
X166656Y223124D01*
X166711Y222959D01*
X166763Y222792D01*
X166776Y222768D01*
X166784Y222743D01*
X166871Y222591D01*
X166955Y222438D01*
X166972Y222417D01*
X166985Y222394D01*
X167200Y222141D01*
X172141Y217200D01*
X172162Y217183D01*
X172179Y217162D01*
X172317Y217055D01*
X172452Y216945D01*
X172476Y216932D01*
X172497Y216916D01*
X172654Y216838D01*
X172808Y216756D01*
X172834Y216748D01*
X172858Y216736D01*
X173027Y216691D01*
X173194Y216641D01*
X173221Y216639D01*
X173246Y216632D01*
X173577Y216605D01*
X479814Y216605D01*
X482241Y215599D01*
X508899Y188942D01*
X508920Y188925D01*
X508937Y188904D01*
X509075Y188797D01*
X509210Y188687D01*
X509234Y188674D01*
X509255Y188658D01*
X509412Y188580D01*
X509566Y188498D01*
X509592Y188490D01*
X509616Y188478D01*
X509785Y188433D01*
X509952Y188383D01*
X509979Y188381D01*
X510004Y188374D01*
X510335Y188347D01*
X517756Y188347D01*
X523003Y183100D01*
X523023Y183083D01*
X523041Y183062D01*
X523179Y182955D01*
X523314Y182845D01*
X523338Y182832D01*
X523359Y182816D01*
X523516Y182738D01*
X523670Y182656D01*
X523695Y182648D01*
X523719Y182636D01*
X523889Y182591D01*
X524056Y182541D01*
X524082Y182539D01*
X524108Y182532D01*
X524439Y182505D01*
X731364Y182505D01*
X731382Y182507D01*
X731400Y182505D01*
X731582Y182526D01*
X731765Y182545D01*
X731782Y182550D01*
X731799Y182552D01*
X731974Y182609D01*
X732150Y182663D01*
X732165Y182671D01*
X732182Y182677D01*
X732342Y182767D01*
X732504Y182855D01*
X732517Y182866D01*
X732533Y182875D01*
X732672Y182995D01*
X732813Y183112D01*
X732824Y183126D01*
X732838Y183138D01*
X732950Y183283D01*
X733065Y183426D01*
X733073Y183442D01*
X733084Y183456D01*
X733166Y183621D01*
X733251Y183783D01*
X733256Y183800D01*
X733264Y183816D01*
X733311Y183995D01*
X733362Y184170D01*
X733364Y184188D01*
X733368Y184205D01*
X733395Y184536D01*
X733395Y281314D01*
X734401Y283741D01*
X756659Y305999D01*
X759086Y307005D01*
X790161Y307005D01*
X790188Y307007D01*
X790214Y307005D01*
X790388Y307027D01*
X790562Y307045D01*
X790587Y307052D01*
X790614Y307056D01*
X790779Y307111D01*
X790947Y307163D01*
X790970Y307176D01*
X790995Y307184D01*
X791147Y307271D01*
X791301Y307355D01*
X791321Y307372D01*
X791344Y307385D01*
X791597Y307600D01*
X796844Y312847D01*
X807156Y312847D01*
X814447Y305556D01*
X814447Y295244D01*
X809961Y290759D01*
X809950Y290745D01*
X809936Y290733D01*
X809822Y290589D01*
X809706Y290447D01*
X809698Y290431D01*
X809686Y290417D01*
X809603Y290253D01*
X809517Y290091D01*
X809512Y290074D01*
X809504Y290058D01*
X809455Y289881D01*
X809403Y289706D01*
X809401Y289688D01*
X809396Y289671D01*
X809383Y289487D01*
X809366Y289305D01*
X809368Y289287D01*
X809367Y289269D01*
X809390Y289087D01*
X809410Y288904D01*
X809415Y288887D01*
X809417Y288870D01*
X809476Y288696D01*
X809531Y288520D01*
X809540Y288505D01*
X809545Y288488D01*
X809637Y288328D01*
X809726Y288168D01*
X809737Y288155D01*
X809746Y288139D01*
X809961Y287886D01*
X812923Y284924D01*
X812923Y282431D01*
X802000Y282431D01*
X791077Y282431D01*
X791077Y284924D01*
X794039Y287886D01*
X794050Y287900D01*
X794064Y287911D01*
X794178Y288056D01*
X794294Y288198D01*
X794302Y288213D01*
X794314Y288227D01*
X794397Y288391D01*
X794483Y288553D01*
X794488Y288570D01*
X794496Y288586D01*
X794545Y288763D01*
X794597Y288939D01*
X794599Y288957D01*
X794604Y288974D01*
X794617Y289157D01*
X794634Y289340D01*
X794632Y289358D01*
X794633Y289376D01*
X794610Y289558D01*
X794590Y289740D01*
X794585Y289757D01*
X794583Y289775D01*
X794524Y289949D01*
X794469Y290124D01*
X794460Y290140D01*
X794455Y290157D01*
X794363Y290316D01*
X794274Y290477D01*
X794263Y290490D01*
X794254Y290506D01*
X794039Y290759D01*
X791597Y293200D01*
X791577Y293217D01*
X791559Y293238D01*
X791421Y293344D01*
X791286Y293455D01*
X791262Y293468D01*
X791241Y293484D01*
X791085Y293562D01*
X790930Y293644D01*
X790904Y293652D01*
X790881Y293664D01*
X790712Y293709D01*
X790544Y293759D01*
X790518Y293761D01*
X790492Y293768D01*
X790161Y293795D01*
X763977Y293795D01*
X763951Y293793D01*
X763924Y293795D01*
X763750Y293773D01*
X763577Y293755D01*
X763551Y293748D01*
X763524Y293744D01*
X763359Y293689D01*
X763192Y293637D01*
X763168Y293624D01*
X763143Y293616D01*
X762991Y293529D01*
X762838Y293445D01*
X762817Y293428D01*
X762794Y293415D01*
X762541Y293200D01*
X747200Y277859D01*
X747183Y277838D01*
X747162Y277821D01*
X747055Y277683D01*
X746945Y277548D01*
X746932Y277524D01*
X746916Y277503D01*
X746838Y277346D01*
X746756Y277192D01*
X746748Y277166D01*
X746736Y277142D01*
X746691Y276973D01*
X746641Y276806D01*
X746639Y276779D01*
X746632Y276754D01*
X746605Y276423D01*
X746605Y178686D01*
X745599Y176259D01*
X739641Y170301D01*
X737214Y169295D01*
X524439Y169295D01*
X524412Y169293D01*
X524386Y169295D01*
X524212Y169273D01*
X524038Y169255D01*
X524013Y169248D01*
X523986Y169244D01*
X523820Y169188D01*
X523653Y169137D01*
X523630Y169124D01*
X523605Y169116D01*
X523453Y169029D01*
X523299Y168945D01*
X523279Y168928D01*
X523256Y168915D01*
X523003Y168700D01*
X517756Y163453D01*
X507444Y163453D01*
G37*
%LPD*%
%LPC*%
G36*
X819858Y504906D02*
X819858Y504906D01*
X819840Y504908D01*
X819823Y504912D01*
X819492Y504939D01*
X808315Y504939D01*
X808355Y505196D01*
X808936Y506983D01*
X809789Y508657D01*
X810894Y510178D01*
X812222Y511506D01*
X813621Y512523D01*
X813750Y512637D01*
X813883Y512749D01*
X813901Y512771D01*
X813922Y512791D01*
X814026Y512928D01*
X814134Y513064D01*
X814147Y513089D01*
X814164Y513112D01*
X814239Y513268D01*
X814317Y513422D01*
X814325Y513450D01*
X814338Y513476D01*
X814380Y513643D01*
X814427Y513809D01*
X814429Y513838D01*
X814436Y513866D01*
X814445Y514039D01*
X814458Y514211D01*
X814455Y514239D01*
X814456Y514268D01*
X814430Y514439D01*
X814410Y514610D01*
X814401Y514637D01*
X814396Y514666D01*
X814337Y514829D01*
X814283Y514992D01*
X814269Y515017D01*
X814259Y515045D01*
X814169Y515192D01*
X814084Y515342D01*
X814065Y515364D01*
X814050Y515389D01*
X813932Y515516D01*
X813819Y515646D01*
X813796Y515663D01*
X813777Y515685D01*
X813637Y515786D01*
X813500Y515891D01*
X813471Y515906D01*
X813451Y515921D01*
X813374Y515956D01*
X813205Y516043D01*
X812374Y516387D01*
X808587Y520174D01*
X806537Y525122D01*
X806537Y530478D01*
X808587Y535426D01*
X812225Y539064D01*
X812236Y539077D01*
X812249Y539089D01*
X812363Y539233D01*
X812480Y539375D01*
X812488Y539391D01*
X812499Y539405D01*
X812582Y539569D01*
X812668Y539731D01*
X812673Y539748D01*
X812681Y539764D01*
X812731Y539941D01*
X812783Y540117D01*
X812785Y540135D01*
X812789Y540152D01*
X812803Y540335D01*
X812819Y540518D01*
X812817Y540536D01*
X812819Y540553D01*
X812796Y540735D01*
X812776Y540918D01*
X812771Y540935D01*
X812768Y540953D01*
X812710Y541126D01*
X812654Y541302D01*
X812646Y541318D01*
X812640Y541334D01*
X812548Y541494D01*
X812460Y541654D01*
X812448Y541668D01*
X812439Y541683D01*
X812225Y541936D01*
X808526Y545635D01*
X808493Y545696D01*
X808479Y545713D01*
X808468Y545733D01*
X808351Y545868D01*
X808237Y546006D01*
X808219Y546021D01*
X808205Y546038D01*
X808063Y546147D01*
X807924Y546260D01*
X807904Y546271D01*
X807887Y546284D01*
X807726Y546364D01*
X807568Y546447D01*
X807546Y546454D01*
X807526Y546464D01*
X807353Y546510D01*
X807181Y546560D01*
X807159Y546562D01*
X807137Y546568D01*
X806807Y546595D01*
X573086Y546595D01*
X570659Y547601D01*
X568515Y549744D01*
X553459Y564801D01*
X553442Y564815D01*
X553427Y564832D01*
X553286Y564943D01*
X553147Y565056D01*
X553128Y565066D01*
X553110Y565080D01*
X552950Y565161D01*
X552792Y565244D01*
X552770Y565251D01*
X552750Y565261D01*
X552578Y565308D01*
X552406Y565359D01*
X552383Y565361D01*
X552362Y565367D01*
X552184Y565379D01*
X552005Y565395D01*
X551982Y565393D01*
X551960Y565395D01*
X551783Y565371D01*
X551605Y565352D01*
X551583Y565345D01*
X551561Y565342D01*
X551545Y565337D01*
X546122Y565337D01*
X541174Y567387D01*
X537387Y571174D01*
X537043Y572005D01*
X536961Y572157D01*
X536884Y572311D01*
X536866Y572334D01*
X536853Y572360D01*
X536743Y572493D01*
X536636Y572629D01*
X536614Y572648D01*
X536596Y572670D01*
X536462Y572779D01*
X536331Y572891D01*
X536306Y572906D01*
X536283Y572924D01*
X536131Y573004D01*
X535980Y573089D01*
X535952Y573097D01*
X535927Y573111D01*
X535761Y573159D01*
X535597Y573213D01*
X535568Y573216D01*
X535541Y573224D01*
X535368Y573239D01*
X535197Y573258D01*
X535168Y573256D01*
X535139Y573259D01*
X534968Y573239D01*
X534796Y573225D01*
X534768Y573217D01*
X534739Y573213D01*
X534575Y573161D01*
X534409Y573112D01*
X534384Y573099D01*
X534356Y573090D01*
X534206Y573006D01*
X534052Y572926D01*
X534030Y572908D01*
X534005Y572894D01*
X533874Y572782D01*
X533739Y572673D01*
X533718Y572649D01*
X533699Y572632D01*
X533646Y572565D01*
X533523Y572421D01*
X532506Y571022D01*
X531178Y569694D01*
X529657Y568589D01*
X527983Y567736D01*
X526196Y567155D01*
X525939Y567115D01*
X525939Y578292D01*
X525937Y578310D01*
X525939Y578327D01*
X525918Y578510D01*
X525899Y578692D01*
X525894Y578709D01*
X525892Y578727D01*
X525867Y578805D01*
X525906Y578942D01*
X525908Y578960D01*
X525912Y578977D01*
X525939Y579308D01*
X525939Y590485D01*
X526196Y590445D01*
X527983Y589864D01*
X529657Y589011D01*
X531178Y587906D01*
X532506Y586578D01*
X533523Y585179D01*
X533637Y585050D01*
X533749Y584917D01*
X533771Y584899D01*
X533791Y584878D01*
X533928Y584774D01*
X534064Y584666D01*
X534089Y584653D01*
X534112Y584636D01*
X534268Y584561D01*
X534422Y584483D01*
X534450Y584475D01*
X534476Y584462D01*
X534643Y584420D01*
X534809Y584373D01*
X534838Y584371D01*
X534866Y584364D01*
X535039Y584355D01*
X535211Y584342D01*
X535239Y584345D01*
X535268Y584344D01*
X535439Y584370D01*
X535610Y584390D01*
X535637Y584399D01*
X535666Y584404D01*
X535829Y584463D01*
X535992Y584517D01*
X536017Y584531D01*
X536045Y584541D01*
X536192Y584631D01*
X536342Y584716D01*
X536364Y584735D01*
X536389Y584750D01*
X536516Y584868D01*
X536646Y584981D01*
X536663Y585004D01*
X536685Y585023D01*
X536786Y585163D01*
X536891Y585300D01*
X536906Y585329D01*
X536921Y585349D01*
X536956Y585426D01*
X537043Y585595D01*
X537387Y586426D01*
X541174Y590213D01*
X546122Y592263D01*
X551478Y592263D01*
X556426Y590213D01*
X560213Y586426D01*
X562263Y581478D01*
X562263Y576036D01*
X562243Y575970D01*
X562241Y575947D01*
X562235Y575926D01*
X562221Y575746D01*
X562204Y575569D01*
X562207Y575547D01*
X562205Y575524D01*
X562228Y575346D01*
X562246Y575168D01*
X562253Y575147D01*
X562256Y575125D01*
X562313Y574954D01*
X562366Y574784D01*
X562377Y574764D01*
X562384Y574743D01*
X562473Y574588D01*
X562559Y574431D01*
X562574Y574414D01*
X562585Y574394D01*
X562799Y574141D01*
X576541Y560400D01*
X576562Y560383D01*
X576579Y560362D01*
X576717Y560255D01*
X576852Y560145D01*
X576876Y560132D01*
X576897Y560116D01*
X577054Y560038D01*
X577208Y559956D01*
X577234Y559948D01*
X577258Y559936D01*
X577427Y559891D01*
X577594Y559841D01*
X577621Y559839D01*
X577646Y559832D01*
X577977Y559805D01*
X806807Y559805D01*
X806829Y559807D01*
X806851Y559805D01*
X807029Y559827D01*
X807207Y559845D01*
X807229Y559851D01*
X807251Y559854D01*
X807421Y559910D01*
X807592Y559963D01*
X807612Y559973D01*
X807633Y559980D01*
X807789Y560069D01*
X807946Y560155D01*
X807963Y560169D01*
X807983Y560180D01*
X808118Y560298D01*
X808255Y560412D01*
X808269Y560430D01*
X808286Y560444D01*
X808396Y560587D01*
X808508Y560726D01*
X808518Y560746D01*
X808532Y560764D01*
X808539Y560779D01*
X812225Y564464D01*
X812236Y564477D01*
X812249Y564489D01*
X812363Y564633D01*
X812480Y564775D01*
X812488Y564791D01*
X812499Y564805D01*
X812582Y564969D01*
X812668Y565131D01*
X812673Y565148D01*
X812681Y565164D01*
X812731Y565341D01*
X812783Y565517D01*
X812785Y565535D01*
X812789Y565552D01*
X812803Y565735D01*
X812819Y565918D01*
X812817Y565936D01*
X812819Y565953D01*
X812796Y566135D01*
X812776Y566318D01*
X812771Y566335D01*
X812768Y566353D01*
X812710Y566526D01*
X812654Y566702D01*
X812646Y566718D01*
X812640Y566734D01*
X812548Y566894D01*
X812460Y567054D01*
X812448Y567068D01*
X812439Y567083D01*
X812225Y567336D01*
X808587Y570974D01*
X806537Y575922D01*
X806537Y581278D01*
X808587Y586226D01*
X812374Y590013D01*
X817322Y592063D01*
X822678Y592063D01*
X827626Y590013D01*
X831413Y586226D01*
X833463Y581278D01*
X833463Y575922D01*
X831413Y570974D01*
X827775Y567336D01*
X827764Y567322D01*
X827751Y567311D01*
X827637Y567167D01*
X827520Y567025D01*
X827512Y567009D01*
X827501Y566995D01*
X827417Y566831D01*
X827332Y566669D01*
X827327Y566652D01*
X827319Y566636D01*
X827269Y566459D01*
X827217Y566283D01*
X827215Y566265D01*
X827211Y566248D01*
X827197Y566065D01*
X827181Y565882D01*
X827183Y565864D01*
X827181Y565847D01*
X827204Y565665D01*
X827224Y565482D01*
X827229Y565465D01*
X827232Y565447D01*
X827290Y565272D01*
X827346Y565098D01*
X827354Y565082D01*
X827360Y565066D01*
X827452Y564906D01*
X827540Y564746D01*
X827552Y564732D01*
X827561Y564717D01*
X827775Y564464D01*
X831413Y560826D01*
X833463Y555878D01*
X833463Y550522D01*
X831413Y545574D01*
X827775Y541936D01*
X827764Y541922D01*
X827751Y541911D01*
X827637Y541767D01*
X827520Y541625D01*
X827512Y541609D01*
X827501Y541595D01*
X827417Y541431D01*
X827332Y541269D01*
X827327Y541252D01*
X827319Y541236D01*
X827269Y541059D01*
X827217Y540883D01*
X827215Y540865D01*
X827211Y540848D01*
X827197Y540665D01*
X827181Y540482D01*
X827183Y540464D01*
X827181Y540447D01*
X827204Y540265D01*
X827224Y540082D01*
X827229Y540065D01*
X827232Y540047D01*
X827290Y539873D01*
X827346Y539698D01*
X827354Y539682D01*
X827360Y539666D01*
X827452Y539506D01*
X827540Y539346D01*
X827552Y539332D01*
X827561Y539317D01*
X827775Y539064D01*
X831413Y535426D01*
X833463Y530478D01*
X833463Y525122D01*
X831413Y520174D01*
X827626Y516387D01*
X826795Y516043D01*
X826643Y515961D01*
X826489Y515884D01*
X826466Y515866D01*
X826440Y515853D01*
X826307Y515743D01*
X826171Y515636D01*
X826152Y515614D01*
X826130Y515596D01*
X826021Y515462D01*
X825909Y515331D01*
X825894Y515306D01*
X825876Y515283D01*
X825796Y515131D01*
X825711Y514980D01*
X825703Y514952D01*
X825689Y514927D01*
X825641Y514761D01*
X825587Y514597D01*
X825584Y514568D01*
X825576Y514541D01*
X825561Y514368D01*
X825542Y514197D01*
X825544Y514168D01*
X825541Y514139D01*
X825561Y513968D01*
X825575Y513796D01*
X825583Y513768D01*
X825587Y513739D01*
X825639Y513575D01*
X825688Y513409D01*
X825701Y513384D01*
X825710Y513356D01*
X825794Y513206D01*
X825874Y513052D01*
X825892Y513030D01*
X825906Y513005D01*
X826018Y512874D01*
X826127Y512739D01*
X826151Y512718D01*
X826168Y512699D01*
X826235Y512646D01*
X826379Y512523D01*
X827778Y511506D01*
X829106Y510178D01*
X830211Y508657D01*
X831064Y506983D01*
X831645Y505196D01*
X831685Y504939D01*
X820508Y504939D01*
X820490Y504937D01*
X820473Y504939D01*
X820290Y504918D01*
X820108Y504899D01*
X820091Y504894D01*
X820073Y504892D01*
X819995Y504867D01*
X819858Y504906D01*
G37*
%LPD*%
%LPC*%
G36*
X817322Y336537D02*
X817322Y336537D01*
X812374Y338587D01*
X808587Y342374D01*
X806537Y347322D01*
X806537Y352678D01*
X808587Y357626D01*
X812225Y361264D01*
X812236Y361277D01*
X812249Y361289D01*
X812363Y361433D01*
X812480Y361575D01*
X812488Y361591D01*
X812499Y361605D01*
X812582Y361769D01*
X812668Y361931D01*
X812673Y361948D01*
X812681Y361964D01*
X812731Y362141D01*
X812783Y362317D01*
X812785Y362335D01*
X812789Y362352D01*
X812803Y362535D01*
X812819Y362718D01*
X812817Y362736D01*
X812819Y362753D01*
X812796Y362935D01*
X812776Y363118D01*
X812771Y363135D01*
X812768Y363153D01*
X812710Y363326D01*
X812654Y363502D01*
X812646Y363518D01*
X812640Y363534D01*
X812548Y363694D01*
X812460Y363854D01*
X812448Y363868D01*
X812439Y363883D01*
X812225Y364136D01*
X808587Y367774D01*
X806537Y372722D01*
X806537Y378078D01*
X808587Y383026D01*
X812225Y386664D01*
X812236Y386677D01*
X812249Y386689D01*
X812363Y386833D01*
X812480Y386975D01*
X812488Y386991D01*
X812499Y387005D01*
X812582Y387169D01*
X812668Y387331D01*
X812673Y387348D01*
X812681Y387364D01*
X812731Y387541D01*
X812783Y387717D01*
X812785Y387735D01*
X812789Y387752D01*
X812803Y387935D01*
X812819Y388118D01*
X812817Y388136D01*
X812819Y388153D01*
X812796Y388335D01*
X812776Y388518D01*
X812771Y388535D01*
X812768Y388553D01*
X812710Y388726D01*
X812654Y388902D01*
X812646Y388918D01*
X812640Y388934D01*
X812548Y389094D01*
X812460Y389254D01*
X812448Y389268D01*
X812439Y389283D01*
X812225Y389536D01*
X808587Y393174D01*
X806537Y398122D01*
X806537Y403478D01*
X808587Y408426D01*
X812225Y412064D01*
X812236Y412078D01*
X812249Y412089D01*
X812363Y412233D01*
X812480Y412375D01*
X812488Y412391D01*
X812499Y412405D01*
X812583Y412569D01*
X812668Y412731D01*
X812673Y412748D01*
X812681Y412764D01*
X812731Y412941D01*
X812783Y413117D01*
X812785Y413135D01*
X812789Y413152D01*
X812803Y413335D01*
X812819Y413518D01*
X812817Y413536D01*
X812819Y413553D01*
X812796Y413735D01*
X812776Y413918D01*
X812771Y413935D01*
X812768Y413953D01*
X812710Y414127D01*
X812654Y414302D01*
X812646Y414318D01*
X812640Y414334D01*
X812548Y414494D01*
X812460Y414654D01*
X812448Y414668D01*
X812439Y414683D01*
X812225Y414936D01*
X808587Y418574D01*
X806537Y423522D01*
X806537Y428878D01*
X808587Y433826D01*
X812225Y437464D01*
X812236Y437477D01*
X812249Y437489D01*
X812363Y437633D01*
X812480Y437775D01*
X812488Y437791D01*
X812499Y437805D01*
X812582Y437969D01*
X812668Y438131D01*
X812673Y438148D01*
X812681Y438164D01*
X812731Y438341D01*
X812783Y438517D01*
X812785Y438535D01*
X812789Y438552D01*
X812803Y438735D01*
X812819Y438918D01*
X812817Y438936D01*
X812819Y438953D01*
X812796Y439135D01*
X812776Y439318D01*
X812771Y439335D01*
X812768Y439353D01*
X812710Y439526D01*
X812654Y439702D01*
X812646Y439718D01*
X812640Y439734D01*
X812548Y439894D01*
X812460Y440054D01*
X812448Y440068D01*
X812439Y440083D01*
X812225Y440336D01*
X808587Y443974D01*
X806537Y448922D01*
X806537Y454278D01*
X808587Y459226D01*
X812225Y462864D01*
X812236Y462877D01*
X812249Y462889D01*
X812363Y463033D01*
X812480Y463175D01*
X812488Y463191D01*
X812499Y463205D01*
X812582Y463369D01*
X812668Y463531D01*
X812673Y463548D01*
X812681Y463564D01*
X812731Y463741D01*
X812783Y463917D01*
X812785Y463935D01*
X812789Y463952D01*
X812803Y464135D01*
X812819Y464318D01*
X812817Y464336D01*
X812819Y464353D01*
X812796Y464535D01*
X812776Y464718D01*
X812771Y464735D01*
X812768Y464753D01*
X812710Y464926D01*
X812654Y465102D01*
X812646Y465118D01*
X812640Y465134D01*
X812548Y465294D01*
X812460Y465454D01*
X812448Y465468D01*
X812439Y465483D01*
X812225Y465736D01*
X808587Y469374D01*
X806537Y474322D01*
X806537Y479678D01*
X808587Y484626D01*
X812374Y488413D01*
X813205Y488757D01*
X813357Y488839D01*
X813511Y488916D01*
X813534Y488934D01*
X813560Y488947D01*
X813693Y489057D01*
X813829Y489164D01*
X813848Y489186D01*
X813870Y489204D01*
X813979Y489338D01*
X814091Y489469D01*
X814106Y489494D01*
X814124Y489517D01*
X814204Y489669D01*
X814289Y489820D01*
X814297Y489848D01*
X814311Y489873D01*
X814359Y490039D01*
X814413Y490203D01*
X814416Y490232D01*
X814424Y490259D01*
X814439Y490432D01*
X814458Y490603D01*
X814456Y490632D01*
X814459Y490661D01*
X814439Y490832D01*
X814425Y491004D01*
X814417Y491032D01*
X814413Y491061D01*
X814361Y491225D01*
X814312Y491391D01*
X814299Y491416D01*
X814290Y491444D01*
X814206Y491594D01*
X814126Y491748D01*
X814108Y491770D01*
X814094Y491795D01*
X813982Y491926D01*
X813873Y492061D01*
X813849Y492082D01*
X813832Y492101D01*
X813765Y492154D01*
X813621Y492277D01*
X812222Y493294D01*
X810894Y494622D01*
X809789Y496143D01*
X808936Y497817D01*
X808355Y499604D01*
X808315Y499861D01*
X819492Y499861D01*
X819510Y499862D01*
X819527Y499861D01*
X819710Y499882D01*
X819892Y499901D01*
X819909Y499906D01*
X819927Y499908D01*
X820005Y499933D01*
X820142Y499894D01*
X820160Y499892D01*
X820177Y499888D01*
X820508Y499861D01*
X831685Y499861D01*
X831645Y499604D01*
X831064Y497817D01*
X830211Y496143D01*
X829106Y494622D01*
X827778Y493294D01*
X826379Y492277D01*
X826250Y492163D01*
X826117Y492051D01*
X826099Y492029D01*
X826078Y492009D01*
X825974Y491872D01*
X825866Y491736D01*
X825853Y491711D01*
X825836Y491688D01*
X825761Y491532D01*
X825683Y491378D01*
X825675Y491350D01*
X825662Y491324D01*
X825620Y491157D01*
X825573Y490991D01*
X825571Y490962D01*
X825564Y490934D01*
X825555Y490761D01*
X825542Y490589D01*
X825545Y490561D01*
X825544Y490532D01*
X825570Y490361D01*
X825590Y490190D01*
X825599Y490163D01*
X825604Y490134D01*
X825663Y489971D01*
X825717Y489808D01*
X825731Y489783D01*
X825741Y489755D01*
X825831Y489608D01*
X825916Y489458D01*
X825935Y489436D01*
X825950Y489411D01*
X826068Y489284D01*
X826181Y489154D01*
X826204Y489137D01*
X826223Y489115D01*
X826363Y489014D01*
X826500Y488909D01*
X826529Y488894D01*
X826549Y488879D01*
X826626Y488844D01*
X826795Y488757D01*
X827626Y488413D01*
X831413Y484626D01*
X833463Y479678D01*
X833463Y474322D01*
X831413Y469374D01*
X827775Y465736D01*
X827764Y465722D01*
X827751Y465711D01*
X827637Y465567D01*
X827520Y465425D01*
X827512Y465409D01*
X827501Y465395D01*
X827417Y465231D01*
X827332Y465069D01*
X827327Y465052D01*
X827319Y465036D01*
X827269Y464859D01*
X827217Y464683D01*
X827215Y464665D01*
X827211Y464648D01*
X827197Y464465D01*
X827181Y464282D01*
X827183Y464264D01*
X827181Y464247D01*
X827204Y464065D01*
X827224Y463882D01*
X827229Y463865D01*
X827232Y463847D01*
X827290Y463673D01*
X827346Y463498D01*
X827354Y463482D01*
X827360Y463466D01*
X827452Y463306D01*
X827540Y463146D01*
X827552Y463132D01*
X827561Y463117D01*
X827775Y462864D01*
X831413Y459226D01*
X833463Y454278D01*
X833463Y448922D01*
X831413Y443974D01*
X827775Y440336D01*
X827772Y440333D01*
X827769Y440330D01*
X827761Y440320D01*
X827751Y440311D01*
X827637Y440167D01*
X827520Y440025D01*
X827512Y440009D01*
X827501Y439995D01*
X827417Y439831D01*
X827332Y439669D01*
X827327Y439652D01*
X827319Y439636D01*
X827269Y439459D01*
X827217Y439283D01*
X827215Y439265D01*
X827211Y439248D01*
X827197Y439064D01*
X827181Y438882D01*
X827183Y438864D01*
X827181Y438847D01*
X827204Y438665D01*
X827224Y438482D01*
X827229Y438465D01*
X827232Y438447D01*
X827290Y438273D01*
X827346Y438098D01*
X827354Y438082D01*
X827360Y438066D01*
X827452Y437906D01*
X827540Y437746D01*
X827552Y437732D01*
X827561Y437717D01*
X827775Y437464D01*
X831413Y433826D01*
X833463Y428878D01*
X833463Y423522D01*
X831413Y418574D01*
X827775Y414936D01*
X827764Y414923D01*
X827751Y414911D01*
X827637Y414767D01*
X827520Y414625D01*
X827512Y414609D01*
X827501Y414595D01*
X827418Y414431D01*
X827332Y414269D01*
X827327Y414252D01*
X827319Y414236D01*
X827269Y414059D01*
X827217Y413883D01*
X827215Y413865D01*
X827211Y413848D01*
X827197Y413665D01*
X827181Y413482D01*
X827183Y413464D01*
X827181Y413447D01*
X827204Y413265D01*
X827224Y413082D01*
X827229Y413065D01*
X827232Y413047D01*
X827290Y412874D01*
X827346Y412698D01*
X827354Y412682D01*
X827360Y412666D01*
X827452Y412506D01*
X827540Y412346D01*
X827552Y412332D01*
X827561Y412317D01*
X827775Y412064D01*
X831413Y408426D01*
X833463Y403478D01*
X833463Y398122D01*
X831413Y393174D01*
X827775Y389536D01*
X827764Y389522D01*
X827751Y389511D01*
X827637Y389367D01*
X827520Y389225D01*
X827512Y389209D01*
X827501Y389195D01*
X827417Y389031D01*
X827332Y388869D01*
X827327Y388852D01*
X827319Y388836D01*
X827269Y388659D01*
X827217Y388483D01*
X827215Y388465D01*
X827211Y388448D01*
X827197Y388265D01*
X827181Y388082D01*
X827183Y388064D01*
X827181Y388047D01*
X827204Y387865D01*
X827224Y387682D01*
X827229Y387665D01*
X827232Y387647D01*
X827290Y387473D01*
X827346Y387298D01*
X827354Y387282D01*
X827360Y387266D01*
X827452Y387106D01*
X827540Y386946D01*
X827552Y386932D01*
X827561Y386917D01*
X827775Y386664D01*
X831413Y383026D01*
X833463Y378078D01*
X833463Y372722D01*
X831413Y367774D01*
X827775Y364136D01*
X827764Y364122D01*
X827751Y364111D01*
X827637Y363967D01*
X827520Y363825D01*
X827512Y363809D01*
X827501Y363795D01*
X827417Y363631D01*
X827332Y363469D01*
X827327Y363452D01*
X827319Y363436D01*
X827269Y363259D01*
X827217Y363083D01*
X827215Y363065D01*
X827211Y363048D01*
X827197Y362865D01*
X827181Y362682D01*
X827183Y362664D01*
X827181Y362647D01*
X827204Y362465D01*
X827224Y362282D01*
X827229Y362265D01*
X827232Y362247D01*
X827290Y362073D01*
X827346Y361898D01*
X827354Y361882D01*
X827360Y361866D01*
X827452Y361706D01*
X827540Y361546D01*
X827552Y361532D01*
X827561Y361517D01*
X827775Y361264D01*
X831413Y357626D01*
X833463Y352678D01*
X833463Y347322D01*
X831413Y342374D01*
X827626Y338587D01*
X822678Y336537D01*
X817322Y336537D01*
G37*
%LPD*%
%LPC*%
G36*
X469922Y565337D02*
X469922Y565337D01*
X464974Y567387D01*
X461187Y571174D01*
X460843Y572005D01*
X460761Y572157D01*
X460684Y572311D01*
X460666Y572334D01*
X460653Y572360D01*
X460543Y572493D01*
X460436Y572629D01*
X460414Y572648D01*
X460396Y572670D01*
X460262Y572779D01*
X460131Y572891D01*
X460106Y572906D01*
X460083Y572924D01*
X459931Y573004D01*
X459780Y573089D01*
X459752Y573097D01*
X459727Y573111D01*
X459561Y573159D01*
X459397Y573213D01*
X459368Y573216D01*
X459341Y573224D01*
X459168Y573239D01*
X458997Y573258D01*
X458968Y573256D01*
X458939Y573259D01*
X458768Y573239D01*
X458596Y573225D01*
X458568Y573217D01*
X458539Y573213D01*
X458375Y573161D01*
X458209Y573112D01*
X458184Y573099D01*
X458156Y573090D01*
X458006Y573006D01*
X457852Y572926D01*
X457830Y572908D01*
X457805Y572894D01*
X457674Y572782D01*
X457539Y572673D01*
X457518Y572649D01*
X457499Y572632D01*
X457446Y572565D01*
X457323Y572421D01*
X456306Y571022D01*
X454978Y569694D01*
X453457Y568589D01*
X451783Y567736D01*
X449996Y567155D01*
X449739Y567115D01*
X449739Y578292D01*
X449737Y578310D01*
X449739Y578327D01*
X449718Y578510D01*
X449699Y578692D01*
X449694Y578709D01*
X449692Y578727D01*
X449667Y578805D01*
X449706Y578942D01*
X449708Y578960D01*
X449712Y578977D01*
X449739Y579308D01*
X449739Y590485D01*
X449996Y590445D01*
X451783Y589864D01*
X453457Y589011D01*
X454978Y587906D01*
X456306Y586578D01*
X457323Y585179D01*
X457437Y585050D01*
X457549Y584917D01*
X457571Y584899D01*
X457591Y584878D01*
X457728Y584774D01*
X457864Y584666D01*
X457889Y584653D01*
X457912Y584636D01*
X458068Y584561D01*
X458222Y584483D01*
X458250Y584475D01*
X458276Y584462D01*
X458443Y584420D01*
X458609Y584373D01*
X458638Y584371D01*
X458666Y584364D01*
X458839Y584355D01*
X459011Y584342D01*
X459039Y584345D01*
X459068Y584344D01*
X459239Y584370D01*
X459410Y584390D01*
X459437Y584399D01*
X459466Y584404D01*
X459629Y584463D01*
X459792Y584517D01*
X459817Y584531D01*
X459845Y584541D01*
X459992Y584631D01*
X460142Y584716D01*
X460164Y584735D01*
X460189Y584750D01*
X460316Y584868D01*
X460446Y584981D01*
X460463Y585004D01*
X460485Y585023D01*
X460586Y585163D01*
X460691Y585300D01*
X460706Y585329D01*
X460721Y585349D01*
X460756Y585426D01*
X460843Y585595D01*
X461187Y586426D01*
X464974Y590213D01*
X469922Y592263D01*
X475278Y592263D01*
X480226Y590213D01*
X483864Y586575D01*
X483877Y586564D01*
X483889Y586551D01*
X484033Y586437D01*
X484175Y586320D01*
X484191Y586312D01*
X484205Y586301D01*
X484369Y586218D01*
X484531Y586132D01*
X484548Y586127D01*
X484564Y586119D01*
X484741Y586069D01*
X484917Y586017D01*
X484935Y586015D01*
X484952Y586011D01*
X485135Y585997D01*
X485318Y585981D01*
X485336Y585983D01*
X485353Y585981D01*
X485535Y586004D01*
X485718Y586024D01*
X485735Y586029D01*
X485753Y586032D01*
X485926Y586090D01*
X486102Y586146D01*
X486118Y586154D01*
X486134Y586160D01*
X486294Y586252D01*
X486454Y586340D01*
X486468Y586352D01*
X486483Y586361D01*
X486736Y586575D01*
X490374Y590213D01*
X495322Y592263D01*
X500678Y592263D01*
X505626Y590213D01*
X509413Y586426D01*
X509757Y585595D01*
X509839Y585443D01*
X509916Y585289D01*
X509934Y585266D01*
X509947Y585240D01*
X510057Y585107D01*
X510164Y584971D01*
X510186Y584952D01*
X510204Y584930D01*
X510338Y584821D01*
X510469Y584709D01*
X510494Y584694D01*
X510517Y584676D01*
X510669Y584596D01*
X510820Y584511D01*
X510848Y584503D01*
X510873Y584489D01*
X511039Y584441D01*
X511203Y584387D01*
X511232Y584384D01*
X511259Y584376D01*
X511432Y584361D01*
X511603Y584342D01*
X511632Y584344D01*
X511661Y584341D01*
X511832Y584361D01*
X512004Y584375D01*
X512032Y584383D01*
X512061Y584387D01*
X512225Y584439D01*
X512391Y584488D01*
X512416Y584501D01*
X512444Y584510D01*
X512594Y584594D01*
X512748Y584674D01*
X512770Y584692D01*
X512795Y584706D01*
X512926Y584818D01*
X513061Y584927D01*
X513082Y584951D01*
X513101Y584968D01*
X513154Y585035D01*
X513277Y585179D01*
X514294Y586578D01*
X515622Y587906D01*
X517143Y589011D01*
X518817Y589864D01*
X520604Y590445D01*
X520861Y590485D01*
X520861Y579308D01*
X520862Y579290D01*
X520861Y579273D01*
X520882Y579090D01*
X520901Y578908D01*
X520906Y578891D01*
X520908Y578873D01*
X520933Y578795D01*
X520894Y578658D01*
X520892Y578640D01*
X520888Y578623D01*
X520861Y578292D01*
X520861Y567115D01*
X520604Y567155D01*
X518817Y567736D01*
X517143Y568589D01*
X515622Y569694D01*
X514294Y571022D01*
X513277Y572421D01*
X513163Y572550D01*
X513051Y572683D01*
X513029Y572701D01*
X513009Y572722D01*
X512872Y572826D01*
X512736Y572934D01*
X512711Y572947D01*
X512688Y572964D01*
X512532Y573039D01*
X512378Y573117D01*
X512350Y573125D01*
X512324Y573138D01*
X512157Y573180D01*
X511991Y573227D01*
X511962Y573229D01*
X511934Y573236D01*
X511761Y573245D01*
X511589Y573258D01*
X511561Y573255D01*
X511532Y573256D01*
X511361Y573230D01*
X511190Y573210D01*
X511163Y573201D01*
X511134Y573196D01*
X510971Y573137D01*
X510808Y573083D01*
X510783Y573069D01*
X510755Y573059D01*
X510608Y572969D01*
X510458Y572884D01*
X510436Y572865D01*
X510411Y572850D01*
X510284Y572732D01*
X510154Y572619D01*
X510137Y572596D01*
X510115Y572577D01*
X510014Y572437D01*
X509909Y572300D01*
X509894Y572271D01*
X509879Y572251D01*
X509844Y572174D01*
X509757Y572005D01*
X509413Y571174D01*
X505626Y567387D01*
X504009Y566717D01*
X500678Y565337D01*
X495322Y565337D01*
X490374Y567387D01*
X486736Y571025D01*
X486722Y571036D01*
X486711Y571049D01*
X486567Y571163D01*
X486425Y571280D01*
X486409Y571288D01*
X486395Y571299D01*
X486231Y571383D01*
X486069Y571468D01*
X486052Y571473D01*
X486036Y571481D01*
X485859Y571531D01*
X485683Y571583D01*
X485665Y571585D01*
X485648Y571589D01*
X485465Y571603D01*
X485282Y571619D01*
X485264Y571617D01*
X485247Y571619D01*
X485065Y571596D01*
X484882Y571576D01*
X484865Y571571D01*
X484847Y571568D01*
X484673Y571510D01*
X484498Y571454D01*
X484482Y571446D01*
X484466Y571440D01*
X484306Y571348D01*
X484146Y571260D01*
X484132Y571248D01*
X484117Y571239D01*
X483864Y571025D01*
X480226Y567387D01*
X478609Y566717D01*
X475278Y565337D01*
X469922Y565337D01*
G37*
%LPD*%
%LPC*%
G36*
X517331Y738631D02*
X517331Y738631D01*
X517331Y747523D01*
X519824Y747523D01*
X526223Y741124D01*
X526223Y738631D01*
X517331Y738631D01*
G37*
%LPD*%
%LPC*%
G36*
X162531Y483831D02*
X162531Y483831D01*
X162531Y492723D01*
X165024Y492723D01*
X171423Y486324D01*
X171423Y483831D01*
X162531Y483831D01*
G37*
%LPD*%
%LPC*%
G36*
X517331Y725677D02*
X517331Y725677D01*
X517331Y734569D01*
X526223Y734569D01*
X526223Y732076D01*
X519824Y725677D01*
X517331Y725677D01*
G37*
%LPD*%
%LPC*%
G36*
X149577Y483831D02*
X149577Y483831D01*
X149577Y486324D01*
X155976Y492723D01*
X158469Y492723D01*
X158469Y483831D01*
X149577Y483831D01*
G37*
%LPD*%
%LPC*%
G36*
X804031Y269477D02*
X804031Y269477D01*
X804031Y278369D01*
X812923Y278369D01*
X812923Y275876D01*
X806524Y269477D01*
X804031Y269477D01*
G37*
%LPD*%
%LPC*%
G36*
X797476Y269477D02*
X797476Y269477D01*
X791077Y275876D01*
X791077Y278369D01*
X799969Y278369D01*
X799969Y269477D01*
X797476Y269477D01*
G37*
%LPD*%
%LPC*%
G36*
X488076Y164977D02*
X488076Y164977D01*
X481677Y171376D01*
X481677Y173869D01*
X490569Y173869D01*
X490569Y164977D01*
X488076Y164977D01*
G37*
%LPD*%
D10*
X421800Y578800D03*
X447200Y578800D03*
X472600Y578800D03*
X498000Y578800D03*
X523400Y578800D03*
X548800Y578800D03*
D11*
X492600Y175900D03*
X512600Y175900D03*
D12*
X515300Y736600D03*
X495300Y736600D03*
D13*
X802000Y280400D03*
X802000Y300400D03*
D14*
X160500Y481800D03*
X160500Y461800D03*
D10*
X820000Y350000D03*
X820000Y375400D03*
X820000Y400800D03*
X820000Y426200D03*
X820000Y451600D03*
X820000Y477000D03*
X820000Y502400D03*
X820000Y527800D03*
X820000Y553200D03*
X820000Y578600D03*
D15*
X574400Y553200D02*
X548800Y578800D01*
X574400Y553200D02*
X820000Y553200D01*
D16*
X421800Y578800D02*
X421800Y580000D01*
D15*
X231800Y461800D02*
X160500Y461800D01*
X231800Y461800D02*
X350000Y580000D01*
X420000Y580000D01*
X421800Y580000D01*
X478500Y210000D02*
X512600Y175900D01*
X170000Y210000D02*
X160000Y220000D01*
X160000Y461300D01*
X160500Y461800D01*
X170000Y210000D02*
X478500Y210000D01*
X495300Y736600D02*
X436600Y736600D01*
X420000Y720000D02*
X420000Y580000D01*
X420000Y720000D02*
X436600Y736600D01*
X760400Y300400D02*
X802000Y300400D01*
X740000Y280000D02*
X740000Y180000D01*
X735900Y175900D01*
X512600Y175900D01*
X740000Y280000D02*
X760400Y300400D01*
M02*
