G04 EAGLE Gerber RS-274X export*
G75*
%MOMM*%
%FSLAX34Y34*%
%LPD*%
%INSilkscreen Top*%
%IPPOS*%
%AMOC8*
5,1,8,0,0,1.08239X$1,22.5*%
G01*
%ADD10C,0.203200*%
%ADD11C,0.127000*%
%ADD12C,0.101600*%


D10*
X536100Y585150D02*
X542450Y591500D01*
X555150Y591500D01*
X561500Y585150D01*
X561500Y572450D02*
X555150Y566100D01*
X542450Y566100D01*
X536100Y572450D01*
X504350Y591500D02*
X491650Y591500D01*
X504350Y591500D02*
X510700Y585150D01*
X510700Y572450D02*
X504350Y566100D01*
X510700Y585150D02*
X517050Y591500D01*
X529750Y591500D01*
X536100Y585150D01*
X536100Y572450D02*
X529750Y566100D01*
X517050Y566100D01*
X510700Y572450D01*
X466250Y591500D02*
X459900Y585150D01*
X466250Y591500D02*
X478950Y591500D01*
X485300Y585150D01*
X485300Y572450D02*
X478950Y566100D01*
X466250Y566100D01*
X459900Y572450D01*
X485300Y585150D02*
X491650Y591500D01*
X485300Y572450D02*
X491650Y566100D01*
X504350Y566100D01*
X428150Y591500D02*
X415450Y591500D01*
X428150Y591500D02*
X434500Y585150D01*
X434500Y572450D02*
X428150Y566100D01*
X434500Y585150D02*
X440850Y591500D01*
X453550Y591500D01*
X459900Y585150D01*
X459900Y572450D02*
X453550Y566100D01*
X440850Y566100D01*
X434500Y572450D01*
X409100Y572450D02*
X409100Y585150D01*
X415450Y591500D01*
X409100Y572450D02*
X415450Y566100D01*
X428150Y566100D01*
X561500Y572450D02*
X561500Y585150D01*
D11*
X409735Y593405D02*
X409735Y598231D01*
X411076Y598231D01*
X411147Y598229D01*
X411219Y598223D01*
X411289Y598214D01*
X411359Y598201D01*
X411429Y598184D01*
X411497Y598163D01*
X411564Y598139D01*
X411630Y598111D01*
X411694Y598080D01*
X411757Y598045D01*
X411817Y598007D01*
X411876Y597966D01*
X411932Y597922D01*
X411986Y597875D01*
X412037Y597826D01*
X412085Y597773D01*
X412131Y597718D01*
X412173Y597661D01*
X412213Y597601D01*
X412249Y597540D01*
X412282Y597476D01*
X412311Y597411D01*
X412337Y597345D01*
X412360Y597277D01*
X412379Y597208D01*
X412394Y597138D01*
X412405Y597068D01*
X412413Y596997D01*
X412417Y596926D01*
X412417Y596854D01*
X412413Y596783D01*
X412405Y596712D01*
X412394Y596642D01*
X412379Y596572D01*
X412360Y596503D01*
X412337Y596435D01*
X412311Y596369D01*
X412282Y596304D01*
X412249Y596240D01*
X412213Y596179D01*
X412173Y596119D01*
X412131Y596062D01*
X412085Y596007D01*
X412037Y595954D01*
X411986Y595905D01*
X411932Y595858D01*
X411876Y595814D01*
X411817Y595773D01*
X411757Y595735D01*
X411694Y595700D01*
X411630Y595669D01*
X411564Y595641D01*
X411497Y595617D01*
X411429Y595596D01*
X411359Y595579D01*
X411289Y595566D01*
X411219Y595557D01*
X411147Y595551D01*
X411076Y595549D01*
X411076Y595550D02*
X409735Y595550D01*
X414892Y594746D02*
X414892Y596890D01*
X414894Y596961D01*
X414900Y597033D01*
X414909Y597103D01*
X414922Y597173D01*
X414939Y597243D01*
X414960Y597311D01*
X414984Y597378D01*
X415012Y597444D01*
X415043Y597508D01*
X415078Y597571D01*
X415116Y597631D01*
X415157Y597690D01*
X415201Y597746D01*
X415248Y597800D01*
X415297Y597851D01*
X415350Y597899D01*
X415405Y597945D01*
X415462Y597987D01*
X415522Y598027D01*
X415583Y598063D01*
X415647Y598096D01*
X415712Y598125D01*
X415778Y598151D01*
X415846Y598174D01*
X415915Y598193D01*
X415985Y598208D01*
X416055Y598219D01*
X416126Y598227D01*
X416197Y598231D01*
X416269Y598231D01*
X416340Y598227D01*
X416411Y598219D01*
X416481Y598208D01*
X416551Y598193D01*
X416620Y598174D01*
X416688Y598151D01*
X416754Y598125D01*
X416819Y598096D01*
X416883Y598063D01*
X416944Y598027D01*
X417004Y597987D01*
X417061Y597945D01*
X417116Y597899D01*
X417169Y597851D01*
X417218Y597800D01*
X417265Y597746D01*
X417309Y597690D01*
X417350Y597631D01*
X417388Y597571D01*
X417423Y597508D01*
X417454Y597444D01*
X417482Y597378D01*
X417506Y597311D01*
X417527Y597243D01*
X417544Y597173D01*
X417557Y597103D01*
X417566Y597033D01*
X417572Y596961D01*
X417574Y596890D01*
X417573Y596890D02*
X417573Y594746D01*
X417574Y594746D02*
X417572Y594675D01*
X417566Y594603D01*
X417557Y594533D01*
X417544Y594463D01*
X417527Y594393D01*
X417506Y594325D01*
X417482Y594258D01*
X417454Y594192D01*
X417423Y594128D01*
X417388Y594065D01*
X417350Y594005D01*
X417309Y593946D01*
X417265Y593890D01*
X417218Y593836D01*
X417169Y593785D01*
X417116Y593737D01*
X417061Y593691D01*
X417004Y593649D01*
X416944Y593609D01*
X416883Y593573D01*
X416819Y593540D01*
X416754Y593511D01*
X416688Y593485D01*
X416620Y593462D01*
X416551Y593443D01*
X416481Y593428D01*
X416411Y593417D01*
X416340Y593409D01*
X416269Y593405D01*
X416197Y593405D01*
X416126Y593409D01*
X416055Y593417D01*
X415985Y593428D01*
X415915Y593443D01*
X415846Y593462D01*
X415778Y593485D01*
X415712Y593511D01*
X415647Y593540D01*
X415583Y593573D01*
X415522Y593609D01*
X415462Y593649D01*
X415405Y593691D01*
X415350Y593737D01*
X415297Y593785D01*
X415248Y593836D01*
X415201Y593890D01*
X415157Y593946D01*
X415116Y594005D01*
X415078Y594065D01*
X415043Y594128D01*
X415012Y594192D01*
X414984Y594258D01*
X414960Y594325D01*
X414939Y594393D01*
X414922Y594463D01*
X414909Y594533D01*
X414900Y594603D01*
X414894Y594675D01*
X414892Y594746D01*
X420306Y598231D02*
X421378Y593405D01*
X422450Y596622D01*
X423523Y593405D01*
X424595Y598231D01*
X427530Y593405D02*
X429675Y593405D01*
X427530Y593405D02*
X427530Y598231D01*
X429675Y598231D01*
X429139Y596086D02*
X427530Y596086D01*
X432329Y598231D02*
X432329Y593405D01*
X432329Y598231D02*
X433670Y598231D01*
X433741Y598229D01*
X433813Y598223D01*
X433883Y598214D01*
X433953Y598201D01*
X434023Y598184D01*
X434091Y598163D01*
X434158Y598139D01*
X434224Y598111D01*
X434288Y598080D01*
X434351Y598045D01*
X434411Y598007D01*
X434470Y597966D01*
X434526Y597922D01*
X434580Y597875D01*
X434631Y597826D01*
X434679Y597773D01*
X434725Y597718D01*
X434767Y597661D01*
X434807Y597601D01*
X434843Y597540D01*
X434876Y597476D01*
X434905Y597411D01*
X434931Y597345D01*
X434954Y597277D01*
X434973Y597208D01*
X434988Y597138D01*
X434999Y597068D01*
X435007Y596997D01*
X435011Y596926D01*
X435011Y596854D01*
X435007Y596783D01*
X434999Y596712D01*
X434988Y596642D01*
X434973Y596572D01*
X434954Y596503D01*
X434931Y596435D01*
X434905Y596369D01*
X434876Y596304D01*
X434843Y596240D01*
X434807Y596179D01*
X434767Y596119D01*
X434725Y596062D01*
X434679Y596007D01*
X434631Y595954D01*
X434580Y595905D01*
X434526Y595858D01*
X434470Y595814D01*
X434411Y595773D01*
X434351Y595735D01*
X434288Y595700D01*
X434224Y595669D01*
X434158Y595641D01*
X434091Y595617D01*
X434023Y595596D01*
X433953Y595579D01*
X433883Y595566D01*
X433813Y595557D01*
X433741Y595551D01*
X433670Y595549D01*
X433670Y595550D02*
X432329Y595550D01*
X433938Y595550D02*
X435010Y593405D01*
X437471Y592869D02*
X439616Y592869D01*
X442470Y596086D02*
X443811Y596086D01*
X443811Y596087D02*
X443882Y596085D01*
X443954Y596079D01*
X444024Y596070D01*
X444094Y596057D01*
X444164Y596040D01*
X444232Y596019D01*
X444299Y595995D01*
X444365Y595967D01*
X444429Y595936D01*
X444492Y595901D01*
X444552Y595863D01*
X444611Y595822D01*
X444667Y595778D01*
X444721Y595731D01*
X444772Y595682D01*
X444820Y595629D01*
X444866Y595574D01*
X444908Y595517D01*
X444948Y595457D01*
X444984Y595396D01*
X445017Y595332D01*
X445046Y595267D01*
X445072Y595201D01*
X445095Y595133D01*
X445114Y595064D01*
X445129Y594994D01*
X445140Y594924D01*
X445148Y594853D01*
X445152Y594782D01*
X445152Y594710D01*
X445148Y594639D01*
X445140Y594568D01*
X445129Y594498D01*
X445114Y594428D01*
X445095Y594359D01*
X445072Y594291D01*
X445046Y594225D01*
X445017Y594160D01*
X444984Y594096D01*
X444948Y594035D01*
X444908Y593975D01*
X444866Y593918D01*
X444820Y593863D01*
X444772Y593810D01*
X444721Y593761D01*
X444667Y593714D01*
X444611Y593670D01*
X444552Y593629D01*
X444492Y593591D01*
X444429Y593556D01*
X444365Y593525D01*
X444299Y593497D01*
X444232Y593473D01*
X444164Y593452D01*
X444094Y593435D01*
X444024Y593422D01*
X443954Y593413D01*
X443882Y593407D01*
X443811Y593405D01*
X442470Y593405D01*
X442470Y598231D01*
X443811Y598231D01*
X443876Y598229D01*
X443940Y598223D01*
X444004Y598213D01*
X444068Y598200D01*
X444130Y598182D01*
X444191Y598161D01*
X444251Y598137D01*
X444309Y598108D01*
X444366Y598076D01*
X444420Y598041D01*
X444472Y598003D01*
X444522Y597961D01*
X444569Y597917D01*
X444613Y597870D01*
X444655Y597820D01*
X444693Y597768D01*
X444728Y597714D01*
X444760Y597657D01*
X444789Y597599D01*
X444813Y597539D01*
X444834Y597478D01*
X444852Y597416D01*
X444865Y597352D01*
X444875Y597288D01*
X444881Y597224D01*
X444883Y597159D01*
X444881Y597094D01*
X444875Y597030D01*
X444865Y596966D01*
X444852Y596902D01*
X444834Y596840D01*
X444813Y596779D01*
X444789Y596719D01*
X444760Y596661D01*
X444728Y596604D01*
X444693Y596550D01*
X444655Y596498D01*
X444613Y596448D01*
X444569Y596401D01*
X444522Y596357D01*
X444472Y596315D01*
X444420Y596277D01*
X444366Y596242D01*
X444309Y596210D01*
X444251Y596181D01*
X444191Y596157D01*
X444130Y596136D01*
X444068Y596118D01*
X444004Y596105D01*
X443940Y596095D01*
X443876Y596089D01*
X443811Y596087D01*
X447627Y596890D02*
X447627Y594746D01*
X447627Y596890D02*
X447629Y596961D01*
X447635Y597033D01*
X447644Y597103D01*
X447657Y597173D01*
X447674Y597243D01*
X447695Y597311D01*
X447719Y597378D01*
X447747Y597444D01*
X447778Y597508D01*
X447813Y597571D01*
X447851Y597631D01*
X447892Y597690D01*
X447936Y597746D01*
X447983Y597800D01*
X448032Y597851D01*
X448085Y597899D01*
X448140Y597945D01*
X448197Y597987D01*
X448257Y598027D01*
X448318Y598063D01*
X448382Y598096D01*
X448447Y598125D01*
X448513Y598151D01*
X448581Y598174D01*
X448650Y598193D01*
X448720Y598208D01*
X448790Y598219D01*
X448861Y598227D01*
X448932Y598231D01*
X449004Y598231D01*
X449075Y598227D01*
X449146Y598219D01*
X449216Y598208D01*
X449286Y598193D01*
X449355Y598174D01*
X449423Y598151D01*
X449489Y598125D01*
X449554Y598096D01*
X449618Y598063D01*
X449679Y598027D01*
X449739Y597987D01*
X449796Y597945D01*
X449851Y597899D01*
X449904Y597851D01*
X449953Y597800D01*
X450000Y597746D01*
X450044Y597690D01*
X450085Y597631D01*
X450123Y597571D01*
X450158Y597508D01*
X450189Y597444D01*
X450217Y597378D01*
X450241Y597311D01*
X450262Y597243D01*
X450279Y597173D01*
X450292Y597103D01*
X450301Y597033D01*
X450307Y596961D01*
X450309Y596890D01*
X450308Y596890D02*
X450308Y594746D01*
X450309Y594746D02*
X450307Y594675D01*
X450301Y594603D01*
X450292Y594533D01*
X450279Y594463D01*
X450262Y594393D01*
X450241Y594325D01*
X450217Y594258D01*
X450189Y594192D01*
X450158Y594128D01*
X450123Y594065D01*
X450085Y594005D01*
X450044Y593946D01*
X450000Y593890D01*
X449953Y593836D01*
X449904Y593785D01*
X449851Y593737D01*
X449796Y593691D01*
X449739Y593649D01*
X449679Y593609D01*
X449618Y593573D01*
X449554Y593540D01*
X449489Y593511D01*
X449423Y593485D01*
X449355Y593462D01*
X449286Y593443D01*
X449216Y593428D01*
X449146Y593417D01*
X449075Y593409D01*
X449004Y593405D01*
X448932Y593405D01*
X448861Y593409D01*
X448790Y593417D01*
X448720Y593428D01*
X448650Y593443D01*
X448581Y593462D01*
X448513Y593485D01*
X448447Y593511D01*
X448382Y593540D01*
X448318Y593573D01*
X448257Y593609D01*
X448197Y593649D01*
X448140Y593691D01*
X448085Y593737D01*
X448032Y593785D01*
X447983Y593836D01*
X447936Y593890D01*
X447892Y593946D01*
X447851Y594005D01*
X447813Y594065D01*
X447778Y594128D01*
X447747Y594192D01*
X447719Y594258D01*
X447695Y594325D01*
X447674Y594393D01*
X447657Y594463D01*
X447644Y594533D01*
X447635Y594603D01*
X447629Y594675D01*
X447627Y594746D01*
X453114Y594746D02*
X453114Y596890D01*
X453113Y596890D02*
X453115Y596961D01*
X453121Y597033D01*
X453130Y597103D01*
X453143Y597173D01*
X453160Y597243D01*
X453181Y597311D01*
X453205Y597378D01*
X453233Y597444D01*
X453264Y597508D01*
X453299Y597571D01*
X453337Y597631D01*
X453378Y597690D01*
X453422Y597746D01*
X453469Y597800D01*
X453518Y597851D01*
X453571Y597899D01*
X453626Y597945D01*
X453683Y597987D01*
X453743Y598027D01*
X453804Y598063D01*
X453868Y598096D01*
X453933Y598125D01*
X453999Y598151D01*
X454067Y598174D01*
X454136Y598193D01*
X454206Y598208D01*
X454276Y598219D01*
X454347Y598227D01*
X454418Y598231D01*
X454490Y598231D01*
X454561Y598227D01*
X454632Y598219D01*
X454702Y598208D01*
X454772Y598193D01*
X454841Y598174D01*
X454909Y598151D01*
X454975Y598125D01*
X455040Y598096D01*
X455104Y598063D01*
X455165Y598027D01*
X455225Y597987D01*
X455282Y597945D01*
X455337Y597899D01*
X455390Y597851D01*
X455439Y597800D01*
X455486Y597746D01*
X455530Y597690D01*
X455571Y597631D01*
X455609Y597571D01*
X455644Y597508D01*
X455675Y597444D01*
X455703Y597378D01*
X455727Y597311D01*
X455748Y597243D01*
X455765Y597173D01*
X455778Y597103D01*
X455787Y597033D01*
X455793Y596961D01*
X455795Y596890D01*
X455795Y594746D01*
X455793Y594675D01*
X455787Y594603D01*
X455778Y594533D01*
X455765Y594463D01*
X455748Y594393D01*
X455727Y594325D01*
X455703Y594258D01*
X455675Y594192D01*
X455644Y594128D01*
X455609Y594065D01*
X455571Y594005D01*
X455530Y593946D01*
X455486Y593890D01*
X455439Y593836D01*
X455390Y593785D01*
X455337Y593737D01*
X455282Y593691D01*
X455225Y593649D01*
X455165Y593609D01*
X455104Y593573D01*
X455040Y593540D01*
X454975Y593511D01*
X454909Y593485D01*
X454841Y593462D01*
X454772Y593443D01*
X454702Y593428D01*
X454632Y593417D01*
X454561Y593409D01*
X454490Y593405D01*
X454418Y593405D01*
X454347Y593409D01*
X454276Y593417D01*
X454206Y593428D01*
X454136Y593443D01*
X454067Y593462D01*
X453999Y593485D01*
X453933Y593511D01*
X453868Y593540D01*
X453804Y593573D01*
X453743Y593609D01*
X453683Y593649D01*
X453626Y593691D01*
X453571Y593737D01*
X453518Y593785D01*
X453469Y593836D01*
X453422Y593890D01*
X453378Y593946D01*
X453337Y594005D01*
X453299Y594065D01*
X453264Y594128D01*
X453233Y594192D01*
X453205Y594258D01*
X453181Y594325D01*
X453160Y594393D01*
X453143Y594463D01*
X453130Y594533D01*
X453121Y594603D01*
X453115Y594675D01*
X453113Y594746D01*
X460026Y593405D02*
X460091Y593407D01*
X460155Y593413D01*
X460219Y593423D01*
X460283Y593436D01*
X460345Y593454D01*
X460406Y593475D01*
X460466Y593499D01*
X460524Y593528D01*
X460581Y593560D01*
X460635Y593595D01*
X460687Y593633D01*
X460737Y593675D01*
X460784Y593719D01*
X460828Y593766D01*
X460870Y593816D01*
X460908Y593868D01*
X460943Y593922D01*
X460975Y593979D01*
X461004Y594037D01*
X461028Y594097D01*
X461049Y594158D01*
X461067Y594220D01*
X461080Y594284D01*
X461090Y594348D01*
X461096Y594412D01*
X461098Y594477D01*
X460026Y593405D02*
X459932Y593407D01*
X459838Y593413D01*
X459744Y593423D01*
X459651Y593436D01*
X459559Y593454D01*
X459467Y593475D01*
X459376Y593500D01*
X459286Y593529D01*
X459198Y593562D01*
X459111Y593598D01*
X459026Y593638D01*
X458942Y593681D01*
X458861Y593728D01*
X458781Y593778D01*
X458703Y593831D01*
X458628Y593888D01*
X458555Y593947D01*
X458485Y594010D01*
X458417Y594075D01*
X458552Y597159D02*
X458554Y597224D01*
X458560Y597288D01*
X458570Y597352D01*
X458583Y597416D01*
X458601Y597478D01*
X458622Y597539D01*
X458646Y597599D01*
X458675Y597657D01*
X458707Y597714D01*
X458742Y597768D01*
X458780Y597820D01*
X458822Y597870D01*
X458866Y597917D01*
X458913Y597961D01*
X458963Y598003D01*
X459015Y598041D01*
X459069Y598076D01*
X459126Y598108D01*
X459184Y598137D01*
X459244Y598161D01*
X459305Y598182D01*
X459367Y598200D01*
X459431Y598213D01*
X459495Y598223D01*
X459559Y598229D01*
X459624Y598231D01*
X459710Y598229D01*
X459796Y598224D01*
X459882Y598214D01*
X459967Y598201D01*
X460052Y598185D01*
X460136Y598165D01*
X460219Y598141D01*
X460301Y598114D01*
X460381Y598083D01*
X460461Y598049D01*
X460538Y598011D01*
X460614Y597970D01*
X460688Y597926D01*
X460760Y597879D01*
X460831Y597829D01*
X459087Y596221D02*
X459034Y596254D01*
X458983Y596291D01*
X458934Y596330D01*
X458887Y596372D01*
X458843Y596417D01*
X458802Y596464D01*
X458763Y596513D01*
X458727Y596565D01*
X458694Y596619D01*
X458665Y596674D01*
X458639Y596731D01*
X458616Y596790D01*
X458596Y596849D01*
X458580Y596910D01*
X458567Y596971D01*
X458558Y597034D01*
X458553Y597096D01*
X458551Y597159D01*
X460562Y595415D02*
X460615Y595382D01*
X460666Y595345D01*
X460715Y595306D01*
X460762Y595264D01*
X460806Y595219D01*
X460847Y595172D01*
X460886Y595123D01*
X460922Y595071D01*
X460955Y595017D01*
X460984Y594962D01*
X461010Y594905D01*
X461033Y594846D01*
X461053Y594787D01*
X461069Y594726D01*
X461082Y594665D01*
X461091Y594602D01*
X461096Y594540D01*
X461098Y594477D01*
X460562Y595416D02*
X459087Y596220D01*
X464695Y598231D02*
X464695Y593405D01*
X463355Y598231D02*
X466036Y598231D01*
X468195Y592869D02*
X470340Y592869D01*
X472864Y597159D02*
X474205Y598231D01*
X474205Y593405D01*
X472864Y593405D02*
X475546Y593405D01*
X478351Y595818D02*
X478353Y595938D01*
X478358Y596058D01*
X478367Y596178D01*
X478380Y596298D01*
X478396Y596417D01*
X478416Y596536D01*
X478440Y596654D01*
X478467Y596771D01*
X478497Y596887D01*
X478531Y597002D01*
X478569Y597117D01*
X478610Y597230D01*
X478654Y597341D01*
X478702Y597452D01*
X478753Y597561D01*
X478774Y597618D01*
X478800Y597674D01*
X478828Y597729D01*
X478860Y597781D01*
X478896Y597832D01*
X478934Y597880D01*
X478975Y597926D01*
X479019Y597969D01*
X479065Y598009D01*
X479114Y598046D01*
X479166Y598080D01*
X479219Y598111D01*
X479274Y598139D01*
X479330Y598163D01*
X479388Y598184D01*
X479447Y598201D01*
X479507Y598214D01*
X479568Y598223D01*
X479630Y598229D01*
X479691Y598231D01*
X479752Y598229D01*
X479814Y598223D01*
X479875Y598214D01*
X479935Y598201D01*
X479994Y598184D01*
X480052Y598163D01*
X480108Y598139D01*
X480163Y598111D01*
X480216Y598080D01*
X480268Y598046D01*
X480317Y598009D01*
X480363Y597969D01*
X480407Y597926D01*
X480448Y597880D01*
X480486Y597832D01*
X480522Y597781D01*
X480554Y597729D01*
X480582Y597674D01*
X480608Y597618D01*
X480629Y597561D01*
X480630Y597561D02*
X480681Y597452D01*
X480729Y597341D01*
X480773Y597230D01*
X480814Y597117D01*
X480852Y597002D01*
X480886Y596887D01*
X480916Y596771D01*
X480943Y596654D01*
X480967Y596536D01*
X480987Y596417D01*
X481003Y596298D01*
X481016Y596178D01*
X481025Y596058D01*
X481030Y595938D01*
X481032Y595818D01*
X478351Y595818D02*
X478353Y595698D01*
X478358Y595578D01*
X478367Y595458D01*
X478380Y595338D01*
X478396Y595219D01*
X478416Y595100D01*
X478440Y594982D01*
X478467Y594865D01*
X478497Y594749D01*
X478531Y594634D01*
X478569Y594519D01*
X478610Y594406D01*
X478654Y594295D01*
X478702Y594184D01*
X478753Y594075D01*
X478774Y594018D01*
X478800Y593962D01*
X478828Y593907D01*
X478860Y593855D01*
X478896Y593804D01*
X478934Y593756D01*
X478975Y593710D01*
X479019Y593667D01*
X479065Y593627D01*
X479114Y593590D01*
X479166Y593556D01*
X479219Y593525D01*
X479274Y593497D01*
X479330Y593473D01*
X479388Y593452D01*
X479447Y593435D01*
X479507Y593422D01*
X479568Y593413D01*
X479630Y593407D01*
X479691Y593405D01*
X480630Y594075D02*
X480681Y594184D01*
X480729Y594295D01*
X480773Y594406D01*
X480814Y594519D01*
X480852Y594634D01*
X480886Y594749D01*
X480916Y594865D01*
X480943Y594982D01*
X480967Y595100D01*
X480987Y595219D01*
X481003Y595338D01*
X481016Y595458D01*
X481025Y595578D01*
X481030Y595698D01*
X481032Y595818D01*
X480629Y594075D02*
X480608Y594018D01*
X480582Y593962D01*
X480554Y593907D01*
X480522Y593855D01*
X480486Y593804D01*
X480448Y593756D01*
X480407Y593710D01*
X480363Y593667D01*
X480316Y593627D01*
X480268Y593590D01*
X480216Y593556D01*
X480163Y593525D01*
X480108Y593497D01*
X480052Y593473D01*
X479994Y593452D01*
X479935Y593435D01*
X479875Y593422D01*
X479814Y593413D01*
X479752Y593407D01*
X479691Y593405D01*
X478619Y594477D02*
X480764Y597159D01*
X483837Y595818D02*
X483839Y595938D01*
X483844Y596058D01*
X483853Y596178D01*
X483866Y596298D01*
X483882Y596417D01*
X483902Y596536D01*
X483926Y596654D01*
X483953Y596771D01*
X483983Y596887D01*
X484017Y597002D01*
X484055Y597117D01*
X484096Y597230D01*
X484140Y597341D01*
X484188Y597452D01*
X484239Y597561D01*
X484240Y597561D02*
X484261Y597618D01*
X484287Y597674D01*
X484315Y597729D01*
X484347Y597781D01*
X484383Y597832D01*
X484421Y597880D01*
X484462Y597926D01*
X484506Y597969D01*
X484552Y598009D01*
X484601Y598046D01*
X484653Y598080D01*
X484706Y598111D01*
X484761Y598139D01*
X484817Y598163D01*
X484875Y598184D01*
X484934Y598201D01*
X484994Y598214D01*
X485055Y598223D01*
X485117Y598229D01*
X485178Y598231D01*
X485239Y598229D01*
X485301Y598223D01*
X485362Y598214D01*
X485422Y598201D01*
X485481Y598184D01*
X485539Y598163D01*
X485595Y598139D01*
X485650Y598111D01*
X485703Y598080D01*
X485755Y598046D01*
X485804Y598009D01*
X485850Y597969D01*
X485894Y597926D01*
X485935Y597880D01*
X485973Y597832D01*
X486009Y597781D01*
X486041Y597729D01*
X486069Y597674D01*
X486095Y597618D01*
X486116Y597561D01*
X486167Y597452D01*
X486215Y597341D01*
X486259Y597230D01*
X486300Y597117D01*
X486338Y597002D01*
X486372Y596887D01*
X486402Y596771D01*
X486429Y596654D01*
X486453Y596536D01*
X486473Y596417D01*
X486489Y596298D01*
X486502Y596178D01*
X486511Y596058D01*
X486516Y595938D01*
X486518Y595818D01*
X483837Y595818D02*
X483839Y595698D01*
X483844Y595578D01*
X483853Y595458D01*
X483866Y595338D01*
X483882Y595219D01*
X483902Y595100D01*
X483926Y594982D01*
X483953Y594865D01*
X483983Y594749D01*
X484017Y594634D01*
X484055Y594519D01*
X484096Y594406D01*
X484140Y594295D01*
X484188Y594184D01*
X484239Y594075D01*
X484240Y594075D02*
X484261Y594018D01*
X484287Y593962D01*
X484315Y593907D01*
X484347Y593855D01*
X484383Y593804D01*
X484421Y593756D01*
X484462Y593710D01*
X484506Y593667D01*
X484552Y593627D01*
X484601Y593590D01*
X484653Y593556D01*
X484706Y593525D01*
X484761Y593497D01*
X484817Y593473D01*
X484875Y593452D01*
X484934Y593435D01*
X484994Y593422D01*
X485055Y593413D01*
X485117Y593407D01*
X485178Y593405D01*
X486116Y594075D02*
X486167Y594184D01*
X486215Y594295D01*
X486259Y594406D01*
X486300Y594519D01*
X486338Y594634D01*
X486372Y594749D01*
X486402Y594865D01*
X486429Y594982D01*
X486453Y595100D01*
X486473Y595219D01*
X486489Y595338D01*
X486502Y595458D01*
X486511Y595578D01*
X486516Y595698D01*
X486518Y595818D01*
X486116Y594075D02*
X486095Y594018D01*
X486069Y593962D01*
X486041Y593907D01*
X486009Y593855D01*
X485973Y593804D01*
X485935Y593756D01*
X485894Y593710D01*
X485850Y593667D01*
X485803Y593627D01*
X485755Y593590D01*
X485703Y593556D01*
X485650Y593525D01*
X485595Y593497D01*
X485539Y593473D01*
X485481Y593452D01*
X485422Y593435D01*
X485362Y593422D01*
X485301Y593413D01*
X485239Y593407D01*
X485178Y593405D01*
X484105Y594477D02*
X486250Y597159D01*
X489323Y595818D02*
X489325Y595938D01*
X489330Y596058D01*
X489339Y596178D01*
X489352Y596298D01*
X489368Y596417D01*
X489388Y596536D01*
X489412Y596654D01*
X489439Y596771D01*
X489469Y596887D01*
X489503Y597002D01*
X489541Y597117D01*
X489582Y597230D01*
X489626Y597341D01*
X489674Y597452D01*
X489725Y597561D01*
X489726Y597561D02*
X489747Y597618D01*
X489773Y597674D01*
X489801Y597729D01*
X489833Y597781D01*
X489869Y597832D01*
X489907Y597880D01*
X489948Y597926D01*
X489992Y597969D01*
X490038Y598009D01*
X490087Y598046D01*
X490139Y598080D01*
X490192Y598111D01*
X490247Y598139D01*
X490303Y598163D01*
X490361Y598184D01*
X490420Y598201D01*
X490480Y598214D01*
X490541Y598223D01*
X490603Y598229D01*
X490664Y598231D01*
X490725Y598229D01*
X490787Y598223D01*
X490848Y598214D01*
X490908Y598201D01*
X490967Y598184D01*
X491025Y598163D01*
X491081Y598139D01*
X491136Y598111D01*
X491189Y598080D01*
X491241Y598046D01*
X491290Y598009D01*
X491336Y597969D01*
X491380Y597926D01*
X491421Y597880D01*
X491459Y597832D01*
X491495Y597781D01*
X491527Y597729D01*
X491555Y597674D01*
X491581Y597618D01*
X491602Y597561D01*
X491603Y597561D02*
X491654Y597452D01*
X491702Y597341D01*
X491746Y597230D01*
X491787Y597117D01*
X491825Y597002D01*
X491859Y596887D01*
X491889Y596771D01*
X491916Y596654D01*
X491940Y596536D01*
X491960Y596417D01*
X491976Y596298D01*
X491989Y596178D01*
X491998Y596058D01*
X492003Y595938D01*
X492005Y595818D01*
X489324Y595818D02*
X489326Y595698D01*
X489331Y595578D01*
X489340Y595458D01*
X489353Y595338D01*
X489369Y595219D01*
X489389Y595100D01*
X489413Y594982D01*
X489440Y594865D01*
X489470Y594749D01*
X489504Y594634D01*
X489542Y594519D01*
X489583Y594406D01*
X489627Y594295D01*
X489675Y594184D01*
X489726Y594075D01*
X489747Y594018D01*
X489773Y593962D01*
X489801Y593907D01*
X489833Y593855D01*
X489869Y593804D01*
X489907Y593756D01*
X489948Y593710D01*
X489992Y593667D01*
X490038Y593627D01*
X490087Y593590D01*
X490139Y593556D01*
X490192Y593525D01*
X490247Y593497D01*
X490303Y593473D01*
X490361Y593452D01*
X490420Y593435D01*
X490480Y593422D01*
X490541Y593413D01*
X490603Y593407D01*
X490664Y593405D01*
X491602Y594075D02*
X491653Y594184D01*
X491701Y594295D01*
X491745Y594406D01*
X491786Y594519D01*
X491824Y594634D01*
X491858Y594749D01*
X491888Y594865D01*
X491915Y594982D01*
X491939Y595100D01*
X491959Y595219D01*
X491975Y595338D01*
X491988Y595458D01*
X491997Y595578D01*
X492002Y595698D01*
X492004Y595818D01*
X491602Y594075D02*
X491581Y594018D01*
X491555Y593962D01*
X491527Y593907D01*
X491495Y593855D01*
X491459Y593804D01*
X491421Y593756D01*
X491380Y593710D01*
X491336Y593667D01*
X491289Y593627D01*
X491241Y593590D01*
X491189Y593556D01*
X491136Y593525D01*
X491081Y593497D01*
X491025Y593473D01*
X490967Y593452D01*
X490908Y593435D01*
X490848Y593422D01*
X490787Y593413D01*
X490725Y593407D01*
X490664Y593405D01*
X489592Y594477D02*
X491737Y597159D01*
X498600Y158900D02*
X473100Y158900D01*
X498600Y158900D02*
X506600Y158900D01*
X532100Y158900D01*
X532100Y203900D02*
X473100Y203900D01*
X532100Y203900D02*
X532100Y181900D01*
X532100Y172900D01*
X532100Y158900D01*
X473100Y181900D02*
X473100Y203900D01*
X473100Y181900D02*
X473100Y172900D01*
X473100Y158900D01*
X479100Y197900D02*
X526100Y197900D01*
X479100Y197900D02*
X479100Y181900D01*
X479100Y172900D01*
X479100Y164900D01*
X498600Y164900D01*
X526100Y181900D02*
X526100Y197900D01*
X526100Y181900D02*
X526100Y172900D01*
X526100Y164900D01*
X479100Y172900D02*
X473100Y172900D01*
X473100Y181900D02*
X479100Y181900D01*
X526100Y181900D02*
X532100Y181900D01*
X532100Y172900D02*
X526100Y172900D01*
X526100Y164900D02*
X506600Y164900D01*
X506600Y158900D01*
X498600Y158900D02*
X498600Y164900D01*
D12*
X512109Y150497D02*
X515355Y153093D01*
X515355Y141409D01*
X518600Y141409D02*
X512109Y141409D01*
X473108Y211409D02*
X473108Y223093D01*
X476354Y223093D01*
X476467Y223091D01*
X476580Y223085D01*
X476693Y223075D01*
X476806Y223061D01*
X476918Y223044D01*
X477029Y223022D01*
X477139Y222997D01*
X477249Y222967D01*
X477357Y222934D01*
X477464Y222897D01*
X477570Y222857D01*
X477674Y222812D01*
X477777Y222764D01*
X477878Y222713D01*
X477977Y222658D01*
X478074Y222600D01*
X478169Y222538D01*
X478262Y222473D01*
X478352Y222405D01*
X478440Y222334D01*
X478526Y222259D01*
X478609Y222182D01*
X478689Y222102D01*
X478766Y222019D01*
X478841Y221933D01*
X478912Y221845D01*
X478980Y221755D01*
X479045Y221662D01*
X479107Y221567D01*
X479165Y221470D01*
X479220Y221371D01*
X479271Y221270D01*
X479319Y221167D01*
X479364Y221063D01*
X479404Y220957D01*
X479441Y220850D01*
X479474Y220742D01*
X479504Y220632D01*
X479529Y220522D01*
X479551Y220411D01*
X479568Y220299D01*
X479582Y220186D01*
X479592Y220073D01*
X479598Y219960D01*
X479600Y219847D01*
X479598Y219734D01*
X479592Y219621D01*
X479582Y219508D01*
X479568Y219395D01*
X479551Y219283D01*
X479529Y219172D01*
X479504Y219062D01*
X479474Y218952D01*
X479441Y218844D01*
X479404Y218737D01*
X479364Y218631D01*
X479319Y218527D01*
X479271Y218424D01*
X479220Y218323D01*
X479165Y218224D01*
X479107Y218127D01*
X479045Y218032D01*
X478980Y217939D01*
X478912Y217849D01*
X478841Y217761D01*
X478766Y217675D01*
X478689Y217592D01*
X478609Y217512D01*
X478526Y217435D01*
X478440Y217360D01*
X478352Y217289D01*
X478262Y217221D01*
X478169Y217156D01*
X478074Y217094D01*
X477977Y217036D01*
X477878Y216981D01*
X477777Y216930D01*
X477674Y216882D01*
X477570Y216837D01*
X477464Y216797D01*
X477357Y216760D01*
X477249Y216727D01*
X477139Y216697D01*
X477029Y216672D01*
X476918Y216650D01*
X476806Y216633D01*
X476693Y216619D01*
X476580Y216609D01*
X476467Y216603D01*
X476354Y216601D01*
X476354Y216602D02*
X473108Y216602D01*
X483339Y211409D02*
X487233Y223093D01*
X491128Y211409D01*
X490154Y214330D02*
X484312Y214330D01*
X495799Y211409D02*
X495799Y223093D01*
X502290Y211409D01*
X502290Y223093D01*
X508013Y211409D02*
X513206Y211409D01*
X508013Y211409D02*
X508013Y223093D01*
X513206Y223093D01*
X511908Y217900D02*
X508013Y217900D01*
X517919Y223093D02*
X517919Y211409D01*
X523112Y211409D01*
X526928Y210111D02*
X532121Y210111D01*
X536566Y220497D02*
X539811Y223093D01*
X539811Y211409D01*
X536566Y211409D02*
X543057Y211409D01*
D11*
X534800Y753600D02*
X509300Y753600D01*
X501300Y753600D01*
X475800Y753600D01*
X475800Y708600D02*
X534800Y708600D01*
X475800Y708600D02*
X475800Y730600D01*
X475800Y739600D01*
X475800Y753600D01*
X534800Y730600D02*
X534800Y708600D01*
X534800Y730600D02*
X534800Y739600D01*
X534800Y753600D01*
X528800Y714600D02*
X481800Y714600D01*
X528800Y714600D02*
X528800Y730600D01*
X528800Y739600D01*
X528800Y747600D01*
X509300Y747600D01*
X481800Y730600D02*
X481800Y714600D01*
X481800Y730600D02*
X481800Y739600D01*
X481800Y747600D01*
X528800Y739600D02*
X534800Y739600D01*
X534800Y730600D02*
X528800Y730600D01*
X481800Y730600D02*
X475800Y730600D01*
X475800Y739600D02*
X481800Y739600D01*
X481800Y747600D02*
X501300Y747600D01*
X501300Y753600D01*
X509300Y753600D02*
X509300Y747600D01*
D12*
X492545Y771091D02*
X489300Y768495D01*
X492545Y771091D02*
X492545Y759407D01*
X489300Y759407D02*
X495791Y759407D01*
X464843Y701091D02*
X464843Y689407D01*
X464843Y701091D02*
X468089Y701091D01*
X468202Y701089D01*
X468315Y701083D01*
X468428Y701073D01*
X468541Y701059D01*
X468653Y701042D01*
X468764Y701020D01*
X468874Y700995D01*
X468984Y700965D01*
X469092Y700932D01*
X469199Y700895D01*
X469305Y700855D01*
X469409Y700810D01*
X469512Y700762D01*
X469613Y700711D01*
X469712Y700656D01*
X469809Y700598D01*
X469904Y700536D01*
X469997Y700471D01*
X470087Y700403D01*
X470175Y700332D01*
X470261Y700257D01*
X470344Y700180D01*
X470424Y700100D01*
X470501Y700017D01*
X470576Y699931D01*
X470647Y699843D01*
X470715Y699753D01*
X470780Y699660D01*
X470842Y699565D01*
X470900Y699468D01*
X470955Y699369D01*
X471006Y699268D01*
X471054Y699165D01*
X471099Y699061D01*
X471139Y698955D01*
X471176Y698848D01*
X471209Y698740D01*
X471239Y698630D01*
X471264Y698520D01*
X471286Y698409D01*
X471303Y698297D01*
X471317Y698184D01*
X471327Y698071D01*
X471333Y697958D01*
X471335Y697845D01*
X471333Y697732D01*
X471327Y697619D01*
X471317Y697506D01*
X471303Y697393D01*
X471286Y697281D01*
X471264Y697170D01*
X471239Y697060D01*
X471209Y696950D01*
X471176Y696842D01*
X471139Y696735D01*
X471099Y696629D01*
X471054Y696525D01*
X471006Y696422D01*
X470955Y696321D01*
X470900Y696222D01*
X470842Y696125D01*
X470780Y696030D01*
X470715Y695937D01*
X470647Y695847D01*
X470576Y695759D01*
X470501Y695673D01*
X470424Y695590D01*
X470344Y695510D01*
X470261Y695433D01*
X470175Y695358D01*
X470087Y695287D01*
X469997Y695219D01*
X469904Y695154D01*
X469809Y695092D01*
X469712Y695034D01*
X469613Y694979D01*
X469512Y694928D01*
X469409Y694880D01*
X469305Y694835D01*
X469199Y694795D01*
X469092Y694758D01*
X468984Y694725D01*
X468874Y694695D01*
X468764Y694670D01*
X468653Y694648D01*
X468541Y694631D01*
X468428Y694617D01*
X468315Y694607D01*
X468202Y694601D01*
X468089Y694599D01*
X468089Y694600D02*
X464843Y694600D01*
X475074Y689407D02*
X478969Y701091D01*
X482863Y689407D01*
X481890Y692328D02*
X476048Y692328D01*
X487534Y689407D02*
X487534Y701091D01*
X494025Y689407D01*
X494025Y701091D01*
X499749Y689407D02*
X504941Y689407D01*
X499749Y689407D02*
X499749Y701091D01*
X504941Y701091D01*
X503643Y695898D02*
X499749Y695898D01*
X509655Y701091D02*
X509655Y689407D01*
X514847Y689407D01*
X518663Y688109D02*
X523856Y688109D01*
X534792Y698170D02*
X534790Y698277D01*
X534784Y698383D01*
X534774Y698489D01*
X534761Y698595D01*
X534743Y698701D01*
X534722Y698805D01*
X534697Y698909D01*
X534668Y699012D01*
X534636Y699113D01*
X534599Y699213D01*
X534559Y699312D01*
X534516Y699410D01*
X534469Y699506D01*
X534418Y699600D01*
X534364Y699692D01*
X534307Y699782D01*
X534247Y699870D01*
X534183Y699955D01*
X534116Y700038D01*
X534046Y700119D01*
X533974Y700197D01*
X533898Y700273D01*
X533820Y700345D01*
X533739Y700415D01*
X533656Y700482D01*
X533571Y700546D01*
X533483Y700606D01*
X533393Y700663D01*
X533301Y700717D01*
X533207Y700768D01*
X533111Y700815D01*
X533013Y700858D01*
X532914Y700898D01*
X532814Y700935D01*
X532713Y700967D01*
X532610Y700996D01*
X532506Y701021D01*
X532402Y701042D01*
X532296Y701060D01*
X532190Y701073D01*
X532084Y701083D01*
X531978Y701089D01*
X531871Y701091D01*
X531750Y701089D01*
X531629Y701083D01*
X531509Y701073D01*
X531388Y701060D01*
X531269Y701042D01*
X531149Y701021D01*
X531031Y700996D01*
X530914Y700967D01*
X530797Y700934D01*
X530682Y700898D01*
X530568Y700857D01*
X530455Y700814D01*
X530343Y700766D01*
X530234Y700715D01*
X530126Y700660D01*
X530019Y700602D01*
X529915Y700541D01*
X529813Y700476D01*
X529713Y700408D01*
X529615Y700337D01*
X529519Y700263D01*
X529426Y700186D01*
X529336Y700105D01*
X529248Y700022D01*
X529163Y699936D01*
X529080Y699847D01*
X529001Y699756D01*
X528924Y699662D01*
X528851Y699566D01*
X528781Y699468D01*
X528714Y699367D01*
X528650Y699264D01*
X528590Y699159D01*
X528533Y699052D01*
X528479Y698944D01*
X528429Y698834D01*
X528383Y698722D01*
X528340Y698609D01*
X528301Y698494D01*
X533819Y695898D02*
X533898Y695975D01*
X533974Y696056D01*
X534047Y696139D01*
X534117Y696224D01*
X534184Y696312D01*
X534248Y696402D01*
X534308Y696494D01*
X534365Y696589D01*
X534419Y696685D01*
X534470Y696783D01*
X534517Y696883D01*
X534561Y696985D01*
X534601Y697088D01*
X534637Y697192D01*
X534669Y697298D01*
X534698Y697404D01*
X534723Y697512D01*
X534745Y697620D01*
X534762Y697730D01*
X534776Y697839D01*
X534785Y697949D01*
X534791Y698060D01*
X534793Y698170D01*
X533818Y695898D02*
X528301Y689407D01*
X534792Y689407D01*
D11*
X819000Y286400D02*
X819000Y260900D01*
X819000Y286400D02*
X819000Y294400D01*
X819000Y319900D01*
X774000Y319900D02*
X774000Y260900D01*
X774000Y319900D02*
X796000Y319900D01*
X805000Y319900D01*
X819000Y319900D01*
X796000Y260900D02*
X774000Y260900D01*
X796000Y260900D02*
X805000Y260900D01*
X819000Y260900D01*
X780000Y266900D02*
X780000Y313900D01*
X780000Y266900D02*
X796000Y266900D01*
X805000Y266900D01*
X813000Y266900D01*
X813000Y286400D01*
X796000Y313900D02*
X780000Y313900D01*
X796000Y313900D02*
X805000Y313900D01*
X813000Y313900D01*
X805000Y266900D02*
X805000Y260900D01*
X796000Y260900D02*
X796000Y266900D01*
X796000Y313900D02*
X796000Y319900D01*
X805000Y319900D02*
X805000Y313900D01*
X813000Y313900D02*
X813000Y294400D01*
X819000Y294400D01*
X819000Y286400D02*
X813000Y286400D01*
D12*
X827403Y299909D02*
X824807Y303155D01*
X836491Y303155D01*
X836491Y306400D02*
X836491Y299909D01*
X766491Y260908D02*
X754807Y260908D01*
X754807Y264154D01*
X754809Y264267D01*
X754815Y264380D01*
X754825Y264493D01*
X754839Y264606D01*
X754856Y264718D01*
X754878Y264829D01*
X754903Y264939D01*
X754933Y265049D01*
X754966Y265157D01*
X755003Y265264D01*
X755043Y265370D01*
X755088Y265474D01*
X755136Y265577D01*
X755187Y265678D01*
X755242Y265777D01*
X755300Y265874D01*
X755362Y265969D01*
X755427Y266062D01*
X755495Y266152D01*
X755566Y266240D01*
X755641Y266326D01*
X755718Y266409D01*
X755798Y266489D01*
X755881Y266566D01*
X755967Y266641D01*
X756055Y266712D01*
X756145Y266780D01*
X756238Y266845D01*
X756333Y266907D01*
X756430Y266965D01*
X756529Y267020D01*
X756630Y267071D01*
X756733Y267119D01*
X756837Y267164D01*
X756943Y267204D01*
X757050Y267241D01*
X757158Y267274D01*
X757268Y267304D01*
X757378Y267329D01*
X757489Y267351D01*
X757601Y267368D01*
X757714Y267382D01*
X757827Y267392D01*
X757940Y267398D01*
X758053Y267400D01*
X758166Y267398D01*
X758279Y267392D01*
X758392Y267382D01*
X758505Y267368D01*
X758617Y267351D01*
X758728Y267329D01*
X758838Y267304D01*
X758948Y267274D01*
X759056Y267241D01*
X759163Y267204D01*
X759269Y267164D01*
X759373Y267119D01*
X759476Y267071D01*
X759577Y267020D01*
X759676Y266965D01*
X759773Y266907D01*
X759868Y266845D01*
X759961Y266780D01*
X760051Y266712D01*
X760139Y266641D01*
X760225Y266566D01*
X760308Y266489D01*
X760388Y266409D01*
X760465Y266326D01*
X760540Y266240D01*
X760611Y266152D01*
X760679Y266062D01*
X760744Y265969D01*
X760806Y265874D01*
X760864Y265777D01*
X760919Y265678D01*
X760970Y265577D01*
X761018Y265474D01*
X761063Y265370D01*
X761103Y265264D01*
X761140Y265157D01*
X761173Y265049D01*
X761203Y264939D01*
X761228Y264829D01*
X761250Y264718D01*
X761267Y264606D01*
X761281Y264493D01*
X761291Y264380D01*
X761297Y264267D01*
X761299Y264154D01*
X761298Y264154D02*
X761298Y260908D01*
X766491Y271139D02*
X754807Y275033D01*
X766491Y278928D01*
X763570Y277954D02*
X763570Y272112D01*
X766491Y283599D02*
X754807Y283599D01*
X766491Y290090D01*
X754807Y290090D01*
X766491Y295813D02*
X766491Y301006D01*
X766491Y295813D02*
X754807Y295813D01*
X754807Y301006D01*
X760000Y299708D02*
X760000Y295813D01*
X754807Y305719D02*
X766491Y305719D01*
X766491Y310912D01*
X767789Y314728D02*
X767789Y319921D01*
X766491Y324366D02*
X766491Y327611D01*
X766489Y327724D01*
X766483Y327837D01*
X766473Y327950D01*
X766459Y328063D01*
X766442Y328175D01*
X766420Y328286D01*
X766395Y328396D01*
X766365Y328506D01*
X766332Y328614D01*
X766295Y328721D01*
X766255Y328827D01*
X766210Y328931D01*
X766162Y329034D01*
X766111Y329135D01*
X766056Y329234D01*
X765998Y329331D01*
X765936Y329426D01*
X765871Y329519D01*
X765803Y329609D01*
X765732Y329697D01*
X765657Y329783D01*
X765580Y329866D01*
X765500Y329946D01*
X765417Y330023D01*
X765331Y330098D01*
X765243Y330169D01*
X765153Y330237D01*
X765060Y330302D01*
X764965Y330364D01*
X764868Y330422D01*
X764769Y330477D01*
X764668Y330528D01*
X764565Y330576D01*
X764461Y330621D01*
X764355Y330661D01*
X764248Y330698D01*
X764140Y330731D01*
X764030Y330761D01*
X763920Y330786D01*
X763809Y330808D01*
X763697Y330825D01*
X763584Y330839D01*
X763471Y330849D01*
X763358Y330855D01*
X763245Y330857D01*
X763132Y330855D01*
X763019Y330849D01*
X762906Y330839D01*
X762793Y330825D01*
X762681Y330808D01*
X762570Y330786D01*
X762460Y330761D01*
X762350Y330731D01*
X762242Y330698D01*
X762135Y330661D01*
X762029Y330621D01*
X761925Y330576D01*
X761822Y330528D01*
X761721Y330477D01*
X761622Y330422D01*
X761525Y330364D01*
X761430Y330302D01*
X761337Y330237D01*
X761247Y330169D01*
X761159Y330098D01*
X761073Y330023D01*
X760990Y329946D01*
X760910Y329866D01*
X760833Y329783D01*
X760758Y329697D01*
X760687Y329609D01*
X760619Y329519D01*
X760554Y329426D01*
X760492Y329331D01*
X760434Y329234D01*
X760379Y329135D01*
X760328Y329034D01*
X760280Y328931D01*
X760235Y328827D01*
X760195Y328721D01*
X760158Y328614D01*
X760125Y328506D01*
X760095Y328396D01*
X760070Y328286D01*
X760048Y328175D01*
X760031Y328063D01*
X760017Y327950D01*
X760007Y327837D01*
X760001Y327724D01*
X759999Y327611D01*
X754807Y328260D02*
X754807Y324366D01*
X754807Y328260D02*
X754809Y328361D01*
X754815Y328461D01*
X754825Y328561D01*
X754838Y328661D01*
X754856Y328760D01*
X754877Y328859D01*
X754902Y328956D01*
X754931Y329053D01*
X754964Y329148D01*
X755000Y329242D01*
X755040Y329334D01*
X755083Y329425D01*
X755130Y329514D01*
X755180Y329601D01*
X755234Y329687D01*
X755291Y329770D01*
X755351Y329850D01*
X755414Y329929D01*
X755481Y330005D01*
X755550Y330078D01*
X755622Y330148D01*
X755696Y330216D01*
X755773Y330281D01*
X755853Y330342D01*
X755935Y330401D01*
X756019Y330456D01*
X756105Y330508D01*
X756193Y330557D01*
X756283Y330602D01*
X756375Y330644D01*
X756468Y330682D01*
X756563Y330716D01*
X756658Y330747D01*
X756755Y330774D01*
X756853Y330797D01*
X756952Y330817D01*
X757052Y330832D01*
X757152Y330844D01*
X757252Y330852D01*
X757353Y330856D01*
X757453Y330856D01*
X757554Y330852D01*
X757654Y330844D01*
X757754Y330832D01*
X757854Y330817D01*
X757953Y330797D01*
X758051Y330774D01*
X758148Y330747D01*
X758243Y330716D01*
X758338Y330682D01*
X758431Y330644D01*
X758523Y330602D01*
X758613Y330557D01*
X758701Y330508D01*
X758787Y330456D01*
X758871Y330401D01*
X758953Y330342D01*
X759033Y330281D01*
X759110Y330216D01*
X759184Y330148D01*
X759256Y330078D01*
X759325Y330005D01*
X759392Y329929D01*
X759455Y329850D01*
X759515Y329770D01*
X759572Y329687D01*
X759626Y329601D01*
X759676Y329514D01*
X759723Y329425D01*
X759766Y329334D01*
X759806Y329242D01*
X759842Y329148D01*
X759875Y329053D01*
X759904Y328956D01*
X759929Y328859D01*
X759950Y328760D01*
X759968Y328661D01*
X759981Y328561D01*
X759991Y328461D01*
X759997Y328361D01*
X759999Y328260D01*
X760000Y328260D02*
X760000Y325664D01*
D11*
X143500Y475800D02*
X143500Y501300D01*
X143500Y475800D02*
X143500Y467800D01*
X143500Y442300D01*
X188500Y442300D02*
X188500Y501300D01*
X188500Y442300D02*
X166500Y442300D01*
X157500Y442300D01*
X143500Y442300D01*
X166500Y501300D02*
X188500Y501300D01*
X166500Y501300D02*
X157500Y501300D01*
X143500Y501300D01*
X182500Y495300D02*
X182500Y448300D01*
X182500Y495300D02*
X166500Y495300D01*
X157500Y495300D01*
X149500Y495300D01*
X149500Y475800D01*
X166500Y448300D02*
X182500Y448300D01*
X166500Y448300D02*
X157500Y448300D01*
X149500Y448300D01*
X157500Y495300D02*
X157500Y501300D01*
X166500Y501300D02*
X166500Y495300D01*
X166500Y448300D02*
X166500Y442300D01*
X157500Y442300D02*
X157500Y448300D01*
X149500Y448300D02*
X149500Y467800D01*
X143500Y467800D01*
X143500Y475800D02*
X149500Y475800D01*
D12*
X126009Y459045D02*
X128605Y455800D01*
X126009Y459045D02*
X137693Y459045D01*
X137693Y455800D02*
X137693Y462291D01*
X196009Y431343D02*
X207693Y431343D01*
X196009Y431343D02*
X196009Y434589D01*
X196011Y434702D01*
X196017Y434815D01*
X196027Y434928D01*
X196041Y435041D01*
X196058Y435153D01*
X196080Y435264D01*
X196105Y435374D01*
X196135Y435484D01*
X196168Y435592D01*
X196205Y435699D01*
X196245Y435805D01*
X196290Y435909D01*
X196338Y436012D01*
X196389Y436113D01*
X196444Y436212D01*
X196502Y436309D01*
X196564Y436404D01*
X196629Y436497D01*
X196697Y436587D01*
X196768Y436675D01*
X196843Y436761D01*
X196920Y436844D01*
X197000Y436924D01*
X197083Y437001D01*
X197169Y437076D01*
X197257Y437147D01*
X197347Y437215D01*
X197440Y437280D01*
X197535Y437342D01*
X197632Y437400D01*
X197731Y437455D01*
X197832Y437506D01*
X197935Y437554D01*
X198039Y437599D01*
X198145Y437639D01*
X198252Y437676D01*
X198360Y437709D01*
X198470Y437739D01*
X198580Y437764D01*
X198691Y437786D01*
X198803Y437803D01*
X198916Y437817D01*
X199029Y437827D01*
X199142Y437833D01*
X199255Y437835D01*
X199368Y437833D01*
X199481Y437827D01*
X199594Y437817D01*
X199707Y437803D01*
X199819Y437786D01*
X199930Y437764D01*
X200040Y437739D01*
X200150Y437709D01*
X200258Y437676D01*
X200365Y437639D01*
X200471Y437599D01*
X200575Y437554D01*
X200678Y437506D01*
X200779Y437455D01*
X200878Y437400D01*
X200975Y437342D01*
X201070Y437280D01*
X201163Y437215D01*
X201253Y437147D01*
X201341Y437076D01*
X201427Y437001D01*
X201510Y436924D01*
X201590Y436844D01*
X201667Y436761D01*
X201742Y436675D01*
X201813Y436587D01*
X201881Y436497D01*
X201946Y436404D01*
X202008Y436309D01*
X202066Y436212D01*
X202121Y436113D01*
X202172Y436012D01*
X202220Y435909D01*
X202265Y435805D01*
X202305Y435699D01*
X202342Y435592D01*
X202375Y435484D01*
X202405Y435374D01*
X202430Y435264D01*
X202452Y435153D01*
X202469Y435041D01*
X202483Y434928D01*
X202493Y434815D01*
X202499Y434702D01*
X202501Y434589D01*
X202500Y434589D02*
X202500Y431343D01*
X207693Y441574D02*
X196009Y445469D01*
X207693Y449363D01*
X204772Y448390D02*
X204772Y442548D01*
X207693Y454034D02*
X196009Y454034D01*
X207693Y460525D01*
X196009Y460525D01*
X207693Y466249D02*
X207693Y471441D01*
X207693Y466249D02*
X196009Y466249D01*
X196009Y471441D01*
X201202Y470143D02*
X201202Y466249D01*
X196009Y476155D02*
X207693Y476155D01*
X207693Y481347D01*
X208991Y485163D02*
X208991Y490356D01*
X205097Y494801D02*
X196009Y497397D01*
X205097Y494801D02*
X205097Y501292D01*
X202500Y499345D02*
X207693Y499345D01*
D10*
X807300Y496050D02*
X807300Y508750D01*
X813650Y515100D01*
X826350Y515100D02*
X832700Y508750D01*
X807300Y470650D02*
X813650Y464300D01*
X807300Y470650D02*
X807300Y483350D01*
X813650Y489700D01*
X826350Y489700D02*
X832700Y483350D01*
X832700Y470650D01*
X826350Y464300D01*
X813650Y489700D02*
X807300Y496050D01*
X826350Y489700D02*
X832700Y496050D01*
X832700Y508750D01*
X807300Y432550D02*
X807300Y419850D01*
X807300Y432550D02*
X813650Y438900D01*
X826350Y438900D02*
X832700Y432550D01*
X813650Y438900D02*
X807300Y445250D01*
X807300Y457950D01*
X813650Y464300D01*
X826350Y464300D02*
X832700Y457950D01*
X832700Y445250D01*
X826350Y438900D01*
X807300Y394450D02*
X813650Y388100D01*
X807300Y394450D02*
X807300Y407150D01*
X813650Y413500D01*
X826350Y413500D02*
X832700Y407150D01*
X832700Y394450D01*
X826350Y388100D01*
X813650Y413500D02*
X807300Y419850D01*
X826350Y413500D02*
X832700Y419850D01*
X832700Y432550D01*
X807300Y356350D02*
X807300Y343650D01*
X807300Y356350D02*
X813650Y362700D01*
X826350Y362700D02*
X832700Y356350D01*
X813650Y362700D02*
X807300Y369050D01*
X807300Y381750D01*
X813650Y388100D01*
X826350Y388100D02*
X832700Y381750D01*
X832700Y369050D01*
X826350Y362700D01*
X826350Y337300D02*
X813650Y337300D01*
X807300Y343650D01*
X826350Y337300D02*
X832700Y343650D01*
X832700Y356350D01*
X807300Y521450D02*
X807300Y534150D01*
X813650Y540500D01*
X826350Y540500D02*
X832700Y534150D01*
X813650Y515100D02*
X807300Y521450D01*
X826350Y515100D02*
X832700Y521450D01*
X832700Y534150D01*
X807300Y546850D02*
X807300Y559550D01*
X813650Y565900D01*
X826350Y565900D02*
X832700Y559550D01*
X813650Y540500D02*
X807300Y546850D01*
X826350Y540500D02*
X832700Y546850D01*
X832700Y559550D01*
X807300Y572250D02*
X807300Y584950D01*
X813650Y591300D01*
X826350Y591300D01*
X832700Y584950D01*
X813650Y565900D02*
X807300Y572250D01*
X826350Y565900D02*
X832700Y572250D01*
X832700Y584950D01*
D11*
X795395Y350080D02*
X795395Y349007D01*
X795393Y348942D01*
X795387Y348878D01*
X795377Y348814D01*
X795364Y348750D01*
X795346Y348688D01*
X795325Y348627D01*
X795301Y348567D01*
X795272Y348509D01*
X795240Y348452D01*
X795205Y348398D01*
X795167Y348346D01*
X795125Y348296D01*
X795081Y348249D01*
X795034Y348205D01*
X794984Y348163D01*
X794932Y348125D01*
X794878Y348090D01*
X794821Y348058D01*
X794763Y348029D01*
X794703Y348005D01*
X794642Y347984D01*
X794580Y347966D01*
X794516Y347953D01*
X794452Y347943D01*
X794388Y347937D01*
X794323Y347935D01*
X791641Y347935D01*
X791576Y347937D01*
X791512Y347943D01*
X791448Y347953D01*
X791384Y347966D01*
X791322Y347984D01*
X791261Y348005D01*
X791201Y348030D01*
X791142Y348058D01*
X791086Y348090D01*
X791031Y348125D01*
X790979Y348163D01*
X790929Y348205D01*
X790882Y348249D01*
X790838Y348296D01*
X790796Y348346D01*
X790758Y348398D01*
X790723Y348453D01*
X790691Y348509D01*
X790663Y348568D01*
X790638Y348627D01*
X790617Y348689D01*
X790599Y348751D01*
X790586Y348815D01*
X790576Y348879D01*
X790570Y348943D01*
X790568Y349008D01*
X790569Y349007D02*
X790569Y350080D01*
X790569Y352719D02*
X794054Y352719D01*
X794054Y352718D02*
X794125Y352720D01*
X794197Y352726D01*
X794267Y352735D01*
X794337Y352748D01*
X794407Y352765D01*
X794475Y352786D01*
X794542Y352810D01*
X794608Y352838D01*
X794672Y352869D01*
X794735Y352904D01*
X794795Y352942D01*
X794854Y352983D01*
X794910Y353027D01*
X794964Y353074D01*
X795015Y353123D01*
X795063Y353176D01*
X795109Y353231D01*
X795151Y353288D01*
X795191Y353348D01*
X795227Y353409D01*
X795260Y353473D01*
X795289Y353538D01*
X795315Y353604D01*
X795338Y353672D01*
X795357Y353741D01*
X795372Y353811D01*
X795383Y353881D01*
X795391Y353952D01*
X795395Y354023D01*
X795395Y354095D01*
X795391Y354166D01*
X795383Y354237D01*
X795372Y354307D01*
X795357Y354377D01*
X795338Y354446D01*
X795315Y354514D01*
X795289Y354580D01*
X795260Y354645D01*
X795227Y354709D01*
X795191Y354770D01*
X795151Y354830D01*
X795109Y354887D01*
X795063Y354942D01*
X795015Y354995D01*
X794964Y355044D01*
X794910Y355091D01*
X794854Y355135D01*
X794795Y355176D01*
X794735Y355214D01*
X794672Y355249D01*
X794608Y355280D01*
X794542Y355308D01*
X794475Y355332D01*
X794407Y355353D01*
X794337Y355370D01*
X794267Y355383D01*
X794197Y355392D01*
X794125Y355398D01*
X794054Y355400D01*
X790569Y355400D01*
X792714Y358717D02*
X792714Y360058D01*
X792713Y360058D02*
X792715Y360129D01*
X792721Y360201D01*
X792730Y360271D01*
X792743Y360341D01*
X792760Y360411D01*
X792781Y360479D01*
X792805Y360546D01*
X792833Y360612D01*
X792864Y360676D01*
X792899Y360739D01*
X792937Y360799D01*
X792978Y360858D01*
X793022Y360914D01*
X793069Y360968D01*
X793118Y361019D01*
X793171Y361067D01*
X793226Y361113D01*
X793283Y361155D01*
X793343Y361195D01*
X793404Y361231D01*
X793468Y361264D01*
X793533Y361293D01*
X793599Y361319D01*
X793667Y361342D01*
X793736Y361361D01*
X793806Y361376D01*
X793876Y361387D01*
X793947Y361395D01*
X794018Y361399D01*
X794090Y361399D01*
X794161Y361395D01*
X794232Y361387D01*
X794302Y361376D01*
X794372Y361361D01*
X794441Y361342D01*
X794509Y361319D01*
X794575Y361293D01*
X794640Y361264D01*
X794704Y361231D01*
X794765Y361195D01*
X794825Y361155D01*
X794882Y361113D01*
X794937Y361067D01*
X794990Y361019D01*
X795039Y360968D01*
X795086Y360914D01*
X795130Y360858D01*
X795171Y360799D01*
X795209Y360739D01*
X795244Y360676D01*
X795275Y360612D01*
X795303Y360546D01*
X795327Y360479D01*
X795348Y360411D01*
X795365Y360341D01*
X795378Y360271D01*
X795387Y360201D01*
X795393Y360129D01*
X795395Y360058D01*
X795395Y358717D01*
X790569Y358717D01*
X790569Y360058D01*
X790571Y360123D01*
X790577Y360187D01*
X790587Y360251D01*
X790600Y360315D01*
X790618Y360377D01*
X790639Y360438D01*
X790663Y360498D01*
X790692Y360556D01*
X790724Y360613D01*
X790759Y360667D01*
X790797Y360719D01*
X790839Y360769D01*
X790883Y360816D01*
X790930Y360860D01*
X790980Y360902D01*
X791032Y360940D01*
X791086Y360975D01*
X791143Y361007D01*
X791201Y361036D01*
X791261Y361060D01*
X791322Y361081D01*
X791384Y361099D01*
X791448Y361112D01*
X791512Y361122D01*
X791576Y361128D01*
X791641Y361130D01*
X791706Y361128D01*
X791770Y361122D01*
X791834Y361112D01*
X791898Y361099D01*
X791960Y361081D01*
X792021Y361060D01*
X792081Y361036D01*
X792139Y361007D01*
X792196Y360975D01*
X792250Y360940D01*
X792302Y360902D01*
X792352Y360860D01*
X792399Y360816D01*
X792443Y360769D01*
X792485Y360719D01*
X792523Y360667D01*
X792558Y360613D01*
X792590Y360556D01*
X792619Y360498D01*
X792643Y360438D01*
X792664Y360377D01*
X792682Y360315D01*
X792695Y360251D01*
X792705Y360187D01*
X792711Y360123D01*
X792713Y360058D01*
X795395Y364077D02*
X795395Y366222D01*
X795395Y364077D02*
X790569Y364077D01*
X790569Y366222D01*
X792714Y365685D02*
X792714Y364077D01*
X795395Y370055D02*
X795393Y370120D01*
X795387Y370184D01*
X795377Y370248D01*
X795364Y370312D01*
X795346Y370374D01*
X795325Y370435D01*
X795301Y370495D01*
X795272Y370553D01*
X795240Y370610D01*
X795205Y370664D01*
X795167Y370716D01*
X795125Y370766D01*
X795081Y370813D01*
X795034Y370857D01*
X794984Y370899D01*
X794932Y370937D01*
X794878Y370972D01*
X794821Y371004D01*
X794763Y371033D01*
X794703Y371057D01*
X794642Y371078D01*
X794580Y371096D01*
X794516Y371109D01*
X794452Y371119D01*
X794388Y371125D01*
X794323Y371127D01*
X795395Y370055D02*
X795393Y369961D01*
X795387Y369867D01*
X795377Y369773D01*
X795364Y369680D01*
X795346Y369588D01*
X795325Y369496D01*
X795300Y369405D01*
X795271Y369315D01*
X795238Y369227D01*
X795202Y369140D01*
X795162Y369055D01*
X795119Y368971D01*
X795072Y368890D01*
X795022Y368810D01*
X794969Y368732D01*
X794912Y368657D01*
X794853Y368584D01*
X794790Y368514D01*
X794725Y368446D01*
X791641Y368581D02*
X791576Y368583D01*
X791512Y368589D01*
X791448Y368599D01*
X791384Y368612D01*
X791322Y368630D01*
X791261Y368651D01*
X791201Y368675D01*
X791143Y368704D01*
X791086Y368736D01*
X791032Y368771D01*
X790980Y368809D01*
X790930Y368851D01*
X790883Y368895D01*
X790839Y368942D01*
X790797Y368992D01*
X790759Y369044D01*
X790724Y369098D01*
X790692Y369155D01*
X790663Y369213D01*
X790639Y369273D01*
X790618Y369334D01*
X790600Y369396D01*
X790587Y369460D01*
X790577Y369524D01*
X790571Y369588D01*
X790569Y369653D01*
X790571Y369739D01*
X790576Y369825D01*
X790586Y369911D01*
X790599Y369996D01*
X790615Y370081D01*
X790635Y370165D01*
X790659Y370248D01*
X790686Y370330D01*
X790717Y370410D01*
X790751Y370490D01*
X790789Y370567D01*
X790830Y370643D01*
X790874Y370717D01*
X790921Y370790D01*
X790971Y370860D01*
X792579Y369116D02*
X792546Y369063D01*
X792509Y369012D01*
X792470Y368963D01*
X792428Y368916D01*
X792383Y368872D01*
X792336Y368831D01*
X792287Y368792D01*
X792235Y368756D01*
X792181Y368723D01*
X792126Y368694D01*
X792069Y368668D01*
X792010Y368645D01*
X791951Y368625D01*
X791890Y368609D01*
X791829Y368596D01*
X791766Y368587D01*
X791704Y368582D01*
X791641Y368580D01*
X793385Y370591D02*
X793418Y370644D01*
X793455Y370695D01*
X793494Y370744D01*
X793536Y370791D01*
X793581Y370835D01*
X793628Y370876D01*
X793677Y370915D01*
X793729Y370951D01*
X793783Y370984D01*
X793838Y371013D01*
X793895Y371039D01*
X793954Y371062D01*
X794013Y371082D01*
X794074Y371098D01*
X794135Y371111D01*
X794198Y371120D01*
X794260Y371125D01*
X794323Y371127D01*
X793384Y370591D02*
X792580Y369116D01*
X795395Y373482D02*
X790569Y375090D01*
X795395Y376699D01*
X794189Y376297D02*
X794189Y373884D01*
X795395Y380211D02*
X790569Y380211D01*
X790569Y381551D02*
X790569Y378870D01*
X795931Y383710D02*
X795931Y385855D01*
X792714Y388709D02*
X792714Y390050D01*
X792713Y390050D02*
X792715Y390121D01*
X792721Y390193D01*
X792730Y390263D01*
X792743Y390333D01*
X792760Y390403D01*
X792781Y390471D01*
X792805Y390538D01*
X792833Y390604D01*
X792864Y390668D01*
X792899Y390731D01*
X792937Y390791D01*
X792978Y390850D01*
X793022Y390906D01*
X793069Y390960D01*
X793118Y391011D01*
X793171Y391059D01*
X793226Y391105D01*
X793283Y391147D01*
X793343Y391187D01*
X793404Y391223D01*
X793468Y391256D01*
X793533Y391285D01*
X793599Y391311D01*
X793667Y391334D01*
X793736Y391353D01*
X793806Y391368D01*
X793876Y391379D01*
X793947Y391387D01*
X794018Y391391D01*
X794090Y391391D01*
X794161Y391387D01*
X794232Y391379D01*
X794302Y391368D01*
X794372Y391353D01*
X794441Y391334D01*
X794509Y391311D01*
X794575Y391285D01*
X794640Y391256D01*
X794704Y391223D01*
X794765Y391187D01*
X794825Y391147D01*
X794882Y391105D01*
X794937Y391059D01*
X794990Y391011D01*
X795039Y390960D01*
X795086Y390906D01*
X795130Y390850D01*
X795171Y390791D01*
X795209Y390731D01*
X795244Y390668D01*
X795275Y390604D01*
X795303Y390538D01*
X795327Y390471D01*
X795348Y390403D01*
X795365Y390333D01*
X795378Y390263D01*
X795387Y390193D01*
X795393Y390121D01*
X795395Y390050D01*
X795395Y388709D01*
X790569Y388709D01*
X790569Y390050D01*
X790571Y390115D01*
X790577Y390179D01*
X790587Y390243D01*
X790600Y390307D01*
X790618Y390369D01*
X790639Y390430D01*
X790663Y390490D01*
X790692Y390548D01*
X790724Y390605D01*
X790759Y390659D01*
X790797Y390711D01*
X790839Y390761D01*
X790883Y390808D01*
X790930Y390852D01*
X790980Y390894D01*
X791032Y390932D01*
X791086Y390967D01*
X791143Y390999D01*
X791201Y391028D01*
X791261Y391052D01*
X791322Y391073D01*
X791384Y391091D01*
X791448Y391104D01*
X791512Y391114D01*
X791576Y391120D01*
X791641Y391122D01*
X791706Y391120D01*
X791770Y391114D01*
X791834Y391104D01*
X791898Y391091D01*
X791960Y391073D01*
X792021Y391052D01*
X792081Y391028D01*
X792139Y390999D01*
X792196Y390967D01*
X792250Y390932D01*
X792302Y390894D01*
X792352Y390852D01*
X792399Y390808D01*
X792443Y390761D01*
X792485Y390711D01*
X792523Y390659D01*
X792558Y390605D01*
X792590Y390548D01*
X792619Y390490D01*
X792643Y390430D01*
X792664Y390369D01*
X792682Y390307D01*
X792695Y390243D01*
X792705Y390179D01*
X792711Y390115D01*
X792713Y390050D01*
X794054Y394049D02*
X790569Y394049D01*
X794054Y394049D02*
X794125Y394051D01*
X794197Y394057D01*
X794267Y394066D01*
X794337Y394079D01*
X794407Y394096D01*
X794475Y394117D01*
X794542Y394141D01*
X794608Y394169D01*
X794672Y394200D01*
X794735Y394235D01*
X794795Y394273D01*
X794854Y394314D01*
X794910Y394358D01*
X794964Y394405D01*
X795015Y394454D01*
X795063Y394507D01*
X795109Y394562D01*
X795151Y394619D01*
X795191Y394679D01*
X795227Y394740D01*
X795260Y394804D01*
X795289Y394869D01*
X795315Y394935D01*
X795338Y395003D01*
X795357Y395072D01*
X795372Y395142D01*
X795383Y395212D01*
X795391Y395283D01*
X795395Y395354D01*
X795395Y395426D01*
X795391Y395497D01*
X795383Y395568D01*
X795372Y395638D01*
X795357Y395708D01*
X795338Y395777D01*
X795315Y395845D01*
X795289Y395911D01*
X795260Y395976D01*
X795227Y396040D01*
X795191Y396101D01*
X795151Y396161D01*
X795109Y396218D01*
X795063Y396273D01*
X795015Y396326D01*
X794964Y396375D01*
X794910Y396422D01*
X794854Y396466D01*
X794795Y396507D01*
X794735Y396545D01*
X794672Y396580D01*
X794608Y396611D01*
X794542Y396639D01*
X794475Y396663D01*
X794407Y396684D01*
X794337Y396701D01*
X794267Y396714D01*
X794197Y396723D01*
X794125Y396729D01*
X794054Y396731D01*
X794054Y396730D02*
X790569Y396730D01*
X795395Y401144D02*
X795393Y401209D01*
X795387Y401273D01*
X795377Y401337D01*
X795364Y401401D01*
X795346Y401463D01*
X795325Y401524D01*
X795301Y401584D01*
X795272Y401642D01*
X795240Y401699D01*
X795205Y401753D01*
X795167Y401805D01*
X795125Y401855D01*
X795081Y401902D01*
X795034Y401946D01*
X794984Y401988D01*
X794932Y402026D01*
X794878Y402061D01*
X794821Y402093D01*
X794763Y402122D01*
X794703Y402146D01*
X794642Y402167D01*
X794580Y402185D01*
X794516Y402198D01*
X794452Y402208D01*
X794388Y402214D01*
X794323Y402216D01*
X795395Y401144D02*
X795393Y401050D01*
X795387Y400956D01*
X795377Y400862D01*
X795364Y400769D01*
X795346Y400677D01*
X795325Y400585D01*
X795300Y400494D01*
X795271Y400404D01*
X795238Y400316D01*
X795202Y400229D01*
X795162Y400144D01*
X795119Y400060D01*
X795072Y399979D01*
X795022Y399899D01*
X794969Y399821D01*
X794912Y399746D01*
X794853Y399673D01*
X794790Y399603D01*
X794725Y399535D01*
X791641Y399670D02*
X791576Y399672D01*
X791512Y399678D01*
X791448Y399688D01*
X791384Y399701D01*
X791322Y399719D01*
X791261Y399740D01*
X791201Y399764D01*
X791143Y399793D01*
X791086Y399825D01*
X791032Y399860D01*
X790980Y399898D01*
X790930Y399940D01*
X790883Y399984D01*
X790839Y400031D01*
X790797Y400081D01*
X790759Y400133D01*
X790724Y400187D01*
X790692Y400244D01*
X790663Y400302D01*
X790639Y400362D01*
X790618Y400423D01*
X790600Y400485D01*
X790587Y400549D01*
X790577Y400613D01*
X790571Y400677D01*
X790569Y400742D01*
X790571Y400828D01*
X790576Y400914D01*
X790586Y401000D01*
X790599Y401085D01*
X790615Y401170D01*
X790635Y401254D01*
X790659Y401337D01*
X790686Y401419D01*
X790717Y401499D01*
X790751Y401579D01*
X790789Y401656D01*
X790830Y401732D01*
X790874Y401806D01*
X790921Y401879D01*
X790971Y401949D01*
X792579Y400206D02*
X792546Y400153D01*
X792509Y400102D01*
X792470Y400053D01*
X792428Y400006D01*
X792383Y399962D01*
X792336Y399921D01*
X792287Y399882D01*
X792235Y399846D01*
X792181Y399813D01*
X792126Y399784D01*
X792069Y399758D01*
X792010Y399735D01*
X791951Y399715D01*
X791890Y399699D01*
X791829Y399686D01*
X791766Y399677D01*
X791704Y399672D01*
X791641Y399670D01*
X793385Y401680D02*
X793418Y401733D01*
X793455Y401784D01*
X793494Y401833D01*
X793536Y401880D01*
X793581Y401924D01*
X793628Y401965D01*
X793677Y402004D01*
X793729Y402040D01*
X793783Y402073D01*
X793838Y402102D01*
X793895Y402128D01*
X793954Y402151D01*
X794013Y402171D01*
X794074Y402187D01*
X794135Y402200D01*
X794198Y402209D01*
X794260Y402214D01*
X794323Y402216D01*
X793384Y401680D02*
X792580Y400206D01*
M02*
